G04 #@! TF.GenerationSoftware,KiCad,Pcbnew,8.0.3*
G04 #@! TF.CreationDate,2025-12-30T10:32:39+13:00*
G04 #@! TF.ProjectId,AWS_CPU_Interface_Board,4157535f-4350-4555-9f49-6e7465726661,rev?*
G04 #@! TF.SameCoordinates,Original*
G04 #@! TF.FileFunction,Legend,Top*
G04 #@! TF.FilePolarity,Positive*
%FSLAX46Y46*%
G04 Gerber Fmt 4.6, Leading zero omitted, Abs format (unit mm)*
G04 Created by KiCad (PCBNEW 8.0.3) date 2025-12-30 10:32:39*
%MOMM*%
%LPD*%
G01*
G04 APERTURE LIST*
%ADD10C,0.120000*%
%ADD11C,0.150000*%
%ADD12C,0.250000*%
%ADD13R,2.500000X2.500000*%
%ADD14C,2.500000*%
%ADD15C,8.000000*%
%ADD16C,1.700000*%
%ADD17O,1.700000X1.700000*%
%ADD18C,4.000000*%
%ADD19C,1.800000*%
%ADD20R,1.700000X1.700000*%
%ADD21R,1.800000X1.800000*%
%ADD22R,1.778000X1.778000*%
%ADD23C,1.778000*%
%ADD24C,2.540000*%
%ADD25C,1.400000*%
%ADD26O,1.400000X1.400000*%
%ADD27O,1.850000X3.048000*%
%ADD28R,1.600000X1.600000*%
%ADD29C,1.600000*%
%ADD30C,0.800000*%
G04 APERTURE END LIST*
D10*
X112000000Y-62750000D02*
X106675000Y-62750000D01*
X112000000Y-63750000D02*
X112000000Y-62750000D01*
X112000000Y-63750000D02*
X112000000Y-129250000D01*
X112000000Y-129250000D02*
X106700000Y-129250000D01*
D11*
X112235714Y-93062295D02*
X112502381Y-93862295D01*
X112502381Y-93862295D02*
X112769047Y-93062295D01*
X113035714Y-93862295D02*
X113035714Y-93062295D01*
X113416666Y-93862295D02*
X113416666Y-93062295D01*
X113416666Y-93062295D02*
X113607142Y-93062295D01*
X113607142Y-93062295D02*
X113721428Y-93100390D01*
X113721428Y-93100390D02*
X113797618Y-93176580D01*
X113797618Y-93176580D02*
X113835713Y-93252771D01*
X113835713Y-93252771D02*
X113873809Y-93405152D01*
X113873809Y-93405152D02*
X113873809Y-93519438D01*
X113873809Y-93519438D02*
X113835713Y-93671819D01*
X113835713Y-93671819D02*
X113797618Y-93748009D01*
X113797618Y-93748009D02*
X113721428Y-93824200D01*
X113721428Y-93824200D02*
X113607142Y-93862295D01*
X113607142Y-93862295D02*
X113416666Y-93862295D01*
X114216666Y-93443247D02*
X114483332Y-93443247D01*
X114597618Y-93862295D02*
X114216666Y-93862295D01*
X114216666Y-93862295D02*
X114216666Y-93062295D01*
X114216666Y-93062295D02*
X114597618Y-93062295D01*
X115092857Y-93062295D02*
X115245238Y-93062295D01*
X115245238Y-93062295D02*
X115321428Y-93100390D01*
X115321428Y-93100390D02*
X115397619Y-93176580D01*
X115397619Y-93176580D02*
X115435714Y-93328961D01*
X115435714Y-93328961D02*
X115435714Y-93595628D01*
X115435714Y-93595628D02*
X115397619Y-93748009D01*
X115397619Y-93748009D02*
X115321428Y-93824200D01*
X115321428Y-93824200D02*
X115245238Y-93862295D01*
X115245238Y-93862295D02*
X115092857Y-93862295D01*
X115092857Y-93862295D02*
X115016666Y-93824200D01*
X115016666Y-93824200D02*
X114940476Y-93748009D01*
X114940476Y-93748009D02*
X114902380Y-93595628D01*
X114902380Y-93595628D02*
X114902380Y-93328961D01*
X114902380Y-93328961D02*
X114940476Y-93176580D01*
X114940476Y-93176580D02*
X115016666Y-93100390D01*
X115016666Y-93100390D02*
X115092857Y-93062295D01*
X115740475Y-93138485D02*
X115778571Y-93100390D01*
X115778571Y-93100390D02*
X115854761Y-93062295D01*
X115854761Y-93062295D02*
X116045237Y-93062295D01*
X116045237Y-93062295D02*
X116121428Y-93100390D01*
X116121428Y-93100390D02*
X116159523Y-93138485D01*
X116159523Y-93138485D02*
X116197618Y-93214676D01*
X116197618Y-93214676D02*
X116197618Y-93290866D01*
X116197618Y-93290866D02*
X116159523Y-93405152D01*
X116159523Y-93405152D02*
X115702380Y-93862295D01*
X115702380Y-93862295D02*
X116197618Y-93862295D01*
X116540476Y-93557533D02*
X117150000Y-93557533D01*
X114721429Y-126557533D02*
X115330953Y-126557533D01*
X115026191Y-126862295D02*
X115026191Y-126252771D01*
X116092857Y-126062295D02*
X115711905Y-126062295D01*
X115711905Y-126062295D02*
X115673809Y-126443247D01*
X115673809Y-126443247D02*
X115711905Y-126405152D01*
X115711905Y-126405152D02*
X115788095Y-126367057D01*
X115788095Y-126367057D02*
X115978571Y-126367057D01*
X115978571Y-126367057D02*
X116054762Y-126405152D01*
X116054762Y-126405152D02*
X116092857Y-126443247D01*
X116092857Y-126443247D02*
X116130952Y-126519438D01*
X116130952Y-126519438D02*
X116130952Y-126709914D01*
X116130952Y-126709914D02*
X116092857Y-126786104D01*
X116092857Y-126786104D02*
X116054762Y-126824200D01*
X116054762Y-126824200D02*
X115978571Y-126862295D01*
X115978571Y-126862295D02*
X115788095Y-126862295D01*
X115788095Y-126862295D02*
X115711905Y-126824200D01*
X115711905Y-126824200D02*
X115673809Y-126786104D01*
X116359524Y-126062295D02*
X116626191Y-126862295D01*
X116626191Y-126862295D02*
X116892857Y-126062295D01*
X124140476Y-121100390D02*
X124064286Y-121062295D01*
X124064286Y-121062295D02*
X123950000Y-121062295D01*
X123950000Y-121062295D02*
X123835714Y-121100390D01*
X123835714Y-121100390D02*
X123759524Y-121176580D01*
X123759524Y-121176580D02*
X123721429Y-121252771D01*
X123721429Y-121252771D02*
X123683333Y-121405152D01*
X123683333Y-121405152D02*
X123683333Y-121519438D01*
X123683333Y-121519438D02*
X123721429Y-121671819D01*
X123721429Y-121671819D02*
X123759524Y-121748009D01*
X123759524Y-121748009D02*
X123835714Y-121824200D01*
X123835714Y-121824200D02*
X123950000Y-121862295D01*
X123950000Y-121862295D02*
X124026191Y-121862295D01*
X124026191Y-121862295D02*
X124140476Y-121824200D01*
X124140476Y-121824200D02*
X124178572Y-121786104D01*
X124178572Y-121786104D02*
X124178572Y-121519438D01*
X124178572Y-121519438D02*
X124026191Y-121519438D01*
X124521429Y-121862295D02*
X124521429Y-121062295D01*
X124521429Y-121062295D02*
X124978572Y-121862295D01*
X124978572Y-121862295D02*
X124978572Y-121062295D01*
X125359524Y-121862295D02*
X125359524Y-121062295D01*
X125359524Y-121062295D02*
X125550000Y-121062295D01*
X125550000Y-121062295D02*
X125664286Y-121100390D01*
X125664286Y-121100390D02*
X125740476Y-121176580D01*
X125740476Y-121176580D02*
X125778571Y-121252771D01*
X125778571Y-121252771D02*
X125816667Y-121405152D01*
X125816667Y-121405152D02*
X125816667Y-121519438D01*
X125816667Y-121519438D02*
X125778571Y-121671819D01*
X125778571Y-121671819D02*
X125740476Y-121748009D01*
X125740476Y-121748009D02*
X125664286Y-121824200D01*
X125664286Y-121824200D02*
X125550000Y-121862295D01*
X125550000Y-121862295D02*
X125359524Y-121862295D01*
X124140476Y-108350390D02*
X124064286Y-108312295D01*
X124064286Y-108312295D02*
X123950000Y-108312295D01*
X123950000Y-108312295D02*
X123835714Y-108350390D01*
X123835714Y-108350390D02*
X123759524Y-108426580D01*
X123759524Y-108426580D02*
X123721429Y-108502771D01*
X123721429Y-108502771D02*
X123683333Y-108655152D01*
X123683333Y-108655152D02*
X123683333Y-108769438D01*
X123683333Y-108769438D02*
X123721429Y-108921819D01*
X123721429Y-108921819D02*
X123759524Y-108998009D01*
X123759524Y-108998009D02*
X123835714Y-109074200D01*
X123835714Y-109074200D02*
X123950000Y-109112295D01*
X123950000Y-109112295D02*
X124026191Y-109112295D01*
X124026191Y-109112295D02*
X124140476Y-109074200D01*
X124140476Y-109074200D02*
X124178572Y-109036104D01*
X124178572Y-109036104D02*
X124178572Y-108769438D01*
X124178572Y-108769438D02*
X124026191Y-108769438D01*
X124521429Y-109112295D02*
X124521429Y-108312295D01*
X124521429Y-108312295D02*
X124978572Y-109112295D01*
X124978572Y-109112295D02*
X124978572Y-108312295D01*
X125359524Y-109112295D02*
X125359524Y-108312295D01*
X125359524Y-108312295D02*
X125550000Y-108312295D01*
X125550000Y-108312295D02*
X125664286Y-108350390D01*
X125664286Y-108350390D02*
X125740476Y-108426580D01*
X125740476Y-108426580D02*
X125778571Y-108502771D01*
X125778571Y-108502771D02*
X125816667Y-108655152D01*
X125816667Y-108655152D02*
X125816667Y-108769438D01*
X125816667Y-108769438D02*
X125778571Y-108921819D01*
X125778571Y-108921819D02*
X125740476Y-108998009D01*
X125740476Y-108998009D02*
X125664286Y-109074200D01*
X125664286Y-109074200D02*
X125550000Y-109112295D01*
X125550000Y-109112295D02*
X125359524Y-109112295D01*
X124140476Y-95600390D02*
X124064286Y-95562295D01*
X124064286Y-95562295D02*
X123950000Y-95562295D01*
X123950000Y-95562295D02*
X123835714Y-95600390D01*
X123835714Y-95600390D02*
X123759524Y-95676580D01*
X123759524Y-95676580D02*
X123721429Y-95752771D01*
X123721429Y-95752771D02*
X123683333Y-95905152D01*
X123683333Y-95905152D02*
X123683333Y-96019438D01*
X123683333Y-96019438D02*
X123721429Y-96171819D01*
X123721429Y-96171819D02*
X123759524Y-96248009D01*
X123759524Y-96248009D02*
X123835714Y-96324200D01*
X123835714Y-96324200D02*
X123950000Y-96362295D01*
X123950000Y-96362295D02*
X124026191Y-96362295D01*
X124026191Y-96362295D02*
X124140476Y-96324200D01*
X124140476Y-96324200D02*
X124178572Y-96286104D01*
X124178572Y-96286104D02*
X124178572Y-96019438D01*
X124178572Y-96019438D02*
X124026191Y-96019438D01*
X124521429Y-96362295D02*
X124521429Y-95562295D01*
X124521429Y-95562295D02*
X124978572Y-96362295D01*
X124978572Y-96362295D02*
X124978572Y-95562295D01*
X125359524Y-96362295D02*
X125359524Y-95562295D01*
X125359524Y-95562295D02*
X125550000Y-95562295D01*
X125550000Y-95562295D02*
X125664286Y-95600390D01*
X125664286Y-95600390D02*
X125740476Y-95676580D01*
X125740476Y-95676580D02*
X125778571Y-95752771D01*
X125778571Y-95752771D02*
X125816667Y-95905152D01*
X125816667Y-95905152D02*
X125816667Y-96019438D01*
X125816667Y-96019438D02*
X125778571Y-96171819D01*
X125778571Y-96171819D02*
X125740476Y-96248009D01*
X125740476Y-96248009D02*
X125664286Y-96324200D01*
X125664286Y-96324200D02*
X125550000Y-96362295D01*
X125550000Y-96362295D02*
X125359524Y-96362295D01*
X124140476Y-82850390D02*
X124064286Y-82812295D01*
X124064286Y-82812295D02*
X123950000Y-82812295D01*
X123950000Y-82812295D02*
X123835714Y-82850390D01*
X123835714Y-82850390D02*
X123759524Y-82926580D01*
X123759524Y-82926580D02*
X123721429Y-83002771D01*
X123721429Y-83002771D02*
X123683333Y-83155152D01*
X123683333Y-83155152D02*
X123683333Y-83269438D01*
X123683333Y-83269438D02*
X123721429Y-83421819D01*
X123721429Y-83421819D02*
X123759524Y-83498009D01*
X123759524Y-83498009D02*
X123835714Y-83574200D01*
X123835714Y-83574200D02*
X123950000Y-83612295D01*
X123950000Y-83612295D02*
X124026191Y-83612295D01*
X124026191Y-83612295D02*
X124140476Y-83574200D01*
X124140476Y-83574200D02*
X124178572Y-83536104D01*
X124178572Y-83536104D02*
X124178572Y-83269438D01*
X124178572Y-83269438D02*
X124026191Y-83269438D01*
X124521429Y-83612295D02*
X124521429Y-82812295D01*
X124521429Y-82812295D02*
X124978572Y-83612295D01*
X124978572Y-83612295D02*
X124978572Y-82812295D01*
X125359524Y-83612295D02*
X125359524Y-82812295D01*
X125359524Y-82812295D02*
X125550000Y-82812295D01*
X125550000Y-82812295D02*
X125664286Y-82850390D01*
X125664286Y-82850390D02*
X125740476Y-82926580D01*
X125740476Y-82926580D02*
X125778571Y-83002771D01*
X125778571Y-83002771D02*
X125816667Y-83155152D01*
X125816667Y-83155152D02*
X125816667Y-83269438D01*
X125816667Y-83269438D02*
X125778571Y-83421819D01*
X125778571Y-83421819D02*
X125740476Y-83498009D01*
X125740476Y-83498009D02*
X125664286Y-83574200D01*
X125664286Y-83574200D02*
X125550000Y-83612295D01*
X125550000Y-83612295D02*
X125359524Y-83612295D01*
X123721429Y-78307533D02*
X124330953Y-78307533D01*
X124026191Y-78612295D02*
X124026191Y-78002771D01*
X125092857Y-77812295D02*
X124711905Y-77812295D01*
X124711905Y-77812295D02*
X124673809Y-78193247D01*
X124673809Y-78193247D02*
X124711905Y-78155152D01*
X124711905Y-78155152D02*
X124788095Y-78117057D01*
X124788095Y-78117057D02*
X124978571Y-78117057D01*
X124978571Y-78117057D02*
X125054762Y-78155152D01*
X125054762Y-78155152D02*
X125092857Y-78193247D01*
X125092857Y-78193247D02*
X125130952Y-78269438D01*
X125130952Y-78269438D02*
X125130952Y-78459914D01*
X125130952Y-78459914D02*
X125092857Y-78536104D01*
X125092857Y-78536104D02*
X125054762Y-78574200D01*
X125054762Y-78574200D02*
X124978571Y-78612295D01*
X124978571Y-78612295D02*
X124788095Y-78612295D01*
X124788095Y-78612295D02*
X124711905Y-78574200D01*
X124711905Y-78574200D02*
X124673809Y-78536104D01*
X125359524Y-77812295D02*
X125626191Y-78612295D01*
X125626191Y-78612295D02*
X125892857Y-77812295D01*
X123676190Y-90562295D02*
X123942857Y-91362295D01*
X123942857Y-91362295D02*
X124209523Y-90562295D01*
X124476190Y-90943247D02*
X124742856Y-90943247D01*
X124857142Y-91362295D02*
X124476190Y-91362295D01*
X124476190Y-91362295D02*
X124476190Y-90562295D01*
X124476190Y-90562295D02*
X124857142Y-90562295D01*
X125657143Y-91362295D02*
X125390476Y-90981342D01*
X125200000Y-91362295D02*
X125200000Y-90562295D01*
X125200000Y-90562295D02*
X125504762Y-90562295D01*
X125504762Y-90562295D02*
X125580952Y-90600390D01*
X125580952Y-90600390D02*
X125619047Y-90638485D01*
X125619047Y-90638485D02*
X125657143Y-90714676D01*
X125657143Y-90714676D02*
X125657143Y-90828961D01*
X125657143Y-90828961D02*
X125619047Y-90905152D01*
X125619047Y-90905152D02*
X125580952Y-90943247D01*
X125580952Y-90943247D02*
X125504762Y-90981342D01*
X125504762Y-90981342D02*
X125200000Y-90981342D01*
X126000000Y-91362295D02*
X126000000Y-90562295D01*
X126000000Y-90562295D02*
X126190476Y-90562295D01*
X126190476Y-90562295D02*
X126304762Y-90600390D01*
X126304762Y-90600390D02*
X126380952Y-90676580D01*
X126380952Y-90676580D02*
X126419047Y-90752771D01*
X126419047Y-90752771D02*
X126457143Y-90905152D01*
X126457143Y-90905152D02*
X126457143Y-91019438D01*
X126457143Y-91019438D02*
X126419047Y-91171819D01*
X126419047Y-91171819D02*
X126380952Y-91248009D01*
X126380952Y-91248009D02*
X126304762Y-91324200D01*
X126304762Y-91324200D02*
X126190476Y-91362295D01*
X126190476Y-91362295D02*
X126000000Y-91362295D01*
X127257143Y-91362295D02*
X126990476Y-90981342D01*
X126800000Y-91362295D02*
X126800000Y-90562295D01*
X126800000Y-90562295D02*
X127104762Y-90562295D01*
X127104762Y-90562295D02*
X127180952Y-90600390D01*
X127180952Y-90600390D02*
X127219047Y-90638485D01*
X127219047Y-90638485D02*
X127257143Y-90714676D01*
X127257143Y-90714676D02*
X127257143Y-90828961D01*
X127257143Y-90828961D02*
X127219047Y-90905152D01*
X127219047Y-90905152D02*
X127180952Y-90943247D01*
X127180952Y-90943247D02*
X127104762Y-90981342D01*
X127104762Y-90981342D02*
X126800000Y-90981342D01*
X127600000Y-91057533D02*
X128209524Y-91057533D01*
X127904762Y-91362295D02*
X127904762Y-90752771D01*
X123657143Y-88612295D02*
X123657143Y-87812295D01*
X123657143Y-88193247D02*
X124114286Y-88193247D01*
X124114286Y-88612295D02*
X124114286Y-87812295D01*
X124647619Y-87812295D02*
X124800000Y-87812295D01*
X124800000Y-87812295D02*
X124876190Y-87850390D01*
X124876190Y-87850390D02*
X124952381Y-87926580D01*
X124952381Y-87926580D02*
X124990476Y-88078961D01*
X124990476Y-88078961D02*
X124990476Y-88345628D01*
X124990476Y-88345628D02*
X124952381Y-88498009D01*
X124952381Y-88498009D02*
X124876190Y-88574200D01*
X124876190Y-88574200D02*
X124800000Y-88612295D01*
X124800000Y-88612295D02*
X124647619Y-88612295D01*
X124647619Y-88612295D02*
X124571428Y-88574200D01*
X124571428Y-88574200D02*
X124495238Y-88498009D01*
X124495238Y-88498009D02*
X124457142Y-88345628D01*
X124457142Y-88345628D02*
X124457142Y-88078961D01*
X124457142Y-88078961D02*
X124495238Y-87926580D01*
X124495238Y-87926580D02*
X124571428Y-87850390D01*
X124571428Y-87850390D02*
X124647619Y-87812295D01*
X125790476Y-88612295D02*
X125523809Y-88231342D01*
X125333333Y-88612295D02*
X125333333Y-87812295D01*
X125333333Y-87812295D02*
X125638095Y-87812295D01*
X125638095Y-87812295D02*
X125714285Y-87850390D01*
X125714285Y-87850390D02*
X125752380Y-87888485D01*
X125752380Y-87888485D02*
X125790476Y-87964676D01*
X125790476Y-87964676D02*
X125790476Y-88078961D01*
X125790476Y-88078961D02*
X125752380Y-88155152D01*
X125752380Y-88155152D02*
X125714285Y-88193247D01*
X125714285Y-88193247D02*
X125638095Y-88231342D01*
X125638095Y-88231342D02*
X125333333Y-88231342D01*
X126133333Y-88612295D02*
X126133333Y-87812295D01*
X126133333Y-87812295D02*
X126323809Y-87812295D01*
X126323809Y-87812295D02*
X126438095Y-87850390D01*
X126438095Y-87850390D02*
X126514285Y-87926580D01*
X126514285Y-87926580D02*
X126552380Y-88002771D01*
X126552380Y-88002771D02*
X126590476Y-88155152D01*
X126590476Y-88155152D02*
X126590476Y-88269438D01*
X126590476Y-88269438D02*
X126552380Y-88421819D01*
X126552380Y-88421819D02*
X126514285Y-88498009D01*
X126514285Y-88498009D02*
X126438095Y-88574200D01*
X126438095Y-88574200D02*
X126323809Y-88612295D01*
X126323809Y-88612295D02*
X126133333Y-88612295D01*
X127390476Y-88612295D02*
X127123809Y-88231342D01*
X126933333Y-88612295D02*
X126933333Y-87812295D01*
X126933333Y-87812295D02*
X127238095Y-87812295D01*
X127238095Y-87812295D02*
X127314285Y-87850390D01*
X127314285Y-87850390D02*
X127352380Y-87888485D01*
X127352380Y-87888485D02*
X127390476Y-87964676D01*
X127390476Y-87964676D02*
X127390476Y-88078961D01*
X127390476Y-88078961D02*
X127352380Y-88155152D01*
X127352380Y-88155152D02*
X127314285Y-88193247D01*
X127314285Y-88193247D02*
X127238095Y-88231342D01*
X127238095Y-88231342D02*
X126933333Y-88231342D01*
X127733333Y-88307533D02*
X128342857Y-88307533D01*
X128038095Y-88612295D02*
X128038095Y-88002771D01*
X123616667Y-85312295D02*
X123883334Y-86112295D01*
X123883334Y-86112295D02*
X124150000Y-85312295D01*
X124416667Y-86112295D02*
X124416667Y-85312295D01*
X124797619Y-86112295D02*
X124797619Y-85312295D01*
X124797619Y-85312295D02*
X124988095Y-85312295D01*
X124988095Y-85312295D02*
X125102381Y-85350390D01*
X125102381Y-85350390D02*
X125178571Y-85426580D01*
X125178571Y-85426580D02*
X125216666Y-85502771D01*
X125216666Y-85502771D02*
X125254762Y-85655152D01*
X125254762Y-85655152D02*
X125254762Y-85769438D01*
X125254762Y-85769438D02*
X125216666Y-85921819D01*
X125216666Y-85921819D02*
X125178571Y-85998009D01*
X125178571Y-85998009D02*
X125102381Y-86074200D01*
X125102381Y-86074200D02*
X124988095Y-86112295D01*
X124988095Y-86112295D02*
X124797619Y-86112295D01*
X125597619Y-85693247D02*
X125864285Y-85693247D01*
X125978571Y-86112295D02*
X125597619Y-86112295D01*
X125597619Y-86112295D02*
X125597619Y-85312295D01*
X125597619Y-85312295D02*
X125978571Y-85312295D01*
X126473810Y-85312295D02*
X126626191Y-85312295D01*
X126626191Y-85312295D02*
X126702381Y-85350390D01*
X126702381Y-85350390D02*
X126778572Y-85426580D01*
X126778572Y-85426580D02*
X126816667Y-85578961D01*
X126816667Y-85578961D02*
X126816667Y-85845628D01*
X126816667Y-85845628D02*
X126778572Y-85998009D01*
X126778572Y-85998009D02*
X126702381Y-86074200D01*
X126702381Y-86074200D02*
X126626191Y-86112295D01*
X126626191Y-86112295D02*
X126473810Y-86112295D01*
X126473810Y-86112295D02*
X126397619Y-86074200D01*
X126397619Y-86074200D02*
X126321429Y-85998009D01*
X126321429Y-85998009D02*
X126283333Y-85845628D01*
X126283333Y-85845628D02*
X126283333Y-85578961D01*
X126283333Y-85578961D02*
X126321429Y-85426580D01*
X126321429Y-85426580D02*
X126397619Y-85350390D01*
X126397619Y-85350390D02*
X126473810Y-85312295D01*
X127159524Y-85807533D02*
X127769048Y-85807533D01*
X127464286Y-86112295D02*
X127464286Y-85502771D01*
X140538095Y-114252438D02*
X140442857Y-114204819D01*
X140442857Y-114204819D02*
X140300000Y-114204819D01*
X140300000Y-114204819D02*
X140157143Y-114252438D01*
X140157143Y-114252438D02*
X140061905Y-114347676D01*
X140061905Y-114347676D02*
X140014286Y-114442914D01*
X140014286Y-114442914D02*
X139966667Y-114633390D01*
X139966667Y-114633390D02*
X139966667Y-114776247D01*
X139966667Y-114776247D02*
X140014286Y-114966723D01*
X140014286Y-114966723D02*
X140061905Y-115061961D01*
X140061905Y-115061961D02*
X140157143Y-115157200D01*
X140157143Y-115157200D02*
X140300000Y-115204819D01*
X140300000Y-115204819D02*
X140395238Y-115204819D01*
X140395238Y-115204819D02*
X140538095Y-115157200D01*
X140538095Y-115157200D02*
X140585714Y-115109580D01*
X140585714Y-115109580D02*
X140585714Y-114776247D01*
X140585714Y-114776247D02*
X140395238Y-114776247D01*
X141014286Y-115204819D02*
X141014286Y-114204819D01*
X141014286Y-114204819D02*
X141585714Y-115204819D01*
X141585714Y-115204819D02*
X141585714Y-114204819D01*
X142061905Y-115204819D02*
X142061905Y-114204819D01*
X142061905Y-114204819D02*
X142300000Y-114204819D01*
X142300000Y-114204819D02*
X142442857Y-114252438D01*
X142442857Y-114252438D02*
X142538095Y-114347676D01*
X142538095Y-114347676D02*
X142585714Y-114442914D01*
X142585714Y-114442914D02*
X142633333Y-114633390D01*
X142633333Y-114633390D02*
X142633333Y-114776247D01*
X142633333Y-114776247D02*
X142585714Y-114966723D01*
X142585714Y-114966723D02*
X142538095Y-115061961D01*
X142538095Y-115061961D02*
X142442857Y-115157200D01*
X142442857Y-115157200D02*
X142300000Y-115204819D01*
X142300000Y-115204819D02*
X142061905Y-115204819D01*
X147614286Y-114823866D02*
X148376191Y-114823866D01*
X147995238Y-115204819D02*
X147995238Y-114442914D01*
X149328571Y-114204819D02*
X148852381Y-114204819D01*
X148852381Y-114204819D02*
X148804762Y-114681009D01*
X148804762Y-114681009D02*
X148852381Y-114633390D01*
X148852381Y-114633390D02*
X148947619Y-114585771D01*
X148947619Y-114585771D02*
X149185714Y-114585771D01*
X149185714Y-114585771D02*
X149280952Y-114633390D01*
X149280952Y-114633390D02*
X149328571Y-114681009D01*
X149328571Y-114681009D02*
X149376190Y-114776247D01*
X149376190Y-114776247D02*
X149376190Y-115014342D01*
X149376190Y-115014342D02*
X149328571Y-115109580D01*
X149328571Y-115109580D02*
X149280952Y-115157200D01*
X149280952Y-115157200D02*
X149185714Y-115204819D01*
X149185714Y-115204819D02*
X148947619Y-115204819D01*
X148947619Y-115204819D02*
X148852381Y-115157200D01*
X148852381Y-115157200D02*
X148804762Y-115109580D01*
X149661905Y-114204819D02*
X149995238Y-115204819D01*
X149995238Y-115204819D02*
X150328571Y-114204819D01*
X154238095Y-107954819D02*
X154809523Y-107954819D01*
X154523809Y-108954819D02*
X154523809Y-107954819D01*
X155047619Y-107954819D02*
X155714285Y-108954819D01*
X155714285Y-107954819D02*
X155047619Y-108954819D01*
X156809523Y-107907200D02*
X155952381Y-109192914D01*
X157714285Y-108954819D02*
X157380952Y-108478628D01*
X157142857Y-108954819D02*
X157142857Y-107954819D01*
X157142857Y-107954819D02*
X157523809Y-107954819D01*
X157523809Y-107954819D02*
X157619047Y-108002438D01*
X157619047Y-108002438D02*
X157666666Y-108050057D01*
X157666666Y-108050057D02*
X157714285Y-108145295D01*
X157714285Y-108145295D02*
X157714285Y-108288152D01*
X157714285Y-108288152D02*
X157666666Y-108383390D01*
X157666666Y-108383390D02*
X157619047Y-108431009D01*
X157619047Y-108431009D02*
X157523809Y-108478628D01*
X157523809Y-108478628D02*
X157142857Y-108478628D01*
X158047619Y-107954819D02*
X158714285Y-108954819D01*
X158714285Y-107954819D02*
X158047619Y-108954819D01*
X160428571Y-108859580D02*
X160380952Y-108907200D01*
X160380952Y-108907200D02*
X160238095Y-108954819D01*
X160238095Y-108954819D02*
X160142857Y-108954819D01*
X160142857Y-108954819D02*
X160000000Y-108907200D01*
X160000000Y-108907200D02*
X159904762Y-108811961D01*
X159904762Y-108811961D02*
X159857143Y-108716723D01*
X159857143Y-108716723D02*
X159809524Y-108526247D01*
X159809524Y-108526247D02*
X159809524Y-108383390D01*
X159809524Y-108383390D02*
X159857143Y-108192914D01*
X159857143Y-108192914D02*
X159904762Y-108097676D01*
X159904762Y-108097676D02*
X160000000Y-108002438D01*
X160000000Y-108002438D02*
X160142857Y-107954819D01*
X160142857Y-107954819D02*
X160238095Y-107954819D01*
X160238095Y-107954819D02*
X160380952Y-108002438D01*
X160380952Y-108002438D02*
X160428571Y-108050057D01*
X160857143Y-108573866D02*
X161619048Y-108573866D01*
X161238095Y-108954819D02*
X161238095Y-108192914D01*
X154738095Y-78954819D02*
X155309523Y-78954819D01*
X155023809Y-79954819D02*
X155023809Y-78954819D01*
X155547619Y-78954819D02*
X156214285Y-79954819D01*
X156214285Y-78954819D02*
X155547619Y-79954819D01*
X157309523Y-78907200D02*
X156452381Y-80192914D01*
X158214285Y-79954819D02*
X157880952Y-79478628D01*
X157642857Y-79954819D02*
X157642857Y-78954819D01*
X157642857Y-78954819D02*
X158023809Y-78954819D01*
X158023809Y-78954819D02*
X158119047Y-79002438D01*
X158119047Y-79002438D02*
X158166666Y-79050057D01*
X158166666Y-79050057D02*
X158214285Y-79145295D01*
X158214285Y-79145295D02*
X158214285Y-79288152D01*
X158214285Y-79288152D02*
X158166666Y-79383390D01*
X158166666Y-79383390D02*
X158119047Y-79431009D01*
X158119047Y-79431009D02*
X158023809Y-79478628D01*
X158023809Y-79478628D02*
X157642857Y-79478628D01*
X158547619Y-78954819D02*
X159214285Y-79954819D01*
X159214285Y-78954819D02*
X158547619Y-79954819D01*
X160928571Y-79859580D02*
X160880952Y-79907200D01*
X160880952Y-79907200D02*
X160738095Y-79954819D01*
X160738095Y-79954819D02*
X160642857Y-79954819D01*
X160642857Y-79954819D02*
X160500000Y-79907200D01*
X160500000Y-79907200D02*
X160404762Y-79811961D01*
X160404762Y-79811961D02*
X160357143Y-79716723D01*
X160357143Y-79716723D02*
X160309524Y-79526247D01*
X160309524Y-79526247D02*
X160309524Y-79383390D01*
X160309524Y-79383390D02*
X160357143Y-79192914D01*
X160357143Y-79192914D02*
X160404762Y-79097676D01*
X160404762Y-79097676D02*
X160500000Y-79002438D01*
X160500000Y-79002438D02*
X160642857Y-78954819D01*
X160642857Y-78954819D02*
X160738095Y-78954819D01*
X160738095Y-78954819D02*
X160880952Y-79002438D01*
X160880952Y-79002438D02*
X160928571Y-79050057D01*
X161357143Y-79573866D02*
X162119048Y-79573866D01*
X154738095Y-81954819D02*
X155309523Y-81954819D01*
X155023809Y-82954819D02*
X155023809Y-81954819D01*
X155547619Y-81954819D02*
X156214285Y-82954819D01*
X156214285Y-81954819D02*
X155547619Y-82954819D01*
X157309523Y-81907200D02*
X156452381Y-83192914D01*
X158214285Y-82954819D02*
X157880952Y-82478628D01*
X157642857Y-82954819D02*
X157642857Y-81954819D01*
X157642857Y-81954819D02*
X158023809Y-81954819D01*
X158023809Y-81954819D02*
X158119047Y-82002438D01*
X158119047Y-82002438D02*
X158166666Y-82050057D01*
X158166666Y-82050057D02*
X158214285Y-82145295D01*
X158214285Y-82145295D02*
X158214285Y-82288152D01*
X158214285Y-82288152D02*
X158166666Y-82383390D01*
X158166666Y-82383390D02*
X158119047Y-82431009D01*
X158119047Y-82431009D02*
X158023809Y-82478628D01*
X158023809Y-82478628D02*
X157642857Y-82478628D01*
X158547619Y-81954819D02*
X159214285Y-82954819D01*
X159214285Y-81954819D02*
X158547619Y-82954819D01*
X160357143Y-82954819D02*
X160357143Y-81954819D01*
X160357143Y-81954819D02*
X160595238Y-81954819D01*
X160595238Y-81954819D02*
X160738095Y-82002438D01*
X160738095Y-82002438D02*
X160833333Y-82097676D01*
X160833333Y-82097676D02*
X160880952Y-82192914D01*
X160880952Y-82192914D02*
X160928571Y-82383390D01*
X160928571Y-82383390D02*
X160928571Y-82526247D01*
X160928571Y-82526247D02*
X160880952Y-82716723D01*
X160880952Y-82716723D02*
X160833333Y-82811961D01*
X160833333Y-82811961D02*
X160738095Y-82907200D01*
X160738095Y-82907200D02*
X160595238Y-82954819D01*
X160595238Y-82954819D02*
X160357143Y-82954819D01*
X161357143Y-82573866D02*
X162119048Y-82573866D01*
X161738095Y-82954819D02*
X161738095Y-82192914D01*
X154738095Y-76454819D02*
X155309523Y-76454819D01*
X155023809Y-77454819D02*
X155023809Y-76454819D01*
X155547619Y-76454819D02*
X156214285Y-77454819D01*
X156214285Y-76454819D02*
X155547619Y-77454819D01*
X157309523Y-76407200D02*
X156452381Y-77692914D01*
X158214285Y-77454819D02*
X157880952Y-76978628D01*
X157642857Y-77454819D02*
X157642857Y-76454819D01*
X157642857Y-76454819D02*
X158023809Y-76454819D01*
X158023809Y-76454819D02*
X158119047Y-76502438D01*
X158119047Y-76502438D02*
X158166666Y-76550057D01*
X158166666Y-76550057D02*
X158214285Y-76645295D01*
X158214285Y-76645295D02*
X158214285Y-76788152D01*
X158214285Y-76788152D02*
X158166666Y-76883390D01*
X158166666Y-76883390D02*
X158119047Y-76931009D01*
X158119047Y-76931009D02*
X158023809Y-76978628D01*
X158023809Y-76978628D02*
X157642857Y-76978628D01*
X158547619Y-76454819D02*
X159214285Y-77454819D01*
X159214285Y-76454819D02*
X158547619Y-77454819D01*
X160928571Y-77359580D02*
X160880952Y-77407200D01*
X160880952Y-77407200D02*
X160738095Y-77454819D01*
X160738095Y-77454819D02*
X160642857Y-77454819D01*
X160642857Y-77454819D02*
X160500000Y-77407200D01*
X160500000Y-77407200D02*
X160404762Y-77311961D01*
X160404762Y-77311961D02*
X160357143Y-77216723D01*
X160357143Y-77216723D02*
X160309524Y-77026247D01*
X160309524Y-77026247D02*
X160309524Y-76883390D01*
X160309524Y-76883390D02*
X160357143Y-76692914D01*
X160357143Y-76692914D02*
X160404762Y-76597676D01*
X160404762Y-76597676D02*
X160500000Y-76502438D01*
X160500000Y-76502438D02*
X160642857Y-76454819D01*
X160642857Y-76454819D02*
X160738095Y-76454819D01*
X160738095Y-76454819D02*
X160880952Y-76502438D01*
X160880952Y-76502438D02*
X160928571Y-76550057D01*
X161357143Y-77073866D02*
X162119048Y-77073866D01*
X161738095Y-77454819D02*
X161738095Y-76692914D01*
X154738095Y-84454819D02*
X155309523Y-84454819D01*
X155023809Y-85454819D02*
X155023809Y-84454819D01*
X155547619Y-84454819D02*
X156214285Y-85454819D01*
X156214285Y-84454819D02*
X155547619Y-85454819D01*
X157309523Y-84407200D02*
X156452381Y-85692914D01*
X158214285Y-85454819D02*
X157880952Y-84978628D01*
X157642857Y-85454819D02*
X157642857Y-84454819D01*
X157642857Y-84454819D02*
X158023809Y-84454819D01*
X158023809Y-84454819D02*
X158119047Y-84502438D01*
X158119047Y-84502438D02*
X158166666Y-84550057D01*
X158166666Y-84550057D02*
X158214285Y-84645295D01*
X158214285Y-84645295D02*
X158214285Y-84788152D01*
X158214285Y-84788152D02*
X158166666Y-84883390D01*
X158166666Y-84883390D02*
X158119047Y-84931009D01*
X158119047Y-84931009D02*
X158023809Y-84978628D01*
X158023809Y-84978628D02*
X157642857Y-84978628D01*
X158547619Y-84454819D02*
X159214285Y-85454819D01*
X159214285Y-84454819D02*
X158547619Y-85454819D01*
X160357143Y-85454819D02*
X160357143Y-84454819D01*
X160357143Y-84454819D02*
X160595238Y-84454819D01*
X160595238Y-84454819D02*
X160738095Y-84502438D01*
X160738095Y-84502438D02*
X160833333Y-84597676D01*
X160833333Y-84597676D02*
X160880952Y-84692914D01*
X160880952Y-84692914D02*
X160928571Y-84883390D01*
X160928571Y-84883390D02*
X160928571Y-85026247D01*
X160928571Y-85026247D02*
X160880952Y-85216723D01*
X160880952Y-85216723D02*
X160833333Y-85311961D01*
X160833333Y-85311961D02*
X160738095Y-85407200D01*
X160738095Y-85407200D02*
X160595238Y-85454819D01*
X160595238Y-85454819D02*
X160357143Y-85454819D01*
X161357143Y-85073866D02*
X162119048Y-85073866D01*
X150015476Y-89650390D02*
X149939286Y-89612295D01*
X149939286Y-89612295D02*
X149825000Y-89612295D01*
X149825000Y-89612295D02*
X149710714Y-89650390D01*
X149710714Y-89650390D02*
X149634524Y-89726580D01*
X149634524Y-89726580D02*
X149596429Y-89802771D01*
X149596429Y-89802771D02*
X149558333Y-89955152D01*
X149558333Y-89955152D02*
X149558333Y-90069438D01*
X149558333Y-90069438D02*
X149596429Y-90221819D01*
X149596429Y-90221819D02*
X149634524Y-90298009D01*
X149634524Y-90298009D02*
X149710714Y-90374200D01*
X149710714Y-90374200D02*
X149825000Y-90412295D01*
X149825000Y-90412295D02*
X149901191Y-90412295D01*
X149901191Y-90412295D02*
X150015476Y-90374200D01*
X150015476Y-90374200D02*
X150053572Y-90336104D01*
X150053572Y-90336104D02*
X150053572Y-90069438D01*
X150053572Y-90069438D02*
X149901191Y-90069438D01*
X150396429Y-90412295D02*
X150396429Y-89612295D01*
X150396429Y-89612295D02*
X150853572Y-90412295D01*
X150853572Y-90412295D02*
X150853572Y-89612295D01*
X151234524Y-90412295D02*
X151234524Y-89612295D01*
X151234524Y-89612295D02*
X151425000Y-89612295D01*
X151425000Y-89612295D02*
X151539286Y-89650390D01*
X151539286Y-89650390D02*
X151615476Y-89726580D01*
X151615476Y-89726580D02*
X151653571Y-89802771D01*
X151653571Y-89802771D02*
X151691667Y-89955152D01*
X151691667Y-89955152D02*
X151691667Y-90069438D01*
X151691667Y-90069438D02*
X151653571Y-90221819D01*
X151653571Y-90221819D02*
X151615476Y-90298009D01*
X151615476Y-90298009D02*
X151539286Y-90374200D01*
X151539286Y-90374200D02*
X151425000Y-90412295D01*
X151425000Y-90412295D02*
X151234524Y-90412295D01*
X173454819Y-80988094D02*
X172454819Y-80988094D01*
X172454819Y-80988094D02*
X172454819Y-80749999D01*
X172454819Y-80749999D02*
X172502438Y-80607142D01*
X172502438Y-80607142D02*
X172597676Y-80511904D01*
X172597676Y-80511904D02*
X172692914Y-80464285D01*
X172692914Y-80464285D02*
X172883390Y-80416666D01*
X172883390Y-80416666D02*
X173026247Y-80416666D01*
X173026247Y-80416666D02*
X173216723Y-80464285D01*
X173216723Y-80464285D02*
X173311961Y-80511904D01*
X173311961Y-80511904D02*
X173407200Y-80607142D01*
X173407200Y-80607142D02*
X173454819Y-80749999D01*
X173454819Y-80749999D02*
X173454819Y-80988094D01*
X172931009Y-79654761D02*
X172978628Y-79511904D01*
X172978628Y-79511904D02*
X173026247Y-79464285D01*
X173026247Y-79464285D02*
X173121485Y-79416666D01*
X173121485Y-79416666D02*
X173264342Y-79416666D01*
X173264342Y-79416666D02*
X173359580Y-79464285D01*
X173359580Y-79464285D02*
X173407200Y-79511904D01*
X173407200Y-79511904D02*
X173454819Y-79607142D01*
X173454819Y-79607142D02*
X173454819Y-79988094D01*
X173454819Y-79988094D02*
X172454819Y-79988094D01*
X172454819Y-79988094D02*
X172454819Y-79654761D01*
X172454819Y-79654761D02*
X172502438Y-79559523D01*
X172502438Y-79559523D02*
X172550057Y-79511904D01*
X172550057Y-79511904D02*
X172645295Y-79464285D01*
X172645295Y-79464285D02*
X172740533Y-79464285D01*
X172740533Y-79464285D02*
X172835771Y-79511904D01*
X172835771Y-79511904D02*
X172883390Y-79559523D01*
X172883390Y-79559523D02*
X172931009Y-79654761D01*
X172931009Y-79654761D02*
X172931009Y-79988094D01*
X173454819Y-78940475D02*
X173454819Y-78749999D01*
X173454819Y-78749999D02*
X173407200Y-78654761D01*
X173407200Y-78654761D02*
X173359580Y-78607142D01*
X173359580Y-78607142D02*
X173216723Y-78511904D01*
X173216723Y-78511904D02*
X173026247Y-78464285D01*
X173026247Y-78464285D02*
X172645295Y-78464285D01*
X172645295Y-78464285D02*
X172550057Y-78511904D01*
X172550057Y-78511904D02*
X172502438Y-78559523D01*
X172502438Y-78559523D02*
X172454819Y-78654761D01*
X172454819Y-78654761D02*
X172454819Y-78845237D01*
X172454819Y-78845237D02*
X172502438Y-78940475D01*
X172502438Y-78940475D02*
X172550057Y-78988094D01*
X172550057Y-78988094D02*
X172645295Y-79035713D01*
X172645295Y-79035713D02*
X172883390Y-79035713D01*
X172883390Y-79035713D02*
X172978628Y-78988094D01*
X172978628Y-78988094D02*
X173026247Y-78940475D01*
X173026247Y-78940475D02*
X173073866Y-78845237D01*
X173073866Y-78845237D02*
X173073866Y-78654761D01*
X173073866Y-78654761D02*
X173026247Y-78559523D01*
X173026247Y-78559523D02*
X172978628Y-78511904D01*
X172978628Y-78511904D02*
X172883390Y-78464285D01*
X119285714Y-128954819D02*
X118714286Y-128954819D01*
X119000000Y-128954819D02*
X119000000Y-127954819D01*
X119000000Y-127954819D02*
X118904762Y-128097676D01*
X118904762Y-128097676D02*
X118809524Y-128192914D01*
X118809524Y-128192914D02*
X118714286Y-128240533D01*
X121214286Y-128050057D02*
X121261905Y-128002438D01*
X121261905Y-128002438D02*
X121357143Y-127954819D01*
X121357143Y-127954819D02*
X121595238Y-127954819D01*
X121595238Y-127954819D02*
X121690476Y-128002438D01*
X121690476Y-128002438D02*
X121738095Y-128050057D01*
X121738095Y-128050057D02*
X121785714Y-128145295D01*
X121785714Y-128145295D02*
X121785714Y-128240533D01*
X121785714Y-128240533D02*
X121738095Y-128383390D01*
X121738095Y-128383390D02*
X121166667Y-128954819D01*
X121166667Y-128954819D02*
X121785714Y-128954819D01*
X118714285Y-63538152D02*
X118714285Y-64204819D01*
X118476190Y-63157200D02*
X118238095Y-63871485D01*
X118238095Y-63871485D02*
X118857142Y-63871485D01*
X119285714Y-64204819D02*
X119476190Y-64204819D01*
X119476190Y-64204819D02*
X119571428Y-64157200D01*
X119571428Y-64157200D02*
X119619047Y-64109580D01*
X119619047Y-64109580D02*
X119714285Y-63966723D01*
X119714285Y-63966723D02*
X119761904Y-63776247D01*
X119761904Y-63776247D02*
X119761904Y-63395295D01*
X119761904Y-63395295D02*
X119714285Y-63300057D01*
X119714285Y-63300057D02*
X119666666Y-63252438D01*
X119666666Y-63252438D02*
X119571428Y-63204819D01*
X119571428Y-63204819D02*
X119380952Y-63204819D01*
X119380952Y-63204819D02*
X119285714Y-63252438D01*
X119285714Y-63252438D02*
X119238095Y-63300057D01*
X119238095Y-63300057D02*
X119190476Y-63395295D01*
X119190476Y-63395295D02*
X119190476Y-63633390D01*
X119190476Y-63633390D02*
X119238095Y-63728628D01*
X119238095Y-63728628D02*
X119285714Y-63776247D01*
X119285714Y-63776247D02*
X119380952Y-63823866D01*
X119380952Y-63823866D02*
X119571428Y-63823866D01*
X119571428Y-63823866D02*
X119666666Y-63776247D01*
X119666666Y-63776247D02*
X119714285Y-63728628D01*
X119714285Y-63728628D02*
X119761904Y-63633390D01*
X121261904Y-63204819D02*
X120785714Y-63204819D01*
X120785714Y-63204819D02*
X120738095Y-63681009D01*
X120738095Y-63681009D02*
X120785714Y-63633390D01*
X120785714Y-63633390D02*
X120880952Y-63585771D01*
X120880952Y-63585771D02*
X121119047Y-63585771D01*
X121119047Y-63585771D02*
X121214285Y-63633390D01*
X121214285Y-63633390D02*
X121261904Y-63681009D01*
X121261904Y-63681009D02*
X121309523Y-63776247D01*
X121309523Y-63776247D02*
X121309523Y-64014342D01*
X121309523Y-64014342D02*
X121261904Y-64109580D01*
X121261904Y-64109580D02*
X121214285Y-64157200D01*
X121214285Y-64157200D02*
X121119047Y-64204819D01*
X121119047Y-64204819D02*
X120880952Y-64204819D01*
X120880952Y-64204819D02*
X120785714Y-64157200D01*
X120785714Y-64157200D02*
X120738095Y-64109580D01*
X121928571Y-63204819D02*
X122023809Y-63204819D01*
X122023809Y-63204819D02*
X122119047Y-63252438D01*
X122119047Y-63252438D02*
X122166666Y-63300057D01*
X122166666Y-63300057D02*
X122214285Y-63395295D01*
X122214285Y-63395295D02*
X122261904Y-63585771D01*
X122261904Y-63585771D02*
X122261904Y-63823866D01*
X122261904Y-63823866D02*
X122214285Y-64014342D01*
X122214285Y-64014342D02*
X122166666Y-64109580D01*
X122166666Y-64109580D02*
X122119047Y-64157200D01*
X122119047Y-64157200D02*
X122023809Y-64204819D01*
X122023809Y-64204819D02*
X121928571Y-64204819D01*
X121928571Y-64204819D02*
X121833333Y-64157200D01*
X121833333Y-64157200D02*
X121785714Y-64109580D01*
X121785714Y-64109580D02*
X121738095Y-64014342D01*
X121738095Y-64014342D02*
X121690476Y-63823866D01*
X121690476Y-63823866D02*
X121690476Y-63585771D01*
X121690476Y-63585771D02*
X121738095Y-63395295D01*
X121738095Y-63395295D02*
X121785714Y-63300057D01*
X121785714Y-63300057D02*
X121833333Y-63252438D01*
X121833333Y-63252438D02*
X121928571Y-63204819D01*
X113402381Y-100562295D02*
X113859524Y-100562295D01*
X113630952Y-101362295D02*
X113630952Y-100562295D01*
X114050000Y-100562295D02*
X114583334Y-101362295D01*
X114583334Y-100562295D02*
X114050000Y-101362295D01*
X115345239Y-101286104D02*
X115307143Y-101324200D01*
X115307143Y-101324200D02*
X115192858Y-101362295D01*
X115192858Y-101362295D02*
X115116667Y-101362295D01*
X115116667Y-101362295D02*
X115002381Y-101324200D01*
X115002381Y-101324200D02*
X114926191Y-101248009D01*
X114926191Y-101248009D02*
X114888096Y-101171819D01*
X114888096Y-101171819D02*
X114850000Y-101019438D01*
X114850000Y-101019438D02*
X114850000Y-100905152D01*
X114850000Y-100905152D02*
X114888096Y-100752771D01*
X114888096Y-100752771D02*
X114926191Y-100676580D01*
X114926191Y-100676580D02*
X115002381Y-100600390D01*
X115002381Y-100600390D02*
X115116667Y-100562295D01*
X115116667Y-100562295D02*
X115192858Y-100562295D01*
X115192858Y-100562295D02*
X115307143Y-100600390D01*
X115307143Y-100600390D02*
X115345239Y-100638485D01*
X115650000Y-101133723D02*
X116030953Y-101133723D01*
X115573810Y-101362295D02*
X115840477Y-100562295D01*
X115840477Y-100562295D02*
X116107143Y-101362295D01*
X116373810Y-101057533D02*
X116983334Y-101057533D01*
X116678572Y-101362295D02*
X116678572Y-100752771D01*
X124164286Y-119362295D02*
X123897619Y-118981342D01*
X123707143Y-119362295D02*
X123707143Y-118562295D01*
X123707143Y-118562295D02*
X124011905Y-118562295D01*
X124011905Y-118562295D02*
X124088095Y-118600390D01*
X124088095Y-118600390D02*
X124126190Y-118638485D01*
X124126190Y-118638485D02*
X124164286Y-118714676D01*
X124164286Y-118714676D02*
X124164286Y-118828961D01*
X124164286Y-118828961D02*
X124126190Y-118905152D01*
X124126190Y-118905152D02*
X124088095Y-118943247D01*
X124088095Y-118943247D02*
X124011905Y-118981342D01*
X124011905Y-118981342D02*
X123707143Y-118981342D01*
X124469047Y-119324200D02*
X124583333Y-119362295D01*
X124583333Y-119362295D02*
X124773809Y-119362295D01*
X124773809Y-119362295D02*
X124850000Y-119324200D01*
X124850000Y-119324200D02*
X124888095Y-119286104D01*
X124888095Y-119286104D02*
X124926190Y-119209914D01*
X124926190Y-119209914D02*
X124926190Y-119133723D01*
X124926190Y-119133723D02*
X124888095Y-119057533D01*
X124888095Y-119057533D02*
X124850000Y-119019438D01*
X124850000Y-119019438D02*
X124773809Y-118981342D01*
X124773809Y-118981342D02*
X124621428Y-118943247D01*
X124621428Y-118943247D02*
X124545238Y-118905152D01*
X124545238Y-118905152D02*
X124507143Y-118867057D01*
X124507143Y-118867057D02*
X124469047Y-118790866D01*
X124469047Y-118790866D02*
X124469047Y-118714676D01*
X124469047Y-118714676D02*
X124507143Y-118638485D01*
X124507143Y-118638485D02*
X124545238Y-118600390D01*
X124545238Y-118600390D02*
X124621428Y-118562295D01*
X124621428Y-118562295D02*
X124811905Y-118562295D01*
X124811905Y-118562295D02*
X124926190Y-118600390D01*
X125192857Y-118562295D02*
X125383333Y-119362295D01*
X125383333Y-119362295D02*
X125535714Y-118790866D01*
X125535714Y-118790866D02*
X125688095Y-119362295D01*
X125688095Y-119362295D02*
X125878572Y-118562295D01*
X126183334Y-119057533D02*
X126792858Y-119057533D01*
X115140476Y-82850390D02*
X115064286Y-82812295D01*
X115064286Y-82812295D02*
X114950000Y-82812295D01*
X114950000Y-82812295D02*
X114835714Y-82850390D01*
X114835714Y-82850390D02*
X114759524Y-82926580D01*
X114759524Y-82926580D02*
X114721429Y-83002771D01*
X114721429Y-83002771D02*
X114683333Y-83155152D01*
X114683333Y-83155152D02*
X114683333Y-83269438D01*
X114683333Y-83269438D02*
X114721429Y-83421819D01*
X114721429Y-83421819D02*
X114759524Y-83498009D01*
X114759524Y-83498009D02*
X114835714Y-83574200D01*
X114835714Y-83574200D02*
X114950000Y-83612295D01*
X114950000Y-83612295D02*
X115026191Y-83612295D01*
X115026191Y-83612295D02*
X115140476Y-83574200D01*
X115140476Y-83574200D02*
X115178572Y-83536104D01*
X115178572Y-83536104D02*
X115178572Y-83269438D01*
X115178572Y-83269438D02*
X115026191Y-83269438D01*
X115521429Y-83612295D02*
X115521429Y-82812295D01*
X115521429Y-82812295D02*
X115978572Y-83612295D01*
X115978572Y-83612295D02*
X115978572Y-82812295D01*
X116359524Y-83612295D02*
X116359524Y-82812295D01*
X116359524Y-82812295D02*
X116550000Y-82812295D01*
X116550000Y-82812295D02*
X116664286Y-82850390D01*
X116664286Y-82850390D02*
X116740476Y-82926580D01*
X116740476Y-82926580D02*
X116778571Y-83002771D01*
X116778571Y-83002771D02*
X116816667Y-83155152D01*
X116816667Y-83155152D02*
X116816667Y-83269438D01*
X116816667Y-83269438D02*
X116778571Y-83421819D01*
X116778571Y-83421819D02*
X116740476Y-83498009D01*
X116740476Y-83498009D02*
X116664286Y-83574200D01*
X116664286Y-83574200D02*
X116550000Y-83612295D01*
X116550000Y-83612295D02*
X116359524Y-83612295D01*
X108214285Y-63538152D02*
X108214285Y-64204819D01*
X107976190Y-63157200D02*
X107738095Y-63871485D01*
X107738095Y-63871485D02*
X108357142Y-63871485D01*
X108785714Y-64204819D02*
X108976190Y-64204819D01*
X108976190Y-64204819D02*
X109071428Y-64157200D01*
X109071428Y-64157200D02*
X109119047Y-64109580D01*
X109119047Y-64109580D02*
X109214285Y-63966723D01*
X109214285Y-63966723D02*
X109261904Y-63776247D01*
X109261904Y-63776247D02*
X109261904Y-63395295D01*
X109261904Y-63395295D02*
X109214285Y-63300057D01*
X109214285Y-63300057D02*
X109166666Y-63252438D01*
X109166666Y-63252438D02*
X109071428Y-63204819D01*
X109071428Y-63204819D02*
X108880952Y-63204819D01*
X108880952Y-63204819D02*
X108785714Y-63252438D01*
X108785714Y-63252438D02*
X108738095Y-63300057D01*
X108738095Y-63300057D02*
X108690476Y-63395295D01*
X108690476Y-63395295D02*
X108690476Y-63633390D01*
X108690476Y-63633390D02*
X108738095Y-63728628D01*
X108738095Y-63728628D02*
X108785714Y-63776247D01*
X108785714Y-63776247D02*
X108880952Y-63823866D01*
X108880952Y-63823866D02*
X109071428Y-63823866D01*
X109071428Y-63823866D02*
X109166666Y-63776247D01*
X109166666Y-63776247D02*
X109214285Y-63728628D01*
X109214285Y-63728628D02*
X109261904Y-63633390D01*
X112426190Y-90562295D02*
X112692857Y-91362295D01*
X112692857Y-91362295D02*
X112959523Y-90562295D01*
X113226190Y-90943247D02*
X113492856Y-90943247D01*
X113607142Y-91362295D02*
X113226190Y-91362295D01*
X113226190Y-91362295D02*
X113226190Y-90562295D01*
X113226190Y-90562295D02*
X113607142Y-90562295D01*
X114407143Y-91362295D02*
X114140476Y-90981342D01*
X113950000Y-91362295D02*
X113950000Y-90562295D01*
X113950000Y-90562295D02*
X114254762Y-90562295D01*
X114254762Y-90562295D02*
X114330952Y-90600390D01*
X114330952Y-90600390D02*
X114369047Y-90638485D01*
X114369047Y-90638485D02*
X114407143Y-90714676D01*
X114407143Y-90714676D02*
X114407143Y-90828961D01*
X114407143Y-90828961D02*
X114369047Y-90905152D01*
X114369047Y-90905152D02*
X114330952Y-90943247D01*
X114330952Y-90943247D02*
X114254762Y-90981342D01*
X114254762Y-90981342D02*
X113950000Y-90981342D01*
X114750000Y-91362295D02*
X114750000Y-90562295D01*
X114750000Y-90562295D02*
X114940476Y-90562295D01*
X114940476Y-90562295D02*
X115054762Y-90600390D01*
X115054762Y-90600390D02*
X115130952Y-90676580D01*
X115130952Y-90676580D02*
X115169047Y-90752771D01*
X115169047Y-90752771D02*
X115207143Y-90905152D01*
X115207143Y-90905152D02*
X115207143Y-91019438D01*
X115207143Y-91019438D02*
X115169047Y-91171819D01*
X115169047Y-91171819D02*
X115130952Y-91248009D01*
X115130952Y-91248009D02*
X115054762Y-91324200D01*
X115054762Y-91324200D02*
X114940476Y-91362295D01*
X114940476Y-91362295D02*
X114750000Y-91362295D01*
X116007143Y-91362295D02*
X115740476Y-90981342D01*
X115550000Y-91362295D02*
X115550000Y-90562295D01*
X115550000Y-90562295D02*
X115854762Y-90562295D01*
X115854762Y-90562295D02*
X115930952Y-90600390D01*
X115930952Y-90600390D02*
X115969047Y-90638485D01*
X115969047Y-90638485D02*
X116007143Y-90714676D01*
X116007143Y-90714676D02*
X116007143Y-90828961D01*
X116007143Y-90828961D02*
X115969047Y-90905152D01*
X115969047Y-90905152D02*
X115930952Y-90943247D01*
X115930952Y-90943247D02*
X115854762Y-90981342D01*
X115854762Y-90981342D02*
X115550000Y-90981342D01*
X116350000Y-91057533D02*
X116959524Y-91057533D01*
X132713095Y-108577438D02*
X132617857Y-108529819D01*
X132617857Y-108529819D02*
X132475000Y-108529819D01*
X132475000Y-108529819D02*
X132332143Y-108577438D01*
X132332143Y-108577438D02*
X132236905Y-108672676D01*
X132236905Y-108672676D02*
X132189286Y-108767914D01*
X132189286Y-108767914D02*
X132141667Y-108958390D01*
X132141667Y-108958390D02*
X132141667Y-109101247D01*
X132141667Y-109101247D02*
X132189286Y-109291723D01*
X132189286Y-109291723D02*
X132236905Y-109386961D01*
X132236905Y-109386961D02*
X132332143Y-109482200D01*
X132332143Y-109482200D02*
X132475000Y-109529819D01*
X132475000Y-109529819D02*
X132570238Y-109529819D01*
X132570238Y-109529819D02*
X132713095Y-109482200D01*
X132713095Y-109482200D02*
X132760714Y-109434580D01*
X132760714Y-109434580D02*
X132760714Y-109101247D01*
X132760714Y-109101247D02*
X132570238Y-109101247D01*
X133189286Y-109529819D02*
X133189286Y-108529819D01*
X133189286Y-108529819D02*
X133760714Y-109529819D01*
X133760714Y-109529819D02*
X133760714Y-108529819D01*
X134236905Y-109529819D02*
X134236905Y-108529819D01*
X134236905Y-108529819D02*
X134475000Y-108529819D01*
X134475000Y-108529819D02*
X134617857Y-108577438D01*
X134617857Y-108577438D02*
X134713095Y-108672676D01*
X134713095Y-108672676D02*
X134760714Y-108767914D01*
X134760714Y-108767914D02*
X134808333Y-108958390D01*
X134808333Y-108958390D02*
X134808333Y-109101247D01*
X134808333Y-109101247D02*
X134760714Y-109291723D01*
X134760714Y-109291723D02*
X134713095Y-109386961D01*
X134713095Y-109386961D02*
X134617857Y-109482200D01*
X134617857Y-109482200D02*
X134475000Y-109529819D01*
X134475000Y-109529819D02*
X134236905Y-109529819D01*
X151295238Y-72254819D02*
X151628571Y-73254819D01*
X151628571Y-73254819D02*
X151961904Y-72254819D01*
X152295238Y-73254819D02*
X152295238Y-72588152D01*
X152295238Y-72254819D02*
X152247619Y-72302438D01*
X152247619Y-72302438D02*
X152295238Y-72350057D01*
X152295238Y-72350057D02*
X152342857Y-72302438D01*
X152342857Y-72302438D02*
X152295238Y-72254819D01*
X152295238Y-72254819D02*
X152295238Y-72350057D01*
X153199999Y-73254819D02*
X153199999Y-72254819D01*
X153199999Y-73207200D02*
X153104761Y-73254819D01*
X153104761Y-73254819D02*
X152914285Y-73254819D01*
X152914285Y-73254819D02*
X152819047Y-73207200D01*
X152819047Y-73207200D02*
X152771428Y-73159580D01*
X152771428Y-73159580D02*
X152723809Y-73064342D01*
X152723809Y-73064342D02*
X152723809Y-72778628D01*
X152723809Y-72778628D02*
X152771428Y-72683390D01*
X152771428Y-72683390D02*
X152819047Y-72635771D01*
X152819047Y-72635771D02*
X152914285Y-72588152D01*
X152914285Y-72588152D02*
X153104761Y-72588152D01*
X153104761Y-72588152D02*
X153199999Y-72635771D01*
X154057142Y-73207200D02*
X153961904Y-73254819D01*
X153961904Y-73254819D02*
X153771428Y-73254819D01*
X153771428Y-73254819D02*
X153676190Y-73207200D01*
X153676190Y-73207200D02*
X153628571Y-73111961D01*
X153628571Y-73111961D02*
X153628571Y-72731009D01*
X153628571Y-72731009D02*
X153676190Y-72635771D01*
X153676190Y-72635771D02*
X153771428Y-72588152D01*
X153771428Y-72588152D02*
X153961904Y-72588152D01*
X153961904Y-72588152D02*
X154057142Y-72635771D01*
X154057142Y-72635771D02*
X154104761Y-72731009D01*
X154104761Y-72731009D02*
X154104761Y-72826247D01*
X154104761Y-72826247D02*
X153628571Y-72921485D01*
X154676190Y-73254819D02*
X154580952Y-73207200D01*
X154580952Y-73207200D02*
X154533333Y-73159580D01*
X154533333Y-73159580D02*
X154485714Y-73064342D01*
X154485714Y-73064342D02*
X154485714Y-72778628D01*
X154485714Y-72778628D02*
X154533333Y-72683390D01*
X154533333Y-72683390D02*
X154580952Y-72635771D01*
X154580952Y-72635771D02*
X154676190Y-72588152D01*
X154676190Y-72588152D02*
X154819047Y-72588152D01*
X154819047Y-72588152D02*
X154914285Y-72635771D01*
X154914285Y-72635771D02*
X154961904Y-72683390D01*
X154961904Y-72683390D02*
X155009523Y-72778628D01*
X155009523Y-72778628D02*
X155009523Y-73064342D01*
X155009523Y-73064342D02*
X154961904Y-73159580D01*
X154961904Y-73159580D02*
X154914285Y-73207200D01*
X154914285Y-73207200D02*
X154819047Y-73254819D01*
X154819047Y-73254819D02*
X154676190Y-73254819D01*
X154238095Y-113454819D02*
X154809523Y-113454819D01*
X154523809Y-114454819D02*
X154523809Y-113454819D01*
X155047619Y-113454819D02*
X155714285Y-114454819D01*
X155714285Y-113454819D02*
X155047619Y-114454819D01*
X156809523Y-113407200D02*
X155952381Y-114692914D01*
X157714285Y-114454819D02*
X157380952Y-113978628D01*
X157142857Y-114454819D02*
X157142857Y-113454819D01*
X157142857Y-113454819D02*
X157523809Y-113454819D01*
X157523809Y-113454819D02*
X157619047Y-113502438D01*
X157619047Y-113502438D02*
X157666666Y-113550057D01*
X157666666Y-113550057D02*
X157714285Y-113645295D01*
X157714285Y-113645295D02*
X157714285Y-113788152D01*
X157714285Y-113788152D02*
X157666666Y-113883390D01*
X157666666Y-113883390D02*
X157619047Y-113931009D01*
X157619047Y-113931009D02*
X157523809Y-113978628D01*
X157523809Y-113978628D02*
X157142857Y-113978628D01*
X158047619Y-113454819D02*
X158714285Y-114454819D01*
X158714285Y-113454819D02*
X158047619Y-114454819D01*
X159857143Y-114454819D02*
X159857143Y-113454819D01*
X159857143Y-113454819D02*
X160095238Y-113454819D01*
X160095238Y-113454819D02*
X160238095Y-113502438D01*
X160238095Y-113502438D02*
X160333333Y-113597676D01*
X160333333Y-113597676D02*
X160380952Y-113692914D01*
X160380952Y-113692914D02*
X160428571Y-113883390D01*
X160428571Y-113883390D02*
X160428571Y-114026247D01*
X160428571Y-114026247D02*
X160380952Y-114216723D01*
X160380952Y-114216723D02*
X160333333Y-114311961D01*
X160333333Y-114311961D02*
X160238095Y-114407200D01*
X160238095Y-114407200D02*
X160095238Y-114454819D01*
X160095238Y-114454819D02*
X159857143Y-114454819D01*
X160857143Y-114073866D02*
X161619048Y-114073866D01*
X161238095Y-114454819D02*
X161238095Y-113692914D01*
X124128572Y-104112295D02*
X123861905Y-103731342D01*
X123671429Y-104112295D02*
X123671429Y-103312295D01*
X123671429Y-103312295D02*
X123976191Y-103312295D01*
X123976191Y-103312295D02*
X124052381Y-103350390D01*
X124052381Y-103350390D02*
X124090476Y-103388485D01*
X124090476Y-103388485D02*
X124128572Y-103464676D01*
X124128572Y-103464676D02*
X124128572Y-103578961D01*
X124128572Y-103578961D02*
X124090476Y-103655152D01*
X124090476Y-103655152D02*
X124052381Y-103693247D01*
X124052381Y-103693247D02*
X123976191Y-103731342D01*
X123976191Y-103731342D02*
X123671429Y-103731342D01*
X124395238Y-103312295D02*
X124928572Y-104112295D01*
X124928572Y-103312295D02*
X124395238Y-104112295D01*
X125233334Y-104112295D02*
X125233334Y-103312295D01*
X125233334Y-103312295D02*
X125423810Y-103312295D01*
X125423810Y-103312295D02*
X125538096Y-103350390D01*
X125538096Y-103350390D02*
X125614286Y-103426580D01*
X125614286Y-103426580D02*
X125652381Y-103502771D01*
X125652381Y-103502771D02*
X125690477Y-103655152D01*
X125690477Y-103655152D02*
X125690477Y-103769438D01*
X125690477Y-103769438D02*
X125652381Y-103921819D01*
X125652381Y-103921819D02*
X125614286Y-103998009D01*
X125614286Y-103998009D02*
X125538096Y-104074200D01*
X125538096Y-104074200D02*
X125423810Y-104112295D01*
X125423810Y-104112295D02*
X125233334Y-104112295D01*
X125995238Y-103883723D02*
X126376191Y-103883723D01*
X125919048Y-104112295D02*
X126185715Y-103312295D01*
X126185715Y-103312295D02*
X126452381Y-104112295D01*
X126719048Y-103807533D02*
X127328572Y-103807533D01*
X146413095Y-85907200D02*
X146555952Y-85954819D01*
X146555952Y-85954819D02*
X146794047Y-85954819D01*
X146794047Y-85954819D02*
X146889285Y-85907200D01*
X146889285Y-85907200D02*
X146936904Y-85859580D01*
X146936904Y-85859580D02*
X146984523Y-85764342D01*
X146984523Y-85764342D02*
X146984523Y-85669104D01*
X146984523Y-85669104D02*
X146936904Y-85573866D01*
X146936904Y-85573866D02*
X146889285Y-85526247D01*
X146889285Y-85526247D02*
X146794047Y-85478628D01*
X146794047Y-85478628D02*
X146603571Y-85431009D01*
X146603571Y-85431009D02*
X146508333Y-85383390D01*
X146508333Y-85383390D02*
X146460714Y-85335771D01*
X146460714Y-85335771D02*
X146413095Y-85240533D01*
X146413095Y-85240533D02*
X146413095Y-85145295D01*
X146413095Y-85145295D02*
X146460714Y-85050057D01*
X146460714Y-85050057D02*
X146508333Y-85002438D01*
X146508333Y-85002438D02*
X146603571Y-84954819D01*
X146603571Y-84954819D02*
X146841666Y-84954819D01*
X146841666Y-84954819D02*
X146984523Y-85002438D01*
X147413095Y-85288152D02*
X147413095Y-86288152D01*
X147413095Y-85335771D02*
X147508333Y-85288152D01*
X147508333Y-85288152D02*
X147698809Y-85288152D01*
X147698809Y-85288152D02*
X147794047Y-85335771D01*
X147794047Y-85335771D02*
X147841666Y-85383390D01*
X147841666Y-85383390D02*
X147889285Y-85478628D01*
X147889285Y-85478628D02*
X147889285Y-85764342D01*
X147889285Y-85764342D02*
X147841666Y-85859580D01*
X147841666Y-85859580D02*
X147794047Y-85907200D01*
X147794047Y-85907200D02*
X147698809Y-85954819D01*
X147698809Y-85954819D02*
X147508333Y-85954819D01*
X147508333Y-85954819D02*
X147413095Y-85907200D01*
X148698809Y-85907200D02*
X148603571Y-85954819D01*
X148603571Y-85954819D02*
X148413095Y-85954819D01*
X148413095Y-85954819D02*
X148317857Y-85907200D01*
X148317857Y-85907200D02*
X148270238Y-85811961D01*
X148270238Y-85811961D02*
X148270238Y-85431009D01*
X148270238Y-85431009D02*
X148317857Y-85335771D01*
X148317857Y-85335771D02*
X148413095Y-85288152D01*
X148413095Y-85288152D02*
X148603571Y-85288152D01*
X148603571Y-85288152D02*
X148698809Y-85335771D01*
X148698809Y-85335771D02*
X148746428Y-85431009D01*
X148746428Y-85431009D02*
X148746428Y-85526247D01*
X148746428Y-85526247D02*
X148270238Y-85621485D01*
X149603571Y-85954819D02*
X149603571Y-85431009D01*
X149603571Y-85431009D02*
X149555952Y-85335771D01*
X149555952Y-85335771D02*
X149460714Y-85288152D01*
X149460714Y-85288152D02*
X149270238Y-85288152D01*
X149270238Y-85288152D02*
X149175000Y-85335771D01*
X149603571Y-85907200D02*
X149508333Y-85954819D01*
X149508333Y-85954819D02*
X149270238Y-85954819D01*
X149270238Y-85954819D02*
X149175000Y-85907200D01*
X149175000Y-85907200D02*
X149127381Y-85811961D01*
X149127381Y-85811961D02*
X149127381Y-85716723D01*
X149127381Y-85716723D02*
X149175000Y-85621485D01*
X149175000Y-85621485D02*
X149270238Y-85573866D01*
X149270238Y-85573866D02*
X149508333Y-85573866D01*
X149508333Y-85573866D02*
X149603571Y-85526247D01*
X150079762Y-85954819D02*
X150079762Y-84954819D01*
X150175000Y-85573866D02*
X150460714Y-85954819D01*
X150460714Y-85288152D02*
X150079762Y-85669104D01*
X151270238Y-85907200D02*
X151175000Y-85954819D01*
X151175000Y-85954819D02*
X150984524Y-85954819D01*
X150984524Y-85954819D02*
X150889286Y-85907200D01*
X150889286Y-85907200D02*
X150841667Y-85811961D01*
X150841667Y-85811961D02*
X150841667Y-85431009D01*
X150841667Y-85431009D02*
X150889286Y-85335771D01*
X150889286Y-85335771D02*
X150984524Y-85288152D01*
X150984524Y-85288152D02*
X151175000Y-85288152D01*
X151175000Y-85288152D02*
X151270238Y-85335771D01*
X151270238Y-85335771D02*
X151317857Y-85431009D01*
X151317857Y-85431009D02*
X151317857Y-85526247D01*
X151317857Y-85526247D02*
X150841667Y-85621485D01*
X151746429Y-85954819D02*
X151746429Y-85288152D01*
X151746429Y-85478628D02*
X151794048Y-85383390D01*
X151794048Y-85383390D02*
X151841667Y-85335771D01*
X151841667Y-85335771D02*
X151936905Y-85288152D01*
X151936905Y-85288152D02*
X152032143Y-85288152D01*
X124128572Y-106612295D02*
X123861905Y-106231342D01*
X123671429Y-106612295D02*
X123671429Y-105812295D01*
X123671429Y-105812295D02*
X123976191Y-105812295D01*
X123976191Y-105812295D02*
X124052381Y-105850390D01*
X124052381Y-105850390D02*
X124090476Y-105888485D01*
X124090476Y-105888485D02*
X124128572Y-105964676D01*
X124128572Y-105964676D02*
X124128572Y-106078961D01*
X124128572Y-106078961D02*
X124090476Y-106155152D01*
X124090476Y-106155152D02*
X124052381Y-106193247D01*
X124052381Y-106193247D02*
X123976191Y-106231342D01*
X123976191Y-106231342D02*
X123671429Y-106231342D01*
X124395238Y-105812295D02*
X124928572Y-106612295D01*
X124928572Y-105812295D02*
X124395238Y-106612295D01*
X125233334Y-106612295D02*
X125233334Y-105812295D01*
X125233334Y-105812295D02*
X125423810Y-105812295D01*
X125423810Y-105812295D02*
X125538096Y-105850390D01*
X125538096Y-105850390D02*
X125614286Y-105926580D01*
X125614286Y-105926580D02*
X125652381Y-106002771D01*
X125652381Y-106002771D02*
X125690477Y-106155152D01*
X125690477Y-106155152D02*
X125690477Y-106269438D01*
X125690477Y-106269438D02*
X125652381Y-106421819D01*
X125652381Y-106421819D02*
X125614286Y-106498009D01*
X125614286Y-106498009D02*
X125538096Y-106574200D01*
X125538096Y-106574200D02*
X125423810Y-106612295D01*
X125423810Y-106612295D02*
X125233334Y-106612295D01*
X125995238Y-106383723D02*
X126376191Y-106383723D01*
X125919048Y-106612295D02*
X126185715Y-105812295D01*
X126185715Y-105812295D02*
X126452381Y-106612295D01*
X126719048Y-106307533D02*
X127328572Y-106307533D01*
X127023810Y-106612295D02*
X127023810Y-106002771D01*
X123840477Y-114112295D02*
X123840477Y-113312295D01*
X124221429Y-114112295D02*
X124221429Y-113312295D01*
X124221429Y-113312295D02*
X124678572Y-114112295D01*
X124678572Y-114112295D02*
X124678572Y-113312295D01*
X125059524Y-114112295D02*
X125059524Y-113312295D01*
X125326190Y-113312295D02*
X125783333Y-113312295D01*
X125554761Y-114112295D02*
X125554761Y-113312295D01*
X126050000Y-113807533D02*
X126659524Y-113807533D01*
X112866667Y-85312295D02*
X113133334Y-86112295D01*
X113133334Y-86112295D02*
X113400000Y-85312295D01*
X113666667Y-86112295D02*
X113666667Y-85312295D01*
X114047619Y-86112295D02*
X114047619Y-85312295D01*
X114047619Y-85312295D02*
X114238095Y-85312295D01*
X114238095Y-85312295D02*
X114352381Y-85350390D01*
X114352381Y-85350390D02*
X114428571Y-85426580D01*
X114428571Y-85426580D02*
X114466666Y-85502771D01*
X114466666Y-85502771D02*
X114504762Y-85655152D01*
X114504762Y-85655152D02*
X114504762Y-85769438D01*
X114504762Y-85769438D02*
X114466666Y-85921819D01*
X114466666Y-85921819D02*
X114428571Y-85998009D01*
X114428571Y-85998009D02*
X114352381Y-86074200D01*
X114352381Y-86074200D02*
X114238095Y-86112295D01*
X114238095Y-86112295D02*
X114047619Y-86112295D01*
X114847619Y-85693247D02*
X115114285Y-85693247D01*
X115228571Y-86112295D02*
X114847619Y-86112295D01*
X114847619Y-86112295D02*
X114847619Y-85312295D01*
X114847619Y-85312295D02*
X115228571Y-85312295D01*
X115723810Y-85312295D02*
X115876191Y-85312295D01*
X115876191Y-85312295D02*
X115952381Y-85350390D01*
X115952381Y-85350390D02*
X116028572Y-85426580D01*
X116028572Y-85426580D02*
X116066667Y-85578961D01*
X116066667Y-85578961D02*
X116066667Y-85845628D01*
X116066667Y-85845628D02*
X116028572Y-85998009D01*
X116028572Y-85998009D02*
X115952381Y-86074200D01*
X115952381Y-86074200D02*
X115876191Y-86112295D01*
X115876191Y-86112295D02*
X115723810Y-86112295D01*
X115723810Y-86112295D02*
X115647619Y-86074200D01*
X115647619Y-86074200D02*
X115571429Y-85998009D01*
X115571429Y-85998009D02*
X115533333Y-85845628D01*
X115533333Y-85845628D02*
X115533333Y-85578961D01*
X115533333Y-85578961D02*
X115571429Y-85426580D01*
X115571429Y-85426580D02*
X115647619Y-85350390D01*
X115647619Y-85350390D02*
X115723810Y-85312295D01*
X116409524Y-85807533D02*
X117019048Y-85807533D01*
X113955953Y-111662295D02*
X113955953Y-110862295D01*
X114336905Y-111662295D02*
X114336905Y-110862295D01*
X114336905Y-110862295D02*
X114794048Y-111662295D01*
X114794048Y-111662295D02*
X114794048Y-110862295D01*
X115060714Y-110862295D02*
X115517857Y-110862295D01*
X115289285Y-111662295D02*
X115289285Y-110862295D01*
X116241667Y-111662295D02*
X115975000Y-111281342D01*
X115784524Y-111662295D02*
X115784524Y-110862295D01*
X115784524Y-110862295D02*
X116089286Y-110862295D01*
X116089286Y-110862295D02*
X116165476Y-110900390D01*
X116165476Y-110900390D02*
X116203571Y-110938485D01*
X116203571Y-110938485D02*
X116241667Y-111014676D01*
X116241667Y-111014676D02*
X116241667Y-111128961D01*
X116241667Y-111128961D02*
X116203571Y-111205152D01*
X116203571Y-111205152D02*
X116165476Y-111243247D01*
X116165476Y-111243247D02*
X116089286Y-111281342D01*
X116089286Y-111281342D02*
X115784524Y-111281342D01*
X116584524Y-111357533D02*
X117194048Y-111357533D01*
X116889286Y-111662295D02*
X116889286Y-111052771D01*
X124128572Y-101612295D02*
X123861905Y-101231342D01*
X123671429Y-101612295D02*
X123671429Y-100812295D01*
X123671429Y-100812295D02*
X123976191Y-100812295D01*
X123976191Y-100812295D02*
X124052381Y-100850390D01*
X124052381Y-100850390D02*
X124090476Y-100888485D01*
X124090476Y-100888485D02*
X124128572Y-100964676D01*
X124128572Y-100964676D02*
X124128572Y-101078961D01*
X124128572Y-101078961D02*
X124090476Y-101155152D01*
X124090476Y-101155152D02*
X124052381Y-101193247D01*
X124052381Y-101193247D02*
X123976191Y-101231342D01*
X123976191Y-101231342D02*
X123671429Y-101231342D01*
X124395238Y-100812295D02*
X124928572Y-101612295D01*
X124928572Y-100812295D02*
X124395238Y-101612295D01*
X125690477Y-101536104D02*
X125652381Y-101574200D01*
X125652381Y-101574200D02*
X125538096Y-101612295D01*
X125538096Y-101612295D02*
X125461905Y-101612295D01*
X125461905Y-101612295D02*
X125347619Y-101574200D01*
X125347619Y-101574200D02*
X125271429Y-101498009D01*
X125271429Y-101498009D02*
X125233334Y-101421819D01*
X125233334Y-101421819D02*
X125195238Y-101269438D01*
X125195238Y-101269438D02*
X125195238Y-101155152D01*
X125195238Y-101155152D02*
X125233334Y-101002771D01*
X125233334Y-101002771D02*
X125271429Y-100926580D01*
X125271429Y-100926580D02*
X125347619Y-100850390D01*
X125347619Y-100850390D02*
X125461905Y-100812295D01*
X125461905Y-100812295D02*
X125538096Y-100812295D01*
X125538096Y-100812295D02*
X125652381Y-100850390D01*
X125652381Y-100850390D02*
X125690477Y-100888485D01*
X125995238Y-101383723D02*
X126376191Y-101383723D01*
X125919048Y-101612295D02*
X126185715Y-100812295D01*
X126185715Y-100812295D02*
X126452381Y-101612295D01*
X126719048Y-101307533D02*
X127328572Y-101307533D01*
X127023810Y-101612295D02*
X127023810Y-101002771D01*
X113554762Y-116612295D02*
X113554762Y-115812295D01*
X114011905Y-116612295D02*
X113669047Y-116155152D01*
X114011905Y-115812295D02*
X113554762Y-116269438D01*
X114621428Y-116193247D02*
X114735714Y-116231342D01*
X114735714Y-116231342D02*
X114773809Y-116269438D01*
X114773809Y-116269438D02*
X114811905Y-116345628D01*
X114811905Y-116345628D02*
X114811905Y-116459914D01*
X114811905Y-116459914D02*
X114773809Y-116536104D01*
X114773809Y-116536104D02*
X114735714Y-116574200D01*
X114735714Y-116574200D02*
X114659524Y-116612295D01*
X114659524Y-116612295D02*
X114354762Y-116612295D01*
X114354762Y-116612295D02*
X114354762Y-115812295D01*
X114354762Y-115812295D02*
X114621428Y-115812295D01*
X114621428Y-115812295D02*
X114697619Y-115850390D01*
X114697619Y-115850390D02*
X114735714Y-115888485D01*
X114735714Y-115888485D02*
X114773809Y-115964676D01*
X114773809Y-115964676D02*
X114773809Y-116040866D01*
X114773809Y-116040866D02*
X114735714Y-116117057D01*
X114735714Y-116117057D02*
X114697619Y-116155152D01*
X114697619Y-116155152D02*
X114621428Y-116193247D01*
X114621428Y-116193247D02*
X114354762Y-116193247D01*
X115154762Y-116612295D02*
X115154762Y-115812295D01*
X115154762Y-115812295D02*
X115345238Y-115812295D01*
X115345238Y-115812295D02*
X115459524Y-115850390D01*
X115459524Y-115850390D02*
X115535714Y-115926580D01*
X115535714Y-115926580D02*
X115573809Y-116002771D01*
X115573809Y-116002771D02*
X115611905Y-116155152D01*
X115611905Y-116155152D02*
X115611905Y-116269438D01*
X115611905Y-116269438D02*
X115573809Y-116421819D01*
X115573809Y-116421819D02*
X115535714Y-116498009D01*
X115535714Y-116498009D02*
X115459524Y-116574200D01*
X115459524Y-116574200D02*
X115345238Y-116612295D01*
X115345238Y-116612295D02*
X115154762Y-116612295D01*
X115954762Y-116612295D02*
X115954762Y-115812295D01*
X116335714Y-116307533D02*
X116945238Y-116307533D01*
X154238095Y-110454819D02*
X154809523Y-110454819D01*
X154523809Y-111454819D02*
X154523809Y-110454819D01*
X155047619Y-110454819D02*
X155714285Y-111454819D01*
X155714285Y-110454819D02*
X155047619Y-111454819D01*
X156809523Y-110407200D02*
X155952381Y-111692914D01*
X157714285Y-111454819D02*
X157380952Y-110978628D01*
X157142857Y-111454819D02*
X157142857Y-110454819D01*
X157142857Y-110454819D02*
X157523809Y-110454819D01*
X157523809Y-110454819D02*
X157619047Y-110502438D01*
X157619047Y-110502438D02*
X157666666Y-110550057D01*
X157666666Y-110550057D02*
X157714285Y-110645295D01*
X157714285Y-110645295D02*
X157714285Y-110788152D01*
X157714285Y-110788152D02*
X157666666Y-110883390D01*
X157666666Y-110883390D02*
X157619047Y-110931009D01*
X157619047Y-110931009D02*
X157523809Y-110978628D01*
X157523809Y-110978628D02*
X157142857Y-110978628D01*
X158047619Y-110454819D02*
X158714285Y-111454819D01*
X158714285Y-110454819D02*
X158047619Y-111454819D01*
X160428571Y-111359580D02*
X160380952Y-111407200D01*
X160380952Y-111407200D02*
X160238095Y-111454819D01*
X160238095Y-111454819D02*
X160142857Y-111454819D01*
X160142857Y-111454819D02*
X160000000Y-111407200D01*
X160000000Y-111407200D02*
X159904762Y-111311961D01*
X159904762Y-111311961D02*
X159857143Y-111216723D01*
X159857143Y-111216723D02*
X159809524Y-111026247D01*
X159809524Y-111026247D02*
X159809524Y-110883390D01*
X159809524Y-110883390D02*
X159857143Y-110692914D01*
X159857143Y-110692914D02*
X159904762Y-110597676D01*
X159904762Y-110597676D02*
X160000000Y-110502438D01*
X160000000Y-110502438D02*
X160142857Y-110454819D01*
X160142857Y-110454819D02*
X160238095Y-110454819D01*
X160238095Y-110454819D02*
X160380952Y-110502438D01*
X160380952Y-110502438D02*
X160428571Y-110550057D01*
X160857143Y-111073866D02*
X161619048Y-111073866D01*
X108785714Y-128954819D02*
X108214286Y-128954819D01*
X108500000Y-128954819D02*
X108500000Y-127954819D01*
X108500000Y-127954819D02*
X108404762Y-128097676D01*
X108404762Y-128097676D02*
X108309524Y-128192914D01*
X108309524Y-128192914D02*
X108214286Y-128240533D01*
X123735714Y-93062295D02*
X124002381Y-93862295D01*
X124002381Y-93862295D02*
X124269047Y-93062295D01*
X124535714Y-93862295D02*
X124535714Y-93062295D01*
X124916666Y-93862295D02*
X124916666Y-93062295D01*
X124916666Y-93062295D02*
X125107142Y-93062295D01*
X125107142Y-93062295D02*
X125221428Y-93100390D01*
X125221428Y-93100390D02*
X125297618Y-93176580D01*
X125297618Y-93176580D02*
X125335713Y-93252771D01*
X125335713Y-93252771D02*
X125373809Y-93405152D01*
X125373809Y-93405152D02*
X125373809Y-93519438D01*
X125373809Y-93519438D02*
X125335713Y-93671819D01*
X125335713Y-93671819D02*
X125297618Y-93748009D01*
X125297618Y-93748009D02*
X125221428Y-93824200D01*
X125221428Y-93824200D02*
X125107142Y-93862295D01*
X125107142Y-93862295D02*
X124916666Y-93862295D01*
X125716666Y-93443247D02*
X125983332Y-93443247D01*
X126097618Y-93862295D02*
X125716666Y-93862295D01*
X125716666Y-93862295D02*
X125716666Y-93062295D01*
X125716666Y-93062295D02*
X126097618Y-93062295D01*
X126592857Y-93062295D02*
X126745238Y-93062295D01*
X126745238Y-93062295D02*
X126821428Y-93100390D01*
X126821428Y-93100390D02*
X126897619Y-93176580D01*
X126897619Y-93176580D02*
X126935714Y-93328961D01*
X126935714Y-93328961D02*
X126935714Y-93595628D01*
X126935714Y-93595628D02*
X126897619Y-93748009D01*
X126897619Y-93748009D02*
X126821428Y-93824200D01*
X126821428Y-93824200D02*
X126745238Y-93862295D01*
X126745238Y-93862295D02*
X126592857Y-93862295D01*
X126592857Y-93862295D02*
X126516666Y-93824200D01*
X126516666Y-93824200D02*
X126440476Y-93748009D01*
X126440476Y-93748009D02*
X126402380Y-93595628D01*
X126402380Y-93595628D02*
X126402380Y-93328961D01*
X126402380Y-93328961D02*
X126440476Y-93176580D01*
X126440476Y-93176580D02*
X126516666Y-93100390D01*
X126516666Y-93100390D02*
X126592857Y-93062295D01*
X127240475Y-93138485D02*
X127278571Y-93100390D01*
X127278571Y-93100390D02*
X127354761Y-93062295D01*
X127354761Y-93062295D02*
X127545237Y-93062295D01*
X127545237Y-93062295D02*
X127621428Y-93100390D01*
X127621428Y-93100390D02*
X127659523Y-93138485D01*
X127659523Y-93138485D02*
X127697618Y-93214676D01*
X127697618Y-93214676D02*
X127697618Y-93290866D01*
X127697618Y-93290866D02*
X127659523Y-93405152D01*
X127659523Y-93405152D02*
X127202380Y-93862295D01*
X127202380Y-93862295D02*
X127697618Y-93862295D01*
X128040476Y-93557533D02*
X128650000Y-93557533D01*
X128345238Y-93862295D02*
X128345238Y-93252771D01*
X162959580Y-98233334D02*
X163007200Y-98280953D01*
X163007200Y-98280953D02*
X163054819Y-98423810D01*
X163054819Y-98423810D02*
X163054819Y-98519048D01*
X163054819Y-98519048D02*
X163007200Y-98661905D01*
X163007200Y-98661905D02*
X162911961Y-98757143D01*
X162911961Y-98757143D02*
X162816723Y-98804762D01*
X162816723Y-98804762D02*
X162626247Y-98852381D01*
X162626247Y-98852381D02*
X162483390Y-98852381D01*
X162483390Y-98852381D02*
X162292914Y-98804762D01*
X162292914Y-98804762D02*
X162197676Y-98757143D01*
X162197676Y-98757143D02*
X162102438Y-98661905D01*
X162102438Y-98661905D02*
X162054819Y-98519048D01*
X162054819Y-98519048D02*
X162054819Y-98423810D01*
X162054819Y-98423810D02*
X162102438Y-98280953D01*
X162102438Y-98280953D02*
X162150057Y-98233334D01*
X163054819Y-97661905D02*
X163007200Y-97757143D01*
X163007200Y-97757143D02*
X162911961Y-97804762D01*
X162911961Y-97804762D02*
X162054819Y-97804762D01*
X162388152Y-96852381D02*
X163054819Y-96852381D01*
X162388152Y-97280952D02*
X162911961Y-97280952D01*
X162911961Y-97280952D02*
X163007200Y-97233333D01*
X163007200Y-97233333D02*
X163054819Y-97138095D01*
X163054819Y-97138095D02*
X163054819Y-96995238D01*
X163054819Y-96995238D02*
X163007200Y-96900000D01*
X163007200Y-96900000D02*
X162959580Y-96852381D01*
X163007200Y-96423809D02*
X163054819Y-96328571D01*
X163054819Y-96328571D02*
X163054819Y-96138095D01*
X163054819Y-96138095D02*
X163007200Y-96042857D01*
X163007200Y-96042857D02*
X162911961Y-95995238D01*
X162911961Y-95995238D02*
X162864342Y-95995238D01*
X162864342Y-95995238D02*
X162769104Y-96042857D01*
X162769104Y-96042857D02*
X162721485Y-96138095D01*
X162721485Y-96138095D02*
X162721485Y-96280952D01*
X162721485Y-96280952D02*
X162673866Y-96376190D01*
X162673866Y-96376190D02*
X162578628Y-96423809D01*
X162578628Y-96423809D02*
X162531009Y-96423809D01*
X162531009Y-96423809D02*
X162435771Y-96376190D01*
X162435771Y-96376190D02*
X162388152Y-96280952D01*
X162388152Y-96280952D02*
X162388152Y-96138095D01*
X162388152Y-96138095D02*
X162435771Y-96042857D01*
X162388152Y-95709523D02*
X162388152Y-95328571D01*
X162054819Y-95566666D02*
X162911961Y-95566666D01*
X162911961Y-95566666D02*
X163007200Y-95519047D01*
X163007200Y-95519047D02*
X163054819Y-95423809D01*
X163054819Y-95423809D02*
X163054819Y-95328571D01*
X163007200Y-94614285D02*
X163054819Y-94709523D01*
X163054819Y-94709523D02*
X163054819Y-94899999D01*
X163054819Y-94899999D02*
X163007200Y-94995237D01*
X163007200Y-94995237D02*
X162911961Y-95042856D01*
X162911961Y-95042856D02*
X162531009Y-95042856D01*
X162531009Y-95042856D02*
X162435771Y-94995237D01*
X162435771Y-94995237D02*
X162388152Y-94899999D01*
X162388152Y-94899999D02*
X162388152Y-94709523D01*
X162388152Y-94709523D02*
X162435771Y-94614285D01*
X162435771Y-94614285D02*
X162531009Y-94566666D01*
X162531009Y-94566666D02*
X162626247Y-94566666D01*
X162626247Y-94566666D02*
X162721485Y-95042856D01*
X163054819Y-94138094D02*
X162388152Y-94138094D01*
X162578628Y-94138094D02*
X162483390Y-94090475D01*
X162483390Y-94090475D02*
X162435771Y-94042856D01*
X162435771Y-94042856D02*
X162388152Y-93947618D01*
X162388152Y-93947618D02*
X162388152Y-93852380D01*
X135914286Y-54848866D02*
X136676191Y-54848866D01*
X136295238Y-55229819D02*
X136295238Y-54467914D01*
X137628571Y-54229819D02*
X137152381Y-54229819D01*
X137152381Y-54229819D02*
X137104762Y-54706009D01*
X137104762Y-54706009D02*
X137152381Y-54658390D01*
X137152381Y-54658390D02*
X137247619Y-54610771D01*
X137247619Y-54610771D02*
X137485714Y-54610771D01*
X137485714Y-54610771D02*
X137580952Y-54658390D01*
X137580952Y-54658390D02*
X137628571Y-54706009D01*
X137628571Y-54706009D02*
X137676190Y-54801247D01*
X137676190Y-54801247D02*
X137676190Y-55039342D01*
X137676190Y-55039342D02*
X137628571Y-55134580D01*
X137628571Y-55134580D02*
X137580952Y-55182200D01*
X137580952Y-55182200D02*
X137485714Y-55229819D01*
X137485714Y-55229819D02*
X137247619Y-55229819D01*
X137247619Y-55229819D02*
X137152381Y-55182200D01*
X137152381Y-55182200D02*
X137104762Y-55134580D01*
X137961905Y-54229819D02*
X138295238Y-55229819D01*
X138295238Y-55229819D02*
X138628571Y-54229819D01*
X110511904Y-63204819D02*
X110035714Y-63204819D01*
X110035714Y-63204819D02*
X109988095Y-63681009D01*
X109988095Y-63681009D02*
X110035714Y-63633390D01*
X110035714Y-63633390D02*
X110130952Y-63585771D01*
X110130952Y-63585771D02*
X110369047Y-63585771D01*
X110369047Y-63585771D02*
X110464285Y-63633390D01*
X110464285Y-63633390D02*
X110511904Y-63681009D01*
X110511904Y-63681009D02*
X110559523Y-63776247D01*
X110559523Y-63776247D02*
X110559523Y-64014342D01*
X110559523Y-64014342D02*
X110511904Y-64109580D01*
X110511904Y-64109580D02*
X110464285Y-64157200D01*
X110464285Y-64157200D02*
X110369047Y-64204819D01*
X110369047Y-64204819D02*
X110130952Y-64204819D01*
X110130952Y-64204819D02*
X110035714Y-64157200D01*
X110035714Y-64157200D02*
X109988095Y-64109580D01*
X111178571Y-63204819D02*
X111273809Y-63204819D01*
X111273809Y-63204819D02*
X111369047Y-63252438D01*
X111369047Y-63252438D02*
X111416666Y-63300057D01*
X111416666Y-63300057D02*
X111464285Y-63395295D01*
X111464285Y-63395295D02*
X111511904Y-63585771D01*
X111511904Y-63585771D02*
X111511904Y-63823866D01*
X111511904Y-63823866D02*
X111464285Y-64014342D01*
X111464285Y-64014342D02*
X111416666Y-64109580D01*
X111416666Y-64109580D02*
X111369047Y-64157200D01*
X111369047Y-64157200D02*
X111273809Y-64204819D01*
X111273809Y-64204819D02*
X111178571Y-64204819D01*
X111178571Y-64204819D02*
X111083333Y-64157200D01*
X111083333Y-64157200D02*
X111035714Y-64109580D01*
X111035714Y-64109580D02*
X110988095Y-64014342D01*
X110988095Y-64014342D02*
X110940476Y-63823866D01*
X110940476Y-63823866D02*
X110940476Y-63585771D01*
X110940476Y-63585771D02*
X110988095Y-63395295D01*
X110988095Y-63395295D02*
X111035714Y-63300057D01*
X111035714Y-63300057D02*
X111083333Y-63252438D01*
X111083333Y-63252438D02*
X111178571Y-63204819D01*
X112407143Y-88612295D02*
X112407143Y-87812295D01*
X112407143Y-88193247D02*
X112864286Y-88193247D01*
X112864286Y-88612295D02*
X112864286Y-87812295D01*
X113397619Y-87812295D02*
X113550000Y-87812295D01*
X113550000Y-87812295D02*
X113626190Y-87850390D01*
X113626190Y-87850390D02*
X113702381Y-87926580D01*
X113702381Y-87926580D02*
X113740476Y-88078961D01*
X113740476Y-88078961D02*
X113740476Y-88345628D01*
X113740476Y-88345628D02*
X113702381Y-88498009D01*
X113702381Y-88498009D02*
X113626190Y-88574200D01*
X113626190Y-88574200D02*
X113550000Y-88612295D01*
X113550000Y-88612295D02*
X113397619Y-88612295D01*
X113397619Y-88612295D02*
X113321428Y-88574200D01*
X113321428Y-88574200D02*
X113245238Y-88498009D01*
X113245238Y-88498009D02*
X113207142Y-88345628D01*
X113207142Y-88345628D02*
X113207142Y-88078961D01*
X113207142Y-88078961D02*
X113245238Y-87926580D01*
X113245238Y-87926580D02*
X113321428Y-87850390D01*
X113321428Y-87850390D02*
X113397619Y-87812295D01*
X114540476Y-88612295D02*
X114273809Y-88231342D01*
X114083333Y-88612295D02*
X114083333Y-87812295D01*
X114083333Y-87812295D02*
X114388095Y-87812295D01*
X114388095Y-87812295D02*
X114464285Y-87850390D01*
X114464285Y-87850390D02*
X114502380Y-87888485D01*
X114502380Y-87888485D02*
X114540476Y-87964676D01*
X114540476Y-87964676D02*
X114540476Y-88078961D01*
X114540476Y-88078961D02*
X114502380Y-88155152D01*
X114502380Y-88155152D02*
X114464285Y-88193247D01*
X114464285Y-88193247D02*
X114388095Y-88231342D01*
X114388095Y-88231342D02*
X114083333Y-88231342D01*
X114883333Y-88612295D02*
X114883333Y-87812295D01*
X114883333Y-87812295D02*
X115073809Y-87812295D01*
X115073809Y-87812295D02*
X115188095Y-87850390D01*
X115188095Y-87850390D02*
X115264285Y-87926580D01*
X115264285Y-87926580D02*
X115302380Y-88002771D01*
X115302380Y-88002771D02*
X115340476Y-88155152D01*
X115340476Y-88155152D02*
X115340476Y-88269438D01*
X115340476Y-88269438D02*
X115302380Y-88421819D01*
X115302380Y-88421819D02*
X115264285Y-88498009D01*
X115264285Y-88498009D02*
X115188095Y-88574200D01*
X115188095Y-88574200D02*
X115073809Y-88612295D01*
X115073809Y-88612295D02*
X114883333Y-88612295D01*
X116140476Y-88612295D02*
X115873809Y-88231342D01*
X115683333Y-88612295D02*
X115683333Y-87812295D01*
X115683333Y-87812295D02*
X115988095Y-87812295D01*
X115988095Y-87812295D02*
X116064285Y-87850390D01*
X116064285Y-87850390D02*
X116102380Y-87888485D01*
X116102380Y-87888485D02*
X116140476Y-87964676D01*
X116140476Y-87964676D02*
X116140476Y-88078961D01*
X116140476Y-88078961D02*
X116102380Y-88155152D01*
X116102380Y-88155152D02*
X116064285Y-88193247D01*
X116064285Y-88193247D02*
X115988095Y-88231342D01*
X115988095Y-88231342D02*
X115683333Y-88231342D01*
X116483333Y-88307533D02*
X117092857Y-88307533D01*
X124128572Y-99112295D02*
X123861905Y-98731342D01*
X123671429Y-99112295D02*
X123671429Y-98312295D01*
X123671429Y-98312295D02*
X123976191Y-98312295D01*
X123976191Y-98312295D02*
X124052381Y-98350390D01*
X124052381Y-98350390D02*
X124090476Y-98388485D01*
X124090476Y-98388485D02*
X124128572Y-98464676D01*
X124128572Y-98464676D02*
X124128572Y-98578961D01*
X124128572Y-98578961D02*
X124090476Y-98655152D01*
X124090476Y-98655152D02*
X124052381Y-98693247D01*
X124052381Y-98693247D02*
X123976191Y-98731342D01*
X123976191Y-98731342D02*
X123671429Y-98731342D01*
X124395238Y-98312295D02*
X124928572Y-99112295D01*
X124928572Y-98312295D02*
X124395238Y-99112295D01*
X125690477Y-99036104D02*
X125652381Y-99074200D01*
X125652381Y-99074200D02*
X125538096Y-99112295D01*
X125538096Y-99112295D02*
X125461905Y-99112295D01*
X125461905Y-99112295D02*
X125347619Y-99074200D01*
X125347619Y-99074200D02*
X125271429Y-98998009D01*
X125271429Y-98998009D02*
X125233334Y-98921819D01*
X125233334Y-98921819D02*
X125195238Y-98769438D01*
X125195238Y-98769438D02*
X125195238Y-98655152D01*
X125195238Y-98655152D02*
X125233334Y-98502771D01*
X125233334Y-98502771D02*
X125271429Y-98426580D01*
X125271429Y-98426580D02*
X125347619Y-98350390D01*
X125347619Y-98350390D02*
X125461905Y-98312295D01*
X125461905Y-98312295D02*
X125538096Y-98312295D01*
X125538096Y-98312295D02*
X125652381Y-98350390D01*
X125652381Y-98350390D02*
X125690477Y-98388485D01*
X125995238Y-98883723D02*
X126376191Y-98883723D01*
X125919048Y-99112295D02*
X126185715Y-98312295D01*
X126185715Y-98312295D02*
X126452381Y-99112295D01*
X126719048Y-98807533D02*
X127328572Y-98807533D01*
X151976190Y-65454819D02*
X151642857Y-64978628D01*
X151404762Y-65454819D02*
X151404762Y-64454819D01*
X151404762Y-64454819D02*
X151785714Y-64454819D01*
X151785714Y-64454819D02*
X151880952Y-64502438D01*
X151880952Y-64502438D02*
X151928571Y-64550057D01*
X151928571Y-64550057D02*
X151976190Y-64645295D01*
X151976190Y-64645295D02*
X151976190Y-64788152D01*
X151976190Y-64788152D02*
X151928571Y-64883390D01*
X151928571Y-64883390D02*
X151880952Y-64931009D01*
X151880952Y-64931009D02*
X151785714Y-64978628D01*
X151785714Y-64978628D02*
X151404762Y-64978628D01*
X152690476Y-64454819D02*
X152690476Y-65169104D01*
X152690476Y-65169104D02*
X152642857Y-65311961D01*
X152642857Y-65311961D02*
X152547619Y-65407200D01*
X152547619Y-65407200D02*
X152404762Y-65454819D01*
X152404762Y-65454819D02*
X152309524Y-65454819D01*
X153595238Y-64788152D02*
X153595238Y-65454819D01*
X153357143Y-64407200D02*
X153119048Y-65121485D01*
X153119048Y-65121485D02*
X153738095Y-65121485D01*
X154595238Y-64454819D02*
X154119048Y-64454819D01*
X154119048Y-64454819D02*
X154071429Y-64931009D01*
X154071429Y-64931009D02*
X154119048Y-64883390D01*
X154119048Y-64883390D02*
X154214286Y-64835771D01*
X154214286Y-64835771D02*
X154452381Y-64835771D01*
X154452381Y-64835771D02*
X154547619Y-64883390D01*
X154547619Y-64883390D02*
X154595238Y-64931009D01*
X154595238Y-64931009D02*
X154642857Y-65026247D01*
X154642857Y-65026247D02*
X154642857Y-65264342D01*
X154642857Y-65264342D02*
X154595238Y-65359580D01*
X154595238Y-65359580D02*
X154547619Y-65407200D01*
X154547619Y-65407200D02*
X154452381Y-65454819D01*
X154452381Y-65454819D02*
X154214286Y-65454819D01*
X154214286Y-65454819D02*
X154119048Y-65407200D01*
X154119048Y-65407200D02*
X154071429Y-65359580D01*
X115240476Y-108425390D02*
X115164286Y-108387295D01*
X115164286Y-108387295D02*
X115050000Y-108387295D01*
X115050000Y-108387295D02*
X114935714Y-108425390D01*
X114935714Y-108425390D02*
X114859524Y-108501580D01*
X114859524Y-108501580D02*
X114821429Y-108577771D01*
X114821429Y-108577771D02*
X114783333Y-108730152D01*
X114783333Y-108730152D02*
X114783333Y-108844438D01*
X114783333Y-108844438D02*
X114821429Y-108996819D01*
X114821429Y-108996819D02*
X114859524Y-109073009D01*
X114859524Y-109073009D02*
X114935714Y-109149200D01*
X114935714Y-109149200D02*
X115050000Y-109187295D01*
X115050000Y-109187295D02*
X115126191Y-109187295D01*
X115126191Y-109187295D02*
X115240476Y-109149200D01*
X115240476Y-109149200D02*
X115278572Y-109111104D01*
X115278572Y-109111104D02*
X115278572Y-108844438D01*
X115278572Y-108844438D02*
X115126191Y-108844438D01*
X115621429Y-109187295D02*
X115621429Y-108387295D01*
X115621429Y-108387295D02*
X116078572Y-109187295D01*
X116078572Y-109187295D02*
X116078572Y-108387295D01*
X116459524Y-109187295D02*
X116459524Y-108387295D01*
X116459524Y-108387295D02*
X116650000Y-108387295D01*
X116650000Y-108387295D02*
X116764286Y-108425390D01*
X116764286Y-108425390D02*
X116840476Y-108501580D01*
X116840476Y-108501580D02*
X116878571Y-108577771D01*
X116878571Y-108577771D02*
X116916667Y-108730152D01*
X116916667Y-108730152D02*
X116916667Y-108844438D01*
X116916667Y-108844438D02*
X116878571Y-108996819D01*
X116878571Y-108996819D02*
X116840476Y-109073009D01*
X116840476Y-109073009D02*
X116764286Y-109149200D01*
X116764286Y-109149200D02*
X116650000Y-109187295D01*
X116650000Y-109187295D02*
X116459524Y-109187295D01*
X143279819Y-80438095D02*
X142803628Y-80771428D01*
X143279819Y-81009523D02*
X142279819Y-81009523D01*
X142279819Y-81009523D02*
X142279819Y-80628571D01*
X142279819Y-80628571D02*
X142327438Y-80533333D01*
X142327438Y-80533333D02*
X142375057Y-80485714D01*
X142375057Y-80485714D02*
X142470295Y-80438095D01*
X142470295Y-80438095D02*
X142613152Y-80438095D01*
X142613152Y-80438095D02*
X142708390Y-80485714D01*
X142708390Y-80485714D02*
X142756009Y-80533333D01*
X142756009Y-80533333D02*
X142803628Y-80628571D01*
X142803628Y-80628571D02*
X142803628Y-81009523D01*
X143232200Y-79628571D02*
X143279819Y-79723809D01*
X143279819Y-79723809D02*
X143279819Y-79914285D01*
X143279819Y-79914285D02*
X143232200Y-80009523D01*
X143232200Y-80009523D02*
X143136961Y-80057142D01*
X143136961Y-80057142D02*
X142756009Y-80057142D01*
X142756009Y-80057142D02*
X142660771Y-80009523D01*
X142660771Y-80009523D02*
X142613152Y-79914285D01*
X142613152Y-79914285D02*
X142613152Y-79723809D01*
X142613152Y-79723809D02*
X142660771Y-79628571D01*
X142660771Y-79628571D02*
X142756009Y-79580952D01*
X142756009Y-79580952D02*
X142851247Y-79580952D01*
X142851247Y-79580952D02*
X142946485Y-80057142D01*
X143232200Y-79199999D02*
X143279819Y-79104761D01*
X143279819Y-79104761D02*
X143279819Y-78914285D01*
X143279819Y-78914285D02*
X143232200Y-78819047D01*
X143232200Y-78819047D02*
X143136961Y-78771428D01*
X143136961Y-78771428D02*
X143089342Y-78771428D01*
X143089342Y-78771428D02*
X142994104Y-78819047D01*
X142994104Y-78819047D02*
X142946485Y-78914285D01*
X142946485Y-78914285D02*
X142946485Y-79057142D01*
X142946485Y-79057142D02*
X142898866Y-79152380D01*
X142898866Y-79152380D02*
X142803628Y-79199999D01*
X142803628Y-79199999D02*
X142756009Y-79199999D01*
X142756009Y-79199999D02*
X142660771Y-79152380D01*
X142660771Y-79152380D02*
X142613152Y-79057142D01*
X142613152Y-79057142D02*
X142613152Y-78914285D01*
X142613152Y-78914285D02*
X142660771Y-78819047D01*
X143232200Y-77961904D02*
X143279819Y-78057142D01*
X143279819Y-78057142D02*
X143279819Y-78247618D01*
X143279819Y-78247618D02*
X143232200Y-78342856D01*
X143232200Y-78342856D02*
X143136961Y-78390475D01*
X143136961Y-78390475D02*
X142756009Y-78390475D01*
X142756009Y-78390475D02*
X142660771Y-78342856D01*
X142660771Y-78342856D02*
X142613152Y-78247618D01*
X142613152Y-78247618D02*
X142613152Y-78057142D01*
X142613152Y-78057142D02*
X142660771Y-77961904D01*
X142660771Y-77961904D02*
X142756009Y-77914285D01*
X142756009Y-77914285D02*
X142851247Y-77914285D01*
X142851247Y-77914285D02*
X142946485Y-78390475D01*
X142613152Y-77628570D02*
X142613152Y-77247618D01*
X142279819Y-77485713D02*
X143136961Y-77485713D01*
X143136961Y-77485713D02*
X143232200Y-77438094D01*
X143232200Y-77438094D02*
X143279819Y-77342856D01*
X143279819Y-77342856D02*
X143279819Y-77247618D01*
X154238095Y-115954819D02*
X154809523Y-115954819D01*
X154523809Y-116954819D02*
X154523809Y-115954819D01*
X155047619Y-115954819D02*
X155714285Y-116954819D01*
X155714285Y-115954819D02*
X155047619Y-116954819D01*
X156809523Y-115907200D02*
X155952381Y-117192914D01*
X157714285Y-116954819D02*
X157380952Y-116478628D01*
X157142857Y-116954819D02*
X157142857Y-115954819D01*
X157142857Y-115954819D02*
X157523809Y-115954819D01*
X157523809Y-115954819D02*
X157619047Y-116002438D01*
X157619047Y-116002438D02*
X157666666Y-116050057D01*
X157666666Y-116050057D02*
X157714285Y-116145295D01*
X157714285Y-116145295D02*
X157714285Y-116288152D01*
X157714285Y-116288152D02*
X157666666Y-116383390D01*
X157666666Y-116383390D02*
X157619047Y-116431009D01*
X157619047Y-116431009D02*
X157523809Y-116478628D01*
X157523809Y-116478628D02*
X157142857Y-116478628D01*
X158047619Y-115954819D02*
X158714285Y-116954819D01*
X158714285Y-115954819D02*
X158047619Y-116954819D01*
X159857143Y-116954819D02*
X159857143Y-115954819D01*
X159857143Y-115954819D02*
X160095238Y-115954819D01*
X160095238Y-115954819D02*
X160238095Y-116002438D01*
X160238095Y-116002438D02*
X160333333Y-116097676D01*
X160333333Y-116097676D02*
X160380952Y-116192914D01*
X160380952Y-116192914D02*
X160428571Y-116383390D01*
X160428571Y-116383390D02*
X160428571Y-116526247D01*
X160428571Y-116526247D02*
X160380952Y-116716723D01*
X160380952Y-116716723D02*
X160333333Y-116811961D01*
X160333333Y-116811961D02*
X160238095Y-116907200D01*
X160238095Y-116907200D02*
X160095238Y-116954819D01*
X160095238Y-116954819D02*
X159857143Y-116954819D01*
X160857143Y-116573866D02*
X161619048Y-116573866D01*
X112238095Y-95550057D02*
X112285714Y-95502438D01*
X112285714Y-95502438D02*
X112380952Y-95454819D01*
X112380952Y-95454819D02*
X112619047Y-95454819D01*
X112619047Y-95454819D02*
X112714285Y-95502438D01*
X112714285Y-95502438D02*
X112761904Y-95550057D01*
X112761904Y-95550057D02*
X112809523Y-95645295D01*
X112809523Y-95645295D02*
X112809523Y-95740533D01*
X112809523Y-95740533D02*
X112761904Y-95883390D01*
X112761904Y-95883390D02*
X112190476Y-96454819D01*
X112190476Y-96454819D02*
X112809523Y-96454819D01*
X113666666Y-95454819D02*
X113476190Y-95454819D01*
X113476190Y-95454819D02*
X113380952Y-95502438D01*
X113380952Y-95502438D02*
X113333333Y-95550057D01*
X113333333Y-95550057D02*
X113238095Y-95692914D01*
X113238095Y-95692914D02*
X113190476Y-95883390D01*
X113190476Y-95883390D02*
X113190476Y-96264342D01*
X113190476Y-96264342D02*
X113238095Y-96359580D01*
X113238095Y-96359580D02*
X113285714Y-96407200D01*
X113285714Y-96407200D02*
X113380952Y-96454819D01*
X113380952Y-96454819D02*
X113571428Y-96454819D01*
X113571428Y-96454819D02*
X113666666Y-96407200D01*
X113666666Y-96407200D02*
X113714285Y-96359580D01*
X113714285Y-96359580D02*
X113761904Y-96264342D01*
X113761904Y-96264342D02*
X113761904Y-96026247D01*
X113761904Y-96026247D02*
X113714285Y-95931009D01*
X113714285Y-95931009D02*
X113666666Y-95883390D01*
X113666666Y-95883390D02*
X113571428Y-95835771D01*
X113571428Y-95835771D02*
X113380952Y-95835771D01*
X113380952Y-95835771D02*
X113285714Y-95883390D01*
X113285714Y-95883390D02*
X113238095Y-95931009D01*
X113238095Y-95931009D02*
X113190476Y-96026247D01*
X115140476Y-95600390D02*
X115064286Y-95562295D01*
X115064286Y-95562295D02*
X114950000Y-95562295D01*
X114950000Y-95562295D02*
X114835714Y-95600390D01*
X114835714Y-95600390D02*
X114759524Y-95676580D01*
X114759524Y-95676580D02*
X114721429Y-95752771D01*
X114721429Y-95752771D02*
X114683333Y-95905152D01*
X114683333Y-95905152D02*
X114683333Y-96019438D01*
X114683333Y-96019438D02*
X114721429Y-96171819D01*
X114721429Y-96171819D02*
X114759524Y-96248009D01*
X114759524Y-96248009D02*
X114835714Y-96324200D01*
X114835714Y-96324200D02*
X114950000Y-96362295D01*
X114950000Y-96362295D02*
X115026191Y-96362295D01*
X115026191Y-96362295D02*
X115140476Y-96324200D01*
X115140476Y-96324200D02*
X115178572Y-96286104D01*
X115178572Y-96286104D02*
X115178572Y-96019438D01*
X115178572Y-96019438D02*
X115026191Y-96019438D01*
X115521429Y-96362295D02*
X115521429Y-95562295D01*
X115521429Y-95562295D02*
X115978572Y-96362295D01*
X115978572Y-96362295D02*
X115978572Y-95562295D01*
X116359524Y-96362295D02*
X116359524Y-95562295D01*
X116359524Y-95562295D02*
X116550000Y-95562295D01*
X116550000Y-95562295D02*
X116664286Y-95600390D01*
X116664286Y-95600390D02*
X116740476Y-95676580D01*
X116740476Y-95676580D02*
X116778571Y-95752771D01*
X116778571Y-95752771D02*
X116816667Y-95905152D01*
X116816667Y-95905152D02*
X116816667Y-96019438D01*
X116816667Y-96019438D02*
X116778571Y-96171819D01*
X116778571Y-96171819D02*
X116740476Y-96248009D01*
X116740476Y-96248009D02*
X116664286Y-96324200D01*
X116664286Y-96324200D02*
X116550000Y-96362295D01*
X116550000Y-96362295D02*
X116359524Y-96362295D01*
X113402381Y-103312295D02*
X113859524Y-103312295D01*
X113630952Y-104112295D02*
X113630952Y-103312295D01*
X114050000Y-103312295D02*
X114583334Y-104112295D01*
X114583334Y-103312295D02*
X114050000Y-104112295D01*
X114888096Y-104112295D02*
X114888096Y-103312295D01*
X114888096Y-103312295D02*
X115078572Y-103312295D01*
X115078572Y-103312295D02*
X115192858Y-103350390D01*
X115192858Y-103350390D02*
X115269048Y-103426580D01*
X115269048Y-103426580D02*
X115307143Y-103502771D01*
X115307143Y-103502771D02*
X115345239Y-103655152D01*
X115345239Y-103655152D02*
X115345239Y-103769438D01*
X115345239Y-103769438D02*
X115307143Y-103921819D01*
X115307143Y-103921819D02*
X115269048Y-103998009D01*
X115269048Y-103998009D02*
X115192858Y-104074200D01*
X115192858Y-104074200D02*
X115078572Y-104112295D01*
X115078572Y-104112295D02*
X114888096Y-104112295D01*
X115650000Y-103883723D02*
X116030953Y-103883723D01*
X115573810Y-104112295D02*
X115840477Y-103312295D01*
X115840477Y-103312295D02*
X116107143Y-104112295D01*
X116373810Y-103807533D02*
X116983334Y-103807533D01*
X132286779Y-112194819D02*
X132286779Y-111194819D01*
X132762969Y-111528152D02*
X132762969Y-112194819D01*
X132762969Y-111623390D02*
X132810588Y-111575771D01*
X132810588Y-111575771D02*
X132905826Y-111528152D01*
X132905826Y-111528152D02*
X133048683Y-111528152D01*
X133048683Y-111528152D02*
X133143921Y-111575771D01*
X133143921Y-111575771D02*
X133191540Y-111671009D01*
X133191540Y-111671009D02*
X133191540Y-112194819D01*
X133524874Y-111528152D02*
X133905826Y-111528152D01*
X133667731Y-111194819D02*
X133667731Y-112051961D01*
X133667731Y-112051961D02*
X133715350Y-112147200D01*
X133715350Y-112147200D02*
X133810588Y-112194819D01*
X133810588Y-112194819D02*
X133905826Y-112194819D01*
X134620112Y-112147200D02*
X134524874Y-112194819D01*
X134524874Y-112194819D02*
X134334398Y-112194819D01*
X134334398Y-112194819D02*
X134239160Y-112147200D01*
X134239160Y-112147200D02*
X134191541Y-112051961D01*
X134191541Y-112051961D02*
X134191541Y-111671009D01*
X134191541Y-111671009D02*
X134239160Y-111575771D01*
X134239160Y-111575771D02*
X134334398Y-111528152D01*
X134334398Y-111528152D02*
X134524874Y-111528152D01*
X134524874Y-111528152D02*
X134620112Y-111575771D01*
X134620112Y-111575771D02*
X134667731Y-111671009D01*
X134667731Y-111671009D02*
X134667731Y-111766247D01*
X134667731Y-111766247D02*
X134191541Y-111861485D01*
X135096303Y-112194819D02*
X135096303Y-111528152D01*
X135096303Y-111718628D02*
X135143922Y-111623390D01*
X135143922Y-111623390D02*
X135191541Y-111575771D01*
X135191541Y-111575771D02*
X135286779Y-111528152D01*
X135286779Y-111528152D02*
X135382017Y-111528152D01*
X135715351Y-112194819D02*
X135715351Y-111528152D01*
X135715351Y-111718628D02*
X135762970Y-111623390D01*
X135762970Y-111623390D02*
X135810589Y-111575771D01*
X135810589Y-111575771D02*
X135905827Y-111528152D01*
X135905827Y-111528152D02*
X136001065Y-111528152D01*
X136762970Y-111528152D02*
X136762970Y-112194819D01*
X136334399Y-111528152D02*
X136334399Y-112051961D01*
X136334399Y-112051961D02*
X136382018Y-112147200D01*
X136382018Y-112147200D02*
X136477256Y-112194819D01*
X136477256Y-112194819D02*
X136620113Y-112194819D01*
X136620113Y-112194819D02*
X136715351Y-112147200D01*
X136715351Y-112147200D02*
X136762970Y-112099580D01*
X137239161Y-111528152D02*
X137239161Y-112528152D01*
X137239161Y-111575771D02*
X137334399Y-111528152D01*
X137334399Y-111528152D02*
X137524875Y-111528152D01*
X137524875Y-111528152D02*
X137620113Y-111575771D01*
X137620113Y-111575771D02*
X137667732Y-111623390D01*
X137667732Y-111623390D02*
X137715351Y-111718628D01*
X137715351Y-111718628D02*
X137715351Y-112004342D01*
X137715351Y-112004342D02*
X137667732Y-112099580D01*
X137667732Y-112099580D02*
X137620113Y-112147200D01*
X137620113Y-112147200D02*
X137524875Y-112194819D01*
X137524875Y-112194819D02*
X137334399Y-112194819D01*
X137334399Y-112194819D02*
X137239161Y-112147200D01*
X138001066Y-111528152D02*
X138382018Y-111528152D01*
X138143923Y-111194819D02*
X138143923Y-112051961D01*
X138143923Y-112051961D02*
X138191542Y-112147200D01*
X138191542Y-112147200D02*
X138286780Y-112194819D01*
X138286780Y-112194819D02*
X138382018Y-112194819D01*
X173454819Y-113238094D02*
X172454819Y-113238094D01*
X172454819Y-113238094D02*
X172454819Y-112999999D01*
X172454819Y-112999999D02*
X172502438Y-112857142D01*
X172502438Y-112857142D02*
X172597676Y-112761904D01*
X172597676Y-112761904D02*
X172692914Y-112714285D01*
X172692914Y-112714285D02*
X172883390Y-112666666D01*
X172883390Y-112666666D02*
X173026247Y-112666666D01*
X173026247Y-112666666D02*
X173216723Y-112714285D01*
X173216723Y-112714285D02*
X173311961Y-112761904D01*
X173311961Y-112761904D02*
X173407200Y-112857142D01*
X173407200Y-112857142D02*
X173454819Y-112999999D01*
X173454819Y-112999999D02*
X173454819Y-113238094D01*
X172931009Y-111904761D02*
X172978628Y-111761904D01*
X172978628Y-111761904D02*
X173026247Y-111714285D01*
X173026247Y-111714285D02*
X173121485Y-111666666D01*
X173121485Y-111666666D02*
X173264342Y-111666666D01*
X173264342Y-111666666D02*
X173359580Y-111714285D01*
X173359580Y-111714285D02*
X173407200Y-111761904D01*
X173407200Y-111761904D02*
X173454819Y-111857142D01*
X173454819Y-111857142D02*
X173454819Y-112238094D01*
X173454819Y-112238094D02*
X172454819Y-112238094D01*
X172454819Y-112238094D02*
X172454819Y-111904761D01*
X172454819Y-111904761D02*
X172502438Y-111809523D01*
X172502438Y-111809523D02*
X172550057Y-111761904D01*
X172550057Y-111761904D02*
X172645295Y-111714285D01*
X172645295Y-111714285D02*
X172740533Y-111714285D01*
X172740533Y-111714285D02*
X172835771Y-111761904D01*
X172835771Y-111761904D02*
X172883390Y-111809523D01*
X172883390Y-111809523D02*
X172931009Y-111904761D01*
X172931009Y-111904761D02*
X172931009Y-112238094D01*
X173454819Y-111190475D02*
X173454819Y-110999999D01*
X173454819Y-110999999D02*
X173407200Y-110904761D01*
X173407200Y-110904761D02*
X173359580Y-110857142D01*
X173359580Y-110857142D02*
X173216723Y-110761904D01*
X173216723Y-110761904D02*
X173026247Y-110714285D01*
X173026247Y-110714285D02*
X172645295Y-110714285D01*
X172645295Y-110714285D02*
X172550057Y-110761904D01*
X172550057Y-110761904D02*
X172502438Y-110809523D01*
X172502438Y-110809523D02*
X172454819Y-110904761D01*
X172454819Y-110904761D02*
X172454819Y-111095237D01*
X172454819Y-111095237D02*
X172502438Y-111190475D01*
X172502438Y-111190475D02*
X172550057Y-111238094D01*
X172550057Y-111238094D02*
X172645295Y-111285713D01*
X172645295Y-111285713D02*
X172883390Y-111285713D01*
X172883390Y-111285713D02*
X172978628Y-111238094D01*
X172978628Y-111238094D02*
X173026247Y-111190475D01*
X173026247Y-111190475D02*
X173073866Y-111095237D01*
X173073866Y-111095237D02*
X173073866Y-110904761D01*
X173073866Y-110904761D02*
X173026247Y-110809523D01*
X173026247Y-110809523D02*
X172978628Y-110761904D01*
X172978628Y-110761904D02*
X172883390Y-110714285D01*
X128838095Y-54277438D02*
X128742857Y-54229819D01*
X128742857Y-54229819D02*
X128600000Y-54229819D01*
X128600000Y-54229819D02*
X128457143Y-54277438D01*
X128457143Y-54277438D02*
X128361905Y-54372676D01*
X128361905Y-54372676D02*
X128314286Y-54467914D01*
X128314286Y-54467914D02*
X128266667Y-54658390D01*
X128266667Y-54658390D02*
X128266667Y-54801247D01*
X128266667Y-54801247D02*
X128314286Y-54991723D01*
X128314286Y-54991723D02*
X128361905Y-55086961D01*
X128361905Y-55086961D02*
X128457143Y-55182200D01*
X128457143Y-55182200D02*
X128600000Y-55229819D01*
X128600000Y-55229819D02*
X128695238Y-55229819D01*
X128695238Y-55229819D02*
X128838095Y-55182200D01*
X128838095Y-55182200D02*
X128885714Y-55134580D01*
X128885714Y-55134580D02*
X128885714Y-54801247D01*
X128885714Y-54801247D02*
X128695238Y-54801247D01*
X129314286Y-55229819D02*
X129314286Y-54229819D01*
X129314286Y-54229819D02*
X129885714Y-55229819D01*
X129885714Y-55229819D02*
X129885714Y-54229819D01*
X130361905Y-55229819D02*
X130361905Y-54229819D01*
X130361905Y-54229819D02*
X130600000Y-54229819D01*
X130600000Y-54229819D02*
X130742857Y-54277438D01*
X130742857Y-54277438D02*
X130838095Y-54372676D01*
X130838095Y-54372676D02*
X130885714Y-54467914D01*
X130885714Y-54467914D02*
X130933333Y-54658390D01*
X130933333Y-54658390D02*
X130933333Y-54801247D01*
X130933333Y-54801247D02*
X130885714Y-54991723D01*
X130885714Y-54991723D02*
X130838095Y-55086961D01*
X130838095Y-55086961D02*
X130742857Y-55182200D01*
X130742857Y-55182200D02*
X130600000Y-55229819D01*
X130600000Y-55229819D02*
X130361905Y-55229819D01*
X112635714Y-119133723D02*
X113016667Y-119133723D01*
X112559524Y-119362295D02*
X112826191Y-118562295D01*
X112826191Y-118562295D02*
X113092857Y-119362295D01*
X113359524Y-118562295D02*
X113359524Y-119209914D01*
X113359524Y-119209914D02*
X113397619Y-119286104D01*
X113397619Y-119286104D02*
X113435714Y-119324200D01*
X113435714Y-119324200D02*
X113511905Y-119362295D01*
X113511905Y-119362295D02*
X113664286Y-119362295D01*
X113664286Y-119362295D02*
X113740476Y-119324200D01*
X113740476Y-119324200D02*
X113778571Y-119286104D01*
X113778571Y-119286104D02*
X113816667Y-119209914D01*
X113816667Y-119209914D02*
X113816667Y-118562295D01*
X114197619Y-119362295D02*
X114197619Y-118562295D01*
X114197619Y-118562295D02*
X114388095Y-118562295D01*
X114388095Y-118562295D02*
X114502381Y-118600390D01*
X114502381Y-118600390D02*
X114578571Y-118676580D01*
X114578571Y-118676580D02*
X114616666Y-118752771D01*
X114616666Y-118752771D02*
X114654762Y-118905152D01*
X114654762Y-118905152D02*
X114654762Y-119019438D01*
X114654762Y-119019438D02*
X114616666Y-119171819D01*
X114616666Y-119171819D02*
X114578571Y-119248009D01*
X114578571Y-119248009D02*
X114502381Y-119324200D01*
X114502381Y-119324200D02*
X114388095Y-119362295D01*
X114388095Y-119362295D02*
X114197619Y-119362295D01*
X114997619Y-119362295D02*
X114997619Y-118562295D01*
X115530952Y-118562295D02*
X115683333Y-118562295D01*
X115683333Y-118562295D02*
X115759523Y-118600390D01*
X115759523Y-118600390D02*
X115835714Y-118676580D01*
X115835714Y-118676580D02*
X115873809Y-118828961D01*
X115873809Y-118828961D02*
X115873809Y-119095628D01*
X115873809Y-119095628D02*
X115835714Y-119248009D01*
X115835714Y-119248009D02*
X115759523Y-119324200D01*
X115759523Y-119324200D02*
X115683333Y-119362295D01*
X115683333Y-119362295D02*
X115530952Y-119362295D01*
X115530952Y-119362295D02*
X115454761Y-119324200D01*
X115454761Y-119324200D02*
X115378571Y-119248009D01*
X115378571Y-119248009D02*
X115340475Y-119095628D01*
X115340475Y-119095628D02*
X115340475Y-118828961D01*
X115340475Y-118828961D02*
X115378571Y-118676580D01*
X115378571Y-118676580D02*
X115454761Y-118600390D01*
X115454761Y-118600390D02*
X115530952Y-118562295D01*
X116216666Y-119057533D02*
X116826190Y-119057533D01*
X116521428Y-119362295D02*
X116521428Y-118752771D01*
X115140476Y-121100390D02*
X115064286Y-121062295D01*
X115064286Y-121062295D02*
X114950000Y-121062295D01*
X114950000Y-121062295D02*
X114835714Y-121100390D01*
X114835714Y-121100390D02*
X114759524Y-121176580D01*
X114759524Y-121176580D02*
X114721429Y-121252771D01*
X114721429Y-121252771D02*
X114683333Y-121405152D01*
X114683333Y-121405152D02*
X114683333Y-121519438D01*
X114683333Y-121519438D02*
X114721429Y-121671819D01*
X114721429Y-121671819D02*
X114759524Y-121748009D01*
X114759524Y-121748009D02*
X114835714Y-121824200D01*
X114835714Y-121824200D02*
X114950000Y-121862295D01*
X114950000Y-121862295D02*
X115026191Y-121862295D01*
X115026191Y-121862295D02*
X115140476Y-121824200D01*
X115140476Y-121824200D02*
X115178572Y-121786104D01*
X115178572Y-121786104D02*
X115178572Y-121519438D01*
X115178572Y-121519438D02*
X115026191Y-121519438D01*
X115521429Y-121862295D02*
X115521429Y-121062295D01*
X115521429Y-121062295D02*
X115978572Y-121862295D01*
X115978572Y-121862295D02*
X115978572Y-121062295D01*
X116359524Y-121862295D02*
X116359524Y-121062295D01*
X116359524Y-121062295D02*
X116550000Y-121062295D01*
X116550000Y-121062295D02*
X116664286Y-121100390D01*
X116664286Y-121100390D02*
X116740476Y-121176580D01*
X116740476Y-121176580D02*
X116778571Y-121252771D01*
X116778571Y-121252771D02*
X116816667Y-121405152D01*
X116816667Y-121405152D02*
X116816667Y-121519438D01*
X116816667Y-121519438D02*
X116778571Y-121671819D01*
X116778571Y-121671819D02*
X116740476Y-121748009D01*
X116740476Y-121748009D02*
X116664286Y-121824200D01*
X116664286Y-121824200D02*
X116550000Y-121862295D01*
X116550000Y-121862295D02*
X116359524Y-121862295D01*
X153000000Y-96454819D02*
X153000000Y-95454819D01*
X153000000Y-95454819D02*
X153380952Y-95454819D01*
X153380952Y-95454819D02*
X153476190Y-95502438D01*
X153476190Y-95502438D02*
X153523809Y-95550057D01*
X153523809Y-95550057D02*
X153571428Y-95645295D01*
X153571428Y-95645295D02*
X153571428Y-95788152D01*
X153571428Y-95788152D02*
X153523809Y-95883390D01*
X153523809Y-95883390D02*
X153476190Y-95931009D01*
X153476190Y-95931009D02*
X153380952Y-95978628D01*
X153380952Y-95978628D02*
X153000000Y-95978628D01*
X154142857Y-96454819D02*
X154047619Y-96407200D01*
X154047619Y-96407200D02*
X154000000Y-96359580D01*
X154000000Y-96359580D02*
X153952381Y-96264342D01*
X153952381Y-96264342D02*
X153952381Y-95978628D01*
X153952381Y-95978628D02*
X154000000Y-95883390D01*
X154000000Y-95883390D02*
X154047619Y-95835771D01*
X154047619Y-95835771D02*
X154142857Y-95788152D01*
X154142857Y-95788152D02*
X154285714Y-95788152D01*
X154285714Y-95788152D02*
X154380952Y-95835771D01*
X154380952Y-95835771D02*
X154428571Y-95883390D01*
X154428571Y-95883390D02*
X154476190Y-95978628D01*
X154476190Y-95978628D02*
X154476190Y-96264342D01*
X154476190Y-96264342D02*
X154428571Y-96359580D01*
X154428571Y-96359580D02*
X154380952Y-96407200D01*
X154380952Y-96407200D02*
X154285714Y-96454819D01*
X154285714Y-96454819D02*
X154142857Y-96454819D01*
X154761905Y-95788152D02*
X155142857Y-95788152D01*
X154904762Y-95454819D02*
X154904762Y-96311961D01*
X154904762Y-96311961D02*
X154952381Y-96407200D01*
X154952381Y-96407200D02*
X155047619Y-96454819D01*
X155047619Y-96454819D02*
X155142857Y-96454819D01*
X110714286Y-128050057D02*
X110761905Y-128002438D01*
X110761905Y-128002438D02*
X110857143Y-127954819D01*
X110857143Y-127954819D02*
X111095238Y-127954819D01*
X111095238Y-127954819D02*
X111190476Y-128002438D01*
X111190476Y-128002438D02*
X111238095Y-128050057D01*
X111238095Y-128050057D02*
X111285714Y-128145295D01*
X111285714Y-128145295D02*
X111285714Y-128240533D01*
X111285714Y-128240533D02*
X111238095Y-128383390D01*
X111238095Y-128383390D02*
X110666667Y-128954819D01*
X110666667Y-128954819D02*
X111285714Y-128954819D01*
X113402381Y-98062295D02*
X113859524Y-98062295D01*
X113630952Y-98862295D02*
X113630952Y-98062295D01*
X114050000Y-98062295D02*
X114583334Y-98862295D01*
X114583334Y-98062295D02*
X114050000Y-98862295D01*
X115345239Y-98786104D02*
X115307143Y-98824200D01*
X115307143Y-98824200D02*
X115192858Y-98862295D01*
X115192858Y-98862295D02*
X115116667Y-98862295D01*
X115116667Y-98862295D02*
X115002381Y-98824200D01*
X115002381Y-98824200D02*
X114926191Y-98748009D01*
X114926191Y-98748009D02*
X114888096Y-98671819D01*
X114888096Y-98671819D02*
X114850000Y-98519438D01*
X114850000Y-98519438D02*
X114850000Y-98405152D01*
X114850000Y-98405152D02*
X114888096Y-98252771D01*
X114888096Y-98252771D02*
X114926191Y-98176580D01*
X114926191Y-98176580D02*
X115002381Y-98100390D01*
X115002381Y-98100390D02*
X115116667Y-98062295D01*
X115116667Y-98062295D02*
X115192858Y-98062295D01*
X115192858Y-98062295D02*
X115307143Y-98100390D01*
X115307143Y-98100390D02*
X115345239Y-98138485D01*
X115650000Y-98633723D02*
X116030953Y-98633723D01*
X115573810Y-98862295D02*
X115840477Y-98062295D01*
X115840477Y-98062295D02*
X116107143Y-98862295D01*
X116373810Y-98557533D02*
X116983334Y-98557533D01*
X123826191Y-117112295D02*
X123826191Y-116312295D01*
X124283334Y-117112295D02*
X123940476Y-116655152D01*
X124283334Y-116312295D02*
X123826191Y-116769438D01*
X124892857Y-116693247D02*
X125007143Y-116731342D01*
X125007143Y-116731342D02*
X125045238Y-116769438D01*
X125045238Y-116769438D02*
X125083334Y-116845628D01*
X125083334Y-116845628D02*
X125083334Y-116959914D01*
X125083334Y-116959914D02*
X125045238Y-117036104D01*
X125045238Y-117036104D02*
X125007143Y-117074200D01*
X125007143Y-117074200D02*
X124930953Y-117112295D01*
X124930953Y-117112295D02*
X124626191Y-117112295D01*
X124626191Y-117112295D02*
X124626191Y-116312295D01*
X124626191Y-116312295D02*
X124892857Y-116312295D01*
X124892857Y-116312295D02*
X124969048Y-116350390D01*
X124969048Y-116350390D02*
X125007143Y-116388485D01*
X125007143Y-116388485D02*
X125045238Y-116464676D01*
X125045238Y-116464676D02*
X125045238Y-116540866D01*
X125045238Y-116540866D02*
X125007143Y-116617057D01*
X125007143Y-116617057D02*
X124969048Y-116655152D01*
X124969048Y-116655152D02*
X124892857Y-116693247D01*
X124892857Y-116693247D02*
X124626191Y-116693247D01*
X125426191Y-117112295D02*
X125426191Y-116312295D01*
X125426191Y-116312295D02*
X125616667Y-116312295D01*
X125616667Y-116312295D02*
X125730953Y-116350390D01*
X125730953Y-116350390D02*
X125807143Y-116426580D01*
X125807143Y-116426580D02*
X125845238Y-116502771D01*
X125845238Y-116502771D02*
X125883334Y-116655152D01*
X125883334Y-116655152D02*
X125883334Y-116769438D01*
X125883334Y-116769438D02*
X125845238Y-116921819D01*
X125845238Y-116921819D02*
X125807143Y-116998009D01*
X125807143Y-116998009D02*
X125730953Y-117074200D01*
X125730953Y-117074200D02*
X125616667Y-117112295D01*
X125616667Y-117112295D02*
X125426191Y-117112295D01*
X126378572Y-116312295D02*
X126530953Y-116312295D01*
X126530953Y-116312295D02*
X126607143Y-116350390D01*
X126607143Y-116350390D02*
X126683334Y-116426580D01*
X126683334Y-116426580D02*
X126721429Y-116578961D01*
X126721429Y-116578961D02*
X126721429Y-116845628D01*
X126721429Y-116845628D02*
X126683334Y-116998009D01*
X126683334Y-116998009D02*
X126607143Y-117074200D01*
X126607143Y-117074200D02*
X126530953Y-117112295D01*
X126530953Y-117112295D02*
X126378572Y-117112295D01*
X126378572Y-117112295D02*
X126302381Y-117074200D01*
X126302381Y-117074200D02*
X126226191Y-116998009D01*
X126226191Y-116998009D02*
X126188095Y-116845628D01*
X126188095Y-116845628D02*
X126188095Y-116578961D01*
X126188095Y-116578961D02*
X126226191Y-116426580D01*
X126226191Y-116426580D02*
X126302381Y-116350390D01*
X126302381Y-116350390D02*
X126378572Y-116312295D01*
X127064286Y-116807533D02*
X127673810Y-116807533D01*
X114721429Y-78307533D02*
X115330953Y-78307533D01*
X115026191Y-78612295D02*
X115026191Y-78002771D01*
X116092857Y-77812295D02*
X115711905Y-77812295D01*
X115711905Y-77812295D02*
X115673809Y-78193247D01*
X115673809Y-78193247D02*
X115711905Y-78155152D01*
X115711905Y-78155152D02*
X115788095Y-78117057D01*
X115788095Y-78117057D02*
X115978571Y-78117057D01*
X115978571Y-78117057D02*
X116054762Y-78155152D01*
X116054762Y-78155152D02*
X116092857Y-78193247D01*
X116092857Y-78193247D02*
X116130952Y-78269438D01*
X116130952Y-78269438D02*
X116130952Y-78459914D01*
X116130952Y-78459914D02*
X116092857Y-78536104D01*
X116092857Y-78536104D02*
X116054762Y-78574200D01*
X116054762Y-78574200D02*
X115978571Y-78612295D01*
X115978571Y-78612295D02*
X115788095Y-78612295D01*
X115788095Y-78612295D02*
X115711905Y-78574200D01*
X115711905Y-78574200D02*
X115673809Y-78536104D01*
X116359524Y-77812295D02*
X116626191Y-78612295D01*
X116626191Y-78612295D02*
X116892857Y-77812295D01*
X132289286Y-114273866D02*
X133051191Y-114273866D01*
X132670238Y-114654819D02*
X132670238Y-113892914D01*
X134003571Y-113654819D02*
X133527381Y-113654819D01*
X133527381Y-113654819D02*
X133479762Y-114131009D01*
X133479762Y-114131009D02*
X133527381Y-114083390D01*
X133527381Y-114083390D02*
X133622619Y-114035771D01*
X133622619Y-114035771D02*
X133860714Y-114035771D01*
X133860714Y-114035771D02*
X133955952Y-114083390D01*
X133955952Y-114083390D02*
X134003571Y-114131009D01*
X134003571Y-114131009D02*
X134051190Y-114226247D01*
X134051190Y-114226247D02*
X134051190Y-114464342D01*
X134051190Y-114464342D02*
X134003571Y-114559580D01*
X134003571Y-114559580D02*
X133955952Y-114607200D01*
X133955952Y-114607200D02*
X133860714Y-114654819D01*
X133860714Y-114654819D02*
X133622619Y-114654819D01*
X133622619Y-114654819D02*
X133527381Y-114607200D01*
X133527381Y-114607200D02*
X133479762Y-114559580D01*
X134336905Y-113654819D02*
X134670238Y-114654819D01*
X134670238Y-114654819D02*
X135003571Y-113654819D01*
X113402381Y-105812295D02*
X113859524Y-105812295D01*
X113630952Y-106612295D02*
X113630952Y-105812295D01*
X114050000Y-105812295D02*
X114583334Y-106612295D01*
X114583334Y-105812295D02*
X114050000Y-106612295D01*
X114888096Y-106612295D02*
X114888096Y-105812295D01*
X114888096Y-105812295D02*
X115078572Y-105812295D01*
X115078572Y-105812295D02*
X115192858Y-105850390D01*
X115192858Y-105850390D02*
X115269048Y-105926580D01*
X115269048Y-105926580D02*
X115307143Y-106002771D01*
X115307143Y-106002771D02*
X115345239Y-106155152D01*
X115345239Y-106155152D02*
X115345239Y-106269438D01*
X115345239Y-106269438D02*
X115307143Y-106421819D01*
X115307143Y-106421819D02*
X115269048Y-106498009D01*
X115269048Y-106498009D02*
X115192858Y-106574200D01*
X115192858Y-106574200D02*
X115078572Y-106612295D01*
X115078572Y-106612295D02*
X114888096Y-106612295D01*
X115650000Y-106383723D02*
X116030953Y-106383723D01*
X115573810Y-106612295D02*
X115840477Y-105812295D01*
X115840477Y-105812295D02*
X116107143Y-106612295D01*
X116373810Y-106307533D02*
X116983334Y-106307533D01*
X116678572Y-106612295D02*
X116678572Y-106002771D01*
X142859523Y-125054819D02*
X142859523Y-124054819D01*
X143430951Y-125054819D02*
X143002380Y-124483390D01*
X143430951Y-124054819D02*
X142859523Y-124626247D01*
X144240475Y-125007200D02*
X144145237Y-125054819D01*
X144145237Y-125054819D02*
X143954761Y-125054819D01*
X143954761Y-125054819D02*
X143859523Y-125007200D01*
X143859523Y-125007200D02*
X143811904Y-124911961D01*
X143811904Y-124911961D02*
X143811904Y-124531009D01*
X143811904Y-124531009D02*
X143859523Y-124435771D01*
X143859523Y-124435771D02*
X143954761Y-124388152D01*
X143954761Y-124388152D02*
X144145237Y-124388152D01*
X144145237Y-124388152D02*
X144240475Y-124435771D01*
X144240475Y-124435771D02*
X144288094Y-124531009D01*
X144288094Y-124531009D02*
X144288094Y-124626247D01*
X144288094Y-124626247D02*
X143811904Y-124721485D01*
X144621428Y-124388152D02*
X144859523Y-125054819D01*
X145097618Y-124388152D02*
X144859523Y-125054819D01*
X144859523Y-125054819D02*
X144764285Y-125292914D01*
X144764285Y-125292914D02*
X144716666Y-125340533D01*
X144716666Y-125340533D02*
X144621428Y-125388152D01*
X145478571Y-125054819D02*
X145478571Y-124054819D01*
X145478571Y-124435771D02*
X145573809Y-124388152D01*
X145573809Y-124388152D02*
X145764285Y-124388152D01*
X145764285Y-124388152D02*
X145859523Y-124435771D01*
X145859523Y-124435771D02*
X145907142Y-124483390D01*
X145907142Y-124483390D02*
X145954761Y-124578628D01*
X145954761Y-124578628D02*
X145954761Y-124864342D01*
X145954761Y-124864342D02*
X145907142Y-124959580D01*
X145907142Y-124959580D02*
X145859523Y-125007200D01*
X145859523Y-125007200D02*
X145764285Y-125054819D01*
X145764285Y-125054819D02*
X145573809Y-125054819D01*
X145573809Y-125054819D02*
X145478571Y-125007200D01*
X146526190Y-125054819D02*
X146430952Y-125007200D01*
X146430952Y-125007200D02*
X146383333Y-124959580D01*
X146383333Y-124959580D02*
X146335714Y-124864342D01*
X146335714Y-124864342D02*
X146335714Y-124578628D01*
X146335714Y-124578628D02*
X146383333Y-124483390D01*
X146383333Y-124483390D02*
X146430952Y-124435771D01*
X146430952Y-124435771D02*
X146526190Y-124388152D01*
X146526190Y-124388152D02*
X146669047Y-124388152D01*
X146669047Y-124388152D02*
X146764285Y-124435771D01*
X146764285Y-124435771D02*
X146811904Y-124483390D01*
X146811904Y-124483390D02*
X146859523Y-124578628D01*
X146859523Y-124578628D02*
X146859523Y-124864342D01*
X146859523Y-124864342D02*
X146811904Y-124959580D01*
X146811904Y-124959580D02*
X146764285Y-125007200D01*
X146764285Y-125007200D02*
X146669047Y-125054819D01*
X146669047Y-125054819D02*
X146526190Y-125054819D01*
X147716666Y-125054819D02*
X147716666Y-124531009D01*
X147716666Y-124531009D02*
X147669047Y-124435771D01*
X147669047Y-124435771D02*
X147573809Y-124388152D01*
X147573809Y-124388152D02*
X147383333Y-124388152D01*
X147383333Y-124388152D02*
X147288095Y-124435771D01*
X147716666Y-125007200D02*
X147621428Y-125054819D01*
X147621428Y-125054819D02*
X147383333Y-125054819D01*
X147383333Y-125054819D02*
X147288095Y-125007200D01*
X147288095Y-125007200D02*
X147240476Y-124911961D01*
X147240476Y-124911961D02*
X147240476Y-124816723D01*
X147240476Y-124816723D02*
X147288095Y-124721485D01*
X147288095Y-124721485D02*
X147383333Y-124673866D01*
X147383333Y-124673866D02*
X147621428Y-124673866D01*
X147621428Y-124673866D02*
X147716666Y-124626247D01*
X148192857Y-125054819D02*
X148192857Y-124388152D01*
X148192857Y-124578628D02*
X148240476Y-124483390D01*
X148240476Y-124483390D02*
X148288095Y-124435771D01*
X148288095Y-124435771D02*
X148383333Y-124388152D01*
X148383333Y-124388152D02*
X148478571Y-124388152D01*
X149240476Y-125054819D02*
X149240476Y-124054819D01*
X149240476Y-125007200D02*
X149145238Y-125054819D01*
X149145238Y-125054819D02*
X148954762Y-125054819D01*
X148954762Y-125054819D02*
X148859524Y-125007200D01*
X148859524Y-125007200D02*
X148811905Y-124959580D01*
X148811905Y-124959580D02*
X148764286Y-124864342D01*
X148764286Y-124864342D02*
X148764286Y-124578628D01*
X148764286Y-124578628D02*
X148811905Y-124483390D01*
X148811905Y-124483390D02*
X148859524Y-124435771D01*
X148859524Y-124435771D02*
X148954762Y-124388152D01*
X148954762Y-124388152D02*
X149145238Y-124388152D01*
X149145238Y-124388152D02*
X149240476Y-124435771D01*
D12*
X108000000Y-57874857D02*
X108000000Y-60017714D01*
X108000000Y-60017714D02*
X107857143Y-60446285D01*
X107857143Y-60446285D02*
X107571429Y-60732000D01*
X107571429Y-60732000D02*
X107142857Y-60874857D01*
X107142857Y-60874857D02*
X106857143Y-60874857D01*
X111000000Y-60874857D02*
X109285714Y-60874857D01*
X110142857Y-60874857D02*
X110142857Y-57874857D01*
X110142857Y-57874857D02*
X109857143Y-58303428D01*
X109857143Y-58303428D02*
X109571428Y-58589142D01*
X109571428Y-58589142D02*
X109285714Y-58732000D01*
D11*
X123945239Y-110812295D02*
X124097620Y-110812295D01*
X124097620Y-110812295D02*
X124173810Y-110850390D01*
X124173810Y-110850390D02*
X124250001Y-110926580D01*
X124250001Y-110926580D02*
X124288096Y-111078961D01*
X124288096Y-111078961D02*
X124288096Y-111345628D01*
X124288096Y-111345628D02*
X124250001Y-111498009D01*
X124250001Y-111498009D02*
X124173810Y-111574200D01*
X124173810Y-111574200D02*
X124097620Y-111612295D01*
X124097620Y-111612295D02*
X123945239Y-111612295D01*
X123945239Y-111612295D02*
X123869048Y-111574200D01*
X123869048Y-111574200D02*
X123792858Y-111498009D01*
X123792858Y-111498009D02*
X123754762Y-111345628D01*
X123754762Y-111345628D02*
X123754762Y-111078961D01*
X123754762Y-111078961D02*
X123792858Y-110926580D01*
X123792858Y-110926580D02*
X123869048Y-110850390D01*
X123869048Y-110850390D02*
X123945239Y-110812295D01*
X124630953Y-111612295D02*
X124630953Y-110812295D01*
X124630953Y-110812295D02*
X125088096Y-111612295D01*
X125088096Y-111612295D02*
X125088096Y-110812295D01*
X125735714Y-111193247D02*
X125850000Y-111231342D01*
X125850000Y-111231342D02*
X125888095Y-111269438D01*
X125888095Y-111269438D02*
X125926191Y-111345628D01*
X125926191Y-111345628D02*
X125926191Y-111459914D01*
X125926191Y-111459914D02*
X125888095Y-111536104D01*
X125888095Y-111536104D02*
X125850000Y-111574200D01*
X125850000Y-111574200D02*
X125773810Y-111612295D01*
X125773810Y-111612295D02*
X125469048Y-111612295D01*
X125469048Y-111612295D02*
X125469048Y-110812295D01*
X125469048Y-110812295D02*
X125735714Y-110812295D01*
X125735714Y-110812295D02*
X125811905Y-110850390D01*
X125811905Y-110850390D02*
X125850000Y-110888485D01*
X125850000Y-110888485D02*
X125888095Y-110964676D01*
X125888095Y-110964676D02*
X125888095Y-111040866D01*
X125888095Y-111040866D02*
X125850000Y-111117057D01*
X125850000Y-111117057D02*
X125811905Y-111155152D01*
X125811905Y-111155152D02*
X125735714Y-111193247D01*
X125735714Y-111193247D02*
X125469048Y-111193247D01*
X126269048Y-111612295D02*
X126269048Y-110812295D01*
X126650000Y-111612295D02*
X126650000Y-110812295D01*
X126650000Y-110812295D02*
X127107143Y-111612295D01*
X127107143Y-111612295D02*
X127107143Y-110812295D01*
X127373809Y-110812295D02*
X127830952Y-110812295D01*
X127602380Y-111612295D02*
X127602380Y-110812295D01*
X128097619Y-111307533D02*
X128707143Y-111307533D01*
X128402381Y-111612295D02*
X128402381Y-111002771D01*
D10*
X125925000Y-62710000D02*
X125925000Y-64950000D01*
X125925000Y-64950000D02*
X127925000Y-64950000D01*
X126165000Y-55590000D02*
X126165000Y-64710000D01*
X126165000Y-55590000D02*
X141285000Y-55590000D01*
X126165000Y-57650000D02*
X141285000Y-57650000D01*
X126165000Y-62650000D02*
X141285000Y-62650000D01*
X126165000Y-64710000D02*
X141285000Y-64710000D01*
X136295000Y-61126000D02*
X136201000Y-61219000D01*
X136465000Y-61366000D02*
X136406000Y-61424000D01*
X138545000Y-58875000D02*
X138486000Y-58934000D01*
X138750000Y-59081000D02*
X138656000Y-59174000D01*
X141285000Y-55590000D02*
X141285000Y-64710000D01*
X128491047Y-60939089D02*
G75*
G02*
X128491000Y-59361000I1483948J789089D01*
G01*
X129185911Y-58666047D02*
G75*
G02*
X130764000Y-58666000I789089J-1483948D01*
G01*
X130004383Y-61830450D02*
G75*
G02*
X129186000Y-61634000I-29385J1680445D01*
G01*
X130763712Y-61633352D02*
G75*
G02*
X129975000Y-61830000I-788712J1483352D01*
G01*
X131458953Y-59360911D02*
G75*
G02*
X131459000Y-60939000I-1483953J-789089D01*
G01*
X139155000Y-60150000D02*
G75*
G02*
X135795000Y-60150000I-1680000J0D01*
G01*
X135795000Y-60150000D02*
G75*
G02*
X139155000Y-60150000I1680000J0D01*
G01*
X117630000Y-127830000D02*
X117630000Y-64210000D01*
X120230000Y-125230000D02*
X120230000Y-127830000D01*
X120230000Y-127830000D02*
X117630000Y-127830000D01*
X122830000Y-64210000D02*
X117630000Y-64210000D01*
X122830000Y-125230000D02*
X120230000Y-125230000D01*
X122830000Y-125230000D02*
X122830000Y-64210000D01*
X122830000Y-126500000D02*
X122830000Y-127830000D01*
X122830000Y-127830000D02*
X121500000Y-127830000D01*
X148880000Y-91530000D02*
X148880000Y-93129000D01*
X148880000Y-91530000D02*
X152745000Y-91530000D01*
X148880000Y-94871000D02*
X148880000Y-95630000D01*
X148880000Y-97371000D02*
X148880000Y-98130000D01*
X148880000Y-99870000D02*
X148880000Y-101470000D01*
X148880000Y-101470000D02*
X152745000Y-101470000D01*
X157255000Y-91530000D02*
X161120000Y-91530000D01*
X157255000Y-101470000D02*
X161120000Y-101470000D01*
X161120000Y-91530000D02*
X161120000Y-101470000D01*
X137375000Y-120610000D02*
X137375000Y-122850000D01*
X137375000Y-122850000D02*
X139375000Y-122850000D01*
X137615000Y-113490000D02*
X137615000Y-122610000D01*
X137615000Y-113490000D02*
X152735000Y-113490000D01*
X137615000Y-115550000D02*
X152735000Y-115550000D01*
X137615000Y-120550000D02*
X152735000Y-120550000D01*
X137615000Y-122610000D02*
X152735000Y-122610000D01*
X147745000Y-119026000D02*
X147651000Y-119119000D01*
X147915000Y-119266000D02*
X147856000Y-119324000D01*
X149995000Y-116775000D02*
X149936000Y-116834000D01*
X150200000Y-116981000D02*
X150106000Y-117074000D01*
X152735000Y-113490000D02*
X152735000Y-122610000D01*
X139941047Y-118839089D02*
G75*
G02*
X139941000Y-117261000I1483948J789089D01*
G01*
X140635911Y-116566047D02*
G75*
G02*
X142214000Y-116566000I789089J-1483948D01*
G01*
X141454383Y-119730450D02*
G75*
G02*
X140636000Y-119534000I-29385J1680445D01*
G01*
X142213712Y-119533352D02*
G75*
G02*
X141425000Y-119730000I-788712J1483352D01*
G01*
X142908953Y-117260911D02*
G75*
G02*
X142909000Y-118839000I-1483953J-789089D01*
G01*
X150605000Y-118050000D02*
G75*
G02*
X147245000Y-118050000I-1680000J0D01*
G01*
X147245000Y-118050000D02*
G75*
G02*
X150605000Y-118050000I1680000J0D01*
G01*
X146705000Y-86670000D02*
X146705000Y-89330000D01*
X149305000Y-86670000D02*
X146705000Y-86670000D01*
X149305000Y-86670000D02*
X149305000Y-89330000D01*
X149305000Y-89330000D02*
X146705000Y-89330000D01*
X150575000Y-86670000D02*
X151905000Y-86670000D01*
X151905000Y-86670000D02*
X151905000Y-88000000D01*
X123965000Y-133520000D02*
X123965000Y-133364000D01*
X123965000Y-135836000D02*
X123965000Y-135680000D01*
X120732665Y-133521392D02*
G75*
G02*
X123965000Y-133364484I1672335J-1078608D01*
G01*
X121363870Y-133520163D02*
G75*
G02*
X123445961Y-133520000I1041130J-1079837D01*
G01*
X123445961Y-135680000D02*
G75*
G02*
X121363870Y-135679837I-1040961J1080000D01*
G01*
X123965000Y-135835516D02*
G75*
G02*
X120732665Y-135678608I-1560000J1235516D01*
G01*
X145150000Y-71300000D02*
X145150000Y-66000000D01*
X145162400Y-56941600D02*
X145150000Y-63100000D01*
X161950000Y-71300000D02*
X145150000Y-71300000D01*
X161950000Y-71300000D02*
X161950000Y-66000000D01*
X161962400Y-56941600D02*
X145162400Y-56941600D01*
X161962400Y-56941600D02*
X161950000Y-63100000D01*
X162000000Y-67000000D02*
X162500000Y-67500000D01*
X162500000Y-66500000D02*
X162000000Y-67000000D01*
X162500000Y-67500000D02*
X162500000Y-66500000D01*
X132805000Y-67545000D02*
X132805000Y-70205000D01*
X135405000Y-67545000D02*
X132805000Y-67545000D01*
X135405000Y-67545000D02*
X135405000Y-70205000D01*
X135405000Y-70205000D02*
X132805000Y-70205000D01*
X136675000Y-67545000D02*
X138005000Y-67545000D01*
X138005000Y-67545000D02*
X138005000Y-68875000D01*
X123680000Y-125480000D02*
X123680001Y-129320000D01*
X123680001Y-129320000D02*
X125520000Y-129320001D01*
X124600000Y-124530000D02*
X124600000Y-125480000D01*
X124600000Y-130270000D02*
X124600000Y-129320000D01*
X125520000Y-125480000D02*
X123680000Y-125480000D01*
X125520000Y-129320001D02*
X125520000Y-125480000D01*
X129625000Y-72975000D02*
X132345000Y-72975000D01*
X129625000Y-85275000D02*
X129625000Y-72975000D01*
X132345000Y-85275000D02*
X129625000Y-85275000D01*
X134205000Y-72975000D02*
X137345000Y-72975000D01*
X137345000Y-85275000D02*
X134205000Y-85275000D01*
X139205000Y-72975000D02*
X141925000Y-72975000D01*
X141925000Y-72975000D02*
X141925000Y-85275000D01*
X141925000Y-85275000D02*
X139205000Y-85275000D01*
X140314050Y-79225000D02*
G75*
G02*
X131155950Y-79225000I-4579050J0D01*
G01*
X131155950Y-79225000D02*
G75*
G02*
X140314050Y-79225000I4579050J0D01*
G01*
X130200000Y-125634669D02*
X161170000Y-125634669D01*
X130200000Y-137974669D02*
X130200000Y-125634669D01*
X150975000Y-124740331D02*
X151475000Y-124740331D01*
X151225000Y-125173344D02*
X150975000Y-124740331D01*
X151475000Y-124740331D02*
X151225000Y-125173344D01*
X161170000Y-125634669D02*
X161170000Y-137974669D01*
X163245662Y-106750000D02*
X163678675Y-107000000D01*
X163245662Y-107250000D02*
X163245662Y-106750000D01*
X163678675Y-107000000D02*
X163245662Y-107250000D01*
X164140000Y-97055000D02*
X176480000Y-97055000D01*
X164140000Y-128025000D02*
X164140000Y-97055000D01*
X176480000Y-128025000D02*
X164140000Y-128025000D01*
X163245662Y-73750000D02*
X163678675Y-74000000D01*
X163245662Y-74250000D02*
X163245662Y-73750000D01*
X163678675Y-74000000D02*
X163245662Y-74250000D01*
X164140000Y-64055000D02*
X176480000Y-64055000D01*
X164140000Y-95025000D02*
X164140000Y-64055000D01*
X176480000Y-95025000D02*
X164140000Y-95025000D01*
X129295000Y-107730000D02*
X130625000Y-107730000D01*
X129295000Y-109060000D02*
X129295000Y-107730000D01*
X129295000Y-110330000D02*
X129295000Y-115470000D01*
X129295000Y-110330000D02*
X131955000Y-110330000D01*
X129295000Y-115470000D02*
X131955000Y-115470000D01*
X131955000Y-110330000D02*
X131955000Y-115470000D01*
%LPC*%
D13*
X129975000Y-60150000D03*
D14*
X137475000Y-60150000D03*
D15*
X171000000Y-59000000D03*
D16*
X121500000Y-126500000D03*
D17*
X118960000Y-126500000D03*
X121500000Y-123960000D03*
X118960000Y-123960000D03*
X121500000Y-121420000D03*
X118960000Y-121420000D03*
X121500000Y-118880000D03*
X118960000Y-118880000D03*
X121500000Y-116340000D03*
X118960000Y-116340000D03*
X121500000Y-113800000D03*
X118960000Y-113800000D03*
X121500000Y-111260000D03*
X118960000Y-111260000D03*
X121500000Y-108720000D03*
X118960000Y-108720000D03*
X121500000Y-106180000D03*
X118960000Y-106180000D03*
X121500000Y-103640000D03*
X118960000Y-103640000D03*
X121500000Y-101100000D03*
X118960000Y-101100000D03*
X121500000Y-98560000D03*
X118960000Y-98560000D03*
X121500000Y-96020000D03*
X118960000Y-96020000D03*
X121500000Y-93480000D03*
X118960000Y-93480000D03*
X121500000Y-90940000D03*
X118960000Y-90940000D03*
X121500000Y-88400000D03*
X118960000Y-88400000D03*
X121500000Y-85860000D03*
X118960000Y-85860000D03*
X121500000Y-83320000D03*
X118960000Y-83320000D03*
X121500000Y-80780000D03*
X118960000Y-80780000D03*
X121500000Y-78240000D03*
X118960000Y-78240000D03*
X121500000Y-75700000D03*
X118960000Y-75700000D03*
X121500000Y-73160000D03*
X118960000Y-73160000D03*
X121500000Y-70620000D03*
X118960000Y-70620000D03*
X121500000Y-68080000D03*
X118960000Y-68080000D03*
X121500000Y-65540000D03*
X118960000Y-65540000D03*
D18*
X155000000Y-92100000D03*
X155000000Y-100900000D03*
D19*
X148000000Y-99000000D03*
X148000000Y-96500000D03*
X148000000Y-94000000D03*
D15*
X115000000Y-59000000D03*
D13*
X141425000Y-118050000D03*
D14*
X148925000Y-118050000D03*
D20*
X150575000Y-88000000D03*
D17*
X148035000Y-88000000D03*
D21*
X123675000Y-134600000D03*
D19*
X121135000Y-134600000D03*
D22*
X155840000Y-67000000D03*
D23*
X157110000Y-69540000D03*
X153840000Y-67000000D03*
X155110000Y-69540000D03*
X151840000Y-67000000D03*
X153110000Y-69540000D03*
X149840000Y-67000000D03*
X151110000Y-69540000D03*
D24*
X161329000Y-64536200D03*
X145781000Y-64536200D03*
D15*
X171000000Y-133000000D03*
X115000000Y-133000000D03*
D20*
X136675000Y-68875000D03*
D17*
X134135000Y-68875000D03*
D25*
X124600000Y-123590000D03*
D26*
X124600000Y-131210000D03*
D17*
X108460000Y-126500000D03*
D16*
X111000000Y-126500000D03*
D17*
X108460000Y-123960000D03*
X111000000Y-123960000D03*
X108460000Y-121420000D03*
X111000000Y-121420000D03*
X108460000Y-118880000D03*
X111000000Y-118880000D03*
X108460000Y-116340000D03*
X111000000Y-116340000D03*
X108460000Y-113800000D03*
X111000000Y-113800000D03*
X108460000Y-111260000D03*
X111000000Y-111260000D03*
X108460000Y-108720000D03*
X111000000Y-108720000D03*
X108460000Y-106180000D03*
X111000000Y-106180000D03*
X108460000Y-103640000D03*
X111000000Y-103640000D03*
X108460000Y-101100000D03*
X111000000Y-101100000D03*
X108460000Y-98560000D03*
X111000000Y-98560000D03*
X108460000Y-96020000D03*
X111000000Y-96020000D03*
X108460000Y-93480000D03*
X111000000Y-93480000D03*
X108460000Y-90940000D03*
X111000000Y-90940000D03*
X108460000Y-88400000D03*
X111000000Y-88400000D03*
X108460000Y-85860000D03*
X111000000Y-85860000D03*
X108460000Y-83320000D03*
X111000000Y-83320000D03*
X108460000Y-80780000D03*
X111000000Y-80780000D03*
X108460000Y-78240000D03*
X111000000Y-78240000D03*
X108460000Y-75700000D03*
X111000000Y-75700000D03*
X108460000Y-73160000D03*
X111000000Y-73160000D03*
X108460000Y-70620000D03*
X111000000Y-70620000D03*
X108460000Y-68080000D03*
X111000000Y-68080000D03*
X108460000Y-65540000D03*
X111000000Y-65540000D03*
D27*
X138275000Y-72875000D03*
X138275000Y-85375000D03*
X133275000Y-72875000D03*
X133275000Y-85375000D03*
D18*
X133185000Y-128914669D03*
X158185000Y-128914669D03*
D28*
X151225000Y-127494669D03*
D29*
X148455000Y-127494669D03*
X145685000Y-127494669D03*
X142915000Y-127494669D03*
X140145000Y-127494669D03*
X149840000Y-130334669D03*
X147070000Y-130334669D03*
X144300000Y-130334669D03*
X141530000Y-130334669D03*
D18*
X167420000Y-125040000D03*
X167420000Y-100040000D03*
D28*
X166000000Y-107000000D03*
D29*
X166000000Y-109770000D03*
X166000000Y-112540000D03*
X166000000Y-115310000D03*
X166000000Y-118080000D03*
X168840000Y-108385000D03*
X168840000Y-111155000D03*
X168840000Y-113925000D03*
X168840000Y-116695000D03*
D18*
X167420000Y-92040000D03*
X167420000Y-67040000D03*
D28*
X166000000Y-74000000D03*
D29*
X166000000Y-76770000D03*
X166000000Y-79540000D03*
X166000000Y-82310000D03*
X166000000Y-85080000D03*
X168840000Y-75385000D03*
X168840000Y-78155000D03*
X168840000Y-80925000D03*
X168840000Y-83695000D03*
D20*
X130625000Y-109060000D03*
D17*
X130625000Y-111600000D03*
X130625000Y-114140000D03*
D30*
X126950000Y-98250000D03*
X158850000Y-106450000D03*
X159300000Y-114000000D03*
X163350000Y-116700000D03*
X159264834Y-105450000D03*
X161225000Y-104625000D03*
X161550000Y-111000000D03*
X142262647Y-66487327D03*
X148500000Y-65000000D03*
X144250078Y-67500000D03*
X147750010Y-67000000D03*
X162337347Y-116712653D03*
X158500000Y-109150000D03*
X124750000Y-104500000D03*
X124750000Y-105750000D03*
X124750000Y-103000000D03*
X160550000Y-111000000D03*
X160500000Y-107300000D03*
X124750000Y-101974680D03*
%LPD*%
M02*
