M48
; DRILL file {KiCad 8.0.3} date 2025-12-30T10:32:46+1300
; FORMAT={-:-/ absolute / metric / decimal}
; #@! TF.CreationDate,2025-12-30T10:32:46+13:00
; #@! TF.GenerationSoftware,Kicad,Pcbnew,8.0.3
; #@! TF.FileFunction,Plated,1,2,PTH
FMAT,2
METRIC
; #@! TA.AperFunction,Plated,PTH,ViaDrill
T1C0.400
; #@! TA.AperFunction,Plated,PTH,ComponentDrill
T2C0.700
; #@! TA.AperFunction,Plated,PTH,ComponentDrill
T3C0.889
; #@! TA.AperFunction,Plated,PTH,ComponentDrill
T4C0.900
; #@! TA.AperFunction,Plated,PTH,ComponentDrill
T5C1.000
; #@! TA.AperFunction,Plated,PTH,ComponentDrill
T6C1.300
; #@! TA.AperFunction,Plated,PTH,ComponentDrill
T7C1.651
; #@! TA.AperFunction,Plated,PTH,ComponentDrill
T8C3.200
%
G90
G05
T1
X124.75Y-101.975
X124.75Y-103.0
X124.75Y-104.5
X124.75Y-105.75
X126.95Y-98.25
X142.263Y-66.487
X144.25Y-67.5
X147.75Y-67.0
X148.5Y-65.0
X158.5Y-109.15
X158.85Y-106.45
X159.265Y-105.45
X159.3Y-114.0
X160.5Y-107.3
X160.55Y-111.0
X161.225Y-104.625
X161.55Y-111.0
X162.337Y-116.713
X163.35Y-116.7
T2
X124.6Y-123.59
X124.6Y-131.21
T3
X149.84Y-67.0
X151.11Y-69.54
X151.84Y-67.0
X153.11Y-69.54
X153.84Y-67.0
X155.11Y-69.54
X155.84Y-67.0
X157.11Y-69.54
T4
X121.135Y-134.6
X123.675Y-134.6
T5
X108.46Y-65.54
X108.46Y-68.08
X108.46Y-70.62
X108.46Y-73.16
X108.46Y-75.7
X108.46Y-78.24
X108.46Y-80.78
X108.46Y-83.32
X108.46Y-85.86
X108.46Y-88.4
X108.46Y-90.94
X108.46Y-93.48
X108.46Y-96.02
X108.46Y-98.56
X108.46Y-101.1
X108.46Y-103.64
X108.46Y-106.18
X108.46Y-108.72
X108.46Y-111.26
X108.46Y-113.8
X108.46Y-116.34
X108.46Y-118.88
X108.46Y-121.42
X108.46Y-123.96
X108.46Y-126.5
X111.0Y-65.54
X111.0Y-68.08
X111.0Y-70.62
X111.0Y-73.16
X111.0Y-75.7
X111.0Y-78.24
X111.0Y-80.78
X111.0Y-83.32
X111.0Y-85.86
X111.0Y-88.4
X111.0Y-90.94
X111.0Y-93.48
X111.0Y-96.02
X111.0Y-98.56
X111.0Y-101.1
X111.0Y-103.64
X111.0Y-106.18
X111.0Y-108.72
X111.0Y-111.26
X111.0Y-113.8
X111.0Y-116.34
X111.0Y-118.88
X111.0Y-121.42
X111.0Y-123.96
X111.0Y-126.5
X118.96Y-65.54
X118.96Y-68.08
X118.96Y-70.62
X118.96Y-73.16
X118.96Y-75.7
X118.96Y-78.24
X118.96Y-80.78
X118.96Y-83.32
X118.96Y-85.86
X118.96Y-88.4
X118.96Y-90.94
X118.96Y-93.48
X118.96Y-96.02
X118.96Y-98.56
X118.96Y-101.1
X118.96Y-103.64
X118.96Y-106.18
X118.96Y-108.72
X118.96Y-111.26
X118.96Y-113.8
X118.96Y-116.34
X118.96Y-118.88
X118.96Y-121.42
X118.96Y-123.96
X118.96Y-126.5
X121.5Y-65.54
X121.5Y-68.08
X121.5Y-70.62
X121.5Y-73.16
X121.5Y-75.7
X121.5Y-78.24
X121.5Y-80.78
X121.5Y-83.32
X121.5Y-85.86
X121.5Y-88.4
X121.5Y-90.94
X121.5Y-93.48
X121.5Y-96.02
X121.5Y-98.56
X121.5Y-101.1
X121.5Y-103.64
X121.5Y-106.18
X121.5Y-108.72
X121.5Y-111.26
X121.5Y-113.8
X121.5Y-116.34
X121.5Y-118.88
X121.5Y-121.42
X121.5Y-123.96
X121.5Y-126.5
X130.625Y-109.06
X130.625Y-111.6
X130.625Y-114.14
X134.135Y-68.875
X136.675Y-68.875
X140.145Y-127.495
X141.53Y-130.335
X142.915Y-127.495
X144.3Y-130.335
X145.685Y-127.495
X147.07Y-130.335
X148.0Y-94.0
X148.0Y-96.5
X148.0Y-99.0
X148.035Y-88.0
X148.455Y-127.495
X149.84Y-130.335
X150.575Y-88.0
X151.225Y-127.495
X166.0Y-74.0
X166.0Y-76.77
X166.0Y-79.54
X166.0Y-82.31
X166.0Y-85.08
X166.0Y-107.0
X166.0Y-109.77
X166.0Y-112.54
X166.0Y-115.31
X166.0Y-118.08
X168.84Y-75.385
X168.84Y-78.155
X168.84Y-80.925
X168.84Y-83.695
X168.84Y-108.385
X168.84Y-111.155
X168.84Y-113.925
X168.84Y-116.695
T6
X129.975Y-60.15
X133.275Y-72.875
X133.275Y-85.375
X137.475Y-60.15
X138.275Y-72.875
X138.275Y-85.375
X141.425Y-118.05
X148.925Y-118.05
T7
X145.781Y-64.536
X161.329Y-64.536
T8
X133.185Y-128.915
X158.185Y-128.915
X167.42Y-67.04
X167.42Y-92.04
X167.42Y-100.04
X167.42Y-125.04
M30
