G04 #@! TF.GenerationSoftware,KiCad,Pcbnew,8.0.3*
G04 #@! TF.CreationDate,2025-12-30T10:32:39+13:00*
G04 #@! TF.ProjectId,AWS_CPU_Interface_Board,4157535f-4350-4555-9f49-6e7465726661,rev?*
G04 #@! TF.SameCoordinates,Original*
G04 #@! TF.FileFunction,Soldermask,Top*
G04 #@! TF.FilePolarity,Negative*
%FSLAX46Y46*%
G04 Gerber Fmt 4.6, Leading zero omitted, Abs format (unit mm)*
G04 Created by KiCad (PCBNEW 8.0.3) date 2025-12-30 10:32:39*
%MOMM*%
%LPD*%
G01*
G04 APERTURE LIST*
%ADD10R,2.500000X2.500000*%
%ADD11C,2.500000*%
%ADD12C,8.000000*%
%ADD13C,1.700000*%
%ADD14O,1.700000X1.700000*%
%ADD15C,4.000000*%
%ADD16C,1.800000*%
%ADD17R,1.700000X1.700000*%
%ADD18R,1.800000X1.800000*%
%ADD19R,1.778000X1.778000*%
%ADD20C,1.778000*%
%ADD21C,2.540000*%
%ADD22C,1.400000*%
%ADD23O,1.400000X1.400000*%
%ADD24O,1.850000X3.048000*%
%ADD25R,1.600000X1.600000*%
%ADD26C,1.600000*%
%ADD27C,0.800000*%
G04 APERTURE END LIST*
D10*
X129975000Y-60150000D03*
D11*
X137475000Y-60150000D03*
D12*
X171000000Y-59000000D03*
D13*
X121500000Y-126500000D03*
D14*
X118960000Y-126500000D03*
X121500000Y-123960000D03*
X118960000Y-123960000D03*
X121500000Y-121420000D03*
X118960000Y-121420000D03*
X121500000Y-118880000D03*
X118960000Y-118880000D03*
X121500000Y-116340000D03*
X118960000Y-116340000D03*
X121500000Y-113800000D03*
X118960000Y-113800000D03*
X121500000Y-111260000D03*
X118960000Y-111260000D03*
X121500000Y-108720000D03*
X118960000Y-108720000D03*
X121500000Y-106180000D03*
X118960000Y-106180000D03*
X121500000Y-103640000D03*
X118960000Y-103640000D03*
X121500000Y-101100000D03*
X118960000Y-101100000D03*
X121500000Y-98560000D03*
X118960000Y-98560000D03*
X121500000Y-96020000D03*
X118960000Y-96020000D03*
X121500000Y-93480000D03*
X118960000Y-93480000D03*
X121500000Y-90940000D03*
X118960000Y-90940000D03*
X121500000Y-88400000D03*
X118960000Y-88400000D03*
X121500000Y-85860000D03*
X118960000Y-85860000D03*
X121500000Y-83320000D03*
X118960000Y-83320000D03*
X121500000Y-80780000D03*
X118960000Y-80780000D03*
X121500000Y-78240000D03*
X118960000Y-78240000D03*
X121500000Y-75700000D03*
X118960000Y-75700000D03*
X121500000Y-73160000D03*
X118960000Y-73160000D03*
X121500000Y-70620000D03*
X118960000Y-70620000D03*
X121500000Y-68080000D03*
X118960000Y-68080000D03*
X121500000Y-65540000D03*
X118960000Y-65540000D03*
D15*
X155000000Y-92100000D03*
X155000000Y-100900000D03*
D16*
X148000000Y-99000000D03*
X148000000Y-96500000D03*
X148000000Y-94000000D03*
D12*
X115000000Y-59000000D03*
D10*
X141425000Y-118050000D03*
D11*
X148925000Y-118050000D03*
D17*
X150575000Y-88000000D03*
D14*
X148035000Y-88000000D03*
D18*
X123675000Y-134600000D03*
D16*
X121135000Y-134600000D03*
D19*
X155840000Y-67000000D03*
D20*
X157110000Y-69540000D03*
X153840000Y-67000000D03*
X155110000Y-69540000D03*
X151840000Y-67000000D03*
X153110000Y-69540000D03*
X149840000Y-67000000D03*
X151110000Y-69540000D03*
D21*
X161329000Y-64536200D03*
X145781000Y-64536200D03*
D12*
X171000000Y-133000000D03*
X115000000Y-133000000D03*
D17*
X136675000Y-68875000D03*
D14*
X134135000Y-68875000D03*
D22*
X124600000Y-123590000D03*
D23*
X124600000Y-131210000D03*
D14*
X108460000Y-126500000D03*
D13*
X111000000Y-126500000D03*
D14*
X108460000Y-123960000D03*
X111000000Y-123960000D03*
X108460000Y-121420000D03*
X111000000Y-121420000D03*
X108460000Y-118880000D03*
X111000000Y-118880000D03*
X108460000Y-116340000D03*
X111000000Y-116340000D03*
X108460000Y-113800000D03*
X111000000Y-113800000D03*
X108460000Y-111260000D03*
X111000000Y-111260000D03*
X108460000Y-108720000D03*
X111000000Y-108720000D03*
X108460000Y-106180000D03*
X111000000Y-106180000D03*
X108460000Y-103640000D03*
X111000000Y-103640000D03*
X108460000Y-101100000D03*
X111000000Y-101100000D03*
X108460000Y-98560000D03*
X111000000Y-98560000D03*
X108460000Y-96020000D03*
X111000000Y-96020000D03*
X108460000Y-93480000D03*
X111000000Y-93480000D03*
X108460000Y-90940000D03*
X111000000Y-90940000D03*
X108460000Y-88400000D03*
X111000000Y-88400000D03*
X108460000Y-85860000D03*
X111000000Y-85860000D03*
X108460000Y-83320000D03*
X111000000Y-83320000D03*
X108460000Y-80780000D03*
X111000000Y-80780000D03*
X108460000Y-78240000D03*
X111000000Y-78240000D03*
X108460000Y-75700000D03*
X111000000Y-75700000D03*
X108460000Y-73160000D03*
X111000000Y-73160000D03*
X108460000Y-70620000D03*
X111000000Y-70620000D03*
X108460000Y-68080000D03*
X111000000Y-68080000D03*
X108460000Y-65540000D03*
X111000000Y-65540000D03*
D24*
X138275000Y-72875000D03*
X138275000Y-85375000D03*
X133275000Y-72875000D03*
X133275000Y-85375000D03*
D15*
X133185000Y-128914669D03*
X158185000Y-128914669D03*
D25*
X151225000Y-127494669D03*
D26*
X148455000Y-127494669D03*
X145685000Y-127494669D03*
X142915000Y-127494669D03*
X140145000Y-127494669D03*
X149840000Y-130334669D03*
X147070000Y-130334669D03*
X144300000Y-130334669D03*
X141530000Y-130334669D03*
D15*
X167420000Y-125040000D03*
X167420000Y-100040000D03*
D25*
X166000000Y-107000000D03*
D26*
X166000000Y-109770000D03*
X166000000Y-112540000D03*
X166000000Y-115310000D03*
X166000000Y-118080000D03*
X168840000Y-108385000D03*
X168840000Y-111155000D03*
X168840000Y-113925000D03*
X168840000Y-116695000D03*
D15*
X167420000Y-92040000D03*
X167420000Y-67040000D03*
D25*
X166000000Y-74000000D03*
D26*
X166000000Y-76770000D03*
X166000000Y-79540000D03*
X166000000Y-82310000D03*
X166000000Y-85080000D03*
X168840000Y-75385000D03*
X168840000Y-78155000D03*
X168840000Y-80925000D03*
X168840000Y-83695000D03*
D17*
X130625000Y-109060000D03*
D14*
X130625000Y-111600000D03*
X130625000Y-114140000D03*
D27*
X126950000Y-98250000D03*
X158850000Y-106450000D03*
X159300000Y-114000000D03*
X163350000Y-116700000D03*
X159264834Y-105450000D03*
X161225000Y-104625000D03*
X161550000Y-111000000D03*
X142262647Y-66487327D03*
X148500000Y-65000000D03*
X144250078Y-67500000D03*
X147750010Y-67000000D03*
X162337347Y-116712653D03*
X158500000Y-109150000D03*
X124750000Y-104500000D03*
X124750000Y-105750000D03*
X124750000Y-103000000D03*
X160550000Y-111000000D03*
X160500000Y-107300000D03*
X124750000Y-101974680D03*
M02*
