%TF.GenerationSoftware,KiCad,Pcbnew,9.0.4*%
%TF.CreationDate,2025-11-09T10:18:35+13:00*%
%TF.ProjectId,AWS_CPU_Jumper,4157535f-4350-4555-9f4a-756d7065722e,rev?*%
%TF.SameCoordinates,Original*%
%TF.FileFunction,Copper,L2,Bot*%
%TF.FilePolarity,Positive*%
%FSLAX46Y46*%
G04 Gerber Fmt 4.6, Leading zero omitted, Abs format (unit mm)*
G04 Created by KiCad (PCBNEW 9.0.4) date 2025-11-09 10:18:35*
%MOMM*%
%LPD*%
G01*
G04 APERTURE LIST*
G04 Aperture macros list*
%AMFreePoly0*
4,1,23,0.550000,-0.750000,0.000000,-0.750000,0.000000,-0.745722,-0.065263,-0.745722,-0.191342,-0.711940,-0.304381,-0.646677,-0.396677,-0.554381,-0.461940,-0.441342,-0.495722,-0.315263,-0.495722,-0.250000,-0.500000,-0.250000,-0.500000,0.250000,-0.495722,0.250000,-0.495722,0.315263,-0.461940,0.441342,-0.396677,0.554381,-0.304381,0.646677,-0.191342,0.711940,-0.065263,0.745722,0.000000,0.745722,
0.000000,0.750000,0.550000,0.750000,0.550000,-0.750000,0.550000,-0.750000,$1*%
%AMFreePoly1*
4,1,23,0.000000,0.745722,0.065263,0.745722,0.191342,0.711940,0.304381,0.646677,0.396677,0.554381,0.461940,0.441342,0.495722,0.315263,0.495722,0.250000,0.500000,0.250000,0.500000,-0.250000,0.495722,-0.250000,0.495722,-0.315263,0.461940,-0.441342,0.396677,-0.554381,0.304381,-0.646677,0.191342,-0.711940,0.065263,-0.745722,0.000000,-0.745722,0.000000,-0.750000,-0.550000,-0.750000,
-0.550000,0.750000,0.000000,0.750000,0.000000,0.745722,0.000000,0.745722,$1*%
G04 Aperture macros list end*
%TA.AperFunction,ComponentPad*%
%ADD10C,1.700000*%
%TD*%
%TA.AperFunction,ComponentPad*%
%ADD11R,1.700000X1.700000*%
%TD*%
%TA.AperFunction,SMDPad,CuDef*%
%ADD12FreePoly0,270.000000*%
%TD*%
%TA.AperFunction,SMDPad,CuDef*%
%ADD13R,1.500000X1.000000*%
%TD*%
%TA.AperFunction,SMDPad,CuDef*%
%ADD14FreePoly1,270.000000*%
%TD*%
%TA.AperFunction,Conductor*%
%ADD15C,0.400000*%
%TD*%
%TA.AperFunction,Conductor*%
%ADD16C,0.200000*%
%TD*%
G04 APERTURE END LIST*
D10*
%TO.P,J1,1,Pin_1*%
%TO.N,Net-(J1-Pin_1)*%
X127000000Y-127000000D03*
%TO.P,J1,2,Pin_2*%
%TO.N,Net-(J1-Pin_2)*%
X124460000Y-127000000D03*
%TO.P,J1,3,Pin_3*%
%TO.N,Net-(J1-Pin_3)*%
X127000000Y-124460000D03*
%TO.P,J1,4,Pin_4*%
%TO.N,Net-(J1-Pin_4)*%
X124460000Y-124460000D03*
%TO.P,J1,5,Pin_5*%
%TO.N,Net-(J1-Pin_5)*%
X127000000Y-121920000D03*
%TO.P,J1,6,Pin_6*%
%TO.N,Net-(J1-Pin_6)*%
X124460000Y-121920000D03*
%TO.P,J1,7,Pin_7*%
%TO.N,Net-(J1-Pin_7)*%
X127000000Y-119380000D03*
%TO.P,J1,8,Pin_8*%
%TO.N,Net-(J1-Pin_8)*%
X124460000Y-119380000D03*
%TO.P,J1,9,Pin_9*%
%TO.N,Net-(J1-Pin_9)*%
X127000000Y-116840000D03*
%TO.P,J1,10,Pin_10*%
%TO.N,Net-(J1-Pin_10)*%
X124460000Y-116840000D03*
%TO.P,J1,11,Pin_11*%
%TO.N,Net-(J1-Pin_11)*%
X127000000Y-114300000D03*
%TO.P,J1,12,Pin_12*%
%TO.N,Net-(J1-Pin_12)*%
X124460000Y-114300000D03*
%TO.P,J1,13,Pin_13*%
%TO.N,Net-(J1-Pin_13)*%
X127000000Y-111760000D03*
%TO.P,J1,14,Pin_14*%
%TO.N,Net-(J1-Pin_14)*%
X124460000Y-111760000D03*
%TO.P,J1,15,Pin_15*%
%TO.N,Net-(J1-Pin_15)*%
X127000000Y-109220000D03*
%TO.P,J1,16,Pin_16*%
%TO.N,Net-(J1-Pin_16)*%
X124460000Y-109220000D03*
%TO.P,J1,17,Pin_17*%
%TO.N,Net-(J1-Pin_17)*%
X127000000Y-106680000D03*
%TO.P,J1,18,Pin_18*%
%TO.N,Net-(J1-Pin_18)*%
X124460000Y-106680000D03*
%TO.P,J1,19,Pin_19*%
%TO.N,Net-(J1-Pin_19)*%
X127000000Y-104140000D03*
%TO.P,J1,20,Pin_20*%
%TO.N,B_DRTYPE0-*%
X124460000Y-104140000D03*
%TO.P,J1,21,Pin_21*%
%TO.N,B_DRTYPE1-*%
X127000000Y-101600000D03*
%TO.P,J1,22,Pin_22*%
%TO.N,Net-(J1-Pin_22)*%
X124460000Y-101600000D03*
%TO.P,J1,23,Pin_23*%
%TO.N,Net-(J1-Pin_23)*%
X127000000Y-99060000D03*
%TO.P,J1,24,Pin_24*%
%TO.N,Net-(J1-Pin_24)*%
X124460000Y-99060000D03*
%TO.P,J1,25,Pin_25*%
%TO.N,Net-(J1-Pin_25)*%
X127000000Y-96520000D03*
%TO.P,J1,26,Pin_26*%
%TO.N,Net-(J1-Pin_26)*%
X124460000Y-96520000D03*
%TO.P,J1,27,Pin_27*%
%TO.N,Net-(J1-Pin_27)*%
X127000000Y-93980000D03*
%TO.P,J1,28,Pin_28*%
%TO.N,Net-(J1-Pin_28)*%
X124460000Y-93980000D03*
%TO.P,J1,29,Pin_29*%
%TO.N,Net-(J1-Pin_29)*%
X127000000Y-91440000D03*
%TO.P,J1,30,Pin_30*%
%TO.N,Net-(J1-Pin_30)*%
X124460000Y-91440000D03*
%TO.P,J1,31,Pin_31*%
%TO.N,Net-(J1-Pin_31)*%
X127000000Y-88900000D03*
%TO.P,J1,32,Pin_32*%
%TO.N,Net-(J1-Pin_32)*%
X124460000Y-88900000D03*
%TO.P,J1,33,Pin_33*%
%TO.N,Net-(J1-Pin_33)*%
X127000000Y-86360000D03*
%TO.P,J1,34,Pin_34*%
%TO.N,Net-(J1-Pin_34)*%
X124460000Y-86360000D03*
%TO.P,J1,35,Pin_35*%
%TO.N,Net-(J1-Pin_35)*%
X127000000Y-83820000D03*
%TO.P,J1,36,Pin_36*%
%TO.N,Net-(J1-Pin_36)*%
X124460000Y-83820000D03*
%TO.P,J1,37,Pin_37*%
%TO.N,Net-(J1-Pin_37)*%
X127000000Y-81280000D03*
%TO.P,J1,38,Pin_38*%
%TO.N,Net-(J1-Pin_38)*%
X124460000Y-81280000D03*
%TO.P,J1,39,Pin_39*%
%TO.N,Net-(J1-Pin_39)*%
X127000000Y-78740000D03*
%TO.P,J1,40,Pin_40*%
%TO.N,Net-(J1-Pin_40)*%
X124460000Y-78740000D03*
%TO.P,J1,41,Pin_41*%
%TO.N,Net-(J1-Pin_41)*%
X127000000Y-76200000D03*
%TO.P,J1,42,Pin_42*%
%TO.N,Net-(J1-Pin_42)*%
X124460000Y-76200000D03*
%TO.P,J1,43,Pin_43*%
%TO.N,Net-(J1-Pin_43)*%
X127000000Y-73660000D03*
%TO.P,J1,44,Pin_44*%
%TO.N,Net-(J1-Pin_44)*%
X124460000Y-73660000D03*
%TO.P,J1,45,Pin_45*%
%TO.N,Net-(J1-Pin_45)*%
X127000000Y-71120000D03*
%TO.P,J1,46,Pin_46*%
%TO.N,Net-(J1-Pin_46)*%
X124460000Y-71120000D03*
%TO.P,J1,47,Pin_47*%
%TO.N,Net-(J1-Pin_47)*%
X127000000Y-68580000D03*
%TO.P,J1,48,Pin_48*%
%TO.N,Net-(J1-Pin_48)*%
X124460000Y-68580000D03*
%TO.P,J1,49,Pin_49*%
%TO.N,Net-(J1-Pin_49)*%
X127000000Y-66040000D03*
%TO.P,J1,50,Pin_50*%
%TO.N,Net-(J1-Pin_50)*%
X124460000Y-66040000D03*
%TD*%
D11*
%TO.P,J3,1,Pin_1*%
%TO.N,Net-(J3-Pin_1)*%
X130700000Y-132080000D03*
D10*
%TO.P,J3,2,Pin_2*%
%TO.N,Net-(J3-Pin_2)*%
X128160000Y-132080000D03*
%TD*%
%TO.P,J2,1,Pin_1*%
%TO.N,Net-(J1-Pin_1)*%
X134620000Y-127000000D03*
%TO.P,J2,2,Pin_2*%
%TO.N,Net-(J1-Pin_2)*%
X132080000Y-127000000D03*
%TO.P,J2,3,Pin_3*%
%TO.N,Net-(J1-Pin_3)*%
X134620000Y-124460000D03*
%TO.P,J2,4,Pin_4*%
%TO.N,Net-(J1-Pin_4)*%
X132080000Y-124460000D03*
%TO.P,J2,5,Pin_5*%
%TO.N,Net-(J1-Pin_5)*%
X134620000Y-121920000D03*
%TO.P,J2,6,Pin_6*%
%TO.N,Net-(J1-Pin_6)*%
X132080000Y-121920000D03*
%TO.P,J2,7,Pin_7*%
%TO.N,Net-(J1-Pin_7)*%
X134620000Y-119380000D03*
%TO.P,J2,8,Pin_8*%
%TO.N,Net-(J1-Pin_8)*%
X132080000Y-119380000D03*
%TO.P,J2,9,Pin_9*%
%TO.N,Net-(J1-Pin_9)*%
X134620000Y-116840000D03*
%TO.P,J2,10,Pin_10*%
%TO.N,Net-(J1-Pin_10)*%
X132080000Y-116840000D03*
%TO.P,J2,11,Pin_11*%
%TO.N,Net-(J1-Pin_11)*%
X134620000Y-114300000D03*
%TO.P,J2,12,Pin_12*%
%TO.N,Net-(J1-Pin_12)*%
X132080000Y-114300000D03*
%TO.P,J2,13,Pin_13*%
%TO.N,Net-(J1-Pin_13)*%
X134620000Y-111760000D03*
%TO.P,J2,14,Pin_14*%
%TO.N,Net-(J1-Pin_14)*%
X132080000Y-111760000D03*
%TO.P,J2,15,Pin_15*%
%TO.N,Net-(J1-Pin_15)*%
X134620000Y-109220000D03*
%TO.P,J2,16,Pin_16*%
%TO.N,Net-(J1-Pin_16)*%
X132080000Y-109220000D03*
%TO.P,J2,17,Pin_17*%
%TO.N,Net-(J1-Pin_17)*%
X134620000Y-106680000D03*
%TO.P,J2,18,Pin_18*%
%TO.N,Net-(J1-Pin_18)*%
X132080000Y-106680000D03*
%TO.P,J2,19,Pin_19*%
%TO.N,Net-(J1-Pin_19)*%
X134620000Y-104140000D03*
%TO.P,J2,20,Pin_20*%
%TO.N,A_DRTYPE0-*%
X132080000Y-104140000D03*
%TO.P,J2,21,Pin_21*%
%TO.N,A_DRTYPE1-*%
X134620000Y-101600000D03*
%TO.P,J2,22,Pin_22*%
%TO.N,Net-(J1-Pin_22)*%
X132080000Y-101600000D03*
%TO.P,J2,23,Pin_23*%
%TO.N,Net-(J1-Pin_23)*%
X134620000Y-99060000D03*
%TO.P,J2,24,Pin_24*%
%TO.N,Net-(J1-Pin_24)*%
X132080000Y-99060000D03*
%TO.P,J2,25,Pin_25*%
%TO.N,Net-(J1-Pin_25)*%
X134620000Y-96520000D03*
%TO.P,J2,26,Pin_26*%
%TO.N,Net-(J1-Pin_26)*%
X132080000Y-96520000D03*
%TO.P,J2,27,Pin_27*%
%TO.N,Net-(J1-Pin_27)*%
X134620000Y-93980000D03*
%TO.P,J2,28,Pin_28*%
%TO.N,Net-(J1-Pin_28)*%
X132080000Y-93980000D03*
%TO.P,J2,29,Pin_29*%
%TO.N,Net-(J1-Pin_29)*%
X134620000Y-91440000D03*
%TO.P,J2,30,Pin_30*%
%TO.N,Net-(J1-Pin_30)*%
X132080000Y-91440000D03*
%TO.P,J2,31,Pin_31*%
%TO.N,Net-(J1-Pin_31)*%
X134620000Y-88900000D03*
%TO.P,J2,32,Pin_32*%
%TO.N,Net-(J1-Pin_32)*%
X132080000Y-88900000D03*
%TO.P,J2,33,Pin_33*%
%TO.N,Net-(J1-Pin_33)*%
X134620000Y-86360000D03*
%TO.P,J2,34,Pin_34*%
%TO.N,Net-(J1-Pin_34)*%
X132080000Y-86360000D03*
%TO.P,J2,35,Pin_35*%
%TO.N,Net-(J1-Pin_35)*%
X134620000Y-83820000D03*
%TO.P,J2,36,Pin_36*%
%TO.N,Net-(J1-Pin_36)*%
X132080000Y-83820000D03*
%TO.P,J2,37,Pin_37*%
%TO.N,Net-(J1-Pin_37)*%
X134620000Y-81280000D03*
%TO.P,J2,38,Pin_38*%
%TO.N,Net-(J1-Pin_38)*%
X132080000Y-81280000D03*
%TO.P,J2,39,Pin_39*%
%TO.N,Net-(J1-Pin_39)*%
X134620000Y-78740000D03*
%TO.P,J2,40,Pin_40*%
%TO.N,Net-(J1-Pin_40)*%
X132080000Y-78740000D03*
%TO.P,J2,41,Pin_41*%
%TO.N,Net-(J1-Pin_41)*%
X134620000Y-76200000D03*
%TO.P,J2,42,Pin_42*%
%TO.N,Net-(J1-Pin_42)*%
X132080000Y-76200000D03*
%TO.P,J2,43,Pin_43*%
%TO.N,Net-(J1-Pin_43)*%
X134620000Y-73660000D03*
%TO.P,J2,44,Pin_44*%
%TO.N,Net-(J1-Pin_44)*%
X132080000Y-73660000D03*
%TO.P,J2,45,Pin_45*%
%TO.N,Net-(J1-Pin_45)*%
X134620000Y-71120000D03*
%TO.P,J2,46,Pin_46*%
%TO.N,Net-(J1-Pin_46)*%
X132080000Y-71120000D03*
%TO.P,J2,47,Pin_47*%
%TO.N,Net-(J1-Pin_47)*%
X134620000Y-68580000D03*
%TO.P,J2,48,Pin_48*%
%TO.N,Net-(J1-Pin_48)*%
X132080000Y-68580000D03*
%TO.P,J2,49,Pin_49*%
%TO.N,Net-(J1-Pin_49)*%
X134620000Y-66040000D03*
%TO.P,J2,50,Pin_50*%
%TO.N,Net-(J1-Pin_50)*%
X132080000Y-66040000D03*
%TD*%
D12*
%TO.P,JP1,1,A*%
%TO.N,A_DRTYPE1-*%
X134620000Y-130810000D03*
D13*
%TO.P,JP1,2,C*%
%TO.N,Net-(J3-Pin_1)*%
X134620000Y-132110000D03*
D14*
%TO.P,JP1,3,B*%
%TO.N,B_DRTYPE1-*%
X134620000Y-133410000D03*
%TD*%
D12*
%TO.P,JP2,1,A*%
%TO.N,A_DRTYPE0-*%
X124714000Y-130750000D03*
D13*
%TO.P,JP2,2,C*%
%TO.N,Net-(J3-Pin_2)*%
X124714000Y-132050000D03*
D14*
%TO.P,JP2,3,B*%
%TO.N,B_DRTYPE0-*%
X124714000Y-133350000D03*
%TD*%
D15*
%TO.N,Net-(J1-Pin_33)*%
X127000000Y-86360000D02*
X128270000Y-87630000D01*
X128270000Y-87630000D02*
X133350000Y-87630000D01*
X133350000Y-87630000D02*
X134620000Y-86360000D01*
%TO.N,Net-(J1-Pin_1)*%
X127000000Y-127000000D02*
X128251000Y-128251000D01*
X128251000Y-128251000D02*
X133369000Y-128251000D01*
X133369000Y-128251000D02*
X134620000Y-127000000D01*
%TO.N,Net-(J1-Pin_17)*%
X133369000Y-107931000D02*
X134620000Y-106680000D01*
X128251000Y-107931000D02*
X133369000Y-107931000D01*
X127000000Y-106680000D02*
X128251000Y-107931000D01*
%TO.N,Net-(J1-Pin_49)*%
X133369000Y-67291000D02*
X134620000Y-66040000D01*
X127000000Y-66040000D02*
X128251000Y-67291000D01*
X128251000Y-67291000D02*
X133369000Y-67291000D01*
D16*
%TO.N,B_DRTYPE1-*%
X122775000Y-103793000D02*
X122775000Y-134078000D01*
X134620000Y-134112000D02*
X134620000Y-133410000D01*
X122775000Y-134078000D02*
X123444000Y-134747000D01*
X123444000Y-134747000D02*
X133985000Y-134747000D01*
X125730000Y-102870000D02*
X123698000Y-102870000D01*
X133985000Y-134747000D02*
X134620000Y-134112000D01*
X123698000Y-102870000D02*
X122775000Y-103793000D01*
X127000000Y-101600000D02*
X125730000Y-102870000D01*
%TO.N,B_DRTYPE0-*%
X123190000Y-105410000D02*
X124460000Y-104140000D01*
X124714000Y-133350000D02*
X123825000Y-133350000D01*
X123190000Y-132715000D02*
X123190000Y-105410000D01*
X123825000Y-133350000D02*
X123190000Y-132715000D01*
%TO.N,A_DRTYPE1-*%
X134620000Y-130810000D02*
X136051000Y-129379000D01*
X136051000Y-103031000D02*
X134620000Y-101600000D01*
X136051000Y-129379000D02*
X136051000Y-103031000D01*
%TO.N,A_DRTYPE0-*%
X124714000Y-130750000D02*
X125611000Y-129853000D01*
X130810000Y-105410000D02*
X132080000Y-104140000D01*
X125611000Y-106291000D02*
X126492000Y-105410000D01*
X125611000Y-129853000D02*
X125611000Y-106291000D01*
X126492000Y-105410000D02*
X130810000Y-105410000D01*
%TO.N,Net-(J3-Pin_1)*%
X130700000Y-132080000D02*
X134590000Y-132080000D01*
X134590000Y-132080000D02*
X134620000Y-132110000D01*
%TO.N,Net-(J3-Pin_2)*%
X124744000Y-132080000D02*
X124714000Y-132050000D01*
X128160000Y-132080000D02*
X124744000Y-132080000D01*
%TD*%
M02*
