%TF.GenerationSoftware,KiCad,Pcbnew,9.0.4*%
%TF.CreationDate,2025-11-09T10:18:35+13:00*%
%TF.ProjectId,AWS_CPU_Jumper,4157535f-4350-4555-9f4a-756d7065722e,rev?*%
%TF.SameCoordinates,Original*%
%TF.FileFunction,Legend,Top*%
%TF.FilePolarity,Positive*%
%FSLAX46Y46*%
G04 Gerber Fmt 4.6, Leading zero omitted, Abs format (unit mm)*
G04 Created by KiCad (PCBNEW 9.0.4) date 2025-11-09 10:18:35*
%MOMM*%
%LPD*%
G01*
G04 APERTURE LIST*
%ADD10C,0.100000*%
%ADD11C,0.120000*%
G04 APERTURE END LIST*
D10*
X133984419Y-135078115D02*
X132984419Y-135078115D01*
X132984419Y-135078115D02*
X132984419Y-134840020D01*
X132984419Y-134840020D02*
X133032038Y-134697163D01*
X133032038Y-134697163D02*
X133127276Y-134601925D01*
X133127276Y-134601925D02*
X133222514Y-134554306D01*
X133222514Y-134554306D02*
X133412990Y-134506687D01*
X133412990Y-134506687D02*
X133555847Y-134506687D01*
X133555847Y-134506687D02*
X133746323Y-134554306D01*
X133746323Y-134554306D02*
X133841561Y-134601925D01*
X133841561Y-134601925D02*
X133936800Y-134697163D01*
X133936800Y-134697163D02*
X133984419Y-134840020D01*
X133984419Y-134840020D02*
X133984419Y-135078115D01*
X133984419Y-133506687D02*
X133508228Y-133840020D01*
X133984419Y-134078115D02*
X132984419Y-134078115D01*
X132984419Y-134078115D02*
X132984419Y-133697163D01*
X132984419Y-133697163D02*
X133032038Y-133601925D01*
X133032038Y-133601925D02*
X133079657Y-133554306D01*
X133079657Y-133554306D02*
X133174895Y-133506687D01*
X133174895Y-133506687D02*
X133317752Y-133506687D01*
X133317752Y-133506687D02*
X133412990Y-133554306D01*
X133412990Y-133554306D02*
X133460609Y-133601925D01*
X133460609Y-133601925D02*
X133508228Y-133697163D01*
X133508228Y-133697163D02*
X133508228Y-134078115D01*
X132984419Y-133220972D02*
X132984419Y-132649544D01*
X133984419Y-132935258D02*
X132984419Y-132935258D01*
X133508228Y-132125734D02*
X133984419Y-132125734D01*
X132984419Y-132459067D02*
X133508228Y-132125734D01*
X133508228Y-132125734D02*
X132984419Y-131792401D01*
X133984419Y-131459067D02*
X132984419Y-131459067D01*
X132984419Y-131459067D02*
X132984419Y-131078115D01*
X132984419Y-131078115D02*
X133032038Y-130982877D01*
X133032038Y-130982877D02*
X133079657Y-130935258D01*
X133079657Y-130935258D02*
X133174895Y-130887639D01*
X133174895Y-130887639D02*
X133317752Y-130887639D01*
X133317752Y-130887639D02*
X133412990Y-130935258D01*
X133412990Y-130935258D02*
X133460609Y-130982877D01*
X133460609Y-130982877D02*
X133508228Y-131078115D01*
X133508228Y-131078115D02*
X133508228Y-131459067D01*
X133460609Y-130459067D02*
X133460609Y-130125734D01*
X133984419Y-129982877D02*
X133984419Y-130459067D01*
X133984419Y-130459067D02*
X132984419Y-130459067D01*
X132984419Y-130459067D02*
X132984419Y-129982877D01*
X132984419Y-129363829D02*
X132984419Y-129268591D01*
X132984419Y-129268591D02*
X133032038Y-129173353D01*
X133032038Y-129173353D02*
X133079657Y-129125734D01*
X133079657Y-129125734D02*
X133174895Y-129078115D01*
X133174895Y-129078115D02*
X133365371Y-129030496D01*
X133365371Y-129030496D02*
X133603466Y-129030496D01*
X133603466Y-129030496D02*
X133793942Y-129078115D01*
X133793942Y-129078115D02*
X133889180Y-129125734D01*
X133889180Y-129125734D02*
X133936800Y-129173353D01*
X133936800Y-129173353D02*
X133984419Y-129268591D01*
X133984419Y-129268591D02*
X133984419Y-129363829D01*
X133984419Y-129363829D02*
X133936800Y-129459067D01*
X133936800Y-129459067D02*
X133889180Y-129506686D01*
X133889180Y-129506686D02*
X133793942Y-129554305D01*
X133793942Y-129554305D02*
X133603466Y-129601924D01*
X133603466Y-129601924D02*
X133365371Y-129601924D01*
X133365371Y-129601924D02*
X133174895Y-129554305D01*
X133174895Y-129554305D02*
X133079657Y-129506686D01*
X133079657Y-129506686D02*
X133032038Y-129459067D01*
X133032038Y-129459067D02*
X132984419Y-129363829D01*
X125856419Y-135078115D02*
X124856419Y-135078115D01*
X124856419Y-135078115D02*
X124856419Y-134840020D01*
X124856419Y-134840020D02*
X124904038Y-134697163D01*
X124904038Y-134697163D02*
X124999276Y-134601925D01*
X124999276Y-134601925D02*
X125094514Y-134554306D01*
X125094514Y-134554306D02*
X125284990Y-134506687D01*
X125284990Y-134506687D02*
X125427847Y-134506687D01*
X125427847Y-134506687D02*
X125618323Y-134554306D01*
X125618323Y-134554306D02*
X125713561Y-134601925D01*
X125713561Y-134601925D02*
X125808800Y-134697163D01*
X125808800Y-134697163D02*
X125856419Y-134840020D01*
X125856419Y-134840020D02*
X125856419Y-135078115D01*
X125856419Y-133506687D02*
X125380228Y-133840020D01*
X125856419Y-134078115D02*
X124856419Y-134078115D01*
X124856419Y-134078115D02*
X124856419Y-133697163D01*
X124856419Y-133697163D02*
X124904038Y-133601925D01*
X124904038Y-133601925D02*
X124951657Y-133554306D01*
X124951657Y-133554306D02*
X125046895Y-133506687D01*
X125046895Y-133506687D02*
X125189752Y-133506687D01*
X125189752Y-133506687D02*
X125284990Y-133554306D01*
X125284990Y-133554306D02*
X125332609Y-133601925D01*
X125332609Y-133601925D02*
X125380228Y-133697163D01*
X125380228Y-133697163D02*
X125380228Y-134078115D01*
X124856419Y-133220972D02*
X124856419Y-132649544D01*
X125856419Y-132935258D02*
X124856419Y-132935258D01*
X125380228Y-132125734D02*
X125856419Y-132125734D01*
X124856419Y-132459067D02*
X125380228Y-132125734D01*
X125380228Y-132125734D02*
X124856419Y-131792401D01*
X125856419Y-131459067D02*
X124856419Y-131459067D01*
X124856419Y-131459067D02*
X124856419Y-131078115D01*
X124856419Y-131078115D02*
X124904038Y-130982877D01*
X124904038Y-130982877D02*
X124951657Y-130935258D01*
X124951657Y-130935258D02*
X125046895Y-130887639D01*
X125046895Y-130887639D02*
X125189752Y-130887639D01*
X125189752Y-130887639D02*
X125284990Y-130935258D01*
X125284990Y-130935258D02*
X125332609Y-130982877D01*
X125332609Y-130982877D02*
X125380228Y-131078115D01*
X125380228Y-131078115D02*
X125380228Y-131459067D01*
X125332609Y-130459067D02*
X125332609Y-130125734D01*
X125856419Y-129982877D02*
X125856419Y-130459067D01*
X125856419Y-130459067D02*
X124856419Y-130459067D01*
X124856419Y-130459067D02*
X124856419Y-129982877D01*
X125856419Y-129030496D02*
X125856419Y-129601924D01*
X125856419Y-129316210D02*
X124856419Y-129316210D01*
X124856419Y-129316210D02*
X124999276Y-129411448D01*
X124999276Y-129411448D02*
X125094514Y-129506686D01*
X125094514Y-129506686D02*
X125142133Y-129601924D01*
D11*
%TO.C,J1*%
X123080000Y-128380000D02*
X123080000Y-64660000D01*
X125730000Y-125730000D02*
X125730000Y-128380000D01*
X125730000Y-128380000D02*
X123080000Y-128380000D01*
X128380000Y-64660000D02*
X123080000Y-64660000D01*
X128380000Y-125730000D02*
X125730000Y-125730000D01*
X128380000Y-125730000D02*
X128380000Y-64660000D01*
X128380000Y-127000000D02*
X128380000Y-128380000D01*
X128380000Y-128380000D02*
X127000000Y-128380000D01*
%TO.C,J3*%
X126780000Y-130700000D02*
X126780000Y-133460000D01*
X129430000Y-130700000D02*
X126780000Y-130700000D01*
X129430000Y-130700000D02*
X129430000Y-133460000D01*
X129430000Y-133460000D02*
X126780000Y-133460000D01*
X130700000Y-130700000D02*
X132080000Y-130700000D01*
X132080000Y-130700000D02*
X132080000Y-132080000D01*
%TO.C,J2*%
X130700000Y-128380000D02*
X130700000Y-64660000D01*
X133350000Y-125730000D02*
X133350000Y-128380000D01*
X133350000Y-128380000D02*
X130700000Y-128380000D01*
X136000000Y-64660000D02*
X130700000Y-64660000D01*
X136000000Y-125730000D02*
X133350000Y-125730000D01*
X136000000Y-125730000D02*
X136000000Y-64660000D01*
X136000000Y-127000000D02*
X136000000Y-128380000D01*
X136000000Y-128380000D02*
X134620000Y-128380000D01*
%TD*%
M02*
