%TF.GenerationSoftware,KiCad,Pcbnew,9.0.4*%
%TF.CreationDate,2025-11-09T10:18:35+13:00*%
%TF.ProjectId,AWS_CPU_Jumper,4157535f-4350-4555-9f4a-756d7065722e,rev?*%
%TF.SameCoordinates,Original*%
%TF.FileFunction,Legend,Bot*%
%TF.FilePolarity,Positive*%
%FSLAX46Y46*%
G04 Gerber Fmt 4.6, Leading zero omitted, Abs format (unit mm)*
G04 Created by KiCad (PCBNEW 9.0.4) date 2025-11-09 10:18:35*
%MOMM*%
%LPD*%
G01*
G04 APERTURE LIST*
%ADD10C,0.100000*%
%ADD11C,0.120000*%
G04 APERTURE END LIST*
D10*
X124968000Y-95504000D02*
X125730000Y-94996000D01*
X127254000Y-95504000D02*
X124968000Y-95504000D01*
X133350000Y-95250000D02*
G75*
G02*
X133230078Y-95250000I-59961J0D01*
G01*
X133230078Y-95250000D02*
G75*
G02*
X133350000Y-95250000I59961J0D01*
G01*
X125730000Y-94996000D02*
X125730000Y-96012000D01*
X125730000Y-96012000D02*
X124968000Y-95504000D01*
X133858000Y-95250000D02*
G75*
G02*
X132722078Y-95250000I-567961J0D01*
G01*
X132722078Y-95250000D02*
G75*
G02*
X133858000Y-95250000I567961J0D01*
G01*
X132825609Y-131066217D02*
X132873228Y-131209074D01*
X132873228Y-131209074D02*
X132920847Y-131256693D01*
X132920847Y-131256693D02*
X133016085Y-131304312D01*
X133016085Y-131304312D02*
X133158942Y-131304312D01*
X133158942Y-131304312D02*
X133254180Y-131256693D01*
X133254180Y-131256693D02*
X133301800Y-131209074D01*
X133301800Y-131209074D02*
X133349419Y-131113836D01*
X133349419Y-131113836D02*
X133349419Y-130732884D01*
X133349419Y-130732884D02*
X132349419Y-130732884D01*
X132349419Y-130732884D02*
X132349419Y-131066217D01*
X132349419Y-131066217D02*
X132397038Y-131161455D01*
X132397038Y-131161455D02*
X132444657Y-131209074D01*
X132444657Y-131209074D02*
X132539895Y-131256693D01*
X132539895Y-131256693D02*
X132635133Y-131256693D01*
X132635133Y-131256693D02*
X132730371Y-131209074D01*
X132730371Y-131209074D02*
X132777990Y-131161455D01*
X132777990Y-131161455D02*
X132825609Y-131066217D01*
X132825609Y-131066217D02*
X132825609Y-130732884D01*
X129920419Y-127319693D02*
X129920419Y-126748265D01*
X129920419Y-127033979D02*
X128920419Y-127033979D01*
X128920419Y-127033979D02*
X129063276Y-126938741D01*
X129063276Y-126938741D02*
X129158514Y-126843503D01*
X129158514Y-126843503D02*
X129206133Y-126748265D01*
X122443419Y-133003027D02*
X122443419Y-133574455D01*
X123443419Y-133288741D02*
X122443419Y-133288741D01*
X129047419Y-65804074D02*
X129047419Y-65327884D01*
X129047419Y-65327884D02*
X129523609Y-65280265D01*
X129523609Y-65280265D02*
X129475990Y-65327884D01*
X129475990Y-65327884D02*
X129428371Y-65423122D01*
X129428371Y-65423122D02*
X129428371Y-65661217D01*
X129428371Y-65661217D02*
X129475990Y-65756455D01*
X129475990Y-65756455D02*
X129523609Y-65804074D01*
X129523609Y-65804074D02*
X129618847Y-65851693D01*
X129618847Y-65851693D02*
X129856942Y-65851693D01*
X129856942Y-65851693D02*
X129952180Y-65804074D01*
X129952180Y-65804074D02*
X129999800Y-65756455D01*
X129999800Y-65756455D02*
X130047419Y-65661217D01*
X130047419Y-65661217D02*
X130047419Y-65423122D01*
X130047419Y-65423122D02*
X129999800Y-65327884D01*
X129999800Y-65327884D02*
X129952180Y-65280265D01*
X129047419Y-66470741D02*
X129047419Y-66565979D01*
X129047419Y-66565979D02*
X129095038Y-66661217D01*
X129095038Y-66661217D02*
X129142657Y-66708836D01*
X129142657Y-66708836D02*
X129237895Y-66756455D01*
X129237895Y-66756455D02*
X129428371Y-66804074D01*
X129428371Y-66804074D02*
X129666466Y-66804074D01*
X129666466Y-66804074D02*
X129856942Y-66756455D01*
X129856942Y-66756455D02*
X129952180Y-66708836D01*
X129952180Y-66708836D02*
X129999800Y-66661217D01*
X129999800Y-66661217D02*
X130047419Y-66565979D01*
X130047419Y-66565979D02*
X130047419Y-66470741D01*
X130047419Y-66470741D02*
X129999800Y-66375503D01*
X129999800Y-66375503D02*
X129952180Y-66327884D01*
X129952180Y-66327884D02*
X129856942Y-66280265D01*
X129856942Y-66280265D02*
X129666466Y-66232646D01*
X129666466Y-66232646D02*
X129428371Y-66232646D01*
X129428371Y-66232646D02*
X129237895Y-66280265D01*
X129237895Y-66280265D02*
X129142657Y-66327884D01*
X129142657Y-66327884D02*
X129095038Y-66375503D01*
X129095038Y-66375503D02*
X129047419Y-66470741D01*
X122919609Y-131066217D02*
X122967228Y-131209074D01*
X122967228Y-131209074D02*
X123014847Y-131256693D01*
X123014847Y-131256693D02*
X123110085Y-131304312D01*
X123110085Y-131304312D02*
X123252942Y-131304312D01*
X123252942Y-131304312D02*
X123348180Y-131256693D01*
X123348180Y-131256693D02*
X123395800Y-131209074D01*
X123395800Y-131209074D02*
X123443419Y-131113836D01*
X123443419Y-131113836D02*
X123443419Y-130732884D01*
X123443419Y-130732884D02*
X122443419Y-130732884D01*
X122443419Y-130732884D02*
X122443419Y-131066217D01*
X122443419Y-131066217D02*
X122491038Y-131161455D01*
X122491038Y-131161455D02*
X122538657Y-131209074D01*
X122538657Y-131209074D02*
X122633895Y-131256693D01*
X122633895Y-131256693D02*
X122729133Y-131256693D01*
X122729133Y-131256693D02*
X122824371Y-131209074D01*
X122824371Y-131209074D02*
X122871990Y-131161455D01*
X122871990Y-131161455D02*
X122919609Y-131066217D01*
X122919609Y-131066217D02*
X122919609Y-130732884D01*
X132349419Y-133003027D02*
X132349419Y-133574455D01*
X133349419Y-133288741D02*
X132349419Y-133288741D01*
D11*
%TO.C,JP1*%
X133620000Y-130710000D02*
X133620000Y-133510000D01*
X134320000Y-134160000D02*
X134920000Y-134160000D01*
X134920000Y-130060000D02*
X134320000Y-130060000D01*
X135620000Y-133510000D02*
X135620000Y-130710000D01*
X135820000Y-130910000D02*
X136120000Y-130610000D01*
X135820000Y-130910000D02*
X136120000Y-131210000D01*
X136120000Y-130610000D02*
X136120000Y-131210000D01*
X133620000Y-130760000D02*
G75*
G02*
X134320000Y-130060000I699999J1D01*
G01*
X134320000Y-134160000D02*
G75*
G02*
X133620000Y-133460000I0J700000D01*
G01*
X134920000Y-130060000D02*
G75*
G02*
X135620000Y-130760000I1J-699999D01*
G01*
X135620000Y-133460000D02*
G75*
G02*
X134920000Y-134160000I-700000J0D01*
G01*
%TO.C,JP2*%
X123714000Y-130650000D02*
X123714000Y-133450000D01*
X124414000Y-134100000D02*
X125014000Y-134100000D01*
X125014000Y-130000000D02*
X124414000Y-130000000D01*
X125714000Y-133450000D02*
X125714000Y-130650000D01*
X125914000Y-130850000D02*
X126214000Y-130550000D01*
X125914000Y-130850000D02*
X126214000Y-131150000D01*
X126214000Y-130550000D02*
X126214000Y-131150000D01*
X123714000Y-130700000D02*
G75*
G02*
X124414000Y-130000000I699999J1D01*
G01*
X124414000Y-134100000D02*
G75*
G02*
X123714000Y-133400000I0J700000D01*
G01*
X125014000Y-130000000D02*
G75*
G02*
X125714000Y-130700000I1J-699999D01*
G01*
X125714000Y-133400000D02*
G75*
G02*
X125014000Y-134100000I-700000J0D01*
G01*
%TD*%
M02*
