%TF.GenerationSoftware,KiCad,Pcbnew,9.0.4*%
%TF.CreationDate,2025-11-09T10:18:35+13:00*%
%TF.ProjectId,AWS_CPU_Jumper,4157535f-4350-4555-9f4a-756d7065722e,rev?*%
%TF.SameCoordinates,Original*%
%TF.FileFunction,Copper,L1,Top*%
%TF.FilePolarity,Positive*%
%FSLAX46Y46*%
G04 Gerber Fmt 4.6, Leading zero omitted, Abs format (unit mm)*
G04 Created by KiCad (PCBNEW 9.0.4) date 2025-11-09 10:18:35*
%MOMM*%
%LPD*%
G01*
G04 APERTURE LIST*
%TA.AperFunction,ComponentPad*%
%ADD10C,1.700000*%
%TD*%
%TA.AperFunction,ComponentPad*%
%ADD11R,1.700000X1.700000*%
%TD*%
%TA.AperFunction,Conductor*%
%ADD12C,0.200000*%
%TD*%
G04 APERTURE END LIST*
D10*
%TO.P,J1,1,Pin_1*%
%TO.N,Net-(J1-Pin_1)*%
X127000000Y-127000000D03*
%TO.P,J1,2,Pin_2*%
%TO.N,Net-(J1-Pin_2)*%
X124460000Y-127000000D03*
%TO.P,J1,3,Pin_3*%
%TO.N,Net-(J1-Pin_3)*%
X127000000Y-124460000D03*
%TO.P,J1,4,Pin_4*%
%TO.N,Net-(J1-Pin_4)*%
X124460000Y-124460000D03*
%TO.P,J1,5,Pin_5*%
%TO.N,Net-(J1-Pin_5)*%
X127000000Y-121920000D03*
%TO.P,J1,6,Pin_6*%
%TO.N,Net-(J1-Pin_6)*%
X124460000Y-121920000D03*
%TO.P,J1,7,Pin_7*%
%TO.N,Net-(J1-Pin_7)*%
X127000000Y-119380000D03*
%TO.P,J1,8,Pin_8*%
%TO.N,Net-(J1-Pin_8)*%
X124460000Y-119380000D03*
%TO.P,J1,9,Pin_9*%
%TO.N,Net-(J1-Pin_9)*%
X127000000Y-116840000D03*
%TO.P,J1,10,Pin_10*%
%TO.N,Net-(J1-Pin_10)*%
X124460000Y-116840000D03*
%TO.P,J1,11,Pin_11*%
%TO.N,Net-(J1-Pin_11)*%
X127000000Y-114300000D03*
%TO.P,J1,12,Pin_12*%
%TO.N,Net-(J1-Pin_12)*%
X124460000Y-114300000D03*
%TO.P,J1,13,Pin_13*%
%TO.N,Net-(J1-Pin_13)*%
X127000000Y-111760000D03*
%TO.P,J1,14,Pin_14*%
%TO.N,Net-(J1-Pin_14)*%
X124460000Y-111760000D03*
%TO.P,J1,15,Pin_15*%
%TO.N,Net-(J1-Pin_15)*%
X127000000Y-109220000D03*
%TO.P,J1,16,Pin_16*%
%TO.N,Net-(J1-Pin_16)*%
X124460000Y-109220000D03*
%TO.P,J1,17,Pin_17*%
%TO.N,Net-(J1-Pin_17)*%
X127000000Y-106680000D03*
%TO.P,J1,18,Pin_18*%
%TO.N,Net-(J1-Pin_18)*%
X124460000Y-106680000D03*
%TO.P,J1,19,Pin_19*%
%TO.N,Net-(J1-Pin_19)*%
X127000000Y-104140000D03*
%TO.P,J1,20,Pin_20*%
%TO.N,B_DRTYPE0-*%
X124460000Y-104140000D03*
%TO.P,J1,21,Pin_21*%
%TO.N,B_DRTYPE1-*%
X127000000Y-101600000D03*
%TO.P,J1,22,Pin_22*%
%TO.N,Net-(J1-Pin_22)*%
X124460000Y-101600000D03*
%TO.P,J1,23,Pin_23*%
%TO.N,Net-(J1-Pin_23)*%
X127000000Y-99060000D03*
%TO.P,J1,24,Pin_24*%
%TO.N,Net-(J1-Pin_24)*%
X124460000Y-99060000D03*
%TO.P,J1,25,Pin_25*%
%TO.N,Net-(J1-Pin_25)*%
X127000000Y-96520000D03*
%TO.P,J1,26,Pin_26*%
%TO.N,Net-(J1-Pin_26)*%
X124460000Y-96520000D03*
%TO.P,J1,27,Pin_27*%
%TO.N,Net-(J1-Pin_27)*%
X127000000Y-93980000D03*
%TO.P,J1,28,Pin_28*%
%TO.N,Net-(J1-Pin_28)*%
X124460000Y-93980000D03*
%TO.P,J1,29,Pin_29*%
%TO.N,Net-(J1-Pin_29)*%
X127000000Y-91440000D03*
%TO.P,J1,30,Pin_30*%
%TO.N,Net-(J1-Pin_30)*%
X124460000Y-91440000D03*
%TO.P,J1,31,Pin_31*%
%TO.N,Net-(J1-Pin_31)*%
X127000000Y-88900000D03*
%TO.P,J1,32,Pin_32*%
%TO.N,Net-(J1-Pin_32)*%
X124460000Y-88900000D03*
%TO.P,J1,33,Pin_33*%
%TO.N,Net-(J1-Pin_33)*%
X127000000Y-86360000D03*
%TO.P,J1,34,Pin_34*%
%TO.N,Net-(J1-Pin_34)*%
X124460000Y-86360000D03*
%TO.P,J1,35,Pin_35*%
%TO.N,Net-(J1-Pin_35)*%
X127000000Y-83820000D03*
%TO.P,J1,36,Pin_36*%
%TO.N,Net-(J1-Pin_36)*%
X124460000Y-83820000D03*
%TO.P,J1,37,Pin_37*%
%TO.N,Net-(J1-Pin_37)*%
X127000000Y-81280000D03*
%TO.P,J1,38,Pin_38*%
%TO.N,Net-(J1-Pin_38)*%
X124460000Y-81280000D03*
%TO.P,J1,39,Pin_39*%
%TO.N,Net-(J1-Pin_39)*%
X127000000Y-78740000D03*
%TO.P,J1,40,Pin_40*%
%TO.N,Net-(J1-Pin_40)*%
X124460000Y-78740000D03*
%TO.P,J1,41,Pin_41*%
%TO.N,Net-(J1-Pin_41)*%
X127000000Y-76200000D03*
%TO.P,J1,42,Pin_42*%
%TO.N,Net-(J1-Pin_42)*%
X124460000Y-76200000D03*
%TO.P,J1,43,Pin_43*%
%TO.N,Net-(J1-Pin_43)*%
X127000000Y-73660000D03*
%TO.P,J1,44,Pin_44*%
%TO.N,Net-(J1-Pin_44)*%
X124460000Y-73660000D03*
%TO.P,J1,45,Pin_45*%
%TO.N,Net-(J1-Pin_45)*%
X127000000Y-71120000D03*
%TO.P,J1,46,Pin_46*%
%TO.N,Net-(J1-Pin_46)*%
X124460000Y-71120000D03*
%TO.P,J1,47,Pin_47*%
%TO.N,Net-(J1-Pin_47)*%
X127000000Y-68580000D03*
%TO.P,J1,48,Pin_48*%
%TO.N,Net-(J1-Pin_48)*%
X124460000Y-68580000D03*
%TO.P,J1,49,Pin_49*%
%TO.N,Net-(J1-Pin_49)*%
X127000000Y-66040000D03*
%TO.P,J1,50,Pin_50*%
%TO.N,Net-(J1-Pin_50)*%
X124460000Y-66040000D03*
%TD*%
D11*
%TO.P,J3,1,Pin_1*%
%TO.N,Net-(J3-Pin_1)*%
X130700000Y-132080000D03*
D10*
%TO.P,J3,2,Pin_2*%
%TO.N,Net-(J3-Pin_2)*%
X128160000Y-132080000D03*
%TD*%
%TO.P,J2,1,Pin_1*%
%TO.N,Net-(J1-Pin_1)*%
X134620000Y-127000000D03*
%TO.P,J2,2,Pin_2*%
%TO.N,Net-(J1-Pin_2)*%
X132080000Y-127000000D03*
%TO.P,J2,3,Pin_3*%
%TO.N,Net-(J1-Pin_3)*%
X134620000Y-124460000D03*
%TO.P,J2,4,Pin_4*%
%TO.N,Net-(J1-Pin_4)*%
X132080000Y-124460000D03*
%TO.P,J2,5,Pin_5*%
%TO.N,Net-(J1-Pin_5)*%
X134620000Y-121920000D03*
%TO.P,J2,6,Pin_6*%
%TO.N,Net-(J1-Pin_6)*%
X132080000Y-121920000D03*
%TO.P,J2,7,Pin_7*%
%TO.N,Net-(J1-Pin_7)*%
X134620000Y-119380000D03*
%TO.P,J2,8,Pin_8*%
%TO.N,Net-(J1-Pin_8)*%
X132080000Y-119380000D03*
%TO.P,J2,9,Pin_9*%
%TO.N,Net-(J1-Pin_9)*%
X134620000Y-116840000D03*
%TO.P,J2,10,Pin_10*%
%TO.N,Net-(J1-Pin_10)*%
X132080000Y-116840000D03*
%TO.P,J2,11,Pin_11*%
%TO.N,Net-(J1-Pin_11)*%
X134620000Y-114300000D03*
%TO.P,J2,12,Pin_12*%
%TO.N,Net-(J1-Pin_12)*%
X132080000Y-114300000D03*
%TO.P,J2,13,Pin_13*%
%TO.N,Net-(J1-Pin_13)*%
X134620000Y-111760000D03*
%TO.P,J2,14,Pin_14*%
%TO.N,Net-(J1-Pin_14)*%
X132080000Y-111760000D03*
%TO.P,J2,15,Pin_15*%
%TO.N,Net-(J1-Pin_15)*%
X134620000Y-109220000D03*
%TO.P,J2,16,Pin_16*%
%TO.N,Net-(J1-Pin_16)*%
X132080000Y-109220000D03*
%TO.P,J2,17,Pin_17*%
%TO.N,Net-(J1-Pin_17)*%
X134620000Y-106680000D03*
%TO.P,J2,18,Pin_18*%
%TO.N,Net-(J1-Pin_18)*%
X132080000Y-106680000D03*
%TO.P,J2,19,Pin_19*%
%TO.N,Net-(J1-Pin_19)*%
X134620000Y-104140000D03*
%TO.P,J2,20,Pin_20*%
%TO.N,A_DRTYPE0-*%
X132080000Y-104140000D03*
%TO.P,J2,21,Pin_21*%
%TO.N,A_DRTYPE1-*%
X134620000Y-101600000D03*
%TO.P,J2,22,Pin_22*%
%TO.N,Net-(J1-Pin_22)*%
X132080000Y-101600000D03*
%TO.P,J2,23,Pin_23*%
%TO.N,Net-(J1-Pin_23)*%
X134620000Y-99060000D03*
%TO.P,J2,24,Pin_24*%
%TO.N,Net-(J1-Pin_24)*%
X132080000Y-99060000D03*
%TO.P,J2,25,Pin_25*%
%TO.N,Net-(J1-Pin_25)*%
X134620000Y-96520000D03*
%TO.P,J2,26,Pin_26*%
%TO.N,Net-(J1-Pin_26)*%
X132080000Y-96520000D03*
%TO.P,J2,27,Pin_27*%
%TO.N,Net-(J1-Pin_27)*%
X134620000Y-93980000D03*
%TO.P,J2,28,Pin_28*%
%TO.N,Net-(J1-Pin_28)*%
X132080000Y-93980000D03*
%TO.P,J2,29,Pin_29*%
%TO.N,Net-(J1-Pin_29)*%
X134620000Y-91440000D03*
%TO.P,J2,30,Pin_30*%
%TO.N,Net-(J1-Pin_30)*%
X132080000Y-91440000D03*
%TO.P,J2,31,Pin_31*%
%TO.N,Net-(J1-Pin_31)*%
X134620000Y-88900000D03*
%TO.P,J2,32,Pin_32*%
%TO.N,Net-(J1-Pin_32)*%
X132080000Y-88900000D03*
%TO.P,J2,33,Pin_33*%
%TO.N,Net-(J1-Pin_33)*%
X134620000Y-86360000D03*
%TO.P,J2,34,Pin_34*%
%TO.N,Net-(J1-Pin_34)*%
X132080000Y-86360000D03*
%TO.P,J2,35,Pin_35*%
%TO.N,Net-(J1-Pin_35)*%
X134620000Y-83820000D03*
%TO.P,J2,36,Pin_36*%
%TO.N,Net-(J1-Pin_36)*%
X132080000Y-83820000D03*
%TO.P,J2,37,Pin_37*%
%TO.N,Net-(J1-Pin_37)*%
X134620000Y-81280000D03*
%TO.P,J2,38,Pin_38*%
%TO.N,Net-(J1-Pin_38)*%
X132080000Y-81280000D03*
%TO.P,J2,39,Pin_39*%
%TO.N,Net-(J1-Pin_39)*%
X134620000Y-78740000D03*
%TO.P,J2,40,Pin_40*%
%TO.N,Net-(J1-Pin_40)*%
X132080000Y-78740000D03*
%TO.P,J2,41,Pin_41*%
%TO.N,Net-(J1-Pin_41)*%
X134620000Y-76200000D03*
%TO.P,J2,42,Pin_42*%
%TO.N,Net-(J1-Pin_42)*%
X132080000Y-76200000D03*
%TO.P,J2,43,Pin_43*%
%TO.N,Net-(J1-Pin_43)*%
X134620000Y-73660000D03*
%TO.P,J2,44,Pin_44*%
%TO.N,Net-(J1-Pin_44)*%
X132080000Y-73660000D03*
%TO.P,J2,45,Pin_45*%
%TO.N,Net-(J1-Pin_45)*%
X134620000Y-71120000D03*
%TO.P,J2,46,Pin_46*%
%TO.N,Net-(J1-Pin_46)*%
X132080000Y-71120000D03*
%TO.P,J2,47,Pin_47*%
%TO.N,Net-(J1-Pin_47)*%
X134620000Y-68580000D03*
%TO.P,J2,48,Pin_48*%
%TO.N,Net-(J1-Pin_48)*%
X132080000Y-68580000D03*
%TO.P,J2,49,Pin_49*%
%TO.N,Net-(J1-Pin_49)*%
X134620000Y-66040000D03*
%TO.P,J2,50,Pin_50*%
%TO.N,Net-(J1-Pin_50)*%
X132080000Y-66040000D03*
%TD*%
D12*
%TO.N,Net-(J1-Pin_32)*%
X124460000Y-88900000D02*
X125611000Y-87749000D01*
X125611000Y-87749000D02*
X130929000Y-87749000D01*
X130929000Y-87749000D02*
X132080000Y-88900000D01*
%TO.N,Net-(J1-Pin_46)*%
X130929000Y-69969000D02*
X132080000Y-71120000D01*
X125611000Y-69969000D02*
X130929000Y-69969000D01*
X124460000Y-71120000D02*
X125611000Y-69969000D01*
%TO.N,Net-(J1-Pin_5)*%
X133350000Y-123190000D02*
X134620000Y-121920000D01*
X131722240Y-123190000D02*
X133350000Y-123190000D01*
X127000000Y-121920000D02*
X130452240Y-121920000D01*
X130452240Y-121920000D02*
X131722240Y-123190000D01*
%TO.N,Net-(J1-Pin_43)*%
X133469000Y-74811000D02*
X134620000Y-73660000D01*
X131365240Y-74811000D02*
X133469000Y-74811000D01*
X127000000Y-73660000D02*
X130214240Y-73660000D01*
X130214240Y-73660000D02*
X131365240Y-74811000D01*
%TO.N,Net-(J1-Pin_10)*%
X125611000Y-115689000D02*
X130929000Y-115689000D01*
X130929000Y-115689000D02*
X132080000Y-116840000D01*
X124460000Y-116840000D02*
X125611000Y-115689000D01*
%TO.N,Net-(J1-Pin_36)*%
X125611000Y-82669000D02*
X130929000Y-82669000D01*
X124460000Y-83820000D02*
X125611000Y-82669000D01*
X130929000Y-82669000D02*
X132080000Y-83820000D01*
%TO.N,Net-(J1-Pin_3)*%
X127000000Y-124460000D02*
X130452240Y-124460000D01*
X130452240Y-124460000D02*
X131603240Y-125611000D01*
X131603240Y-125611000D02*
X133469000Y-125611000D01*
X133469000Y-125611000D02*
X134620000Y-124460000D01*
%TO.N,Net-(J1-Pin_11)*%
X133469000Y-115451000D02*
X134620000Y-114300000D01*
X131603240Y-115451000D02*
X133469000Y-115451000D01*
X130452240Y-114300000D02*
X131603240Y-115451000D01*
X127000000Y-114300000D02*
X130452240Y-114300000D01*
%TO.N,Net-(J1-Pin_4)*%
X130810000Y-123190000D02*
X132080000Y-124460000D01*
X125730000Y-123190000D02*
X130810000Y-123190000D01*
X124460000Y-124460000D02*
X125730000Y-123190000D01*
%TO.N,Net-(J1-Pin_25)*%
X130452240Y-96520000D02*
X131603240Y-97671000D01*
X133469000Y-97671000D02*
X134620000Y-96520000D01*
X131603240Y-97671000D02*
X133469000Y-97671000D01*
X127000000Y-96520000D02*
X130452240Y-96520000D01*
%TO.N,Net-(J1-Pin_50)*%
X124460000Y-66040000D02*
X125611000Y-64889000D01*
X125611000Y-64889000D02*
X130929000Y-64889000D01*
X130929000Y-64889000D02*
X132080000Y-66040000D01*
%TO.N,Net-(J1-Pin_48)*%
X124460000Y-68580000D02*
X125611000Y-67429000D01*
X130929000Y-67429000D02*
X132080000Y-68580000D01*
X125611000Y-67429000D02*
X130929000Y-67429000D01*
%TO.N,Net-(J1-Pin_24)*%
X125611000Y-97909000D02*
X130929000Y-97909000D01*
X130929000Y-97909000D02*
X132080000Y-99060000D01*
X124460000Y-99060000D02*
X125611000Y-97909000D01*
%TO.N,Net-(J1-Pin_8)*%
X125611000Y-118229000D02*
X130929000Y-118229000D01*
X124460000Y-119380000D02*
X125611000Y-118229000D01*
X130929000Y-118229000D02*
X132080000Y-119380000D01*
%TO.N,Net-(J1-Pin_41)*%
X131377100Y-77470000D02*
X133350000Y-77470000D01*
X130107100Y-76200000D02*
X131377100Y-77470000D01*
X133350000Y-77470000D02*
X134620000Y-76200000D01*
X127000000Y-76200000D02*
X130107100Y-76200000D01*
%TO.N,Net-(J1-Pin_37)*%
X130107100Y-81280000D02*
X131377100Y-82550000D01*
X133350000Y-82550000D02*
X134620000Y-81280000D01*
X127000000Y-81280000D02*
X130107100Y-81280000D01*
X131377100Y-82550000D02*
X133350000Y-82550000D01*
%TO.N,Net-(J1-Pin_28)*%
X125849000Y-92591000D02*
X130691000Y-92591000D01*
X130691000Y-92591000D02*
X132080000Y-93980000D01*
X124460000Y-93980000D02*
X125849000Y-92591000D01*
%TO.N,Net-(J1-Pin_34)*%
X124460000Y-86360000D02*
X125611000Y-85209000D01*
X125611000Y-85209000D02*
X130929000Y-85209000D01*
X130929000Y-85209000D02*
X132080000Y-86360000D01*
%TO.N,Net-(J1-Pin_6)*%
X130691000Y-120531000D02*
X132080000Y-121920000D01*
X125849000Y-120531000D02*
X130691000Y-120531000D01*
X124460000Y-121920000D02*
X125849000Y-120531000D01*
%TO.N,Net-(J1-Pin_23)*%
X131603240Y-100211000D02*
X133469000Y-100211000D01*
X130452240Y-99060000D02*
X131603240Y-100211000D01*
X133469000Y-100211000D02*
X134620000Y-99060000D01*
X127000000Y-99060000D02*
X130452240Y-99060000D01*
%TO.N,Net-(J1-Pin_30)*%
X130929000Y-90289000D02*
X132080000Y-91440000D01*
X124460000Y-91440000D02*
X125611000Y-90289000D01*
X125611000Y-90289000D02*
X130929000Y-90289000D01*
%TO.N,Net-(J1-Pin_35)*%
X130107100Y-83820000D02*
X131377100Y-85090000D01*
X133350000Y-85090000D02*
X134620000Y-83820000D01*
X131377100Y-85090000D02*
X133350000Y-85090000D01*
X127000000Y-83820000D02*
X130107100Y-83820000D01*
%TO.N,Net-(J1-Pin_7)*%
X131603240Y-120531000D02*
X133469000Y-120531000D01*
X127000000Y-119380000D02*
X130452240Y-119380000D01*
X130452240Y-119380000D02*
X131603240Y-120531000D01*
X133469000Y-120531000D02*
X134620000Y-119380000D01*
%TO.N,Net-(J1-Pin_31)*%
X130214240Y-88900000D02*
X131365240Y-90051000D01*
X131365240Y-90051000D02*
X133469000Y-90051000D01*
X133469000Y-90051000D02*
X134620000Y-88900000D01*
X127000000Y-88900000D02*
X130214240Y-88900000D01*
%TO.N,Net-(J1-Pin_9)*%
X130452240Y-116840000D02*
X131603240Y-117991000D01*
X131603240Y-117991000D02*
X133469000Y-117991000D01*
X127000000Y-116840000D02*
X130452240Y-116840000D01*
X133469000Y-117991000D02*
X134620000Y-116840000D01*
%TO.N,Net-(J1-Pin_45)*%
X131603240Y-72271000D02*
X133469000Y-72271000D01*
X127000000Y-71120000D02*
X130452240Y-71120000D01*
X133469000Y-72271000D02*
X134620000Y-71120000D01*
X130452240Y-71120000D02*
X131603240Y-72271000D01*
%TO.N,Net-(J1-Pin_39)*%
X133469000Y-79891000D02*
X134620000Y-78740000D01*
X131365240Y-79891000D02*
X133469000Y-79891000D01*
X130214240Y-78740000D02*
X131365240Y-79891000D01*
X127000000Y-78740000D02*
X130214240Y-78740000D01*
%TO.N,Net-(J1-Pin_14)*%
X125611000Y-110609000D02*
X130929000Y-110609000D01*
X124460000Y-111760000D02*
X125611000Y-110609000D01*
X130929000Y-110609000D02*
X132080000Y-111760000D01*
%TO.N,Net-(J1-Pin_18)*%
X124460000Y-106680000D02*
X125611000Y-105529000D01*
X125611000Y-105529000D02*
X130929000Y-105529000D01*
X130929000Y-105529000D02*
X132080000Y-106680000D01*
%TO.N,Net-(J1-Pin_44)*%
X125611000Y-72509000D02*
X130929000Y-72509000D01*
X124460000Y-73660000D02*
X125611000Y-72509000D01*
X130929000Y-72509000D02*
X132080000Y-73660000D01*
%TO.N,Net-(J1-Pin_42)*%
X130929000Y-75049000D02*
X132080000Y-76200000D01*
X124460000Y-76200000D02*
X125611000Y-75049000D01*
X125611000Y-75049000D02*
X130929000Y-75049000D01*
%TO.N,Net-(J1-Pin_13)*%
X131603240Y-112911000D02*
X133469000Y-112911000D01*
X133469000Y-112911000D02*
X134620000Y-111760000D01*
X127000000Y-111760000D02*
X130452240Y-111760000D01*
X130452240Y-111760000D02*
X131603240Y-112911000D01*
%TO.N,Net-(J1-Pin_2)*%
X130929000Y-125849000D02*
X132080000Y-127000000D01*
X125611000Y-125849000D02*
X130929000Y-125849000D01*
X124460000Y-127000000D02*
X125611000Y-125849000D01*
%TO.N,Net-(J1-Pin_29)*%
X130452240Y-91440000D02*
X131603240Y-92591000D01*
X131603240Y-92591000D02*
X133469000Y-92591000D01*
X133469000Y-92591000D02*
X134620000Y-91440000D01*
X127000000Y-91440000D02*
X130452240Y-91440000D01*
%TO.N,Net-(J1-Pin_15)*%
X127000000Y-109220000D02*
X130452240Y-109220000D01*
X130452240Y-109220000D02*
X131603240Y-110371000D01*
X131603240Y-110371000D02*
X133469000Y-110371000D01*
X133469000Y-110371000D02*
X134620000Y-109220000D01*
%TO.N,Net-(J1-Pin_12)*%
X125611000Y-113149000D02*
X130929000Y-113149000D01*
X124460000Y-114300000D02*
X125611000Y-113149000D01*
X130929000Y-113149000D02*
X132080000Y-114300000D01*
%TO.N,Net-(J1-Pin_38)*%
X124460000Y-81280000D02*
X125611000Y-80129000D01*
X130929000Y-80129000D02*
X132080000Y-81280000D01*
X125611000Y-80129000D02*
X130929000Y-80129000D01*
%TO.N,Net-(J1-Pin_26)*%
X125730000Y-95250000D02*
X130810000Y-95250000D01*
X130810000Y-95250000D02*
X132080000Y-96520000D01*
X124460000Y-96520000D02*
X125730000Y-95250000D01*
%TO.N,Net-(J1-Pin_47)*%
X131722240Y-69850000D02*
X133350000Y-69850000D01*
X130452240Y-68580000D02*
X131722240Y-69850000D01*
X127000000Y-68580000D02*
X130452240Y-68580000D01*
X133350000Y-69850000D02*
X134620000Y-68580000D01*
%TO.N,Net-(J1-Pin_19)*%
X130452240Y-104140000D02*
X131603240Y-105291000D01*
X133469000Y-105291000D02*
X134620000Y-104140000D01*
X131603240Y-105291000D02*
X133469000Y-105291000D01*
X127000000Y-104140000D02*
X130452240Y-104140000D01*
%TO.N,Net-(J1-Pin_16)*%
X130929000Y-108069000D02*
X132080000Y-109220000D01*
X124460000Y-109220000D02*
X125611000Y-108069000D01*
X125611000Y-108069000D02*
X130929000Y-108069000D01*
%TO.N,Net-(J1-Pin_27)*%
X127000000Y-93980000D02*
X130452240Y-93980000D01*
X131603240Y-95131000D02*
X133469000Y-95131000D01*
X133469000Y-95131000D02*
X134620000Y-93980000D01*
X130452240Y-93980000D02*
X131603240Y-95131000D01*
%TO.N,Net-(J1-Pin_40)*%
X124460000Y-78740000D02*
X125611000Y-77589000D01*
X125611000Y-77589000D02*
X130929000Y-77589000D01*
X130929000Y-77589000D02*
X132080000Y-78740000D01*
%TO.N,Net-(J1-Pin_22)*%
X130929000Y-100449000D02*
X132080000Y-101600000D01*
X125611000Y-100449000D02*
X130929000Y-100449000D01*
X124460000Y-101600000D02*
X125611000Y-100449000D01*
%TD*%
M02*
