%TF.GenerationSoftware,KiCad,Pcbnew,9.0.4*%
%TF.CreationDate,2025-11-09T10:18:35+13:00*%
%TF.ProjectId,AWS_CPU_Jumper,4157535f-4350-4555-9f4a-756d7065722e,rev?*%
%TF.SameCoordinates,Original*%
%TF.FileFunction,Soldermask,Top*%
%TF.FilePolarity,Negative*%
%FSLAX46Y46*%
G04 Gerber Fmt 4.6, Leading zero omitted, Abs format (unit mm)*
G04 Created by KiCad (PCBNEW 9.0.4) date 2025-11-09 10:18:35*
%MOMM*%
%LPD*%
G01*
G04 APERTURE LIST*
%ADD10C,1.700000*%
%ADD11R,1.700000X1.700000*%
G04 APERTURE END LIST*
D10*
%TO.C,J1*%
X127000000Y-127000000D03*
X124460000Y-127000000D03*
X127000000Y-124460000D03*
X124460000Y-124460000D03*
X127000000Y-121920000D03*
X124460000Y-121920000D03*
X127000000Y-119380000D03*
X124460000Y-119380000D03*
X127000000Y-116840000D03*
X124460000Y-116840000D03*
X127000000Y-114300000D03*
X124460000Y-114300000D03*
X127000000Y-111760000D03*
X124460000Y-111760000D03*
X127000000Y-109220000D03*
X124460000Y-109220000D03*
X127000000Y-106680000D03*
X124460000Y-106680000D03*
X127000000Y-104140000D03*
X124460000Y-104140000D03*
X127000000Y-101600000D03*
X124460000Y-101600000D03*
X127000000Y-99060000D03*
X124460000Y-99060000D03*
X127000000Y-96520000D03*
X124460000Y-96520000D03*
X127000000Y-93980000D03*
X124460000Y-93980000D03*
X127000000Y-91440000D03*
X124460000Y-91440000D03*
X127000000Y-88900000D03*
X124460000Y-88900000D03*
X127000000Y-86360000D03*
X124460000Y-86360000D03*
X127000000Y-83820000D03*
X124460000Y-83820000D03*
X127000000Y-81280000D03*
X124460000Y-81280000D03*
X127000000Y-78740000D03*
X124460000Y-78740000D03*
X127000000Y-76200000D03*
X124460000Y-76200000D03*
X127000000Y-73660000D03*
X124460000Y-73660000D03*
X127000000Y-71120000D03*
X124460000Y-71120000D03*
X127000000Y-68580000D03*
X124460000Y-68580000D03*
X127000000Y-66040000D03*
X124460000Y-66040000D03*
%TD*%
D11*
%TO.C,J3*%
X130700000Y-132080000D03*
D10*
X128160000Y-132080000D03*
%TD*%
%TO.C,J2*%
X134620000Y-127000000D03*
X132080000Y-127000000D03*
X134620000Y-124460000D03*
X132080000Y-124460000D03*
X134620000Y-121920000D03*
X132080000Y-121920000D03*
X134620000Y-119380000D03*
X132080000Y-119380000D03*
X134620000Y-116840000D03*
X132080000Y-116840000D03*
X134620000Y-114300000D03*
X132080000Y-114300000D03*
X134620000Y-111760000D03*
X132080000Y-111760000D03*
X134620000Y-109220000D03*
X132080000Y-109220000D03*
X134620000Y-106680000D03*
X132080000Y-106680000D03*
X134620000Y-104140000D03*
X132080000Y-104140000D03*
X134620000Y-101600000D03*
X132080000Y-101600000D03*
X134620000Y-99060000D03*
X132080000Y-99060000D03*
X134620000Y-96520000D03*
X132080000Y-96520000D03*
X134620000Y-93980000D03*
X132080000Y-93980000D03*
X134620000Y-91440000D03*
X132080000Y-91440000D03*
X134620000Y-88900000D03*
X132080000Y-88900000D03*
X134620000Y-86360000D03*
X132080000Y-86360000D03*
X134620000Y-83820000D03*
X132080000Y-83820000D03*
X134620000Y-81280000D03*
X132080000Y-81280000D03*
X134620000Y-78740000D03*
X132080000Y-78740000D03*
X134620000Y-76200000D03*
X132080000Y-76200000D03*
X134620000Y-73660000D03*
X132080000Y-73660000D03*
X134620000Y-71120000D03*
X132080000Y-71120000D03*
X134620000Y-68580000D03*
X132080000Y-68580000D03*
X134620000Y-66040000D03*
X132080000Y-66040000D03*
%TD*%
M02*
