%TF.GenerationSoftware,KiCad,Pcbnew,9.0.4*%
%TF.CreationDate,2025-11-09T10:18:35+13:00*%
%TF.ProjectId,AWS_CPU_Jumper,4157535f-4350-4555-9f4a-756d7065722e,rev?*%
%TF.SameCoordinates,Original*%
%TF.FileFunction,Soldermask,Bot*%
%TF.FilePolarity,Negative*%
%FSLAX46Y46*%
G04 Gerber Fmt 4.6, Leading zero omitted, Abs format (unit mm)*
G04 Created by KiCad (PCBNEW 9.0.4) date 2025-11-09 10:18:35*
%MOMM*%
%LPD*%
G01*
G04 APERTURE LIST*
G04 Aperture macros list*
%AMFreePoly0*
4,1,23,0.550000,-0.750000,0.000000,-0.750000,0.000000,-0.745722,-0.065263,-0.745722,-0.191342,-0.711940,-0.304381,-0.646677,-0.396677,-0.554381,-0.461940,-0.441342,-0.495722,-0.315263,-0.495722,-0.250000,-0.500000,-0.250000,-0.500000,0.250000,-0.495722,0.250000,-0.495722,0.315263,-0.461940,0.441342,-0.396677,0.554381,-0.304381,0.646677,-0.191342,0.711940,-0.065263,0.745722,0.000000,0.745722,
0.000000,0.750000,0.550000,0.750000,0.550000,-0.750000,0.550000,-0.750000,$1*%
%AMFreePoly1*
4,1,23,0.000000,0.745722,0.065263,0.745722,0.191342,0.711940,0.304381,0.646677,0.396677,0.554381,0.461940,0.441342,0.495722,0.315263,0.495722,0.250000,0.500000,0.250000,0.500000,-0.250000,0.495722,-0.250000,0.495722,-0.315263,0.461940,-0.441342,0.396677,-0.554381,0.304381,-0.646677,0.191342,-0.711940,0.065263,-0.745722,0.000000,-0.745722,0.000000,-0.750000,-0.550000,-0.750000,
-0.550000,0.750000,0.000000,0.750000,0.000000,0.745722,0.000000,0.745722,$1*%
G04 Aperture macros list end*
%ADD10C,1.700000*%
%ADD11R,1.700000X1.700000*%
%ADD12FreePoly0,270.000000*%
%ADD13R,1.500000X1.000000*%
%ADD14FreePoly1,270.000000*%
G04 APERTURE END LIST*
%TO.C,JP1*%
G36*
X133870000Y-131360000D02*
G01*
X135370000Y-131360000D01*
X135370000Y-132860000D01*
X133870000Y-132860000D01*
X133870000Y-131360000D01*
G37*
%TO.C,JP2*%
G36*
X123964000Y-131300000D02*
G01*
X125464000Y-131300000D01*
X125464000Y-132800000D01*
X123964000Y-132800000D01*
X123964000Y-131300000D01*
G37*
%TD*%
D10*
%TO.C,J1*%
X127000000Y-127000000D03*
X124460000Y-127000000D03*
X127000000Y-124460000D03*
X124460000Y-124460000D03*
X127000000Y-121920000D03*
X124460000Y-121920000D03*
X127000000Y-119380000D03*
X124460000Y-119380000D03*
X127000000Y-116840000D03*
X124460000Y-116840000D03*
X127000000Y-114300000D03*
X124460000Y-114300000D03*
X127000000Y-111760000D03*
X124460000Y-111760000D03*
X127000000Y-109220000D03*
X124460000Y-109220000D03*
X127000000Y-106680000D03*
X124460000Y-106680000D03*
X127000000Y-104140000D03*
X124460000Y-104140000D03*
X127000000Y-101600000D03*
X124460000Y-101600000D03*
X127000000Y-99060000D03*
X124460000Y-99060000D03*
X127000000Y-96520000D03*
X124460000Y-96520000D03*
X127000000Y-93980000D03*
X124460000Y-93980000D03*
X127000000Y-91440000D03*
X124460000Y-91440000D03*
X127000000Y-88900000D03*
X124460000Y-88900000D03*
X127000000Y-86360000D03*
X124460000Y-86360000D03*
X127000000Y-83820000D03*
X124460000Y-83820000D03*
X127000000Y-81280000D03*
X124460000Y-81280000D03*
X127000000Y-78740000D03*
X124460000Y-78740000D03*
X127000000Y-76200000D03*
X124460000Y-76200000D03*
X127000000Y-73660000D03*
X124460000Y-73660000D03*
X127000000Y-71120000D03*
X124460000Y-71120000D03*
X127000000Y-68580000D03*
X124460000Y-68580000D03*
X127000000Y-66040000D03*
X124460000Y-66040000D03*
%TD*%
D11*
%TO.C,J3*%
X130700000Y-132080000D03*
D10*
X128160000Y-132080000D03*
%TD*%
%TO.C,J2*%
X134620000Y-127000000D03*
X132080000Y-127000000D03*
X134620000Y-124460000D03*
X132080000Y-124460000D03*
X134620000Y-121920000D03*
X132080000Y-121920000D03*
X134620000Y-119380000D03*
X132080000Y-119380000D03*
X134620000Y-116840000D03*
X132080000Y-116840000D03*
X134620000Y-114300000D03*
X132080000Y-114300000D03*
X134620000Y-111760000D03*
X132080000Y-111760000D03*
X134620000Y-109220000D03*
X132080000Y-109220000D03*
X134620000Y-106680000D03*
X132080000Y-106680000D03*
X134620000Y-104140000D03*
X132080000Y-104140000D03*
X134620000Y-101600000D03*
X132080000Y-101600000D03*
X134620000Y-99060000D03*
X132080000Y-99060000D03*
X134620000Y-96520000D03*
X132080000Y-96520000D03*
X134620000Y-93980000D03*
X132080000Y-93980000D03*
X134620000Y-91440000D03*
X132080000Y-91440000D03*
X134620000Y-88900000D03*
X132080000Y-88900000D03*
X134620000Y-86360000D03*
X132080000Y-86360000D03*
X134620000Y-83820000D03*
X132080000Y-83820000D03*
X134620000Y-81280000D03*
X132080000Y-81280000D03*
X134620000Y-78740000D03*
X132080000Y-78740000D03*
X134620000Y-76200000D03*
X132080000Y-76200000D03*
X134620000Y-73660000D03*
X132080000Y-73660000D03*
X134620000Y-71120000D03*
X132080000Y-71120000D03*
X134620000Y-68580000D03*
X132080000Y-68580000D03*
X134620000Y-66040000D03*
X132080000Y-66040000D03*
%TD*%
D12*
%TO.C,JP1*%
X134620000Y-130810000D03*
D13*
X134620000Y-132110000D03*
D14*
X134620000Y-133410000D03*
%TD*%
D12*
%TO.C,JP2*%
X124714000Y-130750000D03*
D13*
X124714000Y-132050000D03*
D14*
X124714000Y-133350000D03*
%TD*%
M02*
