%TF.GenerationSoftware,KiCad,Pcbnew,9.0.4*%
%TF.CreationDate,2025-11-09T10:18:44+13:00*%
%TF.ProjectId,AWS_CPU_Jumper,4157535f-4350-4555-9f4a-756d7065722e,rev?*%
%TF.SameCoordinates,Original*%
%TF.FileFunction,Drillmap*%
%TF.FilePolarity,Positive*%
%FSLAX45Y45*%
G04 Gerber Fmt 4.5, Leading zero omitted, Abs format (unit mm)*
G04 Created by KiCad (PCBNEW 9.0.4) date 2025-11-09 10:18:44*
%MOMM*%
%LPD*%
G01*
G04 APERTURE LIST*
%ADD10C,0.050000*%
%ADD11C,0.200000*%
G04 APERTURE END LIST*
D10*
X12242800Y-13614400D02*
G75*
G02*
X12217400Y-13589000I0J25400D01*
G01*
X13690600Y-13589000D02*
G75*
G02*
X13665200Y-13614400I-25400J0D01*
G01*
X12217400Y-6426200D02*
X12217400Y-13589000D01*
X12217400Y-6426200D02*
G75*
G02*
X12242800Y-6400800I25400J0D01*
G01*
X12242800Y-13614400D02*
X13665200Y-13614400D01*
X13690600Y-13589000D02*
X13690600Y-6426200D01*
X13665200Y-6400800D02*
X12242800Y-6400800D01*
X13665200Y-6400800D02*
G75*
G02*
X13690600Y-6426200I0J-25400D01*
G01*
D11*
X12475677Y-13928384D02*
X12475677Y-13728384D01*
X12475677Y-13728384D02*
X12523296Y-13728384D01*
X12523296Y-13728384D02*
X12551867Y-13737908D01*
X12551867Y-13737908D02*
X12570915Y-13756955D01*
X12570915Y-13756955D02*
X12580439Y-13776003D01*
X12580439Y-13776003D02*
X12589962Y-13814098D01*
X12589962Y-13814098D02*
X12589962Y-13842669D01*
X12589962Y-13842669D02*
X12580439Y-13880765D01*
X12580439Y-13880765D02*
X12570915Y-13899812D01*
X12570915Y-13899812D02*
X12551867Y-13918860D01*
X12551867Y-13918860D02*
X12523296Y-13928384D01*
X12523296Y-13928384D02*
X12475677Y-13928384D01*
X12675677Y-13928384D02*
X12675677Y-13795050D01*
X12675677Y-13833146D02*
X12685201Y-13814098D01*
X12685201Y-13814098D02*
X12694724Y-13804574D01*
X12694724Y-13804574D02*
X12713772Y-13795050D01*
X12713772Y-13795050D02*
X12732820Y-13795050D01*
X12799486Y-13928384D02*
X12799486Y-13795050D01*
X12799486Y-13728384D02*
X12789962Y-13737908D01*
X12789962Y-13737908D02*
X12799486Y-13747431D01*
X12799486Y-13747431D02*
X12809010Y-13737908D01*
X12809010Y-13737908D02*
X12799486Y-13728384D01*
X12799486Y-13728384D02*
X12799486Y-13747431D01*
X12923296Y-13928384D02*
X12904248Y-13918860D01*
X12904248Y-13918860D02*
X12894724Y-13899812D01*
X12894724Y-13899812D02*
X12894724Y-13728384D01*
X13028058Y-13928384D02*
X13009010Y-13918860D01*
X13009010Y-13918860D02*
X12999486Y-13899812D01*
X12999486Y-13899812D02*
X12999486Y-13728384D01*
X13256629Y-13928384D02*
X13256629Y-13728384D01*
X13256629Y-13728384D02*
X13323296Y-13871241D01*
X13323296Y-13871241D02*
X13389962Y-13728384D01*
X13389962Y-13728384D02*
X13389962Y-13928384D01*
X13570915Y-13928384D02*
X13570915Y-13823622D01*
X13570915Y-13823622D02*
X13561391Y-13804574D01*
X13561391Y-13804574D02*
X13542343Y-13795050D01*
X13542343Y-13795050D02*
X13504248Y-13795050D01*
X13504248Y-13795050D02*
X13485201Y-13804574D01*
X13570915Y-13918860D02*
X13551867Y-13928384D01*
X13551867Y-13928384D02*
X13504248Y-13928384D01*
X13504248Y-13928384D02*
X13485201Y-13918860D01*
X13485201Y-13918860D02*
X13475677Y-13899812D01*
X13475677Y-13899812D02*
X13475677Y-13880765D01*
X13475677Y-13880765D02*
X13485201Y-13861717D01*
X13485201Y-13861717D02*
X13504248Y-13852193D01*
X13504248Y-13852193D02*
X13551867Y-13852193D01*
X13551867Y-13852193D02*
X13570915Y-13842669D01*
X13666153Y-13795050D02*
X13666153Y-13995050D01*
X13666153Y-13804574D02*
X13685201Y-13795050D01*
X13685201Y-13795050D02*
X13723296Y-13795050D01*
X13723296Y-13795050D02*
X13742343Y-13804574D01*
X13742343Y-13804574D02*
X13751867Y-13814098D01*
X13751867Y-13814098D02*
X13761391Y-13833146D01*
X13761391Y-13833146D02*
X13761391Y-13890288D01*
X13761391Y-13890288D02*
X13751867Y-13909336D01*
X13751867Y-13909336D02*
X13742343Y-13918860D01*
X13742343Y-13918860D02*
X13723296Y-13928384D01*
X13723296Y-13928384D02*
X13685201Y-13928384D01*
X13685201Y-13928384D02*
X13666153Y-13918860D01*
X13847105Y-13909336D02*
X13856629Y-13918860D01*
X13856629Y-13918860D02*
X13847105Y-13928384D01*
X13847105Y-13928384D02*
X13837582Y-13918860D01*
X13837582Y-13918860D02*
X13847105Y-13909336D01*
X13847105Y-13909336D02*
X13847105Y-13928384D01*
X13847105Y-13804574D02*
X13856629Y-13814098D01*
X13856629Y-13814098D02*
X13847105Y-13823622D01*
X13847105Y-13823622D02*
X13837582Y-13814098D01*
X13837582Y-13814098D02*
X13847105Y-13804574D01*
X13847105Y-13804574D02*
X13847105Y-13823622D01*
M02*
