  0
SECTION
  2
HEADER
  9
$ANGBASE
  50
0.0
  9
$ANGDIR
  70
1
  9
$MEASUREMENT
  70
0
  0
ENDSEC
  0
SECTION
  2
TABLES
  0
TABLE
  2
LTYPE
  70
4
  0
LTYPE
  5
40F
  2
CONTINUOUS
  70
0
  3
Solid line
  72
65
  73
0
  40
0.0
  0
LTYPE
  5
410
  2
DASHDOT
 70
0
  3
Dash Dot ____ _ ____ _
 72
65
 73
4
 40
2.0
 49
1.25
 49
-0.25
 49
0.25
 49
-0.25
  0
LTYPE
  5
411
  2
DASHED
 70
0
  3
Dashed __ __ __ __ __
 72
65
 73
2
 40
0.75
 49
0.5
 49
-0.25
  0
LTYPE
  5
43B
  2
DOTTED
 70
0
  3
Dotted .  .  .  .
 72
65
 73
2
 40
0.2
 49
0.0
 49
-0.2
  0
ENDTAB
  0
TABLE
  2
STYLE
  70
4
  0
STYLE
  2
KICAD
  70
0
  40
0
  41
1
  42
1
  50
0
  71
0
  3
isocp.shx
  0
STYLE
  2
KICADB
  70
0
  40
0
  41
1
  42
1
  50
0
  71
0
  3
isocp.shx
  0
STYLE
  2
KICADI
  70
0
  40
0
  41
1
  42
1
  50
15
  71
0
  3
isocp.shx
  0
STYLE
  2
KICADBI
  70
0
  40
0
  41
1
  42
1
  50
15
  71
0
  3
isocp.shx
  0
ENDTAB
  0
TABLE
  2
LAYER
  70
1
  0
LAYER
  2
BLACK
  70
0
  62
7
  6
CONTINUOUS
  0
ENDTAB
  0
ENDSEC
  0
SECTION
  2
ENTITIES
0
LINE
8
BLACK
6
CONTINUOUS
10
4.3910339370078741
20
-2.5428163779527559
11
4.3915666141732279
21
-2.5433490551181102
0
LINE
8
BLACK
6
CONTINUOUS
10
4.3915666141732279
20
-2.5433490551181102
11
4.3916415354330711
21
-2.5437257086614173
0
LINE
8
BLACK
6
CONTINUOUS
10
4.3916415354330711
20
-2.5437257086614173
11
4.3916415354330711
21
-3.094906811023622
0
LINE
8
BLACK
6
CONTINUOUS
10
4.3916415354330711
20
-3.094906811023622
11
4.3915666141732279
21
-3.0952834645669292
0
LINE
8
BLACK
6
CONTINUOUS
10
4.3915666141732279
20
-3.0952834645669292
11
4.3910339370078741
21
-3.0958161417322834
0
LINE
8
BLACK
6
CONTINUOUS
10
4.3910339370078741
20
-3.0958161417322834
11
4.3906572834645665
21
-3.0958910629921261
0
LINE
8
BLACK
6
CONTINUOUS
10
4.3906572834645665
20
-3.0958910629921261
11
4.2213659448818897
21
-3.0958910629921261
0
LINE
8
BLACK
6
CONTINUOUS
10
4.2213659448818897
20
-3.0958910629921261
11
4.2209892913385829
21
-3.0958161417322834
0
LINE
8
BLACK
6
CONTINUOUS
10
4.2209892913385829
20
-3.0958161417322834
11
4.2204566141732283
21
-3.0952834645669292
0
LINE
8
BLACK
6
CONTINUOUS
10
4.2204566141732283
20
-3.0952834645669292
11
4.2203816929133859
21
-3.094906811023622
0
LINE
8
BLACK
6
CONTINUOUS
10
4.2203816929133859
20
-3.094906811023622
11
4.2203816929133859
21
-2.5437257086614173
0
LINE
8
BLACK
6
CONTINUOUS
10
4.2203816929133859
20
-2.5437257086614173
11
4.2204566141732283
21
-2.5433490551181102
0
LINE
8
BLACK
6
CONTINUOUS
10
4.2204566141732283
20
-2.5433490551181102
11
4.2209892913385829
21
-2.5428163779527559
0
LINE
8
BLACK
6
CONTINUOUS
10
4.2209892913385829
20
-2.5428163779527559
11
4.2213659448818897
21
-2.5427414566929132
0
LINE
8
BLACK
6
CONTINUOUS
10
4.2213659448818897
20
-2.5427414566929132
11
4.3906572834645665
21
-2.5427414566929132
0
LINE
8
BLACK
6
CONTINUOUS
10
4.3906572834645665
20
-2.5427414566929132
11
4.3910339370078741
21
-2.5428163779527559
0
LINE
8
BLACK
6
CONTINUOUS
10
4.2223501968503934
20
-2.5447099606299211
11
4.2223501968503934
21
-3.0939225590551183
0
LINE
8
BLACK
6
CONTINUOUS
10
4.2223501968503934
20
-3.0939225590551183
11
4.3896730314960628
21
-3.0939225590551183
0
LINE
8
BLACK
6
CONTINUOUS
10
4.3896730314960628
20
-3.0939225590551183
11
4.3896730314960628
21
-2.5447099606299211
0
LINE
8
BLACK
6
CONTINUOUS
10
4.3896730314960628
20
-2.5447099606299211
11
4.2223501968503934
21
-2.5447099606299211
0
LINE
8
BLACK
6
CONTINUOUS
10
4.4885656299212595
20
-2.1090285433070868
11
4.4890983070866142
21
-2.109561220472441
0
LINE
8
BLACK
6
CONTINUOUS
10
4.4890983070866142
20
-2.109561220472441
11
4.4891732283464565
21
-2.1099378740157482
0
LINE
8
BLACK
6
CONTINUOUS
10
4.4891732283464565
20
-2.1099378740157482
11
4.4891732283464565
21
-2.2795275590551181
0
LINE
8
BLACK
6
CONTINUOUS
10
4.4891732283464565
20
-2.2795275590551181
11
4.4890983070866142
21
-2.2799042125984252
0
LINE
8
BLACK
6
CONTINUOUS
10
4.4890983070866142
20
-2.2799042125984252
11
4.4885656299212595
21
-2.2804368897637795
0
LINE
8
BLACK
6
CONTINUOUS
10
4.4885656299212595
20
-2.2804368897637795
11
4.4881889763779528
21
-2.2805118110236222
0
LINE
8
BLACK
6
CONTINUOUS
10
4.4881889763779528
20
-2.2805118110236222
11
4.3316929133858268
21
-2.2805118110236222
0
LINE
8
BLACK
6
CONTINUOUS
10
4.3316929133858268
20
-2.2805118110236222
11
4.3316929133858268
21
-2.3415354330708662
0
LINE
8
BLACK
6
CONTINUOUS
10
4.3316929133858268
20
-2.3415354330708662
11
4.4881889763779528
21
-2.3415354330708662
0
LINE
8
BLACK
6
CONTINUOUS
10
4.4881889763779528
20
-2.3415354330708662
11
4.4885656299212595
21
-2.3416103543307085
0
LINE
8
BLACK
6
CONTINUOUS
10
4.4885656299212595
20
-2.3416103543307085
11
4.4890983070866142
21
-2.3421430314960627
0
LINE
8
BLACK
6
CONTINUOUS
10
4.4890983070866142
20
-2.3421430314960627
11
4.4891732283464565
21
-2.3425196850393699
0
LINE
8
BLACK
6
CONTINUOUS
10
4.4891732283464565
20
-2.3425196850393699
11
4.4891732283464565
21
-3.2874015748031495
0
LINE
8
BLACK
6
CONTINUOUS
10
4.4891732283464565
20
-3.2874015748031495
11
4.4890983070866142
21
-3.2877782283464567
0
LINE
8
BLACK
6
CONTINUOUS
10
4.4890983070866142
20
-3.2877782283464567
11
4.4885656299212595
21
-3.2883109055118109
0
LINE
8
BLACK
6
CONTINUOUS
10
4.4885656299212595
20
-3.2883109055118109
11
4.4881889763779528
21
-3.2883858267716533
0
LINE
8
BLACK
6
CONTINUOUS
10
4.4881889763779528
20
-3.2883858267716533
11
4.3316929133858268
21
-3.2883858267716533
0
LINE
8
BLACK
6
CONTINUOUS
10
4.3316929133858268
20
-3.2883858267716533
11
4.3316929133858268
21
-3.3494094488188977
0
LINE
8
BLACK
6
CONTINUOUS
10
4.3316929133858268
20
-3.3494094488188977
11
4.4881889763779528
21
-3.3494094488188977
0
LINE
8
BLACK
6
CONTINUOUS
10
4.4881889763779528
20
-3.3494094488188977
11
4.4885656299212595
21
-3.34948437007874
0
LINE
8
BLACK
6
CONTINUOUS
10
4.4885656299212595
20
-3.34948437007874
11
4.4890983070866142
21
-3.3500170472440942
0
LINE
8
BLACK
6
CONTINUOUS
10
4.4890983070866142
20
-3.3500170472440942
11
4.4891732283464565
21
-3.3503937007874014
0
LINE
8
BLACK
6
CONTINUOUS
10
4.4891732283464565
20
-3.3503937007874014
11
4.4891732283464565
21
-3.7401574803149606
0
LINE
8
BLACK
6
CONTINUOUS
10
4.4891732283464565
20
-3.7401574803149606
11
4.4890983070866142
21
-3.7405341338582678
0
LINE
8
BLACK
6
CONTINUOUS
10
4.4890983070866142
20
-3.7405341338582678
11
4.4885656299212595
21
-3.741066811023622
0
LINE
8
BLACK
6
CONTINUOUS
10
4.4885656299212595
20
-3.741066811023622
11
4.4881889763779528
21
-3.7411417322834644
0
LINE
8
BLACK
6
CONTINUOUS
10
4.4881889763779528
20
-3.7411417322834644
11
4.3571927165354332
21
-3.7411417322834644
0
LINE
8
BLACK
6
CONTINUOUS
10
4.3571927165354332
20
-3.7411417322834644
11
4.3568160629921255
21
-3.741066811023622
0
LINE
8
BLACK
6
CONTINUOUS
10
4.3568160629921255
20
-3.741066811023622
11
4.3562833858267718
21
-3.7405341338582678
0
LINE
8
BLACK
6
CONTINUOUS
10
4.3562833858267718
20
-3.7405341338582678
11
4.3562084645669295
21
-3.7401574803149606
0
LINE
8
BLACK
6
CONTINUOUS
10
4.3562084645669295
20
-3.7401574803149606
11
4.3562084645669295
21
-3.5836614173228347
0
LINE
8
BLACK
6
CONTINUOUS
10
4.3562084645669295
20
-3.5836614173228347
11
4.2558147637795276
21
-3.5836614173228347
0
LINE
8
BLACK
6
CONTINUOUS
10
4.2558147637795276
20
-3.5836614173228347
11
4.2558147637795276
21
-3.7401574803149606
0
LINE
8
BLACK
6
CONTINUOUS
10
4.2558147637795276
20
-3.7401574803149606
11
4.2557398425196853
21
-3.7405341338582678
0
LINE
8
BLACK
6
CONTINUOUS
10
4.2557398425196853
20
-3.7405341338582678
11
4.2552071653543306
21
-3.741066811023622
0
LINE
8
BLACK
6
CONTINUOUS
10
4.2552071653543306
20
-3.741066811023622
11
4.2548305118110239
21
-3.7411417322834644
0
LINE
8
BLACK
6
CONTINUOUS
10
4.2548305118110239
20
-3.7411417322834644
11
4.1238342519685043
21
-3.7411417322834644
0
LINE
8
BLACK
6
CONTINUOUS
10
4.1238342519685043
20
-3.7411417322834644
11
4.1234575984251967
21
-3.741066811023622
0
LINE
8
BLACK
6
CONTINUOUS
10
4.1234575984251967
20
-3.741066811023622
11
4.122924921259842
21
-3.7405341338582678
0
LINE
8
BLACK
6
CONTINUOUS
10
4.122924921259842
20
-3.7405341338582678
11
4.1228499999999997
21
-3.7401574803149606
0
LINE
8
BLACK
6
CONTINUOUS
10
4.1228499999999997
20
-3.7401574803149606
11
4.1228499999999997
21
-2.1099378740157482
0
LINE
8
BLACK
6
CONTINUOUS
10
4.1228499999999997
20
-2.1099378740157482
11
4.122924921259842
21
-2.109561220472441
0
LINE
8
BLACK
6
CONTINUOUS
10
4.122924921259842
20
-2.109561220472441
11
4.1234575984251967
21
-2.1090285433070868
0
LINE
8
BLACK
6
CONTINUOUS
10
4.1234575984251967
20
-2.1090285433070868
11
4.1238342519685043
21
-2.108953622047244
0
LINE
8
BLACK
6
CONTINUOUS
10
4.1238342519685043
20
-2.108953622047244
11
4.4881889763779528
21
-2.108953622047244
0
LINE
8
BLACK
6
CONTINUOUS
10
4.4881889763779528
20
-2.108953622047244
11
4.4885656299212595
21
-2.1090285433070868
0
LINE
8
BLACK
6
CONTINUOUS
10
4.124818503937008
20
-2.1109221259842519
11
4.124818503937008
21
-3.7391732283464565
0
LINE
8
BLACK
6
CONTINUOUS
10
4.124818503937008
20
-3.7391732283464565
11
4.2538462598425193
21
-3.7391732283464565
0
LINE
8
BLACK
6
CONTINUOUS
10
4.2538462598425193
20
-3.7391732283464565
11
4.2538462598425193
21
-3.5826771653543306
0
LINE
8
BLACK
6
CONTINUOUS
10
4.2538462598425193
20
-3.5826771653543306
11
4.2539211811023625
21
-3.5823005118110234
0
LINE
8
BLACK
6
CONTINUOUS
10
4.2539211811023625
20
-3.5823005118110234
11
4.2544538582677163
21
-3.5817678346456692
0
LINE
8
BLACK
6
CONTINUOUS
10
4.2544538582677163
20
-3.5817678346456692
11
4.2548305118110239
21
-3.5816929133858268
0
LINE
8
BLACK
6
CONTINUOUS
10
4.2548305118110239
20
-3.5816929133858268
11
4.3571927165354332
21
-3.5816929133858268
0
LINE
8
BLACK
6
CONTINUOUS
10
4.3571927165354332
20
-3.5816929133858268
11
4.3575693700787399
21
-3.5817678346456692
0
LINE
8
BLACK
6
CONTINUOUS
10
4.3575693700787399
20
-3.5817678346456692
11
4.3581020472440946
21
-3.5823005118110234
0
LINE
8
BLACK
6
CONTINUOUS
10
4.3581020472440946
20
-3.5823005118110234
11
4.3581769685039369
21
-3.5826771653543306
0
LINE
8
BLACK
6
CONTINUOUS
10
4.3581769685039369
20
-3.5826771653543306
11
4.3581769685039369
21
-3.7391732283464565
0
LINE
8
BLACK
6
CONTINUOUS
10
4.3581769685039369
20
-3.7391732283464565
11
4.4872047244094491
21
-3.7391732283464565
0
LINE
8
BLACK
6
CONTINUOUS
10
4.4872047244094491
20
-3.7391732283464565
11
4.4872047244094491
21
-3.3513779527559056
0
LINE
8
BLACK
6
CONTINUOUS
10
4.4872047244094491
20
-3.3513779527559056
11
4.3307086614173231
21
-3.3513779527559056
0
LINE
8
BLACK
6
CONTINUOUS
10
4.3307086614173231
20
-3.3513779527559056
11
4.3303320078740155
21
-3.3513030314960628
0
LINE
8
BLACK
6
CONTINUOUS
10
4.3303320078740155
20
-3.3513030314960628
11
4.3297993307086617
21
-3.3507703543307086
0
LINE
8
BLACK
6
CONTINUOUS
10
4.3297993307086617
20
-3.3507703543307086
11
4.3297244094488185
21
-3.3503937007874014
0
LINE
8
BLACK
6
CONTINUOUS
10
4.3297244094488185
20
-3.3503937007874014
11
4.3297244094488185
21
-3.2874015748031495
0
LINE
8
BLACK
6
CONTINUOUS
10
4.3297244094488185
20
-3.2874015748031495
11
4.3297993307086617
21
-3.2870249212598424
0
LINE
8
BLACK
6
CONTINUOUS
10
4.3297993307086617
20
-3.2870249212598424
11
4.3303320078740155
21
-3.2864922440944881
0
LINE
8
BLACK
6
CONTINUOUS
10
4.3303320078740155
20
-3.2864922440944881
11
4.3307086614173231
21
-3.2864173228346454
0
LINE
8
BLACK
6
CONTINUOUS
10
4.3307086614173231
20
-3.2864173228346454
11
4.4872047244094491
21
-3.2864173228346454
0
LINE
8
BLACK
6
CONTINUOUS
10
4.4872047244094491
20
-3.2864173228346454
11
4.4872047244094491
21
-2.3435039370078741
0
LINE
8
BLACK
6
CONTINUOUS
10
4.4872047244094491
20
-2.3435039370078741
11
4.3307086614173231
21
-2.3435039370078741
0
LINE
8
BLACK
6
CONTINUOUS
10
4.3307086614173231
20
-2.3435039370078741
11
4.3303320078740155
21
-2.3434290157480313
0
LINE
8
BLACK
6
CONTINUOUS
10
4.3303320078740155
20
-2.3434290157480313
11
4.3297993307086617
21
-2.3428963385826771
0
LINE
8
BLACK
6
CONTINUOUS
10
4.3297993307086617
20
-2.3428963385826771
11
4.3297244094488185
21
-2.3425196850393699
0
LINE
8
BLACK
6
CONTINUOUS
10
4.3297244094488185
20
-2.3425196850393699
11
4.3297244094488185
21
-2.2795275590551181
0
LINE
8
BLACK
6
CONTINUOUS
10
4.3297244094488185
20
-2.2795275590551181
11
4.3297993307086617
21
-2.2791509055118109
0
LINE
8
BLACK
6
CONTINUOUS
10
4.3297993307086617
20
-2.2791509055118109
11
4.3303320078740155
21
-2.2786182283464567
0
LINE
8
BLACK
6
CONTINUOUS
10
4.3303320078740155
20
-2.2786182283464567
11
4.3307086614173231
21
-2.2785433070866139
0
LINE
8
BLACK
6
CONTINUOUS
10
4.3307086614173231
20
-2.2785433070866139
11
4.4872047244094491
21
-2.2785433070866139
0
LINE
8
BLACK
6
CONTINUOUS
10
4.4872047244094491
20
-2.2785433070866139
11
4.4872047244094491
21
-2.1109221259842519
0
LINE
8
BLACK
6
CONTINUOUS
10
4.4872047244094491
20
-2.1109221259842519
11
4.124818503937008
21
-2.1109221259842519
  0
ENDSEC
  0
EOF
