%TF.GenerationSoftware,KiCad,Pcbnew,9.0.4*%
%TF.CreationDate,2025-11-09T15:05:15+13:00*%
%TF.ProjectId,AWS_CPU_Motherboard,4157535f-4350-4555-9f4d-6f7468657262,rev?*%
%TF.SameCoordinates,Original*%
%TF.FileFunction,Copper,L3,Inr*%
%TF.FilePolarity,Positive*%
%FSLAX46Y46*%
G04 Gerber Fmt 4.6, Leading zero omitted, Abs format (unit mm)*
G04 Created by KiCad (PCBNEW 9.0.4) date 2025-11-09 15:05:15*
%MOMM*%
%LPD*%
G01*
G04 APERTURE LIST*
G04 Aperture macros list*
%AMRoundRect*
0 Rectangle with rounded corners*
0 $1 Rounding radius*
0 $2 $3 $4 $5 $6 $7 $8 $9 X,Y pos of 4 corners*
0 Add a 4 corners polygon primitive as box body*
4,1,4,$2,$3,$4,$5,$6,$7,$8,$9,$2,$3,0*
0 Add four circle primitives for the rounded corners*
1,1,$1+$1,$2,$3*
1,1,$1+$1,$4,$5*
1,1,$1+$1,$6,$7*
1,1,$1+$1,$8,$9*
0 Add four rect primitives between the rounded corners*
20,1,$1+$1,$2,$3,$4,$5,0*
20,1,$1+$1,$4,$5,$6,$7,0*
20,1,$1+$1,$6,$7,$8,$9,0*
20,1,$1+$1,$8,$9,$2,$3,0*%
G04 Aperture macros list end*
%TA.AperFunction,ComponentPad*%
%ADD10R,1.700000X1.700000*%
%TD*%
%TA.AperFunction,ComponentPad*%
%ADD11C,1.700000*%
%TD*%
%TA.AperFunction,ComponentPad*%
%ADD12C,1.400000*%
%TD*%
%TA.AperFunction,ComponentPad*%
%ADD13RoundRect,0.250000X0.600000X0.600000X-0.600000X0.600000X-0.600000X-0.600000X0.600000X-0.600000X0*%
%TD*%
%TA.AperFunction,ComponentPad*%
%ADD14C,2.000000*%
%TD*%
%TA.AperFunction,ComponentPad*%
%ADD15C,4.000000*%
%TD*%
%TA.AperFunction,ComponentPad*%
%ADD16R,1.600000X1.600000*%
%TD*%
%TA.AperFunction,ComponentPad*%
%ADD17C,1.600000*%
%TD*%
%TA.AperFunction,ComponentPad*%
%ADD18R,2.780000X2.780000*%
%TD*%
%TA.AperFunction,ComponentPad*%
%ADD19C,2.780000*%
%TD*%
%TA.AperFunction,ComponentPad*%
%ADD20C,2.340000*%
%TD*%
%TA.AperFunction,ComponentPad*%
%ADD21C,1.800000*%
%TD*%
%TA.AperFunction,ComponentPad*%
%ADD22C,4.400000*%
%TD*%
%TA.AperFunction,ComponentPad*%
%ADD23R,1.300000X1.300000*%
%TD*%
%TA.AperFunction,ComponentPad*%
%ADD24C,1.300000*%
%TD*%
%TA.AperFunction,ComponentPad*%
%ADD25RoundRect,0.250000X0.550000X-0.950000X0.550000X0.950000X-0.550000X0.950000X-0.550000X-0.950000X0*%
%TD*%
%TA.AperFunction,ComponentPad*%
%ADD26O,1.600000X2.400000*%
%TD*%
%TA.AperFunction,ComponentPad*%
%ADD27RoundRect,0.250000X0.600000X-0.600000X0.600000X0.600000X-0.600000X0.600000X-0.600000X-0.600000X0*%
%TD*%
%TA.AperFunction,ComponentPad*%
%ADD28RoundRect,0.250000X-0.550000X0.950000X-0.550000X-0.950000X0.550000X-0.950000X0.550000X0.950000X0*%
%TD*%
%TA.AperFunction,ComponentPad*%
%ADD29R,3.300000X6.600000*%
%TD*%
%TA.AperFunction,ComponentPad*%
%ADD30O,3.300000X6.600000*%
%TD*%
%TA.AperFunction,ComponentPad*%
%ADD31O,1.800000X3.600000*%
%TD*%
%TA.AperFunction,ComponentPad*%
%ADD32O,4.200000X2.100000*%
%TD*%
%TA.AperFunction,ComponentPad*%
%ADD33R,1.800000X1.800000*%
%TD*%
%TA.AperFunction,ViaPad*%
%ADD34C,0.600000*%
%TD*%
%TA.AperFunction,Conductor*%
%ADD35C,0.800000*%
%TD*%
%TA.AperFunction,Conductor*%
%ADD36C,0.200000*%
%TD*%
%TA.AperFunction,Profile*%
%ADD37C,0.050000*%
%TD*%
G04 APERTURE END LIST*
D10*
%TO.N,DRTYPE0-*%
%TO.C,J6*%
X442590000Y-276098000D03*
D11*
%TO.N,DRTYPE1-*%
X445130000Y-276098000D03*
%TD*%
D12*
%TO.N,/VIDEO_2*%
%TO.C,R9*%
X403199600Y-348183200D03*
%TO.N,Net-(Q2-B)*%
X403199600Y-340563200D03*
%TD*%
D10*
%TO.N,GND*%
%TO.C,JP3*%
X319212400Y-320598800D03*
D11*
%TO.N,Net-(JP3-C)*%
X319212400Y-323138800D03*
%TO.N,+5V*%
X319212400Y-325678800D03*
%TD*%
D13*
%TO.N,+5V*%
%TO.C,U1*%
X439420000Y-345440000D03*
D11*
X436880000Y-345440000D03*
%TO.N,+12V*%
X439420000Y-347980000D03*
X436880000Y-347980000D03*
%TO.N,GND*%
X439420000Y-350520000D03*
X436880000Y-350520000D03*
%TO.N,~{RESET_SW}*%
X439420000Y-353060000D03*
%TO.N,AUIDO+*%
X436880000Y-353060000D03*
%TO.N,KBDO-*%
X439420000Y-355600000D03*
%TO.N,KBDI-*%
X436880000Y-355600000D03*
%TO.N,INIT-*%
X439420000Y-358140000D03*
%TO.N,unconnected-(U1-Pad12)*%
X436880000Y-358140000D03*
%TO.N,ONBDINIT+*%
X439420000Y-360680000D03*
%TO.N,INTR+*%
X436880000Y-360680000D03*
%TO.N,GND*%
X439420000Y-363220000D03*
X436880000Y-363220000D03*
%TO.N,CPU_RXDA+*%
X439420000Y-365760000D03*
X436880000Y-365760000D03*
%TO.N,CPU_RXDA-*%
X439420000Y-368300000D03*
X436880000Y-368300000D03*
%TO.N,CPU_RXCA+*%
X439420000Y-370840000D03*
X436880000Y-370840000D03*
%TO.N,CPU_RXCA-*%
X439420000Y-373380000D03*
X436880000Y-373380000D03*
%TO.N,GND*%
X439420000Y-375920000D03*
X436880000Y-375920000D03*
%TO.N,VIDEO_2+*%
X439420000Y-378460000D03*
%TO.N,VIDEO_2-*%
X436880000Y-378460000D03*
%TO.N,VERDR+*%
X439420000Y-381000000D03*
%TO.N,VERDR-*%
X436880000Y-381000000D03*
%TO.N,HORDR+*%
X439420000Y-383540000D03*
%TO.N,HORDR-*%
X436880000Y-383540000D03*
%TO.N,VIDEO+*%
X439420000Y-386080000D03*
%TO.N,VIDEO-*%
X436880000Y-386080000D03*
%TO.N,GND*%
X439420000Y-388620000D03*
X436880000Y-388620000D03*
%TO.N,-12V*%
X439420000Y-391160000D03*
X436880000Y-391160000D03*
%TO.N,+5V*%
X439420000Y-393700000D03*
X436880000Y-393700000D03*
%TO.N,unconnected-(U1-Pad41)*%
X439420000Y-396240000D03*
%TO.N,unconnected-(U1-Pad42)*%
X436880000Y-396240000D03*
%TO.N,unconnected-(U1-Pad43)*%
X439420000Y-398780000D03*
%TO.N,unconnected-(U1-Pad44)*%
X436880000Y-398780000D03*
%TO.N,unconnected-(U1-Pad45)*%
X439420000Y-401320000D03*
%TO.N,unconnected-(U1-Pad46)*%
X436880000Y-401320000D03*
%TO.N,unconnected-(U1-Pad47)*%
X439420000Y-403860000D03*
%TO.N,unconnected-(U1-Pad48)*%
X436880000Y-403860000D03*
%TO.N,unconnected-(U1-Pad49)*%
X439420000Y-406400000D03*
%TO.N,unconnected-(U1-Pad50)*%
X436880000Y-406400000D03*
%TD*%
D10*
%TO.N,+5V*%
%TO.C,U4*%
X450469000Y-345440000D03*
D11*
X447929000Y-345440000D03*
%TO.N,+12V*%
X450469000Y-347980000D03*
X447929000Y-347980000D03*
%TO.N,GND*%
X450469000Y-350520000D03*
%TO.N,2SIDED-*%
X447929000Y-350520000D03*
%TO.N,DIRECT-*%
X450469000Y-353060000D03*
%TO.N,DS1-*%
X447929000Y-353060000D03*
%TO.N,STEP-*%
X450469000Y-355600000D03*
%TO.N,READY-*%
X447929000Y-355600000D03*
%TO.N,INDEX-*%
X450469000Y-358140000D03*
%TO.N,HDSEL1-*%
X447929000Y-358140000D03*
%TO.N,ONBDINIT+*%
X450469000Y-360680000D03*
%TO.N,INTR+*%
X447929000Y-360680000D03*
%TO.N,GND*%
X450469000Y-363220000D03*
%TO.N,SIDED-*%
X447929000Y-363220000D03*
%TO.N,HDSEL0-*%
X450469000Y-365760000D03*
%TO.N,WRPORT-*%
X447929000Y-365760000D03*
%TO.N,DS0-*%
X450469000Y-368300000D03*
%TO.N,HL1+*%
X447929000Y-368300000D03*
%TO.N,WRDATA-*%
X450469000Y-370840000D03*
%TO.N,HL0+*%
X447929000Y-370840000D03*
%TO.N,TXDB-*%
X450469000Y-373380000D03*
%TO.N,RDDATA-*%
X447929000Y-373380000D03*
%TO.N,GND*%
X450469000Y-375920000D03*
%TO.N,STDB-*%
X447929000Y-375920000D03*
%TO.N,RXDB-*%
X450469000Y-378460000D03*
%TO.N,TXCB+*%
X447929000Y-378460000D03*
%TO.N,RXCB+*%
X450469000Y-381000000D03*
%TO.N,RTSB+*%
X447929000Y-381000000D03*
%TO.N,DSRB+*%
X450469000Y-383540000D03*
%TO.N,CTSB+*%
X447929000Y-383540000D03*
%TO.N,DCDB+*%
X450469000Y-386080000D03*
%TO.N,DTRB+*%
X447929000Y-386080000D03*
%TO.N,GND*%
X450469000Y-388620000D03*
%TO.N,SRDB-*%
X447929000Y-388620000D03*
%TO.N,-12V*%
X450469000Y-391160000D03*
X447929000Y-391160000D03*
%TO.N,+5V*%
X450469000Y-393700000D03*
X447929000Y-393700000D03*
%TO.N,RINGB+*%
X450469000Y-396240000D03*
%TO.N,SRDA-*%
X447929000Y-396240000D03*
%TO.N,STDA-*%
X450469000Y-398780000D03*
%TO.N,TXDA-*%
X447929000Y-398780000D03*
%TO.N,GND*%
X450469000Y-401320000D03*
%TO.N,TXCA+*%
X447929000Y-401320000D03*
%TO.N,RXDA-*%
X450469000Y-403860000D03*
%TO.N,RTSA+*%
X447929000Y-403860000D03*
%TO.N,RXCA+*%
X450469000Y-406400000D03*
%TO.N,CTSA+*%
X447929000Y-406400000D03*
%TO.N,DSRA+*%
X450469000Y-408940000D03*
%TO.N,DTRA+*%
X447929000Y-408940000D03*
%TO.N,DCDA+*%
X450469000Y-411480000D03*
%TO.N,RINGA+*%
X447929000Y-411480000D03*
%TO.N,GND*%
X450469000Y-414020000D03*
%TO.N,LPT1*%
X447929000Y-414020000D03*
%TO.N,LPT2*%
X450469000Y-416560000D03*
%TO.N,LPT3*%
X447929000Y-416560000D03*
%TO.N,LPT4*%
X450469000Y-419100000D03*
%TO.N,LPT5*%
X447929000Y-419100000D03*
%TO.N,LPT6*%
X450469000Y-421640000D03*
%TO.N,LPT7*%
X447929000Y-421640000D03*
%TO.N,LPT0*%
X450469000Y-424180000D03*
%TO.N,LPT_STROBE*%
X447929000Y-424180000D03*
%TO.N,GND*%
X450469000Y-426720000D03*
%TO.N,LPT_ACK*%
X447929000Y-426720000D03*
%TO.N,LPT_BUSY*%
X450469000Y-429260000D03*
%TO.N,NO_PAPER*%
X447929000Y-429260000D03*
%TO.N,LPT_SELECT*%
X450469000Y-431800000D03*
%TO.N,TRACK0-*%
X447929000Y-431800000D03*
%TO.N,SKCOMPL-*%
X450469000Y-434340000D03*
%TO.N,WRGATE-*%
X447929000Y-434340000D03*
%TO.N,HDSEL2-*%
X450469000Y-436880000D03*
%TO.N,REDWC-*%
X447929000Y-436880000D03*
%TO.N,unconnected-(U4-Pad75)*%
X450469000Y-439420000D03*
%TO.N,GND*%
X447929000Y-439420000D03*
%TO.N,MFM-*%
X450469000Y-441960000D03*
%TO.N,MFM+*%
X447929000Y-441960000D03*
%TO.N,WMF-*%
X450469000Y-444500000D03*
%TO.N,WMF+*%
X447929000Y-444500000D03*
%TD*%
D14*
%TO.N,~{RESET_SW}*%
%TO.C,SW1*%
X429564800Y-266801600D03*
X436064800Y-266801600D03*
%TO.N,GND*%
X429564800Y-271301600D03*
X436064800Y-271301600D03*
%TD*%
D15*
%TO.N,unconnected-(J9-PAD-Pad0)_1*%
%TO.C,J9*%
X257810000Y-336440000D03*
%TO.N,unconnected-(J9-PAD-Pad0)*%
X257810000Y-383540000D03*
D16*
%TO.N,GND*%
X259230000Y-343370000D03*
D17*
%TO.N,TXDA-*%
X259230000Y-346140000D03*
%TO.N,RXDA-*%
X259230000Y-348910000D03*
%TO.N,RTSA+*%
X259230000Y-351680000D03*
%TO.N,CTSA+*%
X259230000Y-354450000D03*
%TO.N,DSRA+*%
X259230000Y-357220000D03*
%TO.N,GND*%
X259230000Y-359990000D03*
%TO.N,DCDA+*%
X259230000Y-362760000D03*
%TO.N,GND*%
X259230000Y-365530000D03*
%TO.N,unconnected-(J9-Pad10)*%
X259230000Y-368300000D03*
%TO.N,unconnected-(J9-Pad11)*%
X259230000Y-371070000D03*
%TO.N,unconnected-(J9-Pad12)*%
X259230000Y-373840000D03*
%TO.N,unconnected-(J9-Pad13)*%
X259230000Y-376610000D03*
%TO.N,STDA-*%
X256390000Y-344755000D03*
%TO.N,TXCA+*%
X256390000Y-347525000D03*
%TO.N,SRDA-*%
X256390000Y-350295000D03*
%TO.N,RXCA+*%
X256390000Y-353065000D03*
%TO.N,unconnected-(J9-P18-Pad18)*%
X256390000Y-355835000D03*
%TO.N,unconnected-(J9-P19-Pad19)*%
X256390000Y-358605000D03*
%TO.N,DTRA+*%
X256390000Y-361375000D03*
%TO.N,unconnected-(J9-P21-Pad21)*%
X256390000Y-364145000D03*
%TO.N,RINGA+*%
X256390000Y-366915000D03*
%TO.N,unconnected-(J9-P23-Pad23)*%
X256390000Y-369685000D03*
%TO.N,unconnected-(J9-P24-Pad24)*%
X256390000Y-372455000D03*
%TO.N,unconnected-(J9-P25-Pad25)*%
X256390000Y-375225000D03*
%TD*%
D18*
%TO.N,+12V*%
%TO.C,J15*%
X398145000Y-266700000D03*
D19*
%TO.N,GND*%
X403225000Y-266700000D03*
X408305000Y-266700000D03*
%TO.N,+5V*%
X413385000Y-266700000D03*
%TD*%
D15*
%TO.N,unconnected-(J8-PAD-Pad0)_1*%
%TO.C,J8*%
X257810000Y-398720000D03*
%TO.N,unconnected-(J8-PAD-Pad0)*%
X257810000Y-445820000D03*
D16*
%TO.N,LPT0*%
X259230000Y-405650000D03*
D17*
%TO.N,LPT1*%
X259230000Y-408420000D03*
%TO.N,LPT2*%
X259230000Y-411190000D03*
%TO.N,LPT3*%
X259230000Y-413960000D03*
%TO.N,LPT4*%
X259230000Y-416730000D03*
%TO.N,LPT5*%
X259230000Y-419500000D03*
%TO.N,LPT6*%
X259230000Y-422270000D03*
%TO.N,LPT7*%
X259230000Y-425040000D03*
%TO.N,GND*%
X259230000Y-427810000D03*
X259230000Y-430580000D03*
X259230000Y-433350000D03*
X259230000Y-436120000D03*
X259230000Y-438890000D03*
%TO.N,LPT_STROBE*%
X256390000Y-407035000D03*
%TO.N,GND*%
X256390000Y-409805000D03*
%TO.N,LPT_ACK*%
X256390000Y-412575000D03*
%TO.N,LPT_BUSY*%
X256390000Y-415345000D03*
%TO.N,unconnected-(J8-P18-Pad18)*%
X256390000Y-418115000D03*
%TO.N,unconnected-(J8-P19-Pad19)*%
X256390000Y-420885000D03*
%TO.N,unconnected-(J8-P20-Pad20)*%
X256390000Y-423655000D03*
%TO.N,NO_PAPER*%
X256390000Y-426425000D03*
%TO.N,LPT_SELECT*%
X256390000Y-429195000D03*
%TO.N,GND*%
X256390000Y-431965000D03*
X256390000Y-434735000D03*
X256390000Y-437505000D03*
%TD*%
D20*
%TO.N,unconnected-(RV4-Pad1)*%
%TO.C,RV4*%
X433785000Y-329675000D03*
%TO.N,Net-(J12-In)*%
X443785000Y-327175000D03*
%TO.N,Net-(R8-Pad2)*%
X433785000Y-324675000D03*
%TD*%
D12*
%TO.N,Net-(JP4-B)*%
%TO.C,R8*%
X413664400Y-340563200D03*
%TO.N,Net-(R8-Pad2)*%
X413664400Y-348183200D03*
%TD*%
D20*
%TO.N,unconnected-(RV2-Pad1)*%
%TO.C,RV2*%
X433785000Y-305975000D03*
%TO.N,Net-(J12-In)*%
X443785000Y-303475000D03*
%TO.N,Net-(R6-Pad2)*%
X433785000Y-300975000D03*
%TD*%
D21*
%TO.N,Net-(J2-Pin_2)*%
%TO.C,RV1*%
X435523000Y-282240000D03*
%TO.N,AUIDO+*%
X438023000Y-282240000D03*
%TO.N,unconnected-(RV1-Pad3)*%
X440523000Y-282240000D03*
D22*
%TO.N,unconnected-(RV1-MountPin-PadMP)_1*%
X442423000Y-289240000D03*
%TO.N,unconnected-(RV1-MountPin-PadMP)*%
X433623000Y-289240000D03*
%TD*%
D12*
%TO.N,/VIDEO*%
%TO.C,R7*%
X408686000Y-348284800D03*
%TO.N,Net-(R7-Pad2)*%
X408686000Y-340664800D03*
%TD*%
D18*
%TO.N,+12V*%
%TO.C,J5*%
X290195000Y-290195000D03*
D19*
%TO.N,GND*%
X295275000Y-290195000D03*
X300355000Y-290195000D03*
%TO.N,+5V*%
X305435000Y-290195000D03*
%TD*%
D10*
%TO.N,GND*%
%TO.C,J2*%
X428752000Y-284789800D03*
D11*
%TO.N,Net-(J2-Pin_2)*%
X428752000Y-282249800D03*
%TD*%
D15*
%TO.N,unconnected-(J7-PAD-Pad0)_1*%
%TO.C,J7*%
X406800000Y-453390000D03*
%TO.N,unconnected-(J7-PAD-Pad0)*%
X431800000Y-453390000D03*
D16*
%TO.N,KBDI-*%
X424840000Y-451970000D03*
D17*
%TO.N,GND*%
X422070000Y-451970000D03*
%TO.N,KBDO-*%
X419300000Y-451970000D03*
%TO.N,GND*%
X416530000Y-451970000D03*
%TO.N,INIT-*%
X413760000Y-451970000D03*
%TO.N,+5V*%
X423455000Y-454810000D03*
X420685000Y-454810000D03*
%TO.N,GND*%
X417915000Y-454810000D03*
X415145000Y-454810000D03*
%TD*%
D23*
%TO.N,Net-(JP4-A)*%
%TO.C,Q2*%
X323443600Y-328371200D03*
D24*
%TO.N,Net-(Q2-B)*%
X324713600Y-329641200D03*
%TO.N,GND*%
X323443600Y-330911200D03*
%TD*%
D20*
%TO.N,unconnected-(RV3-Pad1)*%
%TO.C,RV3*%
X433785000Y-317825000D03*
%TO.N,Net-(J12-In)*%
X443785000Y-315325000D03*
%TO.N,Net-(R7-Pad2)*%
X433785000Y-312825000D03*
%TD*%
D12*
%TO.N,/CSYNC+*%
%TO.C,R6*%
X407416000Y-324662800D03*
%TO.N,Net-(R6-Pad2)*%
X415036000Y-324662800D03*
%TD*%
D18*
%TO.N,+12V*%
%TO.C,J14*%
X398145000Y-278765000D03*
D19*
%TO.N,GND*%
X403225000Y-278765000D03*
X408305000Y-278765000D03*
%TO.N,+5V*%
X413385000Y-278765000D03*
%TD*%
D25*
%TO.N,Net-(JP2-C)*%
%TO.C,U8*%
X399846800Y-335991200D03*
D26*
%TO.N,/HORDR*%
X402386800Y-335991200D03*
%TO.N,Net-(U8-Pad3)*%
X404926800Y-335991200D03*
%TO.N,/VERDR*%
X407466800Y-335991200D03*
%TO.N,Net-(JP1-C)*%
X410006800Y-335991200D03*
%TO.N,Net-(U8-Pad10)*%
X412546800Y-335991200D03*
%TO.N,GND*%
X415086800Y-335991200D03*
%TO.N,Net-(U8-Pad12)*%
X415086800Y-328371200D03*
%TO.N,Net-(U8-Pad3)*%
X412546800Y-328371200D03*
%TO.N,Net-(U8-Pad10)*%
X410006800Y-328371200D03*
%TO.N,/CSYNC+*%
X407466800Y-328371200D03*
%TO.N,Net-(U8-Pad12)*%
X404926800Y-328371200D03*
%TO.N,Net-(JP3-C)*%
X402386800Y-328371200D03*
%TO.N,+5V*%
X399846800Y-328371200D03*
%TD*%
D10*
%TO.N,Net-(JP4-A)*%
%TO.C,JP4*%
X323443600Y-323189600D03*
D11*
%TO.N,Net-(JP4-B)*%
X323443600Y-320649600D03*
%TD*%
D27*
%TO.N,GND*%
%TO.C,U3*%
X332740000Y-267970000D03*
D11*
%TO.N,unconnected-(U3-Pad2)*%
X332740000Y-265430000D03*
%TO.N,GND*%
X335280000Y-267970000D03*
%TO.N,SIDED-*%
X335280000Y-265430000D03*
%TO.N,GND*%
X337820000Y-267970000D03*
%TO.N,unconnected-(U3-Pad6)*%
X337820000Y-265430000D03*
%TO.N,GND*%
X340360000Y-267970000D03*
%TO.N,HDSEL0-*%
X340360000Y-265430000D03*
%TO.N,GND*%
X342900000Y-267970000D03*
%TO.N,DS1-*%
X342900000Y-265430000D03*
%TO.N,GND*%
X345440000Y-267970000D03*
%TO.N,unconnected-(U3-Pad12)*%
X345440000Y-265430000D03*
%TO.N,GND*%
X347980000Y-267970000D03*
%TO.N,unconnected-(U3-Pad14)*%
X347980000Y-265430000D03*
%TO.N,GND*%
X350520000Y-267970000D03*
%TO.N,HL1+*%
X350520000Y-265430000D03*
%TO.N,GND*%
X353060000Y-267970000D03*
%TO.N,DIRECT-*%
X353060000Y-265430000D03*
%TO.N,GND*%
X355600000Y-267970000D03*
%TO.N,STEP-*%
X355600000Y-265430000D03*
%TO.N,GND*%
X358140000Y-267970000D03*
%TO.N,WRDATA-*%
X358140000Y-265430000D03*
%TO.N,GND*%
X360680000Y-267970000D03*
%TO.N,WRGATE-*%
X360680000Y-265430000D03*
%TO.N,GND*%
X363220000Y-267970000D03*
%TO.N,TRACK0-*%
X363220000Y-265430000D03*
%TO.N,GND*%
X365760000Y-267970000D03*
%TO.N,WRPORT-*%
X365760000Y-265430000D03*
%TO.N,GND*%
X368300000Y-267970000D03*
%TO.N,RDDATA-*%
X368300000Y-265430000D03*
%TO.N,GND*%
X370840000Y-267970000D03*
%TO.N,2SIDED-*%
X370840000Y-265430000D03*
%TO.N,GND*%
X373380000Y-267970000D03*
%TO.N,READY-*%
X373380000Y-265430000D03*
%TD*%
D27*
%TO.N,GND*%
%TO.C,U5*%
X332689200Y-291150000D03*
D11*
%TO.N,REDWC-*%
X332689200Y-288610000D03*
%TO.N,GND*%
X335229200Y-291150000D03*
%TO.N,HDSEL2-*%
X335229200Y-288610000D03*
%TO.N,GND*%
X337769200Y-291150000D03*
%TO.N,WRGATE-*%
X337769200Y-288610000D03*
%TO.N,GND*%
X340309200Y-291150000D03*
%TO.N,SKCOMPL-*%
X340309200Y-288610000D03*
%TO.N,GND*%
X342849200Y-291150000D03*
%TO.N,TRACK0-*%
X342849200Y-288610000D03*
%TO.N,GND*%
X345389200Y-291150000D03*
%TO.N,WRPORT-*%
X345389200Y-288610000D03*
%TO.N,GND*%
X347929200Y-291150000D03*
%TO.N,HDSEL0-*%
X347929200Y-288610000D03*
%TO.N,GND*%
X350469200Y-291150000D03*
%TO.N,unconnected-(U5-Pad16)*%
X350469200Y-288610000D03*
%TO.N,GND*%
X353009200Y-291150000D03*
%TO.N,HDSEL1-*%
X353009200Y-288610000D03*
%TO.N,GND*%
X355549200Y-291150000D03*
%TO.N,INDEX-*%
X355549200Y-288610000D03*
%TO.N,GND*%
X358089200Y-291150000D03*
%TO.N,READY-*%
X358089200Y-288610000D03*
%TO.N,GND*%
X360629200Y-291150000D03*
%TO.N,STEP-*%
X360629200Y-288610000D03*
%TO.N,GND*%
X363169200Y-291150000D03*
%TO.N,unconnected-(U5-Pad26)*%
X363169200Y-288610000D03*
%TO.N,GND*%
X365709200Y-291150000D03*
%TO.N,DS1-*%
X365709200Y-288610000D03*
%TO.N,GND*%
X368249200Y-291150000D03*
%TO.N,DRTYPE0-*%
X368249200Y-288610000D03*
%TO.N,GND*%
X370789200Y-291150000D03*
%TO.N,DRTYPE1-*%
X370789200Y-288610000D03*
%TO.N,GND*%
X373329200Y-291150000D03*
%TO.N,DIRECT-*%
X373329200Y-288610000D03*
%TD*%
D10*
%TO.N,GND*%
%TO.C,JP2*%
X314622400Y-320598800D03*
D11*
%TO.N,Net-(JP2-C)*%
X314622400Y-323138800D03*
%TO.N,+5V*%
X314622400Y-325678800D03*
%TD*%
D28*
%TO.N,VERDR-*%
%TO.C,U7*%
X413512000Y-409498800D03*
D26*
%TO.N,VERDR+*%
X410972000Y-409498800D03*
%TO.N,/VERDR*%
X408432000Y-409498800D03*
%TO.N,+5V*%
X405892000Y-409498800D03*
%TO.N,/VIDEO_2*%
X403352000Y-409498800D03*
%TO.N,VIDEO_2+*%
X400812000Y-409498800D03*
%TO.N,VIDEO_2-*%
X398272000Y-409498800D03*
%TO.N,GND*%
X395732000Y-409498800D03*
%TO.N,HORDR-*%
X395732000Y-417118800D03*
%TO.N,HORDR+*%
X398272000Y-417118800D03*
%TO.N,/HORDR*%
X400812000Y-417118800D03*
%TO.N,GND*%
X403352000Y-417118800D03*
%TO.N,/VIDEO*%
X405892000Y-417118800D03*
%TO.N,VIDEO+*%
X408432000Y-417118800D03*
%TO.N,VIDEO-*%
X410972000Y-417118800D03*
%TO.N,+5V*%
X413512000Y-417118800D03*
%TD*%
D12*
%TO.N,VERDR-*%
%TO.C,R2*%
X417677600Y-406196800D03*
%TO.N,VERDR+*%
X410057600Y-406196800D03*
%TD*%
D15*
%TO.N,unconnected-(J4-PAD-Pad0)_1*%
%TO.C,J4*%
X311350000Y-453390000D03*
%TO.N,unconnected-(J4-PAD-Pad0)*%
X336350000Y-453390000D03*
D16*
%TO.N,GND*%
X329390000Y-451970000D03*
D17*
X326620000Y-451970000D03*
X323850000Y-451970000D03*
X321080000Y-451970000D03*
X318310000Y-451970000D03*
%TO.N,CPU_RXCA+*%
X328005000Y-454810000D03*
%TO.N,CPU_RXCA-*%
X325235000Y-454810000D03*
%TO.N,CPU_RXDA+*%
X322465000Y-454810000D03*
%TO.N,CPU_RXDA-*%
X319695000Y-454810000D03*
%TD*%
D15*
%TO.N,unconnected-(J3-PAD-Pad0)*%
%TO.C,J3*%
X265630000Y-453390000D03*
%TO.N,unconnected-(J3-PAD-Pad0)_1*%
X290630000Y-453390000D03*
D16*
%TO.N,GND*%
X283670000Y-451970000D03*
D17*
X280900000Y-451970000D03*
X278130000Y-451970000D03*
X275360000Y-451970000D03*
X272590000Y-451970000D03*
%TO.N,CPU_RXCA+*%
X282285000Y-454810000D03*
%TO.N,CPU_RXCA-*%
X279515000Y-454810000D03*
%TO.N,CPU_RXDA+*%
X276745000Y-454810000D03*
%TO.N,CPU_RXDA-*%
X273975000Y-454810000D03*
%TD*%
%TO.N,/HORDR*%
%TO.C,C2*%
X401289200Y-420217600D03*
%TO.N,GND*%
X403789200Y-420217600D03*
%TD*%
D27*
%TO.N,GND*%
%TO.C,U2*%
X332689200Y-279400000D03*
D11*
%TO.N,unconnected-(U2-Pad2)*%
X332689200Y-276860000D03*
%TO.N,GND*%
X335229200Y-279400000D03*
%TO.N,SIDED-*%
X335229200Y-276860000D03*
%TO.N,GND*%
X337769200Y-279400000D03*
%TO.N,unconnected-(U2-Pad6)*%
X337769200Y-276860000D03*
%TO.N,GND*%
X340309200Y-279400000D03*
%TO.N,HDSEL0-*%
X340309200Y-276860000D03*
%TO.N,GND*%
X342849200Y-279400000D03*
%TO.N,DS0-*%
X342849200Y-276860000D03*
%TO.N,GND*%
X345389200Y-279400000D03*
%TO.N,unconnected-(U2-Pad12)*%
X345389200Y-276860000D03*
%TO.N,GND*%
X347929200Y-279400000D03*
%TO.N,unconnected-(U2-Pad14)*%
X347929200Y-276860000D03*
%TO.N,GND*%
X350469200Y-279400000D03*
%TO.N,HL0+*%
X350469200Y-276860000D03*
%TO.N,GND*%
X353009200Y-279400000D03*
%TO.N,DIRECT-*%
X353009200Y-276860000D03*
%TO.N,GND*%
X355549200Y-279400000D03*
%TO.N,STEP-*%
X355549200Y-276860000D03*
%TO.N,GND*%
X358089200Y-279400000D03*
%TO.N,WRDATA-*%
X358089200Y-276860000D03*
%TO.N,GND*%
X360629200Y-279400000D03*
%TO.N,WRGATE-*%
X360629200Y-276860000D03*
%TO.N,GND*%
X363169200Y-279400000D03*
%TO.N,TRACK0-*%
X363169200Y-276860000D03*
%TO.N,GND*%
X365709200Y-279400000D03*
%TO.N,WRPORT-*%
X365709200Y-276860000D03*
%TO.N,GND*%
X368249200Y-279400000D03*
%TO.N,RDDATA-*%
X368249200Y-276860000D03*
%TO.N,GND*%
X370789200Y-279400000D03*
%TO.N,2SIDED-*%
X370789200Y-276860000D03*
%TO.N,GND*%
X373329200Y-279400000D03*
%TO.N,READY-*%
X373329200Y-276860000D03*
%TD*%
D12*
%TO.N,HORDR-*%
%TO.C,R5*%
X391210800Y-420319200D03*
%TO.N,HORDR+*%
X398830800Y-420319200D03*
%TD*%
%TO.N,VIDEO-*%
%TO.C,R3*%
X413969200Y-419760400D03*
%TO.N,VIDEO+*%
X406349200Y-419760400D03*
%TD*%
D10*
%TO.N,GND*%
%TO.C,JP1*%
X310032400Y-320598800D03*
D11*
%TO.N,Net-(JP1-C)*%
X310032400Y-323138800D03*
%TO.N,+5V*%
X310032400Y-325678800D03*
%TD*%
D12*
%TO.N,VIDEO_2-*%
%TO.C,R4*%
X395630400Y-406196800D03*
%TO.N,VIDEO_2+*%
X403250400Y-406196800D03*
%TD*%
D29*
%TO.N,+5V*%
%TO.C,J1*%
X314198000Y-272338800D03*
D30*
%TO.N,+12V*%
X304198000Y-272338800D03*
%TO.N,GND*%
X294198000Y-272338800D03*
%TO.N,-12V*%
X284198000Y-272338800D03*
%TD*%
D15*
%TO.N,unconnected-(J10-PAD-Pad0)*%
%TO.C,J10*%
X257810000Y-274320000D03*
%TO.N,unconnected-(J10-PAD-Pad0)_1*%
X257810000Y-321420000D03*
D16*
%TO.N,GND*%
X259230000Y-281250000D03*
D17*
%TO.N,TXDB-*%
X259230000Y-284020000D03*
%TO.N,RXDB-*%
X259230000Y-286790000D03*
%TO.N,RTSB+*%
X259230000Y-289560000D03*
%TO.N,CTSB+*%
X259230000Y-292330000D03*
%TO.N,DSRB+*%
X259230000Y-295100000D03*
%TO.N,GND*%
X259230000Y-297870000D03*
%TO.N,DCDB+*%
X259230000Y-300640000D03*
%TO.N,GND*%
X259230000Y-303410000D03*
%TO.N,unconnected-(J10-Pad10)*%
X259230000Y-306180000D03*
%TO.N,unconnected-(J10-Pad11)*%
X259230000Y-308950000D03*
%TO.N,unconnected-(J10-Pad12)*%
X259230000Y-311720000D03*
%TO.N,unconnected-(J10-Pad13)*%
X259230000Y-314490000D03*
%TO.N,STDB-*%
X256390000Y-282635000D03*
%TO.N,TXCB+*%
X256390000Y-285405000D03*
%TO.N,SRDB-*%
X256390000Y-288175000D03*
%TO.N,RXCB+*%
X256390000Y-290945000D03*
%TO.N,unconnected-(J10-P18-Pad18)*%
X256390000Y-293715000D03*
%TO.N,unconnected-(J10-P19-Pad19)*%
X256390000Y-296485000D03*
%TO.N,DTRB+*%
X256390000Y-299255000D03*
%TO.N,unconnected-(J10-P21-Pad21)*%
X256390000Y-302025000D03*
%TO.N,RINGB+*%
X256390000Y-304795000D03*
%TO.N,unconnected-(J10-P23-Pad23)*%
X256390000Y-307565000D03*
%TO.N,unconnected-(J10-P24-Pad24)*%
X256390000Y-310335000D03*
%TO.N,unconnected-(J10-P25-Pad25)*%
X256390000Y-313105000D03*
%TD*%
D31*
%TO.N,Net-(J12-In)*%
%TO.C,J12*%
X273488800Y-278587200D03*
X265988800Y-278587200D03*
D32*
%TO.N,GND*%
X269738800Y-274887200D03*
%TD*%
D12*
%TO.N,+5V*%
%TO.C,R1*%
X445262000Y-451104000D03*
%TO.N,Net-(D1-A)*%
X437642000Y-451104000D03*
%TD*%
D27*
%TO.N,unconnected-(U6-Pad1)*%
%TO.C,U6*%
X394335000Y-291150000D03*
D11*
%TO.N,GND*%
X394335000Y-288610000D03*
%TO.N,unconnected-(U6-Pad3)*%
X396875000Y-291150000D03*
%TO.N,GND*%
X396875000Y-288610000D03*
%TO.N,unconnected-(U6-Pad5)*%
X399415000Y-291150000D03*
%TO.N,GND*%
X399415000Y-288610000D03*
%TO.N,unconnected-(U6-Pad7)*%
X401955000Y-291150000D03*
%TO.N,GND*%
X401955000Y-288610000D03*
%TO.N,unconnected-(U6-Pad9)*%
X404495000Y-291150000D03*
%TO.N,GND*%
X404495000Y-288610000D03*
X407035000Y-291150000D03*
X407035000Y-288610000D03*
%TO.N,WMF+*%
X409575000Y-291150000D03*
%TO.N,WMF-*%
X409575000Y-288610000D03*
%TO.N,GND*%
X412115000Y-291150000D03*
X412115000Y-288610000D03*
%TO.N,MFM+*%
X414655000Y-291150000D03*
%TO.N,MFM-*%
X414655000Y-288610000D03*
%TO.N,GND*%
X417195000Y-291150000D03*
X417195000Y-288610000D03*
%TD*%
D17*
%TO.N,/VERDR*%
%TO.C,C1*%
X407904000Y-406196800D03*
%TO.N,GND*%
X405404000Y-406196800D03*
%TD*%
D33*
%TO.N,GND*%
%TO.C,D1*%
X438150000Y-457835000D03*
D21*
%TO.N,Net-(D1-A)*%
X440690000Y-457835000D03*
%TD*%
D34*
%TO.N,GND*%
X270474362Y-368249139D03*
X358851200Y-284073600D03*
X274104649Y-402277032D03*
X355803200Y-272288000D03*
X293827200Y-303682400D03*
X368452400Y-272338800D03*
X317652400Y-368147600D03*
X379933200Y-272084800D03*
X318465200Y-303225200D03*
X305179908Y-355518931D03*
X443941200Y-280466800D03*
X293268400Y-344119200D03*
X297434000Y-398475200D03*
X267208000Y-346760800D03*
X363524800Y-283718000D03*
X422098872Y-277903482D03*
X415848800Y-417372800D03*
X285237530Y-337657918D03*
X275798783Y-327444710D03*
X386384800Y-304850800D03*
X325780400Y-388569200D03*
X318312800Y-407619200D03*
X313892598Y-417137008D03*
X289509200Y-416052000D03*
X387908800Y-265633200D03*
X415290000Y-402031200D03*
X315112400Y-387400800D03*
X430987200Y-361594400D03*
X369163600Y-408990800D03*
X375666000Y-280263600D03*
X405892000Y-304952400D03*
X324967600Y-375158000D03*
X372313200Y-284226000D03*
X421386000Y-409956000D03*
X422486102Y-267028755D03*
X277622000Y-350824800D03*
X346964000Y-414629600D03*
X370789200Y-362000800D03*
X345490800Y-403758400D03*
X387502400Y-277926800D03*
X363677200Y-361543600D03*
X375361200Y-361848400D03*
X267055600Y-317500000D03*
X358952800Y-406958800D03*
X346354400Y-272288000D03*
X388416800Y-415340800D03*
X286054800Y-359562400D03*
X273710400Y-385673600D03*
X305179908Y-378607559D03*
X296164000Y-369925600D03*
X431038000Y-366369600D03*
X400862800Y-361645200D03*
X349199200Y-284124400D03*
%TO.N,STEP-*%
X361950000Y-348030800D03*
%TO.N,HL0+*%
X351790000Y-370713000D03*
%TO.N,2SIDED-*%
X376682000Y-351663000D03*
%TO.N,WRDATA-*%
X381254000Y-370713000D03*
%TO.N,RDDATA-*%
X379857000Y-373126000D03*
%TO.N,SIDED-*%
X342773000Y-363347000D03*
%TO.N,WRGATE-*%
X425831000Y-441198000D03*
%TO.N,WRPORT-*%
X372110000Y-367030000D03*
%TO.N,READY-*%
X359240200Y-352298000D03*
%TO.N,TRACK0-*%
X425831000Y-439836000D03*
%TO.N,DS0-*%
X344238200Y-363855000D03*
%TO.N,HDSEL0-*%
X349080200Y-362415200D03*
%TO.N,DIRECT-*%
X374523000Y-351637600D03*
%TO.N,HL1+*%
X348551500Y-365823500D03*
%TO.N,DS1-*%
X367030000Y-348107000D03*
%TO.N,HDSEL2-*%
X430911000Y-441833000D03*
%TO.N,LPT6*%
X445135000Y-423418000D03*
%TO.N,LPT_BUSY*%
X445282235Y-431779765D03*
%TO.N,INDEX-*%
X356870000Y-352196400D03*
%TO.N,LPT_STROBE*%
X445135000Y-415417000D03*
%TO.N,HDSEL1-*%
X354398200Y-352239200D03*
%TO.N,REDWC-*%
X428244000Y-442595000D03*
%TO.N,SKCOMPL-*%
X430022000Y-439039000D03*
%TO.N,VERDR+*%
X434136800Y-380625000D03*
%TO.N,LPT0*%
X444449200Y-433070000D03*
%TO.N,CPU_RXCA+*%
X410464000Y-370840000D03*
%TO.N,CPU_RXDA-*%
X406146000Y-368300000D03*
X316484000Y-458851000D03*
%TO.N,CPU_RXDA+*%
X321056000Y-457962000D03*
X407289000Y-365760000D03*
%TO.N,CPU_RXCA-*%
X323850000Y-457200000D03*
X409448000Y-373380000D03*
%TO.N,TXCA+*%
X260858000Y-351155000D03*
%TO.N,TXDA-*%
X264287000Y-351155000D03*
%TD*%
D35*
%TO.N,+12V*%
X394716000Y-263271000D02*
X398145000Y-266700000D01*
X304198000Y-272338800D02*
X297815000Y-278721800D01*
X306959000Y-263271000D02*
X394716000Y-263271000D01*
X449834000Y-333502000D02*
X444246000Y-339090000D01*
X443357000Y-347980000D02*
X439420000Y-347980000D01*
X444246000Y-347091000D02*
X443357000Y-347980000D01*
X444246000Y-339090000D02*
X444246000Y-347091000D01*
X297815000Y-282575000D02*
X290195000Y-290195000D01*
X398145000Y-266700000D02*
X401828000Y-263017000D01*
X401828000Y-263017000D02*
X437515000Y-263017000D01*
X297815000Y-278721800D02*
X297815000Y-282575000D01*
X437515000Y-263017000D02*
X449834000Y-275336000D01*
X304198000Y-272338800D02*
X304198000Y-266032000D01*
X304198000Y-266032000D02*
X306959000Y-263271000D01*
X439420000Y-347980000D02*
X436880000Y-347980000D01*
X449834000Y-275336000D02*
X449834000Y-333502000D01*
X398145000Y-266700000D02*
X398145000Y-278765000D01*
%TO.N,-12V*%
X284198000Y-266032000D02*
X288483000Y-261747000D01*
X288483000Y-261747000D02*
X445262000Y-261747000D01*
X445643000Y-339108628D02*
X445643000Y-391160000D01*
X439420000Y-391160000D02*
X445643000Y-391160000D01*
X450835000Y-333916628D02*
X445643000Y-339108628D01*
X436880000Y-391160000D02*
X439420000Y-391160000D01*
X284198000Y-272338800D02*
X284198000Y-266032000D01*
X445643000Y-391160000D02*
X450469000Y-391160000D01*
X450835000Y-267320000D02*
X450835000Y-333916628D01*
X445262000Y-261747000D02*
X450835000Y-267320000D01*
%TO.N,GND*%
X436880000Y-388620000D02*
X439420000Y-388620000D01*
%TO.N,+5V*%
X447929000Y-393700000D02*
X450469000Y-393700000D01*
X436880000Y-393700000D02*
X439420000Y-393700000D01*
D36*
%TO.N,Net-(J2-Pin_2)*%
X428761800Y-282240000D02*
X428752000Y-282249800D01*
X435523000Y-282240000D02*
X428761800Y-282240000D01*
%TO.N,AUIDO+*%
X435813200Y-353060000D02*
X436880000Y-353060000D01*
X438023000Y-282240000D02*
X438023000Y-339572600D01*
X438023000Y-339572600D02*
X434086000Y-343509600D01*
X434086000Y-351332800D02*
X435813200Y-353060000D01*
X434086000Y-343509600D02*
X434086000Y-351332800D01*
%TO.N,~{RESET_SW}*%
X438147600Y-266801600D02*
X448437000Y-277091000D01*
X448437000Y-331470000D02*
X435229000Y-344678000D01*
X448437000Y-277091000D02*
X448437000Y-331470000D01*
X438031000Y-351671000D02*
X439420000Y-353060000D01*
X435745000Y-351671000D02*
X438031000Y-351671000D01*
X435229000Y-351155000D02*
X435745000Y-351671000D01*
X429564800Y-266801600D02*
X436064800Y-266801600D01*
X436064800Y-266801600D02*
X438147600Y-266801600D01*
X435229000Y-344678000D02*
X435229000Y-351155000D01*
%TO.N,SIDED-*%
X336423000Y-280416000D02*
X336423000Y-278053800D01*
X336423000Y-278053800D02*
X335229200Y-276860000D01*
X341630000Y-362204000D02*
X341630000Y-285623000D01*
X341630000Y-285623000D02*
X336423000Y-280416000D01*
X342773000Y-363347000D02*
X341630000Y-362204000D01*
%TO.N,DIRECT-*%
X354160200Y-278011000D02*
X353009200Y-276860000D01*
X358428000Y-285276000D02*
X354160200Y-281008200D01*
X369995200Y-285276000D02*
X358428000Y-285276000D01*
X354160200Y-281008200D02*
X354160200Y-278011000D01*
X373329200Y-288610000D02*
X369995200Y-285276000D01*
%TO.N,WMF-*%
X409575000Y-288610000D02*
X409125000Y-289060000D01*
X408424000Y-290673240D02*
X408424000Y-291626760D01*
X447452240Y-445651000D02*
X448405760Y-445651000D01*
X448405760Y-445651000D02*
X449106760Y-444950000D01*
X450019000Y-444950000D02*
X450469000Y-444500000D01*
X446751240Y-444950000D02*
X447452240Y-445651000D01*
X445266802Y-444950000D02*
X446751240Y-444950000D01*
X409125000Y-289972240D02*
X408424000Y-290673240D01*
X422452800Y-422135998D02*
X445266802Y-444950000D01*
X422452800Y-305655560D02*
X422452800Y-422135998D01*
X449106760Y-444950000D02*
X450019000Y-444950000D01*
X409125000Y-289060000D02*
X409125000Y-289972240D01*
X408424000Y-291626760D02*
X422452800Y-305655560D01*
%TO.N,MFM+*%
X445580198Y-441960000D02*
X447929000Y-441960000D01*
X414655000Y-291150000D02*
X424484800Y-300979800D01*
X424484800Y-300979800D02*
X424484800Y-420864602D01*
X424484800Y-420864602D02*
X445580198Y-441960000D01*
%TO.N,WMF+*%
X445453198Y-444500000D02*
X447929000Y-444500000D01*
X422902800Y-304477800D02*
X422902800Y-421949602D01*
X409575000Y-291150000D02*
X422902800Y-304477800D01*
X422902800Y-421949602D02*
X445453198Y-444500000D01*
%TO.N,MFM-*%
X448405760Y-443111000D02*
X449106760Y-442410000D01*
X413504000Y-291626760D02*
X424034800Y-302157560D01*
X445393802Y-442410000D02*
X446751240Y-442410000D01*
X414205000Y-289060000D02*
X414205000Y-289972240D01*
X450019000Y-442410000D02*
X450469000Y-441960000D01*
X424034800Y-421050998D02*
X445393802Y-442410000D01*
X424034800Y-302157560D02*
X424034800Y-421050998D01*
X449106760Y-442410000D02*
X450019000Y-442410000D01*
X414205000Y-289972240D02*
X413504000Y-290673240D01*
X447452240Y-443111000D02*
X448405760Y-443111000D01*
X446751240Y-442410000D02*
X447452240Y-443111000D01*
X414655000Y-288610000D02*
X414205000Y-289060000D01*
X413504000Y-290673240D02*
X413504000Y-291626760D01*
%TO.N,VERDR+*%
X439420000Y-381000000D02*
X438269000Y-379849000D01*
X438269000Y-379849000D02*
X434912800Y-379849000D01*
X434912800Y-379849000D02*
X434136800Y-380625000D01*
%TO.N,CPU_RXCA+*%
X410464000Y-384937000D02*
X345186000Y-450215000D01*
X328005000Y-450886000D02*
X328005000Y-454810000D01*
X328676000Y-450215000D02*
X328005000Y-450886000D01*
X345186000Y-450215000D02*
X328676000Y-450215000D01*
X410464000Y-370840000D02*
X410464000Y-384937000D01*
%TO.N,CPU_RXDA-*%
X344170000Y-447040000D02*
X321945000Y-447040000D01*
X319695000Y-449290000D02*
X319695000Y-454810000D01*
X321945000Y-447040000D02*
X319695000Y-449290000D01*
X406146000Y-385064000D02*
X344170000Y-447040000D01*
X406146000Y-368300000D02*
X406146000Y-385064000D01*
%TO.N,CPU_RXDA+*%
X407289000Y-365760000D02*
X407289000Y-385318000D01*
X322465000Y-449314000D02*
X322465000Y-454810000D01*
X323723000Y-448056000D02*
X322465000Y-449314000D01*
X344551000Y-448056000D02*
X323723000Y-448056000D01*
X407289000Y-385318000D02*
X344551000Y-448056000D01*
%TO.N,CPU_RXCA-*%
X344932000Y-449326000D02*
X325882000Y-449326000D01*
X325882000Y-449326000D02*
X325235000Y-449973000D01*
X409448000Y-384810000D02*
X344932000Y-449326000D01*
X325235000Y-449973000D02*
X325235000Y-454810000D01*
X409448000Y-373380000D02*
X409448000Y-384810000D01*
%TO.N,/HORDR*%
X402386800Y-335991200D02*
X405536400Y-339140800D01*
X416661600Y-352399600D02*
X416661600Y-414223200D01*
X416661600Y-414223200D02*
X403707600Y-414223200D01*
X408787600Y-352399600D02*
X405536400Y-349148400D01*
X416661600Y-352399600D02*
X408787600Y-352399600D01*
X405536400Y-339140800D02*
X405536400Y-349148400D01*
X403707600Y-414223200D02*
X400812000Y-417118800D01*
%TO.N,/VERDR*%
X401930751Y-334490200D02*
X401285800Y-335135151D01*
X414324800Y-353771200D02*
X406450800Y-353771200D01*
X405965800Y-334490200D02*
X401930751Y-334490200D01*
X407904000Y-401644800D02*
X407904000Y-406196800D01*
X414324800Y-353771200D02*
X414324800Y-395224000D01*
X414324800Y-395224000D02*
X407904000Y-401644800D01*
X401285800Y-335135151D02*
X401285800Y-348606200D01*
X407466800Y-335991200D02*
X405965800Y-334490200D01*
X406450800Y-353771200D02*
X401285800Y-348606200D01*
%TO.N,Net-(J12-In)*%
X443785000Y-303475000D02*
X443785000Y-327175000D01*
%TO.N,/VIDEO*%
X415457400Y-347182200D02*
X409788600Y-347182200D01*
X419811200Y-351536000D02*
X419811200Y-414020000D01*
X418947600Y-414883600D02*
X407720800Y-414883600D01*
X407720800Y-414883600D02*
X405892000Y-416712400D01*
X405892000Y-416712400D02*
X405892000Y-417118800D01*
X419811200Y-414020000D02*
X418947600Y-414883600D01*
X409788600Y-347182200D02*
X408686000Y-348284800D01*
X419811200Y-351536000D02*
X415457400Y-347182200D01*
%TO.N,Net-(U8-Pad3)*%
X408736800Y-336944324D02*
X408188924Y-337492200D01*
X406427800Y-337492200D02*
X404926800Y-335991200D01*
X412546800Y-328371200D02*
X408736800Y-332181200D01*
X408736800Y-332181200D02*
X408736800Y-336944324D01*
X408188924Y-337492200D02*
X406427800Y-337492200D01*
%TD*%
D37*
X248920000Y-455960000D02*
X254920000Y-461960000D01*
X248920000Y-266350000D02*
X248920000Y-455960000D01*
X446120000Y-260350000D02*
X254920000Y-260350000D01*
X452120000Y-455960000D02*
X446120000Y-461960000D01*
X446120000Y-461960000D02*
X254920000Y-461960000D01*
X452120000Y-455960000D02*
X452120000Y-266350000D01*
X254920000Y-260350000D02*
X248920000Y-266350000D01*
X446120000Y-260350000D02*
X452120000Y-266350000D01*
M02*
