%TF.GenerationSoftware,KiCad,Pcbnew,9.0.4*%
%TF.CreationDate,2025-11-09T15:05:15+13:00*%
%TF.ProjectId,AWS_CPU_Motherboard,4157535f-4350-4555-9f4d-6f7468657262,rev?*%
%TF.SameCoordinates,Original*%
%TF.FileFunction,Legend,Top*%
%TF.FilePolarity,Positive*%
%FSLAX46Y46*%
G04 Gerber Fmt 4.6, Leading zero omitted, Abs format (unit mm)*
G04 Created by KiCad (PCBNEW 9.0.4) date 2025-11-09 15:05:15*
%MOMM*%
%LPD*%
G01*
G04 APERTURE LIST*
%ADD10C,0.050000*%
%ADD11C,0.100000*%
%ADD12C,0.500000*%
%ADD13C,0.150000*%
%ADD14C,0.120000*%
%ADD15C,0.127000*%
%ADD16C,0.200000*%
%TA.AperFunction,Profile*%
%ADD17C,0.050000*%
%TD*%
G04 APERTURE END LIST*
D10*
X290195000Y-311150000D02*
X423545000Y-311150000D01*
X423545000Y-359410000D01*
X290195000Y-359410000D01*
X290195000Y-311150000D01*
D11*
X283260000Y-311150000D02*
X429260000Y-311150000D01*
X429260000Y-447150000D01*
X283260000Y-447150000D01*
X283260000Y-311150000D01*
X312165084Y-262940266D02*
X312926989Y-262940266D01*
X312546036Y-263321219D02*
X312546036Y-262559314D01*
X313879369Y-262321219D02*
X313403179Y-262321219D01*
X313403179Y-262321219D02*
X313355560Y-262797409D01*
X313355560Y-262797409D02*
X313403179Y-262749790D01*
X313403179Y-262749790D02*
X313498417Y-262702171D01*
X313498417Y-262702171D02*
X313736512Y-262702171D01*
X313736512Y-262702171D02*
X313831750Y-262749790D01*
X313831750Y-262749790D02*
X313879369Y-262797409D01*
X313879369Y-262797409D02*
X313926988Y-262892647D01*
X313926988Y-262892647D02*
X313926988Y-263130742D01*
X313926988Y-263130742D02*
X313879369Y-263225980D01*
X313879369Y-263225980D02*
X313831750Y-263273600D01*
X313831750Y-263273600D02*
X313736512Y-263321219D01*
X313736512Y-263321219D02*
X313498417Y-263321219D01*
X313498417Y-263321219D02*
X313403179Y-263273600D01*
X313403179Y-263273600D02*
X313355560Y-263225980D01*
X314212703Y-262321219D02*
X314546036Y-263321219D01*
X314546036Y-263321219D02*
X314879369Y-262321219D01*
X281735884Y-263245066D02*
X282497789Y-263245066D01*
X283497788Y-263626019D02*
X282926360Y-263626019D01*
X283212074Y-263626019D02*
X283212074Y-262626019D01*
X283212074Y-262626019D02*
X283116836Y-262768876D01*
X283116836Y-262768876D02*
X283021598Y-262864114D01*
X283021598Y-262864114D02*
X282926360Y-262911733D01*
X283878741Y-262721257D02*
X283926360Y-262673638D01*
X283926360Y-262673638D02*
X284021598Y-262626019D01*
X284021598Y-262626019D02*
X284259693Y-262626019D01*
X284259693Y-262626019D02*
X284354931Y-262673638D01*
X284354931Y-262673638D02*
X284402550Y-262721257D01*
X284402550Y-262721257D02*
X284450169Y-262816495D01*
X284450169Y-262816495D02*
X284450169Y-262911733D01*
X284450169Y-262911733D02*
X284402550Y-263054590D01*
X284402550Y-263054590D02*
X283831122Y-263626019D01*
X283831122Y-263626019D02*
X284450169Y-263626019D01*
X284735884Y-262626019D02*
X285069217Y-263626019D01*
X285069217Y-263626019D02*
X285402550Y-262626019D01*
D12*
X334735375Y-332783285D02*
X334735375Y-317783285D01*
X334735375Y-317783285D02*
X339735375Y-328497571D01*
X339735375Y-328497571D02*
X344735375Y-317783285D01*
X344735375Y-317783285D02*
X344735375Y-332783285D01*
X356878232Y-324926142D02*
X351878232Y-324926142D01*
X351878232Y-332783285D02*
X351878232Y-317783285D01*
X351878232Y-317783285D02*
X359021089Y-317783285D01*
X364735375Y-332783285D02*
X364735375Y-317783285D01*
X364735375Y-317783285D02*
X369735375Y-328497571D01*
X369735375Y-328497571D02*
X374735375Y-317783285D01*
X374735375Y-317783285D02*
X374735375Y-332783285D01*
D11*
X301446284Y-263092666D02*
X302208189Y-263092666D01*
X301827236Y-263473619D02*
X301827236Y-262711714D01*
X303208188Y-263473619D02*
X302636760Y-263473619D01*
X302922474Y-263473619D02*
X302922474Y-262473619D01*
X302922474Y-262473619D02*
X302827236Y-262616476D01*
X302827236Y-262616476D02*
X302731998Y-262711714D01*
X302731998Y-262711714D02*
X302636760Y-262759333D01*
X303589141Y-262568857D02*
X303636760Y-262521238D01*
X303636760Y-262521238D02*
X303731998Y-262473619D01*
X303731998Y-262473619D02*
X303970093Y-262473619D01*
X303970093Y-262473619D02*
X304065331Y-262521238D01*
X304065331Y-262521238D02*
X304112950Y-262568857D01*
X304112950Y-262568857D02*
X304160569Y-262664095D01*
X304160569Y-262664095D02*
X304160569Y-262759333D01*
X304160569Y-262759333D02*
X304112950Y-262902190D01*
X304112950Y-262902190D02*
X303541522Y-263473619D01*
X303541522Y-263473619D02*
X304160569Y-263473619D01*
X304446284Y-262473619D02*
X304779617Y-263473619D01*
X304779617Y-263473619D02*
X305112950Y-262473619D01*
X293181693Y-262673638D02*
X293086455Y-262626019D01*
X293086455Y-262626019D02*
X292943598Y-262626019D01*
X292943598Y-262626019D02*
X292800741Y-262673638D01*
X292800741Y-262673638D02*
X292705503Y-262768876D01*
X292705503Y-262768876D02*
X292657884Y-262864114D01*
X292657884Y-262864114D02*
X292610265Y-263054590D01*
X292610265Y-263054590D02*
X292610265Y-263197447D01*
X292610265Y-263197447D02*
X292657884Y-263387923D01*
X292657884Y-263387923D02*
X292705503Y-263483161D01*
X292705503Y-263483161D02*
X292800741Y-263578400D01*
X292800741Y-263578400D02*
X292943598Y-263626019D01*
X292943598Y-263626019D02*
X293038836Y-263626019D01*
X293038836Y-263626019D02*
X293181693Y-263578400D01*
X293181693Y-263578400D02*
X293229312Y-263530780D01*
X293229312Y-263530780D02*
X293229312Y-263197447D01*
X293229312Y-263197447D02*
X293038836Y-263197447D01*
X293657884Y-263626019D02*
X293657884Y-262626019D01*
X293657884Y-262626019D02*
X294229312Y-263626019D01*
X294229312Y-263626019D02*
X294229312Y-262626019D01*
X294705503Y-263626019D02*
X294705503Y-262626019D01*
X294705503Y-262626019D02*
X294943598Y-262626019D01*
X294943598Y-262626019D02*
X295086455Y-262673638D01*
X295086455Y-262673638D02*
X295181693Y-262768876D01*
X295181693Y-262768876D02*
X295229312Y-262864114D01*
X295229312Y-262864114D02*
X295276931Y-263054590D01*
X295276931Y-263054590D02*
X295276931Y-263197447D01*
X295276931Y-263197447D02*
X295229312Y-263387923D01*
X295229312Y-263387923D02*
X295181693Y-263483161D01*
X295181693Y-263483161D02*
X295086455Y-263578400D01*
X295086455Y-263578400D02*
X294943598Y-263626019D01*
X294943598Y-263626019D02*
X294705503Y-263626019D01*
D13*
X439664819Y-276431333D02*
X440379104Y-276431333D01*
X440379104Y-276431333D02*
X440521961Y-276478952D01*
X440521961Y-276478952D02*
X440617200Y-276574190D01*
X440617200Y-276574190D02*
X440664819Y-276717047D01*
X440664819Y-276717047D02*
X440664819Y-276812285D01*
X439664819Y-275526571D02*
X439664819Y-275717047D01*
X439664819Y-275717047D02*
X439712438Y-275812285D01*
X439712438Y-275812285D02*
X439760057Y-275859904D01*
X439760057Y-275859904D02*
X439902914Y-275955142D01*
X439902914Y-275955142D02*
X440093390Y-276002761D01*
X440093390Y-276002761D02*
X440474342Y-276002761D01*
X440474342Y-276002761D02*
X440569580Y-275955142D01*
X440569580Y-275955142D02*
X440617200Y-275907523D01*
X440617200Y-275907523D02*
X440664819Y-275812285D01*
X440664819Y-275812285D02*
X440664819Y-275621809D01*
X440664819Y-275621809D02*
X440617200Y-275526571D01*
X440617200Y-275526571D02*
X440569580Y-275478952D01*
X440569580Y-275478952D02*
X440474342Y-275431333D01*
X440474342Y-275431333D02*
X440236247Y-275431333D01*
X440236247Y-275431333D02*
X440141009Y-275478952D01*
X440141009Y-275478952D02*
X440093390Y-275526571D01*
X440093390Y-275526571D02*
X440045771Y-275621809D01*
X440045771Y-275621809D02*
X440045771Y-275812285D01*
X440045771Y-275812285D02*
X440093390Y-275907523D01*
X440093390Y-275907523D02*
X440141009Y-275955142D01*
X440141009Y-275955142D02*
X440236247Y-276002761D01*
X447964819Y-279740857D02*
X446964819Y-279740857D01*
X446964819Y-279740857D02*
X446964819Y-279502762D01*
X446964819Y-279502762D02*
X447012438Y-279359905D01*
X447012438Y-279359905D02*
X447107676Y-279264667D01*
X447107676Y-279264667D02*
X447202914Y-279217048D01*
X447202914Y-279217048D02*
X447393390Y-279169429D01*
X447393390Y-279169429D02*
X447536247Y-279169429D01*
X447536247Y-279169429D02*
X447726723Y-279217048D01*
X447726723Y-279217048D02*
X447821961Y-279264667D01*
X447821961Y-279264667D02*
X447917200Y-279359905D01*
X447917200Y-279359905D02*
X447964819Y-279502762D01*
X447964819Y-279502762D02*
X447964819Y-279740857D01*
X447964819Y-278740857D02*
X447298152Y-278740857D01*
X447488628Y-278740857D02*
X447393390Y-278693238D01*
X447393390Y-278693238D02*
X447345771Y-278645619D01*
X447345771Y-278645619D02*
X447298152Y-278550381D01*
X447298152Y-278550381D02*
X447298152Y-278455143D01*
X447964819Y-278121809D02*
X447298152Y-278121809D01*
X446964819Y-278121809D02*
X447012438Y-278169428D01*
X447012438Y-278169428D02*
X447060057Y-278121809D01*
X447060057Y-278121809D02*
X447012438Y-278074190D01*
X447012438Y-278074190D02*
X446964819Y-278121809D01*
X446964819Y-278121809D02*
X447060057Y-278121809D01*
X447298152Y-277740857D02*
X447964819Y-277502762D01*
X447964819Y-277502762D02*
X447298152Y-277264667D01*
X447917200Y-276502762D02*
X447964819Y-276598000D01*
X447964819Y-276598000D02*
X447964819Y-276788476D01*
X447964819Y-276788476D02*
X447917200Y-276883714D01*
X447917200Y-276883714D02*
X447821961Y-276931333D01*
X447821961Y-276931333D02*
X447441009Y-276931333D01*
X447441009Y-276931333D02*
X447345771Y-276883714D01*
X447345771Y-276883714D02*
X447298152Y-276788476D01*
X447298152Y-276788476D02*
X447298152Y-276598000D01*
X447298152Y-276598000D02*
X447345771Y-276502762D01*
X447345771Y-276502762D02*
X447441009Y-276455143D01*
X447441009Y-276455143D02*
X447536247Y-276455143D01*
X447536247Y-276455143D02*
X447631485Y-276931333D01*
X446964819Y-275407523D02*
X446964819Y-274836095D01*
X447964819Y-275121809D02*
X446964819Y-275121809D01*
X447298152Y-274597999D02*
X447964819Y-274359904D01*
X447298152Y-274121809D02*
X447964819Y-274359904D01*
X447964819Y-274359904D02*
X448202914Y-274455142D01*
X448202914Y-274455142D02*
X448250533Y-274502761D01*
X448250533Y-274502761D02*
X448298152Y-274597999D01*
X447298152Y-273740856D02*
X448298152Y-273740856D01*
X447345771Y-273740856D02*
X447298152Y-273645618D01*
X447298152Y-273645618D02*
X447298152Y-273455142D01*
X447298152Y-273455142D02*
X447345771Y-273359904D01*
X447345771Y-273359904D02*
X447393390Y-273312285D01*
X447393390Y-273312285D02*
X447488628Y-273264666D01*
X447488628Y-273264666D02*
X447774342Y-273264666D01*
X447774342Y-273264666D02*
X447869580Y-273312285D01*
X447869580Y-273312285D02*
X447917200Y-273359904D01*
X447917200Y-273359904D02*
X447964819Y-273455142D01*
X447964819Y-273455142D02*
X447964819Y-273645618D01*
X447964819Y-273645618D02*
X447917200Y-273740856D01*
X447917200Y-272455142D02*
X447964819Y-272550380D01*
X447964819Y-272550380D02*
X447964819Y-272740856D01*
X447964819Y-272740856D02*
X447917200Y-272836094D01*
X447917200Y-272836094D02*
X447821961Y-272883713D01*
X447821961Y-272883713D02*
X447441009Y-272883713D01*
X447441009Y-272883713D02*
X447345771Y-272836094D01*
X447345771Y-272836094D02*
X447298152Y-272740856D01*
X447298152Y-272740856D02*
X447298152Y-272550380D01*
X447298152Y-272550380D02*
X447345771Y-272455142D01*
X447345771Y-272455142D02*
X447441009Y-272407523D01*
X447441009Y-272407523D02*
X447536247Y-272407523D01*
X447536247Y-272407523D02*
X447631485Y-272883713D01*
X401734419Y-344539866D02*
X401258228Y-344873199D01*
X401734419Y-345111294D02*
X400734419Y-345111294D01*
X400734419Y-345111294D02*
X400734419Y-344730342D01*
X400734419Y-344730342D02*
X400782038Y-344635104D01*
X400782038Y-344635104D02*
X400829657Y-344587485D01*
X400829657Y-344587485D02*
X400924895Y-344539866D01*
X400924895Y-344539866D02*
X401067752Y-344539866D01*
X401067752Y-344539866D02*
X401162990Y-344587485D01*
X401162990Y-344587485D02*
X401210609Y-344635104D01*
X401210609Y-344635104D02*
X401258228Y-344730342D01*
X401258228Y-344730342D02*
X401258228Y-345111294D01*
X401734419Y-344063675D02*
X401734419Y-343873199D01*
X401734419Y-343873199D02*
X401686800Y-343777961D01*
X401686800Y-343777961D02*
X401639180Y-343730342D01*
X401639180Y-343730342D02*
X401496323Y-343635104D01*
X401496323Y-343635104D02*
X401305847Y-343587485D01*
X401305847Y-343587485D02*
X400924895Y-343587485D01*
X400924895Y-343587485D02*
X400829657Y-343635104D01*
X400829657Y-343635104D02*
X400782038Y-343682723D01*
X400782038Y-343682723D02*
X400734419Y-343777961D01*
X400734419Y-343777961D02*
X400734419Y-343968437D01*
X400734419Y-343968437D02*
X400782038Y-344063675D01*
X400782038Y-344063675D02*
X400829657Y-344111294D01*
X400829657Y-344111294D02*
X400924895Y-344158913D01*
X400924895Y-344158913D02*
X401162990Y-344158913D01*
X401162990Y-344158913D02*
X401258228Y-344111294D01*
X401258228Y-344111294D02*
X401305847Y-344063675D01*
X401305847Y-344063675D02*
X401353466Y-343968437D01*
X401353466Y-343968437D02*
X401353466Y-343777961D01*
X401353466Y-343777961D02*
X401305847Y-343682723D01*
X401305847Y-343682723D02*
X401258228Y-343635104D01*
X401258228Y-343635104D02*
X401162990Y-343587485D01*
X403654419Y-344492247D02*
X403654419Y-345063675D01*
X403654419Y-344777961D02*
X402654419Y-344777961D01*
X402654419Y-344777961D02*
X402797276Y-344873199D01*
X402797276Y-344873199D02*
X402892514Y-344968437D01*
X402892514Y-344968437D02*
X402940133Y-345063675D01*
X403654419Y-344063675D02*
X402654419Y-344063675D01*
X403273466Y-343968437D02*
X403654419Y-343682723D01*
X402987752Y-343682723D02*
X403368704Y-344063675D01*
X318379066Y-317673619D02*
X318379066Y-318387904D01*
X318379066Y-318387904D02*
X318331447Y-318530761D01*
X318331447Y-318530761D02*
X318236209Y-318626000D01*
X318236209Y-318626000D02*
X318093352Y-318673619D01*
X318093352Y-318673619D02*
X317998114Y-318673619D01*
X318855257Y-318673619D02*
X318855257Y-317673619D01*
X318855257Y-317673619D02*
X319236209Y-317673619D01*
X319236209Y-317673619D02*
X319331447Y-317721238D01*
X319331447Y-317721238D02*
X319379066Y-317768857D01*
X319379066Y-317768857D02*
X319426685Y-317864095D01*
X319426685Y-317864095D02*
X319426685Y-318006952D01*
X319426685Y-318006952D02*
X319379066Y-318102190D01*
X319379066Y-318102190D02*
X319331447Y-318149809D01*
X319331447Y-318149809D02*
X319236209Y-318197428D01*
X319236209Y-318197428D02*
X318855257Y-318197428D01*
X319760019Y-317673619D02*
X320379066Y-317673619D01*
X320379066Y-317673619D02*
X320045733Y-318054571D01*
X320045733Y-318054571D02*
X320188590Y-318054571D01*
X320188590Y-318054571D02*
X320283828Y-318102190D01*
X320283828Y-318102190D02*
X320331447Y-318149809D01*
X320331447Y-318149809D02*
X320379066Y-318245047D01*
X320379066Y-318245047D02*
X320379066Y-318483142D01*
X320379066Y-318483142D02*
X320331447Y-318578380D01*
X320331447Y-318578380D02*
X320283828Y-318626000D01*
X320283828Y-318626000D02*
X320188590Y-318673619D01*
X320188590Y-318673619D02*
X319902876Y-318673619D01*
X319902876Y-318673619D02*
X319807638Y-318626000D01*
X319807638Y-318626000D02*
X319760019Y-318578380D01*
X437388095Y-338794819D02*
X437388095Y-339604342D01*
X437388095Y-339604342D02*
X437435714Y-339699580D01*
X437435714Y-339699580D02*
X437483333Y-339747200D01*
X437483333Y-339747200D02*
X437578571Y-339794819D01*
X437578571Y-339794819D02*
X437769047Y-339794819D01*
X437769047Y-339794819D02*
X437864285Y-339747200D01*
X437864285Y-339747200D02*
X437911904Y-339699580D01*
X437911904Y-339699580D02*
X437959523Y-339604342D01*
X437959523Y-339604342D02*
X437959523Y-338794819D01*
X438959523Y-339794819D02*
X438388095Y-339794819D01*
X438673809Y-339794819D02*
X438673809Y-338794819D01*
X438673809Y-338794819D02*
X438578571Y-338937676D01*
X438578571Y-338937676D02*
X438483333Y-339032914D01*
X438483333Y-339032914D02*
X438388095Y-339080533D01*
X437384914Y-413261980D02*
X437337295Y-413309600D01*
X437337295Y-413309600D02*
X437194438Y-413357219D01*
X437194438Y-413357219D02*
X437099200Y-413357219D01*
X437099200Y-413357219D02*
X436956343Y-413309600D01*
X436956343Y-413309600D02*
X436861105Y-413214361D01*
X436861105Y-413214361D02*
X436813486Y-413119123D01*
X436813486Y-413119123D02*
X436765867Y-412928647D01*
X436765867Y-412928647D02*
X436765867Y-412785790D01*
X436765867Y-412785790D02*
X436813486Y-412595314D01*
X436813486Y-412595314D02*
X436861105Y-412500076D01*
X436861105Y-412500076D02*
X436956343Y-412404838D01*
X436956343Y-412404838D02*
X437099200Y-412357219D01*
X437099200Y-412357219D02*
X437194438Y-412357219D01*
X437194438Y-412357219D02*
X437337295Y-412404838D01*
X437337295Y-412404838D02*
X437384914Y-412452457D01*
X437813486Y-413357219D02*
X437813486Y-412357219D01*
X437813486Y-412357219D02*
X438194438Y-412357219D01*
X438194438Y-412357219D02*
X438289676Y-412404838D01*
X438289676Y-412404838D02*
X438337295Y-412452457D01*
X438337295Y-412452457D02*
X438384914Y-412547695D01*
X438384914Y-412547695D02*
X438384914Y-412690552D01*
X438384914Y-412690552D02*
X438337295Y-412785790D01*
X438337295Y-412785790D02*
X438289676Y-412833409D01*
X438289676Y-412833409D02*
X438194438Y-412881028D01*
X438194438Y-412881028D02*
X437813486Y-412881028D01*
X438813486Y-412357219D02*
X438813486Y-413166742D01*
X438813486Y-413166742D02*
X438861105Y-413261980D01*
X438861105Y-413261980D02*
X438908724Y-413309600D01*
X438908724Y-413309600D02*
X439003962Y-413357219D01*
X439003962Y-413357219D02*
X439194438Y-413357219D01*
X439194438Y-413357219D02*
X439289676Y-413309600D01*
X439289676Y-413309600D02*
X439337295Y-413261980D01*
X439337295Y-413261980D02*
X439384914Y-413166742D01*
X439384914Y-413166742D02*
X439384914Y-412357219D01*
X452822095Y-342624819D02*
X452822095Y-343434342D01*
X452822095Y-343434342D02*
X452869714Y-343529580D01*
X452869714Y-343529580D02*
X452917333Y-343577200D01*
X452917333Y-343577200D02*
X453012571Y-343624819D01*
X453012571Y-343624819D02*
X453203047Y-343624819D01*
X453203047Y-343624819D02*
X453298285Y-343577200D01*
X453298285Y-343577200D02*
X453345904Y-343529580D01*
X453345904Y-343529580D02*
X453393523Y-343434342D01*
X453393523Y-343434342D02*
X453393523Y-342624819D01*
X454298285Y-342958152D02*
X454298285Y-343624819D01*
X454060190Y-342577200D02*
X453822095Y-343291485D01*
X453822095Y-343291485D02*
X454441142Y-343291485D01*
X443109885Y-447596419D02*
X443109885Y-446596419D01*
X443109885Y-446596419D02*
X443443218Y-447310704D01*
X443443218Y-447310704D02*
X443776551Y-446596419D01*
X443776551Y-446596419D02*
X443776551Y-447596419D01*
X444586075Y-447072609D02*
X444252742Y-447072609D01*
X444252742Y-447596419D02*
X444252742Y-446596419D01*
X444252742Y-446596419D02*
X444728932Y-446596419D01*
X445109885Y-447596419D02*
X445109885Y-446596419D01*
X445109885Y-446596419D02*
X445443218Y-447310704D01*
X445443218Y-447310704D02*
X445776551Y-446596419D01*
X445776551Y-446596419D02*
X445776551Y-447596419D01*
X446967027Y-446548800D02*
X446109885Y-447834514D01*
X447633694Y-447072609D02*
X447300361Y-447072609D01*
X447300361Y-447596419D02*
X447300361Y-446596419D01*
X447300361Y-446596419D02*
X447776551Y-446596419D01*
X448300361Y-447596419D02*
X448205123Y-447548800D01*
X448205123Y-447548800D02*
X448157504Y-447453561D01*
X448157504Y-447453561D02*
X448157504Y-446596419D01*
X448824171Y-447596419D02*
X448728933Y-447548800D01*
X448728933Y-447548800D02*
X448681314Y-447501180D01*
X448681314Y-447501180D02*
X448633695Y-447405942D01*
X448633695Y-447405942D02*
X448633695Y-447120228D01*
X448633695Y-447120228D02*
X448681314Y-447024990D01*
X448681314Y-447024990D02*
X448728933Y-446977371D01*
X448728933Y-446977371D02*
X448824171Y-446929752D01*
X448824171Y-446929752D02*
X448967028Y-446929752D01*
X448967028Y-446929752D02*
X449062266Y-446977371D01*
X449062266Y-446977371D02*
X449109885Y-447024990D01*
X449109885Y-447024990D02*
X449157504Y-447120228D01*
X449157504Y-447120228D02*
X449157504Y-447405942D01*
X449157504Y-447405942D02*
X449109885Y-447501180D01*
X449109885Y-447501180D02*
X449062266Y-447548800D01*
X449062266Y-447548800D02*
X448967028Y-447596419D01*
X448967028Y-447596419D02*
X448824171Y-447596419D01*
X449586076Y-446929752D02*
X449586076Y-447929752D01*
X449586076Y-446977371D02*
X449681314Y-446929752D01*
X449681314Y-446929752D02*
X449871790Y-446929752D01*
X449871790Y-446929752D02*
X449967028Y-446977371D01*
X449967028Y-446977371D02*
X450014647Y-447024990D01*
X450014647Y-447024990D02*
X450062266Y-447120228D01*
X450062266Y-447120228D02*
X450062266Y-447405942D01*
X450062266Y-447405942D02*
X450014647Y-447501180D01*
X450014647Y-447501180D02*
X449967028Y-447548800D01*
X449967028Y-447548800D02*
X449871790Y-447596419D01*
X449871790Y-447596419D02*
X449681314Y-447596419D01*
X449681314Y-447596419D02*
X449586076Y-447548800D01*
X450490838Y-446929752D02*
X450490838Y-447929752D01*
X450490838Y-446977371D02*
X450586076Y-446929752D01*
X450586076Y-446929752D02*
X450776552Y-446929752D01*
X450776552Y-446929752D02*
X450871790Y-446977371D01*
X450871790Y-446977371D02*
X450919409Y-447024990D01*
X450919409Y-447024990D02*
X450967028Y-447120228D01*
X450967028Y-447120228D02*
X450967028Y-447405942D01*
X450967028Y-447405942D02*
X450919409Y-447501180D01*
X450919409Y-447501180D02*
X450871790Y-447548800D01*
X450871790Y-447548800D02*
X450776552Y-447596419D01*
X450776552Y-447596419D02*
X450586076Y-447596419D01*
X450586076Y-447596419D02*
X450490838Y-447548800D01*
X451300362Y-446929752D02*
X451538457Y-447596419D01*
X451776552Y-446929752D02*
X451538457Y-447596419D01*
X451538457Y-447596419D02*
X451443219Y-447834514D01*
X451443219Y-447834514D02*
X451395600Y-447882133D01*
X451395600Y-447882133D02*
X451300362Y-447929752D01*
X431481467Y-265208800D02*
X431624324Y-265256419D01*
X431624324Y-265256419D02*
X431862419Y-265256419D01*
X431862419Y-265256419D02*
X431957657Y-265208800D01*
X431957657Y-265208800D02*
X432005276Y-265161180D01*
X432005276Y-265161180D02*
X432052895Y-265065942D01*
X432052895Y-265065942D02*
X432052895Y-264970704D01*
X432052895Y-264970704D02*
X432005276Y-264875466D01*
X432005276Y-264875466D02*
X431957657Y-264827847D01*
X431957657Y-264827847D02*
X431862419Y-264780228D01*
X431862419Y-264780228D02*
X431671943Y-264732609D01*
X431671943Y-264732609D02*
X431576705Y-264684990D01*
X431576705Y-264684990D02*
X431529086Y-264637371D01*
X431529086Y-264637371D02*
X431481467Y-264542133D01*
X431481467Y-264542133D02*
X431481467Y-264446895D01*
X431481467Y-264446895D02*
X431529086Y-264351657D01*
X431529086Y-264351657D02*
X431576705Y-264304038D01*
X431576705Y-264304038D02*
X431671943Y-264256419D01*
X431671943Y-264256419D02*
X431910038Y-264256419D01*
X431910038Y-264256419D02*
X432052895Y-264304038D01*
X432386229Y-264256419D02*
X432624324Y-265256419D01*
X432624324Y-265256419D02*
X432814800Y-264542133D01*
X432814800Y-264542133D02*
X433005276Y-265256419D01*
X433005276Y-265256419D02*
X433243372Y-264256419D01*
X434148133Y-265256419D02*
X433576705Y-265256419D01*
X433862419Y-265256419D02*
X433862419Y-264256419D01*
X433862419Y-264256419D02*
X433767181Y-264399276D01*
X433767181Y-264399276D02*
X433671943Y-264494514D01*
X433671943Y-264494514D02*
X433576705Y-264542133D01*
X261484819Y-360323333D02*
X262199104Y-360323333D01*
X262199104Y-360323333D02*
X262341961Y-360370952D01*
X262341961Y-360370952D02*
X262437200Y-360466190D01*
X262437200Y-360466190D02*
X262484819Y-360609047D01*
X262484819Y-360609047D02*
X262484819Y-360704285D01*
X262484819Y-359799523D02*
X262484819Y-359609047D01*
X262484819Y-359609047D02*
X262437200Y-359513809D01*
X262437200Y-359513809D02*
X262389580Y-359466190D01*
X262389580Y-359466190D02*
X262246723Y-359370952D01*
X262246723Y-359370952D02*
X262056247Y-359323333D01*
X262056247Y-359323333D02*
X261675295Y-359323333D01*
X261675295Y-359323333D02*
X261580057Y-359370952D01*
X261580057Y-359370952D02*
X261532438Y-359418571D01*
X261532438Y-359418571D02*
X261484819Y-359513809D01*
X261484819Y-359513809D02*
X261484819Y-359704285D01*
X261484819Y-359704285D02*
X261532438Y-359799523D01*
X261532438Y-359799523D02*
X261580057Y-359847142D01*
X261580057Y-359847142D02*
X261675295Y-359894761D01*
X261675295Y-359894761D02*
X261913390Y-359894761D01*
X261913390Y-359894761D02*
X262008628Y-359847142D01*
X262008628Y-359847142D02*
X262056247Y-359799523D01*
X262056247Y-359799523D02*
X262103866Y-359704285D01*
X262103866Y-359704285D02*
X262103866Y-359513809D01*
X262103866Y-359513809D02*
X262056247Y-359418571D01*
X262056247Y-359418571D02*
X262008628Y-359370952D01*
X262008628Y-359370952D02*
X261913390Y-359323333D01*
X263411619Y-362475161D02*
X264221142Y-362475161D01*
X264221142Y-362475161D02*
X264316380Y-362427542D01*
X264316380Y-362427542D02*
X264364000Y-362379923D01*
X264364000Y-362379923D02*
X264411619Y-362284685D01*
X264411619Y-362284685D02*
X264411619Y-362094209D01*
X264411619Y-362094209D02*
X264364000Y-361998971D01*
X264364000Y-361998971D02*
X264316380Y-361951352D01*
X264316380Y-361951352D02*
X264221142Y-361903733D01*
X264221142Y-361903733D02*
X263411619Y-361903733D01*
X264125904Y-361475161D02*
X264125904Y-360998971D01*
X264411619Y-361570399D02*
X263411619Y-361237066D01*
X263411619Y-361237066D02*
X264411619Y-360903733D01*
X264411619Y-359998971D02*
X263935428Y-360332304D01*
X264411619Y-360570399D02*
X263411619Y-360570399D01*
X263411619Y-360570399D02*
X263411619Y-360189447D01*
X263411619Y-360189447D02*
X263459238Y-360094209D01*
X263459238Y-360094209D02*
X263506857Y-360046590D01*
X263506857Y-360046590D02*
X263602095Y-359998971D01*
X263602095Y-359998971D02*
X263744952Y-359998971D01*
X263744952Y-359998971D02*
X263840190Y-360046590D01*
X263840190Y-360046590D02*
X263887809Y-360094209D01*
X263887809Y-360094209D02*
X263935428Y-360189447D01*
X263935428Y-360189447D02*
X263935428Y-360570399D01*
X263411619Y-359713256D02*
X263411619Y-359141828D01*
X264411619Y-359427542D02*
X263411619Y-359427542D01*
X264125904Y-358094208D02*
X264125904Y-357618018D01*
X264411619Y-358189446D02*
X263411619Y-357856113D01*
X263411619Y-357856113D02*
X264411619Y-357522780D01*
X390350476Y-266154819D02*
X390350476Y-266869104D01*
X390350476Y-266869104D02*
X390302857Y-267011961D01*
X390302857Y-267011961D02*
X390207619Y-267107200D01*
X390207619Y-267107200D02*
X390064762Y-267154819D01*
X390064762Y-267154819D02*
X389969524Y-267154819D01*
X391350476Y-267154819D02*
X390779048Y-267154819D01*
X391064762Y-267154819D02*
X391064762Y-266154819D01*
X391064762Y-266154819D02*
X390969524Y-266297676D01*
X390969524Y-266297676D02*
X390874286Y-266392914D01*
X390874286Y-266392914D02*
X390779048Y-266440533D01*
X392255238Y-266154819D02*
X391779048Y-266154819D01*
X391779048Y-266154819D02*
X391731429Y-266631009D01*
X391731429Y-266631009D02*
X391779048Y-266583390D01*
X391779048Y-266583390D02*
X391874286Y-266535771D01*
X391874286Y-266535771D02*
X392112381Y-266535771D01*
X392112381Y-266535771D02*
X392207619Y-266583390D01*
X392207619Y-266583390D02*
X392255238Y-266631009D01*
X392255238Y-266631009D02*
X392302857Y-266726247D01*
X392302857Y-266726247D02*
X392302857Y-266964342D01*
X392302857Y-266964342D02*
X392255238Y-267059580D01*
X392255238Y-267059580D02*
X392207619Y-267107200D01*
X392207619Y-267107200D02*
X392112381Y-267154819D01*
X392112381Y-267154819D02*
X391874286Y-267154819D01*
X391874286Y-267154819D02*
X391779048Y-267107200D01*
X391779048Y-267107200D02*
X391731429Y-267059580D01*
X261484819Y-422603333D02*
X262199104Y-422603333D01*
X262199104Y-422603333D02*
X262341961Y-422650952D01*
X262341961Y-422650952D02*
X262437200Y-422746190D01*
X262437200Y-422746190D02*
X262484819Y-422889047D01*
X262484819Y-422889047D02*
X262484819Y-422984285D01*
X261913390Y-421984285D02*
X261865771Y-422079523D01*
X261865771Y-422079523D02*
X261818152Y-422127142D01*
X261818152Y-422127142D02*
X261722914Y-422174761D01*
X261722914Y-422174761D02*
X261675295Y-422174761D01*
X261675295Y-422174761D02*
X261580057Y-422127142D01*
X261580057Y-422127142D02*
X261532438Y-422079523D01*
X261532438Y-422079523D02*
X261484819Y-421984285D01*
X261484819Y-421984285D02*
X261484819Y-421793809D01*
X261484819Y-421793809D02*
X261532438Y-421698571D01*
X261532438Y-421698571D02*
X261580057Y-421650952D01*
X261580057Y-421650952D02*
X261675295Y-421603333D01*
X261675295Y-421603333D02*
X261722914Y-421603333D01*
X261722914Y-421603333D02*
X261818152Y-421650952D01*
X261818152Y-421650952D02*
X261865771Y-421698571D01*
X261865771Y-421698571D02*
X261913390Y-421793809D01*
X261913390Y-421793809D02*
X261913390Y-421984285D01*
X261913390Y-421984285D02*
X261961009Y-422079523D01*
X261961009Y-422079523D02*
X262008628Y-422127142D01*
X262008628Y-422127142D02*
X262103866Y-422174761D01*
X262103866Y-422174761D02*
X262294342Y-422174761D01*
X262294342Y-422174761D02*
X262389580Y-422127142D01*
X262389580Y-422127142D02*
X262437200Y-422079523D01*
X262437200Y-422079523D02*
X262484819Y-421984285D01*
X262484819Y-421984285D02*
X262484819Y-421793809D01*
X262484819Y-421793809D02*
X262437200Y-421698571D01*
X262437200Y-421698571D02*
X262389580Y-421650952D01*
X262389580Y-421650952D02*
X262294342Y-421603333D01*
X262294342Y-421603333D02*
X262103866Y-421603333D01*
X262103866Y-421603333D02*
X262008628Y-421650952D01*
X262008628Y-421650952D02*
X261961009Y-421698571D01*
X261961009Y-421698571D02*
X261913390Y-421793809D01*
X264513219Y-428246191D02*
X263513219Y-428246191D01*
X263513219Y-428246191D02*
X263513219Y-427865239D01*
X263513219Y-427865239D02*
X263560838Y-427770001D01*
X263560838Y-427770001D02*
X263608457Y-427722382D01*
X263608457Y-427722382D02*
X263703695Y-427674763D01*
X263703695Y-427674763D02*
X263846552Y-427674763D01*
X263846552Y-427674763D02*
X263941790Y-427722382D01*
X263941790Y-427722382D02*
X263989409Y-427770001D01*
X263989409Y-427770001D02*
X264037028Y-427865239D01*
X264037028Y-427865239D02*
X264037028Y-428246191D01*
X264513219Y-427246191D02*
X263846552Y-427246191D01*
X264037028Y-427246191D02*
X263941790Y-427198572D01*
X263941790Y-427198572D02*
X263894171Y-427150953D01*
X263894171Y-427150953D02*
X263846552Y-427055715D01*
X263846552Y-427055715D02*
X263846552Y-426960477D01*
X264513219Y-426627143D02*
X263846552Y-426627143D01*
X263513219Y-426627143D02*
X263560838Y-426674762D01*
X263560838Y-426674762D02*
X263608457Y-426627143D01*
X263608457Y-426627143D02*
X263560838Y-426579524D01*
X263560838Y-426579524D02*
X263513219Y-426627143D01*
X263513219Y-426627143D02*
X263608457Y-426627143D01*
X263846552Y-426150953D02*
X264513219Y-426150953D01*
X263941790Y-426150953D02*
X263894171Y-426103334D01*
X263894171Y-426103334D02*
X263846552Y-426008096D01*
X263846552Y-426008096D02*
X263846552Y-425865239D01*
X263846552Y-425865239D02*
X263894171Y-425770001D01*
X263894171Y-425770001D02*
X263989409Y-425722382D01*
X263989409Y-425722382D02*
X264513219Y-425722382D01*
X263846552Y-425389048D02*
X263846552Y-425008096D01*
X263513219Y-425246191D02*
X264370361Y-425246191D01*
X264370361Y-425246191D02*
X264465600Y-425198572D01*
X264465600Y-425198572D02*
X264513219Y-425103334D01*
X264513219Y-425103334D02*
X264513219Y-425008096D01*
X264465600Y-424293810D02*
X264513219Y-424389048D01*
X264513219Y-424389048D02*
X264513219Y-424579524D01*
X264513219Y-424579524D02*
X264465600Y-424674762D01*
X264465600Y-424674762D02*
X264370361Y-424722381D01*
X264370361Y-424722381D02*
X263989409Y-424722381D01*
X263989409Y-424722381D02*
X263894171Y-424674762D01*
X263894171Y-424674762D02*
X263846552Y-424579524D01*
X263846552Y-424579524D02*
X263846552Y-424389048D01*
X263846552Y-424389048D02*
X263894171Y-424293810D01*
X263894171Y-424293810D02*
X263989409Y-424246191D01*
X263989409Y-424246191D02*
X264084647Y-424246191D01*
X264084647Y-424246191D02*
X264179885Y-424722381D01*
X264513219Y-423817619D02*
X263846552Y-423817619D01*
X264037028Y-423817619D02*
X263941790Y-423770000D01*
X263941790Y-423770000D02*
X263894171Y-423722381D01*
X263894171Y-423722381D02*
X263846552Y-423627143D01*
X263846552Y-423627143D02*
X263846552Y-423531905D01*
X264513219Y-422436666D02*
X263513219Y-422436666D01*
X263846552Y-421960476D02*
X264513219Y-421960476D01*
X263941790Y-421960476D02*
X263894171Y-421912857D01*
X263894171Y-421912857D02*
X263846552Y-421817619D01*
X263846552Y-421817619D02*
X263846552Y-421674762D01*
X263846552Y-421674762D02*
X263894171Y-421579524D01*
X263894171Y-421579524D02*
X263989409Y-421531905D01*
X263989409Y-421531905D02*
X264513219Y-421531905D01*
X263846552Y-421198571D02*
X263846552Y-420817619D01*
X263513219Y-421055714D02*
X264370361Y-421055714D01*
X264370361Y-421055714D02*
X264465600Y-421008095D01*
X264465600Y-421008095D02*
X264513219Y-420912857D01*
X264513219Y-420912857D02*
X264513219Y-420817619D01*
X264465600Y-420103333D02*
X264513219Y-420198571D01*
X264513219Y-420198571D02*
X264513219Y-420389047D01*
X264513219Y-420389047D02*
X264465600Y-420484285D01*
X264465600Y-420484285D02*
X264370361Y-420531904D01*
X264370361Y-420531904D02*
X263989409Y-420531904D01*
X263989409Y-420531904D02*
X263894171Y-420484285D01*
X263894171Y-420484285D02*
X263846552Y-420389047D01*
X263846552Y-420389047D02*
X263846552Y-420198571D01*
X263846552Y-420198571D02*
X263894171Y-420103333D01*
X263894171Y-420103333D02*
X263989409Y-420055714D01*
X263989409Y-420055714D02*
X264084647Y-420055714D01*
X264084647Y-420055714D02*
X264179885Y-420531904D01*
X264513219Y-419627142D02*
X263846552Y-419627142D01*
X264037028Y-419627142D02*
X263941790Y-419579523D01*
X263941790Y-419579523D02*
X263894171Y-419531904D01*
X263894171Y-419531904D02*
X263846552Y-419436666D01*
X263846552Y-419436666D02*
X263846552Y-419341428D01*
X263846552Y-419150951D02*
X263846552Y-418769999D01*
X264513219Y-419008094D02*
X263656076Y-419008094D01*
X263656076Y-419008094D02*
X263560838Y-418960475D01*
X263560838Y-418960475D02*
X263513219Y-418865237D01*
X263513219Y-418865237D02*
X263513219Y-418769999D01*
X264513219Y-418008094D02*
X263989409Y-418008094D01*
X263989409Y-418008094D02*
X263894171Y-418055713D01*
X263894171Y-418055713D02*
X263846552Y-418150951D01*
X263846552Y-418150951D02*
X263846552Y-418341427D01*
X263846552Y-418341427D02*
X263894171Y-418436665D01*
X264465600Y-418008094D02*
X264513219Y-418103332D01*
X264513219Y-418103332D02*
X264513219Y-418341427D01*
X264513219Y-418341427D02*
X264465600Y-418436665D01*
X264465600Y-418436665D02*
X264370361Y-418484284D01*
X264370361Y-418484284D02*
X264275123Y-418484284D01*
X264275123Y-418484284D02*
X264179885Y-418436665D01*
X264179885Y-418436665D02*
X264132266Y-418341427D01*
X264132266Y-418341427D02*
X264132266Y-418103332D01*
X264132266Y-418103332D02*
X264084647Y-418008094D01*
X264465600Y-417103332D02*
X264513219Y-417198570D01*
X264513219Y-417198570D02*
X264513219Y-417389046D01*
X264513219Y-417389046D02*
X264465600Y-417484284D01*
X264465600Y-417484284D02*
X264417980Y-417531903D01*
X264417980Y-417531903D02*
X264322742Y-417579522D01*
X264322742Y-417579522D02*
X264037028Y-417579522D01*
X264037028Y-417579522D02*
X263941790Y-417531903D01*
X263941790Y-417531903D02*
X263894171Y-417484284D01*
X263894171Y-417484284D02*
X263846552Y-417389046D01*
X263846552Y-417389046D02*
X263846552Y-417198570D01*
X263846552Y-417198570D02*
X263894171Y-417103332D01*
X264465600Y-416293808D02*
X264513219Y-416389046D01*
X264513219Y-416389046D02*
X264513219Y-416579522D01*
X264513219Y-416579522D02*
X264465600Y-416674760D01*
X264465600Y-416674760D02*
X264370361Y-416722379D01*
X264370361Y-416722379D02*
X263989409Y-416722379D01*
X263989409Y-416722379D02*
X263894171Y-416674760D01*
X263894171Y-416674760D02*
X263846552Y-416579522D01*
X263846552Y-416579522D02*
X263846552Y-416389046D01*
X263846552Y-416389046D02*
X263894171Y-416293808D01*
X263894171Y-416293808D02*
X263989409Y-416246189D01*
X263989409Y-416246189D02*
X264084647Y-416246189D01*
X264084647Y-416246189D02*
X264179885Y-416722379D01*
X438189761Y-321079819D02*
X437856428Y-320603628D01*
X437618333Y-321079819D02*
X437618333Y-320079819D01*
X437618333Y-320079819D02*
X437999285Y-320079819D01*
X437999285Y-320079819D02*
X438094523Y-320127438D01*
X438094523Y-320127438D02*
X438142142Y-320175057D01*
X438142142Y-320175057D02*
X438189761Y-320270295D01*
X438189761Y-320270295D02*
X438189761Y-320413152D01*
X438189761Y-320413152D02*
X438142142Y-320508390D01*
X438142142Y-320508390D02*
X438094523Y-320556009D01*
X438094523Y-320556009D02*
X437999285Y-320603628D01*
X437999285Y-320603628D02*
X437618333Y-320603628D01*
X438475476Y-320079819D02*
X438808809Y-321079819D01*
X438808809Y-321079819D02*
X439142142Y-320079819D01*
X439904047Y-320413152D02*
X439904047Y-321079819D01*
X439665952Y-320032200D02*
X439427857Y-320746485D01*
X439427857Y-320746485D02*
X440046904Y-320746485D01*
X445601885Y-327657619D02*
X445601885Y-326657619D01*
X445601885Y-327133809D02*
X446173313Y-327133809D01*
X446173313Y-327657619D02*
X446173313Y-326657619D01*
X447078075Y-327657619D02*
X447078075Y-327133809D01*
X447078075Y-327133809D02*
X447030456Y-327038571D01*
X447030456Y-327038571D02*
X446935218Y-326990952D01*
X446935218Y-326990952D02*
X446744742Y-326990952D01*
X446744742Y-326990952D02*
X446649504Y-327038571D01*
X447078075Y-327610000D02*
X446982837Y-327657619D01*
X446982837Y-327657619D02*
X446744742Y-327657619D01*
X446744742Y-327657619D02*
X446649504Y-327610000D01*
X446649504Y-327610000D02*
X446601885Y-327514761D01*
X446601885Y-327514761D02*
X446601885Y-327419523D01*
X446601885Y-327419523D02*
X446649504Y-327324285D01*
X446649504Y-327324285D02*
X446744742Y-327276666D01*
X446744742Y-327276666D02*
X446982837Y-327276666D01*
X446982837Y-327276666D02*
X447078075Y-327229047D01*
X447697123Y-327657619D02*
X447601885Y-327610000D01*
X447601885Y-327610000D02*
X447554266Y-327514761D01*
X447554266Y-327514761D02*
X447554266Y-326657619D01*
X447935219Y-326990952D02*
X448316171Y-326990952D01*
X448078076Y-327657619D02*
X448078076Y-326800476D01*
X448078076Y-326800476D02*
X448125695Y-326705238D01*
X448125695Y-326705238D02*
X448220933Y-326657619D01*
X448220933Y-326657619D02*
X448316171Y-326657619D01*
X416039219Y-344539866D02*
X415563028Y-344873199D01*
X416039219Y-345111294D02*
X415039219Y-345111294D01*
X415039219Y-345111294D02*
X415039219Y-344730342D01*
X415039219Y-344730342D02*
X415086838Y-344635104D01*
X415086838Y-344635104D02*
X415134457Y-344587485D01*
X415134457Y-344587485D02*
X415229695Y-344539866D01*
X415229695Y-344539866D02*
X415372552Y-344539866D01*
X415372552Y-344539866D02*
X415467790Y-344587485D01*
X415467790Y-344587485D02*
X415515409Y-344635104D01*
X415515409Y-344635104D02*
X415563028Y-344730342D01*
X415563028Y-344730342D02*
X415563028Y-345111294D01*
X415467790Y-343968437D02*
X415420171Y-344063675D01*
X415420171Y-344063675D02*
X415372552Y-344111294D01*
X415372552Y-344111294D02*
X415277314Y-344158913D01*
X415277314Y-344158913D02*
X415229695Y-344158913D01*
X415229695Y-344158913D02*
X415134457Y-344111294D01*
X415134457Y-344111294D02*
X415086838Y-344063675D01*
X415086838Y-344063675D02*
X415039219Y-343968437D01*
X415039219Y-343968437D02*
X415039219Y-343777961D01*
X415039219Y-343777961D02*
X415086838Y-343682723D01*
X415086838Y-343682723D02*
X415134457Y-343635104D01*
X415134457Y-343635104D02*
X415229695Y-343587485D01*
X415229695Y-343587485D02*
X415277314Y-343587485D01*
X415277314Y-343587485D02*
X415372552Y-343635104D01*
X415372552Y-343635104D02*
X415420171Y-343682723D01*
X415420171Y-343682723D02*
X415467790Y-343777961D01*
X415467790Y-343777961D02*
X415467790Y-343968437D01*
X415467790Y-343968437D02*
X415515409Y-344063675D01*
X415515409Y-344063675D02*
X415563028Y-344111294D01*
X415563028Y-344111294D02*
X415658266Y-344158913D01*
X415658266Y-344158913D02*
X415848742Y-344158913D01*
X415848742Y-344158913D02*
X415943980Y-344111294D01*
X415943980Y-344111294D02*
X415991600Y-344063675D01*
X415991600Y-344063675D02*
X416039219Y-343968437D01*
X416039219Y-343968437D02*
X416039219Y-343777961D01*
X416039219Y-343777961D02*
X415991600Y-343682723D01*
X415991600Y-343682723D02*
X415943980Y-343635104D01*
X415943980Y-343635104D02*
X415848742Y-343587485D01*
X415848742Y-343587485D02*
X415658266Y-343587485D01*
X415658266Y-343587485D02*
X415563028Y-343635104D01*
X415563028Y-343635104D02*
X415515409Y-343682723D01*
X415515409Y-343682723D02*
X415467790Y-343777961D01*
X413547790Y-345920818D02*
X413500171Y-346016056D01*
X413500171Y-346016056D02*
X413452552Y-346063675D01*
X413452552Y-346063675D02*
X413357314Y-346111294D01*
X413357314Y-346111294D02*
X413309695Y-346111294D01*
X413309695Y-346111294D02*
X413214457Y-346063675D01*
X413214457Y-346063675D02*
X413166838Y-346016056D01*
X413166838Y-346016056D02*
X413119219Y-345920818D01*
X413119219Y-345920818D02*
X413119219Y-345730342D01*
X413119219Y-345730342D02*
X413166838Y-345635104D01*
X413166838Y-345635104D02*
X413214457Y-345587485D01*
X413214457Y-345587485D02*
X413309695Y-345539866D01*
X413309695Y-345539866D02*
X413357314Y-345539866D01*
X413357314Y-345539866D02*
X413452552Y-345587485D01*
X413452552Y-345587485D02*
X413500171Y-345635104D01*
X413500171Y-345635104D02*
X413547790Y-345730342D01*
X413547790Y-345730342D02*
X413547790Y-345920818D01*
X413547790Y-345920818D02*
X413595409Y-346016056D01*
X413595409Y-346016056D02*
X413643028Y-346063675D01*
X413643028Y-346063675D02*
X413738266Y-346111294D01*
X413738266Y-346111294D02*
X413928742Y-346111294D01*
X413928742Y-346111294D02*
X414023980Y-346063675D01*
X414023980Y-346063675D02*
X414071600Y-346016056D01*
X414071600Y-346016056D02*
X414119219Y-345920818D01*
X414119219Y-345920818D02*
X414119219Y-345730342D01*
X414119219Y-345730342D02*
X414071600Y-345635104D01*
X414071600Y-345635104D02*
X414023980Y-345587485D01*
X414023980Y-345587485D02*
X413928742Y-345539866D01*
X413928742Y-345539866D02*
X413738266Y-345539866D01*
X413738266Y-345539866D02*
X413643028Y-345587485D01*
X413643028Y-345587485D02*
X413595409Y-345635104D01*
X413595409Y-345635104D02*
X413547790Y-345730342D01*
X413119219Y-344920818D02*
X413119219Y-344825580D01*
X413119219Y-344825580D02*
X413166838Y-344730342D01*
X413166838Y-344730342D02*
X413214457Y-344682723D01*
X413214457Y-344682723D02*
X413309695Y-344635104D01*
X413309695Y-344635104D02*
X413500171Y-344587485D01*
X413500171Y-344587485D02*
X413738266Y-344587485D01*
X413738266Y-344587485D02*
X413928742Y-344635104D01*
X413928742Y-344635104D02*
X414023980Y-344682723D01*
X414023980Y-344682723D02*
X414071600Y-344730342D01*
X414071600Y-344730342D02*
X414119219Y-344825580D01*
X414119219Y-344825580D02*
X414119219Y-344920818D01*
X414119219Y-344920818D02*
X414071600Y-345016056D01*
X414071600Y-345016056D02*
X414023980Y-345063675D01*
X414023980Y-345063675D02*
X413928742Y-345111294D01*
X413928742Y-345111294D02*
X413738266Y-345158913D01*
X413738266Y-345158913D02*
X413500171Y-345158913D01*
X413500171Y-345158913D02*
X413309695Y-345111294D01*
X413309695Y-345111294D02*
X413214457Y-345063675D01*
X413214457Y-345063675D02*
X413166838Y-345016056D01*
X413166838Y-345016056D02*
X413119219Y-344920818D01*
X413119219Y-343968437D02*
X413119219Y-343873199D01*
X413119219Y-343873199D02*
X413166838Y-343777961D01*
X413166838Y-343777961D02*
X413214457Y-343730342D01*
X413214457Y-343730342D02*
X413309695Y-343682723D01*
X413309695Y-343682723D02*
X413500171Y-343635104D01*
X413500171Y-343635104D02*
X413738266Y-343635104D01*
X413738266Y-343635104D02*
X413928742Y-343682723D01*
X413928742Y-343682723D02*
X414023980Y-343730342D01*
X414023980Y-343730342D02*
X414071600Y-343777961D01*
X414071600Y-343777961D02*
X414119219Y-343873199D01*
X414119219Y-343873199D02*
X414119219Y-343968437D01*
X414119219Y-343968437D02*
X414071600Y-344063675D01*
X414071600Y-344063675D02*
X414023980Y-344111294D01*
X414023980Y-344111294D02*
X413928742Y-344158913D01*
X413928742Y-344158913D02*
X413738266Y-344206532D01*
X413738266Y-344206532D02*
X413500171Y-344206532D01*
X413500171Y-344206532D02*
X413309695Y-344158913D01*
X413309695Y-344158913D02*
X413214457Y-344111294D01*
X413214457Y-344111294D02*
X413166838Y-344063675D01*
X413166838Y-344063675D02*
X413119219Y-343968437D01*
X414119219Y-342635104D02*
X413643028Y-342968437D01*
X414119219Y-343206532D02*
X413119219Y-343206532D01*
X413119219Y-343206532D02*
X413119219Y-342825580D01*
X413119219Y-342825580D02*
X413166838Y-342730342D01*
X413166838Y-342730342D02*
X413214457Y-342682723D01*
X413214457Y-342682723D02*
X413309695Y-342635104D01*
X413309695Y-342635104D02*
X413452552Y-342635104D01*
X413452552Y-342635104D02*
X413547790Y-342682723D01*
X413547790Y-342682723D02*
X413595409Y-342730342D01*
X413595409Y-342730342D02*
X413643028Y-342825580D01*
X413643028Y-342825580D02*
X413643028Y-343206532D01*
X438189761Y-297379819D02*
X437856428Y-296903628D01*
X437618333Y-297379819D02*
X437618333Y-296379819D01*
X437618333Y-296379819D02*
X437999285Y-296379819D01*
X437999285Y-296379819D02*
X438094523Y-296427438D01*
X438094523Y-296427438D02*
X438142142Y-296475057D01*
X438142142Y-296475057D02*
X438189761Y-296570295D01*
X438189761Y-296570295D02*
X438189761Y-296713152D01*
X438189761Y-296713152D02*
X438142142Y-296808390D01*
X438142142Y-296808390D02*
X438094523Y-296856009D01*
X438094523Y-296856009D02*
X437999285Y-296903628D01*
X437999285Y-296903628D02*
X437618333Y-296903628D01*
X438475476Y-296379819D02*
X438808809Y-297379819D01*
X438808809Y-297379819D02*
X439142142Y-296379819D01*
X439427857Y-296475057D02*
X439475476Y-296427438D01*
X439475476Y-296427438D02*
X439570714Y-296379819D01*
X439570714Y-296379819D02*
X439808809Y-296379819D01*
X439808809Y-296379819D02*
X439904047Y-296427438D01*
X439904047Y-296427438D02*
X439951666Y-296475057D01*
X439951666Y-296475057D02*
X439999285Y-296570295D01*
X439999285Y-296570295D02*
X439999285Y-296665533D01*
X439999285Y-296665533D02*
X439951666Y-296808390D01*
X439951666Y-296808390D02*
X439380238Y-297379819D01*
X439380238Y-297379819D02*
X439999285Y-297379819D01*
X446681504Y-303834490D02*
X446633885Y-303882110D01*
X446633885Y-303882110D02*
X446491028Y-303929729D01*
X446491028Y-303929729D02*
X446395790Y-303929729D01*
X446395790Y-303929729D02*
X446252933Y-303882110D01*
X446252933Y-303882110D02*
X446157695Y-303786871D01*
X446157695Y-303786871D02*
X446110076Y-303691633D01*
X446110076Y-303691633D02*
X446062457Y-303501157D01*
X446062457Y-303501157D02*
X446062457Y-303358300D01*
X446062457Y-303358300D02*
X446110076Y-303167824D01*
X446110076Y-303167824D02*
X446157695Y-303072586D01*
X446157695Y-303072586D02*
X446252933Y-302977348D01*
X446252933Y-302977348D02*
X446395790Y-302929729D01*
X446395790Y-302929729D02*
X446491028Y-302929729D01*
X446491028Y-302929729D02*
X446633885Y-302977348D01*
X446633885Y-302977348D02*
X446681504Y-303024967D01*
X447062457Y-303882110D02*
X447205314Y-303929729D01*
X447205314Y-303929729D02*
X447443409Y-303929729D01*
X447443409Y-303929729D02*
X447538647Y-303882110D01*
X447538647Y-303882110D02*
X447586266Y-303834490D01*
X447586266Y-303834490D02*
X447633885Y-303739252D01*
X447633885Y-303739252D02*
X447633885Y-303644014D01*
X447633885Y-303644014D02*
X447586266Y-303548776D01*
X447586266Y-303548776D02*
X447538647Y-303501157D01*
X447538647Y-303501157D02*
X447443409Y-303453538D01*
X447443409Y-303453538D02*
X447252933Y-303405919D01*
X447252933Y-303405919D02*
X447157695Y-303358300D01*
X447157695Y-303358300D02*
X447110076Y-303310681D01*
X447110076Y-303310681D02*
X447062457Y-303215443D01*
X447062457Y-303215443D02*
X447062457Y-303120205D01*
X447062457Y-303120205D02*
X447110076Y-303024967D01*
X447110076Y-303024967D02*
X447157695Y-302977348D01*
X447157695Y-302977348D02*
X447252933Y-302929729D01*
X447252933Y-302929729D02*
X447491028Y-302929729D01*
X447491028Y-302929729D02*
X447633885Y-302977348D01*
X448252933Y-303453538D02*
X448252933Y-303929729D01*
X447919600Y-302929729D02*
X448252933Y-303453538D01*
X448252933Y-303453538D02*
X448586266Y-302929729D01*
X448919600Y-303929729D02*
X448919600Y-302929729D01*
X448919600Y-302929729D02*
X449491028Y-303929729D01*
X449491028Y-303929729D02*
X449491028Y-302929729D01*
X450538647Y-303834490D02*
X450491028Y-303882110D01*
X450491028Y-303882110D02*
X450348171Y-303929729D01*
X450348171Y-303929729D02*
X450252933Y-303929729D01*
X450252933Y-303929729D02*
X450110076Y-303882110D01*
X450110076Y-303882110D02*
X450014838Y-303786871D01*
X450014838Y-303786871D02*
X449967219Y-303691633D01*
X449967219Y-303691633D02*
X449919600Y-303501157D01*
X449919600Y-303501157D02*
X449919600Y-303358300D01*
X449919600Y-303358300D02*
X449967219Y-303167824D01*
X449967219Y-303167824D02*
X450014838Y-303072586D01*
X450014838Y-303072586D02*
X450110076Y-302977348D01*
X450110076Y-302977348D02*
X450252933Y-302929729D01*
X450252933Y-302929729D02*
X450348171Y-302929729D01*
X450348171Y-302929729D02*
X450491028Y-302977348D01*
X450491028Y-302977348D02*
X450538647Y-303024967D01*
X450967219Y-303548776D02*
X451729124Y-303548776D01*
X451348171Y-303929729D02*
X451348171Y-303167824D01*
X445478819Y-291444037D02*
X446478819Y-291110704D01*
X446478819Y-291110704D02*
X445478819Y-290777371D01*
X446478819Y-290301180D02*
X446431200Y-290396418D01*
X446431200Y-290396418D02*
X446383580Y-290444037D01*
X446383580Y-290444037D02*
X446288342Y-290491656D01*
X446288342Y-290491656D02*
X446002628Y-290491656D01*
X446002628Y-290491656D02*
X445907390Y-290444037D01*
X445907390Y-290444037D02*
X445859771Y-290396418D01*
X445859771Y-290396418D02*
X445812152Y-290301180D01*
X445812152Y-290301180D02*
X445812152Y-290158323D01*
X445812152Y-290158323D02*
X445859771Y-290063085D01*
X445859771Y-290063085D02*
X445907390Y-290015466D01*
X445907390Y-290015466D02*
X446002628Y-289967847D01*
X446002628Y-289967847D02*
X446288342Y-289967847D01*
X446288342Y-289967847D02*
X446383580Y-290015466D01*
X446383580Y-290015466D02*
X446431200Y-290063085D01*
X446431200Y-290063085D02*
X446478819Y-290158323D01*
X446478819Y-290158323D02*
X446478819Y-290301180D01*
X446478819Y-289396418D02*
X446431200Y-289491656D01*
X446431200Y-289491656D02*
X446335961Y-289539275D01*
X446335961Y-289539275D02*
X445478819Y-289539275D01*
X445812152Y-288586894D02*
X446478819Y-288586894D01*
X445812152Y-289015465D02*
X446335961Y-289015465D01*
X446335961Y-289015465D02*
X446431200Y-288967846D01*
X446431200Y-288967846D02*
X446478819Y-288872608D01*
X446478819Y-288872608D02*
X446478819Y-288729751D01*
X446478819Y-288729751D02*
X446431200Y-288634513D01*
X446431200Y-288634513D02*
X446383580Y-288586894D01*
X446478819Y-288110703D02*
X445812152Y-288110703D01*
X445907390Y-288110703D02*
X445859771Y-288063084D01*
X445859771Y-288063084D02*
X445812152Y-287967846D01*
X445812152Y-287967846D02*
X445812152Y-287824989D01*
X445812152Y-287824989D02*
X445859771Y-287729751D01*
X445859771Y-287729751D02*
X445955009Y-287682132D01*
X445955009Y-287682132D02*
X446478819Y-287682132D01*
X445955009Y-287682132D02*
X445859771Y-287634513D01*
X445859771Y-287634513D02*
X445812152Y-287539275D01*
X445812152Y-287539275D02*
X445812152Y-287396418D01*
X445812152Y-287396418D02*
X445859771Y-287301179D01*
X445859771Y-287301179D02*
X445955009Y-287253560D01*
X445955009Y-287253560D02*
X446478819Y-287253560D01*
X446431200Y-286396418D02*
X446478819Y-286491656D01*
X446478819Y-286491656D02*
X446478819Y-286682132D01*
X446478819Y-286682132D02*
X446431200Y-286777370D01*
X446431200Y-286777370D02*
X446335961Y-286824989D01*
X446335961Y-286824989D02*
X445955009Y-286824989D01*
X445955009Y-286824989D02*
X445859771Y-286777370D01*
X445859771Y-286777370D02*
X445812152Y-286682132D01*
X445812152Y-286682132D02*
X445812152Y-286491656D01*
X445812152Y-286491656D02*
X445859771Y-286396418D01*
X445859771Y-286396418D02*
X445955009Y-286348799D01*
X445955009Y-286348799D02*
X446050247Y-286348799D01*
X446050247Y-286348799D02*
X446145485Y-286824989D01*
X407220819Y-344641466D02*
X406744628Y-344974799D01*
X407220819Y-345212894D02*
X406220819Y-345212894D01*
X406220819Y-345212894D02*
X406220819Y-344831942D01*
X406220819Y-344831942D02*
X406268438Y-344736704D01*
X406268438Y-344736704D02*
X406316057Y-344689085D01*
X406316057Y-344689085D02*
X406411295Y-344641466D01*
X406411295Y-344641466D02*
X406554152Y-344641466D01*
X406554152Y-344641466D02*
X406649390Y-344689085D01*
X406649390Y-344689085D02*
X406697009Y-344736704D01*
X406697009Y-344736704D02*
X406744628Y-344831942D01*
X406744628Y-344831942D02*
X406744628Y-345212894D01*
X406220819Y-344308132D02*
X406220819Y-343641466D01*
X406220819Y-343641466D02*
X407220819Y-344070037D01*
X408474152Y-345736704D02*
X409140819Y-345736704D01*
X408093200Y-345974799D02*
X408807485Y-346212894D01*
X408807485Y-346212894D02*
X408807485Y-345593847D01*
X408140819Y-345308132D02*
X408140819Y-344641466D01*
X408140819Y-344641466D02*
X409140819Y-345070037D01*
X408140819Y-344070037D02*
X408140819Y-343974799D01*
X408140819Y-343974799D02*
X408188438Y-343879561D01*
X408188438Y-343879561D02*
X408236057Y-343831942D01*
X408236057Y-343831942D02*
X408331295Y-343784323D01*
X408331295Y-343784323D02*
X408521771Y-343736704D01*
X408521771Y-343736704D02*
X408759866Y-343736704D01*
X408759866Y-343736704D02*
X408950342Y-343784323D01*
X408950342Y-343784323D02*
X409045580Y-343831942D01*
X409045580Y-343831942D02*
X409093200Y-343879561D01*
X409093200Y-343879561D02*
X409140819Y-343974799D01*
X409140819Y-343974799D02*
X409140819Y-344070037D01*
X409140819Y-344070037D02*
X409093200Y-344165275D01*
X409093200Y-344165275D02*
X409045580Y-344212894D01*
X409045580Y-344212894D02*
X408950342Y-344260513D01*
X408950342Y-344260513D02*
X408759866Y-344308132D01*
X408759866Y-344308132D02*
X408521771Y-344308132D01*
X408521771Y-344308132D02*
X408331295Y-344260513D01*
X408331295Y-344260513D02*
X408236057Y-344212894D01*
X408236057Y-344212894D02*
X408188438Y-344165275D01*
X408188438Y-344165275D02*
X408140819Y-344070037D01*
X409140819Y-342736704D02*
X408664628Y-343070037D01*
X409140819Y-343308132D02*
X408140819Y-343308132D01*
X408140819Y-343308132D02*
X408140819Y-342927180D01*
X408140819Y-342927180D02*
X408188438Y-342831942D01*
X408188438Y-342831942D02*
X408236057Y-342784323D01*
X408236057Y-342784323D02*
X408331295Y-342736704D01*
X408331295Y-342736704D02*
X408474152Y-342736704D01*
X408474152Y-342736704D02*
X408569390Y-342784323D01*
X408569390Y-342784323D02*
X408617009Y-342831942D01*
X408617009Y-342831942D02*
X408664628Y-342927180D01*
X408664628Y-342927180D02*
X408664628Y-343308132D01*
X282876666Y-289726019D02*
X282876666Y-290440304D01*
X282876666Y-290440304D02*
X282829047Y-290583161D01*
X282829047Y-290583161D02*
X282733809Y-290678400D01*
X282733809Y-290678400D02*
X282590952Y-290726019D01*
X282590952Y-290726019D02*
X282495714Y-290726019D01*
X283829047Y-289726019D02*
X283352857Y-289726019D01*
X283352857Y-289726019D02*
X283305238Y-290202209D01*
X283305238Y-290202209D02*
X283352857Y-290154590D01*
X283352857Y-290154590D02*
X283448095Y-290106971D01*
X283448095Y-290106971D02*
X283686190Y-290106971D01*
X283686190Y-290106971D02*
X283781428Y-290154590D01*
X283781428Y-290154590D02*
X283829047Y-290202209D01*
X283829047Y-290202209D02*
X283876666Y-290297447D01*
X283876666Y-290297447D02*
X283876666Y-290535542D01*
X283876666Y-290535542D02*
X283829047Y-290630780D01*
X283829047Y-290630780D02*
X283781428Y-290678400D01*
X283781428Y-290678400D02*
X283686190Y-290726019D01*
X283686190Y-290726019D02*
X283448095Y-290726019D01*
X283448095Y-290726019D02*
X283352857Y-290678400D01*
X283352857Y-290678400D02*
X283305238Y-290630780D01*
X428418666Y-286624619D02*
X428418666Y-287338904D01*
X428418666Y-287338904D02*
X428371047Y-287481761D01*
X428371047Y-287481761D02*
X428275809Y-287577000D01*
X428275809Y-287577000D02*
X428132952Y-287624619D01*
X428132952Y-287624619D02*
X428037714Y-287624619D01*
X428847238Y-286719857D02*
X428894857Y-286672238D01*
X428894857Y-286672238D02*
X428990095Y-286624619D01*
X428990095Y-286624619D02*
X429228190Y-286624619D01*
X429228190Y-286624619D02*
X429323428Y-286672238D01*
X429323428Y-286672238D02*
X429371047Y-286719857D01*
X429371047Y-286719857D02*
X429418666Y-286815095D01*
X429418666Y-286815095D02*
X429418666Y-286910333D01*
X429418666Y-286910333D02*
X429371047Y-287053190D01*
X429371047Y-287053190D02*
X428799619Y-287624619D01*
X428799619Y-287624619D02*
X429418666Y-287624619D01*
X425990095Y-280277000D02*
X426132952Y-280324619D01*
X426132952Y-280324619D02*
X426371047Y-280324619D01*
X426371047Y-280324619D02*
X426466285Y-280277000D01*
X426466285Y-280277000D02*
X426513904Y-280229380D01*
X426513904Y-280229380D02*
X426561523Y-280134142D01*
X426561523Y-280134142D02*
X426561523Y-280038904D01*
X426561523Y-280038904D02*
X426513904Y-279943666D01*
X426513904Y-279943666D02*
X426466285Y-279896047D01*
X426466285Y-279896047D02*
X426371047Y-279848428D01*
X426371047Y-279848428D02*
X426180571Y-279800809D01*
X426180571Y-279800809D02*
X426085333Y-279753190D01*
X426085333Y-279753190D02*
X426037714Y-279705571D01*
X426037714Y-279705571D02*
X425990095Y-279610333D01*
X425990095Y-279610333D02*
X425990095Y-279515095D01*
X425990095Y-279515095D02*
X426037714Y-279419857D01*
X426037714Y-279419857D02*
X426085333Y-279372238D01*
X426085333Y-279372238D02*
X426180571Y-279324619D01*
X426180571Y-279324619D02*
X426418666Y-279324619D01*
X426418666Y-279324619D02*
X426561523Y-279372238D01*
X426990095Y-279657952D02*
X426990095Y-280657952D01*
X426990095Y-279705571D02*
X427085333Y-279657952D01*
X427085333Y-279657952D02*
X427275809Y-279657952D01*
X427275809Y-279657952D02*
X427371047Y-279705571D01*
X427371047Y-279705571D02*
X427418666Y-279753190D01*
X427418666Y-279753190D02*
X427466285Y-279848428D01*
X427466285Y-279848428D02*
X427466285Y-280134142D01*
X427466285Y-280134142D02*
X427418666Y-280229380D01*
X427418666Y-280229380D02*
X427371047Y-280277000D01*
X427371047Y-280277000D02*
X427275809Y-280324619D01*
X427275809Y-280324619D02*
X427085333Y-280324619D01*
X427085333Y-280324619D02*
X426990095Y-280277000D01*
X428275809Y-280277000D02*
X428180571Y-280324619D01*
X428180571Y-280324619D02*
X427990095Y-280324619D01*
X427990095Y-280324619D02*
X427894857Y-280277000D01*
X427894857Y-280277000D02*
X427847238Y-280181761D01*
X427847238Y-280181761D02*
X427847238Y-279800809D01*
X427847238Y-279800809D02*
X427894857Y-279705571D01*
X427894857Y-279705571D02*
X427990095Y-279657952D01*
X427990095Y-279657952D02*
X428180571Y-279657952D01*
X428180571Y-279657952D02*
X428275809Y-279705571D01*
X428275809Y-279705571D02*
X428323428Y-279800809D01*
X428323428Y-279800809D02*
X428323428Y-279896047D01*
X428323428Y-279896047D02*
X427847238Y-279991285D01*
X429180571Y-280324619D02*
X429180571Y-279800809D01*
X429180571Y-279800809D02*
X429132952Y-279705571D01*
X429132952Y-279705571D02*
X429037714Y-279657952D01*
X429037714Y-279657952D02*
X428847238Y-279657952D01*
X428847238Y-279657952D02*
X428752000Y-279705571D01*
X429180571Y-280277000D02*
X429085333Y-280324619D01*
X429085333Y-280324619D02*
X428847238Y-280324619D01*
X428847238Y-280324619D02*
X428752000Y-280277000D01*
X428752000Y-280277000D02*
X428704381Y-280181761D01*
X428704381Y-280181761D02*
X428704381Y-280086523D01*
X428704381Y-280086523D02*
X428752000Y-279991285D01*
X428752000Y-279991285D02*
X428847238Y-279943666D01*
X428847238Y-279943666D02*
X429085333Y-279943666D01*
X429085333Y-279943666D02*
X429180571Y-279896047D01*
X429656762Y-280324619D02*
X429656762Y-279324619D01*
X429752000Y-279943666D02*
X430037714Y-280324619D01*
X430037714Y-279657952D02*
X429656762Y-280038904D01*
X430847238Y-280277000D02*
X430752000Y-280324619D01*
X430752000Y-280324619D02*
X430561524Y-280324619D01*
X430561524Y-280324619D02*
X430466286Y-280277000D01*
X430466286Y-280277000D02*
X430418667Y-280181761D01*
X430418667Y-280181761D02*
X430418667Y-279800809D01*
X430418667Y-279800809D02*
X430466286Y-279705571D01*
X430466286Y-279705571D02*
X430561524Y-279657952D01*
X430561524Y-279657952D02*
X430752000Y-279657952D01*
X430752000Y-279657952D02*
X430847238Y-279705571D01*
X430847238Y-279705571D02*
X430894857Y-279800809D01*
X430894857Y-279800809D02*
X430894857Y-279896047D01*
X430894857Y-279896047D02*
X430418667Y-279991285D01*
X431323429Y-280324619D02*
X431323429Y-279657952D01*
X431323429Y-279848428D02*
X431371048Y-279753190D01*
X431371048Y-279753190D02*
X431418667Y-279705571D01*
X431418667Y-279705571D02*
X431513905Y-279657952D01*
X431513905Y-279657952D02*
X431609143Y-279657952D01*
X418966666Y-448624819D02*
X418966666Y-449339104D01*
X418966666Y-449339104D02*
X418919047Y-449481961D01*
X418919047Y-449481961D02*
X418823809Y-449577200D01*
X418823809Y-449577200D02*
X418680952Y-449624819D01*
X418680952Y-449624819D02*
X418585714Y-449624819D01*
X419347619Y-448624819D02*
X420014285Y-448624819D01*
X420014285Y-448624819D02*
X419585714Y-449624819D01*
X416109523Y-448256819D02*
X416109523Y-447256819D01*
X416680951Y-448256819D02*
X416252380Y-447685390D01*
X416680951Y-447256819D02*
X416109523Y-447828247D01*
X417490475Y-448209200D02*
X417395237Y-448256819D01*
X417395237Y-448256819D02*
X417204761Y-448256819D01*
X417204761Y-448256819D02*
X417109523Y-448209200D01*
X417109523Y-448209200D02*
X417061904Y-448113961D01*
X417061904Y-448113961D02*
X417061904Y-447733009D01*
X417061904Y-447733009D02*
X417109523Y-447637771D01*
X417109523Y-447637771D02*
X417204761Y-447590152D01*
X417204761Y-447590152D02*
X417395237Y-447590152D01*
X417395237Y-447590152D02*
X417490475Y-447637771D01*
X417490475Y-447637771D02*
X417538094Y-447733009D01*
X417538094Y-447733009D02*
X417538094Y-447828247D01*
X417538094Y-447828247D02*
X417061904Y-447923485D01*
X417871428Y-447590152D02*
X418109523Y-448256819D01*
X418347618Y-447590152D02*
X418109523Y-448256819D01*
X418109523Y-448256819D02*
X418014285Y-448494914D01*
X418014285Y-448494914D02*
X417966666Y-448542533D01*
X417966666Y-448542533D02*
X417871428Y-448590152D01*
X418728571Y-448256819D02*
X418728571Y-447256819D01*
X418728571Y-447637771D02*
X418823809Y-447590152D01*
X418823809Y-447590152D02*
X419014285Y-447590152D01*
X419014285Y-447590152D02*
X419109523Y-447637771D01*
X419109523Y-447637771D02*
X419157142Y-447685390D01*
X419157142Y-447685390D02*
X419204761Y-447780628D01*
X419204761Y-447780628D02*
X419204761Y-448066342D01*
X419204761Y-448066342D02*
X419157142Y-448161580D01*
X419157142Y-448161580D02*
X419109523Y-448209200D01*
X419109523Y-448209200D02*
X419014285Y-448256819D01*
X419014285Y-448256819D02*
X418823809Y-448256819D01*
X418823809Y-448256819D02*
X418728571Y-448209200D01*
X419776190Y-448256819D02*
X419680952Y-448209200D01*
X419680952Y-448209200D02*
X419633333Y-448161580D01*
X419633333Y-448161580D02*
X419585714Y-448066342D01*
X419585714Y-448066342D02*
X419585714Y-447780628D01*
X419585714Y-447780628D02*
X419633333Y-447685390D01*
X419633333Y-447685390D02*
X419680952Y-447637771D01*
X419680952Y-447637771D02*
X419776190Y-447590152D01*
X419776190Y-447590152D02*
X419919047Y-447590152D01*
X419919047Y-447590152D02*
X420014285Y-447637771D01*
X420014285Y-447637771D02*
X420061904Y-447685390D01*
X420061904Y-447685390D02*
X420109523Y-447780628D01*
X420109523Y-447780628D02*
X420109523Y-448066342D01*
X420109523Y-448066342D02*
X420061904Y-448161580D01*
X420061904Y-448161580D02*
X420014285Y-448209200D01*
X420014285Y-448209200D02*
X419919047Y-448256819D01*
X419919047Y-448256819D02*
X419776190Y-448256819D01*
X420966666Y-448256819D02*
X420966666Y-447733009D01*
X420966666Y-447733009D02*
X420919047Y-447637771D01*
X420919047Y-447637771D02*
X420823809Y-447590152D01*
X420823809Y-447590152D02*
X420633333Y-447590152D01*
X420633333Y-447590152D02*
X420538095Y-447637771D01*
X420966666Y-448209200D02*
X420871428Y-448256819D01*
X420871428Y-448256819D02*
X420633333Y-448256819D01*
X420633333Y-448256819D02*
X420538095Y-448209200D01*
X420538095Y-448209200D02*
X420490476Y-448113961D01*
X420490476Y-448113961D02*
X420490476Y-448018723D01*
X420490476Y-448018723D02*
X420538095Y-447923485D01*
X420538095Y-447923485D02*
X420633333Y-447875866D01*
X420633333Y-447875866D02*
X420871428Y-447875866D01*
X420871428Y-447875866D02*
X420966666Y-447828247D01*
X421442857Y-448256819D02*
X421442857Y-447590152D01*
X421442857Y-447780628D02*
X421490476Y-447685390D01*
X421490476Y-447685390D02*
X421538095Y-447637771D01*
X421538095Y-447637771D02*
X421633333Y-447590152D01*
X421633333Y-447590152D02*
X421728571Y-447590152D01*
X422490476Y-448256819D02*
X422490476Y-447256819D01*
X422490476Y-448209200D02*
X422395238Y-448256819D01*
X422395238Y-448256819D02*
X422204762Y-448256819D01*
X422204762Y-448256819D02*
X422109524Y-448209200D01*
X422109524Y-448209200D02*
X422061905Y-448161580D01*
X422061905Y-448161580D02*
X422014286Y-448066342D01*
X422014286Y-448066342D02*
X422014286Y-447780628D01*
X422014286Y-447780628D02*
X422061905Y-447685390D01*
X422061905Y-447685390D02*
X422109524Y-447637771D01*
X422109524Y-447637771D02*
X422204762Y-447590152D01*
X422204762Y-447590152D02*
X422395238Y-447590152D01*
X422395238Y-447590152D02*
X422490476Y-447637771D01*
X327553657Y-329736438D02*
X327506038Y-329831676D01*
X327506038Y-329831676D02*
X327410800Y-329926914D01*
X327410800Y-329926914D02*
X327267942Y-330069771D01*
X327267942Y-330069771D02*
X327220323Y-330165009D01*
X327220323Y-330165009D02*
X327220323Y-330260247D01*
X327458419Y-330212628D02*
X327410800Y-330307866D01*
X327410800Y-330307866D02*
X327315561Y-330403104D01*
X327315561Y-330403104D02*
X327125085Y-330450723D01*
X327125085Y-330450723D02*
X326791752Y-330450723D01*
X326791752Y-330450723D02*
X326601276Y-330403104D01*
X326601276Y-330403104D02*
X326506038Y-330307866D01*
X326506038Y-330307866D02*
X326458419Y-330212628D01*
X326458419Y-330212628D02*
X326458419Y-330022152D01*
X326458419Y-330022152D02*
X326506038Y-329926914D01*
X326506038Y-329926914D02*
X326601276Y-329831676D01*
X326601276Y-329831676D02*
X326791752Y-329784057D01*
X326791752Y-329784057D02*
X327125085Y-329784057D01*
X327125085Y-329784057D02*
X327315561Y-329831676D01*
X327315561Y-329831676D02*
X327410800Y-329926914D01*
X327410800Y-329926914D02*
X327458419Y-330022152D01*
X327458419Y-330022152D02*
X327458419Y-330212628D01*
X326553657Y-329403104D02*
X326506038Y-329355485D01*
X326506038Y-329355485D02*
X326458419Y-329260247D01*
X326458419Y-329260247D02*
X326458419Y-329022152D01*
X326458419Y-329022152D02*
X326506038Y-328926914D01*
X326506038Y-328926914D02*
X326553657Y-328879295D01*
X326553657Y-328879295D02*
X326648895Y-328831676D01*
X326648895Y-328831676D02*
X326744133Y-328831676D01*
X326744133Y-328831676D02*
X326886990Y-328879295D01*
X326886990Y-328879295D02*
X327458419Y-329450723D01*
X327458419Y-329450723D02*
X327458419Y-328831676D01*
X438189761Y-309229819D02*
X437856428Y-308753628D01*
X437618333Y-309229819D02*
X437618333Y-308229819D01*
X437618333Y-308229819D02*
X437999285Y-308229819D01*
X437999285Y-308229819D02*
X438094523Y-308277438D01*
X438094523Y-308277438D02*
X438142142Y-308325057D01*
X438142142Y-308325057D02*
X438189761Y-308420295D01*
X438189761Y-308420295D02*
X438189761Y-308563152D01*
X438189761Y-308563152D02*
X438142142Y-308658390D01*
X438142142Y-308658390D02*
X438094523Y-308706009D01*
X438094523Y-308706009D02*
X437999285Y-308753628D01*
X437999285Y-308753628D02*
X437618333Y-308753628D01*
X438475476Y-308229819D02*
X438808809Y-309229819D01*
X438808809Y-309229819D02*
X439142142Y-308229819D01*
X439380238Y-308229819D02*
X439999285Y-308229819D01*
X439999285Y-308229819D02*
X439665952Y-308610771D01*
X439665952Y-308610771D02*
X439808809Y-308610771D01*
X439808809Y-308610771D02*
X439904047Y-308658390D01*
X439904047Y-308658390D02*
X439951666Y-308706009D01*
X439951666Y-308706009D02*
X439999285Y-308801247D01*
X439999285Y-308801247D02*
X439999285Y-309039342D01*
X439999285Y-309039342D02*
X439951666Y-309134580D01*
X439951666Y-309134580D02*
X439904047Y-309182200D01*
X439904047Y-309182200D02*
X439808809Y-309229819D01*
X439808809Y-309229819D02*
X439523095Y-309229819D01*
X439523095Y-309229819D02*
X439427857Y-309182200D01*
X439427857Y-309182200D02*
X439380238Y-309134580D01*
X445703581Y-314973619D02*
X446036914Y-315973619D01*
X446036914Y-315973619D02*
X446370247Y-314973619D01*
X446703581Y-315973619D02*
X446703581Y-314973619D01*
X447179771Y-315973619D02*
X447179771Y-314973619D01*
X447179771Y-314973619D02*
X447417866Y-314973619D01*
X447417866Y-314973619D02*
X447560723Y-315021238D01*
X447560723Y-315021238D02*
X447655961Y-315116476D01*
X447655961Y-315116476D02*
X447703580Y-315211714D01*
X447703580Y-315211714D02*
X447751199Y-315402190D01*
X447751199Y-315402190D02*
X447751199Y-315545047D01*
X447751199Y-315545047D02*
X447703580Y-315735523D01*
X447703580Y-315735523D02*
X447655961Y-315830761D01*
X447655961Y-315830761D02*
X447560723Y-315926000D01*
X447560723Y-315926000D02*
X447417866Y-315973619D01*
X447417866Y-315973619D02*
X447179771Y-315973619D01*
X448179771Y-315449809D02*
X448513104Y-315449809D01*
X448655961Y-315973619D02*
X448179771Y-315973619D01*
X448179771Y-315973619D02*
X448179771Y-314973619D01*
X448179771Y-314973619D02*
X448655961Y-314973619D01*
X449275009Y-314973619D02*
X449465485Y-314973619D01*
X449465485Y-314973619D02*
X449560723Y-315021238D01*
X449560723Y-315021238D02*
X449655961Y-315116476D01*
X449655961Y-315116476D02*
X449703580Y-315306952D01*
X449703580Y-315306952D02*
X449703580Y-315640285D01*
X449703580Y-315640285D02*
X449655961Y-315830761D01*
X449655961Y-315830761D02*
X449560723Y-315926000D01*
X449560723Y-315926000D02*
X449465485Y-315973619D01*
X449465485Y-315973619D02*
X449275009Y-315973619D01*
X449275009Y-315973619D02*
X449179771Y-315926000D01*
X449179771Y-315926000D02*
X449084533Y-315830761D01*
X449084533Y-315830761D02*
X449036914Y-315640285D01*
X449036914Y-315640285D02*
X449036914Y-315306952D01*
X449036914Y-315306952D02*
X449084533Y-315116476D01*
X449084533Y-315116476D02*
X449179771Y-315021238D01*
X449179771Y-315021238D02*
X449275009Y-314973619D01*
X411059333Y-323197619D02*
X410726000Y-322721428D01*
X410487905Y-323197619D02*
X410487905Y-322197619D01*
X410487905Y-322197619D02*
X410868857Y-322197619D01*
X410868857Y-322197619D02*
X410964095Y-322245238D01*
X410964095Y-322245238D02*
X411011714Y-322292857D01*
X411011714Y-322292857D02*
X411059333Y-322388095D01*
X411059333Y-322388095D02*
X411059333Y-322530952D01*
X411059333Y-322530952D02*
X411011714Y-322626190D01*
X411011714Y-322626190D02*
X410964095Y-322673809D01*
X410964095Y-322673809D02*
X410868857Y-322721428D01*
X410868857Y-322721428D02*
X410487905Y-322721428D01*
X411916476Y-322197619D02*
X411726000Y-322197619D01*
X411726000Y-322197619D02*
X411630762Y-322245238D01*
X411630762Y-322245238D02*
X411583143Y-322292857D01*
X411583143Y-322292857D02*
X411487905Y-322435714D01*
X411487905Y-322435714D02*
X411440286Y-322626190D01*
X411440286Y-322626190D02*
X411440286Y-323007142D01*
X411440286Y-323007142D02*
X411487905Y-323102380D01*
X411487905Y-323102380D02*
X411535524Y-323150000D01*
X411535524Y-323150000D02*
X411630762Y-323197619D01*
X411630762Y-323197619D02*
X411821238Y-323197619D01*
X411821238Y-323197619D02*
X411916476Y-323150000D01*
X411916476Y-323150000D02*
X411964095Y-323102380D01*
X411964095Y-323102380D02*
X412011714Y-323007142D01*
X412011714Y-323007142D02*
X412011714Y-322769047D01*
X412011714Y-322769047D02*
X411964095Y-322673809D01*
X411964095Y-322673809D02*
X411916476Y-322626190D01*
X411916476Y-322626190D02*
X411821238Y-322578571D01*
X411821238Y-322578571D02*
X411630762Y-322578571D01*
X411630762Y-322578571D02*
X411535524Y-322626190D01*
X411535524Y-322626190D02*
X411487905Y-322673809D01*
X411487905Y-322673809D02*
X411440286Y-322769047D01*
X410059333Y-325117619D02*
X409487905Y-325117619D01*
X409773619Y-325117619D02*
X409773619Y-324117619D01*
X409773619Y-324117619D02*
X409678381Y-324260476D01*
X409678381Y-324260476D02*
X409583143Y-324355714D01*
X409583143Y-324355714D02*
X409487905Y-324403333D01*
X410678381Y-324117619D02*
X410773619Y-324117619D01*
X410773619Y-324117619D02*
X410868857Y-324165238D01*
X410868857Y-324165238D02*
X410916476Y-324212857D01*
X410916476Y-324212857D02*
X410964095Y-324308095D01*
X410964095Y-324308095D02*
X411011714Y-324498571D01*
X411011714Y-324498571D02*
X411011714Y-324736666D01*
X411011714Y-324736666D02*
X410964095Y-324927142D01*
X410964095Y-324927142D02*
X410916476Y-325022380D01*
X410916476Y-325022380D02*
X410868857Y-325070000D01*
X410868857Y-325070000D02*
X410773619Y-325117619D01*
X410773619Y-325117619D02*
X410678381Y-325117619D01*
X410678381Y-325117619D02*
X410583143Y-325070000D01*
X410583143Y-325070000D02*
X410535524Y-325022380D01*
X410535524Y-325022380D02*
X410487905Y-324927142D01*
X410487905Y-324927142D02*
X410440286Y-324736666D01*
X410440286Y-324736666D02*
X410440286Y-324498571D01*
X410440286Y-324498571D02*
X410487905Y-324308095D01*
X410487905Y-324308095D02*
X410535524Y-324212857D01*
X410535524Y-324212857D02*
X410583143Y-324165238D01*
X410583143Y-324165238D02*
X410678381Y-324117619D01*
X411630762Y-324117619D02*
X411726000Y-324117619D01*
X411726000Y-324117619D02*
X411821238Y-324165238D01*
X411821238Y-324165238D02*
X411868857Y-324212857D01*
X411868857Y-324212857D02*
X411916476Y-324308095D01*
X411916476Y-324308095D02*
X411964095Y-324498571D01*
X411964095Y-324498571D02*
X411964095Y-324736666D01*
X411964095Y-324736666D02*
X411916476Y-324927142D01*
X411916476Y-324927142D02*
X411868857Y-325022380D01*
X411868857Y-325022380D02*
X411821238Y-325070000D01*
X411821238Y-325070000D02*
X411726000Y-325117619D01*
X411726000Y-325117619D02*
X411630762Y-325117619D01*
X411630762Y-325117619D02*
X411535524Y-325070000D01*
X411535524Y-325070000D02*
X411487905Y-325022380D01*
X411487905Y-325022380D02*
X411440286Y-324927142D01*
X411440286Y-324927142D02*
X411392667Y-324736666D01*
X411392667Y-324736666D02*
X411392667Y-324498571D01*
X411392667Y-324498571D02*
X411440286Y-324308095D01*
X411440286Y-324308095D02*
X411487905Y-324212857D01*
X411487905Y-324212857D02*
X411535524Y-324165238D01*
X411535524Y-324165238D02*
X411630762Y-324117619D01*
X412964095Y-325117619D02*
X412630762Y-324641428D01*
X412392667Y-325117619D02*
X412392667Y-324117619D01*
X412392667Y-324117619D02*
X412773619Y-324117619D01*
X412773619Y-324117619D02*
X412868857Y-324165238D01*
X412868857Y-324165238D02*
X412916476Y-324212857D01*
X412916476Y-324212857D02*
X412964095Y-324308095D01*
X412964095Y-324308095D02*
X412964095Y-324450952D01*
X412964095Y-324450952D02*
X412916476Y-324546190D01*
X412916476Y-324546190D02*
X412868857Y-324593809D01*
X412868857Y-324593809D02*
X412773619Y-324641428D01*
X412773619Y-324641428D02*
X412392667Y-324641428D01*
X390350476Y-278219819D02*
X390350476Y-278934104D01*
X390350476Y-278934104D02*
X390302857Y-279076961D01*
X390302857Y-279076961D02*
X390207619Y-279172200D01*
X390207619Y-279172200D02*
X390064762Y-279219819D01*
X390064762Y-279219819D02*
X389969524Y-279219819D01*
X391350476Y-279219819D02*
X390779048Y-279219819D01*
X391064762Y-279219819D02*
X391064762Y-278219819D01*
X391064762Y-278219819D02*
X390969524Y-278362676D01*
X390969524Y-278362676D02*
X390874286Y-278457914D01*
X390874286Y-278457914D02*
X390779048Y-278505533D01*
X392207619Y-278553152D02*
X392207619Y-279219819D01*
X391969524Y-278172200D02*
X391731429Y-278886485D01*
X391731429Y-278886485D02*
X392350476Y-278886485D01*
X396971619Y-332943104D02*
X397781142Y-332943104D01*
X397781142Y-332943104D02*
X397876380Y-332895485D01*
X397876380Y-332895485D02*
X397924000Y-332847866D01*
X397924000Y-332847866D02*
X397971619Y-332752628D01*
X397971619Y-332752628D02*
X397971619Y-332562152D01*
X397971619Y-332562152D02*
X397924000Y-332466914D01*
X397924000Y-332466914D02*
X397876380Y-332419295D01*
X397876380Y-332419295D02*
X397781142Y-332371676D01*
X397781142Y-332371676D02*
X396971619Y-332371676D01*
X397400190Y-331752628D02*
X397352571Y-331847866D01*
X397352571Y-331847866D02*
X397304952Y-331895485D01*
X397304952Y-331895485D02*
X397209714Y-331943104D01*
X397209714Y-331943104D02*
X397162095Y-331943104D01*
X397162095Y-331943104D02*
X397066857Y-331895485D01*
X397066857Y-331895485D02*
X397019238Y-331847866D01*
X397019238Y-331847866D02*
X396971619Y-331752628D01*
X396971619Y-331752628D02*
X396971619Y-331562152D01*
X396971619Y-331562152D02*
X397019238Y-331466914D01*
X397019238Y-331466914D02*
X397066857Y-331419295D01*
X397066857Y-331419295D02*
X397162095Y-331371676D01*
X397162095Y-331371676D02*
X397209714Y-331371676D01*
X397209714Y-331371676D02*
X397304952Y-331419295D01*
X397304952Y-331419295D02*
X397352571Y-331466914D01*
X397352571Y-331466914D02*
X397400190Y-331562152D01*
X397400190Y-331562152D02*
X397400190Y-331752628D01*
X397400190Y-331752628D02*
X397447809Y-331847866D01*
X397447809Y-331847866D02*
X397495428Y-331895485D01*
X397495428Y-331895485D02*
X397590666Y-331943104D01*
X397590666Y-331943104D02*
X397781142Y-331943104D01*
X397781142Y-331943104D02*
X397876380Y-331895485D01*
X397876380Y-331895485D02*
X397924000Y-331847866D01*
X397924000Y-331847866D02*
X397971619Y-331752628D01*
X397971619Y-331752628D02*
X397971619Y-331562152D01*
X397971619Y-331562152D02*
X397924000Y-331466914D01*
X397924000Y-331466914D02*
X397876380Y-331419295D01*
X397876380Y-331419295D02*
X397781142Y-331371676D01*
X397781142Y-331371676D02*
X397590666Y-331371676D01*
X397590666Y-331371676D02*
X397495428Y-331419295D01*
X397495428Y-331419295D02*
X397447809Y-331466914D01*
X397447809Y-331466914D02*
X397400190Y-331562152D01*
X416871619Y-334824056D02*
X416871619Y-334157390D01*
X416871619Y-334157390D02*
X417871619Y-334585961D01*
X417204952Y-333347866D02*
X417871619Y-333347866D01*
X416824000Y-333585961D02*
X417538285Y-333824056D01*
X417538285Y-333824056D02*
X417538285Y-333205009D01*
X417871619Y-332347866D02*
X417871619Y-332824056D01*
X417871619Y-332824056D02*
X416871619Y-332824056D01*
X417824000Y-332062151D02*
X417871619Y-331919294D01*
X417871619Y-331919294D02*
X417871619Y-331681199D01*
X417871619Y-331681199D02*
X417824000Y-331585961D01*
X417824000Y-331585961D02*
X417776380Y-331538342D01*
X417776380Y-331538342D02*
X417681142Y-331490723D01*
X417681142Y-331490723D02*
X417585904Y-331490723D01*
X417585904Y-331490723D02*
X417490666Y-331538342D01*
X417490666Y-331538342D02*
X417443047Y-331585961D01*
X417443047Y-331585961D02*
X417395428Y-331681199D01*
X417395428Y-331681199D02*
X417347809Y-331871675D01*
X417347809Y-331871675D02*
X417300190Y-331966913D01*
X417300190Y-331966913D02*
X417252571Y-332014532D01*
X417252571Y-332014532D02*
X417157333Y-332062151D01*
X417157333Y-332062151D02*
X417062095Y-332062151D01*
X417062095Y-332062151D02*
X416966857Y-332014532D01*
X416966857Y-332014532D02*
X416919238Y-331966913D01*
X416919238Y-331966913D02*
X416871619Y-331871675D01*
X416871619Y-331871675D02*
X416871619Y-331633580D01*
X416871619Y-331633580D02*
X416919238Y-331490723D01*
X417300190Y-330919294D02*
X417252571Y-331014532D01*
X417252571Y-331014532D02*
X417204952Y-331062151D01*
X417204952Y-331062151D02*
X417109714Y-331109770D01*
X417109714Y-331109770D02*
X417062095Y-331109770D01*
X417062095Y-331109770D02*
X416966857Y-331062151D01*
X416966857Y-331062151D02*
X416919238Y-331014532D01*
X416919238Y-331014532D02*
X416871619Y-330919294D01*
X416871619Y-330919294D02*
X416871619Y-330728818D01*
X416871619Y-330728818D02*
X416919238Y-330633580D01*
X416919238Y-330633580D02*
X416966857Y-330585961D01*
X416966857Y-330585961D02*
X417062095Y-330538342D01*
X417062095Y-330538342D02*
X417109714Y-330538342D01*
X417109714Y-330538342D02*
X417204952Y-330585961D01*
X417204952Y-330585961D02*
X417252571Y-330633580D01*
X417252571Y-330633580D02*
X417300190Y-330728818D01*
X417300190Y-330728818D02*
X417300190Y-330919294D01*
X417300190Y-330919294D02*
X417347809Y-331014532D01*
X417347809Y-331014532D02*
X417395428Y-331062151D01*
X417395428Y-331062151D02*
X417490666Y-331109770D01*
X417490666Y-331109770D02*
X417681142Y-331109770D01*
X417681142Y-331109770D02*
X417776380Y-331062151D01*
X417776380Y-331062151D02*
X417824000Y-331014532D01*
X417824000Y-331014532D02*
X417871619Y-330919294D01*
X417871619Y-330919294D02*
X417871619Y-330728818D01*
X417871619Y-330728818D02*
X417824000Y-330633580D01*
X417824000Y-330633580D02*
X417776380Y-330585961D01*
X417776380Y-330585961D02*
X417681142Y-330538342D01*
X417681142Y-330538342D02*
X417490666Y-330538342D01*
X417490666Y-330538342D02*
X417395428Y-330585961D01*
X417395428Y-330585961D02*
X417347809Y-330633580D01*
X417347809Y-330633580D02*
X417300190Y-330728818D01*
X416871619Y-329681199D02*
X416871619Y-329871675D01*
X416871619Y-329871675D02*
X416919238Y-329966913D01*
X416919238Y-329966913D02*
X416966857Y-330014532D01*
X416966857Y-330014532D02*
X417109714Y-330109770D01*
X417109714Y-330109770D02*
X417300190Y-330157389D01*
X417300190Y-330157389D02*
X417681142Y-330157389D01*
X417681142Y-330157389D02*
X417776380Y-330109770D01*
X417776380Y-330109770D02*
X417824000Y-330062151D01*
X417824000Y-330062151D02*
X417871619Y-329966913D01*
X417871619Y-329966913D02*
X417871619Y-329776437D01*
X417871619Y-329776437D02*
X417824000Y-329681199D01*
X417824000Y-329681199D02*
X417776380Y-329633580D01*
X417776380Y-329633580D02*
X417681142Y-329585961D01*
X417681142Y-329585961D02*
X417443047Y-329585961D01*
X417443047Y-329585961D02*
X417347809Y-329633580D01*
X417347809Y-329633580D02*
X417300190Y-329681199D01*
X417300190Y-329681199D02*
X417252571Y-329776437D01*
X417252571Y-329776437D02*
X417252571Y-329966913D01*
X417252571Y-329966913D02*
X417300190Y-330062151D01*
X417300190Y-330062151D02*
X417347809Y-330109770D01*
X417347809Y-330109770D02*
X417443047Y-330157389D01*
X322610266Y-325024419D02*
X322610266Y-325738704D01*
X322610266Y-325738704D02*
X322562647Y-325881561D01*
X322562647Y-325881561D02*
X322467409Y-325976800D01*
X322467409Y-325976800D02*
X322324552Y-326024419D01*
X322324552Y-326024419D02*
X322229314Y-326024419D01*
X323086457Y-326024419D02*
X323086457Y-325024419D01*
X323086457Y-325024419D02*
X323467409Y-325024419D01*
X323467409Y-325024419D02*
X323562647Y-325072038D01*
X323562647Y-325072038D02*
X323610266Y-325119657D01*
X323610266Y-325119657D02*
X323657885Y-325214895D01*
X323657885Y-325214895D02*
X323657885Y-325357752D01*
X323657885Y-325357752D02*
X323610266Y-325452990D01*
X323610266Y-325452990D02*
X323562647Y-325500609D01*
X323562647Y-325500609D02*
X323467409Y-325548228D01*
X323467409Y-325548228D02*
X323086457Y-325548228D01*
X324515028Y-325357752D02*
X324515028Y-326024419D01*
X324276933Y-324976800D02*
X324038838Y-325691085D01*
X324038838Y-325691085D02*
X324657885Y-325691085D01*
X326094819Y-267461904D02*
X326904342Y-267461904D01*
X326904342Y-267461904D02*
X326999580Y-267414285D01*
X326999580Y-267414285D02*
X327047200Y-267366666D01*
X327047200Y-267366666D02*
X327094819Y-267271428D01*
X327094819Y-267271428D02*
X327094819Y-267080952D01*
X327094819Y-267080952D02*
X327047200Y-266985714D01*
X327047200Y-266985714D02*
X326999580Y-266938095D01*
X326999580Y-266938095D02*
X326904342Y-266890476D01*
X326904342Y-266890476D02*
X326094819Y-266890476D01*
X326094819Y-266509523D02*
X326094819Y-265890476D01*
X326094819Y-265890476D02*
X326475771Y-266223809D01*
X326475771Y-266223809D02*
X326475771Y-266080952D01*
X326475771Y-266080952D02*
X326523390Y-265985714D01*
X326523390Y-265985714D02*
X326571009Y-265938095D01*
X326571009Y-265938095D02*
X326666247Y-265890476D01*
X326666247Y-265890476D02*
X326904342Y-265890476D01*
X326904342Y-265890476D02*
X326999580Y-265938095D01*
X326999580Y-265938095D02*
X327047200Y-265985714D01*
X327047200Y-265985714D02*
X327094819Y-266080952D01*
X327094819Y-266080952D02*
X327094819Y-266366666D01*
X327094819Y-266366666D02*
X327047200Y-266461904D01*
X327047200Y-266461904D02*
X326999580Y-266509523D01*
X379411009Y-269414286D02*
X379411009Y-269747619D01*
X379934819Y-269747619D02*
X378934819Y-269747619D01*
X378934819Y-269747619D02*
X378934819Y-269271429D01*
X379934819Y-268747619D02*
X379887200Y-268842857D01*
X379887200Y-268842857D02*
X379791961Y-268890476D01*
X379791961Y-268890476D02*
X378934819Y-268890476D01*
X379934819Y-268223809D02*
X379887200Y-268319047D01*
X379887200Y-268319047D02*
X379839580Y-268366666D01*
X379839580Y-268366666D02*
X379744342Y-268414285D01*
X379744342Y-268414285D02*
X379458628Y-268414285D01*
X379458628Y-268414285D02*
X379363390Y-268366666D01*
X379363390Y-268366666D02*
X379315771Y-268319047D01*
X379315771Y-268319047D02*
X379268152Y-268223809D01*
X379268152Y-268223809D02*
X379268152Y-268080952D01*
X379268152Y-268080952D02*
X379315771Y-267985714D01*
X379315771Y-267985714D02*
X379363390Y-267938095D01*
X379363390Y-267938095D02*
X379458628Y-267890476D01*
X379458628Y-267890476D02*
X379744342Y-267890476D01*
X379744342Y-267890476D02*
X379839580Y-267938095D01*
X379839580Y-267938095D02*
X379887200Y-267985714D01*
X379887200Y-267985714D02*
X379934819Y-268080952D01*
X379934819Y-268080952D02*
X379934819Y-268223809D01*
X379268152Y-267461904D02*
X380268152Y-267461904D01*
X379315771Y-267461904D02*
X379268152Y-267366666D01*
X379268152Y-267366666D02*
X379268152Y-267176190D01*
X379268152Y-267176190D02*
X379315771Y-267080952D01*
X379315771Y-267080952D02*
X379363390Y-267033333D01*
X379363390Y-267033333D02*
X379458628Y-266985714D01*
X379458628Y-266985714D02*
X379744342Y-266985714D01*
X379744342Y-266985714D02*
X379839580Y-267033333D01*
X379839580Y-267033333D02*
X379887200Y-267080952D01*
X379887200Y-267080952D02*
X379934819Y-267176190D01*
X379934819Y-267176190D02*
X379934819Y-267366666D01*
X379934819Y-267366666D02*
X379887200Y-267461904D01*
X379268152Y-266557142D02*
X380268152Y-266557142D01*
X379315771Y-266557142D02*
X379268152Y-266461904D01*
X379268152Y-266461904D02*
X379268152Y-266271428D01*
X379268152Y-266271428D02*
X379315771Y-266176190D01*
X379315771Y-266176190D02*
X379363390Y-266128571D01*
X379363390Y-266128571D02*
X379458628Y-266080952D01*
X379458628Y-266080952D02*
X379744342Y-266080952D01*
X379744342Y-266080952D02*
X379839580Y-266128571D01*
X379839580Y-266128571D02*
X379887200Y-266176190D01*
X379887200Y-266176190D02*
X379934819Y-266271428D01*
X379934819Y-266271428D02*
X379934819Y-266461904D01*
X379934819Y-266461904D02*
X379887200Y-266557142D01*
X379268152Y-265747618D02*
X379934819Y-265509523D01*
X379268152Y-265271428D02*
X379934819Y-265509523D01*
X379934819Y-265509523D02*
X380172914Y-265604761D01*
X380172914Y-265604761D02*
X380220533Y-265652380D01*
X380220533Y-265652380D02*
X380268152Y-265747618D01*
X379934819Y-263604761D02*
X379934819Y-264176189D01*
X379934819Y-263890475D02*
X378934819Y-263890475D01*
X378934819Y-263890475D02*
X379077676Y-263985713D01*
X379077676Y-263985713D02*
X379172914Y-264080951D01*
X379172914Y-264080951D02*
X379220533Y-264176189D01*
X326044019Y-290641904D02*
X326853542Y-290641904D01*
X326853542Y-290641904D02*
X326948780Y-290594285D01*
X326948780Y-290594285D02*
X326996400Y-290546666D01*
X326996400Y-290546666D02*
X327044019Y-290451428D01*
X327044019Y-290451428D02*
X327044019Y-290260952D01*
X327044019Y-290260952D02*
X326996400Y-290165714D01*
X326996400Y-290165714D02*
X326948780Y-290118095D01*
X326948780Y-290118095D02*
X326853542Y-290070476D01*
X326853542Y-290070476D02*
X326044019Y-290070476D01*
X326044019Y-289118095D02*
X326044019Y-289594285D01*
X326044019Y-289594285D02*
X326520209Y-289641904D01*
X326520209Y-289641904D02*
X326472590Y-289594285D01*
X326472590Y-289594285D02*
X326424971Y-289499047D01*
X326424971Y-289499047D02*
X326424971Y-289260952D01*
X326424971Y-289260952D02*
X326472590Y-289165714D01*
X326472590Y-289165714D02*
X326520209Y-289118095D01*
X326520209Y-289118095D02*
X326615447Y-289070476D01*
X326615447Y-289070476D02*
X326853542Y-289070476D01*
X326853542Y-289070476D02*
X326948780Y-289118095D01*
X326948780Y-289118095D02*
X326996400Y-289165714D01*
X326996400Y-289165714D02*
X327044019Y-289260952D01*
X327044019Y-289260952D02*
X327044019Y-289499047D01*
X327044019Y-289499047D02*
X326996400Y-289594285D01*
X326996400Y-289594285D02*
X326948780Y-289641904D01*
X379884019Y-294308571D02*
X378884019Y-294308571D01*
X378884019Y-294308571D02*
X379598304Y-293975238D01*
X379598304Y-293975238D02*
X378884019Y-293641905D01*
X378884019Y-293641905D02*
X379884019Y-293641905D01*
X379360209Y-292832381D02*
X379360209Y-293165714D01*
X379884019Y-293165714D02*
X378884019Y-293165714D01*
X378884019Y-293165714D02*
X378884019Y-292689524D01*
X379884019Y-292308571D02*
X378884019Y-292308571D01*
X378884019Y-292308571D02*
X379598304Y-291975238D01*
X379598304Y-291975238D02*
X378884019Y-291641905D01*
X378884019Y-291641905D02*
X379884019Y-291641905D01*
X379788780Y-289832381D02*
X379836400Y-289880000D01*
X379836400Y-289880000D02*
X379884019Y-290022857D01*
X379884019Y-290022857D02*
X379884019Y-290118095D01*
X379884019Y-290118095D02*
X379836400Y-290260952D01*
X379836400Y-290260952D02*
X379741161Y-290356190D01*
X379741161Y-290356190D02*
X379645923Y-290403809D01*
X379645923Y-290403809D02*
X379455447Y-290451428D01*
X379455447Y-290451428D02*
X379312590Y-290451428D01*
X379312590Y-290451428D02*
X379122114Y-290403809D01*
X379122114Y-290403809D02*
X379026876Y-290356190D01*
X379026876Y-290356190D02*
X378931638Y-290260952D01*
X378931638Y-290260952D02*
X378884019Y-290118095D01*
X378884019Y-290118095D02*
X378884019Y-290022857D01*
X378884019Y-290022857D02*
X378931638Y-289880000D01*
X378931638Y-289880000D02*
X378979257Y-289832381D01*
X379884019Y-289260952D02*
X379836400Y-289356190D01*
X379836400Y-289356190D02*
X379788780Y-289403809D01*
X379788780Y-289403809D02*
X379693542Y-289451428D01*
X379693542Y-289451428D02*
X379407828Y-289451428D01*
X379407828Y-289451428D02*
X379312590Y-289403809D01*
X379312590Y-289403809D02*
X379264971Y-289356190D01*
X379264971Y-289356190D02*
X379217352Y-289260952D01*
X379217352Y-289260952D02*
X379217352Y-289118095D01*
X379217352Y-289118095D02*
X379264971Y-289022857D01*
X379264971Y-289022857D02*
X379312590Y-288975238D01*
X379312590Y-288975238D02*
X379407828Y-288927619D01*
X379407828Y-288927619D02*
X379693542Y-288927619D01*
X379693542Y-288927619D02*
X379788780Y-288975238D01*
X379788780Y-288975238D02*
X379836400Y-289022857D01*
X379836400Y-289022857D02*
X379884019Y-289118095D01*
X379884019Y-289118095D02*
X379884019Y-289260952D01*
X379217352Y-288499047D02*
X379884019Y-288499047D01*
X379312590Y-288499047D02*
X379264971Y-288451428D01*
X379264971Y-288451428D02*
X379217352Y-288356190D01*
X379217352Y-288356190D02*
X379217352Y-288213333D01*
X379217352Y-288213333D02*
X379264971Y-288118095D01*
X379264971Y-288118095D02*
X379360209Y-288070476D01*
X379360209Y-288070476D02*
X379884019Y-288070476D01*
X379217352Y-287737142D02*
X379217352Y-287356190D01*
X378884019Y-287594285D02*
X379741161Y-287594285D01*
X379741161Y-287594285D02*
X379836400Y-287546666D01*
X379836400Y-287546666D02*
X379884019Y-287451428D01*
X379884019Y-287451428D02*
X379884019Y-287356190D01*
X379884019Y-287022856D02*
X379217352Y-287022856D01*
X379407828Y-287022856D02*
X379312590Y-286975237D01*
X379312590Y-286975237D02*
X379264971Y-286927618D01*
X379264971Y-286927618D02*
X379217352Y-286832380D01*
X379217352Y-286832380D02*
X379217352Y-286737142D01*
X379884019Y-286260951D02*
X379836400Y-286356189D01*
X379836400Y-286356189D02*
X379788780Y-286403808D01*
X379788780Y-286403808D02*
X379693542Y-286451427D01*
X379693542Y-286451427D02*
X379407828Y-286451427D01*
X379407828Y-286451427D02*
X379312590Y-286403808D01*
X379312590Y-286403808D02*
X379264971Y-286356189D01*
X379264971Y-286356189D02*
X379217352Y-286260951D01*
X379217352Y-286260951D02*
X379217352Y-286118094D01*
X379217352Y-286118094D02*
X379264971Y-286022856D01*
X379264971Y-286022856D02*
X379312590Y-285975237D01*
X379312590Y-285975237D02*
X379407828Y-285927618D01*
X379407828Y-285927618D02*
X379693542Y-285927618D01*
X379693542Y-285927618D02*
X379788780Y-285975237D01*
X379788780Y-285975237D02*
X379836400Y-286022856D01*
X379836400Y-286022856D02*
X379884019Y-286118094D01*
X379884019Y-286118094D02*
X379884019Y-286260951D01*
X379884019Y-285356189D02*
X379836400Y-285451427D01*
X379836400Y-285451427D02*
X379741161Y-285499046D01*
X379741161Y-285499046D02*
X378884019Y-285499046D01*
X310794495Y-300520619D02*
X310794495Y-299520619D01*
X310794495Y-299996809D02*
X311365923Y-299996809D01*
X311365923Y-300520619D02*
X311365923Y-299520619D01*
X312270685Y-299520619D02*
X312080209Y-299520619D01*
X312080209Y-299520619D02*
X311984971Y-299568238D01*
X311984971Y-299568238D02*
X311937352Y-299615857D01*
X311937352Y-299615857D02*
X311842114Y-299758714D01*
X311842114Y-299758714D02*
X311794495Y-299949190D01*
X311794495Y-299949190D02*
X311794495Y-300330142D01*
X311794495Y-300330142D02*
X311842114Y-300425380D01*
X311842114Y-300425380D02*
X311889733Y-300473000D01*
X311889733Y-300473000D02*
X311984971Y-300520619D01*
X311984971Y-300520619D02*
X312175447Y-300520619D01*
X312175447Y-300520619D02*
X312270685Y-300473000D01*
X312270685Y-300473000D02*
X312318304Y-300425380D01*
X312318304Y-300425380D02*
X312365923Y-300330142D01*
X312365923Y-300330142D02*
X312365923Y-300092047D01*
X312365923Y-300092047D02*
X312318304Y-299996809D01*
X312318304Y-299996809D02*
X312270685Y-299949190D01*
X312270685Y-299949190D02*
X312175447Y-299901571D01*
X312175447Y-299901571D02*
X311984971Y-299901571D01*
X311984971Y-299901571D02*
X311889733Y-299949190D01*
X311889733Y-299949190D02*
X311842114Y-299996809D01*
X311842114Y-299996809D02*
X311794495Y-300092047D01*
X313789066Y-317673619D02*
X313789066Y-318387904D01*
X313789066Y-318387904D02*
X313741447Y-318530761D01*
X313741447Y-318530761D02*
X313646209Y-318626000D01*
X313646209Y-318626000D02*
X313503352Y-318673619D01*
X313503352Y-318673619D02*
X313408114Y-318673619D01*
X314265257Y-318673619D02*
X314265257Y-317673619D01*
X314265257Y-317673619D02*
X314646209Y-317673619D01*
X314646209Y-317673619D02*
X314741447Y-317721238D01*
X314741447Y-317721238D02*
X314789066Y-317768857D01*
X314789066Y-317768857D02*
X314836685Y-317864095D01*
X314836685Y-317864095D02*
X314836685Y-318006952D01*
X314836685Y-318006952D02*
X314789066Y-318102190D01*
X314789066Y-318102190D02*
X314741447Y-318149809D01*
X314741447Y-318149809D02*
X314646209Y-318197428D01*
X314646209Y-318197428D02*
X314265257Y-318197428D01*
X315217638Y-317768857D02*
X315265257Y-317721238D01*
X315265257Y-317721238D02*
X315360495Y-317673619D01*
X315360495Y-317673619D02*
X315598590Y-317673619D01*
X315598590Y-317673619D02*
X315693828Y-317721238D01*
X315693828Y-317721238D02*
X315741447Y-317768857D01*
X315741447Y-317768857D02*
X315789066Y-317864095D01*
X315789066Y-317864095D02*
X315789066Y-317959333D01*
X315789066Y-317959333D02*
X315741447Y-318102190D01*
X315741447Y-318102190D02*
X315170019Y-318673619D01*
X315170019Y-318673619D02*
X315789066Y-318673619D01*
X415296819Y-414070704D02*
X416106342Y-414070704D01*
X416106342Y-414070704D02*
X416201580Y-414023085D01*
X416201580Y-414023085D02*
X416249200Y-413975466D01*
X416249200Y-413975466D02*
X416296819Y-413880228D01*
X416296819Y-413880228D02*
X416296819Y-413689752D01*
X416296819Y-413689752D02*
X416249200Y-413594514D01*
X416249200Y-413594514D02*
X416201580Y-413546895D01*
X416201580Y-413546895D02*
X416106342Y-413499276D01*
X416106342Y-413499276D02*
X415296819Y-413499276D01*
X415296819Y-413118323D02*
X415296819Y-412451657D01*
X415296819Y-412451657D02*
X416296819Y-412880228D01*
X393571104Y-417761180D02*
X393571104Y-417284990D01*
X393856819Y-417856418D02*
X392856819Y-417523085D01*
X392856819Y-417523085D02*
X393856819Y-417189752D01*
X393856819Y-416856418D02*
X392856819Y-416856418D01*
X392856819Y-416856418D02*
X393571104Y-416523085D01*
X393571104Y-416523085D02*
X392856819Y-416189752D01*
X392856819Y-416189752D02*
X393856819Y-416189752D01*
X392952057Y-415761180D02*
X392904438Y-415713561D01*
X392904438Y-415713561D02*
X392856819Y-415618323D01*
X392856819Y-415618323D02*
X392856819Y-415380228D01*
X392856819Y-415380228D02*
X392904438Y-415284990D01*
X392904438Y-415284990D02*
X392952057Y-415237371D01*
X392952057Y-415237371D02*
X393047295Y-415189752D01*
X393047295Y-415189752D02*
X393142533Y-415189752D01*
X393142533Y-415189752D02*
X393285390Y-415237371D01*
X393285390Y-415237371D02*
X393856819Y-415808799D01*
X393856819Y-415808799D02*
X393856819Y-415189752D01*
X392856819Y-414332609D02*
X392856819Y-414523085D01*
X392856819Y-414523085D02*
X392904438Y-414618323D01*
X392904438Y-414618323D02*
X392952057Y-414665942D01*
X392952057Y-414665942D02*
X393094914Y-414761180D01*
X393094914Y-414761180D02*
X393285390Y-414808799D01*
X393285390Y-414808799D02*
X393666342Y-414808799D01*
X393666342Y-414808799D02*
X393761580Y-414761180D01*
X393761580Y-414761180D02*
X393809200Y-414713561D01*
X393809200Y-414713561D02*
X393856819Y-414618323D01*
X393856819Y-414618323D02*
X393856819Y-414427847D01*
X393856819Y-414427847D02*
X393809200Y-414332609D01*
X393809200Y-414332609D02*
X393761580Y-414284990D01*
X393761580Y-414284990D02*
X393666342Y-414237371D01*
X393666342Y-414237371D02*
X393428247Y-414237371D01*
X393428247Y-414237371D02*
X393333009Y-414284990D01*
X393333009Y-414284990D02*
X393285390Y-414332609D01*
X393285390Y-414332609D02*
X393237771Y-414427847D01*
X393237771Y-414427847D02*
X393237771Y-414618323D01*
X393237771Y-414618323D02*
X393285390Y-414713561D01*
X393285390Y-414713561D02*
X393333009Y-414761180D01*
X393333009Y-414761180D02*
X393428247Y-414808799D01*
X393856819Y-413332609D02*
X393856819Y-413808799D01*
X393856819Y-413808799D02*
X392856819Y-413808799D01*
X392856819Y-413142132D02*
X393856819Y-412808799D01*
X393856819Y-412808799D02*
X392856819Y-412475466D01*
X392856819Y-412237370D02*
X392856819Y-411618323D01*
X392856819Y-411618323D02*
X393237771Y-411951656D01*
X393237771Y-411951656D02*
X393237771Y-411808799D01*
X393237771Y-411808799D02*
X393285390Y-411713561D01*
X393285390Y-411713561D02*
X393333009Y-411665942D01*
X393333009Y-411665942D02*
X393428247Y-411618323D01*
X393428247Y-411618323D02*
X393666342Y-411618323D01*
X393666342Y-411618323D02*
X393761580Y-411665942D01*
X393761580Y-411665942D02*
X393809200Y-411713561D01*
X393809200Y-411713561D02*
X393856819Y-411808799D01*
X393856819Y-411808799D02*
X393856819Y-412094513D01*
X393856819Y-412094513D02*
X393809200Y-412189751D01*
X393809200Y-412189751D02*
X393761580Y-412237370D01*
X392952057Y-411237370D02*
X392904438Y-411189751D01*
X392904438Y-411189751D02*
X392856819Y-411094513D01*
X392856819Y-411094513D02*
X392856819Y-410856418D01*
X392856819Y-410856418D02*
X392904438Y-410761180D01*
X392904438Y-410761180D02*
X392952057Y-410713561D01*
X392952057Y-410713561D02*
X393047295Y-410665942D01*
X393047295Y-410665942D02*
X393142533Y-410665942D01*
X393142533Y-410665942D02*
X393285390Y-410713561D01*
X393285390Y-410713561D02*
X393856819Y-411284989D01*
X393856819Y-411284989D02*
X393856819Y-410665942D01*
X393856819Y-410332608D02*
X393190152Y-409808799D01*
X393190152Y-410332608D02*
X393856819Y-409808799D01*
X393856819Y-409427846D02*
X392856819Y-409427846D01*
X392856819Y-409427846D02*
X392856819Y-409189751D01*
X392856819Y-409189751D02*
X392904438Y-409046894D01*
X392904438Y-409046894D02*
X392999676Y-408951656D01*
X392999676Y-408951656D02*
X393094914Y-408904037D01*
X393094914Y-408904037D02*
X393285390Y-408856418D01*
X393285390Y-408856418D02*
X393428247Y-408856418D01*
X393428247Y-408856418D02*
X393618723Y-408904037D01*
X393618723Y-408904037D02*
X393713961Y-408951656D01*
X393713961Y-408951656D02*
X393809200Y-409046894D01*
X393809200Y-409046894D02*
X393856819Y-409189751D01*
X393856819Y-409189751D02*
X393856819Y-409427846D01*
X413700933Y-408571619D02*
X413367600Y-408095428D01*
X413129505Y-408571619D02*
X413129505Y-407571619D01*
X413129505Y-407571619D02*
X413510457Y-407571619D01*
X413510457Y-407571619D02*
X413605695Y-407619238D01*
X413605695Y-407619238D02*
X413653314Y-407666857D01*
X413653314Y-407666857D02*
X413700933Y-407762095D01*
X413700933Y-407762095D02*
X413700933Y-407904952D01*
X413700933Y-407904952D02*
X413653314Y-408000190D01*
X413653314Y-408000190D02*
X413605695Y-408047809D01*
X413605695Y-408047809D02*
X413510457Y-408095428D01*
X413510457Y-408095428D02*
X413129505Y-408095428D01*
X414081886Y-407666857D02*
X414129505Y-407619238D01*
X414129505Y-407619238D02*
X414224743Y-407571619D01*
X414224743Y-407571619D02*
X414462838Y-407571619D01*
X414462838Y-407571619D02*
X414558076Y-407619238D01*
X414558076Y-407619238D02*
X414605695Y-407666857D01*
X414605695Y-407666857D02*
X414653314Y-407762095D01*
X414653314Y-407762095D02*
X414653314Y-407857333D01*
X414653314Y-407857333D02*
X414605695Y-408000190D01*
X414605695Y-408000190D02*
X414034267Y-408571619D01*
X414034267Y-408571619D02*
X414653314Y-408571619D01*
X412700933Y-406651619D02*
X412129505Y-406651619D01*
X412415219Y-406651619D02*
X412415219Y-405651619D01*
X412415219Y-405651619D02*
X412319981Y-405794476D01*
X412319981Y-405794476D02*
X412224743Y-405889714D01*
X412224743Y-405889714D02*
X412129505Y-405937333D01*
X413081886Y-405746857D02*
X413129505Y-405699238D01*
X413129505Y-405699238D02*
X413224743Y-405651619D01*
X413224743Y-405651619D02*
X413462838Y-405651619D01*
X413462838Y-405651619D02*
X413558076Y-405699238D01*
X413558076Y-405699238D02*
X413605695Y-405746857D01*
X413605695Y-405746857D02*
X413653314Y-405842095D01*
X413653314Y-405842095D02*
X413653314Y-405937333D01*
X413653314Y-405937333D02*
X413605695Y-406080190D01*
X413605695Y-406080190D02*
X413034267Y-406651619D01*
X413034267Y-406651619D02*
X413653314Y-406651619D01*
X414272362Y-405651619D02*
X414367600Y-405651619D01*
X414367600Y-405651619D02*
X414462838Y-405699238D01*
X414462838Y-405699238D02*
X414510457Y-405746857D01*
X414510457Y-405746857D02*
X414558076Y-405842095D01*
X414558076Y-405842095D02*
X414605695Y-406032571D01*
X414605695Y-406032571D02*
X414605695Y-406270666D01*
X414605695Y-406270666D02*
X414558076Y-406461142D01*
X414558076Y-406461142D02*
X414510457Y-406556380D01*
X414510457Y-406556380D02*
X414462838Y-406604000D01*
X414462838Y-406604000D02*
X414367600Y-406651619D01*
X414367600Y-406651619D02*
X414272362Y-406651619D01*
X414272362Y-406651619D02*
X414177124Y-406604000D01*
X414177124Y-406604000D02*
X414129505Y-406556380D01*
X414129505Y-406556380D02*
X414081886Y-406461142D01*
X414081886Y-406461142D02*
X414034267Y-406270666D01*
X414034267Y-406270666D02*
X414034267Y-406032571D01*
X414034267Y-406032571D02*
X414081886Y-405842095D01*
X414081886Y-405842095D02*
X414129505Y-405746857D01*
X414129505Y-405746857D02*
X414177124Y-405699238D01*
X414177124Y-405699238D02*
X414272362Y-405651619D01*
X415605695Y-406651619D02*
X415272362Y-406175428D01*
X415034267Y-406651619D02*
X415034267Y-405651619D01*
X415034267Y-405651619D02*
X415415219Y-405651619D01*
X415415219Y-405651619D02*
X415510457Y-405699238D01*
X415510457Y-405699238D02*
X415558076Y-405746857D01*
X415558076Y-405746857D02*
X415605695Y-405842095D01*
X415605695Y-405842095D02*
X415605695Y-405984952D01*
X415605695Y-405984952D02*
X415558076Y-406080190D01*
X415558076Y-406080190D02*
X415510457Y-406127809D01*
X415510457Y-406127809D02*
X415415219Y-406175428D01*
X415415219Y-406175428D02*
X415034267Y-406175428D01*
X323516666Y-448624819D02*
X323516666Y-449339104D01*
X323516666Y-449339104D02*
X323469047Y-449481961D01*
X323469047Y-449481961D02*
X323373809Y-449577200D01*
X323373809Y-449577200D02*
X323230952Y-449624819D01*
X323230952Y-449624819D02*
X323135714Y-449624819D01*
X324421428Y-448958152D02*
X324421428Y-449624819D01*
X324183333Y-448577200D02*
X323945238Y-449291485D01*
X323945238Y-449291485D02*
X324564285Y-449291485D01*
X322067465Y-448212380D02*
X322019846Y-448260000D01*
X322019846Y-448260000D02*
X321876989Y-448307619D01*
X321876989Y-448307619D02*
X321781751Y-448307619D01*
X321781751Y-448307619D02*
X321638894Y-448260000D01*
X321638894Y-448260000D02*
X321543656Y-448164761D01*
X321543656Y-448164761D02*
X321496037Y-448069523D01*
X321496037Y-448069523D02*
X321448418Y-447879047D01*
X321448418Y-447879047D02*
X321448418Y-447736190D01*
X321448418Y-447736190D02*
X321496037Y-447545714D01*
X321496037Y-447545714D02*
X321543656Y-447450476D01*
X321543656Y-447450476D02*
X321638894Y-447355238D01*
X321638894Y-447355238D02*
X321781751Y-447307619D01*
X321781751Y-447307619D02*
X321876989Y-447307619D01*
X321876989Y-447307619D02*
X322019846Y-447355238D01*
X322019846Y-447355238D02*
X322067465Y-447402857D01*
X322638894Y-448307619D02*
X322543656Y-448260000D01*
X322543656Y-448260000D02*
X322496037Y-448164761D01*
X322496037Y-448164761D02*
X322496037Y-447307619D01*
X323448418Y-447640952D02*
X323448418Y-448307619D01*
X323019847Y-447640952D02*
X323019847Y-448164761D01*
X323019847Y-448164761D02*
X323067466Y-448260000D01*
X323067466Y-448260000D02*
X323162704Y-448307619D01*
X323162704Y-448307619D02*
X323305561Y-448307619D01*
X323305561Y-448307619D02*
X323400799Y-448260000D01*
X323400799Y-448260000D02*
X323448418Y-448212380D01*
X323876990Y-448260000D02*
X323972228Y-448307619D01*
X323972228Y-448307619D02*
X324162704Y-448307619D01*
X324162704Y-448307619D02*
X324257942Y-448260000D01*
X324257942Y-448260000D02*
X324305561Y-448164761D01*
X324305561Y-448164761D02*
X324305561Y-448117142D01*
X324305561Y-448117142D02*
X324257942Y-448021904D01*
X324257942Y-448021904D02*
X324162704Y-447974285D01*
X324162704Y-447974285D02*
X324019847Y-447974285D01*
X324019847Y-447974285D02*
X323924609Y-447926666D01*
X323924609Y-447926666D02*
X323876990Y-447831428D01*
X323876990Y-447831428D02*
X323876990Y-447783809D01*
X323876990Y-447783809D02*
X323924609Y-447688571D01*
X323924609Y-447688571D02*
X324019847Y-447640952D01*
X324019847Y-447640952D02*
X324162704Y-447640952D01*
X324162704Y-447640952D02*
X324257942Y-447688571D01*
X324591276Y-447640952D02*
X324972228Y-447640952D01*
X324734133Y-447307619D02*
X324734133Y-448164761D01*
X324734133Y-448164761D02*
X324781752Y-448260000D01*
X324781752Y-448260000D02*
X324876990Y-448307619D01*
X324876990Y-448307619D02*
X324972228Y-448307619D01*
X325686514Y-448260000D02*
X325591276Y-448307619D01*
X325591276Y-448307619D02*
X325400800Y-448307619D01*
X325400800Y-448307619D02*
X325305562Y-448260000D01*
X325305562Y-448260000D02*
X325257943Y-448164761D01*
X325257943Y-448164761D02*
X325257943Y-447783809D01*
X325257943Y-447783809D02*
X325305562Y-447688571D01*
X325305562Y-447688571D02*
X325400800Y-447640952D01*
X325400800Y-447640952D02*
X325591276Y-447640952D01*
X325591276Y-447640952D02*
X325686514Y-447688571D01*
X325686514Y-447688571D02*
X325734133Y-447783809D01*
X325734133Y-447783809D02*
X325734133Y-447879047D01*
X325734133Y-447879047D02*
X325257943Y-447974285D01*
X326162705Y-448307619D02*
X326162705Y-447640952D01*
X326162705Y-447831428D02*
X326210324Y-447736190D01*
X326210324Y-447736190D02*
X326257943Y-447688571D01*
X326257943Y-447688571D02*
X326353181Y-447640952D01*
X326353181Y-447640952D02*
X326448419Y-447640952D01*
X277796666Y-448624819D02*
X277796666Y-449339104D01*
X277796666Y-449339104D02*
X277749047Y-449481961D01*
X277749047Y-449481961D02*
X277653809Y-449577200D01*
X277653809Y-449577200D02*
X277510952Y-449624819D01*
X277510952Y-449624819D02*
X277415714Y-449624819D01*
X278177619Y-448624819D02*
X278796666Y-448624819D01*
X278796666Y-448624819D02*
X278463333Y-449005771D01*
X278463333Y-449005771D02*
X278606190Y-449005771D01*
X278606190Y-449005771D02*
X278701428Y-449053390D01*
X278701428Y-449053390D02*
X278749047Y-449101009D01*
X278749047Y-449101009D02*
X278796666Y-449196247D01*
X278796666Y-449196247D02*
X278796666Y-449434342D01*
X278796666Y-449434342D02*
X278749047Y-449529580D01*
X278749047Y-449529580D02*
X278701428Y-449577200D01*
X278701428Y-449577200D02*
X278606190Y-449624819D01*
X278606190Y-449624819D02*
X278320476Y-449624819D01*
X278320476Y-449624819D02*
X278225238Y-449577200D01*
X278225238Y-449577200D02*
X278177619Y-449529580D01*
X276296665Y-446739180D02*
X276249046Y-446786800D01*
X276249046Y-446786800D02*
X276106189Y-446834419D01*
X276106189Y-446834419D02*
X276010951Y-446834419D01*
X276010951Y-446834419D02*
X275868094Y-446786800D01*
X275868094Y-446786800D02*
X275772856Y-446691561D01*
X275772856Y-446691561D02*
X275725237Y-446596323D01*
X275725237Y-446596323D02*
X275677618Y-446405847D01*
X275677618Y-446405847D02*
X275677618Y-446262990D01*
X275677618Y-446262990D02*
X275725237Y-446072514D01*
X275725237Y-446072514D02*
X275772856Y-445977276D01*
X275772856Y-445977276D02*
X275868094Y-445882038D01*
X275868094Y-445882038D02*
X276010951Y-445834419D01*
X276010951Y-445834419D02*
X276106189Y-445834419D01*
X276106189Y-445834419D02*
X276249046Y-445882038D01*
X276249046Y-445882038D02*
X276296665Y-445929657D01*
X276868094Y-446834419D02*
X276772856Y-446786800D01*
X276772856Y-446786800D02*
X276725237Y-446691561D01*
X276725237Y-446691561D02*
X276725237Y-445834419D01*
X277677618Y-446167752D02*
X277677618Y-446834419D01*
X277249047Y-446167752D02*
X277249047Y-446691561D01*
X277249047Y-446691561D02*
X277296666Y-446786800D01*
X277296666Y-446786800D02*
X277391904Y-446834419D01*
X277391904Y-446834419D02*
X277534761Y-446834419D01*
X277534761Y-446834419D02*
X277629999Y-446786800D01*
X277629999Y-446786800D02*
X277677618Y-446739180D01*
X278106190Y-446786800D02*
X278201428Y-446834419D01*
X278201428Y-446834419D02*
X278391904Y-446834419D01*
X278391904Y-446834419D02*
X278487142Y-446786800D01*
X278487142Y-446786800D02*
X278534761Y-446691561D01*
X278534761Y-446691561D02*
X278534761Y-446643942D01*
X278534761Y-446643942D02*
X278487142Y-446548704D01*
X278487142Y-446548704D02*
X278391904Y-446501085D01*
X278391904Y-446501085D02*
X278249047Y-446501085D01*
X278249047Y-446501085D02*
X278153809Y-446453466D01*
X278153809Y-446453466D02*
X278106190Y-446358228D01*
X278106190Y-446358228D02*
X278106190Y-446310609D01*
X278106190Y-446310609D02*
X278153809Y-446215371D01*
X278153809Y-446215371D02*
X278249047Y-446167752D01*
X278249047Y-446167752D02*
X278391904Y-446167752D01*
X278391904Y-446167752D02*
X278487142Y-446215371D01*
X278820476Y-446167752D02*
X279201428Y-446167752D01*
X278963333Y-445834419D02*
X278963333Y-446691561D01*
X278963333Y-446691561D02*
X279010952Y-446786800D01*
X279010952Y-446786800D02*
X279106190Y-446834419D01*
X279106190Y-446834419D02*
X279201428Y-446834419D01*
X279915714Y-446786800D02*
X279820476Y-446834419D01*
X279820476Y-446834419D02*
X279630000Y-446834419D01*
X279630000Y-446834419D02*
X279534762Y-446786800D01*
X279534762Y-446786800D02*
X279487143Y-446691561D01*
X279487143Y-446691561D02*
X279487143Y-446310609D01*
X279487143Y-446310609D02*
X279534762Y-446215371D01*
X279534762Y-446215371D02*
X279630000Y-446167752D01*
X279630000Y-446167752D02*
X279820476Y-446167752D01*
X279820476Y-446167752D02*
X279915714Y-446215371D01*
X279915714Y-446215371D02*
X279963333Y-446310609D01*
X279963333Y-446310609D02*
X279963333Y-446405847D01*
X279963333Y-446405847D02*
X279487143Y-446501085D01*
X280391905Y-446834419D02*
X280391905Y-446167752D01*
X280391905Y-446358228D02*
X280439524Y-446262990D01*
X280439524Y-446262990D02*
X280487143Y-446215371D01*
X280487143Y-446215371D02*
X280582381Y-446167752D01*
X280582381Y-446167752D02*
X280677619Y-446167752D01*
X402372533Y-424031580D02*
X402324914Y-424079200D01*
X402324914Y-424079200D02*
X402182057Y-424126819D01*
X402182057Y-424126819D02*
X402086819Y-424126819D01*
X402086819Y-424126819D02*
X401943962Y-424079200D01*
X401943962Y-424079200D02*
X401848724Y-423983961D01*
X401848724Y-423983961D02*
X401801105Y-423888723D01*
X401801105Y-423888723D02*
X401753486Y-423698247D01*
X401753486Y-423698247D02*
X401753486Y-423555390D01*
X401753486Y-423555390D02*
X401801105Y-423364914D01*
X401801105Y-423364914D02*
X401848724Y-423269676D01*
X401848724Y-423269676D02*
X401943962Y-423174438D01*
X401943962Y-423174438D02*
X402086819Y-423126819D01*
X402086819Y-423126819D02*
X402182057Y-423126819D01*
X402182057Y-423126819D02*
X402324914Y-423174438D01*
X402324914Y-423174438D02*
X402372533Y-423222057D01*
X402753486Y-423222057D02*
X402801105Y-423174438D01*
X402801105Y-423174438D02*
X402896343Y-423126819D01*
X402896343Y-423126819D02*
X403134438Y-423126819D01*
X403134438Y-423126819D02*
X403229676Y-423174438D01*
X403229676Y-423174438D02*
X403277295Y-423222057D01*
X403277295Y-423222057D02*
X403324914Y-423317295D01*
X403324914Y-423317295D02*
X403324914Y-423412533D01*
X403324914Y-423412533D02*
X403277295Y-423555390D01*
X403277295Y-423555390D02*
X402705867Y-424126819D01*
X402705867Y-424126819D02*
X403324914Y-424126819D01*
X402086818Y-422722419D02*
X401515390Y-422722419D01*
X401801104Y-422722419D02*
X401801104Y-421722419D01*
X401801104Y-421722419D02*
X401705866Y-421865276D01*
X401705866Y-421865276D02*
X401610628Y-421960514D01*
X401610628Y-421960514D02*
X401515390Y-422008133D01*
X402943961Y-422055752D02*
X402943961Y-422722419D01*
X402515390Y-422055752D02*
X402515390Y-422579561D01*
X402515390Y-422579561D02*
X402563009Y-422674800D01*
X402563009Y-422674800D02*
X402658247Y-422722419D01*
X402658247Y-422722419D02*
X402801104Y-422722419D01*
X402801104Y-422722419D02*
X402896342Y-422674800D01*
X402896342Y-422674800D02*
X402943961Y-422627180D01*
X403277295Y-422055752D02*
X403658247Y-422055752D01*
X403420152Y-422722419D02*
X403420152Y-421865276D01*
X403420152Y-421865276D02*
X403467771Y-421770038D01*
X403467771Y-421770038D02*
X403563009Y-421722419D01*
X403563009Y-421722419D02*
X403658247Y-421722419D01*
X326044019Y-278891904D02*
X326853542Y-278891904D01*
X326853542Y-278891904D02*
X326948780Y-278844285D01*
X326948780Y-278844285D02*
X326996400Y-278796666D01*
X326996400Y-278796666D02*
X327044019Y-278701428D01*
X327044019Y-278701428D02*
X327044019Y-278510952D01*
X327044019Y-278510952D02*
X326996400Y-278415714D01*
X326996400Y-278415714D02*
X326948780Y-278368095D01*
X326948780Y-278368095D02*
X326853542Y-278320476D01*
X326853542Y-278320476D02*
X326044019Y-278320476D01*
X326139257Y-277891904D02*
X326091638Y-277844285D01*
X326091638Y-277844285D02*
X326044019Y-277749047D01*
X326044019Y-277749047D02*
X326044019Y-277510952D01*
X326044019Y-277510952D02*
X326091638Y-277415714D01*
X326091638Y-277415714D02*
X326139257Y-277368095D01*
X326139257Y-277368095D02*
X326234495Y-277320476D01*
X326234495Y-277320476D02*
X326329733Y-277320476D01*
X326329733Y-277320476D02*
X326472590Y-277368095D01*
X326472590Y-277368095D02*
X327044019Y-277939523D01*
X327044019Y-277939523D02*
X327044019Y-277320476D01*
X379360209Y-280844286D02*
X379360209Y-281177619D01*
X379884019Y-281177619D02*
X378884019Y-281177619D01*
X378884019Y-281177619D02*
X378884019Y-280701429D01*
X379884019Y-280177619D02*
X379836400Y-280272857D01*
X379836400Y-280272857D02*
X379741161Y-280320476D01*
X379741161Y-280320476D02*
X378884019Y-280320476D01*
X379884019Y-279653809D02*
X379836400Y-279749047D01*
X379836400Y-279749047D02*
X379788780Y-279796666D01*
X379788780Y-279796666D02*
X379693542Y-279844285D01*
X379693542Y-279844285D02*
X379407828Y-279844285D01*
X379407828Y-279844285D02*
X379312590Y-279796666D01*
X379312590Y-279796666D02*
X379264971Y-279749047D01*
X379264971Y-279749047D02*
X379217352Y-279653809D01*
X379217352Y-279653809D02*
X379217352Y-279510952D01*
X379217352Y-279510952D02*
X379264971Y-279415714D01*
X379264971Y-279415714D02*
X379312590Y-279368095D01*
X379312590Y-279368095D02*
X379407828Y-279320476D01*
X379407828Y-279320476D02*
X379693542Y-279320476D01*
X379693542Y-279320476D02*
X379788780Y-279368095D01*
X379788780Y-279368095D02*
X379836400Y-279415714D01*
X379836400Y-279415714D02*
X379884019Y-279510952D01*
X379884019Y-279510952D02*
X379884019Y-279653809D01*
X379217352Y-278891904D02*
X380217352Y-278891904D01*
X379264971Y-278891904D02*
X379217352Y-278796666D01*
X379217352Y-278796666D02*
X379217352Y-278606190D01*
X379217352Y-278606190D02*
X379264971Y-278510952D01*
X379264971Y-278510952D02*
X379312590Y-278463333D01*
X379312590Y-278463333D02*
X379407828Y-278415714D01*
X379407828Y-278415714D02*
X379693542Y-278415714D01*
X379693542Y-278415714D02*
X379788780Y-278463333D01*
X379788780Y-278463333D02*
X379836400Y-278510952D01*
X379836400Y-278510952D02*
X379884019Y-278606190D01*
X379884019Y-278606190D02*
X379884019Y-278796666D01*
X379884019Y-278796666D02*
X379836400Y-278891904D01*
X379217352Y-277987142D02*
X380217352Y-277987142D01*
X379264971Y-277987142D02*
X379217352Y-277891904D01*
X379217352Y-277891904D02*
X379217352Y-277701428D01*
X379217352Y-277701428D02*
X379264971Y-277606190D01*
X379264971Y-277606190D02*
X379312590Y-277558571D01*
X379312590Y-277558571D02*
X379407828Y-277510952D01*
X379407828Y-277510952D02*
X379693542Y-277510952D01*
X379693542Y-277510952D02*
X379788780Y-277558571D01*
X379788780Y-277558571D02*
X379836400Y-277606190D01*
X379836400Y-277606190D02*
X379884019Y-277701428D01*
X379884019Y-277701428D02*
X379884019Y-277891904D01*
X379884019Y-277891904D02*
X379836400Y-277987142D01*
X379217352Y-277177618D02*
X379884019Y-276939523D01*
X379217352Y-276701428D02*
X379884019Y-276939523D01*
X379884019Y-276939523D02*
X380122114Y-277034761D01*
X380122114Y-277034761D02*
X380169733Y-277082380D01*
X380169733Y-277082380D02*
X380217352Y-277177618D01*
X378884019Y-275368094D02*
X378884019Y-275272856D01*
X378884019Y-275272856D02*
X378931638Y-275177618D01*
X378931638Y-275177618D02*
X378979257Y-275129999D01*
X378979257Y-275129999D02*
X379074495Y-275082380D01*
X379074495Y-275082380D02*
X379264971Y-275034761D01*
X379264971Y-275034761D02*
X379503066Y-275034761D01*
X379503066Y-275034761D02*
X379693542Y-275082380D01*
X379693542Y-275082380D02*
X379788780Y-275129999D01*
X379788780Y-275129999D02*
X379836400Y-275177618D01*
X379836400Y-275177618D02*
X379884019Y-275272856D01*
X379884019Y-275272856D02*
X379884019Y-275368094D01*
X379884019Y-275368094D02*
X379836400Y-275463332D01*
X379836400Y-275463332D02*
X379788780Y-275510951D01*
X379788780Y-275510951D02*
X379693542Y-275558570D01*
X379693542Y-275558570D02*
X379503066Y-275606189D01*
X379503066Y-275606189D02*
X379264971Y-275606189D01*
X379264971Y-275606189D02*
X379074495Y-275558570D01*
X379074495Y-275558570D02*
X378979257Y-275510951D01*
X378979257Y-275510951D02*
X378931638Y-275463332D01*
X378931638Y-275463332D02*
X378884019Y-275368094D01*
X394854133Y-418854019D02*
X394520800Y-418377828D01*
X394282705Y-418854019D02*
X394282705Y-417854019D01*
X394282705Y-417854019D02*
X394663657Y-417854019D01*
X394663657Y-417854019D02*
X394758895Y-417901638D01*
X394758895Y-417901638D02*
X394806514Y-417949257D01*
X394806514Y-417949257D02*
X394854133Y-418044495D01*
X394854133Y-418044495D02*
X394854133Y-418187352D01*
X394854133Y-418187352D02*
X394806514Y-418282590D01*
X394806514Y-418282590D02*
X394758895Y-418330209D01*
X394758895Y-418330209D02*
X394663657Y-418377828D01*
X394663657Y-418377828D02*
X394282705Y-418377828D01*
X395758895Y-417854019D02*
X395282705Y-417854019D01*
X395282705Y-417854019D02*
X395235086Y-418330209D01*
X395235086Y-418330209D02*
X395282705Y-418282590D01*
X395282705Y-418282590D02*
X395377943Y-418234971D01*
X395377943Y-418234971D02*
X395616038Y-418234971D01*
X395616038Y-418234971D02*
X395711276Y-418282590D01*
X395711276Y-418282590D02*
X395758895Y-418330209D01*
X395758895Y-418330209D02*
X395806514Y-418425447D01*
X395806514Y-418425447D02*
X395806514Y-418663542D01*
X395806514Y-418663542D02*
X395758895Y-418758780D01*
X395758895Y-418758780D02*
X395711276Y-418806400D01*
X395711276Y-418806400D02*
X395616038Y-418854019D01*
X395616038Y-418854019D02*
X395377943Y-418854019D01*
X395377943Y-418854019D02*
X395282705Y-418806400D01*
X395282705Y-418806400D02*
X395235086Y-418758780D01*
X393854133Y-420774019D02*
X393282705Y-420774019D01*
X393568419Y-420774019D02*
X393568419Y-419774019D01*
X393568419Y-419774019D02*
X393473181Y-419916876D01*
X393473181Y-419916876D02*
X393377943Y-420012114D01*
X393377943Y-420012114D02*
X393282705Y-420059733D01*
X394235086Y-419869257D02*
X394282705Y-419821638D01*
X394282705Y-419821638D02*
X394377943Y-419774019D01*
X394377943Y-419774019D02*
X394616038Y-419774019D01*
X394616038Y-419774019D02*
X394711276Y-419821638D01*
X394711276Y-419821638D02*
X394758895Y-419869257D01*
X394758895Y-419869257D02*
X394806514Y-419964495D01*
X394806514Y-419964495D02*
X394806514Y-420059733D01*
X394806514Y-420059733D02*
X394758895Y-420202590D01*
X394758895Y-420202590D02*
X394187467Y-420774019D01*
X394187467Y-420774019D02*
X394806514Y-420774019D01*
X395425562Y-419774019D02*
X395520800Y-419774019D01*
X395520800Y-419774019D02*
X395616038Y-419821638D01*
X395616038Y-419821638D02*
X395663657Y-419869257D01*
X395663657Y-419869257D02*
X395711276Y-419964495D01*
X395711276Y-419964495D02*
X395758895Y-420154971D01*
X395758895Y-420154971D02*
X395758895Y-420393066D01*
X395758895Y-420393066D02*
X395711276Y-420583542D01*
X395711276Y-420583542D02*
X395663657Y-420678780D01*
X395663657Y-420678780D02*
X395616038Y-420726400D01*
X395616038Y-420726400D02*
X395520800Y-420774019D01*
X395520800Y-420774019D02*
X395425562Y-420774019D01*
X395425562Y-420774019D02*
X395330324Y-420726400D01*
X395330324Y-420726400D02*
X395282705Y-420678780D01*
X395282705Y-420678780D02*
X395235086Y-420583542D01*
X395235086Y-420583542D02*
X395187467Y-420393066D01*
X395187467Y-420393066D02*
X395187467Y-420154971D01*
X395187467Y-420154971D02*
X395235086Y-419964495D01*
X395235086Y-419964495D02*
X395282705Y-419869257D01*
X395282705Y-419869257D02*
X395330324Y-419821638D01*
X395330324Y-419821638D02*
X395425562Y-419774019D01*
X396758895Y-420774019D02*
X396425562Y-420297828D01*
X396187467Y-420774019D02*
X396187467Y-419774019D01*
X396187467Y-419774019D02*
X396568419Y-419774019D01*
X396568419Y-419774019D02*
X396663657Y-419821638D01*
X396663657Y-419821638D02*
X396711276Y-419869257D01*
X396711276Y-419869257D02*
X396758895Y-419964495D01*
X396758895Y-419964495D02*
X396758895Y-420107352D01*
X396758895Y-420107352D02*
X396711276Y-420202590D01*
X396711276Y-420202590D02*
X396663657Y-420250209D01*
X396663657Y-420250209D02*
X396568419Y-420297828D01*
X396568419Y-420297828D02*
X396187467Y-420297828D01*
X409992533Y-422135219D02*
X409659200Y-421659028D01*
X409421105Y-422135219D02*
X409421105Y-421135219D01*
X409421105Y-421135219D02*
X409802057Y-421135219D01*
X409802057Y-421135219D02*
X409897295Y-421182838D01*
X409897295Y-421182838D02*
X409944914Y-421230457D01*
X409944914Y-421230457D02*
X409992533Y-421325695D01*
X409992533Y-421325695D02*
X409992533Y-421468552D01*
X409992533Y-421468552D02*
X409944914Y-421563790D01*
X409944914Y-421563790D02*
X409897295Y-421611409D01*
X409897295Y-421611409D02*
X409802057Y-421659028D01*
X409802057Y-421659028D02*
X409421105Y-421659028D01*
X410325867Y-421135219D02*
X410944914Y-421135219D01*
X410944914Y-421135219D02*
X410611581Y-421516171D01*
X410611581Y-421516171D02*
X410754438Y-421516171D01*
X410754438Y-421516171D02*
X410849676Y-421563790D01*
X410849676Y-421563790D02*
X410897295Y-421611409D01*
X410897295Y-421611409D02*
X410944914Y-421706647D01*
X410944914Y-421706647D02*
X410944914Y-421944742D01*
X410944914Y-421944742D02*
X410897295Y-422039980D01*
X410897295Y-422039980D02*
X410849676Y-422087600D01*
X410849676Y-422087600D02*
X410754438Y-422135219D01*
X410754438Y-422135219D02*
X410468724Y-422135219D01*
X410468724Y-422135219D02*
X410373486Y-422087600D01*
X410373486Y-422087600D02*
X410325867Y-422039980D01*
X408992533Y-420215219D02*
X408421105Y-420215219D01*
X408706819Y-420215219D02*
X408706819Y-419215219D01*
X408706819Y-419215219D02*
X408611581Y-419358076D01*
X408611581Y-419358076D02*
X408516343Y-419453314D01*
X408516343Y-419453314D02*
X408421105Y-419500933D01*
X409373486Y-419310457D02*
X409421105Y-419262838D01*
X409421105Y-419262838D02*
X409516343Y-419215219D01*
X409516343Y-419215219D02*
X409754438Y-419215219D01*
X409754438Y-419215219D02*
X409849676Y-419262838D01*
X409849676Y-419262838D02*
X409897295Y-419310457D01*
X409897295Y-419310457D02*
X409944914Y-419405695D01*
X409944914Y-419405695D02*
X409944914Y-419500933D01*
X409944914Y-419500933D02*
X409897295Y-419643790D01*
X409897295Y-419643790D02*
X409325867Y-420215219D01*
X409325867Y-420215219D02*
X409944914Y-420215219D01*
X410563962Y-419215219D02*
X410659200Y-419215219D01*
X410659200Y-419215219D02*
X410754438Y-419262838D01*
X410754438Y-419262838D02*
X410802057Y-419310457D01*
X410802057Y-419310457D02*
X410849676Y-419405695D01*
X410849676Y-419405695D02*
X410897295Y-419596171D01*
X410897295Y-419596171D02*
X410897295Y-419834266D01*
X410897295Y-419834266D02*
X410849676Y-420024742D01*
X410849676Y-420024742D02*
X410802057Y-420119980D01*
X410802057Y-420119980D02*
X410754438Y-420167600D01*
X410754438Y-420167600D02*
X410659200Y-420215219D01*
X410659200Y-420215219D02*
X410563962Y-420215219D01*
X410563962Y-420215219D02*
X410468724Y-420167600D01*
X410468724Y-420167600D02*
X410421105Y-420119980D01*
X410421105Y-420119980D02*
X410373486Y-420024742D01*
X410373486Y-420024742D02*
X410325867Y-419834266D01*
X410325867Y-419834266D02*
X410325867Y-419596171D01*
X410325867Y-419596171D02*
X410373486Y-419405695D01*
X410373486Y-419405695D02*
X410421105Y-419310457D01*
X410421105Y-419310457D02*
X410468724Y-419262838D01*
X410468724Y-419262838D02*
X410563962Y-419215219D01*
X411897295Y-420215219D02*
X411563962Y-419739028D01*
X411325867Y-420215219D02*
X411325867Y-419215219D01*
X411325867Y-419215219D02*
X411706819Y-419215219D01*
X411706819Y-419215219D02*
X411802057Y-419262838D01*
X411802057Y-419262838D02*
X411849676Y-419310457D01*
X411849676Y-419310457D02*
X411897295Y-419405695D01*
X411897295Y-419405695D02*
X411897295Y-419548552D01*
X411897295Y-419548552D02*
X411849676Y-419643790D01*
X411849676Y-419643790D02*
X411802057Y-419691409D01*
X411802057Y-419691409D02*
X411706819Y-419739028D01*
X411706819Y-419739028D02*
X411325867Y-419739028D01*
X309199066Y-317673619D02*
X309199066Y-318387904D01*
X309199066Y-318387904D02*
X309151447Y-318530761D01*
X309151447Y-318530761D02*
X309056209Y-318626000D01*
X309056209Y-318626000D02*
X308913352Y-318673619D01*
X308913352Y-318673619D02*
X308818114Y-318673619D01*
X309675257Y-318673619D02*
X309675257Y-317673619D01*
X309675257Y-317673619D02*
X310056209Y-317673619D01*
X310056209Y-317673619D02*
X310151447Y-317721238D01*
X310151447Y-317721238D02*
X310199066Y-317768857D01*
X310199066Y-317768857D02*
X310246685Y-317864095D01*
X310246685Y-317864095D02*
X310246685Y-318006952D01*
X310246685Y-318006952D02*
X310199066Y-318102190D01*
X310199066Y-318102190D02*
X310151447Y-318149809D01*
X310151447Y-318149809D02*
X310056209Y-318197428D01*
X310056209Y-318197428D02*
X309675257Y-318197428D01*
X311199066Y-318673619D02*
X310627638Y-318673619D01*
X310913352Y-318673619D02*
X310913352Y-317673619D01*
X310913352Y-317673619D02*
X310818114Y-317816476D01*
X310818114Y-317816476D02*
X310722876Y-317911714D01*
X310722876Y-317911714D02*
X310627638Y-317959333D01*
X399273733Y-404731619D02*
X398940400Y-404255428D01*
X398702305Y-404731619D02*
X398702305Y-403731619D01*
X398702305Y-403731619D02*
X399083257Y-403731619D01*
X399083257Y-403731619D02*
X399178495Y-403779238D01*
X399178495Y-403779238D02*
X399226114Y-403826857D01*
X399226114Y-403826857D02*
X399273733Y-403922095D01*
X399273733Y-403922095D02*
X399273733Y-404064952D01*
X399273733Y-404064952D02*
X399226114Y-404160190D01*
X399226114Y-404160190D02*
X399178495Y-404207809D01*
X399178495Y-404207809D02*
X399083257Y-404255428D01*
X399083257Y-404255428D02*
X398702305Y-404255428D01*
X400130876Y-404064952D02*
X400130876Y-404731619D01*
X399892781Y-403684000D02*
X399654686Y-404398285D01*
X399654686Y-404398285D02*
X400273733Y-404398285D01*
X398273733Y-406651619D02*
X397702305Y-406651619D01*
X397988019Y-406651619D02*
X397988019Y-405651619D01*
X397988019Y-405651619D02*
X397892781Y-405794476D01*
X397892781Y-405794476D02*
X397797543Y-405889714D01*
X397797543Y-405889714D02*
X397702305Y-405937333D01*
X398654686Y-405746857D02*
X398702305Y-405699238D01*
X398702305Y-405699238D02*
X398797543Y-405651619D01*
X398797543Y-405651619D02*
X399035638Y-405651619D01*
X399035638Y-405651619D02*
X399130876Y-405699238D01*
X399130876Y-405699238D02*
X399178495Y-405746857D01*
X399178495Y-405746857D02*
X399226114Y-405842095D01*
X399226114Y-405842095D02*
X399226114Y-405937333D01*
X399226114Y-405937333D02*
X399178495Y-406080190D01*
X399178495Y-406080190D02*
X398607067Y-406651619D01*
X398607067Y-406651619D02*
X399226114Y-406651619D01*
X399845162Y-405651619D02*
X399940400Y-405651619D01*
X399940400Y-405651619D02*
X400035638Y-405699238D01*
X400035638Y-405699238D02*
X400083257Y-405746857D01*
X400083257Y-405746857D02*
X400130876Y-405842095D01*
X400130876Y-405842095D02*
X400178495Y-406032571D01*
X400178495Y-406032571D02*
X400178495Y-406270666D01*
X400178495Y-406270666D02*
X400130876Y-406461142D01*
X400130876Y-406461142D02*
X400083257Y-406556380D01*
X400083257Y-406556380D02*
X400035638Y-406604000D01*
X400035638Y-406604000D02*
X399940400Y-406651619D01*
X399940400Y-406651619D02*
X399845162Y-406651619D01*
X399845162Y-406651619D02*
X399749924Y-406604000D01*
X399749924Y-406604000D02*
X399702305Y-406556380D01*
X399702305Y-406556380D02*
X399654686Y-406461142D01*
X399654686Y-406461142D02*
X399607067Y-406270666D01*
X399607067Y-406270666D02*
X399607067Y-406032571D01*
X399607067Y-406032571D02*
X399654686Y-405842095D01*
X399654686Y-405842095D02*
X399702305Y-405746857D01*
X399702305Y-405746857D02*
X399749924Y-405699238D01*
X399749924Y-405699238D02*
X399845162Y-405651619D01*
X401178495Y-406651619D02*
X400845162Y-406175428D01*
X400607067Y-406651619D02*
X400607067Y-405651619D01*
X400607067Y-405651619D02*
X400988019Y-405651619D01*
X400988019Y-405651619D02*
X401083257Y-405699238D01*
X401083257Y-405699238D02*
X401130876Y-405746857D01*
X401130876Y-405746857D02*
X401178495Y-405842095D01*
X401178495Y-405842095D02*
X401178495Y-405984952D01*
X401178495Y-405984952D02*
X401130876Y-406080190D01*
X401130876Y-406080190D02*
X401083257Y-406127809D01*
X401083257Y-406127809D02*
X400988019Y-406175428D01*
X400988019Y-406175428D02*
X400607067Y-406175428D01*
X298864666Y-266510419D02*
X298864666Y-267224704D01*
X298864666Y-267224704D02*
X298817047Y-267367561D01*
X298817047Y-267367561D02*
X298721809Y-267462800D01*
X298721809Y-267462800D02*
X298578952Y-267510419D01*
X298578952Y-267510419D02*
X298483714Y-267510419D01*
X299864666Y-267510419D02*
X299293238Y-267510419D01*
X299578952Y-267510419D02*
X299578952Y-266510419D01*
X299578952Y-266510419D02*
X299483714Y-266653276D01*
X299483714Y-266653276D02*
X299388476Y-266748514D01*
X299388476Y-266748514D02*
X299293238Y-266796133D01*
X261484819Y-298679523D02*
X262199104Y-298679523D01*
X262199104Y-298679523D02*
X262341961Y-298727142D01*
X262341961Y-298727142D02*
X262437200Y-298822380D01*
X262437200Y-298822380D02*
X262484819Y-298965237D01*
X262484819Y-298965237D02*
X262484819Y-299060475D01*
X262484819Y-297679523D02*
X262484819Y-298250951D01*
X262484819Y-297965237D02*
X261484819Y-297965237D01*
X261484819Y-297965237D02*
X261627676Y-298060475D01*
X261627676Y-298060475D02*
X261722914Y-298155713D01*
X261722914Y-298155713D02*
X261770533Y-298250951D01*
X261484819Y-297060475D02*
X261484819Y-296965237D01*
X261484819Y-296965237D02*
X261532438Y-296869999D01*
X261532438Y-296869999D02*
X261580057Y-296822380D01*
X261580057Y-296822380D02*
X261675295Y-296774761D01*
X261675295Y-296774761D02*
X261865771Y-296727142D01*
X261865771Y-296727142D02*
X262103866Y-296727142D01*
X262103866Y-296727142D02*
X262294342Y-296774761D01*
X262294342Y-296774761D02*
X262389580Y-296822380D01*
X262389580Y-296822380D02*
X262437200Y-296869999D01*
X262437200Y-296869999D02*
X262484819Y-296965237D01*
X262484819Y-296965237D02*
X262484819Y-297060475D01*
X262484819Y-297060475D02*
X262437200Y-297155713D01*
X262437200Y-297155713D02*
X262389580Y-297203332D01*
X262389580Y-297203332D02*
X262294342Y-297250951D01*
X262294342Y-297250951D02*
X262103866Y-297298570D01*
X262103866Y-297298570D02*
X261865771Y-297298570D01*
X261865771Y-297298570D02*
X261675295Y-297250951D01*
X261675295Y-297250951D02*
X261580057Y-297203332D01*
X261580057Y-297203332D02*
X261532438Y-297155713D01*
X261532438Y-297155713D02*
X261484819Y-297060475D01*
X263259219Y-300346190D02*
X264068742Y-300346190D01*
X264068742Y-300346190D02*
X264163980Y-300298571D01*
X264163980Y-300298571D02*
X264211600Y-300250952D01*
X264211600Y-300250952D02*
X264259219Y-300155714D01*
X264259219Y-300155714D02*
X264259219Y-299965238D01*
X264259219Y-299965238D02*
X264211600Y-299870000D01*
X264211600Y-299870000D02*
X264163980Y-299822381D01*
X264163980Y-299822381D02*
X264068742Y-299774762D01*
X264068742Y-299774762D02*
X263259219Y-299774762D01*
X263973504Y-299346190D02*
X263973504Y-298870000D01*
X264259219Y-299441428D02*
X263259219Y-299108095D01*
X263259219Y-299108095D02*
X264259219Y-298774762D01*
X264259219Y-297870000D02*
X263783028Y-298203333D01*
X264259219Y-298441428D02*
X263259219Y-298441428D01*
X263259219Y-298441428D02*
X263259219Y-298060476D01*
X263259219Y-298060476D02*
X263306838Y-297965238D01*
X263306838Y-297965238D02*
X263354457Y-297917619D01*
X263354457Y-297917619D02*
X263449695Y-297870000D01*
X263449695Y-297870000D02*
X263592552Y-297870000D01*
X263592552Y-297870000D02*
X263687790Y-297917619D01*
X263687790Y-297917619D02*
X263735409Y-297965238D01*
X263735409Y-297965238D02*
X263783028Y-298060476D01*
X263783028Y-298060476D02*
X263783028Y-298441428D01*
X263259219Y-297584285D02*
X263259219Y-297012857D01*
X264259219Y-297298571D02*
X263259219Y-297298571D01*
X263735409Y-295584285D02*
X263783028Y-295441428D01*
X263783028Y-295441428D02*
X263830647Y-295393809D01*
X263830647Y-295393809D02*
X263925885Y-295346190D01*
X263925885Y-295346190D02*
X264068742Y-295346190D01*
X264068742Y-295346190D02*
X264163980Y-295393809D01*
X264163980Y-295393809D02*
X264211600Y-295441428D01*
X264211600Y-295441428D02*
X264259219Y-295536666D01*
X264259219Y-295536666D02*
X264259219Y-295917618D01*
X264259219Y-295917618D02*
X263259219Y-295917618D01*
X263259219Y-295917618D02*
X263259219Y-295584285D01*
X263259219Y-295584285D02*
X263306838Y-295489047D01*
X263306838Y-295489047D02*
X263354457Y-295441428D01*
X263354457Y-295441428D02*
X263449695Y-295393809D01*
X263449695Y-295393809D02*
X263544933Y-295393809D01*
X263544933Y-295393809D02*
X263640171Y-295441428D01*
X263640171Y-295441428D02*
X263687790Y-295489047D01*
X263687790Y-295489047D02*
X263735409Y-295584285D01*
X263735409Y-295584285D02*
X263735409Y-295917618D01*
X268938476Y-281648819D02*
X268938476Y-282363104D01*
X268938476Y-282363104D02*
X268890857Y-282505961D01*
X268890857Y-282505961D02*
X268795619Y-282601200D01*
X268795619Y-282601200D02*
X268652762Y-282648819D01*
X268652762Y-282648819D02*
X268557524Y-282648819D01*
X269938476Y-282648819D02*
X269367048Y-282648819D01*
X269652762Y-282648819D02*
X269652762Y-281648819D01*
X269652762Y-281648819D02*
X269557524Y-281791676D01*
X269557524Y-281791676D02*
X269462286Y-281886914D01*
X269462286Y-281886914D02*
X269367048Y-281934533D01*
X270319429Y-281744057D02*
X270367048Y-281696438D01*
X270367048Y-281696438D02*
X270462286Y-281648819D01*
X270462286Y-281648819D02*
X270700381Y-281648819D01*
X270700381Y-281648819D02*
X270795619Y-281696438D01*
X270795619Y-281696438D02*
X270843238Y-281744057D01*
X270843238Y-281744057D02*
X270890857Y-281839295D01*
X270890857Y-281839295D02*
X270890857Y-281934533D01*
X270890857Y-281934533D02*
X270843238Y-282077390D01*
X270843238Y-282077390D02*
X270271810Y-282648819D01*
X270271810Y-282648819D02*
X270890857Y-282648819D01*
X441285333Y-449780819D02*
X440952000Y-449304628D01*
X440713905Y-449780819D02*
X440713905Y-448780819D01*
X440713905Y-448780819D02*
X441094857Y-448780819D01*
X441094857Y-448780819D02*
X441190095Y-448828438D01*
X441190095Y-448828438D02*
X441237714Y-448876057D01*
X441237714Y-448876057D02*
X441285333Y-448971295D01*
X441285333Y-448971295D02*
X441285333Y-449114152D01*
X441285333Y-449114152D02*
X441237714Y-449209390D01*
X441237714Y-449209390D02*
X441190095Y-449257009D01*
X441190095Y-449257009D02*
X441094857Y-449304628D01*
X441094857Y-449304628D02*
X440713905Y-449304628D01*
X442237714Y-449780819D02*
X441666286Y-449780819D01*
X441952000Y-449780819D02*
X441952000Y-448780819D01*
X441952000Y-448780819D02*
X441856762Y-448923676D01*
X441856762Y-448923676D02*
X441761524Y-449018914D01*
X441761524Y-449018914D02*
X441666286Y-449066533D01*
X441332952Y-451558819D02*
X440761524Y-451558819D01*
X441047238Y-451558819D02*
X441047238Y-450558819D01*
X441047238Y-450558819D02*
X440952000Y-450701676D01*
X440952000Y-450701676D02*
X440856762Y-450796914D01*
X440856762Y-450796914D02*
X440761524Y-450844533D01*
X441761524Y-451558819D02*
X441761524Y-450558819D01*
X441856762Y-451177866D02*
X442142476Y-451558819D01*
X442142476Y-450892152D02*
X441761524Y-451273104D01*
X387689819Y-290641904D02*
X388499342Y-290641904D01*
X388499342Y-290641904D02*
X388594580Y-290594285D01*
X388594580Y-290594285D02*
X388642200Y-290546666D01*
X388642200Y-290546666D02*
X388689819Y-290451428D01*
X388689819Y-290451428D02*
X388689819Y-290260952D01*
X388689819Y-290260952D02*
X388642200Y-290165714D01*
X388642200Y-290165714D02*
X388594580Y-290118095D01*
X388594580Y-290118095D02*
X388499342Y-290070476D01*
X388499342Y-290070476D02*
X387689819Y-290070476D01*
X387689819Y-289165714D02*
X387689819Y-289356190D01*
X387689819Y-289356190D02*
X387737438Y-289451428D01*
X387737438Y-289451428D02*
X387785057Y-289499047D01*
X387785057Y-289499047D02*
X387927914Y-289594285D01*
X387927914Y-289594285D02*
X388118390Y-289641904D01*
X388118390Y-289641904D02*
X388499342Y-289641904D01*
X388499342Y-289641904D02*
X388594580Y-289594285D01*
X388594580Y-289594285D02*
X388642200Y-289546666D01*
X388642200Y-289546666D02*
X388689819Y-289451428D01*
X388689819Y-289451428D02*
X388689819Y-289260952D01*
X388689819Y-289260952D02*
X388642200Y-289165714D01*
X388642200Y-289165714D02*
X388594580Y-289118095D01*
X388594580Y-289118095D02*
X388499342Y-289070476D01*
X388499342Y-289070476D02*
X388261247Y-289070476D01*
X388261247Y-289070476D02*
X388166009Y-289118095D01*
X388166009Y-289118095D02*
X388118390Y-289165714D01*
X388118390Y-289165714D02*
X388070771Y-289260952D01*
X388070771Y-289260952D02*
X388070771Y-289451428D01*
X388070771Y-289451428D02*
X388118390Y-289546666D01*
X388118390Y-289546666D02*
X388166009Y-289594285D01*
X388166009Y-289594285D02*
X388261247Y-289641904D01*
X406588933Y-403051180D02*
X406541314Y-403098800D01*
X406541314Y-403098800D02*
X406398457Y-403146419D01*
X406398457Y-403146419D02*
X406303219Y-403146419D01*
X406303219Y-403146419D02*
X406160362Y-403098800D01*
X406160362Y-403098800D02*
X406065124Y-403003561D01*
X406065124Y-403003561D02*
X406017505Y-402908323D01*
X406017505Y-402908323D02*
X405969886Y-402717847D01*
X405969886Y-402717847D02*
X405969886Y-402574990D01*
X405969886Y-402574990D02*
X406017505Y-402384514D01*
X406017505Y-402384514D02*
X406065124Y-402289276D01*
X406065124Y-402289276D02*
X406160362Y-402194038D01*
X406160362Y-402194038D02*
X406303219Y-402146419D01*
X406303219Y-402146419D02*
X406398457Y-402146419D01*
X406398457Y-402146419D02*
X406541314Y-402194038D01*
X406541314Y-402194038D02*
X406588933Y-402241657D01*
X407541314Y-403146419D02*
X406969886Y-403146419D01*
X407255600Y-403146419D02*
X407255600Y-402146419D01*
X407255600Y-402146419D02*
X407160362Y-402289276D01*
X407160362Y-402289276D02*
X407065124Y-402384514D01*
X407065124Y-402384514D02*
X406969886Y-402432133D01*
X406201618Y-404601619D02*
X405630190Y-404601619D01*
X405915904Y-404601619D02*
X405915904Y-403601619D01*
X405915904Y-403601619D02*
X405820666Y-403744476D01*
X405820666Y-403744476D02*
X405725428Y-403839714D01*
X405725428Y-403839714D02*
X405630190Y-403887333D01*
X407058761Y-403934952D02*
X407058761Y-404601619D01*
X406630190Y-403934952D02*
X406630190Y-404458761D01*
X406630190Y-404458761D02*
X406677809Y-404554000D01*
X406677809Y-404554000D02*
X406773047Y-404601619D01*
X406773047Y-404601619D02*
X406915904Y-404601619D01*
X406915904Y-404601619D02*
X407011142Y-404554000D01*
X407011142Y-404554000D02*
X407058761Y-404506380D01*
X407392095Y-403934952D02*
X407773047Y-403934952D01*
X407534952Y-404601619D02*
X407534952Y-403744476D01*
X407534952Y-403744476D02*
X407582571Y-403649238D01*
X407582571Y-403649238D02*
X407677809Y-403601619D01*
X407677809Y-403601619D02*
X407773047Y-403601619D01*
X438681905Y-455329819D02*
X438681905Y-454329819D01*
X438681905Y-454329819D02*
X438920000Y-454329819D01*
X438920000Y-454329819D02*
X439062857Y-454377438D01*
X439062857Y-454377438D02*
X439158095Y-454472676D01*
X439158095Y-454472676D02*
X439205714Y-454567914D01*
X439205714Y-454567914D02*
X439253333Y-454758390D01*
X439253333Y-454758390D02*
X439253333Y-454901247D01*
X439253333Y-454901247D02*
X439205714Y-455091723D01*
X439205714Y-455091723D02*
X439158095Y-455186961D01*
X439158095Y-455186961D02*
X439062857Y-455282200D01*
X439062857Y-455282200D02*
X438920000Y-455329819D01*
X438920000Y-455329819D02*
X438681905Y-455329819D01*
X440205714Y-455329819D02*
X439634286Y-455329819D01*
X439920000Y-455329819D02*
X439920000Y-454329819D01*
X439920000Y-454329819D02*
X439824762Y-454472676D01*
X439824762Y-454472676D02*
X439729524Y-454567914D01*
X439729524Y-454567914D02*
X439634286Y-454615533D01*
X437443809Y-461249819D02*
X437443809Y-460249819D01*
X437443809Y-460249819D02*
X437824761Y-460249819D01*
X437824761Y-460249819D02*
X437919999Y-460297438D01*
X437919999Y-460297438D02*
X437967618Y-460345057D01*
X437967618Y-460345057D02*
X438015237Y-460440295D01*
X438015237Y-460440295D02*
X438015237Y-460583152D01*
X438015237Y-460583152D02*
X437967618Y-460678390D01*
X437967618Y-460678390D02*
X437919999Y-460726009D01*
X437919999Y-460726009D02*
X437824761Y-460773628D01*
X437824761Y-460773628D02*
X437443809Y-460773628D01*
X438586666Y-461249819D02*
X438491428Y-461202200D01*
X438491428Y-461202200D02*
X438443809Y-461154580D01*
X438443809Y-461154580D02*
X438396190Y-461059342D01*
X438396190Y-461059342D02*
X438396190Y-460773628D01*
X438396190Y-460773628D02*
X438443809Y-460678390D01*
X438443809Y-460678390D02*
X438491428Y-460630771D01*
X438491428Y-460630771D02*
X438586666Y-460583152D01*
X438586666Y-460583152D02*
X438729523Y-460583152D01*
X438729523Y-460583152D02*
X438824761Y-460630771D01*
X438824761Y-460630771D02*
X438872380Y-460678390D01*
X438872380Y-460678390D02*
X438919999Y-460773628D01*
X438919999Y-460773628D02*
X438919999Y-461059342D01*
X438919999Y-461059342D02*
X438872380Y-461154580D01*
X438872380Y-461154580D02*
X438824761Y-461202200D01*
X438824761Y-461202200D02*
X438729523Y-461249819D01*
X438729523Y-461249819D02*
X438586666Y-461249819D01*
X439253333Y-460583152D02*
X439443809Y-461249819D01*
X439443809Y-461249819D02*
X439634285Y-460773628D01*
X439634285Y-460773628D02*
X439824761Y-461249819D01*
X439824761Y-461249819D02*
X440015237Y-460583152D01*
X440777142Y-461202200D02*
X440681904Y-461249819D01*
X440681904Y-461249819D02*
X440491428Y-461249819D01*
X440491428Y-461249819D02*
X440396190Y-461202200D01*
X440396190Y-461202200D02*
X440348571Y-461106961D01*
X440348571Y-461106961D02*
X440348571Y-460726009D01*
X440348571Y-460726009D02*
X440396190Y-460630771D01*
X440396190Y-460630771D02*
X440491428Y-460583152D01*
X440491428Y-460583152D02*
X440681904Y-460583152D01*
X440681904Y-460583152D02*
X440777142Y-460630771D01*
X440777142Y-460630771D02*
X440824761Y-460726009D01*
X440824761Y-460726009D02*
X440824761Y-460821247D01*
X440824761Y-460821247D02*
X440348571Y-460916485D01*
X441253333Y-461249819D02*
X441253333Y-460583152D01*
X441253333Y-460773628D02*
X441300952Y-460678390D01*
X441300952Y-460678390D02*
X441348571Y-460630771D01*
X441348571Y-460630771D02*
X441443809Y-460583152D01*
X441443809Y-460583152D02*
X441539047Y-460583152D01*
D14*
%TO.C,J6*%
X441210000Y-277478000D02*
X441210000Y-276098000D01*
X442590000Y-277478000D02*
X441210000Y-277478000D01*
X443860000Y-274718000D02*
X446510000Y-274718000D01*
X443860000Y-277478000D02*
X443860000Y-274718000D01*
X443860000Y-277478000D02*
X446510000Y-277478000D01*
X446510000Y-277478000D02*
X446510000Y-274718000D01*
%TO.C,R9*%
X403199600Y-341503200D02*
X403199600Y-342453200D01*
X403199600Y-347243200D02*
X403199600Y-346293200D01*
X402279600Y-346293200D02*
X404119600Y-346293200D01*
X404119600Y-342453200D01*
X402279600Y-342453200D01*
X402279600Y-346293200D01*
%TO.C,JP3*%
X317832400Y-319218800D02*
X319212400Y-319218800D01*
X317832400Y-320598800D02*
X317832400Y-319218800D01*
X317832400Y-321868800D02*
X317832400Y-327058800D01*
X317832400Y-321868800D02*
X320592400Y-321868800D01*
X317832400Y-327058800D02*
X320592400Y-327058800D01*
X320592400Y-321868800D02*
X320592400Y-327058800D01*
%TO.C,U1*%
X432200000Y-344940000D02*
X432200000Y-345940000D01*
X432200000Y-345940000D02*
X433200000Y-345440000D01*
X433200000Y-345440000D02*
X432200000Y-344940000D01*
X433590000Y-340230000D02*
X442710000Y-340230000D01*
X433590000Y-373870000D02*
X434900000Y-373870000D01*
X433590000Y-411610000D02*
X433590000Y-340230000D01*
X434900000Y-341530000D02*
X441400000Y-341530000D01*
X434900000Y-373870000D02*
X434900000Y-341530000D01*
X434900000Y-377970000D02*
X433590000Y-377970000D01*
X434900000Y-410310000D02*
X434900000Y-377970000D01*
X441400000Y-341530000D02*
X441400000Y-410310000D01*
X441400000Y-410310000D02*
X434900000Y-410310000D01*
X442710000Y-340230000D02*
X442710000Y-411610000D01*
X442710000Y-411610000D02*
X433590000Y-411610000D01*
%TO.C,U4*%
X446659000Y-344170000D02*
X447929000Y-344170000D01*
X446659000Y-345440000D02*
X446659000Y-344170000D01*
X449006358Y-347550000D02*
X449391642Y-347550000D01*
X449006358Y-348410000D02*
X449391642Y-348410000D01*
X449006358Y-350090000D02*
X449391642Y-350090000D01*
X449006358Y-350950000D02*
X449391642Y-350950000D01*
X449006358Y-352630000D02*
X449391642Y-352630000D01*
X449006358Y-353490000D02*
X449391642Y-353490000D01*
X449006358Y-355170000D02*
X449391642Y-355170000D01*
X449006358Y-356030000D02*
X449391642Y-356030000D01*
X449006358Y-357710000D02*
X449391642Y-357710000D01*
X449006358Y-358570000D02*
X449391642Y-358570000D01*
X449006358Y-360250000D02*
X449391642Y-360250000D01*
X449006358Y-361110000D02*
X449391642Y-361110000D01*
X449006358Y-362790000D02*
X449391642Y-362790000D01*
X449006358Y-363650000D02*
X449391642Y-363650000D01*
X449006358Y-365330000D02*
X449391642Y-365330000D01*
X449006358Y-366190000D02*
X449391642Y-366190000D01*
X449006358Y-367870000D02*
X449391642Y-367870000D01*
X449006358Y-368730000D02*
X449391642Y-368730000D01*
X449006358Y-370410000D02*
X449391642Y-370410000D01*
X449006358Y-371270000D02*
X449391642Y-371270000D01*
X449006358Y-372950000D02*
X449391642Y-372950000D01*
X449006358Y-373810000D02*
X449391642Y-373810000D01*
X449006358Y-375490000D02*
X449391642Y-375490000D01*
X449006358Y-376350000D02*
X449391642Y-376350000D01*
X449006358Y-378030000D02*
X449391642Y-378030000D01*
X449006358Y-378890000D02*
X449391642Y-378890000D01*
X449006358Y-380570000D02*
X449391642Y-380570000D01*
X449006358Y-381430000D02*
X449391642Y-381430000D01*
X449006358Y-383110000D02*
X449391642Y-383110000D01*
X449006358Y-383970000D02*
X449391642Y-383970000D01*
X449006358Y-385650000D02*
X449391642Y-385650000D01*
X449006358Y-386510000D02*
X449391642Y-386510000D01*
X449006358Y-388190000D02*
X449391642Y-388190000D01*
X449006358Y-389050000D02*
X449391642Y-389050000D01*
X449006358Y-390730000D02*
X449391642Y-390730000D01*
X449006358Y-391590000D02*
X449391642Y-391590000D01*
X449006358Y-393270000D02*
X449391642Y-393270000D01*
X449006358Y-394130000D02*
X449391642Y-394130000D01*
X449006358Y-395810000D02*
X449391642Y-395810000D01*
X449006358Y-396670000D02*
X449391642Y-396670000D01*
X449006358Y-398350000D02*
X449391642Y-398350000D01*
X449006358Y-399210000D02*
X449391642Y-399210000D01*
X449006358Y-400890000D02*
X449391642Y-400890000D01*
X449006358Y-401750000D02*
X449391642Y-401750000D01*
X449006358Y-403430000D02*
X449391642Y-403430000D01*
X449006358Y-404290000D02*
X449391642Y-404290000D01*
X449006358Y-405970000D02*
X449391642Y-405970000D01*
X449006358Y-406830000D02*
X449391642Y-406830000D01*
X449006358Y-408510000D02*
X449391642Y-408510000D01*
X449006358Y-409370000D02*
X449391642Y-409370000D01*
X449006358Y-411050000D02*
X449391642Y-411050000D01*
X449006358Y-411910000D02*
X449391642Y-411910000D01*
X449006358Y-413590000D02*
X449391642Y-413590000D01*
X449006358Y-414450000D02*
X449391642Y-414450000D01*
X449006358Y-416130000D02*
X449391642Y-416130000D01*
X449006358Y-416990000D02*
X449391642Y-416990000D01*
X449006358Y-418670000D02*
X449391642Y-418670000D01*
X449006358Y-419530000D02*
X449391642Y-419530000D01*
X449006358Y-421210000D02*
X449391642Y-421210000D01*
X449006358Y-422070000D02*
X449391642Y-422070000D01*
X449006358Y-423750000D02*
X449391642Y-423750000D01*
X449006358Y-424610000D02*
X449391642Y-424610000D01*
X449006358Y-426290000D02*
X449391642Y-426290000D01*
X449006358Y-427150000D02*
X449391642Y-427150000D01*
X449006358Y-428830000D02*
X449391642Y-428830000D01*
X449006358Y-429690000D02*
X449391642Y-429690000D01*
X449006358Y-431370000D02*
X449391642Y-431370000D01*
X449006358Y-432230000D02*
X449391642Y-432230000D01*
X449006358Y-433910000D02*
X449391642Y-433910000D01*
X449006358Y-434770000D02*
X449391642Y-434770000D01*
X449006358Y-436450000D02*
X449391642Y-436450000D01*
X449006358Y-437310000D02*
X449391642Y-437310000D01*
X449006358Y-438990000D02*
X449391642Y-438990000D01*
X449006358Y-439850000D02*
X449391642Y-439850000D01*
X449006358Y-441530000D02*
X449391642Y-441530000D01*
X449006358Y-442390000D02*
X449391642Y-442390000D01*
X449006358Y-444070000D02*
X449391642Y-444070000D01*
X449006358Y-444930000D02*
X449391642Y-444930000D01*
X449089000Y-345010000D02*
X449391642Y-345010000D01*
X449089000Y-345870000D02*
X449391642Y-345870000D01*
X451546358Y-345010000D02*
X451859000Y-345010000D01*
X451546358Y-345870000D02*
X451859000Y-345870000D01*
X451546358Y-347550000D02*
X451859000Y-347550000D01*
X451546358Y-348410000D02*
X451859000Y-348410000D01*
X451546358Y-350090000D02*
X451859000Y-350090000D01*
X451546358Y-350950000D02*
X451859000Y-350950000D01*
X451546358Y-352630000D02*
X451859000Y-352630000D01*
X451546358Y-353490000D02*
X451859000Y-353490000D01*
X451546358Y-355170000D02*
X451859000Y-355170000D01*
X451546358Y-356030000D02*
X451859000Y-356030000D01*
X451546358Y-357710000D02*
X451859000Y-357710000D01*
X451546358Y-358570000D02*
X451859000Y-358570000D01*
X451546358Y-360250000D02*
X451859000Y-360250000D01*
X451546358Y-361110000D02*
X451859000Y-361110000D01*
X451546358Y-362790000D02*
X451859000Y-362790000D01*
X451546358Y-363650000D02*
X451859000Y-363650000D01*
X451546358Y-365330000D02*
X451859000Y-365330000D01*
X451546358Y-366190000D02*
X451859000Y-366190000D01*
X451546358Y-367870000D02*
X451859000Y-367870000D01*
X451546358Y-368730000D02*
X451859000Y-368730000D01*
X451546358Y-370410000D02*
X451859000Y-370410000D01*
X451546358Y-371270000D02*
X451859000Y-371270000D01*
X451546358Y-372950000D02*
X451859000Y-372950000D01*
X451546358Y-373810000D02*
X451859000Y-373810000D01*
X451546358Y-375490000D02*
X451859000Y-375490000D01*
X451546358Y-376350000D02*
X451859000Y-376350000D01*
X451546358Y-378030000D02*
X451859000Y-378030000D01*
X451546358Y-378890000D02*
X451859000Y-378890000D01*
X451546358Y-380570000D02*
X451859000Y-380570000D01*
X451546358Y-381430000D02*
X451859000Y-381430000D01*
X451546358Y-383110000D02*
X451859000Y-383110000D01*
X451546358Y-383970000D02*
X451859000Y-383970000D01*
X451546358Y-385650000D02*
X451859000Y-385650000D01*
X451546358Y-386510000D02*
X451859000Y-386510000D01*
X451546358Y-388190000D02*
X451859000Y-388190000D01*
X451546358Y-389050000D02*
X451859000Y-389050000D01*
X451546358Y-390730000D02*
X451859000Y-390730000D01*
X451546358Y-391590000D02*
X451859000Y-391590000D01*
X451546358Y-393270000D02*
X451859000Y-393270000D01*
X451546358Y-394130000D02*
X451859000Y-394130000D01*
X451546358Y-395810000D02*
X451859000Y-395810000D01*
X451546358Y-396670000D02*
X451859000Y-396670000D01*
X451546358Y-398350000D02*
X451859000Y-398350000D01*
X451546358Y-399210000D02*
X451859000Y-399210000D01*
X451546358Y-400890000D02*
X451859000Y-400890000D01*
X451546358Y-401750000D02*
X451859000Y-401750000D01*
X451546358Y-403430000D02*
X451859000Y-403430000D01*
X451546358Y-404290000D02*
X451859000Y-404290000D01*
X451546358Y-405970000D02*
X451859000Y-405970000D01*
X451546358Y-406830000D02*
X451859000Y-406830000D01*
X451546358Y-408510000D02*
X451859000Y-408510000D01*
X451546358Y-409370000D02*
X451859000Y-409370000D01*
X451546358Y-411050000D02*
X451859000Y-411050000D01*
X451546358Y-411910000D02*
X451859000Y-411910000D01*
X451546358Y-413590000D02*
X451859000Y-413590000D01*
X451546358Y-414450000D02*
X451859000Y-414450000D01*
X451546358Y-416130000D02*
X451859000Y-416130000D01*
X451546358Y-416990000D02*
X451859000Y-416990000D01*
X451546358Y-418670000D02*
X451859000Y-418670000D01*
X451546358Y-419530000D02*
X451859000Y-419530000D01*
X451546358Y-421210000D02*
X451859000Y-421210000D01*
X451546358Y-422070000D02*
X451859000Y-422070000D01*
X451546358Y-423750000D02*
X451859000Y-423750000D01*
X451546358Y-424610000D02*
X451859000Y-424610000D01*
X451546358Y-426290000D02*
X451859000Y-426290000D01*
X451546358Y-427150000D02*
X451859000Y-427150000D01*
X451546358Y-428830000D02*
X451859000Y-428830000D01*
X451546358Y-429690000D02*
X451859000Y-429690000D01*
X451546358Y-431370000D02*
X451859000Y-431370000D01*
X451546358Y-432230000D02*
X451859000Y-432230000D01*
X451546358Y-433910000D02*
X451859000Y-433910000D01*
X451546358Y-434770000D02*
X451859000Y-434770000D01*
X451546358Y-436450000D02*
X451859000Y-436450000D01*
X451546358Y-437310000D02*
X451859000Y-437310000D01*
X451546358Y-438990000D02*
X451859000Y-438990000D01*
X451546358Y-439850000D02*
X451859000Y-439850000D01*
X451546358Y-441530000D02*
X451859000Y-441530000D01*
X451546358Y-442390000D02*
X451859000Y-442390000D01*
X451546358Y-444070000D02*
X451859000Y-444070000D01*
X451546358Y-444930000D02*
X451859000Y-444930000D01*
X451859000Y-344060000D02*
X451859000Y-445880000D01*
X451859000Y-346710000D02*
X454619000Y-346710000D01*
X451859000Y-349250000D02*
X454619000Y-349250000D01*
X451859000Y-351790000D02*
X454619000Y-351790000D01*
X451859000Y-354330000D02*
X454619000Y-354330000D01*
X451859000Y-356870000D02*
X454619000Y-356870000D01*
X451859000Y-359410000D02*
X454619000Y-359410000D01*
X451859000Y-361950000D02*
X454619000Y-361950000D01*
X451859000Y-364490000D02*
X454619000Y-364490000D01*
X451859000Y-367030000D02*
X454619000Y-367030000D01*
X451859000Y-369570000D02*
X454619000Y-369570000D01*
X451859000Y-372110000D02*
X454619000Y-372110000D01*
X451859000Y-374650000D02*
X454619000Y-374650000D01*
X451859000Y-377190000D02*
X454619000Y-377190000D01*
X451859000Y-379730000D02*
X454619000Y-379730000D01*
X451859000Y-382270000D02*
X454619000Y-382270000D01*
X451859000Y-384810000D02*
X454619000Y-384810000D01*
X451859000Y-387350000D02*
X454619000Y-387350000D01*
X451859000Y-389890000D02*
X454619000Y-389890000D01*
X451859000Y-392430000D02*
X454619000Y-392430000D01*
X451859000Y-394970000D02*
X454619000Y-394970000D01*
X451859000Y-397510000D02*
X454619000Y-397510000D01*
X451859000Y-400050000D02*
X454619000Y-400050000D01*
X451859000Y-402590000D02*
X454619000Y-402590000D01*
X451859000Y-405130000D02*
X454619000Y-405130000D01*
X451859000Y-407670000D02*
X454619000Y-407670000D01*
X451859000Y-410210000D02*
X454619000Y-410210000D01*
X451859000Y-412750000D02*
X454619000Y-412750000D01*
X451859000Y-415290000D02*
X454619000Y-415290000D01*
X451859000Y-417830000D02*
X454619000Y-417830000D01*
X451859000Y-420370000D02*
X454619000Y-420370000D01*
X451859000Y-422910000D02*
X454619000Y-422910000D01*
X451859000Y-425450000D02*
X454619000Y-425450000D01*
X451859000Y-427990000D02*
X454619000Y-427990000D01*
X451859000Y-430530000D02*
X454619000Y-430530000D01*
X451859000Y-433070000D02*
X454619000Y-433070000D01*
X451859000Y-435610000D02*
X454619000Y-435610000D01*
X451859000Y-438150000D02*
X454619000Y-438150000D01*
X451859000Y-440690000D02*
X454619000Y-440690000D01*
X451859000Y-443230000D02*
X454619000Y-443230000D01*
X451859000Y-445880000D02*
X454619000Y-445880000D01*
X454619000Y-344060000D02*
X451859000Y-344060000D01*
X454619000Y-347550000D02*
X460619000Y-347550000D01*
X454619000Y-350090000D02*
X460619000Y-350090000D01*
X454619000Y-352630000D02*
X460619000Y-352630000D01*
X454619000Y-355170000D02*
X460619000Y-355170000D01*
X454619000Y-357710000D02*
X460619000Y-357710000D01*
X454619000Y-360250000D02*
X460619000Y-360250000D01*
X454619000Y-362790000D02*
X460619000Y-362790000D01*
X454619000Y-365330000D02*
X460619000Y-365330000D01*
X454619000Y-367870000D02*
X460619000Y-367870000D01*
X454619000Y-370410000D02*
X460619000Y-370410000D01*
X454619000Y-372950000D02*
X460619000Y-372950000D01*
X454619000Y-375490000D02*
X460619000Y-375490000D01*
X454619000Y-378030000D02*
X460619000Y-378030000D01*
X454619000Y-380570000D02*
X460619000Y-380570000D01*
X454619000Y-383110000D02*
X460619000Y-383110000D01*
X454619000Y-385650000D02*
X460619000Y-385650000D01*
X454619000Y-388190000D02*
X460619000Y-388190000D01*
X454619000Y-390730000D02*
X460619000Y-390730000D01*
X454619000Y-393270000D02*
X460619000Y-393270000D01*
X454619000Y-395810000D02*
X460619000Y-395810000D01*
X454619000Y-398350000D02*
X460619000Y-398350000D01*
X454619000Y-400890000D02*
X460619000Y-400890000D01*
X454619000Y-403430000D02*
X460619000Y-403430000D01*
X454619000Y-405970000D02*
X460619000Y-405970000D01*
X454619000Y-408510000D02*
X460619000Y-408510000D01*
X454619000Y-411050000D02*
X460619000Y-411050000D01*
X454619000Y-413590000D02*
X460619000Y-413590000D01*
X454619000Y-416130000D02*
X460619000Y-416130000D01*
X454619000Y-418670000D02*
X460619000Y-418670000D01*
X454619000Y-421210000D02*
X460619000Y-421210000D01*
X454619000Y-423750000D02*
X460619000Y-423750000D01*
X454619000Y-426290000D02*
X460619000Y-426290000D01*
X454619000Y-428830000D02*
X460619000Y-428830000D01*
X454619000Y-431370000D02*
X460619000Y-431370000D01*
X454619000Y-433910000D02*
X460619000Y-433910000D01*
X454619000Y-436450000D02*
X460619000Y-436450000D01*
X454619000Y-438990000D02*
X460619000Y-438990000D01*
X454619000Y-441530000D02*
X460619000Y-441530000D01*
X454619000Y-444070000D02*
X460619000Y-444070000D01*
X454619000Y-445880000D02*
X454619000Y-344060000D01*
X460619000Y-347550000D02*
X460619000Y-348410000D01*
X460619000Y-348410000D02*
X454619000Y-348410000D01*
X460619000Y-350090000D02*
X460619000Y-350950000D01*
X460619000Y-350950000D02*
X454619000Y-350950000D01*
X460619000Y-352630000D02*
X460619000Y-353490000D01*
X460619000Y-353490000D02*
X454619000Y-353490000D01*
X460619000Y-355170000D02*
X460619000Y-356030000D01*
X460619000Y-356030000D02*
X454619000Y-356030000D01*
X460619000Y-357710000D02*
X460619000Y-358570000D01*
X460619000Y-358570000D02*
X454619000Y-358570000D01*
X460619000Y-360250000D02*
X460619000Y-361110000D01*
X460619000Y-361110000D02*
X454619000Y-361110000D01*
X460619000Y-362790000D02*
X460619000Y-363650000D01*
X460619000Y-363650000D02*
X454619000Y-363650000D01*
X460619000Y-365330000D02*
X460619000Y-366190000D01*
X460619000Y-366190000D02*
X454619000Y-366190000D01*
X460619000Y-367870000D02*
X460619000Y-368730000D01*
X460619000Y-368730000D02*
X454619000Y-368730000D01*
X460619000Y-370410000D02*
X460619000Y-371270000D01*
X460619000Y-371270000D02*
X454619000Y-371270000D01*
X460619000Y-372950000D02*
X460619000Y-373810000D01*
X460619000Y-373810000D02*
X454619000Y-373810000D01*
X460619000Y-375490000D02*
X460619000Y-376350000D01*
X460619000Y-376350000D02*
X454619000Y-376350000D01*
X460619000Y-378030000D02*
X460619000Y-378890000D01*
X460619000Y-378890000D02*
X454619000Y-378890000D01*
X460619000Y-380570000D02*
X460619000Y-381430000D01*
X460619000Y-381430000D02*
X454619000Y-381430000D01*
X460619000Y-383110000D02*
X460619000Y-383970000D01*
X460619000Y-383970000D02*
X454619000Y-383970000D01*
X460619000Y-385650000D02*
X460619000Y-386510000D01*
X460619000Y-386510000D02*
X454619000Y-386510000D01*
X460619000Y-388190000D02*
X460619000Y-389050000D01*
X460619000Y-389050000D02*
X454619000Y-389050000D01*
X460619000Y-390730000D02*
X460619000Y-391590000D01*
X460619000Y-391590000D02*
X454619000Y-391590000D01*
X460619000Y-393270000D02*
X460619000Y-394130000D01*
X460619000Y-394130000D02*
X454619000Y-394130000D01*
X460619000Y-395810000D02*
X460619000Y-396670000D01*
X460619000Y-396670000D02*
X454619000Y-396670000D01*
X460619000Y-398350000D02*
X460619000Y-399210000D01*
X460619000Y-399210000D02*
X454619000Y-399210000D01*
X460619000Y-400890000D02*
X460619000Y-401750000D01*
X460619000Y-401750000D02*
X454619000Y-401750000D01*
X460619000Y-403430000D02*
X460619000Y-404290000D01*
X460619000Y-404290000D02*
X454619000Y-404290000D01*
X460619000Y-405970000D02*
X460619000Y-406830000D01*
X460619000Y-406830000D02*
X454619000Y-406830000D01*
X460619000Y-408510000D02*
X460619000Y-409370000D01*
X460619000Y-409370000D02*
X454619000Y-409370000D01*
X460619000Y-411050000D02*
X460619000Y-411910000D01*
X460619000Y-411910000D02*
X454619000Y-411910000D01*
X460619000Y-413590000D02*
X460619000Y-414450000D01*
X460619000Y-414450000D02*
X454619000Y-414450000D01*
X460619000Y-416130000D02*
X460619000Y-416990000D01*
X460619000Y-416990000D02*
X454619000Y-416990000D01*
X460619000Y-418670000D02*
X460619000Y-419530000D01*
X460619000Y-419530000D02*
X454619000Y-419530000D01*
X460619000Y-421210000D02*
X460619000Y-422070000D01*
X460619000Y-422070000D02*
X454619000Y-422070000D01*
X460619000Y-423750000D02*
X460619000Y-424610000D01*
X460619000Y-424610000D02*
X454619000Y-424610000D01*
X460619000Y-426290000D02*
X460619000Y-427150000D01*
X460619000Y-427150000D02*
X454619000Y-427150000D01*
X460619000Y-428830000D02*
X460619000Y-429690000D01*
X460619000Y-429690000D02*
X454619000Y-429690000D01*
X460619000Y-431370000D02*
X460619000Y-432230000D01*
X460619000Y-432230000D02*
X454619000Y-432230000D01*
X460619000Y-433910000D02*
X460619000Y-434770000D01*
X460619000Y-434770000D02*
X454619000Y-434770000D01*
X460619000Y-436450000D02*
X460619000Y-437310000D01*
X460619000Y-437310000D02*
X454619000Y-437310000D01*
X460619000Y-438990000D02*
X460619000Y-439850000D01*
X460619000Y-439850000D02*
X454619000Y-439850000D01*
X460619000Y-441530000D02*
X460619000Y-442390000D01*
X460619000Y-442390000D02*
X454619000Y-442390000D01*
X460619000Y-444070000D02*
X460619000Y-444930000D01*
X460619000Y-444930000D02*
X454619000Y-444930000D01*
X454619000Y-345010000D02*
X460619000Y-345010000D01*
X460619000Y-345870000D01*
X454619000Y-345870000D01*
X454619000Y-345010000D01*
G36*
X454619000Y-345010000D02*
G01*
X460619000Y-345010000D01*
X460619000Y-345870000D01*
X454619000Y-345870000D01*
X454619000Y-345010000D01*
G37*
%TO.C,SW1*%
X429314800Y-268301600D02*
X429314800Y-269801600D01*
X430564800Y-272301600D02*
X435064800Y-272301600D01*
X435064800Y-265801600D02*
X430564800Y-265801600D01*
X436314800Y-269801600D02*
X436314800Y-268301600D01*
%TO.C,J9*%
X248750000Y-333380000D02*
X261090000Y-333380000D01*
X261090000Y-333380000D02*
X261090000Y-386600000D01*
X261090000Y-386600000D02*
X248750000Y-386600000D01*
X261551325Y-343370000D02*
X261984338Y-343120000D01*
X261984338Y-343120000D02*
X261984338Y-343620000D01*
X261984338Y-343620000D02*
X261551325Y-343370000D01*
%TO.C,J15*%
X392915000Y-264840000D02*
X393995000Y-264840000D01*
X392915000Y-268560000D02*
X392915000Y-264840000D01*
X393995000Y-263560000D02*
X393995000Y-269840000D01*
X393995000Y-268560000D02*
X392915000Y-268560000D01*
X395135000Y-270980000D02*
X416395000Y-270980000D01*
X395195000Y-263480000D02*
X416335000Y-263480000D01*
X395195000Y-268090000D02*
X395195000Y-263480000D01*
X395675000Y-261030000D02*
X397365000Y-261030000D01*
X395675000Y-262420000D02*
X395675000Y-261030000D01*
X397025000Y-269920000D02*
X395195000Y-268090000D01*
X397365000Y-261030000D02*
X397365000Y-262420000D01*
X400565000Y-261030000D02*
X402255000Y-261030000D01*
X400565000Y-262420000D02*
X400565000Y-261030000D01*
X402255000Y-261030000D02*
X402255000Y-262420000D01*
X405645000Y-261030000D02*
X407335000Y-261030000D01*
X405645000Y-262420000D02*
X405645000Y-261030000D01*
X407335000Y-261030000D02*
X407335000Y-262420000D01*
X410745000Y-261030000D02*
X412435000Y-261030000D01*
X410745000Y-262420000D02*
X410745000Y-261030000D01*
X412435000Y-261030000D02*
X412435000Y-262420000D01*
X414505000Y-269920000D02*
X397025000Y-269920000D01*
X415845000Y-261030000D02*
X417535000Y-261030000D01*
X415845000Y-262420000D02*
X415845000Y-261030000D01*
X416335000Y-263480000D02*
X416335000Y-268090000D01*
X416335000Y-268090000D02*
X414505000Y-269920000D01*
X416395000Y-262420000D02*
X395135000Y-262420000D01*
X417535000Y-268560000D02*
X418615000Y-268560000D01*
X417535000Y-269840000D02*
X417535000Y-261030000D01*
X418615000Y-264840000D02*
X417535000Y-264840000D01*
X418615000Y-268560000D02*
X418615000Y-264840000D01*
X393995000Y-263560000D02*
G75*
G02*
X395135000Y-262420000I1139999J1D01*
G01*
X395135000Y-270980000D02*
G75*
G02*
X393995000Y-269840000I-1J1139999D01*
G01*
X416395000Y-262420000D02*
G75*
G02*
X417535000Y-263560000I0J-1140000D01*
G01*
X417535000Y-269840000D02*
G75*
G02*
X416395000Y-270980000I-1140000J0D01*
G01*
%TO.C,J8*%
X248750000Y-395660000D02*
X261090000Y-395660000D01*
X261090000Y-395660000D02*
X261090000Y-448880000D01*
X261090000Y-448880000D02*
X248750000Y-448880000D01*
X261551325Y-405650000D02*
X261984338Y-405400000D01*
X261984338Y-405400000D02*
X261984338Y-405900000D01*
X261984338Y-405900000D02*
X261551325Y-405650000D01*
%TO.C,RV4*%
X433677000Y-328279000D02*
G75*
G02*
X433613000Y-326064000I5106140J1255960D01*
G01*
X434745000Y-323656000D02*
G75*
G02*
X443895000Y-325779000I4039665J-3368761D01*
G01*
X443812000Y-328575000D02*
G75*
G02*
X434878999Y-330548001I-5026906J1550805D01*
G01*
%TO.C,R8*%
X413664400Y-341503200D02*
X413664400Y-342453200D01*
X413664400Y-347243200D02*
X413664400Y-346293200D01*
X414584400Y-342453200D02*
X412744400Y-342453200D01*
X412744400Y-346293200D01*
X414584400Y-346293200D01*
X414584400Y-342453200D01*
%TO.C,RV2*%
X433677000Y-304579000D02*
G75*
G02*
X433613000Y-302364000I5106140J1255960D01*
G01*
X434745000Y-299956000D02*
G75*
G02*
X443895000Y-302079000I4039665J-3368761D01*
G01*
X443812000Y-304875000D02*
G75*
G02*
X434878999Y-306848001I-5026906J1550805D01*
G01*
%TO.C,RV1*%
X433063000Y-283130000D02*
X434827000Y-283130000D01*
X433063000Y-286875000D02*
X433063000Y-283130000D01*
X433063000Y-295350000D02*
X433063000Y-291605000D01*
X436219000Y-283130000D02*
X437327000Y-283130000D01*
X438719000Y-283130000D02*
X439827000Y-283130000D01*
X441219000Y-283130000D02*
X442983000Y-283130000D01*
X442983000Y-283130000D02*
X442983000Y-286875000D01*
X442983000Y-291605000D02*
X442983000Y-295350000D01*
X442983000Y-295350000D02*
X433063000Y-295350000D01*
%TO.C,R7*%
X408686000Y-341604800D02*
X408686000Y-342554800D01*
X408686000Y-347344800D02*
X408686000Y-346394800D01*
X407766000Y-346394800D02*
X409606000Y-346394800D01*
X409606000Y-342554800D01*
X407766000Y-342554800D01*
X407766000Y-346394800D01*
%TO.C,J5*%
X284965000Y-288335000D02*
X286045000Y-288335000D01*
X284965000Y-292055000D02*
X284965000Y-288335000D01*
X286045000Y-287055000D02*
X286045000Y-293335000D01*
X286045000Y-292055000D02*
X284965000Y-292055000D01*
X287185000Y-294475000D02*
X308445000Y-294475000D01*
X287245000Y-286975000D02*
X308385000Y-286975000D01*
X287245000Y-291585000D02*
X287245000Y-286975000D01*
X287725000Y-284525000D02*
X289415000Y-284525000D01*
X287725000Y-285915000D02*
X287725000Y-284525000D01*
X289075000Y-293415000D02*
X287245000Y-291585000D01*
X289415000Y-284525000D02*
X289415000Y-285915000D01*
X292615000Y-284525000D02*
X294305000Y-284525000D01*
X292615000Y-285915000D02*
X292615000Y-284525000D01*
X294305000Y-284525000D02*
X294305000Y-285915000D01*
X297695000Y-284525000D02*
X299385000Y-284525000D01*
X297695000Y-285915000D02*
X297695000Y-284525000D01*
X299385000Y-284525000D02*
X299385000Y-285915000D01*
X302795000Y-284525000D02*
X304485000Y-284525000D01*
X302795000Y-285915000D02*
X302795000Y-284525000D01*
X304485000Y-284525000D02*
X304485000Y-285915000D01*
X306555000Y-293415000D02*
X289075000Y-293415000D01*
X307895000Y-284525000D02*
X309585000Y-284525000D01*
X307895000Y-285915000D02*
X307895000Y-284525000D01*
X308385000Y-286975000D02*
X308385000Y-291585000D01*
X308385000Y-291585000D02*
X306555000Y-293415000D01*
X308445000Y-285915000D02*
X287185000Y-285915000D01*
X309585000Y-292055000D02*
X310665000Y-292055000D01*
X309585000Y-293335000D02*
X309585000Y-284525000D01*
X310665000Y-288335000D02*
X309585000Y-288335000D01*
X310665000Y-292055000D02*
X310665000Y-288335000D01*
X286045000Y-287055000D02*
G75*
G02*
X287185000Y-285915000I1139999J1D01*
G01*
X287185000Y-294475000D02*
G75*
G02*
X286045000Y-293335000I-1J1139999D01*
G01*
X308445000Y-285915000D02*
G75*
G02*
X309585000Y-287055000I0J-1140000D01*
G01*
X309585000Y-293335000D02*
G75*
G02*
X308445000Y-294475000I-1140000J0D01*
G01*
%TO.C,J2*%
X427372000Y-283519800D02*
X427372000Y-280869800D01*
X430132000Y-280869800D02*
X427372000Y-280869800D01*
X430132000Y-283519800D02*
X427372000Y-283519800D01*
X430132000Y-283519800D02*
X430132000Y-280869800D01*
X430132000Y-284789800D02*
X430132000Y-286169800D01*
X430132000Y-286169800D02*
X428752000Y-286169800D01*
%TO.C,J7*%
X403815000Y-450110000D02*
X434785000Y-450110000D01*
X403815000Y-462450000D02*
X403815000Y-450110000D01*
X424590000Y-449215662D02*
X425090000Y-449215662D01*
X424840000Y-449648675D02*
X424590000Y-449215662D01*
X425090000Y-449215662D02*
X424840000Y-449648675D01*
X434785000Y-450110000D02*
X434785000Y-462450000D01*
%TO.C,Q2*%
X321593600Y-327841200D02*
X321593600Y-331441200D01*
X321605122Y-327802722D02*
G75*
G02*
X326043601Y-329641200I1838478J-1838478D01*
G01*
X326043600Y-329641200D02*
G75*
G02*
X321605122Y-331479678I-2600000J0D01*
G01*
%TO.C,RV3*%
X433677000Y-316429000D02*
G75*
G02*
X433613000Y-314214000I5106140J1255960D01*
G01*
X434745000Y-311806000D02*
G75*
G02*
X443895000Y-313929000I4039665J-3368761D01*
G01*
X443812000Y-316725000D02*
G75*
G02*
X434878999Y-318698001I-5026906J1550805D01*
G01*
%TO.C,R6*%
X408356000Y-324662800D02*
X409306000Y-324662800D01*
X414096000Y-324662800D02*
X413146000Y-324662800D01*
X409306000Y-323742800D02*
X413146000Y-323742800D01*
X413146000Y-325582800D01*
X409306000Y-325582800D01*
X409306000Y-323742800D01*
%TO.C,J14*%
X392915000Y-276905000D02*
X393995000Y-276905000D01*
X392915000Y-280625000D02*
X392915000Y-276905000D01*
X393995000Y-275625000D02*
X393995000Y-281905000D01*
X393995000Y-280625000D02*
X392915000Y-280625000D01*
X395135000Y-283045000D02*
X416395000Y-283045000D01*
X395195000Y-275545000D02*
X416335000Y-275545000D01*
X395195000Y-280155000D02*
X395195000Y-275545000D01*
X395675000Y-273095000D02*
X397365000Y-273095000D01*
X395675000Y-274485000D02*
X395675000Y-273095000D01*
X397025000Y-281985000D02*
X395195000Y-280155000D01*
X397365000Y-273095000D02*
X397365000Y-274485000D01*
X400565000Y-273095000D02*
X402255000Y-273095000D01*
X400565000Y-274485000D02*
X400565000Y-273095000D01*
X402255000Y-273095000D02*
X402255000Y-274485000D01*
X405645000Y-273095000D02*
X407335000Y-273095000D01*
X405645000Y-274485000D02*
X405645000Y-273095000D01*
X407335000Y-273095000D02*
X407335000Y-274485000D01*
X410745000Y-273095000D02*
X412435000Y-273095000D01*
X410745000Y-274485000D02*
X410745000Y-273095000D01*
X412435000Y-273095000D02*
X412435000Y-274485000D01*
X414505000Y-281985000D02*
X397025000Y-281985000D01*
X415845000Y-273095000D02*
X417535000Y-273095000D01*
X415845000Y-274485000D02*
X415845000Y-273095000D01*
X416335000Y-275545000D02*
X416335000Y-280155000D01*
X416335000Y-280155000D02*
X414505000Y-281985000D01*
X416395000Y-274485000D02*
X395135000Y-274485000D01*
X417535000Y-280625000D02*
X418615000Y-280625000D01*
X417535000Y-281905000D02*
X417535000Y-273095000D01*
X418615000Y-276905000D02*
X417535000Y-276905000D01*
X418615000Y-280625000D02*
X418615000Y-276905000D01*
X393995000Y-275625000D02*
G75*
G02*
X395135000Y-274485000I1139999J1D01*
G01*
X395135000Y-283045000D02*
G75*
G02*
X393995000Y-281905000I-1J1139999D01*
G01*
X416395000Y-274485000D02*
G75*
G02*
X417535000Y-275625000I0J-1140000D01*
G01*
X417535000Y-281905000D02*
G75*
G02*
X416395000Y-283045000I-1140000J0D01*
G01*
%TO.C,U8*%
X398516800Y-329931200D02*
X398516800Y-331181200D01*
X398516800Y-333181200D02*
X398516800Y-334431200D01*
X398516800Y-334431200D02*
X416416800Y-334431200D01*
X416416800Y-329931200D02*
X398516800Y-329931200D01*
X416416800Y-334431200D02*
X416416800Y-329931200D01*
X398516800Y-331181200D02*
G75*
G02*
X398516800Y-333181200I0J-1000000D01*
G01*
%TO.C,JP4*%
X322063600Y-321919600D02*
X322063600Y-319269600D01*
X324823600Y-319269600D02*
X322063600Y-319269600D01*
X324823600Y-321919600D02*
X322063600Y-321919600D01*
X324823600Y-321919600D02*
X324823600Y-319269600D01*
X324823600Y-323189600D02*
X324823600Y-324569600D01*
X324823600Y-324569600D02*
X323443600Y-324569600D01*
%TO.C,U3*%
X327530000Y-262140000D02*
X378590000Y-262140000D01*
X327530000Y-271260000D02*
X327530000Y-262140000D01*
X328830000Y-263450000D02*
X377290000Y-263450000D01*
X328830000Y-269950000D02*
X328830000Y-263450000D01*
X332240000Y-272650000D02*
X333240000Y-272650000D01*
X332740000Y-271650000D02*
X332240000Y-272650000D01*
X333240000Y-272650000D02*
X332740000Y-271650000D01*
X351010000Y-269950000D02*
X328830000Y-269950000D01*
X351010000Y-271260000D02*
X351010000Y-269950000D01*
X355110000Y-269950000D02*
X355110000Y-271260000D01*
X377290000Y-263450000D02*
X377290000Y-269950000D01*
X377290000Y-269950000D02*
X355110000Y-269950000D01*
X378590000Y-262140000D02*
X378590000Y-271260000D01*
X378590000Y-271260000D02*
X327530000Y-271260000D01*
%TO.C,U5*%
X327479200Y-285320000D02*
X378539200Y-285320000D01*
X327479200Y-294440000D02*
X327479200Y-285320000D01*
X328779200Y-286630000D02*
X377239200Y-286630000D01*
X328779200Y-293130000D02*
X328779200Y-286630000D01*
X332189200Y-295830000D02*
X333189200Y-295830000D01*
X332689200Y-294830000D02*
X332189200Y-295830000D01*
X333189200Y-295830000D02*
X332689200Y-294830000D01*
X350959200Y-293130000D02*
X328779200Y-293130000D01*
X350959200Y-294440000D02*
X350959200Y-293130000D01*
X355059200Y-293130000D02*
X355059200Y-294440000D01*
X377239200Y-286630000D02*
X377239200Y-293130000D01*
X377239200Y-293130000D02*
X355059200Y-293130000D01*
X378539200Y-285320000D02*
X378539200Y-294440000D01*
X378539200Y-294440000D02*
X327479200Y-294440000D01*
%TO.C,JP2*%
X313242400Y-319218800D02*
X314622400Y-319218800D01*
X313242400Y-320598800D02*
X313242400Y-319218800D01*
X313242400Y-321868800D02*
X313242400Y-327058800D01*
X313242400Y-321868800D02*
X316002400Y-321868800D01*
X313242400Y-327058800D02*
X316002400Y-327058800D01*
X316002400Y-321868800D02*
X316002400Y-327058800D01*
%TO.C,U7*%
X394402000Y-411058800D02*
X394402000Y-415558800D01*
X394402000Y-415558800D02*
X414842000Y-415558800D01*
X414842000Y-411058800D02*
X394402000Y-411058800D01*
X414842000Y-412308800D02*
X414842000Y-411058800D01*
X414842000Y-415558800D02*
X414842000Y-414308800D01*
X414842000Y-414308800D02*
G75*
G02*
X414842000Y-412308800I0J1000000D01*
G01*
%TO.C,R2*%
X410997600Y-406196800D02*
X411947600Y-406196800D01*
X416737600Y-406196800D02*
X415787600Y-406196800D01*
X415787600Y-407116800D02*
X411947600Y-407116800D01*
X411947600Y-405276800D01*
X415787600Y-405276800D01*
X415787600Y-407116800D01*
%TO.C,J4*%
X308365000Y-450110000D02*
X339335000Y-450110000D01*
X308365000Y-462450000D02*
X308365000Y-450110000D01*
X329140000Y-449215662D02*
X329640000Y-449215662D01*
X329390000Y-449648675D02*
X329140000Y-449215662D01*
X329640000Y-449215662D02*
X329390000Y-449648675D01*
X339335000Y-450110000D02*
X339335000Y-462450000D01*
%TO.C,J3*%
X262645000Y-450110000D02*
X293615000Y-450110000D01*
X262645000Y-462450000D02*
X262645000Y-450110000D01*
X283420000Y-449215662D02*
X283920000Y-449215662D01*
X283670000Y-449648675D02*
X283420000Y-449215662D01*
X283920000Y-449215662D02*
X283670000Y-449648675D01*
X293615000Y-450110000D02*
X293615000Y-462450000D01*
%TO.C,C2*%
X401774200Y-419297600D02*
X403304200Y-419297600D01*
X403304200Y-421137600D02*
X401774200Y-421137600D01*
%TO.C,U2*%
X327479200Y-273570000D02*
X378539200Y-273570000D01*
X327479200Y-282690000D02*
X327479200Y-273570000D01*
X328779200Y-274880000D02*
X377239200Y-274880000D01*
X328779200Y-281380000D02*
X328779200Y-274880000D01*
X332189200Y-284080000D02*
X333189200Y-284080000D01*
X332689200Y-283080000D02*
X332189200Y-284080000D01*
X333189200Y-284080000D02*
X332689200Y-283080000D01*
X350959200Y-281380000D02*
X328779200Y-281380000D01*
X350959200Y-282690000D02*
X350959200Y-281380000D01*
X355059200Y-281380000D02*
X355059200Y-282690000D01*
X377239200Y-274880000D02*
X377239200Y-281380000D01*
X377239200Y-281380000D02*
X355059200Y-281380000D01*
X378539200Y-273570000D02*
X378539200Y-282690000D01*
X378539200Y-282690000D02*
X327479200Y-282690000D01*
%TO.C,R5*%
X392150800Y-420319200D02*
X393100800Y-420319200D01*
X397890800Y-420319200D02*
X396940800Y-420319200D01*
X393100800Y-419399200D02*
X396940800Y-419399200D01*
X396940800Y-421239200D01*
X393100800Y-421239200D01*
X393100800Y-419399200D01*
%TO.C,R3*%
X407289200Y-419760400D02*
X408239200Y-419760400D01*
X413029200Y-419760400D02*
X412079200Y-419760400D01*
X412079200Y-420680400D02*
X408239200Y-420680400D01*
X408239200Y-418840400D01*
X412079200Y-418840400D01*
X412079200Y-420680400D01*
%TO.C,JP1*%
X308652400Y-319218800D02*
X310032400Y-319218800D01*
X308652400Y-320598800D02*
X308652400Y-319218800D01*
X308652400Y-321868800D02*
X308652400Y-327058800D01*
X308652400Y-321868800D02*
X311412400Y-321868800D01*
X308652400Y-327058800D02*
X311412400Y-327058800D01*
X311412400Y-321868800D02*
X311412400Y-327058800D01*
%TO.C,R4*%
X396570400Y-406196800D02*
X397520400Y-406196800D01*
X402310400Y-406196800D02*
X401360400Y-406196800D01*
X397520400Y-405276800D02*
X401360400Y-405276800D01*
X401360400Y-407116800D01*
X397520400Y-407116800D01*
X397520400Y-405276800D01*
%TO.C,J1*%
X278098000Y-280188800D02*
X278098000Y-264488800D01*
X320298000Y-264488800D02*
X278098000Y-264488800D01*
X320298000Y-264488800D02*
X320298000Y-280188800D01*
X320298000Y-280188800D02*
X278098000Y-280188800D01*
X320548000Y-277938800D02*
X320548000Y-280438800D01*
X320548000Y-280438800D02*
X318048000Y-280438800D01*
%TO.C,J10*%
X248750000Y-271260000D02*
X261090000Y-271260000D01*
X261090000Y-271260000D02*
X261090000Y-324480000D01*
X261090000Y-324480000D02*
X248750000Y-324480000D01*
X261551325Y-281250000D02*
X261984338Y-281000000D01*
X261984338Y-281000000D02*
X261984338Y-281500000D01*
X261984338Y-281500000D02*
X261551325Y-281250000D01*
D15*
%TO.C,J12*%
X264738800Y-270887200D02*
X264738800Y-280887200D01*
X264738800Y-280887200D02*
X274738800Y-280887200D01*
X274738800Y-270887200D02*
X264738800Y-270887200D01*
X274738800Y-280887200D02*
X274738800Y-270887200D01*
D16*
X275588800Y-274887200D02*
G75*
G02*
X275388800Y-274887200I-100000J0D01*
G01*
X275388800Y-274887200D02*
G75*
G02*
X275588800Y-274887200I100000J0D01*
G01*
D14*
%TO.C,R1*%
X438582000Y-451104000D02*
X439532000Y-451104000D01*
X444322000Y-451104000D02*
X443372000Y-451104000D01*
X443372000Y-452024000D02*
X439532000Y-452024000D01*
X439532000Y-450184000D01*
X443372000Y-450184000D01*
X443372000Y-452024000D01*
%TO.C,U6*%
X389125000Y-285320000D02*
X422405000Y-285320000D01*
X389125000Y-294440000D02*
X389125000Y-285320000D01*
X390425000Y-286630000D02*
X421105000Y-286630000D01*
X390425000Y-293130000D02*
X390425000Y-286630000D01*
X393835000Y-295830000D02*
X394835000Y-295830000D01*
X394335000Y-294830000D02*
X393835000Y-295830000D01*
X394835000Y-295830000D02*
X394335000Y-294830000D01*
X403715000Y-293130000D02*
X390425000Y-293130000D01*
X403715000Y-294440000D02*
X403715000Y-293130000D01*
X407815000Y-293130000D02*
X407815000Y-294440000D01*
X421105000Y-286630000D02*
X421105000Y-293130000D01*
X421105000Y-293130000D02*
X407815000Y-293130000D01*
X422405000Y-285320000D02*
X422405000Y-294440000D01*
X422405000Y-294440000D02*
X389125000Y-294440000D01*
%TO.C,C1*%
X405889000Y-405276800D02*
X407419000Y-405276800D01*
X407419000Y-407116800D02*
X405889000Y-407116800D01*
%TO.C,D1*%
X437860000Y-456599000D02*
X437860000Y-456755000D01*
X437860000Y-458915000D02*
X437860000Y-459071000D01*
X437860000Y-456599484D02*
G75*
G02*
X441091437Y-456755000I1560000J-1235516D01*
G01*
X438379039Y-456755000D02*
G75*
G02*
X440460961Y-456755000I1040961J-1080000D01*
G01*
X440460961Y-458915000D02*
G75*
G02*
X438379039Y-458915000I-1040961J1080000D01*
G01*
X441091437Y-458915000D02*
G75*
G02*
X437860000Y-459070516I-1671437J1080000D01*
G01*
%TD*%
D17*
X248920000Y-455960000D02*
X254920000Y-461960000D01*
X248920000Y-266350000D02*
X248920000Y-455960000D01*
X446120000Y-260350000D02*
X254920000Y-260350000D01*
X452120000Y-455960000D02*
X446120000Y-461960000D01*
X446120000Y-461960000D02*
X254920000Y-461960000D01*
X452120000Y-455960000D02*
X452120000Y-266350000D01*
X254920000Y-260350000D02*
X248920000Y-266350000D01*
X446120000Y-260350000D02*
X452120000Y-266350000D01*
M02*
