%TF.GenerationSoftware,KiCad,Pcbnew,9.0.4*%
%TF.CreationDate,2025-11-09T15:05:19+13:00*%
%TF.ProjectId,AWS_CPU_Motherboard,4157535f-4350-4555-9f4d-6f7468657262,rev?*%
%TF.SameCoordinates,Original*%
%TF.FileFunction,Drillmap*%
%TF.FilePolarity,Positive*%
%FSLAX45Y45*%
G04 Gerber Fmt 4.5, Leading zero omitted, Abs format (unit mm)*
G04 Created by KiCad (PCBNEW 9.0.4) date 2025-11-09 15:05:19*
%MOMM*%
%LPD*%
G01*
G04 APERTURE LIST*
%ADD10C,0.050000*%
%ADD11C,0.200000*%
%ADD12C,0.320000*%
G04 APERTURE END LIST*
D10*
X24892000Y-45596000D02*
X25492000Y-46196000D01*
X24892000Y-26635000D02*
X24892000Y-45596000D01*
X44612000Y-26035000D02*
X25492000Y-26035000D01*
X45212000Y-45596000D02*
X44612000Y-46196000D01*
X44612000Y-46196000D02*
X25492000Y-46196000D01*
X45212000Y-45596000D02*
X45212000Y-26635000D01*
X25492000Y-26035000D02*
X24892000Y-26635000D01*
X44612000Y-26035000D02*
X45212000Y-26635000D01*
D11*
D12*
X25340000Y-32733000D02*
X25660000Y-33053000D01*
X25660000Y-32733000D02*
X25340000Y-33053000D01*
X25342000Y-26535000D02*
X25662000Y-26855000D01*
X25662000Y-26535000D02*
X25342000Y-26855000D01*
X25342000Y-38956000D02*
X25662000Y-39276000D01*
X25662000Y-38956000D02*
X25342000Y-39276000D01*
X25342000Y-45376000D02*
X25662000Y-45696000D01*
X25662000Y-45376000D02*
X25342000Y-45696000D01*
X30995640Y-30261580D02*
X31315640Y-30581580D01*
X31315640Y-30261580D02*
X30995640Y-30581580D01*
X36924000Y-45376000D02*
X37244000Y-45696000D01*
X37244000Y-45376000D02*
X36924000Y-45696000D01*
X39098240Y-30261580D02*
X39418240Y-30581580D01*
X39418240Y-30261580D02*
X39098240Y-30581580D01*
X44442000Y-26535000D02*
X44762000Y-26855000D01*
X44762000Y-26535000D02*
X44442000Y-26855000D01*
X44442000Y-45376000D02*
X44762000Y-45696000D01*
X44762000Y-45376000D02*
X44442000Y-45696000D01*
D11*
X25150277Y-46509984D02*
X25150277Y-46309984D01*
X25150277Y-46309984D02*
X25197896Y-46309984D01*
X25197896Y-46309984D02*
X25226467Y-46319508D01*
X25226467Y-46319508D02*
X25245515Y-46338555D01*
X25245515Y-46338555D02*
X25255039Y-46357603D01*
X25255039Y-46357603D02*
X25264562Y-46395698D01*
X25264562Y-46395698D02*
X25264562Y-46424269D01*
X25264562Y-46424269D02*
X25255039Y-46462365D01*
X25255039Y-46462365D02*
X25245515Y-46481412D01*
X25245515Y-46481412D02*
X25226467Y-46500460D01*
X25226467Y-46500460D02*
X25197896Y-46509984D01*
X25197896Y-46509984D02*
X25150277Y-46509984D01*
X25350277Y-46509984D02*
X25350277Y-46376650D01*
X25350277Y-46414746D02*
X25359801Y-46395698D01*
X25359801Y-46395698D02*
X25369324Y-46386174D01*
X25369324Y-46386174D02*
X25388372Y-46376650D01*
X25388372Y-46376650D02*
X25407420Y-46376650D01*
X25474086Y-46509984D02*
X25474086Y-46376650D01*
X25474086Y-46309984D02*
X25464562Y-46319508D01*
X25464562Y-46319508D02*
X25474086Y-46329031D01*
X25474086Y-46329031D02*
X25483610Y-46319508D01*
X25483610Y-46319508D02*
X25474086Y-46309984D01*
X25474086Y-46309984D02*
X25474086Y-46329031D01*
X25597896Y-46509984D02*
X25578848Y-46500460D01*
X25578848Y-46500460D02*
X25569324Y-46481412D01*
X25569324Y-46481412D02*
X25569324Y-46309984D01*
X25702658Y-46509984D02*
X25683610Y-46500460D01*
X25683610Y-46500460D02*
X25674086Y-46481412D01*
X25674086Y-46481412D02*
X25674086Y-46309984D01*
X25931229Y-46509984D02*
X25931229Y-46309984D01*
X25931229Y-46309984D02*
X25997896Y-46452841D01*
X25997896Y-46452841D02*
X26064562Y-46309984D01*
X26064562Y-46309984D02*
X26064562Y-46509984D01*
X26245515Y-46509984D02*
X26245515Y-46405222D01*
X26245515Y-46405222D02*
X26235991Y-46386174D01*
X26235991Y-46386174D02*
X26216943Y-46376650D01*
X26216943Y-46376650D02*
X26178848Y-46376650D01*
X26178848Y-46376650D02*
X26159801Y-46386174D01*
X26245515Y-46500460D02*
X26226467Y-46509984D01*
X26226467Y-46509984D02*
X26178848Y-46509984D01*
X26178848Y-46509984D02*
X26159801Y-46500460D01*
X26159801Y-46500460D02*
X26150277Y-46481412D01*
X26150277Y-46481412D02*
X26150277Y-46462365D01*
X26150277Y-46462365D02*
X26159801Y-46443317D01*
X26159801Y-46443317D02*
X26178848Y-46433793D01*
X26178848Y-46433793D02*
X26226467Y-46433793D01*
X26226467Y-46433793D02*
X26245515Y-46424269D01*
X26340753Y-46376650D02*
X26340753Y-46576650D01*
X26340753Y-46386174D02*
X26359801Y-46376650D01*
X26359801Y-46376650D02*
X26397896Y-46376650D01*
X26397896Y-46376650D02*
X26416943Y-46386174D01*
X26416943Y-46386174D02*
X26426467Y-46395698D01*
X26426467Y-46395698D02*
X26435991Y-46414746D01*
X26435991Y-46414746D02*
X26435991Y-46471888D01*
X26435991Y-46471888D02*
X26426467Y-46490936D01*
X26426467Y-46490936D02*
X26416943Y-46500460D01*
X26416943Y-46500460D02*
X26397896Y-46509984D01*
X26397896Y-46509984D02*
X26359801Y-46509984D01*
X26359801Y-46509984D02*
X26340753Y-46500460D01*
X26521705Y-46490936D02*
X26531229Y-46500460D01*
X26531229Y-46500460D02*
X26521705Y-46509984D01*
X26521705Y-46509984D02*
X26512182Y-46500460D01*
X26512182Y-46500460D02*
X26521705Y-46490936D01*
X26521705Y-46490936D02*
X26521705Y-46509984D01*
X26521705Y-46386174D02*
X26531229Y-46395698D01*
X26531229Y-46395698D02*
X26521705Y-46405222D01*
X26521705Y-46405222D02*
X26512182Y-46395698D01*
X26512182Y-46395698D02*
X26521705Y-46386174D01*
X26521705Y-46386174D02*
X26521705Y-46405222D01*
X24689500Y-46738500D02*
X24889500Y-46938500D01*
X24889500Y-46738500D02*
X24689500Y-46938500D01*
X25131229Y-46729984D02*
X25255039Y-46729984D01*
X25255039Y-46729984D02*
X25188372Y-46806174D01*
X25188372Y-46806174D02*
X25216943Y-46806174D01*
X25216943Y-46806174D02*
X25235991Y-46815698D01*
X25235991Y-46815698D02*
X25245515Y-46825222D01*
X25245515Y-46825222D02*
X25255039Y-46844269D01*
X25255039Y-46844269D02*
X25255039Y-46891888D01*
X25255039Y-46891888D02*
X25245515Y-46910936D01*
X25245515Y-46910936D02*
X25235991Y-46920460D01*
X25235991Y-46920460D02*
X25216943Y-46929984D01*
X25216943Y-46929984D02*
X25159801Y-46929984D01*
X25159801Y-46929984D02*
X25140753Y-46920460D01*
X25140753Y-46920460D02*
X25131229Y-46910936D01*
X25340753Y-46910936D02*
X25350277Y-46920460D01*
X25350277Y-46920460D02*
X25340753Y-46929984D01*
X25340753Y-46929984D02*
X25331229Y-46920460D01*
X25331229Y-46920460D02*
X25340753Y-46910936D01*
X25340753Y-46910936D02*
X25340753Y-46929984D01*
X25426467Y-46749031D02*
X25435991Y-46739508D01*
X25435991Y-46739508D02*
X25455039Y-46729984D01*
X25455039Y-46729984D02*
X25502658Y-46729984D01*
X25502658Y-46729984D02*
X25521705Y-46739508D01*
X25521705Y-46739508D02*
X25531229Y-46749031D01*
X25531229Y-46749031D02*
X25540753Y-46768079D01*
X25540753Y-46768079D02*
X25540753Y-46787127D01*
X25540753Y-46787127D02*
X25531229Y-46815698D01*
X25531229Y-46815698D02*
X25416943Y-46929984D01*
X25416943Y-46929984D02*
X25540753Y-46929984D01*
X25664562Y-46729984D02*
X25683610Y-46729984D01*
X25683610Y-46729984D02*
X25702658Y-46739508D01*
X25702658Y-46739508D02*
X25712182Y-46749031D01*
X25712182Y-46749031D02*
X25721705Y-46768079D01*
X25721705Y-46768079D02*
X25731229Y-46806174D01*
X25731229Y-46806174D02*
X25731229Y-46853793D01*
X25731229Y-46853793D02*
X25721705Y-46891888D01*
X25721705Y-46891888D02*
X25712182Y-46910936D01*
X25712182Y-46910936D02*
X25702658Y-46920460D01*
X25702658Y-46920460D02*
X25683610Y-46929984D01*
X25683610Y-46929984D02*
X25664562Y-46929984D01*
X25664562Y-46929984D02*
X25645515Y-46920460D01*
X25645515Y-46920460D02*
X25635991Y-46910936D01*
X25635991Y-46910936D02*
X25626467Y-46891888D01*
X25626467Y-46891888D02*
X25616943Y-46853793D01*
X25616943Y-46853793D02*
X25616943Y-46806174D01*
X25616943Y-46806174D02*
X25626467Y-46768079D01*
X25626467Y-46768079D02*
X25635991Y-46749031D01*
X25635991Y-46749031D02*
X25645515Y-46739508D01*
X25645515Y-46739508D02*
X25664562Y-46729984D01*
X25855039Y-46729984D02*
X25874086Y-46729984D01*
X25874086Y-46729984D02*
X25893134Y-46739508D01*
X25893134Y-46739508D02*
X25902658Y-46749031D01*
X25902658Y-46749031D02*
X25912182Y-46768079D01*
X25912182Y-46768079D02*
X25921705Y-46806174D01*
X25921705Y-46806174D02*
X25921705Y-46853793D01*
X25921705Y-46853793D02*
X25912182Y-46891888D01*
X25912182Y-46891888D02*
X25902658Y-46910936D01*
X25902658Y-46910936D02*
X25893134Y-46920460D01*
X25893134Y-46920460D02*
X25874086Y-46929984D01*
X25874086Y-46929984D02*
X25855039Y-46929984D01*
X25855039Y-46929984D02*
X25835991Y-46920460D01*
X25835991Y-46920460D02*
X25826467Y-46910936D01*
X25826467Y-46910936D02*
X25816943Y-46891888D01*
X25816943Y-46891888D02*
X25807420Y-46853793D01*
X25807420Y-46853793D02*
X25807420Y-46806174D01*
X25807420Y-46806174D02*
X25816943Y-46768079D01*
X25816943Y-46768079D02*
X25826467Y-46749031D01*
X25826467Y-46749031D02*
X25835991Y-46739508D01*
X25835991Y-46739508D02*
X25855039Y-46729984D01*
X26007420Y-46929984D02*
X26007420Y-46796650D01*
X26007420Y-46815698D02*
X26016943Y-46806174D01*
X26016943Y-46806174D02*
X26035991Y-46796650D01*
X26035991Y-46796650D02*
X26064563Y-46796650D01*
X26064563Y-46796650D02*
X26083610Y-46806174D01*
X26083610Y-46806174D02*
X26093134Y-46825222D01*
X26093134Y-46825222D02*
X26093134Y-46929984D01*
X26093134Y-46825222D02*
X26102658Y-46806174D01*
X26102658Y-46806174D02*
X26121705Y-46796650D01*
X26121705Y-46796650D02*
X26150277Y-46796650D01*
X26150277Y-46796650D02*
X26169324Y-46806174D01*
X26169324Y-46806174D02*
X26178848Y-46825222D01*
X26178848Y-46825222D02*
X26178848Y-46929984D01*
X26274086Y-46929984D02*
X26274086Y-46796650D01*
X26274086Y-46815698D02*
X26283610Y-46806174D01*
X26283610Y-46806174D02*
X26302658Y-46796650D01*
X26302658Y-46796650D02*
X26331229Y-46796650D01*
X26331229Y-46796650D02*
X26350277Y-46806174D01*
X26350277Y-46806174D02*
X26359801Y-46825222D01*
X26359801Y-46825222D02*
X26359801Y-46929984D01*
X26359801Y-46825222D02*
X26369324Y-46806174D01*
X26369324Y-46806174D02*
X26388372Y-46796650D01*
X26388372Y-46796650D02*
X26416943Y-46796650D01*
X26416943Y-46796650D02*
X26435991Y-46806174D01*
X26435991Y-46806174D02*
X26445515Y-46825222D01*
X26445515Y-46825222D02*
X26445515Y-46929984D01*
X26835991Y-46720460D02*
X26664563Y-46977603D01*
X27093134Y-46729984D02*
X27112182Y-46729984D01*
X27112182Y-46729984D02*
X27131229Y-46739508D01*
X27131229Y-46739508D02*
X27140753Y-46749031D01*
X27140753Y-46749031D02*
X27150277Y-46768079D01*
X27150277Y-46768079D02*
X27159801Y-46806174D01*
X27159801Y-46806174D02*
X27159801Y-46853793D01*
X27159801Y-46853793D02*
X27150277Y-46891888D01*
X27150277Y-46891888D02*
X27140753Y-46910936D01*
X27140753Y-46910936D02*
X27131229Y-46920460D01*
X27131229Y-46920460D02*
X27112182Y-46929984D01*
X27112182Y-46929984D02*
X27093134Y-46929984D01*
X27093134Y-46929984D02*
X27074086Y-46920460D01*
X27074086Y-46920460D02*
X27064563Y-46910936D01*
X27064563Y-46910936D02*
X27055039Y-46891888D01*
X27055039Y-46891888D02*
X27045515Y-46853793D01*
X27045515Y-46853793D02*
X27045515Y-46806174D01*
X27045515Y-46806174D02*
X27055039Y-46768079D01*
X27055039Y-46768079D02*
X27064563Y-46749031D01*
X27064563Y-46749031D02*
X27074086Y-46739508D01*
X27074086Y-46739508D02*
X27093134Y-46729984D01*
X27245515Y-46910936D02*
X27255039Y-46920460D01*
X27255039Y-46920460D02*
X27245515Y-46929984D01*
X27245515Y-46929984D02*
X27235991Y-46920460D01*
X27235991Y-46920460D02*
X27245515Y-46910936D01*
X27245515Y-46910936D02*
X27245515Y-46929984D01*
X27445515Y-46929984D02*
X27331229Y-46929984D01*
X27388372Y-46929984D02*
X27388372Y-46729984D01*
X27388372Y-46729984D02*
X27369325Y-46758555D01*
X27369325Y-46758555D02*
X27350277Y-46777603D01*
X27350277Y-46777603D02*
X27331229Y-46787127D01*
X27521706Y-46749031D02*
X27531229Y-46739508D01*
X27531229Y-46739508D02*
X27550277Y-46729984D01*
X27550277Y-46729984D02*
X27597896Y-46729984D01*
X27597896Y-46729984D02*
X27616944Y-46739508D01*
X27616944Y-46739508D02*
X27626467Y-46749031D01*
X27626467Y-46749031D02*
X27635991Y-46768079D01*
X27635991Y-46768079D02*
X27635991Y-46787127D01*
X27635991Y-46787127D02*
X27626467Y-46815698D01*
X27626467Y-46815698D02*
X27512182Y-46929984D01*
X27512182Y-46929984D02*
X27635991Y-46929984D01*
X27807420Y-46729984D02*
X27769325Y-46729984D01*
X27769325Y-46729984D02*
X27750277Y-46739508D01*
X27750277Y-46739508D02*
X27740753Y-46749031D01*
X27740753Y-46749031D02*
X27721706Y-46777603D01*
X27721706Y-46777603D02*
X27712182Y-46815698D01*
X27712182Y-46815698D02*
X27712182Y-46891888D01*
X27712182Y-46891888D02*
X27721706Y-46910936D01*
X27721706Y-46910936D02*
X27731229Y-46920460D01*
X27731229Y-46920460D02*
X27750277Y-46929984D01*
X27750277Y-46929984D02*
X27788372Y-46929984D01*
X27788372Y-46929984D02*
X27807420Y-46920460D01*
X27807420Y-46920460D02*
X27816944Y-46910936D01*
X27816944Y-46910936D02*
X27826467Y-46891888D01*
X27826467Y-46891888D02*
X27826467Y-46844269D01*
X27826467Y-46844269D02*
X27816944Y-46825222D01*
X27816944Y-46825222D02*
X27807420Y-46815698D01*
X27807420Y-46815698D02*
X27788372Y-46806174D01*
X27788372Y-46806174D02*
X27750277Y-46806174D01*
X27750277Y-46806174D02*
X27731229Y-46815698D01*
X27731229Y-46815698D02*
X27721706Y-46825222D01*
X27721706Y-46825222D02*
X27712182Y-46844269D01*
X27950277Y-46729984D02*
X27969325Y-46729984D01*
X27969325Y-46729984D02*
X27988372Y-46739508D01*
X27988372Y-46739508D02*
X27997896Y-46749031D01*
X27997896Y-46749031D02*
X28007420Y-46768079D01*
X28007420Y-46768079D02*
X28016944Y-46806174D01*
X28016944Y-46806174D02*
X28016944Y-46853793D01*
X28016944Y-46853793D02*
X28007420Y-46891888D01*
X28007420Y-46891888D02*
X27997896Y-46910936D01*
X27997896Y-46910936D02*
X27988372Y-46920460D01*
X27988372Y-46920460D02*
X27969325Y-46929984D01*
X27969325Y-46929984D02*
X27950277Y-46929984D01*
X27950277Y-46929984D02*
X27931229Y-46920460D01*
X27931229Y-46920460D02*
X27921706Y-46910936D01*
X27921706Y-46910936D02*
X27912182Y-46891888D01*
X27912182Y-46891888D02*
X27902658Y-46853793D01*
X27902658Y-46853793D02*
X27902658Y-46806174D01*
X27902658Y-46806174D02*
X27912182Y-46768079D01*
X27912182Y-46768079D02*
X27921706Y-46749031D01*
X27921706Y-46749031D02*
X27931229Y-46739508D01*
X27931229Y-46739508D02*
X27950277Y-46729984D01*
X28093134Y-46729984D02*
X28093134Y-46768079D01*
X28169325Y-46729984D02*
X28169325Y-46768079D01*
X28464563Y-47006174D02*
X28455039Y-46996650D01*
X28455039Y-46996650D02*
X28435991Y-46968079D01*
X28435991Y-46968079D02*
X28426468Y-46949031D01*
X28426468Y-46949031D02*
X28416944Y-46920460D01*
X28416944Y-46920460D02*
X28407420Y-46872841D01*
X28407420Y-46872841D02*
X28407420Y-46834746D01*
X28407420Y-46834746D02*
X28416944Y-46787127D01*
X28416944Y-46787127D02*
X28426468Y-46758555D01*
X28426468Y-46758555D02*
X28435991Y-46739508D01*
X28435991Y-46739508D02*
X28455039Y-46710936D01*
X28455039Y-46710936D02*
X28464563Y-46701412D01*
X28550277Y-46929984D02*
X28588372Y-46929984D01*
X28588372Y-46929984D02*
X28607420Y-46920460D01*
X28607420Y-46920460D02*
X28616944Y-46910936D01*
X28616944Y-46910936D02*
X28635991Y-46882365D01*
X28635991Y-46882365D02*
X28645515Y-46844269D01*
X28645515Y-46844269D02*
X28645515Y-46768079D01*
X28645515Y-46768079D02*
X28635991Y-46749031D01*
X28635991Y-46749031D02*
X28626468Y-46739508D01*
X28626468Y-46739508D02*
X28607420Y-46729984D01*
X28607420Y-46729984D02*
X28569325Y-46729984D01*
X28569325Y-46729984D02*
X28550277Y-46739508D01*
X28550277Y-46739508D02*
X28540753Y-46749031D01*
X28540753Y-46749031D02*
X28531229Y-46768079D01*
X28531229Y-46768079D02*
X28531229Y-46815698D01*
X28531229Y-46815698D02*
X28540753Y-46834746D01*
X28540753Y-46834746D02*
X28550277Y-46844269D01*
X28550277Y-46844269D02*
X28569325Y-46853793D01*
X28569325Y-46853793D02*
X28607420Y-46853793D01*
X28607420Y-46853793D02*
X28626468Y-46844269D01*
X28626468Y-46844269D02*
X28635991Y-46834746D01*
X28635991Y-46834746D02*
X28645515Y-46815698D01*
X28883610Y-46929984D02*
X28883610Y-46729984D01*
X28969325Y-46929984D02*
X28969325Y-46825222D01*
X28969325Y-46825222D02*
X28959801Y-46806174D01*
X28959801Y-46806174D02*
X28940753Y-46796650D01*
X28940753Y-46796650D02*
X28912182Y-46796650D01*
X28912182Y-46796650D02*
X28893134Y-46806174D01*
X28893134Y-46806174D02*
X28883610Y-46815698D01*
X29093134Y-46929984D02*
X29074087Y-46920460D01*
X29074087Y-46920460D02*
X29064563Y-46910936D01*
X29064563Y-46910936D02*
X29055039Y-46891888D01*
X29055039Y-46891888D02*
X29055039Y-46834746D01*
X29055039Y-46834746D02*
X29064563Y-46815698D01*
X29064563Y-46815698D02*
X29074087Y-46806174D01*
X29074087Y-46806174D02*
X29093134Y-46796650D01*
X29093134Y-46796650D02*
X29121706Y-46796650D01*
X29121706Y-46796650D02*
X29140753Y-46806174D01*
X29140753Y-46806174D02*
X29150277Y-46815698D01*
X29150277Y-46815698D02*
X29159801Y-46834746D01*
X29159801Y-46834746D02*
X29159801Y-46891888D01*
X29159801Y-46891888D02*
X29150277Y-46910936D01*
X29150277Y-46910936D02*
X29140753Y-46920460D01*
X29140753Y-46920460D02*
X29121706Y-46929984D01*
X29121706Y-46929984D02*
X29093134Y-46929984D01*
X29274087Y-46929984D02*
X29255039Y-46920460D01*
X29255039Y-46920460D02*
X29245515Y-46901412D01*
X29245515Y-46901412D02*
X29245515Y-46729984D01*
X29426468Y-46920460D02*
X29407420Y-46929984D01*
X29407420Y-46929984D02*
X29369325Y-46929984D01*
X29369325Y-46929984D02*
X29350277Y-46920460D01*
X29350277Y-46920460D02*
X29340753Y-46901412D01*
X29340753Y-46901412D02*
X29340753Y-46825222D01*
X29340753Y-46825222D02*
X29350277Y-46806174D01*
X29350277Y-46806174D02*
X29369325Y-46796650D01*
X29369325Y-46796650D02*
X29407420Y-46796650D01*
X29407420Y-46796650D02*
X29426468Y-46806174D01*
X29426468Y-46806174D02*
X29435991Y-46825222D01*
X29435991Y-46825222D02*
X29435991Y-46844269D01*
X29435991Y-46844269D02*
X29340753Y-46863317D01*
X29512182Y-46920460D02*
X29531230Y-46929984D01*
X29531230Y-46929984D02*
X29569325Y-46929984D01*
X29569325Y-46929984D02*
X29588372Y-46920460D01*
X29588372Y-46920460D02*
X29597896Y-46901412D01*
X29597896Y-46901412D02*
X29597896Y-46891888D01*
X29597896Y-46891888D02*
X29588372Y-46872841D01*
X29588372Y-46872841D02*
X29569325Y-46863317D01*
X29569325Y-46863317D02*
X29540753Y-46863317D01*
X29540753Y-46863317D02*
X29521706Y-46853793D01*
X29521706Y-46853793D02*
X29512182Y-46834746D01*
X29512182Y-46834746D02*
X29512182Y-46825222D01*
X29512182Y-46825222D02*
X29521706Y-46806174D01*
X29521706Y-46806174D02*
X29540753Y-46796650D01*
X29540753Y-46796650D02*
X29569325Y-46796650D01*
X29569325Y-46796650D02*
X29588372Y-46806174D01*
X29664563Y-47006174D02*
X29674087Y-46996650D01*
X29674087Y-46996650D02*
X29693134Y-46968079D01*
X29693134Y-46968079D02*
X29702658Y-46949031D01*
X29702658Y-46949031D02*
X29712182Y-46920460D01*
X29712182Y-46920460D02*
X29721706Y-46872841D01*
X29721706Y-46872841D02*
X29721706Y-46834746D01*
X29721706Y-46834746D02*
X29712182Y-46787127D01*
X29712182Y-46787127D02*
X29702658Y-46758555D01*
X29702658Y-46758555D02*
X29693134Y-46739508D01*
X29693134Y-46739508D02*
X29674087Y-46710936D01*
X29674087Y-46710936D02*
X29664563Y-46701412D01*
X30026468Y-47006174D02*
X30016944Y-46996650D01*
X30016944Y-46996650D02*
X29997896Y-46968079D01*
X29997896Y-46968079D02*
X29988372Y-46949031D01*
X29988372Y-46949031D02*
X29978849Y-46920460D01*
X29978849Y-46920460D02*
X29969325Y-46872841D01*
X29969325Y-46872841D02*
X29969325Y-46834746D01*
X29969325Y-46834746D02*
X29978849Y-46787127D01*
X29978849Y-46787127D02*
X29988372Y-46758555D01*
X29988372Y-46758555D02*
X29997896Y-46739508D01*
X29997896Y-46739508D02*
X30016944Y-46710936D01*
X30016944Y-46710936D02*
X30026468Y-46701412D01*
X30102658Y-46796650D02*
X30102658Y-46929984D01*
X30102658Y-46815698D02*
X30112182Y-46806174D01*
X30112182Y-46806174D02*
X30131230Y-46796650D01*
X30131230Y-46796650D02*
X30159801Y-46796650D01*
X30159801Y-46796650D02*
X30178849Y-46806174D01*
X30178849Y-46806174D02*
X30188372Y-46825222D01*
X30188372Y-46825222D02*
X30188372Y-46929984D01*
X30312182Y-46929984D02*
X30293134Y-46920460D01*
X30293134Y-46920460D02*
X30283611Y-46910936D01*
X30283611Y-46910936D02*
X30274087Y-46891888D01*
X30274087Y-46891888D02*
X30274087Y-46834746D01*
X30274087Y-46834746D02*
X30283611Y-46815698D01*
X30283611Y-46815698D02*
X30293134Y-46806174D01*
X30293134Y-46806174D02*
X30312182Y-46796650D01*
X30312182Y-46796650D02*
X30340753Y-46796650D01*
X30340753Y-46796650D02*
X30359801Y-46806174D01*
X30359801Y-46806174D02*
X30369325Y-46815698D01*
X30369325Y-46815698D02*
X30378849Y-46834746D01*
X30378849Y-46834746D02*
X30378849Y-46891888D01*
X30378849Y-46891888D02*
X30369325Y-46910936D01*
X30369325Y-46910936D02*
X30359801Y-46920460D01*
X30359801Y-46920460D02*
X30340753Y-46929984D01*
X30340753Y-46929984D02*
X30312182Y-46929984D01*
X30435992Y-46796650D02*
X30512182Y-46796650D01*
X30464563Y-46729984D02*
X30464563Y-46901412D01*
X30464563Y-46901412D02*
X30474087Y-46920460D01*
X30474087Y-46920460D02*
X30493134Y-46929984D01*
X30493134Y-46929984D02*
X30512182Y-46929984D01*
X30731230Y-46796650D02*
X30731230Y-46996650D01*
X30731230Y-46806174D02*
X30750277Y-46796650D01*
X30750277Y-46796650D02*
X30788373Y-46796650D01*
X30788373Y-46796650D02*
X30807420Y-46806174D01*
X30807420Y-46806174D02*
X30816944Y-46815698D01*
X30816944Y-46815698D02*
X30826468Y-46834746D01*
X30826468Y-46834746D02*
X30826468Y-46891888D01*
X30826468Y-46891888D02*
X30816944Y-46910936D01*
X30816944Y-46910936D02*
X30807420Y-46920460D01*
X30807420Y-46920460D02*
X30788373Y-46929984D01*
X30788373Y-46929984D02*
X30750277Y-46929984D01*
X30750277Y-46929984D02*
X30731230Y-46920460D01*
X30940753Y-46929984D02*
X30921706Y-46920460D01*
X30921706Y-46920460D02*
X30912182Y-46901412D01*
X30912182Y-46901412D02*
X30912182Y-46729984D01*
X31102658Y-46929984D02*
X31102658Y-46825222D01*
X31102658Y-46825222D02*
X31093134Y-46806174D01*
X31093134Y-46806174D02*
X31074087Y-46796650D01*
X31074087Y-46796650D02*
X31035992Y-46796650D01*
X31035992Y-46796650D02*
X31016944Y-46806174D01*
X31102658Y-46920460D02*
X31083611Y-46929984D01*
X31083611Y-46929984D02*
X31035992Y-46929984D01*
X31035992Y-46929984D02*
X31016944Y-46920460D01*
X31016944Y-46920460D02*
X31007420Y-46901412D01*
X31007420Y-46901412D02*
X31007420Y-46882365D01*
X31007420Y-46882365D02*
X31016944Y-46863317D01*
X31016944Y-46863317D02*
X31035992Y-46853793D01*
X31035992Y-46853793D02*
X31083611Y-46853793D01*
X31083611Y-46853793D02*
X31102658Y-46844269D01*
X31169325Y-46796650D02*
X31245515Y-46796650D01*
X31197896Y-46729984D02*
X31197896Y-46901412D01*
X31197896Y-46901412D02*
X31207420Y-46920460D01*
X31207420Y-46920460D02*
X31226468Y-46929984D01*
X31226468Y-46929984D02*
X31245515Y-46929984D01*
X31388373Y-46920460D02*
X31369325Y-46929984D01*
X31369325Y-46929984D02*
X31331230Y-46929984D01*
X31331230Y-46929984D02*
X31312182Y-46920460D01*
X31312182Y-46920460D02*
X31302658Y-46901412D01*
X31302658Y-46901412D02*
X31302658Y-46825222D01*
X31302658Y-46825222D02*
X31312182Y-46806174D01*
X31312182Y-46806174D02*
X31331230Y-46796650D01*
X31331230Y-46796650D02*
X31369325Y-46796650D01*
X31369325Y-46796650D02*
X31388373Y-46806174D01*
X31388373Y-46806174D02*
X31397896Y-46825222D01*
X31397896Y-46825222D02*
X31397896Y-46844269D01*
X31397896Y-46844269D02*
X31302658Y-46863317D01*
X31569325Y-46929984D02*
X31569325Y-46729984D01*
X31569325Y-46920460D02*
X31550277Y-46929984D01*
X31550277Y-46929984D02*
X31512182Y-46929984D01*
X31512182Y-46929984D02*
X31493134Y-46920460D01*
X31493134Y-46920460D02*
X31483611Y-46910936D01*
X31483611Y-46910936D02*
X31474087Y-46891888D01*
X31474087Y-46891888D02*
X31474087Y-46834746D01*
X31474087Y-46834746D02*
X31483611Y-46815698D01*
X31483611Y-46815698D02*
X31493134Y-46806174D01*
X31493134Y-46806174D02*
X31512182Y-46796650D01*
X31512182Y-46796650D02*
X31550277Y-46796650D01*
X31550277Y-46796650D02*
X31569325Y-46806174D01*
X31645515Y-47006174D02*
X31655039Y-46996650D01*
X31655039Y-46996650D02*
X31674087Y-46968079D01*
X31674087Y-46968079D02*
X31683611Y-46949031D01*
X31683611Y-46949031D02*
X31693134Y-46920460D01*
X31693134Y-46920460D02*
X31702658Y-46872841D01*
X31702658Y-46872841D02*
X31702658Y-46834746D01*
X31702658Y-46834746D02*
X31693134Y-46787127D01*
X31693134Y-46787127D02*
X31683611Y-46758555D01*
X31683611Y-46758555D02*
X31674087Y-46739508D01*
X31674087Y-46739508D02*
X31655039Y-46710936D01*
X31655039Y-46710936D02*
X31645515Y-46701412D01*
M02*
