M48
; DRILL file {KiCad 9.0.4} date 2025-11-09T15:05:19+1300
; FORMAT={-:-/ absolute / metric / decimal}
; #@! TF.CreationDate,2025-11-09T15:05:19+13:00
; #@! TF.GenerationSoftware,Kicad,Pcbnew,9.0.4
; #@! TF.FileFunction,Plated,1,4,PTH
FMAT,2
METRIC
; #@! TA.AperFunction,Plated,PTH,ViaDrill
T1C0.300
; #@! TA.AperFunction,Plated,PTH,ComponentDrill
T2C0.700
; #@! TA.AperFunction,Plated,PTH,ComponentDrill
T3C0.750
; #@! TA.AperFunction,Plated,PTH,ComponentDrill
T4C0.800
; #@! TA.AperFunction,Plated,PTH,ComponentDrill
T5C0.900
; #@! TA.AperFunction,Plated,PTH,ComponentDrill
T6C1.000
; #@! TA.AperFunction,Plated,PTH,ComponentDrill
T7C1.100
; #@! TA.AperFunction,Plated,PTH,ComponentDrill
T8C1.300
; #@! TA.AperFunction,Plated,PTH,ComponentDrill
T9C1.780
; #@! TA.AperFunction,Plated,PTH,ComponentDrill
T10C2.200
; #@! TA.AperFunction,Plated,PTH,ComponentDrill
T11C3.200
%
G90
G05
T1
X260.858Y-351.155
X264.287Y-351.155
X267.056Y-317.5
X267.208Y-346.761
X270.474Y-368.249
X273.71Y-385.674
X274.105Y-402.277
X275.799Y-327.445
X277.622Y-350.825
X285.238Y-337.658
X286.055Y-359.562
X289.509Y-416.052
X293.268Y-344.119
X293.827Y-303.682
X296.164Y-369.926
X297.434Y-398.475
X305.18Y-355.519
X305.18Y-378.608
X313.893Y-417.137
X315.112Y-387.401
X316.484Y-458.851
X317.652Y-368.148
X318.313Y-407.619
X318.465Y-303.225
X321.056Y-457.962
X323.85Y-457.2
X324.968Y-375.158
X325.78Y-388.569
X342.773Y-363.347
X344.238Y-363.855
X345.491Y-403.758
X346.354Y-272.288
X346.964Y-414.63
X348.551Y-365.823
X349.08Y-362.415
X349.199Y-284.124
X351.79Y-370.713
X354.398Y-352.239
X355.803Y-272.288
X356.87Y-352.196
X358.851Y-284.074
X358.953Y-406.959
X359.24Y-352.298
X361.95Y-348.031
X363.525Y-283.718
X363.677Y-361.544
X367.03Y-348.107
X368.452Y-272.339
X369.164Y-408.991
X370.789Y-362.001
X372.11Y-367.03
X372.313Y-284.226
X374.523Y-351.638
X375.361Y-361.848
X375.666Y-280.264
X376.682Y-351.663
X379.857Y-373.126
X379.933Y-272.085
X381.254Y-370.713
X386.385Y-304.851
X387.502Y-277.927
X387.909Y-265.633
X388.417Y-415.341
X400.863Y-361.645
X405.892Y-304.952
X406.146Y-368.3
X407.289Y-365.76
X409.448Y-373.38
X410.464Y-370.84
X415.29Y-402.031
X415.849Y-417.373
X421.386Y-409.956
X422.099Y-277.903
X422.486Y-267.029
X425.831Y-439.836
X425.831Y-441.198
X428.244Y-442.595
X430.022Y-439.039
X430.911Y-441.833
X430.987Y-361.594
X431.038Y-366.37
X434.137Y-380.625
X443.941Y-280.467
X444.449Y-433.07
X445.135Y-415.417
X445.135Y-423.418
X445.282Y-431.78
T2
X391.211Y-420.319
X395.63Y-406.197
X398.831Y-420.319
X403.2Y-340.563
X403.2Y-348.183
X403.25Y-406.197
X406.349Y-419.76
X407.416Y-324.663
X408.686Y-340.665
X408.686Y-348.285
X410.058Y-406.197
X413.664Y-340.563
X413.664Y-348.183
X413.969Y-419.76
X415.036Y-324.663
X417.678Y-406.197
X437.642Y-451.104
X445.262Y-451.104
T3
X323.444Y-328.371
X323.444Y-330.911
X324.714Y-329.641
T4
X395.732Y-409.499
X395.732Y-417.119
X398.272Y-409.499
X398.272Y-417.119
X399.847Y-328.371
X399.847Y-335.991
X400.812Y-409.499
X400.812Y-417.119
X401.289Y-420.218
X402.387Y-328.371
X402.387Y-335.991
X403.352Y-409.499
X403.352Y-417.119
X403.789Y-420.218
X404.927Y-328.371
X404.927Y-335.991
X405.404Y-406.197
X405.892Y-409.499
X405.892Y-417.119
X407.467Y-328.371
X407.467Y-335.991
X407.904Y-406.197
X408.432Y-409.499
X408.432Y-417.119
X410.007Y-328.371
X410.007Y-335.991
X410.972Y-409.499
X410.972Y-417.119
X412.547Y-328.371
X412.547Y-335.991
X413.512Y-409.499
X413.512Y-417.119
X415.087Y-328.371
X415.087Y-335.991
T5
X438.15Y-457.835
X440.69Y-457.835
T6
X256.39Y-282.635
X256.39Y-285.405
X256.39Y-288.175
X256.39Y-290.945
X256.39Y-293.715
X256.39Y-296.485
X256.39Y-299.255
X256.39Y-302.025
X256.39Y-304.795
X256.39Y-307.565
X256.39Y-310.335
X256.39Y-313.105
X256.39Y-344.755
X256.39Y-347.525
X256.39Y-350.295
X256.39Y-353.065
X256.39Y-355.835
X256.39Y-358.605
X256.39Y-361.375
X256.39Y-364.145
X256.39Y-366.915
X256.39Y-369.685
X256.39Y-372.455
X256.39Y-375.225
X256.39Y-407.035
X256.39Y-409.805
X256.39Y-412.575
X256.39Y-415.345
X256.39Y-418.115
X256.39Y-420.885
X256.39Y-423.655
X256.39Y-426.425
X256.39Y-429.195
X256.39Y-431.965
X256.39Y-434.735
X256.39Y-437.505
X259.23Y-281.25
X259.23Y-284.02
X259.23Y-286.79
X259.23Y-289.56
X259.23Y-292.33
X259.23Y-295.1
X259.23Y-297.87
X259.23Y-300.64
X259.23Y-303.41
X259.23Y-306.18
X259.23Y-308.95
X259.23Y-311.72
X259.23Y-314.49
X259.23Y-343.37
X259.23Y-346.14
X259.23Y-348.91
X259.23Y-351.68
X259.23Y-354.45
X259.23Y-357.22
X259.23Y-359.99
X259.23Y-362.76
X259.23Y-365.53
X259.23Y-368.3
X259.23Y-371.07
X259.23Y-373.84
X259.23Y-376.61
X259.23Y-405.65
X259.23Y-408.42
X259.23Y-411.19
X259.23Y-413.96
X259.23Y-416.73
X259.23Y-419.5
X259.23Y-422.27
X259.23Y-425.04
X259.23Y-427.81
X259.23Y-430.58
X259.23Y-433.35
X259.23Y-436.12
X259.23Y-438.89
X272.59Y-451.97
X273.975Y-454.81
X275.36Y-451.97
X276.745Y-454.81
X278.13Y-451.97
X279.515Y-454.81
X280.9Y-451.97
X282.285Y-454.81
X283.67Y-451.97
X310.032Y-320.599
X310.032Y-323.139
X310.032Y-325.679
X314.622Y-320.599
X314.622Y-323.139
X314.622Y-325.679
X318.31Y-451.97
X319.212Y-320.599
X319.212Y-323.139
X319.212Y-325.679
X319.695Y-454.81
X321.08Y-451.97
X322.465Y-454.81
X323.444Y-320.65
X323.444Y-323.19
X323.85Y-451.97
X325.235Y-454.81
X326.62Y-451.97
X328.005Y-454.81
X329.39Y-451.97
X332.689Y-276.86
X332.689Y-279.4
X332.689Y-288.61
X332.689Y-291.15
X332.74Y-265.43
X332.74Y-267.97
X335.229Y-276.86
X335.229Y-279.4
X335.229Y-288.61
X335.229Y-291.15
X335.28Y-265.43
X335.28Y-267.97
X337.769Y-276.86
X337.769Y-279.4
X337.769Y-288.61
X337.769Y-291.15
X337.82Y-265.43
X337.82Y-267.97
X340.309Y-276.86
X340.309Y-279.4
X340.309Y-288.61
X340.309Y-291.15
X340.36Y-265.43
X340.36Y-267.97
X342.849Y-276.86
X342.849Y-279.4
X342.849Y-288.61
X342.849Y-291.15
X342.9Y-265.43
X342.9Y-267.97
X345.389Y-276.86
X345.389Y-279.4
X345.389Y-288.61
X345.389Y-291.15
X345.44Y-265.43
X345.44Y-267.97
X347.929Y-276.86
X347.929Y-279.4
X347.929Y-288.61
X347.929Y-291.15
X347.98Y-265.43
X347.98Y-267.97
X350.469Y-276.86
X350.469Y-279.4
X350.469Y-288.61
X350.469Y-291.15
X350.52Y-265.43
X350.52Y-267.97
X353.009Y-276.86
X353.009Y-279.4
X353.009Y-288.61
X353.009Y-291.15
X353.06Y-265.43
X353.06Y-267.97
X355.549Y-276.86
X355.549Y-279.4
X355.549Y-288.61
X355.549Y-291.15
X355.6Y-265.43
X355.6Y-267.97
X358.089Y-276.86
X358.089Y-279.4
X358.089Y-288.61
X358.089Y-291.15
X358.14Y-265.43
X358.14Y-267.97
X360.629Y-276.86
X360.629Y-279.4
X360.629Y-288.61
X360.629Y-291.15
X360.68Y-265.43
X360.68Y-267.97
X363.169Y-276.86
X363.169Y-279.4
X363.169Y-288.61
X363.169Y-291.15
X363.22Y-265.43
X363.22Y-267.97
X365.709Y-276.86
X365.709Y-279.4
X365.709Y-288.61
X365.709Y-291.15
X365.76Y-265.43
X365.76Y-267.97
X368.249Y-276.86
X368.249Y-279.4
X368.249Y-288.61
X368.249Y-291.15
X368.3Y-265.43
X368.3Y-267.97
X370.789Y-276.86
X370.789Y-279.4
X370.789Y-288.61
X370.789Y-291.15
X370.84Y-265.43
X370.84Y-267.97
X373.329Y-276.86
X373.329Y-279.4
X373.329Y-288.61
X373.329Y-291.15
X373.38Y-265.43
X373.38Y-267.97
X394.335Y-288.61
X394.335Y-291.15
X396.875Y-288.61
X396.875Y-291.15
X399.415Y-288.61
X399.415Y-291.15
X401.955Y-288.61
X401.955Y-291.15
X404.495Y-288.61
X404.495Y-291.15
X407.035Y-288.61
X407.035Y-291.15
X409.575Y-288.61
X409.575Y-291.15
X412.115Y-288.61
X412.115Y-291.15
X413.76Y-451.97
X414.655Y-288.61
X414.655Y-291.15
X415.145Y-454.81
X416.53Y-451.97
X417.195Y-288.61
X417.195Y-291.15
X417.915Y-454.81
X419.3Y-451.97
X420.685Y-454.81
X422.07Y-451.97
X423.455Y-454.81
X424.84Y-451.97
X428.752Y-282.25
X428.752Y-284.79
X435.523Y-282.24
X436.88Y-345.44
X436.88Y-347.98
X436.88Y-350.52
X436.88Y-353.06
X436.88Y-355.6
X436.88Y-358.14
X436.88Y-360.68
X436.88Y-363.22
X436.88Y-365.76
X436.88Y-368.3
X436.88Y-370.84
X436.88Y-373.38
X436.88Y-375.92
X436.88Y-378.46
X436.88Y-381.0
X436.88Y-383.54
X436.88Y-386.08
X436.88Y-388.62
X436.88Y-391.16
X436.88Y-393.7
X436.88Y-396.24
X436.88Y-398.78
X436.88Y-401.32
X436.88Y-403.86
X436.88Y-406.4
X438.023Y-282.24
X439.42Y-345.44
X439.42Y-347.98
X439.42Y-350.52
X439.42Y-353.06
X439.42Y-355.6
X439.42Y-358.14
X439.42Y-360.68
X439.42Y-363.22
X439.42Y-365.76
X439.42Y-368.3
X439.42Y-370.84
X439.42Y-373.38
X439.42Y-375.92
X439.42Y-378.46
X439.42Y-381.0
X439.42Y-383.54
X439.42Y-386.08
X439.42Y-388.62
X439.42Y-391.16
X439.42Y-393.7
X439.42Y-396.24
X439.42Y-398.78
X439.42Y-401.32
X439.42Y-403.86
X439.42Y-406.4
X440.523Y-282.24
X442.59Y-276.098
X445.13Y-276.098
X447.929Y-345.44
X447.929Y-347.98
X447.929Y-350.52
X447.929Y-353.06
X447.929Y-355.6
X447.929Y-358.14
X447.929Y-360.68
X447.929Y-363.22
X447.929Y-365.76
X447.929Y-368.3
X447.929Y-370.84
X447.929Y-373.38
X447.929Y-375.92
X447.929Y-378.46
X447.929Y-381.0
X447.929Y-383.54
X447.929Y-386.08
X447.929Y-388.62
X447.929Y-391.16
X447.929Y-393.7
X447.929Y-396.24
X447.929Y-398.78
X447.929Y-401.32
X447.929Y-403.86
X447.929Y-406.4
X447.929Y-408.94
X447.929Y-411.48
X447.929Y-414.02
X447.929Y-416.56
X447.929Y-419.1
X447.929Y-421.64
X447.929Y-424.18
X447.929Y-426.72
X447.929Y-429.26
X447.929Y-431.8
X447.929Y-434.34
X447.929Y-436.88
X447.929Y-439.42
X447.929Y-441.96
X447.929Y-444.5
X450.469Y-345.44
X450.469Y-347.98
X450.469Y-350.52
X450.469Y-353.06
X450.469Y-355.6
X450.469Y-358.14
X450.469Y-360.68
X450.469Y-363.22
X450.469Y-365.76
X450.469Y-368.3
X450.469Y-370.84
X450.469Y-373.38
X450.469Y-375.92
X450.469Y-378.46
X450.469Y-381.0
X450.469Y-383.54
X450.469Y-386.08
X450.469Y-388.62
X450.469Y-391.16
X450.469Y-393.7
X450.469Y-396.24
X450.469Y-398.78
X450.469Y-401.32
X450.469Y-403.86
X450.469Y-406.4
X450.469Y-408.94
X450.469Y-411.48
X450.469Y-414.02
X450.469Y-416.56
X450.469Y-419.1
X450.469Y-421.64
X450.469Y-424.18
X450.469Y-426.72
X450.469Y-429.26
X450.469Y-431.8
X450.469Y-434.34
X450.469Y-436.88
X450.469Y-439.42
X450.469Y-441.96
X450.469Y-444.5
T7
X429.565Y-266.802
X429.565Y-271.302
X436.065Y-266.802
X436.065Y-271.302
T8
X433.785Y-300.975
X433.785Y-305.975
X433.785Y-312.825
X433.785Y-317.825
X433.785Y-324.675
X433.785Y-329.675
X443.785Y-303.475
X443.785Y-315.325
X443.785Y-327.175
T9
X290.195Y-290.195
X295.275Y-290.195
X300.355Y-290.195
X305.435Y-290.195
X398.145Y-266.7
X398.145Y-278.765
X403.225Y-266.7
X403.225Y-278.765
X408.305Y-266.7
X408.305Y-278.765
X413.385Y-266.7
X413.385Y-278.765
T10
X284.198Y-272.339
X294.198Y-272.339
X304.198Y-272.339
X314.198Y-272.339
X433.623Y-289.24
X442.423Y-289.24
T11
X257.81Y-274.32
X257.81Y-321.42
X257.81Y-336.44
X257.81Y-383.54
X257.81Y-398.72
X257.81Y-445.82
X265.63Y-453.39
X290.63Y-453.39
X311.35Y-453.39
X336.35Y-453.39
X406.8Y-453.39
X431.8Y-453.39
T6
X265.989Y-279.337G85X265.989Y-277.837
G05
X273.489Y-279.337G85X273.489Y-277.837
G05
T8
X270.214Y-274.887G85X269.264Y-274.887
G05
M30
