%TF.GenerationSoftware,KiCad,Pcbnew,9.0.4*%
%TF.CreationDate,2026-01-25T09:32:28+13:00*%
%TF.ProjectId,AWS_CPU_Video_Decoder,4157535f-4350-4555-9f56-6964656f5f44,rev?*%
%TF.SameCoordinates,Original*%
%TF.FileFunction,Drillmap*%
%TF.FilePolarity,Positive*%
%FSLAX45Y45*%
G04 Gerber Fmt 4.5, Leading zero omitted, Abs format (unit mm)*
G04 Created by KiCad (PCBNEW 9.0.4) date 2026-01-25 09:32:28*
%MOMM*%
%LPD*%
G01*
G04 APERTURE LIST*
%ADD10C,0.050000*%
%ADD11C,0.200000*%
%ADD12C,0.185000*%
%ADD13C,0.220000*%
%ADD14C,0.350000*%
G04 APERTURE END LIST*
D10*
X23926800Y-5181600D02*
X10985500Y-5181600D01*
X23926800Y-15138400D02*
X10985500Y-15138400D01*
X24053800Y-5308600D02*
X24053800Y-15011400D01*
X10858500Y-5308600D02*
G75*
G02*
X10985500Y-5181600I127000J0D01*
G01*
X23926800Y-5181600D02*
G75*
G02*
X24053800Y-5308600I0J-127000D01*
G01*
X11318500Y-9985000D02*
G75*
G02*
X11318500Y-10335000I0J-175000D01*
G01*
X10858500Y-15011400D02*
X10858500Y-5308600D01*
X11160500Y-9985000D02*
X11318500Y-9985000D01*
X11160500Y-10335000D02*
X11318500Y-10335000D01*
X11160500Y-10335000D02*
G75*
G02*
X11160500Y-9985000I0J175000D01*
G01*
X10985500Y-15138400D02*
G75*
G02*
X10858500Y-15011400I0J127000D01*
G01*
X24053800Y-15011400D02*
G75*
G02*
X23926800Y-15138400I-127000J0D01*
G01*
D11*
D12*
X15540000Y-12164500D02*
X15725000Y-12349500D01*
X15725000Y-12164500D02*
X15540000Y-12349500D01*
X16025000Y-12164500D02*
X16210000Y-12349500D01*
X16210000Y-12164500D02*
X16025000Y-12349500D01*
D13*
X15712500Y-12560000D02*
G75*
G02*
X15492500Y-12560000I-110000J0D01*
G01*
X15492500Y-12560000D02*
G75*
G02*
X15712500Y-12560000I110000J0D01*
G01*
X16257500Y-12560000D02*
G75*
G02*
X16037500Y-12560000I-110000J0D01*
G01*
X16037500Y-12560000D02*
G75*
G02*
X16257500Y-12560000I110000J0D01*
G01*
D14*
X11241000Y-9985000D02*
X11241000Y-10335000D01*
X11066000Y-10160000D02*
X11416000Y-10160000D01*
D11*
X11116777Y-15452384D02*
X11116777Y-15252384D01*
X11116777Y-15252384D02*
X11164396Y-15252384D01*
X11164396Y-15252384D02*
X11192967Y-15261908D01*
X11192967Y-15261908D02*
X11212015Y-15280955D01*
X11212015Y-15280955D02*
X11221539Y-15300003D01*
X11221539Y-15300003D02*
X11231062Y-15338098D01*
X11231062Y-15338098D02*
X11231062Y-15366669D01*
X11231062Y-15366669D02*
X11221539Y-15404765D01*
X11221539Y-15404765D02*
X11212015Y-15423812D01*
X11212015Y-15423812D02*
X11192967Y-15442860D01*
X11192967Y-15442860D02*
X11164396Y-15452384D01*
X11164396Y-15452384D02*
X11116777Y-15452384D01*
X11316777Y-15452384D02*
X11316777Y-15319050D01*
X11316777Y-15357146D02*
X11326301Y-15338098D01*
X11326301Y-15338098D02*
X11335824Y-15328574D01*
X11335824Y-15328574D02*
X11354872Y-15319050D01*
X11354872Y-15319050D02*
X11373920Y-15319050D01*
X11440586Y-15452384D02*
X11440586Y-15319050D01*
X11440586Y-15252384D02*
X11431062Y-15261908D01*
X11431062Y-15261908D02*
X11440586Y-15271431D01*
X11440586Y-15271431D02*
X11450110Y-15261908D01*
X11450110Y-15261908D02*
X11440586Y-15252384D01*
X11440586Y-15252384D02*
X11440586Y-15271431D01*
X11564396Y-15452384D02*
X11545348Y-15442860D01*
X11545348Y-15442860D02*
X11535824Y-15423812D01*
X11535824Y-15423812D02*
X11535824Y-15252384D01*
X11669158Y-15452384D02*
X11650110Y-15442860D01*
X11650110Y-15442860D02*
X11640586Y-15423812D01*
X11640586Y-15423812D02*
X11640586Y-15252384D01*
X11897729Y-15452384D02*
X11897729Y-15252384D01*
X11897729Y-15252384D02*
X11964396Y-15395241D01*
X11964396Y-15395241D02*
X12031062Y-15252384D01*
X12031062Y-15252384D02*
X12031062Y-15452384D01*
X12212015Y-15452384D02*
X12212015Y-15347622D01*
X12212015Y-15347622D02*
X12202491Y-15328574D01*
X12202491Y-15328574D02*
X12183443Y-15319050D01*
X12183443Y-15319050D02*
X12145348Y-15319050D01*
X12145348Y-15319050D02*
X12126301Y-15328574D01*
X12212015Y-15442860D02*
X12192967Y-15452384D01*
X12192967Y-15452384D02*
X12145348Y-15452384D01*
X12145348Y-15452384D02*
X12126301Y-15442860D01*
X12126301Y-15442860D02*
X12116777Y-15423812D01*
X12116777Y-15423812D02*
X12116777Y-15404765D01*
X12116777Y-15404765D02*
X12126301Y-15385717D01*
X12126301Y-15385717D02*
X12145348Y-15376193D01*
X12145348Y-15376193D02*
X12192967Y-15376193D01*
X12192967Y-15376193D02*
X12212015Y-15366669D01*
X12307253Y-15319050D02*
X12307253Y-15519050D01*
X12307253Y-15328574D02*
X12326301Y-15319050D01*
X12326301Y-15319050D02*
X12364396Y-15319050D01*
X12364396Y-15319050D02*
X12383443Y-15328574D01*
X12383443Y-15328574D02*
X12392967Y-15338098D01*
X12392967Y-15338098D02*
X12402491Y-15357146D01*
X12402491Y-15357146D02*
X12402491Y-15414288D01*
X12402491Y-15414288D02*
X12392967Y-15433336D01*
X12392967Y-15433336D02*
X12383443Y-15442860D01*
X12383443Y-15442860D02*
X12364396Y-15452384D01*
X12364396Y-15452384D02*
X12326301Y-15452384D01*
X12326301Y-15452384D02*
X12307253Y-15442860D01*
X12488205Y-15433336D02*
X12497729Y-15442860D01*
X12497729Y-15442860D02*
X12488205Y-15452384D01*
X12488205Y-15452384D02*
X12478682Y-15442860D01*
X12478682Y-15442860D02*
X12488205Y-15433336D01*
X12488205Y-15433336D02*
X12488205Y-15452384D01*
X12488205Y-15328574D02*
X12497729Y-15338098D01*
X12497729Y-15338098D02*
X12488205Y-15347622D01*
X12488205Y-15347622D02*
X12478682Y-15338098D01*
X12478682Y-15338098D02*
X12488205Y-15328574D01*
X12488205Y-15328574D02*
X12488205Y-15347622D01*
D12*
X10671000Y-15688400D02*
X10856000Y-15873400D01*
X10856000Y-15688400D02*
X10671000Y-15873400D01*
D11*
X11221539Y-15872384D02*
X11107253Y-15872384D01*
X11164396Y-15872384D02*
X11164396Y-15672384D01*
X11164396Y-15672384D02*
X11145348Y-15700955D01*
X11145348Y-15700955D02*
X11126301Y-15720003D01*
X11126301Y-15720003D02*
X11107253Y-15729527D01*
X11307253Y-15853336D02*
X11316777Y-15862860D01*
X11316777Y-15862860D02*
X11307253Y-15872384D01*
X11307253Y-15872384D02*
X11297729Y-15862860D01*
X11297729Y-15862860D02*
X11307253Y-15853336D01*
X11307253Y-15853336D02*
X11307253Y-15872384D01*
X11431062Y-15758098D02*
X11412015Y-15748574D01*
X11412015Y-15748574D02*
X11402491Y-15739050D01*
X11402491Y-15739050D02*
X11392967Y-15720003D01*
X11392967Y-15720003D02*
X11392967Y-15710479D01*
X11392967Y-15710479D02*
X11402491Y-15691431D01*
X11402491Y-15691431D02*
X11412015Y-15681908D01*
X11412015Y-15681908D02*
X11431062Y-15672384D01*
X11431062Y-15672384D02*
X11469158Y-15672384D01*
X11469158Y-15672384D02*
X11488205Y-15681908D01*
X11488205Y-15681908D02*
X11497729Y-15691431D01*
X11497729Y-15691431D02*
X11507253Y-15710479D01*
X11507253Y-15710479D02*
X11507253Y-15720003D01*
X11507253Y-15720003D02*
X11497729Y-15739050D01*
X11497729Y-15739050D02*
X11488205Y-15748574D01*
X11488205Y-15748574D02*
X11469158Y-15758098D01*
X11469158Y-15758098D02*
X11431062Y-15758098D01*
X11431062Y-15758098D02*
X11412015Y-15767622D01*
X11412015Y-15767622D02*
X11402491Y-15777146D01*
X11402491Y-15777146D02*
X11392967Y-15796193D01*
X11392967Y-15796193D02*
X11392967Y-15834288D01*
X11392967Y-15834288D02*
X11402491Y-15853336D01*
X11402491Y-15853336D02*
X11412015Y-15862860D01*
X11412015Y-15862860D02*
X11431062Y-15872384D01*
X11431062Y-15872384D02*
X11469158Y-15872384D01*
X11469158Y-15872384D02*
X11488205Y-15862860D01*
X11488205Y-15862860D02*
X11497729Y-15853336D01*
X11497729Y-15853336D02*
X11507253Y-15834288D01*
X11507253Y-15834288D02*
X11507253Y-15796193D01*
X11507253Y-15796193D02*
X11497729Y-15777146D01*
X11497729Y-15777146D02*
X11488205Y-15767622D01*
X11488205Y-15767622D02*
X11469158Y-15758098D01*
X11688205Y-15672384D02*
X11592967Y-15672384D01*
X11592967Y-15672384D02*
X11583443Y-15767622D01*
X11583443Y-15767622D02*
X11592967Y-15758098D01*
X11592967Y-15758098D02*
X11612015Y-15748574D01*
X11612015Y-15748574D02*
X11659634Y-15748574D01*
X11659634Y-15748574D02*
X11678682Y-15758098D01*
X11678682Y-15758098D02*
X11688205Y-15767622D01*
X11688205Y-15767622D02*
X11697729Y-15786669D01*
X11697729Y-15786669D02*
X11697729Y-15834288D01*
X11697729Y-15834288D02*
X11688205Y-15853336D01*
X11688205Y-15853336D02*
X11678682Y-15862860D01*
X11678682Y-15862860D02*
X11659634Y-15872384D01*
X11659634Y-15872384D02*
X11612015Y-15872384D01*
X11612015Y-15872384D02*
X11592967Y-15862860D01*
X11592967Y-15862860D02*
X11583443Y-15853336D01*
X11821539Y-15672384D02*
X11840586Y-15672384D01*
X11840586Y-15672384D02*
X11859634Y-15681908D01*
X11859634Y-15681908D02*
X11869158Y-15691431D01*
X11869158Y-15691431D02*
X11878682Y-15710479D01*
X11878682Y-15710479D02*
X11888205Y-15748574D01*
X11888205Y-15748574D02*
X11888205Y-15796193D01*
X11888205Y-15796193D02*
X11878682Y-15834288D01*
X11878682Y-15834288D02*
X11869158Y-15853336D01*
X11869158Y-15853336D02*
X11859634Y-15862860D01*
X11859634Y-15862860D02*
X11840586Y-15872384D01*
X11840586Y-15872384D02*
X11821539Y-15872384D01*
X11821539Y-15872384D02*
X11802491Y-15862860D01*
X11802491Y-15862860D02*
X11792967Y-15853336D01*
X11792967Y-15853336D02*
X11783443Y-15834288D01*
X11783443Y-15834288D02*
X11773920Y-15796193D01*
X11773920Y-15796193D02*
X11773920Y-15748574D01*
X11773920Y-15748574D02*
X11783443Y-15710479D01*
X11783443Y-15710479D02*
X11792967Y-15691431D01*
X11792967Y-15691431D02*
X11802491Y-15681908D01*
X11802491Y-15681908D02*
X11821539Y-15672384D01*
X11973920Y-15872384D02*
X11973920Y-15739050D01*
X11973920Y-15758098D02*
X11983443Y-15748574D01*
X11983443Y-15748574D02*
X12002491Y-15739050D01*
X12002491Y-15739050D02*
X12031063Y-15739050D01*
X12031063Y-15739050D02*
X12050110Y-15748574D01*
X12050110Y-15748574D02*
X12059634Y-15767622D01*
X12059634Y-15767622D02*
X12059634Y-15872384D01*
X12059634Y-15767622D02*
X12069158Y-15748574D01*
X12069158Y-15748574D02*
X12088205Y-15739050D01*
X12088205Y-15739050D02*
X12116777Y-15739050D01*
X12116777Y-15739050D02*
X12135824Y-15748574D01*
X12135824Y-15748574D02*
X12145348Y-15767622D01*
X12145348Y-15767622D02*
X12145348Y-15872384D01*
X12240586Y-15872384D02*
X12240586Y-15739050D01*
X12240586Y-15758098D02*
X12250110Y-15748574D01*
X12250110Y-15748574D02*
X12269158Y-15739050D01*
X12269158Y-15739050D02*
X12297729Y-15739050D01*
X12297729Y-15739050D02*
X12316777Y-15748574D01*
X12316777Y-15748574D02*
X12326301Y-15767622D01*
X12326301Y-15767622D02*
X12326301Y-15872384D01*
X12326301Y-15767622D02*
X12335824Y-15748574D01*
X12335824Y-15748574D02*
X12354872Y-15739050D01*
X12354872Y-15739050D02*
X12383443Y-15739050D01*
X12383443Y-15739050D02*
X12402491Y-15748574D01*
X12402491Y-15748574D02*
X12412015Y-15767622D01*
X12412015Y-15767622D02*
X12412015Y-15872384D01*
X12802491Y-15662860D02*
X12631063Y-15920003D01*
X13059634Y-15672384D02*
X13078682Y-15672384D01*
X13078682Y-15672384D02*
X13097729Y-15681908D01*
X13097729Y-15681908D02*
X13107253Y-15691431D01*
X13107253Y-15691431D02*
X13116777Y-15710479D01*
X13116777Y-15710479D02*
X13126301Y-15748574D01*
X13126301Y-15748574D02*
X13126301Y-15796193D01*
X13126301Y-15796193D02*
X13116777Y-15834288D01*
X13116777Y-15834288D02*
X13107253Y-15853336D01*
X13107253Y-15853336D02*
X13097729Y-15862860D01*
X13097729Y-15862860D02*
X13078682Y-15872384D01*
X13078682Y-15872384D02*
X13059634Y-15872384D01*
X13059634Y-15872384D02*
X13040586Y-15862860D01*
X13040586Y-15862860D02*
X13031063Y-15853336D01*
X13031063Y-15853336D02*
X13021539Y-15834288D01*
X13021539Y-15834288D02*
X13012015Y-15796193D01*
X13012015Y-15796193D02*
X13012015Y-15748574D01*
X13012015Y-15748574D02*
X13021539Y-15710479D01*
X13021539Y-15710479D02*
X13031063Y-15691431D01*
X13031063Y-15691431D02*
X13040586Y-15681908D01*
X13040586Y-15681908D02*
X13059634Y-15672384D01*
X13212015Y-15853336D02*
X13221539Y-15862860D01*
X13221539Y-15862860D02*
X13212015Y-15872384D01*
X13212015Y-15872384D02*
X13202491Y-15862860D01*
X13202491Y-15862860D02*
X13212015Y-15853336D01*
X13212015Y-15853336D02*
X13212015Y-15872384D01*
X13345348Y-15672384D02*
X13364396Y-15672384D01*
X13364396Y-15672384D02*
X13383444Y-15681908D01*
X13383444Y-15681908D02*
X13392967Y-15691431D01*
X13392967Y-15691431D02*
X13402491Y-15710479D01*
X13402491Y-15710479D02*
X13412015Y-15748574D01*
X13412015Y-15748574D02*
X13412015Y-15796193D01*
X13412015Y-15796193D02*
X13402491Y-15834288D01*
X13402491Y-15834288D02*
X13392967Y-15853336D01*
X13392967Y-15853336D02*
X13383444Y-15862860D01*
X13383444Y-15862860D02*
X13364396Y-15872384D01*
X13364396Y-15872384D02*
X13345348Y-15872384D01*
X13345348Y-15872384D02*
X13326301Y-15862860D01*
X13326301Y-15862860D02*
X13316777Y-15853336D01*
X13316777Y-15853336D02*
X13307253Y-15834288D01*
X13307253Y-15834288D02*
X13297729Y-15796193D01*
X13297729Y-15796193D02*
X13297729Y-15748574D01*
X13297729Y-15748574D02*
X13307253Y-15710479D01*
X13307253Y-15710479D02*
X13316777Y-15691431D01*
X13316777Y-15691431D02*
X13326301Y-15681908D01*
X13326301Y-15681908D02*
X13345348Y-15672384D01*
X13478682Y-15672384D02*
X13612015Y-15672384D01*
X13612015Y-15672384D02*
X13526301Y-15872384D01*
X13678682Y-15691431D02*
X13688206Y-15681908D01*
X13688206Y-15681908D02*
X13707253Y-15672384D01*
X13707253Y-15672384D02*
X13754872Y-15672384D01*
X13754872Y-15672384D02*
X13773920Y-15681908D01*
X13773920Y-15681908D02*
X13783444Y-15691431D01*
X13783444Y-15691431D02*
X13792967Y-15710479D01*
X13792967Y-15710479D02*
X13792967Y-15729527D01*
X13792967Y-15729527D02*
X13783444Y-15758098D01*
X13783444Y-15758098D02*
X13669158Y-15872384D01*
X13669158Y-15872384D02*
X13792967Y-15872384D01*
X13907253Y-15758098D02*
X13888206Y-15748574D01*
X13888206Y-15748574D02*
X13878682Y-15739050D01*
X13878682Y-15739050D02*
X13869158Y-15720003D01*
X13869158Y-15720003D02*
X13869158Y-15710479D01*
X13869158Y-15710479D02*
X13878682Y-15691431D01*
X13878682Y-15691431D02*
X13888206Y-15681908D01*
X13888206Y-15681908D02*
X13907253Y-15672384D01*
X13907253Y-15672384D02*
X13945348Y-15672384D01*
X13945348Y-15672384D02*
X13964396Y-15681908D01*
X13964396Y-15681908D02*
X13973920Y-15691431D01*
X13973920Y-15691431D02*
X13983444Y-15710479D01*
X13983444Y-15710479D02*
X13983444Y-15720003D01*
X13983444Y-15720003D02*
X13973920Y-15739050D01*
X13973920Y-15739050D02*
X13964396Y-15748574D01*
X13964396Y-15748574D02*
X13945348Y-15758098D01*
X13945348Y-15758098D02*
X13907253Y-15758098D01*
X13907253Y-15758098D02*
X13888206Y-15767622D01*
X13888206Y-15767622D02*
X13878682Y-15777146D01*
X13878682Y-15777146D02*
X13869158Y-15796193D01*
X13869158Y-15796193D02*
X13869158Y-15834288D01*
X13869158Y-15834288D02*
X13878682Y-15853336D01*
X13878682Y-15853336D02*
X13888206Y-15862860D01*
X13888206Y-15862860D02*
X13907253Y-15872384D01*
X13907253Y-15872384D02*
X13945348Y-15872384D01*
X13945348Y-15872384D02*
X13964396Y-15862860D01*
X13964396Y-15862860D02*
X13973920Y-15853336D01*
X13973920Y-15853336D02*
X13983444Y-15834288D01*
X13983444Y-15834288D02*
X13983444Y-15796193D01*
X13983444Y-15796193D02*
X13973920Y-15777146D01*
X13973920Y-15777146D02*
X13964396Y-15767622D01*
X13964396Y-15767622D02*
X13945348Y-15758098D01*
X14059634Y-15672384D02*
X14059634Y-15710479D01*
X14135825Y-15672384D02*
X14135825Y-15710479D01*
X14431063Y-15948574D02*
X14421539Y-15939050D01*
X14421539Y-15939050D02*
X14402491Y-15910479D01*
X14402491Y-15910479D02*
X14392968Y-15891431D01*
X14392968Y-15891431D02*
X14383444Y-15862860D01*
X14383444Y-15862860D02*
X14373920Y-15815241D01*
X14373920Y-15815241D02*
X14373920Y-15777146D01*
X14373920Y-15777146D02*
X14383444Y-15729527D01*
X14383444Y-15729527D02*
X14392968Y-15700955D01*
X14392968Y-15700955D02*
X14402491Y-15681908D01*
X14402491Y-15681908D02*
X14421539Y-15653336D01*
X14421539Y-15653336D02*
X14431063Y-15643812D01*
X14497729Y-15691431D02*
X14507253Y-15681908D01*
X14507253Y-15681908D02*
X14526301Y-15672384D01*
X14526301Y-15672384D02*
X14573920Y-15672384D01*
X14573920Y-15672384D02*
X14592968Y-15681908D01*
X14592968Y-15681908D02*
X14602491Y-15691431D01*
X14602491Y-15691431D02*
X14612015Y-15710479D01*
X14612015Y-15710479D02*
X14612015Y-15729527D01*
X14612015Y-15729527D02*
X14602491Y-15758098D01*
X14602491Y-15758098D02*
X14488206Y-15872384D01*
X14488206Y-15872384D02*
X14612015Y-15872384D01*
X14850110Y-15872384D02*
X14850110Y-15672384D01*
X14935825Y-15872384D02*
X14935825Y-15767622D01*
X14935825Y-15767622D02*
X14926301Y-15748574D01*
X14926301Y-15748574D02*
X14907253Y-15739050D01*
X14907253Y-15739050D02*
X14878682Y-15739050D01*
X14878682Y-15739050D02*
X14859634Y-15748574D01*
X14859634Y-15748574D02*
X14850110Y-15758098D01*
X15059634Y-15872384D02*
X15040587Y-15862860D01*
X15040587Y-15862860D02*
X15031063Y-15853336D01*
X15031063Y-15853336D02*
X15021539Y-15834288D01*
X15021539Y-15834288D02*
X15021539Y-15777146D01*
X15021539Y-15777146D02*
X15031063Y-15758098D01*
X15031063Y-15758098D02*
X15040587Y-15748574D01*
X15040587Y-15748574D02*
X15059634Y-15739050D01*
X15059634Y-15739050D02*
X15088206Y-15739050D01*
X15088206Y-15739050D02*
X15107253Y-15748574D01*
X15107253Y-15748574D02*
X15116777Y-15758098D01*
X15116777Y-15758098D02*
X15126301Y-15777146D01*
X15126301Y-15777146D02*
X15126301Y-15834288D01*
X15126301Y-15834288D02*
X15116777Y-15853336D01*
X15116777Y-15853336D02*
X15107253Y-15862860D01*
X15107253Y-15862860D02*
X15088206Y-15872384D01*
X15088206Y-15872384D02*
X15059634Y-15872384D01*
X15240587Y-15872384D02*
X15221539Y-15862860D01*
X15221539Y-15862860D02*
X15212015Y-15843812D01*
X15212015Y-15843812D02*
X15212015Y-15672384D01*
X15392968Y-15862860D02*
X15373920Y-15872384D01*
X15373920Y-15872384D02*
X15335825Y-15872384D01*
X15335825Y-15872384D02*
X15316777Y-15862860D01*
X15316777Y-15862860D02*
X15307253Y-15843812D01*
X15307253Y-15843812D02*
X15307253Y-15767622D01*
X15307253Y-15767622D02*
X15316777Y-15748574D01*
X15316777Y-15748574D02*
X15335825Y-15739050D01*
X15335825Y-15739050D02*
X15373920Y-15739050D01*
X15373920Y-15739050D02*
X15392968Y-15748574D01*
X15392968Y-15748574D02*
X15402491Y-15767622D01*
X15402491Y-15767622D02*
X15402491Y-15786669D01*
X15402491Y-15786669D02*
X15307253Y-15805717D01*
X15478682Y-15862860D02*
X15497730Y-15872384D01*
X15497730Y-15872384D02*
X15535825Y-15872384D01*
X15535825Y-15872384D02*
X15554872Y-15862860D01*
X15554872Y-15862860D02*
X15564396Y-15843812D01*
X15564396Y-15843812D02*
X15564396Y-15834288D01*
X15564396Y-15834288D02*
X15554872Y-15815241D01*
X15554872Y-15815241D02*
X15535825Y-15805717D01*
X15535825Y-15805717D02*
X15507253Y-15805717D01*
X15507253Y-15805717D02*
X15488206Y-15796193D01*
X15488206Y-15796193D02*
X15478682Y-15777146D01*
X15478682Y-15777146D02*
X15478682Y-15767622D01*
X15478682Y-15767622D02*
X15488206Y-15748574D01*
X15488206Y-15748574D02*
X15507253Y-15739050D01*
X15507253Y-15739050D02*
X15535825Y-15739050D01*
X15535825Y-15739050D02*
X15554872Y-15748574D01*
X15631063Y-15948574D02*
X15640587Y-15939050D01*
X15640587Y-15939050D02*
X15659634Y-15910479D01*
X15659634Y-15910479D02*
X15669158Y-15891431D01*
X15669158Y-15891431D02*
X15678682Y-15862860D01*
X15678682Y-15862860D02*
X15688206Y-15815241D01*
X15688206Y-15815241D02*
X15688206Y-15777146D01*
X15688206Y-15777146D02*
X15678682Y-15729527D01*
X15678682Y-15729527D02*
X15669158Y-15700955D01*
X15669158Y-15700955D02*
X15659634Y-15681908D01*
X15659634Y-15681908D02*
X15640587Y-15653336D01*
X15640587Y-15653336D02*
X15631063Y-15643812D01*
X15992968Y-15948574D02*
X15983444Y-15939050D01*
X15983444Y-15939050D02*
X15964396Y-15910479D01*
X15964396Y-15910479D02*
X15954872Y-15891431D01*
X15954872Y-15891431D02*
X15945349Y-15862860D01*
X15945349Y-15862860D02*
X15935825Y-15815241D01*
X15935825Y-15815241D02*
X15935825Y-15777146D01*
X15935825Y-15777146D02*
X15945349Y-15729527D01*
X15945349Y-15729527D02*
X15954872Y-15700955D01*
X15954872Y-15700955D02*
X15964396Y-15681908D01*
X15964396Y-15681908D02*
X15983444Y-15653336D01*
X15983444Y-15653336D02*
X15992968Y-15643812D01*
X16069158Y-15739050D02*
X16069158Y-15872384D01*
X16069158Y-15758098D02*
X16078682Y-15748574D01*
X16078682Y-15748574D02*
X16097730Y-15739050D01*
X16097730Y-15739050D02*
X16126301Y-15739050D01*
X16126301Y-15739050D02*
X16145349Y-15748574D01*
X16145349Y-15748574D02*
X16154872Y-15767622D01*
X16154872Y-15767622D02*
X16154872Y-15872384D01*
X16278682Y-15872384D02*
X16259634Y-15862860D01*
X16259634Y-15862860D02*
X16250111Y-15853336D01*
X16250111Y-15853336D02*
X16240587Y-15834288D01*
X16240587Y-15834288D02*
X16240587Y-15777146D01*
X16240587Y-15777146D02*
X16250111Y-15758098D01*
X16250111Y-15758098D02*
X16259634Y-15748574D01*
X16259634Y-15748574D02*
X16278682Y-15739050D01*
X16278682Y-15739050D02*
X16307253Y-15739050D01*
X16307253Y-15739050D02*
X16326301Y-15748574D01*
X16326301Y-15748574D02*
X16335825Y-15758098D01*
X16335825Y-15758098D02*
X16345349Y-15777146D01*
X16345349Y-15777146D02*
X16345349Y-15834288D01*
X16345349Y-15834288D02*
X16335825Y-15853336D01*
X16335825Y-15853336D02*
X16326301Y-15862860D01*
X16326301Y-15862860D02*
X16307253Y-15872384D01*
X16307253Y-15872384D02*
X16278682Y-15872384D01*
X16402492Y-15739050D02*
X16478682Y-15739050D01*
X16431063Y-15672384D02*
X16431063Y-15843812D01*
X16431063Y-15843812D02*
X16440587Y-15862860D01*
X16440587Y-15862860D02*
X16459634Y-15872384D01*
X16459634Y-15872384D02*
X16478682Y-15872384D01*
X16697730Y-15739050D02*
X16697730Y-15939050D01*
X16697730Y-15748574D02*
X16716777Y-15739050D01*
X16716777Y-15739050D02*
X16754873Y-15739050D01*
X16754873Y-15739050D02*
X16773920Y-15748574D01*
X16773920Y-15748574D02*
X16783444Y-15758098D01*
X16783444Y-15758098D02*
X16792968Y-15777146D01*
X16792968Y-15777146D02*
X16792968Y-15834288D01*
X16792968Y-15834288D02*
X16783444Y-15853336D01*
X16783444Y-15853336D02*
X16773920Y-15862860D01*
X16773920Y-15862860D02*
X16754873Y-15872384D01*
X16754873Y-15872384D02*
X16716777Y-15872384D01*
X16716777Y-15872384D02*
X16697730Y-15862860D01*
X16907254Y-15872384D02*
X16888206Y-15862860D01*
X16888206Y-15862860D02*
X16878682Y-15843812D01*
X16878682Y-15843812D02*
X16878682Y-15672384D01*
X17069158Y-15872384D02*
X17069158Y-15767622D01*
X17069158Y-15767622D02*
X17059635Y-15748574D01*
X17059635Y-15748574D02*
X17040587Y-15739050D01*
X17040587Y-15739050D02*
X17002492Y-15739050D01*
X17002492Y-15739050D02*
X16983444Y-15748574D01*
X17069158Y-15862860D02*
X17050111Y-15872384D01*
X17050111Y-15872384D02*
X17002492Y-15872384D01*
X17002492Y-15872384D02*
X16983444Y-15862860D01*
X16983444Y-15862860D02*
X16973920Y-15843812D01*
X16973920Y-15843812D02*
X16973920Y-15824765D01*
X16973920Y-15824765D02*
X16983444Y-15805717D01*
X16983444Y-15805717D02*
X17002492Y-15796193D01*
X17002492Y-15796193D02*
X17050111Y-15796193D01*
X17050111Y-15796193D02*
X17069158Y-15786669D01*
X17135825Y-15739050D02*
X17212015Y-15739050D01*
X17164396Y-15672384D02*
X17164396Y-15843812D01*
X17164396Y-15843812D02*
X17173920Y-15862860D01*
X17173920Y-15862860D02*
X17192968Y-15872384D01*
X17192968Y-15872384D02*
X17212015Y-15872384D01*
X17354873Y-15862860D02*
X17335825Y-15872384D01*
X17335825Y-15872384D02*
X17297730Y-15872384D01*
X17297730Y-15872384D02*
X17278682Y-15862860D01*
X17278682Y-15862860D02*
X17269158Y-15843812D01*
X17269158Y-15843812D02*
X17269158Y-15767622D01*
X17269158Y-15767622D02*
X17278682Y-15748574D01*
X17278682Y-15748574D02*
X17297730Y-15739050D01*
X17297730Y-15739050D02*
X17335825Y-15739050D01*
X17335825Y-15739050D02*
X17354873Y-15748574D01*
X17354873Y-15748574D02*
X17364396Y-15767622D01*
X17364396Y-15767622D02*
X17364396Y-15786669D01*
X17364396Y-15786669D02*
X17269158Y-15805717D01*
X17535825Y-15872384D02*
X17535825Y-15672384D01*
X17535825Y-15862860D02*
X17516777Y-15872384D01*
X17516777Y-15872384D02*
X17478682Y-15872384D01*
X17478682Y-15872384D02*
X17459635Y-15862860D01*
X17459635Y-15862860D02*
X17450111Y-15853336D01*
X17450111Y-15853336D02*
X17440587Y-15834288D01*
X17440587Y-15834288D02*
X17440587Y-15777146D01*
X17440587Y-15777146D02*
X17450111Y-15758098D01*
X17450111Y-15758098D02*
X17459635Y-15748574D01*
X17459635Y-15748574D02*
X17478682Y-15739050D01*
X17478682Y-15739050D02*
X17516777Y-15739050D01*
X17516777Y-15739050D02*
X17535825Y-15748574D01*
X17612016Y-15948574D02*
X17621539Y-15939050D01*
X17621539Y-15939050D02*
X17640587Y-15910479D01*
X17640587Y-15910479D02*
X17650111Y-15891431D01*
X17650111Y-15891431D02*
X17659635Y-15862860D01*
X17659635Y-15862860D02*
X17669158Y-15815241D01*
X17669158Y-15815241D02*
X17669158Y-15777146D01*
X17669158Y-15777146D02*
X17659635Y-15729527D01*
X17659635Y-15729527D02*
X17650111Y-15700955D01*
X17650111Y-15700955D02*
X17640587Y-15681908D01*
X17640587Y-15681908D02*
X17621539Y-15653336D01*
X17621539Y-15653336D02*
X17612016Y-15643812D01*
X10856000Y-16085900D02*
G75*
G02*
X10656000Y-16085900I-100000J0D01*
G01*
X10656000Y-16085900D02*
G75*
G02*
X10856000Y-16085900I100000J0D01*
G01*
X11107253Y-15996431D02*
X11116777Y-15986908D01*
X11116777Y-15986908D02*
X11135824Y-15977384D01*
X11135824Y-15977384D02*
X11183444Y-15977384D01*
X11183444Y-15977384D02*
X11202491Y-15986908D01*
X11202491Y-15986908D02*
X11212015Y-15996431D01*
X11212015Y-15996431D02*
X11221539Y-16015479D01*
X11221539Y-16015479D02*
X11221539Y-16034527D01*
X11221539Y-16034527D02*
X11212015Y-16063098D01*
X11212015Y-16063098D02*
X11097729Y-16177384D01*
X11097729Y-16177384D02*
X11221539Y-16177384D01*
X11307253Y-16158336D02*
X11316777Y-16167860D01*
X11316777Y-16167860D02*
X11307253Y-16177384D01*
X11307253Y-16177384D02*
X11297729Y-16167860D01*
X11297729Y-16167860D02*
X11307253Y-16158336D01*
X11307253Y-16158336D02*
X11307253Y-16177384D01*
X11392967Y-15996431D02*
X11402491Y-15986908D01*
X11402491Y-15986908D02*
X11421539Y-15977384D01*
X11421539Y-15977384D02*
X11469158Y-15977384D01*
X11469158Y-15977384D02*
X11488205Y-15986908D01*
X11488205Y-15986908D02*
X11497729Y-15996431D01*
X11497729Y-15996431D02*
X11507253Y-16015479D01*
X11507253Y-16015479D02*
X11507253Y-16034527D01*
X11507253Y-16034527D02*
X11497729Y-16063098D01*
X11497729Y-16063098D02*
X11383443Y-16177384D01*
X11383443Y-16177384D02*
X11507253Y-16177384D01*
X11631062Y-15977384D02*
X11650110Y-15977384D01*
X11650110Y-15977384D02*
X11669158Y-15986908D01*
X11669158Y-15986908D02*
X11678682Y-15996431D01*
X11678682Y-15996431D02*
X11688205Y-16015479D01*
X11688205Y-16015479D02*
X11697729Y-16053574D01*
X11697729Y-16053574D02*
X11697729Y-16101193D01*
X11697729Y-16101193D02*
X11688205Y-16139288D01*
X11688205Y-16139288D02*
X11678682Y-16158336D01*
X11678682Y-16158336D02*
X11669158Y-16167860D01*
X11669158Y-16167860D02*
X11650110Y-16177384D01*
X11650110Y-16177384D02*
X11631062Y-16177384D01*
X11631062Y-16177384D02*
X11612015Y-16167860D01*
X11612015Y-16167860D02*
X11602491Y-16158336D01*
X11602491Y-16158336D02*
X11592967Y-16139288D01*
X11592967Y-16139288D02*
X11583443Y-16101193D01*
X11583443Y-16101193D02*
X11583443Y-16053574D01*
X11583443Y-16053574D02*
X11592967Y-16015479D01*
X11592967Y-16015479D02*
X11602491Y-15996431D01*
X11602491Y-15996431D02*
X11612015Y-15986908D01*
X11612015Y-15986908D02*
X11631062Y-15977384D01*
X11821539Y-15977384D02*
X11840586Y-15977384D01*
X11840586Y-15977384D02*
X11859634Y-15986908D01*
X11859634Y-15986908D02*
X11869158Y-15996431D01*
X11869158Y-15996431D02*
X11878682Y-16015479D01*
X11878682Y-16015479D02*
X11888205Y-16053574D01*
X11888205Y-16053574D02*
X11888205Y-16101193D01*
X11888205Y-16101193D02*
X11878682Y-16139288D01*
X11878682Y-16139288D02*
X11869158Y-16158336D01*
X11869158Y-16158336D02*
X11859634Y-16167860D01*
X11859634Y-16167860D02*
X11840586Y-16177384D01*
X11840586Y-16177384D02*
X11821539Y-16177384D01*
X11821539Y-16177384D02*
X11802491Y-16167860D01*
X11802491Y-16167860D02*
X11792967Y-16158336D01*
X11792967Y-16158336D02*
X11783443Y-16139288D01*
X11783443Y-16139288D02*
X11773920Y-16101193D01*
X11773920Y-16101193D02*
X11773920Y-16053574D01*
X11773920Y-16053574D02*
X11783443Y-16015479D01*
X11783443Y-16015479D02*
X11792967Y-15996431D01*
X11792967Y-15996431D02*
X11802491Y-15986908D01*
X11802491Y-15986908D02*
X11821539Y-15977384D01*
X11973920Y-16177384D02*
X11973920Y-16044050D01*
X11973920Y-16063098D02*
X11983443Y-16053574D01*
X11983443Y-16053574D02*
X12002491Y-16044050D01*
X12002491Y-16044050D02*
X12031063Y-16044050D01*
X12031063Y-16044050D02*
X12050110Y-16053574D01*
X12050110Y-16053574D02*
X12059634Y-16072622D01*
X12059634Y-16072622D02*
X12059634Y-16177384D01*
X12059634Y-16072622D02*
X12069158Y-16053574D01*
X12069158Y-16053574D02*
X12088205Y-16044050D01*
X12088205Y-16044050D02*
X12116777Y-16044050D01*
X12116777Y-16044050D02*
X12135824Y-16053574D01*
X12135824Y-16053574D02*
X12145348Y-16072622D01*
X12145348Y-16072622D02*
X12145348Y-16177384D01*
X12240586Y-16177384D02*
X12240586Y-16044050D01*
X12240586Y-16063098D02*
X12250110Y-16053574D01*
X12250110Y-16053574D02*
X12269158Y-16044050D01*
X12269158Y-16044050D02*
X12297729Y-16044050D01*
X12297729Y-16044050D02*
X12316777Y-16053574D01*
X12316777Y-16053574D02*
X12326301Y-16072622D01*
X12326301Y-16072622D02*
X12326301Y-16177384D01*
X12326301Y-16072622D02*
X12335824Y-16053574D01*
X12335824Y-16053574D02*
X12354872Y-16044050D01*
X12354872Y-16044050D02*
X12383443Y-16044050D01*
X12383443Y-16044050D02*
X12402491Y-16053574D01*
X12402491Y-16053574D02*
X12412015Y-16072622D01*
X12412015Y-16072622D02*
X12412015Y-16177384D01*
X12802491Y-15967860D02*
X12631063Y-16225003D01*
X13059634Y-15977384D02*
X13078682Y-15977384D01*
X13078682Y-15977384D02*
X13097729Y-15986908D01*
X13097729Y-15986908D02*
X13107253Y-15996431D01*
X13107253Y-15996431D02*
X13116777Y-16015479D01*
X13116777Y-16015479D02*
X13126301Y-16053574D01*
X13126301Y-16053574D02*
X13126301Y-16101193D01*
X13126301Y-16101193D02*
X13116777Y-16139288D01*
X13116777Y-16139288D02*
X13107253Y-16158336D01*
X13107253Y-16158336D02*
X13097729Y-16167860D01*
X13097729Y-16167860D02*
X13078682Y-16177384D01*
X13078682Y-16177384D02*
X13059634Y-16177384D01*
X13059634Y-16177384D02*
X13040586Y-16167860D01*
X13040586Y-16167860D02*
X13031063Y-16158336D01*
X13031063Y-16158336D02*
X13021539Y-16139288D01*
X13021539Y-16139288D02*
X13012015Y-16101193D01*
X13012015Y-16101193D02*
X13012015Y-16053574D01*
X13012015Y-16053574D02*
X13021539Y-16015479D01*
X13021539Y-16015479D02*
X13031063Y-15996431D01*
X13031063Y-15996431D02*
X13040586Y-15986908D01*
X13040586Y-15986908D02*
X13059634Y-15977384D01*
X13212015Y-16158336D02*
X13221539Y-16167860D01*
X13221539Y-16167860D02*
X13212015Y-16177384D01*
X13212015Y-16177384D02*
X13202491Y-16167860D01*
X13202491Y-16167860D02*
X13212015Y-16158336D01*
X13212015Y-16158336D02*
X13212015Y-16177384D01*
X13345348Y-15977384D02*
X13364396Y-15977384D01*
X13364396Y-15977384D02*
X13383444Y-15986908D01*
X13383444Y-15986908D02*
X13392967Y-15996431D01*
X13392967Y-15996431D02*
X13402491Y-16015479D01*
X13402491Y-16015479D02*
X13412015Y-16053574D01*
X13412015Y-16053574D02*
X13412015Y-16101193D01*
X13412015Y-16101193D02*
X13402491Y-16139288D01*
X13402491Y-16139288D02*
X13392967Y-16158336D01*
X13392967Y-16158336D02*
X13383444Y-16167860D01*
X13383444Y-16167860D02*
X13364396Y-16177384D01*
X13364396Y-16177384D02*
X13345348Y-16177384D01*
X13345348Y-16177384D02*
X13326301Y-16167860D01*
X13326301Y-16167860D02*
X13316777Y-16158336D01*
X13316777Y-16158336D02*
X13307253Y-16139288D01*
X13307253Y-16139288D02*
X13297729Y-16101193D01*
X13297729Y-16101193D02*
X13297729Y-16053574D01*
X13297729Y-16053574D02*
X13307253Y-16015479D01*
X13307253Y-16015479D02*
X13316777Y-15996431D01*
X13316777Y-15996431D02*
X13326301Y-15986908D01*
X13326301Y-15986908D02*
X13345348Y-15977384D01*
X13526301Y-16063098D02*
X13507253Y-16053574D01*
X13507253Y-16053574D02*
X13497729Y-16044050D01*
X13497729Y-16044050D02*
X13488206Y-16025003D01*
X13488206Y-16025003D02*
X13488206Y-16015479D01*
X13488206Y-16015479D02*
X13497729Y-15996431D01*
X13497729Y-15996431D02*
X13507253Y-15986908D01*
X13507253Y-15986908D02*
X13526301Y-15977384D01*
X13526301Y-15977384D02*
X13564396Y-15977384D01*
X13564396Y-15977384D02*
X13583444Y-15986908D01*
X13583444Y-15986908D02*
X13592967Y-15996431D01*
X13592967Y-15996431D02*
X13602491Y-16015479D01*
X13602491Y-16015479D02*
X13602491Y-16025003D01*
X13602491Y-16025003D02*
X13592967Y-16044050D01*
X13592967Y-16044050D02*
X13583444Y-16053574D01*
X13583444Y-16053574D02*
X13564396Y-16063098D01*
X13564396Y-16063098D02*
X13526301Y-16063098D01*
X13526301Y-16063098D02*
X13507253Y-16072622D01*
X13507253Y-16072622D02*
X13497729Y-16082146D01*
X13497729Y-16082146D02*
X13488206Y-16101193D01*
X13488206Y-16101193D02*
X13488206Y-16139288D01*
X13488206Y-16139288D02*
X13497729Y-16158336D01*
X13497729Y-16158336D02*
X13507253Y-16167860D01*
X13507253Y-16167860D02*
X13526301Y-16177384D01*
X13526301Y-16177384D02*
X13564396Y-16177384D01*
X13564396Y-16177384D02*
X13583444Y-16167860D01*
X13583444Y-16167860D02*
X13592967Y-16158336D01*
X13592967Y-16158336D02*
X13602491Y-16139288D01*
X13602491Y-16139288D02*
X13602491Y-16101193D01*
X13602491Y-16101193D02*
X13592967Y-16082146D01*
X13592967Y-16082146D02*
X13583444Y-16072622D01*
X13583444Y-16072622D02*
X13564396Y-16063098D01*
X13773920Y-15977384D02*
X13735825Y-15977384D01*
X13735825Y-15977384D02*
X13716777Y-15986908D01*
X13716777Y-15986908D02*
X13707253Y-15996431D01*
X13707253Y-15996431D02*
X13688206Y-16025003D01*
X13688206Y-16025003D02*
X13678682Y-16063098D01*
X13678682Y-16063098D02*
X13678682Y-16139288D01*
X13678682Y-16139288D02*
X13688206Y-16158336D01*
X13688206Y-16158336D02*
X13697729Y-16167860D01*
X13697729Y-16167860D02*
X13716777Y-16177384D01*
X13716777Y-16177384D02*
X13754872Y-16177384D01*
X13754872Y-16177384D02*
X13773920Y-16167860D01*
X13773920Y-16167860D02*
X13783444Y-16158336D01*
X13783444Y-16158336D02*
X13792967Y-16139288D01*
X13792967Y-16139288D02*
X13792967Y-16091669D01*
X13792967Y-16091669D02*
X13783444Y-16072622D01*
X13783444Y-16072622D02*
X13773920Y-16063098D01*
X13773920Y-16063098D02*
X13754872Y-16053574D01*
X13754872Y-16053574D02*
X13716777Y-16053574D01*
X13716777Y-16053574D02*
X13697729Y-16063098D01*
X13697729Y-16063098D02*
X13688206Y-16072622D01*
X13688206Y-16072622D02*
X13678682Y-16091669D01*
X13964396Y-15977384D02*
X13926301Y-15977384D01*
X13926301Y-15977384D02*
X13907253Y-15986908D01*
X13907253Y-15986908D02*
X13897729Y-15996431D01*
X13897729Y-15996431D02*
X13878682Y-16025003D01*
X13878682Y-16025003D02*
X13869158Y-16063098D01*
X13869158Y-16063098D02*
X13869158Y-16139288D01*
X13869158Y-16139288D02*
X13878682Y-16158336D01*
X13878682Y-16158336D02*
X13888206Y-16167860D01*
X13888206Y-16167860D02*
X13907253Y-16177384D01*
X13907253Y-16177384D02*
X13945348Y-16177384D01*
X13945348Y-16177384D02*
X13964396Y-16167860D01*
X13964396Y-16167860D02*
X13973920Y-16158336D01*
X13973920Y-16158336D02*
X13983444Y-16139288D01*
X13983444Y-16139288D02*
X13983444Y-16091669D01*
X13983444Y-16091669D02*
X13973920Y-16072622D01*
X13973920Y-16072622D02*
X13964396Y-16063098D01*
X13964396Y-16063098D02*
X13945348Y-16053574D01*
X13945348Y-16053574D02*
X13907253Y-16053574D01*
X13907253Y-16053574D02*
X13888206Y-16063098D01*
X13888206Y-16063098D02*
X13878682Y-16072622D01*
X13878682Y-16072622D02*
X13869158Y-16091669D01*
X14059634Y-15977384D02*
X14059634Y-16015479D01*
X14135825Y-15977384D02*
X14135825Y-16015479D01*
X14431063Y-16253574D02*
X14421539Y-16244050D01*
X14421539Y-16244050D02*
X14402491Y-16215479D01*
X14402491Y-16215479D02*
X14392968Y-16196431D01*
X14392968Y-16196431D02*
X14383444Y-16167860D01*
X14383444Y-16167860D02*
X14373920Y-16120241D01*
X14373920Y-16120241D02*
X14373920Y-16082146D01*
X14373920Y-16082146D02*
X14383444Y-16034527D01*
X14383444Y-16034527D02*
X14392968Y-16005955D01*
X14392968Y-16005955D02*
X14402491Y-15986908D01*
X14402491Y-15986908D02*
X14421539Y-15958336D01*
X14421539Y-15958336D02*
X14431063Y-15948812D01*
X14497729Y-15996431D02*
X14507253Y-15986908D01*
X14507253Y-15986908D02*
X14526301Y-15977384D01*
X14526301Y-15977384D02*
X14573920Y-15977384D01*
X14573920Y-15977384D02*
X14592968Y-15986908D01*
X14592968Y-15986908D02*
X14602491Y-15996431D01*
X14602491Y-15996431D02*
X14612015Y-16015479D01*
X14612015Y-16015479D02*
X14612015Y-16034527D01*
X14612015Y-16034527D02*
X14602491Y-16063098D01*
X14602491Y-16063098D02*
X14488206Y-16177384D01*
X14488206Y-16177384D02*
X14612015Y-16177384D01*
X14850110Y-16177384D02*
X14850110Y-15977384D01*
X14935825Y-16177384D02*
X14935825Y-16072622D01*
X14935825Y-16072622D02*
X14926301Y-16053574D01*
X14926301Y-16053574D02*
X14907253Y-16044050D01*
X14907253Y-16044050D02*
X14878682Y-16044050D01*
X14878682Y-16044050D02*
X14859634Y-16053574D01*
X14859634Y-16053574D02*
X14850110Y-16063098D01*
X15059634Y-16177384D02*
X15040587Y-16167860D01*
X15040587Y-16167860D02*
X15031063Y-16158336D01*
X15031063Y-16158336D02*
X15021539Y-16139288D01*
X15021539Y-16139288D02*
X15021539Y-16082146D01*
X15021539Y-16082146D02*
X15031063Y-16063098D01*
X15031063Y-16063098D02*
X15040587Y-16053574D01*
X15040587Y-16053574D02*
X15059634Y-16044050D01*
X15059634Y-16044050D02*
X15088206Y-16044050D01*
X15088206Y-16044050D02*
X15107253Y-16053574D01*
X15107253Y-16053574D02*
X15116777Y-16063098D01*
X15116777Y-16063098D02*
X15126301Y-16082146D01*
X15126301Y-16082146D02*
X15126301Y-16139288D01*
X15126301Y-16139288D02*
X15116777Y-16158336D01*
X15116777Y-16158336D02*
X15107253Y-16167860D01*
X15107253Y-16167860D02*
X15088206Y-16177384D01*
X15088206Y-16177384D02*
X15059634Y-16177384D01*
X15240587Y-16177384D02*
X15221539Y-16167860D01*
X15221539Y-16167860D02*
X15212015Y-16148812D01*
X15212015Y-16148812D02*
X15212015Y-15977384D01*
X15392968Y-16167860D02*
X15373920Y-16177384D01*
X15373920Y-16177384D02*
X15335825Y-16177384D01*
X15335825Y-16177384D02*
X15316777Y-16167860D01*
X15316777Y-16167860D02*
X15307253Y-16148812D01*
X15307253Y-16148812D02*
X15307253Y-16072622D01*
X15307253Y-16072622D02*
X15316777Y-16053574D01*
X15316777Y-16053574D02*
X15335825Y-16044050D01*
X15335825Y-16044050D02*
X15373920Y-16044050D01*
X15373920Y-16044050D02*
X15392968Y-16053574D01*
X15392968Y-16053574D02*
X15402491Y-16072622D01*
X15402491Y-16072622D02*
X15402491Y-16091669D01*
X15402491Y-16091669D02*
X15307253Y-16110717D01*
X15478682Y-16167860D02*
X15497730Y-16177384D01*
X15497730Y-16177384D02*
X15535825Y-16177384D01*
X15535825Y-16177384D02*
X15554872Y-16167860D01*
X15554872Y-16167860D02*
X15564396Y-16148812D01*
X15564396Y-16148812D02*
X15564396Y-16139288D01*
X15564396Y-16139288D02*
X15554872Y-16120241D01*
X15554872Y-16120241D02*
X15535825Y-16110717D01*
X15535825Y-16110717D02*
X15507253Y-16110717D01*
X15507253Y-16110717D02*
X15488206Y-16101193D01*
X15488206Y-16101193D02*
X15478682Y-16082146D01*
X15478682Y-16082146D02*
X15478682Y-16072622D01*
X15478682Y-16072622D02*
X15488206Y-16053574D01*
X15488206Y-16053574D02*
X15507253Y-16044050D01*
X15507253Y-16044050D02*
X15535825Y-16044050D01*
X15535825Y-16044050D02*
X15554872Y-16053574D01*
X15631063Y-16253574D02*
X15640587Y-16244050D01*
X15640587Y-16244050D02*
X15659634Y-16215479D01*
X15659634Y-16215479D02*
X15669158Y-16196431D01*
X15669158Y-16196431D02*
X15678682Y-16167860D01*
X15678682Y-16167860D02*
X15688206Y-16120241D01*
X15688206Y-16120241D02*
X15688206Y-16082146D01*
X15688206Y-16082146D02*
X15678682Y-16034527D01*
X15678682Y-16034527D02*
X15669158Y-16005955D01*
X15669158Y-16005955D02*
X15659634Y-15986908D01*
X15659634Y-15986908D02*
X15640587Y-15958336D01*
X15640587Y-15958336D02*
X15631063Y-15948812D01*
X15992968Y-16253574D02*
X15983444Y-16244050D01*
X15983444Y-16244050D02*
X15964396Y-16215479D01*
X15964396Y-16215479D02*
X15954872Y-16196431D01*
X15954872Y-16196431D02*
X15945349Y-16167860D01*
X15945349Y-16167860D02*
X15935825Y-16120241D01*
X15935825Y-16120241D02*
X15935825Y-16082146D01*
X15935825Y-16082146D02*
X15945349Y-16034527D01*
X15945349Y-16034527D02*
X15954872Y-16005955D01*
X15954872Y-16005955D02*
X15964396Y-15986908D01*
X15964396Y-15986908D02*
X15983444Y-15958336D01*
X15983444Y-15958336D02*
X15992968Y-15948812D01*
X16069158Y-16044050D02*
X16069158Y-16177384D01*
X16069158Y-16063098D02*
X16078682Y-16053574D01*
X16078682Y-16053574D02*
X16097730Y-16044050D01*
X16097730Y-16044050D02*
X16126301Y-16044050D01*
X16126301Y-16044050D02*
X16145349Y-16053574D01*
X16145349Y-16053574D02*
X16154872Y-16072622D01*
X16154872Y-16072622D02*
X16154872Y-16177384D01*
X16278682Y-16177384D02*
X16259634Y-16167860D01*
X16259634Y-16167860D02*
X16250111Y-16158336D01*
X16250111Y-16158336D02*
X16240587Y-16139288D01*
X16240587Y-16139288D02*
X16240587Y-16082146D01*
X16240587Y-16082146D02*
X16250111Y-16063098D01*
X16250111Y-16063098D02*
X16259634Y-16053574D01*
X16259634Y-16053574D02*
X16278682Y-16044050D01*
X16278682Y-16044050D02*
X16307253Y-16044050D01*
X16307253Y-16044050D02*
X16326301Y-16053574D01*
X16326301Y-16053574D02*
X16335825Y-16063098D01*
X16335825Y-16063098D02*
X16345349Y-16082146D01*
X16345349Y-16082146D02*
X16345349Y-16139288D01*
X16345349Y-16139288D02*
X16335825Y-16158336D01*
X16335825Y-16158336D02*
X16326301Y-16167860D01*
X16326301Y-16167860D02*
X16307253Y-16177384D01*
X16307253Y-16177384D02*
X16278682Y-16177384D01*
X16402492Y-16044050D02*
X16478682Y-16044050D01*
X16431063Y-15977384D02*
X16431063Y-16148812D01*
X16431063Y-16148812D02*
X16440587Y-16167860D01*
X16440587Y-16167860D02*
X16459634Y-16177384D01*
X16459634Y-16177384D02*
X16478682Y-16177384D01*
X16697730Y-16044050D02*
X16697730Y-16244050D01*
X16697730Y-16053574D02*
X16716777Y-16044050D01*
X16716777Y-16044050D02*
X16754873Y-16044050D01*
X16754873Y-16044050D02*
X16773920Y-16053574D01*
X16773920Y-16053574D02*
X16783444Y-16063098D01*
X16783444Y-16063098D02*
X16792968Y-16082146D01*
X16792968Y-16082146D02*
X16792968Y-16139288D01*
X16792968Y-16139288D02*
X16783444Y-16158336D01*
X16783444Y-16158336D02*
X16773920Y-16167860D01*
X16773920Y-16167860D02*
X16754873Y-16177384D01*
X16754873Y-16177384D02*
X16716777Y-16177384D01*
X16716777Y-16177384D02*
X16697730Y-16167860D01*
X16907254Y-16177384D02*
X16888206Y-16167860D01*
X16888206Y-16167860D02*
X16878682Y-16148812D01*
X16878682Y-16148812D02*
X16878682Y-15977384D01*
X17069158Y-16177384D02*
X17069158Y-16072622D01*
X17069158Y-16072622D02*
X17059635Y-16053574D01*
X17059635Y-16053574D02*
X17040587Y-16044050D01*
X17040587Y-16044050D02*
X17002492Y-16044050D01*
X17002492Y-16044050D02*
X16983444Y-16053574D01*
X17069158Y-16167860D02*
X17050111Y-16177384D01*
X17050111Y-16177384D02*
X17002492Y-16177384D01*
X17002492Y-16177384D02*
X16983444Y-16167860D01*
X16983444Y-16167860D02*
X16973920Y-16148812D01*
X16973920Y-16148812D02*
X16973920Y-16129765D01*
X16973920Y-16129765D02*
X16983444Y-16110717D01*
X16983444Y-16110717D02*
X17002492Y-16101193D01*
X17002492Y-16101193D02*
X17050111Y-16101193D01*
X17050111Y-16101193D02*
X17069158Y-16091669D01*
X17135825Y-16044050D02*
X17212015Y-16044050D01*
X17164396Y-15977384D02*
X17164396Y-16148812D01*
X17164396Y-16148812D02*
X17173920Y-16167860D01*
X17173920Y-16167860D02*
X17192968Y-16177384D01*
X17192968Y-16177384D02*
X17212015Y-16177384D01*
X17354873Y-16167860D02*
X17335825Y-16177384D01*
X17335825Y-16177384D02*
X17297730Y-16177384D01*
X17297730Y-16177384D02*
X17278682Y-16167860D01*
X17278682Y-16167860D02*
X17269158Y-16148812D01*
X17269158Y-16148812D02*
X17269158Y-16072622D01*
X17269158Y-16072622D02*
X17278682Y-16053574D01*
X17278682Y-16053574D02*
X17297730Y-16044050D01*
X17297730Y-16044050D02*
X17335825Y-16044050D01*
X17335825Y-16044050D02*
X17354873Y-16053574D01*
X17354873Y-16053574D02*
X17364396Y-16072622D01*
X17364396Y-16072622D02*
X17364396Y-16091669D01*
X17364396Y-16091669D02*
X17269158Y-16110717D01*
X17535825Y-16177384D02*
X17535825Y-15977384D01*
X17535825Y-16167860D02*
X17516777Y-16177384D01*
X17516777Y-16177384D02*
X17478682Y-16177384D01*
X17478682Y-16177384D02*
X17459635Y-16167860D01*
X17459635Y-16167860D02*
X17450111Y-16158336D01*
X17450111Y-16158336D02*
X17440587Y-16139288D01*
X17440587Y-16139288D02*
X17440587Y-16082146D01*
X17440587Y-16082146D02*
X17450111Y-16063098D01*
X17450111Y-16063098D02*
X17459635Y-16053574D01*
X17459635Y-16053574D02*
X17478682Y-16044050D01*
X17478682Y-16044050D02*
X17516777Y-16044050D01*
X17516777Y-16044050D02*
X17535825Y-16053574D01*
X17612016Y-16253574D02*
X17621539Y-16244050D01*
X17621539Y-16244050D02*
X17640587Y-16215479D01*
X17640587Y-16215479D02*
X17650111Y-16196431D01*
X17650111Y-16196431D02*
X17659635Y-16167860D01*
X17659635Y-16167860D02*
X17669158Y-16120241D01*
X17669158Y-16120241D02*
X17669158Y-16082146D01*
X17669158Y-16082146D02*
X17659635Y-16034527D01*
X17659635Y-16034527D02*
X17650111Y-16005955D01*
X17650111Y-16005955D02*
X17640587Y-15986908D01*
X17640587Y-15986908D02*
X17621539Y-15958336D01*
X17621539Y-15958336D02*
X17612016Y-15948812D01*
X10756000Y-16305900D02*
X10756000Y-16505900D01*
X10656000Y-16405900D02*
X10856000Y-16405900D01*
X11097729Y-16297384D02*
X11221539Y-16297384D01*
X11221539Y-16297384D02*
X11154872Y-16373574D01*
X11154872Y-16373574D02*
X11183444Y-16373574D01*
X11183444Y-16373574D02*
X11202491Y-16383098D01*
X11202491Y-16383098D02*
X11212015Y-16392622D01*
X11212015Y-16392622D02*
X11221539Y-16411669D01*
X11221539Y-16411669D02*
X11221539Y-16459288D01*
X11221539Y-16459288D02*
X11212015Y-16478336D01*
X11212015Y-16478336D02*
X11202491Y-16487860D01*
X11202491Y-16487860D02*
X11183444Y-16497384D01*
X11183444Y-16497384D02*
X11126301Y-16497384D01*
X11126301Y-16497384D02*
X11107253Y-16487860D01*
X11107253Y-16487860D02*
X11097729Y-16478336D01*
X11307253Y-16478336D02*
X11316777Y-16487860D01*
X11316777Y-16487860D02*
X11307253Y-16497384D01*
X11307253Y-16497384D02*
X11297729Y-16487860D01*
X11297729Y-16487860D02*
X11307253Y-16478336D01*
X11307253Y-16478336D02*
X11307253Y-16497384D01*
X11497729Y-16297384D02*
X11402491Y-16297384D01*
X11402491Y-16297384D02*
X11392967Y-16392622D01*
X11392967Y-16392622D02*
X11402491Y-16383098D01*
X11402491Y-16383098D02*
X11421539Y-16373574D01*
X11421539Y-16373574D02*
X11469158Y-16373574D01*
X11469158Y-16373574D02*
X11488205Y-16383098D01*
X11488205Y-16383098D02*
X11497729Y-16392622D01*
X11497729Y-16392622D02*
X11507253Y-16411669D01*
X11507253Y-16411669D02*
X11507253Y-16459288D01*
X11507253Y-16459288D02*
X11497729Y-16478336D01*
X11497729Y-16478336D02*
X11488205Y-16487860D01*
X11488205Y-16487860D02*
X11469158Y-16497384D01*
X11469158Y-16497384D02*
X11421539Y-16497384D01*
X11421539Y-16497384D02*
X11402491Y-16487860D01*
X11402491Y-16487860D02*
X11392967Y-16478336D01*
X11631062Y-16297384D02*
X11650110Y-16297384D01*
X11650110Y-16297384D02*
X11669158Y-16306908D01*
X11669158Y-16306908D02*
X11678682Y-16316431D01*
X11678682Y-16316431D02*
X11688205Y-16335479D01*
X11688205Y-16335479D02*
X11697729Y-16373574D01*
X11697729Y-16373574D02*
X11697729Y-16421193D01*
X11697729Y-16421193D02*
X11688205Y-16459288D01*
X11688205Y-16459288D02*
X11678682Y-16478336D01*
X11678682Y-16478336D02*
X11669158Y-16487860D01*
X11669158Y-16487860D02*
X11650110Y-16497384D01*
X11650110Y-16497384D02*
X11631062Y-16497384D01*
X11631062Y-16497384D02*
X11612015Y-16487860D01*
X11612015Y-16487860D02*
X11602491Y-16478336D01*
X11602491Y-16478336D02*
X11592967Y-16459288D01*
X11592967Y-16459288D02*
X11583443Y-16421193D01*
X11583443Y-16421193D02*
X11583443Y-16373574D01*
X11583443Y-16373574D02*
X11592967Y-16335479D01*
X11592967Y-16335479D02*
X11602491Y-16316431D01*
X11602491Y-16316431D02*
X11612015Y-16306908D01*
X11612015Y-16306908D02*
X11631062Y-16297384D01*
X11821539Y-16297384D02*
X11840586Y-16297384D01*
X11840586Y-16297384D02*
X11859634Y-16306908D01*
X11859634Y-16306908D02*
X11869158Y-16316431D01*
X11869158Y-16316431D02*
X11878682Y-16335479D01*
X11878682Y-16335479D02*
X11888205Y-16373574D01*
X11888205Y-16373574D02*
X11888205Y-16421193D01*
X11888205Y-16421193D02*
X11878682Y-16459288D01*
X11878682Y-16459288D02*
X11869158Y-16478336D01*
X11869158Y-16478336D02*
X11859634Y-16487860D01*
X11859634Y-16487860D02*
X11840586Y-16497384D01*
X11840586Y-16497384D02*
X11821539Y-16497384D01*
X11821539Y-16497384D02*
X11802491Y-16487860D01*
X11802491Y-16487860D02*
X11792967Y-16478336D01*
X11792967Y-16478336D02*
X11783443Y-16459288D01*
X11783443Y-16459288D02*
X11773920Y-16421193D01*
X11773920Y-16421193D02*
X11773920Y-16373574D01*
X11773920Y-16373574D02*
X11783443Y-16335479D01*
X11783443Y-16335479D02*
X11792967Y-16316431D01*
X11792967Y-16316431D02*
X11802491Y-16306908D01*
X11802491Y-16306908D02*
X11821539Y-16297384D01*
X11973920Y-16497384D02*
X11973920Y-16364050D01*
X11973920Y-16383098D02*
X11983443Y-16373574D01*
X11983443Y-16373574D02*
X12002491Y-16364050D01*
X12002491Y-16364050D02*
X12031063Y-16364050D01*
X12031063Y-16364050D02*
X12050110Y-16373574D01*
X12050110Y-16373574D02*
X12059634Y-16392622D01*
X12059634Y-16392622D02*
X12059634Y-16497384D01*
X12059634Y-16392622D02*
X12069158Y-16373574D01*
X12069158Y-16373574D02*
X12088205Y-16364050D01*
X12088205Y-16364050D02*
X12116777Y-16364050D01*
X12116777Y-16364050D02*
X12135824Y-16373574D01*
X12135824Y-16373574D02*
X12145348Y-16392622D01*
X12145348Y-16392622D02*
X12145348Y-16497384D01*
X12240586Y-16497384D02*
X12240586Y-16364050D01*
X12240586Y-16383098D02*
X12250110Y-16373574D01*
X12250110Y-16373574D02*
X12269158Y-16364050D01*
X12269158Y-16364050D02*
X12297729Y-16364050D01*
X12297729Y-16364050D02*
X12316777Y-16373574D01*
X12316777Y-16373574D02*
X12326301Y-16392622D01*
X12326301Y-16392622D02*
X12326301Y-16497384D01*
X12326301Y-16392622D02*
X12335824Y-16373574D01*
X12335824Y-16373574D02*
X12354872Y-16364050D01*
X12354872Y-16364050D02*
X12383443Y-16364050D01*
X12383443Y-16364050D02*
X12402491Y-16373574D01*
X12402491Y-16373574D02*
X12412015Y-16392622D01*
X12412015Y-16392622D02*
X12412015Y-16497384D01*
X12802491Y-16287860D02*
X12631063Y-16545003D01*
X13059634Y-16297384D02*
X13078682Y-16297384D01*
X13078682Y-16297384D02*
X13097729Y-16306908D01*
X13097729Y-16306908D02*
X13107253Y-16316431D01*
X13107253Y-16316431D02*
X13116777Y-16335479D01*
X13116777Y-16335479D02*
X13126301Y-16373574D01*
X13126301Y-16373574D02*
X13126301Y-16421193D01*
X13126301Y-16421193D02*
X13116777Y-16459288D01*
X13116777Y-16459288D02*
X13107253Y-16478336D01*
X13107253Y-16478336D02*
X13097729Y-16487860D01*
X13097729Y-16487860D02*
X13078682Y-16497384D01*
X13078682Y-16497384D02*
X13059634Y-16497384D01*
X13059634Y-16497384D02*
X13040586Y-16487860D01*
X13040586Y-16487860D02*
X13031063Y-16478336D01*
X13031063Y-16478336D02*
X13021539Y-16459288D01*
X13021539Y-16459288D02*
X13012015Y-16421193D01*
X13012015Y-16421193D02*
X13012015Y-16373574D01*
X13012015Y-16373574D02*
X13021539Y-16335479D01*
X13021539Y-16335479D02*
X13031063Y-16316431D01*
X13031063Y-16316431D02*
X13040586Y-16306908D01*
X13040586Y-16306908D02*
X13059634Y-16297384D01*
X13212015Y-16478336D02*
X13221539Y-16487860D01*
X13221539Y-16487860D02*
X13212015Y-16497384D01*
X13212015Y-16497384D02*
X13202491Y-16487860D01*
X13202491Y-16487860D02*
X13212015Y-16478336D01*
X13212015Y-16478336D02*
X13212015Y-16497384D01*
X13412015Y-16497384D02*
X13297729Y-16497384D01*
X13354872Y-16497384D02*
X13354872Y-16297384D01*
X13354872Y-16297384D02*
X13335825Y-16325955D01*
X13335825Y-16325955D02*
X13316777Y-16345003D01*
X13316777Y-16345003D02*
X13297729Y-16354527D01*
X13478682Y-16297384D02*
X13602491Y-16297384D01*
X13602491Y-16297384D02*
X13535825Y-16373574D01*
X13535825Y-16373574D02*
X13564396Y-16373574D01*
X13564396Y-16373574D02*
X13583444Y-16383098D01*
X13583444Y-16383098D02*
X13592967Y-16392622D01*
X13592967Y-16392622D02*
X13602491Y-16411669D01*
X13602491Y-16411669D02*
X13602491Y-16459288D01*
X13602491Y-16459288D02*
X13592967Y-16478336D01*
X13592967Y-16478336D02*
X13583444Y-16487860D01*
X13583444Y-16487860D02*
X13564396Y-16497384D01*
X13564396Y-16497384D02*
X13507253Y-16497384D01*
X13507253Y-16497384D02*
X13488206Y-16487860D01*
X13488206Y-16487860D02*
X13478682Y-16478336D01*
X13669158Y-16297384D02*
X13802491Y-16297384D01*
X13802491Y-16297384D02*
X13716777Y-16497384D01*
X13907253Y-16383098D02*
X13888206Y-16373574D01*
X13888206Y-16373574D02*
X13878682Y-16364050D01*
X13878682Y-16364050D02*
X13869158Y-16345003D01*
X13869158Y-16345003D02*
X13869158Y-16335479D01*
X13869158Y-16335479D02*
X13878682Y-16316431D01*
X13878682Y-16316431D02*
X13888206Y-16306908D01*
X13888206Y-16306908D02*
X13907253Y-16297384D01*
X13907253Y-16297384D02*
X13945348Y-16297384D01*
X13945348Y-16297384D02*
X13964396Y-16306908D01*
X13964396Y-16306908D02*
X13973920Y-16316431D01*
X13973920Y-16316431D02*
X13983444Y-16335479D01*
X13983444Y-16335479D02*
X13983444Y-16345003D01*
X13983444Y-16345003D02*
X13973920Y-16364050D01*
X13973920Y-16364050D02*
X13964396Y-16373574D01*
X13964396Y-16373574D02*
X13945348Y-16383098D01*
X13945348Y-16383098D02*
X13907253Y-16383098D01*
X13907253Y-16383098D02*
X13888206Y-16392622D01*
X13888206Y-16392622D02*
X13878682Y-16402146D01*
X13878682Y-16402146D02*
X13869158Y-16421193D01*
X13869158Y-16421193D02*
X13869158Y-16459288D01*
X13869158Y-16459288D02*
X13878682Y-16478336D01*
X13878682Y-16478336D02*
X13888206Y-16487860D01*
X13888206Y-16487860D02*
X13907253Y-16497384D01*
X13907253Y-16497384D02*
X13945348Y-16497384D01*
X13945348Y-16497384D02*
X13964396Y-16487860D01*
X13964396Y-16487860D02*
X13973920Y-16478336D01*
X13973920Y-16478336D02*
X13983444Y-16459288D01*
X13983444Y-16459288D02*
X13983444Y-16421193D01*
X13983444Y-16421193D02*
X13973920Y-16402146D01*
X13973920Y-16402146D02*
X13964396Y-16392622D01*
X13964396Y-16392622D02*
X13945348Y-16383098D01*
X14059634Y-16297384D02*
X14059634Y-16335479D01*
X14135825Y-16297384D02*
X14135825Y-16335479D01*
X14431063Y-16573574D02*
X14421539Y-16564050D01*
X14421539Y-16564050D02*
X14402491Y-16535479D01*
X14402491Y-16535479D02*
X14392968Y-16516431D01*
X14392968Y-16516431D02*
X14383444Y-16487860D01*
X14383444Y-16487860D02*
X14373920Y-16440241D01*
X14373920Y-16440241D02*
X14373920Y-16402146D01*
X14373920Y-16402146D02*
X14383444Y-16354527D01*
X14383444Y-16354527D02*
X14392968Y-16325955D01*
X14392968Y-16325955D02*
X14402491Y-16306908D01*
X14402491Y-16306908D02*
X14421539Y-16278336D01*
X14421539Y-16278336D02*
X14431063Y-16268812D01*
X14612015Y-16497384D02*
X14497729Y-16497384D01*
X14554872Y-16497384D02*
X14554872Y-16297384D01*
X14554872Y-16297384D02*
X14535825Y-16325955D01*
X14535825Y-16325955D02*
X14516777Y-16345003D01*
X14516777Y-16345003D02*
X14497729Y-16354527D01*
X14850110Y-16497384D02*
X14850110Y-16297384D01*
X14935825Y-16497384D02*
X14935825Y-16392622D01*
X14935825Y-16392622D02*
X14926301Y-16373574D01*
X14926301Y-16373574D02*
X14907253Y-16364050D01*
X14907253Y-16364050D02*
X14878682Y-16364050D01*
X14878682Y-16364050D02*
X14859634Y-16373574D01*
X14859634Y-16373574D02*
X14850110Y-16383098D01*
X15059634Y-16497384D02*
X15040587Y-16487860D01*
X15040587Y-16487860D02*
X15031063Y-16478336D01*
X15031063Y-16478336D02*
X15021539Y-16459288D01*
X15021539Y-16459288D02*
X15021539Y-16402146D01*
X15021539Y-16402146D02*
X15031063Y-16383098D01*
X15031063Y-16383098D02*
X15040587Y-16373574D01*
X15040587Y-16373574D02*
X15059634Y-16364050D01*
X15059634Y-16364050D02*
X15088206Y-16364050D01*
X15088206Y-16364050D02*
X15107253Y-16373574D01*
X15107253Y-16373574D02*
X15116777Y-16383098D01*
X15116777Y-16383098D02*
X15126301Y-16402146D01*
X15126301Y-16402146D02*
X15126301Y-16459288D01*
X15126301Y-16459288D02*
X15116777Y-16478336D01*
X15116777Y-16478336D02*
X15107253Y-16487860D01*
X15107253Y-16487860D02*
X15088206Y-16497384D01*
X15088206Y-16497384D02*
X15059634Y-16497384D01*
X15240587Y-16497384D02*
X15221539Y-16487860D01*
X15221539Y-16487860D02*
X15212015Y-16468812D01*
X15212015Y-16468812D02*
X15212015Y-16297384D01*
X15392968Y-16487860D02*
X15373920Y-16497384D01*
X15373920Y-16497384D02*
X15335825Y-16497384D01*
X15335825Y-16497384D02*
X15316777Y-16487860D01*
X15316777Y-16487860D02*
X15307253Y-16468812D01*
X15307253Y-16468812D02*
X15307253Y-16392622D01*
X15307253Y-16392622D02*
X15316777Y-16373574D01*
X15316777Y-16373574D02*
X15335825Y-16364050D01*
X15335825Y-16364050D02*
X15373920Y-16364050D01*
X15373920Y-16364050D02*
X15392968Y-16373574D01*
X15392968Y-16373574D02*
X15402491Y-16392622D01*
X15402491Y-16392622D02*
X15402491Y-16411669D01*
X15402491Y-16411669D02*
X15307253Y-16430717D01*
X15469158Y-16573574D02*
X15478682Y-16564050D01*
X15478682Y-16564050D02*
X15497730Y-16535479D01*
X15497730Y-16535479D02*
X15507253Y-16516431D01*
X15507253Y-16516431D02*
X15516777Y-16487860D01*
X15516777Y-16487860D02*
X15526301Y-16440241D01*
X15526301Y-16440241D02*
X15526301Y-16402146D01*
X15526301Y-16402146D02*
X15516777Y-16354527D01*
X15516777Y-16354527D02*
X15507253Y-16325955D01*
X15507253Y-16325955D02*
X15497730Y-16306908D01*
X15497730Y-16306908D02*
X15478682Y-16278336D01*
X15478682Y-16278336D02*
X15469158Y-16268812D01*
X15831063Y-16573574D02*
X15821539Y-16564050D01*
X15821539Y-16564050D02*
X15802491Y-16535479D01*
X15802491Y-16535479D02*
X15792968Y-16516431D01*
X15792968Y-16516431D02*
X15783444Y-16487860D01*
X15783444Y-16487860D02*
X15773920Y-16440241D01*
X15773920Y-16440241D02*
X15773920Y-16402146D01*
X15773920Y-16402146D02*
X15783444Y-16354527D01*
X15783444Y-16354527D02*
X15792968Y-16325955D01*
X15792968Y-16325955D02*
X15802491Y-16306908D01*
X15802491Y-16306908D02*
X15821539Y-16278336D01*
X15821539Y-16278336D02*
X15831063Y-16268812D01*
X15907253Y-16364050D02*
X15907253Y-16497384D01*
X15907253Y-16383098D02*
X15916777Y-16373574D01*
X15916777Y-16373574D02*
X15935825Y-16364050D01*
X15935825Y-16364050D02*
X15964396Y-16364050D01*
X15964396Y-16364050D02*
X15983444Y-16373574D01*
X15983444Y-16373574D02*
X15992968Y-16392622D01*
X15992968Y-16392622D02*
X15992968Y-16497384D01*
X16116777Y-16497384D02*
X16097730Y-16487860D01*
X16097730Y-16487860D02*
X16088206Y-16478336D01*
X16088206Y-16478336D02*
X16078682Y-16459288D01*
X16078682Y-16459288D02*
X16078682Y-16402146D01*
X16078682Y-16402146D02*
X16088206Y-16383098D01*
X16088206Y-16383098D02*
X16097730Y-16373574D01*
X16097730Y-16373574D02*
X16116777Y-16364050D01*
X16116777Y-16364050D02*
X16145349Y-16364050D01*
X16145349Y-16364050D02*
X16164396Y-16373574D01*
X16164396Y-16373574D02*
X16173920Y-16383098D01*
X16173920Y-16383098D02*
X16183444Y-16402146D01*
X16183444Y-16402146D02*
X16183444Y-16459288D01*
X16183444Y-16459288D02*
X16173920Y-16478336D01*
X16173920Y-16478336D02*
X16164396Y-16487860D01*
X16164396Y-16487860D02*
X16145349Y-16497384D01*
X16145349Y-16497384D02*
X16116777Y-16497384D01*
X16240587Y-16364050D02*
X16316777Y-16364050D01*
X16269158Y-16297384D02*
X16269158Y-16468812D01*
X16269158Y-16468812D02*
X16278682Y-16487860D01*
X16278682Y-16487860D02*
X16297730Y-16497384D01*
X16297730Y-16497384D02*
X16316777Y-16497384D01*
X16535825Y-16364050D02*
X16535825Y-16564050D01*
X16535825Y-16373574D02*
X16554872Y-16364050D01*
X16554872Y-16364050D02*
X16592968Y-16364050D01*
X16592968Y-16364050D02*
X16612015Y-16373574D01*
X16612015Y-16373574D02*
X16621539Y-16383098D01*
X16621539Y-16383098D02*
X16631063Y-16402146D01*
X16631063Y-16402146D02*
X16631063Y-16459288D01*
X16631063Y-16459288D02*
X16621539Y-16478336D01*
X16621539Y-16478336D02*
X16612015Y-16487860D01*
X16612015Y-16487860D02*
X16592968Y-16497384D01*
X16592968Y-16497384D02*
X16554872Y-16497384D01*
X16554872Y-16497384D02*
X16535825Y-16487860D01*
X16745349Y-16497384D02*
X16726301Y-16487860D01*
X16726301Y-16487860D02*
X16716777Y-16468812D01*
X16716777Y-16468812D02*
X16716777Y-16297384D01*
X16907254Y-16497384D02*
X16907254Y-16392622D01*
X16907254Y-16392622D02*
X16897730Y-16373574D01*
X16897730Y-16373574D02*
X16878682Y-16364050D01*
X16878682Y-16364050D02*
X16840587Y-16364050D01*
X16840587Y-16364050D02*
X16821539Y-16373574D01*
X16907254Y-16487860D02*
X16888206Y-16497384D01*
X16888206Y-16497384D02*
X16840587Y-16497384D01*
X16840587Y-16497384D02*
X16821539Y-16487860D01*
X16821539Y-16487860D02*
X16812015Y-16468812D01*
X16812015Y-16468812D02*
X16812015Y-16449765D01*
X16812015Y-16449765D02*
X16821539Y-16430717D01*
X16821539Y-16430717D02*
X16840587Y-16421193D01*
X16840587Y-16421193D02*
X16888206Y-16421193D01*
X16888206Y-16421193D02*
X16907254Y-16411669D01*
X16973920Y-16364050D02*
X17050111Y-16364050D01*
X17002492Y-16297384D02*
X17002492Y-16468812D01*
X17002492Y-16468812D02*
X17012015Y-16487860D01*
X17012015Y-16487860D02*
X17031063Y-16497384D01*
X17031063Y-16497384D02*
X17050111Y-16497384D01*
X17192968Y-16487860D02*
X17173920Y-16497384D01*
X17173920Y-16497384D02*
X17135825Y-16497384D01*
X17135825Y-16497384D02*
X17116777Y-16487860D01*
X17116777Y-16487860D02*
X17107254Y-16468812D01*
X17107254Y-16468812D02*
X17107254Y-16392622D01*
X17107254Y-16392622D02*
X17116777Y-16373574D01*
X17116777Y-16373574D02*
X17135825Y-16364050D01*
X17135825Y-16364050D02*
X17173920Y-16364050D01*
X17173920Y-16364050D02*
X17192968Y-16373574D01*
X17192968Y-16373574D02*
X17202492Y-16392622D01*
X17202492Y-16392622D02*
X17202492Y-16411669D01*
X17202492Y-16411669D02*
X17107254Y-16430717D01*
X17373920Y-16497384D02*
X17373920Y-16297384D01*
X17373920Y-16487860D02*
X17354873Y-16497384D01*
X17354873Y-16497384D02*
X17316777Y-16497384D01*
X17316777Y-16497384D02*
X17297730Y-16487860D01*
X17297730Y-16487860D02*
X17288206Y-16478336D01*
X17288206Y-16478336D02*
X17278682Y-16459288D01*
X17278682Y-16459288D02*
X17278682Y-16402146D01*
X17278682Y-16402146D02*
X17288206Y-16383098D01*
X17288206Y-16383098D02*
X17297730Y-16373574D01*
X17297730Y-16373574D02*
X17316777Y-16364050D01*
X17316777Y-16364050D02*
X17354873Y-16364050D01*
X17354873Y-16364050D02*
X17373920Y-16373574D01*
X17450111Y-16573574D02*
X17459635Y-16564050D01*
X17459635Y-16564050D02*
X17478682Y-16535479D01*
X17478682Y-16535479D02*
X17488206Y-16516431D01*
X17488206Y-16516431D02*
X17497730Y-16487860D01*
X17497730Y-16487860D02*
X17507254Y-16440241D01*
X17507254Y-16440241D02*
X17507254Y-16402146D01*
X17507254Y-16402146D02*
X17497730Y-16354527D01*
X17497730Y-16354527D02*
X17488206Y-16325955D01*
X17488206Y-16325955D02*
X17478682Y-16306908D01*
X17478682Y-16306908D02*
X17459635Y-16278336D01*
X17459635Y-16278336D02*
X17450111Y-16268812D01*
M02*
