%TF.GenerationSoftware,KiCad,Pcbnew,9.0.4*%
%TF.CreationDate,2026-01-25T09:32:26+13:00*%
%TF.ProjectId,AWS_CPU_Video_Decoder,4157535f-4350-4555-9f56-6964656f5f44,rev?*%
%TF.SameCoordinates,Original*%
%TF.FileFunction,Soldermask,Bot*%
%TF.FilePolarity,Negative*%
%FSLAX46Y46*%
G04 Gerber Fmt 4.6, Leading zero omitted, Abs format (unit mm)*
G04 Created by KiCad (PCBNEW 9.0.4) date 2026-01-25 09:32:26*
%MOMM*%
%LPD*%
G01*
G04 APERTURE LIST*
G04 Aperture macros list*
%AMRoundRect*
0 Rectangle with rounded corners*
0 $1 Rounding radius*
0 $2 $3 $4 $5 $6 $7 $8 $9 X,Y pos of 4 corners*
0 Add a 4 corners polygon primitive as box body*
4,1,4,$2,$3,$4,$5,$6,$7,$8,$9,$2,$3,0*
0 Add four circle primitives for the rounded corners*
1,1,$1+$1,$2,$3*
1,1,$1+$1,$4,$5*
1,1,$1+$1,$6,$7*
1,1,$1+$1,$8,$9*
0 Add four rect primitives between the rounded corners*
20,1,$1+$1,$2,$3,$4,$5,0*
20,1,$1+$1,$4,$5,$6,$7,0*
20,1,$1+$1,$6,$7,$8,$9,0*
20,1,$1+$1,$8,$9,$2,$3,0*%
%AMFreePoly0*
4,1,37,0.603843,0.796157,0.639018,0.796157,0.711114,0.766294,0.766294,0.711114,0.796157,0.639018,0.796157,0.603843,0.800000,0.600000,0.800000,-0.600000,0.796157,-0.603843,0.796157,-0.639018,0.766294,-0.711114,0.711114,-0.766294,0.639018,-0.796157,0.603843,-0.796157,0.600000,-0.800000,0.000000,-0.800000,0.000000,-0.796148,-0.078414,-0.796148,-0.232228,-0.765552,-0.377117,-0.705537,
-0.507515,-0.618408,-0.618408,-0.507515,-0.705537,-0.377117,-0.765552,-0.232228,-0.796148,-0.078414,-0.796148,0.078414,-0.765552,0.232228,-0.705537,0.377117,-0.618408,0.507515,-0.507515,0.618408,-0.377117,0.705537,-0.232228,0.765552,-0.078414,0.796148,0.000000,0.796148,0.000000,0.800000,0.600000,0.800000,0.603843,0.796157,0.603843,0.796157,$1*%
%AMFreePoly1*
4,1,37,0.000000,0.796148,0.078414,0.796148,0.232228,0.765552,0.377117,0.705537,0.507515,0.618408,0.618408,0.507515,0.705537,0.377117,0.765552,0.232228,0.796148,0.078414,0.796148,-0.078414,0.765552,-0.232228,0.705537,-0.377117,0.618408,-0.507515,0.507515,-0.618408,0.377117,-0.705537,0.232228,-0.765552,0.078414,-0.796148,0.000000,-0.796148,0.000000,-0.800000,-0.600000,-0.800000,
-0.603843,-0.796157,-0.639018,-0.796157,-0.711114,-0.766294,-0.766294,-0.711114,-0.796157,-0.639018,-0.796157,-0.603843,-0.800000,-0.600000,-0.800000,0.600000,-0.796157,0.603843,-0.796157,0.639018,-0.766294,0.711114,-0.711114,0.766294,-0.639018,0.796157,-0.603843,0.796157,-0.600000,0.800000,0.000000,0.800000,0.000000,0.796148,0.000000,0.796148,$1*%
G04 Aperture macros list end*
%ADD10C,1.700000*%
%ADD11C,1.400000*%
%ADD12R,1.700000X1.700000*%
%ADD13C,2.200000*%
%ADD14C,1.850000*%
%ADD15RoundRect,0.200000X0.600000X0.600000X-0.600000X0.600000X-0.600000X-0.600000X0.600000X-0.600000X0*%
%ADD16C,1.600000*%
%ADD17FreePoly0,180.000000*%
%ADD18FreePoly1,180.000000*%
%ADD19C,2.000000*%
%ADD20C,7.000000*%
%ADD21O,3.804000X2.004000*%
%ADD22O,2.304000X4.404000*%
G04 APERTURE END LIST*
D10*
%TO.C,*%
X124460000Y-102870000D03*
%TD*%
%TO.C,*%
X134620000Y-133350000D03*
%TD*%
D11*
%TO.C,R7*%
X154940000Y-60325000D03*
X147320000Y-60325000D03*
%TD*%
D12*
%TO.C,J8*%
X194310000Y-129540000D03*
D10*
X194310000Y-127000000D03*
X194310000Y-124460000D03*
X194310000Y-121920000D03*
%TD*%
%TO.C,*%
X129540000Y-130810000D03*
%TD*%
D13*
%TO.C,A2*%
X161475000Y-125600000D03*
D14*
X161175000Y-122570000D03*
X156325000Y-122570000D03*
D13*
X156025000Y-125600000D03*
D15*
X167640000Y-125730000D03*
D16*
X167640000Y-123190000D03*
D17*
X167640000Y-120650000D03*
D16*
X167640000Y-118110000D03*
X167640000Y-115570000D03*
X167640000Y-113030000D03*
X167640000Y-110490000D03*
D17*
X167640000Y-107950000D03*
D16*
X167640000Y-105410000D03*
X167640000Y-102870000D03*
X167640000Y-100330000D03*
X167640000Y-97790000D03*
D17*
X167640000Y-95250000D03*
D16*
X167640000Y-92710000D03*
X167640000Y-90170000D03*
X167640000Y-87630000D03*
X167640000Y-85090000D03*
D17*
X167640000Y-82550000D03*
D16*
X167640000Y-80010000D03*
X167640000Y-77470000D03*
X149860000Y-77470000D03*
X149860000Y-80010000D03*
D18*
X149860000Y-82550000D03*
D16*
X149860000Y-85090000D03*
X149860000Y-87630000D03*
X149860000Y-90170000D03*
X149860000Y-92710000D03*
D18*
X149860000Y-95250000D03*
D16*
X149860000Y-97790000D03*
X149860000Y-100330000D03*
X149860000Y-102870000D03*
X149860000Y-105410000D03*
D18*
X149860000Y-107950000D03*
D16*
X149860000Y-110490000D03*
X149860000Y-113030000D03*
X149860000Y-115570000D03*
X149860000Y-118110000D03*
D18*
X149860000Y-120650000D03*
D16*
X149860000Y-123190000D03*
X149860000Y-125730000D03*
%TD*%
D10*
%TO.C,*%
X124460000Y-105410000D03*
%TD*%
D12*
%TO.C,J13*%
X214630000Y-129540000D03*
D10*
X214630000Y-127000000D03*
X214630000Y-124460000D03*
X214630000Y-121920000D03*
%TD*%
%TO.C,*%
X124460000Y-133350000D03*
%TD*%
%TO.C,*%
X127000000Y-110490000D03*
%TD*%
%TO.C,*%
X124460000Y-138430000D03*
%TD*%
%TO.C,*%
X129540000Y-118110000D03*
%TD*%
%TO.C,*%
X134620000Y-138430000D03*
%TD*%
%TO.C,*%
X129540000Y-138430000D03*
%TD*%
%TO.C,*%
X127000000Y-113030000D03*
%TD*%
D11*
%TO.C,R2*%
X167640000Y-63475000D03*
X175260000Y-63475000D03*
%TD*%
D10*
%TO.C,*%
X124460000Y-123190000D03*
%TD*%
%TO.C,*%
X127000000Y-140970000D03*
%TD*%
%TO.C,*%
X134620000Y-107950000D03*
%TD*%
%TO.C,*%
X121920000Y-118110000D03*
%TD*%
D12*
%TO.C,J12*%
X214630000Y-80010000D03*
D10*
X214630000Y-77470000D03*
X214630000Y-74930000D03*
X214630000Y-72390000D03*
%TD*%
%TO.C,*%
X124460000Y-118110000D03*
%TD*%
%TO.C,*%
X119380000Y-123190000D03*
%TD*%
%TO.C,*%
X121920000Y-135890000D03*
%TD*%
D12*
%TO.C,J15*%
X214630000Y-113030000D03*
D10*
X214630000Y-110490000D03*
X214630000Y-107950000D03*
X214630000Y-105410000D03*
%TD*%
%TO.C,*%
X129540000Y-123190000D03*
%TD*%
%TO.C,*%
X119380000Y-107950000D03*
%TD*%
%TO.C,*%
X132080000Y-128270000D03*
%TD*%
D11*
%TO.C,R4*%
X157480000Y-60325000D03*
X165100000Y-60325000D03*
%TD*%
D12*
%TO.C,J9*%
X194310000Y-146050000D03*
D10*
X194310000Y-143510000D03*
X194310000Y-140970000D03*
X194310000Y-138430000D03*
%TD*%
%TO.C,*%
X127000000Y-138430000D03*
%TD*%
%TO.C,*%
X119380000Y-140970000D03*
%TD*%
%TO.C,*%
X121920000Y-115570000D03*
%TD*%
%TO.C,*%
X129540000Y-113030000D03*
%TD*%
%TO.C,*%
X124460000Y-143510000D03*
%TD*%
%TO.C,*%
X134620000Y-135890000D03*
%TD*%
%TO.C,*%
X132080000Y-120650000D03*
%TD*%
%TO.C,*%
X119380000Y-143510000D03*
%TD*%
%TO.C,*%
X127000000Y-133350000D03*
%TD*%
%TO.C,*%
X132080000Y-118110000D03*
%TD*%
D11*
%TO.C,R6*%
X157480000Y-66675000D03*
X165100000Y-66675000D03*
%TD*%
D10*
%TO.C,*%
X132080000Y-138430000D03*
%TD*%
D11*
%TO.C,R5*%
X157480000Y-63500000D03*
X165100000Y-63500000D03*
%TD*%
D10*
%TO.C,*%
X132080000Y-133350000D03*
%TD*%
%TO.C,*%
X129540000Y-125730000D03*
%TD*%
%TO.C,*%
X129540000Y-128270000D03*
%TD*%
D12*
%TO.C,U2*%
X199390000Y-69850000D03*
D10*
X199390000Y-72390000D03*
X199390000Y-74930000D03*
X199390000Y-77470000D03*
X199390000Y-80010000D03*
X199390000Y-82550000D03*
X209550000Y-82550000D03*
X209550000Y-80010000D03*
X209550000Y-77470000D03*
X209550000Y-74930000D03*
X209550000Y-72390000D03*
X209550000Y-69850000D03*
%TD*%
%TO.C,*%
X127000000Y-107950000D03*
%TD*%
%TO.C,*%
X129540000Y-120650000D03*
%TD*%
D11*
%TO.C,R9*%
X154940000Y-66675000D03*
X147320000Y-66675000D03*
%TD*%
D10*
%TO.C,*%
X132080000Y-140970000D03*
%TD*%
%TO.C,*%
X121920000Y-130810000D03*
%TD*%
%TO.C,*%
X132080000Y-123190000D03*
%TD*%
D12*
%TO.C,J2*%
X194310000Y-63500000D03*
D10*
X194310000Y-60960000D03*
X194310000Y-58420000D03*
X194310000Y-55880000D03*
%TD*%
D12*
%TO.C,J14*%
X214630000Y-96520000D03*
D10*
X214630000Y-93980000D03*
X214630000Y-91440000D03*
X214630000Y-88900000D03*
%TD*%
%TO.C,*%
X124460000Y-140970000D03*
%TD*%
%TO.C,*%
X129540000Y-143510000D03*
%TD*%
%TO.C,*%
X124460000Y-128270000D03*
%TD*%
D19*
%TO.C,SW1*%
X167640000Y-137160000D03*
X167640000Y-130660000D03*
X172140000Y-137160000D03*
X172140000Y-130660000D03*
%TD*%
D10*
%TO.C,*%
X134620000Y-110490000D03*
%TD*%
%TO.C,*%
X119380000Y-120650000D03*
%TD*%
%TO.C,*%
X127000000Y-130810000D03*
%TD*%
%TO.C,*%
X129540000Y-105410000D03*
%TD*%
%TO.C,*%
X121920000Y-107950000D03*
%TD*%
%TO.C,*%
X129540000Y-135890000D03*
%TD*%
%TO.C,*%
X121920000Y-143510000D03*
%TD*%
D11*
%TO.C,R3*%
X167640000Y-66625000D03*
X175260000Y-66625000D03*
%TD*%
D10*
%TO.C,*%
X134620000Y-143510000D03*
%TD*%
%TO.C,*%
X134620000Y-120650000D03*
%TD*%
%TO.C,*%
X129540000Y-102870000D03*
%TD*%
%TO.C,*%
X132080000Y-135890000D03*
%TD*%
D12*
%TO.C,J6*%
X194310000Y-96520000D03*
D10*
X194310000Y-93980000D03*
X194310000Y-91440000D03*
X194310000Y-88900000D03*
%TD*%
%TO.C,*%
X134620000Y-118110000D03*
%TD*%
%TO.C,*%
X121920000Y-123190000D03*
%TD*%
%TO.C,*%
X132080000Y-107950000D03*
%TD*%
D20*
%TO.C,H1*%
X112410000Y-101600000D03*
%TD*%
D12*
%TO.C,J11*%
X214630000Y-146050000D03*
D10*
X214630000Y-143510000D03*
X214630000Y-140970000D03*
X214630000Y-138430000D03*
%TD*%
D12*
%TO.C,J18*%
X137160000Y-140970000D03*
D10*
X137160000Y-143510000D03*
%TD*%
%TO.C,*%
X124460000Y-120650000D03*
%TD*%
%TO.C,*%
X121920000Y-110490000D03*
%TD*%
%TO.C,*%
X134620000Y-130810000D03*
%TD*%
D12*
%TO.C,J19*%
X116840000Y-140970000D03*
D10*
X116840000Y-143510000D03*
%TD*%
%TO.C,*%
X119380000Y-138430000D03*
%TD*%
%TO.C,*%
X124460000Y-130810000D03*
%TD*%
%TO.C,*%
X134620000Y-105410000D03*
%TD*%
%TO.C,*%
X119380000Y-113030000D03*
%TD*%
%TO.C,*%
X121920000Y-128270000D03*
%TD*%
%TO.C,*%
X127000000Y-125730000D03*
%TD*%
%TO.C,*%
X132080000Y-125730000D03*
%TD*%
%TO.C,*%
X132080000Y-110490000D03*
%TD*%
%TO.C,*%
X127000000Y-105410000D03*
%TD*%
%TO.C,*%
X132080000Y-130810000D03*
%TD*%
%TO.C,*%
X127000000Y-128270000D03*
%TD*%
%TO.C,*%
X121920000Y-120650000D03*
%TD*%
%TO.C,*%
X121920000Y-133350000D03*
%TD*%
%TO.C,*%
X134620000Y-140970000D03*
%TD*%
D12*
%TO.C,J7*%
X194310000Y-113030000D03*
D10*
X194310000Y-110490000D03*
X194310000Y-107950000D03*
X194310000Y-105410000D03*
%TD*%
%TO.C,*%
X124460000Y-110490000D03*
%TD*%
%TO.C,*%
X121920000Y-102870000D03*
%TD*%
%TO.C,*%
X134620000Y-115570000D03*
%TD*%
%TO.C,*%
X134620000Y-123190000D03*
%TD*%
D12*
%TO.C,J5*%
X177800000Y-125730000D03*
D10*
X175260000Y-125730000D03*
X177800000Y-123190000D03*
X175260000Y-123190000D03*
X177800000Y-120650000D03*
X175260000Y-120650000D03*
X177800000Y-118110000D03*
X175260000Y-118110000D03*
X177800000Y-115570000D03*
X175260000Y-115570000D03*
X177800000Y-113030000D03*
X175260000Y-113030000D03*
X177800000Y-110490000D03*
X175260000Y-110490000D03*
X177800000Y-107950000D03*
X175260000Y-107950000D03*
X177800000Y-105410000D03*
X175260000Y-105410000D03*
X177800000Y-102870000D03*
X175260000Y-102870000D03*
X177800000Y-100330000D03*
X175260000Y-100330000D03*
X177800000Y-97790000D03*
X175260000Y-97790000D03*
X177800000Y-95250000D03*
X175260000Y-95250000D03*
X177800000Y-92710000D03*
X175260000Y-92710000D03*
X177800000Y-90170000D03*
X175260000Y-90170000D03*
X177800000Y-87630000D03*
X175260000Y-87630000D03*
X177800000Y-85090000D03*
X175260000Y-85090000D03*
X177800000Y-82550000D03*
X175260000Y-82550000D03*
X177800000Y-80010000D03*
X175260000Y-80010000D03*
X177800000Y-77470000D03*
X175260000Y-77470000D03*
%TD*%
%TO.C,*%
X134620000Y-128270000D03*
%TD*%
%TO.C,*%
X121920000Y-125730000D03*
%TD*%
%TO.C,*%
X124460000Y-125730000D03*
%TD*%
%TO.C,*%
X129540000Y-140970000D03*
%TD*%
%TO.C,*%
X121920000Y-140970000D03*
%TD*%
%TO.C,*%
X129540000Y-107950000D03*
%TD*%
%TO.C,*%
X119380000Y-115570000D03*
%TD*%
D12*
%TO.C,U5*%
X199390000Y-119380000D03*
D10*
X199390000Y-121920000D03*
X199390000Y-124460000D03*
X199390000Y-127000000D03*
X199390000Y-129540000D03*
X199390000Y-132080000D03*
X209550000Y-132080000D03*
X209550000Y-129540000D03*
X209550000Y-127000000D03*
X209550000Y-124460000D03*
X209550000Y-121920000D03*
X209550000Y-119380000D03*
%TD*%
%TO.C,*%
X127000000Y-102870000D03*
%TD*%
%TO.C,*%
X119380000Y-110490000D03*
%TD*%
%TO.C,*%
X127000000Y-115570000D03*
%TD*%
%TO.C,*%
X119380000Y-135890000D03*
%TD*%
%TO.C,*%
X127000000Y-118110000D03*
%TD*%
%TO.C,*%
X134620000Y-102870000D03*
%TD*%
%TO.C,*%
X129540000Y-133350000D03*
%TD*%
%TO.C,*%
X132080000Y-143510000D03*
%TD*%
%TO.C,*%
X127000000Y-143510000D03*
%TD*%
%TO.C,*%
X134620000Y-113030000D03*
%TD*%
%TO.C,*%
X129540000Y-115570000D03*
%TD*%
%TO.C,*%
X119380000Y-125730000D03*
%TD*%
%TO.C,*%
X132080000Y-113030000D03*
%TD*%
D12*
%TO.C,U3*%
X199390000Y-86360000D03*
D10*
X199390000Y-88900000D03*
X199390000Y-91440000D03*
X199390000Y-93980000D03*
X199390000Y-96520000D03*
X199390000Y-99060000D03*
X209550000Y-99060000D03*
X209550000Y-96520000D03*
X209550000Y-93980000D03*
X209550000Y-91440000D03*
X209550000Y-88900000D03*
X209550000Y-86360000D03*
%TD*%
D12*
%TO.C,J1*%
X142240000Y-125730000D03*
D10*
X139700000Y-125730000D03*
X142240000Y-123190000D03*
X139700000Y-123190000D03*
X142240000Y-120650000D03*
X139700000Y-120650000D03*
X142240000Y-118110000D03*
X139700000Y-118110000D03*
X142240000Y-115570000D03*
X139700000Y-115570000D03*
X142240000Y-113030000D03*
X139700000Y-113030000D03*
X142240000Y-110490000D03*
X139700000Y-110490000D03*
X142240000Y-107950000D03*
X139700000Y-107950000D03*
X142240000Y-105410000D03*
X139700000Y-105410000D03*
X142240000Y-102870000D03*
X139700000Y-102870000D03*
X142240000Y-100330000D03*
X139700000Y-100330000D03*
X142240000Y-97790000D03*
X139700000Y-97790000D03*
X142240000Y-95250000D03*
X139700000Y-95250000D03*
X142240000Y-92710000D03*
X139700000Y-92710000D03*
X142240000Y-90170000D03*
X139700000Y-90170000D03*
X142240000Y-87630000D03*
X139700000Y-87630000D03*
X142240000Y-85090000D03*
X139700000Y-85090000D03*
X142240000Y-82550000D03*
X139700000Y-82550000D03*
X142240000Y-80010000D03*
X139700000Y-80010000D03*
X142240000Y-77470000D03*
X139700000Y-77470000D03*
%TD*%
%TO.C,*%
X119380000Y-128270000D03*
%TD*%
%TO.C,*%
X132080000Y-115570000D03*
%TD*%
%TO.C,*%
X119380000Y-105410000D03*
%TD*%
%TO.C,*%
X132080000Y-102870000D03*
%TD*%
D12*
%TO.C,U6*%
X199390000Y-135890000D03*
D10*
X199390000Y-138430000D03*
X199390000Y-140970000D03*
X199390000Y-143510000D03*
X199390000Y-146050000D03*
X199390000Y-148590000D03*
X209550000Y-148590000D03*
X209550000Y-146050000D03*
X209550000Y-143510000D03*
X209550000Y-140970000D03*
X209550000Y-138430000D03*
X209550000Y-135890000D03*
%TD*%
%TO.C,*%
X129540000Y-110490000D03*
%TD*%
%TO.C,*%
X121920000Y-113030000D03*
%TD*%
%TO.C,*%
X124460000Y-113030000D03*
%TD*%
%TO.C,*%
X124460000Y-107950000D03*
%TD*%
%TO.C,*%
X119380000Y-118110000D03*
%TD*%
%TO.C,*%
X119380000Y-102870000D03*
%TD*%
D12*
%TO.C,U4*%
X199390000Y-102870000D03*
D10*
X199390000Y-105410000D03*
X199390000Y-107950000D03*
X199390000Y-110490000D03*
X199390000Y-113030000D03*
X199390000Y-115570000D03*
X209550000Y-115570000D03*
X209550000Y-113030000D03*
X209550000Y-110490000D03*
X209550000Y-107950000D03*
X209550000Y-105410000D03*
X209550000Y-102870000D03*
%TD*%
D21*
%TO.C,J16*%
X131335000Y-57845000D03*
X131335000Y-65345000D03*
D22*
X127635000Y-61595000D03*
%TD*%
D10*
%TO.C,*%
X119380000Y-130810000D03*
%TD*%
D11*
%TO.C,R10*%
X154940000Y-57150000D03*
X147320000Y-57150000D03*
%TD*%
D10*
%TO.C,*%
X121920000Y-105410000D03*
%TD*%
D12*
%TO.C,J4*%
X194310000Y-80010000D03*
D10*
X194310000Y-77470000D03*
X194310000Y-74930000D03*
X194310000Y-72390000D03*
%TD*%
D11*
%TO.C,R8*%
X147320000Y-63500000D03*
X154940000Y-63500000D03*
%TD*%
%TO.C,R1*%
X167640000Y-60325000D03*
X175260000Y-60325000D03*
%TD*%
D10*
%TO.C,*%
X132080000Y-105410000D03*
%TD*%
D12*
%TO.C,J10*%
X214630000Y-63500000D03*
D10*
X214630000Y-60960000D03*
X214630000Y-58420000D03*
X214630000Y-55880000D03*
%TD*%
%TO.C,*%
X121920000Y-138430000D03*
%TD*%
%TO.C,*%
X124460000Y-135890000D03*
%TD*%
D12*
%TO.C,U1*%
X199390000Y-53340000D03*
D10*
X199390000Y-55880000D03*
X199390000Y-58420000D03*
X199390000Y-60960000D03*
X199390000Y-63500000D03*
X199390000Y-66040000D03*
X209550000Y-66040000D03*
X209550000Y-63500000D03*
X209550000Y-60960000D03*
X209550000Y-58420000D03*
X209550000Y-55880000D03*
X209550000Y-53340000D03*
%TD*%
%TO.C,*%
X127000000Y-123190000D03*
%TD*%
%TO.C,*%
X127000000Y-120650000D03*
%TD*%
%TO.C,*%
X134620000Y-125730000D03*
%TD*%
%TO.C,*%
X119380000Y-133350000D03*
%TD*%
%TO.C,*%
X127000000Y-135890000D03*
%TD*%
%TO.C,*%
X124460000Y-115570000D03*
%TD*%
D12*
%TO.C,J3*%
X233680000Y-147320000D03*
D10*
X231140000Y-147320000D03*
X233680000Y-144780000D03*
X231140000Y-144780000D03*
X233680000Y-142240000D03*
X231140000Y-142240000D03*
X233680000Y-139700000D03*
X231140000Y-139700000D03*
X233680000Y-137160000D03*
X231140000Y-137160000D03*
X233680000Y-134620000D03*
X231140000Y-134620000D03*
X233680000Y-132080000D03*
X231140000Y-132080000D03*
X233680000Y-129540000D03*
X231140000Y-129540000D03*
X233680000Y-127000000D03*
X231140000Y-127000000D03*
X233680000Y-124460000D03*
X231140000Y-124460000D03*
X233680000Y-121920000D03*
X231140000Y-121920000D03*
X233680000Y-119380000D03*
X231140000Y-119380000D03*
X233680000Y-116840000D03*
X231140000Y-116840000D03*
X233680000Y-114300000D03*
X231140000Y-114300000D03*
X233680000Y-111760000D03*
X231140000Y-111760000D03*
X233680000Y-109220000D03*
X231140000Y-109220000D03*
X233680000Y-106680000D03*
X231140000Y-106680000D03*
X233680000Y-104140000D03*
X231140000Y-104140000D03*
X233680000Y-101600000D03*
X231140000Y-101600000D03*
X233680000Y-99060000D03*
X231140000Y-99060000D03*
X233680000Y-96520000D03*
X231140000Y-96520000D03*
X233680000Y-93980000D03*
X231140000Y-93980000D03*
X233680000Y-91440000D03*
X231140000Y-91440000D03*
X233680000Y-88900000D03*
X231140000Y-88900000D03*
X233680000Y-86360000D03*
X231140000Y-86360000D03*
X233680000Y-83820000D03*
X231140000Y-83820000D03*
X233680000Y-81280000D03*
X231140000Y-81280000D03*
X233680000Y-78740000D03*
X231140000Y-78740000D03*
X233680000Y-76200000D03*
X231140000Y-76200000D03*
X233680000Y-73660000D03*
X231140000Y-73660000D03*
X233680000Y-71120000D03*
X231140000Y-71120000D03*
X233680000Y-68580000D03*
X231140000Y-68580000D03*
X233680000Y-66040000D03*
X231140000Y-66040000D03*
X233680000Y-63500000D03*
X231140000Y-63500000D03*
X233680000Y-60960000D03*
X231140000Y-60960000D03*
X233680000Y-58420000D03*
X231140000Y-58420000D03*
X233680000Y-55880000D03*
X231140000Y-55880000D03*
%TD*%
M02*
