%TF.GenerationSoftware,KiCad,Pcbnew,9.0.4*%
%TF.CreationDate,2026-01-14T20:41:36+13:00*%
%TF.ProjectId,AWS_CPU_Video_Decoder,4157535f-4350-4555-9f56-6964656f5f44,rev?*%
%TF.SameCoordinates,Original*%
%TF.FileFunction,Drillmap*%
%TF.FilePolarity,Positive*%
%FSLAX45Y45*%
G04 Gerber Fmt 4.5, Leading zero omitted, Abs format (unit mm)*
G04 Created by KiCad (PCBNEW 9.0.4) date 2026-01-14 20:41:36*
%MOMM*%
%LPD*%
G01*
G04 APERTURE LIST*
%ADD10C,0.050000*%
%ADD11C,0.200000*%
%ADD12C,0.100000*%
%ADD13C,0.110000*%
%ADD14C,0.130000*%
G04 APERTURE END LIST*
D10*
X24079200Y-5181600D02*
X10985500Y-5181600D01*
X24079200Y-15138400D02*
X10985500Y-15138400D01*
X24206200Y-5308600D02*
X24206200Y-15011400D01*
X10858500Y-5308600D02*
G75*
G02*
X10985500Y-5181600I127000J0D01*
G01*
X24079200Y-5181600D02*
G75*
G02*
X24206200Y-5308600I0J-127000D01*
G01*
X11318500Y-9985000D02*
G75*
G02*
X11318500Y-10335000I0J-175000D01*
G01*
X10858500Y-15011400D02*
X10858500Y-5308600D01*
X11160500Y-9985000D02*
X11318500Y-9985000D01*
X11160500Y-10335000D02*
X11318500Y-10335000D01*
X11160500Y-10335000D02*
G75*
G02*
X11160500Y-9985000I0J175000D01*
G01*
X10985500Y-15138400D02*
G75*
G02*
X10858500Y-15011400I0J127000D01*
G01*
X24206200Y-15011400D02*
G75*
G02*
X24079200Y-15138400I-127000J0D01*
G01*
D11*
D12*
X18212500Y-8494000D02*
X18242500Y-8524000D01*
X18242500Y-8494000D02*
X18212500Y-8524000D01*
X18501600Y-6766800D02*
X18531600Y-6796800D01*
X18531600Y-6766800D02*
X18501600Y-6796800D01*
X18501600Y-9116300D02*
X18531600Y-9146300D01*
X18531600Y-9116300D02*
X18501600Y-9146300D01*
X18577800Y-7732000D02*
X18607800Y-7762000D01*
X18607800Y-7732000D02*
X18577800Y-7762000D01*
X18654000Y-8748000D02*
X18684000Y-8778000D01*
X18684000Y-8748000D02*
X18654000Y-8778000D01*
X18704800Y-7478000D02*
X18734800Y-7508000D01*
X18734800Y-7478000D02*
X18704800Y-7508000D01*
X18730200Y-9129000D02*
X18760200Y-9159000D01*
X18760200Y-9129000D02*
X18730200Y-9159000D01*
X18806400Y-7224000D02*
X18836400Y-7254000D01*
X18836400Y-7224000D02*
X18806400Y-7254000D01*
X18882600Y-8875000D02*
X18912600Y-8905000D01*
X18912600Y-8875000D02*
X18882600Y-8905000D01*
X18958800Y-6335000D02*
X18988800Y-6365000D01*
X18988800Y-6335000D02*
X18958800Y-6365000D01*
X19035000Y-7986000D02*
X19065000Y-8016000D01*
X19065000Y-7986000D02*
X19035000Y-8016000D01*
X22667200Y-8595600D02*
X22697200Y-8625600D01*
X22697200Y-8595600D02*
X22667200Y-8625600D01*
X22667200Y-9433800D02*
X22697200Y-9463800D01*
X22697200Y-9433800D02*
X22667200Y-9463800D01*
X11734000Y-14097000D02*
G75*
G02*
X11634000Y-14097000I-50000J0D01*
G01*
X11634000Y-14097000D02*
G75*
G02*
X11734000Y-14097000I50000J0D01*
G01*
X11734000Y-14351000D02*
G75*
G02*
X11634000Y-14351000I-50000J0D01*
G01*
X11634000Y-14351000D02*
G75*
G02*
X11734000Y-14351000I50000J0D01*
G01*
X11988000Y-9017000D02*
G75*
G02*
X11888000Y-9017000I-50000J0D01*
G01*
X11888000Y-9017000D02*
G75*
G02*
X11988000Y-9017000I50000J0D01*
G01*
X11988000Y-9271000D02*
G75*
G02*
X11888000Y-9271000I-50000J0D01*
G01*
X11888000Y-9271000D02*
G75*
G02*
X11988000Y-9271000I50000J0D01*
G01*
X11988000Y-9525000D02*
G75*
G02*
X11888000Y-9525000I-50000J0D01*
G01*
X11888000Y-9525000D02*
G75*
G02*
X11988000Y-9525000I50000J0D01*
G01*
X11988000Y-9779000D02*
G75*
G02*
X11888000Y-9779000I-50000J0D01*
G01*
X11888000Y-9779000D02*
G75*
G02*
X11988000Y-9779000I50000J0D01*
G01*
X11988000Y-10033000D02*
G75*
G02*
X11888000Y-10033000I-50000J0D01*
G01*
X11888000Y-10033000D02*
G75*
G02*
X11988000Y-10033000I50000J0D01*
G01*
X11988000Y-10287000D02*
G75*
G02*
X11888000Y-10287000I-50000J0D01*
G01*
X11888000Y-10287000D02*
G75*
G02*
X11988000Y-10287000I50000J0D01*
G01*
X11988000Y-10541000D02*
G75*
G02*
X11888000Y-10541000I-50000J0D01*
G01*
X11888000Y-10541000D02*
G75*
G02*
X11988000Y-10541000I50000J0D01*
G01*
X11988000Y-10795000D02*
G75*
G02*
X11888000Y-10795000I-50000J0D01*
G01*
X11888000Y-10795000D02*
G75*
G02*
X11988000Y-10795000I50000J0D01*
G01*
X11988000Y-11049000D02*
G75*
G02*
X11888000Y-11049000I-50000J0D01*
G01*
X11888000Y-11049000D02*
G75*
G02*
X11988000Y-11049000I50000J0D01*
G01*
X11988000Y-11303000D02*
G75*
G02*
X11888000Y-11303000I-50000J0D01*
G01*
X11888000Y-11303000D02*
G75*
G02*
X11988000Y-11303000I50000J0D01*
G01*
X11988000Y-11557000D02*
G75*
G02*
X11888000Y-11557000I-50000J0D01*
G01*
X11888000Y-11557000D02*
G75*
G02*
X11988000Y-11557000I50000J0D01*
G01*
X11988000Y-11811000D02*
G75*
G02*
X11888000Y-11811000I-50000J0D01*
G01*
X11888000Y-11811000D02*
G75*
G02*
X11988000Y-11811000I50000J0D01*
G01*
X11988000Y-12065000D02*
G75*
G02*
X11888000Y-12065000I-50000J0D01*
G01*
X11888000Y-12065000D02*
G75*
G02*
X11988000Y-12065000I50000J0D01*
G01*
X11988000Y-12319000D02*
G75*
G02*
X11888000Y-12319000I-50000J0D01*
G01*
X11888000Y-12319000D02*
G75*
G02*
X11988000Y-12319000I50000J0D01*
G01*
X11988000Y-12573000D02*
G75*
G02*
X11888000Y-12573000I-50000J0D01*
G01*
X11888000Y-12573000D02*
G75*
G02*
X11988000Y-12573000I50000J0D01*
G01*
X11988000Y-12827000D02*
G75*
G02*
X11888000Y-12827000I-50000J0D01*
G01*
X11888000Y-12827000D02*
G75*
G02*
X11988000Y-12827000I50000J0D01*
G01*
X11988000Y-13081000D02*
G75*
G02*
X11888000Y-13081000I-50000J0D01*
G01*
X11888000Y-13081000D02*
G75*
G02*
X11988000Y-13081000I50000J0D01*
G01*
X11988000Y-13335000D02*
G75*
G02*
X11888000Y-13335000I-50000J0D01*
G01*
X11888000Y-13335000D02*
G75*
G02*
X11988000Y-13335000I50000J0D01*
G01*
X11988000Y-13589000D02*
G75*
G02*
X11888000Y-13589000I-50000J0D01*
G01*
X11888000Y-13589000D02*
G75*
G02*
X11988000Y-13589000I50000J0D01*
G01*
X11988000Y-13843000D02*
G75*
G02*
X11888000Y-13843000I-50000J0D01*
G01*
X11888000Y-13843000D02*
G75*
G02*
X11988000Y-13843000I50000J0D01*
G01*
X11988000Y-14097000D02*
G75*
G02*
X11888000Y-14097000I-50000J0D01*
G01*
X11888000Y-14097000D02*
G75*
G02*
X11988000Y-14097000I50000J0D01*
G01*
X11988000Y-14351000D02*
G75*
G02*
X11888000Y-14351000I-50000J0D01*
G01*
X11888000Y-14351000D02*
G75*
G02*
X11988000Y-14351000I50000J0D01*
G01*
X12242000Y-9017000D02*
G75*
G02*
X12142000Y-9017000I-50000J0D01*
G01*
X12142000Y-9017000D02*
G75*
G02*
X12242000Y-9017000I50000J0D01*
G01*
X12242000Y-9271000D02*
G75*
G02*
X12142000Y-9271000I-50000J0D01*
G01*
X12142000Y-9271000D02*
G75*
G02*
X12242000Y-9271000I50000J0D01*
G01*
X12242000Y-9525000D02*
G75*
G02*
X12142000Y-9525000I-50000J0D01*
G01*
X12142000Y-9525000D02*
G75*
G02*
X12242000Y-9525000I50000J0D01*
G01*
X12242000Y-9779000D02*
G75*
G02*
X12142000Y-9779000I-50000J0D01*
G01*
X12142000Y-9779000D02*
G75*
G02*
X12242000Y-9779000I50000J0D01*
G01*
X12242000Y-10033000D02*
G75*
G02*
X12142000Y-10033000I-50000J0D01*
G01*
X12142000Y-10033000D02*
G75*
G02*
X12242000Y-10033000I50000J0D01*
G01*
X12242000Y-10287000D02*
G75*
G02*
X12142000Y-10287000I-50000J0D01*
G01*
X12142000Y-10287000D02*
G75*
G02*
X12242000Y-10287000I50000J0D01*
G01*
X12242000Y-10541000D02*
G75*
G02*
X12142000Y-10541000I-50000J0D01*
G01*
X12142000Y-10541000D02*
G75*
G02*
X12242000Y-10541000I50000J0D01*
G01*
X12242000Y-10795000D02*
G75*
G02*
X12142000Y-10795000I-50000J0D01*
G01*
X12142000Y-10795000D02*
G75*
G02*
X12242000Y-10795000I50000J0D01*
G01*
X12242000Y-11049000D02*
G75*
G02*
X12142000Y-11049000I-50000J0D01*
G01*
X12142000Y-11049000D02*
G75*
G02*
X12242000Y-11049000I50000J0D01*
G01*
X12242000Y-11303000D02*
G75*
G02*
X12142000Y-11303000I-50000J0D01*
G01*
X12142000Y-11303000D02*
G75*
G02*
X12242000Y-11303000I50000J0D01*
G01*
X12242000Y-11557000D02*
G75*
G02*
X12142000Y-11557000I-50000J0D01*
G01*
X12142000Y-11557000D02*
G75*
G02*
X12242000Y-11557000I50000J0D01*
G01*
X12242000Y-11811000D02*
G75*
G02*
X12142000Y-11811000I-50000J0D01*
G01*
X12142000Y-11811000D02*
G75*
G02*
X12242000Y-11811000I50000J0D01*
G01*
X12242000Y-12065000D02*
G75*
G02*
X12142000Y-12065000I-50000J0D01*
G01*
X12142000Y-12065000D02*
G75*
G02*
X12242000Y-12065000I50000J0D01*
G01*
X12242000Y-12319000D02*
G75*
G02*
X12142000Y-12319000I-50000J0D01*
G01*
X12142000Y-12319000D02*
G75*
G02*
X12242000Y-12319000I50000J0D01*
G01*
X12242000Y-12573000D02*
G75*
G02*
X12142000Y-12573000I-50000J0D01*
G01*
X12142000Y-12573000D02*
G75*
G02*
X12242000Y-12573000I50000J0D01*
G01*
X12242000Y-12827000D02*
G75*
G02*
X12142000Y-12827000I-50000J0D01*
G01*
X12142000Y-12827000D02*
G75*
G02*
X12242000Y-12827000I50000J0D01*
G01*
X12242000Y-13081000D02*
G75*
G02*
X12142000Y-13081000I-50000J0D01*
G01*
X12142000Y-13081000D02*
G75*
G02*
X12242000Y-13081000I50000J0D01*
G01*
X12242000Y-13335000D02*
G75*
G02*
X12142000Y-13335000I-50000J0D01*
G01*
X12142000Y-13335000D02*
G75*
G02*
X12242000Y-13335000I50000J0D01*
G01*
X12242000Y-13589000D02*
G75*
G02*
X12142000Y-13589000I-50000J0D01*
G01*
X12142000Y-13589000D02*
G75*
G02*
X12242000Y-13589000I50000J0D01*
G01*
X12242000Y-13843000D02*
G75*
G02*
X12142000Y-13843000I-50000J0D01*
G01*
X12142000Y-13843000D02*
G75*
G02*
X12242000Y-13843000I50000J0D01*
G01*
X12242000Y-14097000D02*
G75*
G02*
X12142000Y-14097000I-50000J0D01*
G01*
X12142000Y-14097000D02*
G75*
G02*
X12242000Y-14097000I50000J0D01*
G01*
X12242000Y-14351000D02*
G75*
G02*
X12142000Y-14351000I-50000J0D01*
G01*
X12142000Y-14351000D02*
G75*
G02*
X12242000Y-14351000I50000J0D01*
G01*
X12496000Y-9017000D02*
G75*
G02*
X12396000Y-9017000I-50000J0D01*
G01*
X12396000Y-9017000D02*
G75*
G02*
X12496000Y-9017000I50000J0D01*
G01*
X12496000Y-9271000D02*
G75*
G02*
X12396000Y-9271000I-50000J0D01*
G01*
X12396000Y-9271000D02*
G75*
G02*
X12496000Y-9271000I50000J0D01*
G01*
X12496000Y-9525000D02*
G75*
G02*
X12396000Y-9525000I-50000J0D01*
G01*
X12396000Y-9525000D02*
G75*
G02*
X12496000Y-9525000I50000J0D01*
G01*
X12496000Y-9779000D02*
G75*
G02*
X12396000Y-9779000I-50000J0D01*
G01*
X12396000Y-9779000D02*
G75*
G02*
X12496000Y-9779000I50000J0D01*
G01*
X12496000Y-10033000D02*
G75*
G02*
X12396000Y-10033000I-50000J0D01*
G01*
X12396000Y-10033000D02*
G75*
G02*
X12496000Y-10033000I50000J0D01*
G01*
X12496000Y-10287000D02*
G75*
G02*
X12396000Y-10287000I-50000J0D01*
G01*
X12396000Y-10287000D02*
G75*
G02*
X12496000Y-10287000I50000J0D01*
G01*
X12496000Y-10541000D02*
G75*
G02*
X12396000Y-10541000I-50000J0D01*
G01*
X12396000Y-10541000D02*
G75*
G02*
X12496000Y-10541000I50000J0D01*
G01*
X12496000Y-10795000D02*
G75*
G02*
X12396000Y-10795000I-50000J0D01*
G01*
X12396000Y-10795000D02*
G75*
G02*
X12496000Y-10795000I50000J0D01*
G01*
X12496000Y-11049000D02*
G75*
G02*
X12396000Y-11049000I-50000J0D01*
G01*
X12396000Y-11049000D02*
G75*
G02*
X12496000Y-11049000I50000J0D01*
G01*
X12496000Y-11303000D02*
G75*
G02*
X12396000Y-11303000I-50000J0D01*
G01*
X12396000Y-11303000D02*
G75*
G02*
X12496000Y-11303000I50000J0D01*
G01*
X12496000Y-11557000D02*
G75*
G02*
X12396000Y-11557000I-50000J0D01*
G01*
X12396000Y-11557000D02*
G75*
G02*
X12496000Y-11557000I50000J0D01*
G01*
X12496000Y-11811000D02*
G75*
G02*
X12396000Y-11811000I-50000J0D01*
G01*
X12396000Y-11811000D02*
G75*
G02*
X12496000Y-11811000I50000J0D01*
G01*
X12496000Y-12065000D02*
G75*
G02*
X12396000Y-12065000I-50000J0D01*
G01*
X12396000Y-12065000D02*
G75*
G02*
X12496000Y-12065000I50000J0D01*
G01*
X12496000Y-12319000D02*
G75*
G02*
X12396000Y-12319000I-50000J0D01*
G01*
X12396000Y-12319000D02*
G75*
G02*
X12496000Y-12319000I50000J0D01*
G01*
X12496000Y-12573000D02*
G75*
G02*
X12396000Y-12573000I-50000J0D01*
G01*
X12396000Y-12573000D02*
G75*
G02*
X12496000Y-12573000I50000J0D01*
G01*
X12496000Y-12827000D02*
G75*
G02*
X12396000Y-12827000I-50000J0D01*
G01*
X12396000Y-12827000D02*
G75*
G02*
X12496000Y-12827000I50000J0D01*
G01*
X12496000Y-13081000D02*
G75*
G02*
X12396000Y-13081000I-50000J0D01*
G01*
X12396000Y-13081000D02*
G75*
G02*
X12496000Y-13081000I50000J0D01*
G01*
X12496000Y-13335000D02*
G75*
G02*
X12396000Y-13335000I-50000J0D01*
G01*
X12396000Y-13335000D02*
G75*
G02*
X12496000Y-13335000I50000J0D01*
G01*
X12496000Y-13589000D02*
G75*
G02*
X12396000Y-13589000I-50000J0D01*
G01*
X12396000Y-13589000D02*
G75*
G02*
X12496000Y-13589000I50000J0D01*
G01*
X12496000Y-13843000D02*
G75*
G02*
X12396000Y-13843000I-50000J0D01*
G01*
X12396000Y-13843000D02*
G75*
G02*
X12496000Y-13843000I50000J0D01*
G01*
X12496000Y-14097000D02*
G75*
G02*
X12396000Y-14097000I-50000J0D01*
G01*
X12396000Y-14097000D02*
G75*
G02*
X12496000Y-14097000I50000J0D01*
G01*
X12496000Y-14351000D02*
G75*
G02*
X12396000Y-14351000I-50000J0D01*
G01*
X12396000Y-14351000D02*
G75*
G02*
X12496000Y-14351000I50000J0D01*
G01*
X12750000Y-9017000D02*
G75*
G02*
X12650000Y-9017000I-50000J0D01*
G01*
X12650000Y-9017000D02*
G75*
G02*
X12750000Y-9017000I50000J0D01*
G01*
X12750000Y-9271000D02*
G75*
G02*
X12650000Y-9271000I-50000J0D01*
G01*
X12650000Y-9271000D02*
G75*
G02*
X12750000Y-9271000I50000J0D01*
G01*
X12750000Y-9525000D02*
G75*
G02*
X12650000Y-9525000I-50000J0D01*
G01*
X12650000Y-9525000D02*
G75*
G02*
X12750000Y-9525000I50000J0D01*
G01*
X12750000Y-9779000D02*
G75*
G02*
X12650000Y-9779000I-50000J0D01*
G01*
X12650000Y-9779000D02*
G75*
G02*
X12750000Y-9779000I50000J0D01*
G01*
X12750000Y-10033000D02*
G75*
G02*
X12650000Y-10033000I-50000J0D01*
G01*
X12650000Y-10033000D02*
G75*
G02*
X12750000Y-10033000I50000J0D01*
G01*
X12750000Y-10287000D02*
G75*
G02*
X12650000Y-10287000I-50000J0D01*
G01*
X12650000Y-10287000D02*
G75*
G02*
X12750000Y-10287000I50000J0D01*
G01*
X12750000Y-10541000D02*
G75*
G02*
X12650000Y-10541000I-50000J0D01*
G01*
X12650000Y-10541000D02*
G75*
G02*
X12750000Y-10541000I50000J0D01*
G01*
X12750000Y-10795000D02*
G75*
G02*
X12650000Y-10795000I-50000J0D01*
G01*
X12650000Y-10795000D02*
G75*
G02*
X12750000Y-10795000I50000J0D01*
G01*
X12750000Y-11049000D02*
G75*
G02*
X12650000Y-11049000I-50000J0D01*
G01*
X12650000Y-11049000D02*
G75*
G02*
X12750000Y-11049000I50000J0D01*
G01*
X12750000Y-11303000D02*
G75*
G02*
X12650000Y-11303000I-50000J0D01*
G01*
X12650000Y-11303000D02*
G75*
G02*
X12750000Y-11303000I50000J0D01*
G01*
X12750000Y-11557000D02*
G75*
G02*
X12650000Y-11557000I-50000J0D01*
G01*
X12650000Y-11557000D02*
G75*
G02*
X12750000Y-11557000I50000J0D01*
G01*
X12750000Y-11811000D02*
G75*
G02*
X12650000Y-11811000I-50000J0D01*
G01*
X12650000Y-11811000D02*
G75*
G02*
X12750000Y-11811000I50000J0D01*
G01*
X12750000Y-12065000D02*
G75*
G02*
X12650000Y-12065000I-50000J0D01*
G01*
X12650000Y-12065000D02*
G75*
G02*
X12750000Y-12065000I50000J0D01*
G01*
X12750000Y-12319000D02*
G75*
G02*
X12650000Y-12319000I-50000J0D01*
G01*
X12650000Y-12319000D02*
G75*
G02*
X12750000Y-12319000I50000J0D01*
G01*
X12750000Y-12573000D02*
G75*
G02*
X12650000Y-12573000I-50000J0D01*
G01*
X12650000Y-12573000D02*
G75*
G02*
X12750000Y-12573000I50000J0D01*
G01*
X12750000Y-12827000D02*
G75*
G02*
X12650000Y-12827000I-50000J0D01*
G01*
X12650000Y-12827000D02*
G75*
G02*
X12750000Y-12827000I50000J0D01*
G01*
X12750000Y-13081000D02*
G75*
G02*
X12650000Y-13081000I-50000J0D01*
G01*
X12650000Y-13081000D02*
G75*
G02*
X12750000Y-13081000I50000J0D01*
G01*
X12750000Y-13335000D02*
G75*
G02*
X12650000Y-13335000I-50000J0D01*
G01*
X12650000Y-13335000D02*
G75*
G02*
X12750000Y-13335000I50000J0D01*
G01*
X12750000Y-13589000D02*
G75*
G02*
X12650000Y-13589000I-50000J0D01*
G01*
X12650000Y-13589000D02*
G75*
G02*
X12750000Y-13589000I50000J0D01*
G01*
X12750000Y-13843000D02*
G75*
G02*
X12650000Y-13843000I-50000J0D01*
G01*
X12650000Y-13843000D02*
G75*
G02*
X12750000Y-13843000I50000J0D01*
G01*
X12750000Y-14097000D02*
G75*
G02*
X12650000Y-14097000I-50000J0D01*
G01*
X12650000Y-14097000D02*
G75*
G02*
X12750000Y-14097000I50000J0D01*
G01*
X12750000Y-14351000D02*
G75*
G02*
X12650000Y-14351000I-50000J0D01*
G01*
X12650000Y-14351000D02*
G75*
G02*
X12750000Y-14351000I50000J0D01*
G01*
X13004000Y-9017000D02*
G75*
G02*
X12904000Y-9017000I-50000J0D01*
G01*
X12904000Y-9017000D02*
G75*
G02*
X13004000Y-9017000I50000J0D01*
G01*
X13004000Y-9271000D02*
G75*
G02*
X12904000Y-9271000I-50000J0D01*
G01*
X12904000Y-9271000D02*
G75*
G02*
X13004000Y-9271000I50000J0D01*
G01*
X13004000Y-9525000D02*
G75*
G02*
X12904000Y-9525000I-50000J0D01*
G01*
X12904000Y-9525000D02*
G75*
G02*
X13004000Y-9525000I50000J0D01*
G01*
X13004000Y-9779000D02*
G75*
G02*
X12904000Y-9779000I-50000J0D01*
G01*
X12904000Y-9779000D02*
G75*
G02*
X13004000Y-9779000I50000J0D01*
G01*
X13004000Y-10033000D02*
G75*
G02*
X12904000Y-10033000I-50000J0D01*
G01*
X12904000Y-10033000D02*
G75*
G02*
X13004000Y-10033000I50000J0D01*
G01*
X13004000Y-10287000D02*
G75*
G02*
X12904000Y-10287000I-50000J0D01*
G01*
X12904000Y-10287000D02*
G75*
G02*
X13004000Y-10287000I50000J0D01*
G01*
X13004000Y-10541000D02*
G75*
G02*
X12904000Y-10541000I-50000J0D01*
G01*
X12904000Y-10541000D02*
G75*
G02*
X13004000Y-10541000I50000J0D01*
G01*
X13004000Y-10795000D02*
G75*
G02*
X12904000Y-10795000I-50000J0D01*
G01*
X12904000Y-10795000D02*
G75*
G02*
X13004000Y-10795000I50000J0D01*
G01*
X13004000Y-11049000D02*
G75*
G02*
X12904000Y-11049000I-50000J0D01*
G01*
X12904000Y-11049000D02*
G75*
G02*
X13004000Y-11049000I50000J0D01*
G01*
X13004000Y-11303000D02*
G75*
G02*
X12904000Y-11303000I-50000J0D01*
G01*
X12904000Y-11303000D02*
G75*
G02*
X13004000Y-11303000I50000J0D01*
G01*
X13004000Y-11557000D02*
G75*
G02*
X12904000Y-11557000I-50000J0D01*
G01*
X12904000Y-11557000D02*
G75*
G02*
X13004000Y-11557000I50000J0D01*
G01*
X13004000Y-11811000D02*
G75*
G02*
X12904000Y-11811000I-50000J0D01*
G01*
X12904000Y-11811000D02*
G75*
G02*
X13004000Y-11811000I50000J0D01*
G01*
X13004000Y-12065000D02*
G75*
G02*
X12904000Y-12065000I-50000J0D01*
G01*
X12904000Y-12065000D02*
G75*
G02*
X13004000Y-12065000I50000J0D01*
G01*
X13004000Y-12319000D02*
G75*
G02*
X12904000Y-12319000I-50000J0D01*
G01*
X12904000Y-12319000D02*
G75*
G02*
X13004000Y-12319000I50000J0D01*
G01*
X13004000Y-12573000D02*
G75*
G02*
X12904000Y-12573000I-50000J0D01*
G01*
X12904000Y-12573000D02*
G75*
G02*
X13004000Y-12573000I50000J0D01*
G01*
X13004000Y-12827000D02*
G75*
G02*
X12904000Y-12827000I-50000J0D01*
G01*
X12904000Y-12827000D02*
G75*
G02*
X13004000Y-12827000I50000J0D01*
G01*
X13004000Y-13081000D02*
G75*
G02*
X12904000Y-13081000I-50000J0D01*
G01*
X12904000Y-13081000D02*
G75*
G02*
X13004000Y-13081000I50000J0D01*
G01*
X13004000Y-13335000D02*
G75*
G02*
X12904000Y-13335000I-50000J0D01*
G01*
X12904000Y-13335000D02*
G75*
G02*
X13004000Y-13335000I50000J0D01*
G01*
X13004000Y-13589000D02*
G75*
G02*
X12904000Y-13589000I-50000J0D01*
G01*
X12904000Y-13589000D02*
G75*
G02*
X13004000Y-13589000I50000J0D01*
G01*
X13004000Y-13843000D02*
G75*
G02*
X12904000Y-13843000I-50000J0D01*
G01*
X12904000Y-13843000D02*
G75*
G02*
X13004000Y-13843000I50000J0D01*
G01*
X13004000Y-14097000D02*
G75*
G02*
X12904000Y-14097000I-50000J0D01*
G01*
X12904000Y-14097000D02*
G75*
G02*
X13004000Y-14097000I50000J0D01*
G01*
X13004000Y-14351000D02*
G75*
G02*
X12904000Y-14351000I-50000J0D01*
G01*
X12904000Y-14351000D02*
G75*
G02*
X13004000Y-14351000I50000J0D01*
G01*
X13258000Y-9017000D02*
G75*
G02*
X13158000Y-9017000I-50000J0D01*
G01*
X13158000Y-9017000D02*
G75*
G02*
X13258000Y-9017000I50000J0D01*
G01*
X13258000Y-9271000D02*
G75*
G02*
X13158000Y-9271000I-50000J0D01*
G01*
X13158000Y-9271000D02*
G75*
G02*
X13258000Y-9271000I50000J0D01*
G01*
X13258000Y-9525000D02*
G75*
G02*
X13158000Y-9525000I-50000J0D01*
G01*
X13158000Y-9525000D02*
G75*
G02*
X13258000Y-9525000I50000J0D01*
G01*
X13258000Y-9779000D02*
G75*
G02*
X13158000Y-9779000I-50000J0D01*
G01*
X13158000Y-9779000D02*
G75*
G02*
X13258000Y-9779000I50000J0D01*
G01*
X13258000Y-10033000D02*
G75*
G02*
X13158000Y-10033000I-50000J0D01*
G01*
X13158000Y-10033000D02*
G75*
G02*
X13258000Y-10033000I50000J0D01*
G01*
X13258000Y-10287000D02*
G75*
G02*
X13158000Y-10287000I-50000J0D01*
G01*
X13158000Y-10287000D02*
G75*
G02*
X13258000Y-10287000I50000J0D01*
G01*
X13258000Y-10541000D02*
G75*
G02*
X13158000Y-10541000I-50000J0D01*
G01*
X13158000Y-10541000D02*
G75*
G02*
X13258000Y-10541000I50000J0D01*
G01*
X13258000Y-10795000D02*
G75*
G02*
X13158000Y-10795000I-50000J0D01*
G01*
X13158000Y-10795000D02*
G75*
G02*
X13258000Y-10795000I50000J0D01*
G01*
X13258000Y-11049000D02*
G75*
G02*
X13158000Y-11049000I-50000J0D01*
G01*
X13158000Y-11049000D02*
G75*
G02*
X13258000Y-11049000I50000J0D01*
G01*
X13258000Y-11303000D02*
G75*
G02*
X13158000Y-11303000I-50000J0D01*
G01*
X13158000Y-11303000D02*
G75*
G02*
X13258000Y-11303000I50000J0D01*
G01*
X13258000Y-11557000D02*
G75*
G02*
X13158000Y-11557000I-50000J0D01*
G01*
X13158000Y-11557000D02*
G75*
G02*
X13258000Y-11557000I50000J0D01*
G01*
X13258000Y-11811000D02*
G75*
G02*
X13158000Y-11811000I-50000J0D01*
G01*
X13158000Y-11811000D02*
G75*
G02*
X13258000Y-11811000I50000J0D01*
G01*
X13258000Y-12065000D02*
G75*
G02*
X13158000Y-12065000I-50000J0D01*
G01*
X13158000Y-12065000D02*
G75*
G02*
X13258000Y-12065000I50000J0D01*
G01*
X13258000Y-12319000D02*
G75*
G02*
X13158000Y-12319000I-50000J0D01*
G01*
X13158000Y-12319000D02*
G75*
G02*
X13258000Y-12319000I50000J0D01*
G01*
X13258000Y-12573000D02*
G75*
G02*
X13158000Y-12573000I-50000J0D01*
G01*
X13158000Y-12573000D02*
G75*
G02*
X13258000Y-12573000I50000J0D01*
G01*
X13258000Y-12827000D02*
G75*
G02*
X13158000Y-12827000I-50000J0D01*
G01*
X13158000Y-12827000D02*
G75*
G02*
X13258000Y-12827000I50000J0D01*
G01*
X13258000Y-13081000D02*
G75*
G02*
X13158000Y-13081000I-50000J0D01*
G01*
X13158000Y-13081000D02*
G75*
G02*
X13258000Y-13081000I50000J0D01*
G01*
X13258000Y-13335000D02*
G75*
G02*
X13158000Y-13335000I-50000J0D01*
G01*
X13158000Y-13335000D02*
G75*
G02*
X13258000Y-13335000I50000J0D01*
G01*
X13258000Y-13589000D02*
G75*
G02*
X13158000Y-13589000I-50000J0D01*
G01*
X13158000Y-13589000D02*
G75*
G02*
X13258000Y-13589000I50000J0D01*
G01*
X13258000Y-13843000D02*
G75*
G02*
X13158000Y-13843000I-50000J0D01*
G01*
X13158000Y-13843000D02*
G75*
G02*
X13258000Y-13843000I50000J0D01*
G01*
X13258000Y-14097000D02*
G75*
G02*
X13158000Y-14097000I-50000J0D01*
G01*
X13158000Y-14097000D02*
G75*
G02*
X13258000Y-14097000I50000J0D01*
G01*
X13258000Y-14351000D02*
G75*
G02*
X13158000Y-14351000I-50000J0D01*
G01*
X13158000Y-14351000D02*
G75*
G02*
X13258000Y-14351000I50000J0D01*
G01*
X13512000Y-9017000D02*
G75*
G02*
X13412000Y-9017000I-50000J0D01*
G01*
X13412000Y-9017000D02*
G75*
G02*
X13512000Y-9017000I50000J0D01*
G01*
X13512000Y-9271000D02*
G75*
G02*
X13412000Y-9271000I-50000J0D01*
G01*
X13412000Y-9271000D02*
G75*
G02*
X13512000Y-9271000I50000J0D01*
G01*
X13512000Y-9525000D02*
G75*
G02*
X13412000Y-9525000I-50000J0D01*
G01*
X13412000Y-9525000D02*
G75*
G02*
X13512000Y-9525000I50000J0D01*
G01*
X13512000Y-9779000D02*
G75*
G02*
X13412000Y-9779000I-50000J0D01*
G01*
X13412000Y-9779000D02*
G75*
G02*
X13512000Y-9779000I50000J0D01*
G01*
X13512000Y-10033000D02*
G75*
G02*
X13412000Y-10033000I-50000J0D01*
G01*
X13412000Y-10033000D02*
G75*
G02*
X13512000Y-10033000I50000J0D01*
G01*
X13512000Y-10287000D02*
G75*
G02*
X13412000Y-10287000I-50000J0D01*
G01*
X13412000Y-10287000D02*
G75*
G02*
X13512000Y-10287000I50000J0D01*
G01*
X13512000Y-10541000D02*
G75*
G02*
X13412000Y-10541000I-50000J0D01*
G01*
X13412000Y-10541000D02*
G75*
G02*
X13512000Y-10541000I50000J0D01*
G01*
X13512000Y-10795000D02*
G75*
G02*
X13412000Y-10795000I-50000J0D01*
G01*
X13412000Y-10795000D02*
G75*
G02*
X13512000Y-10795000I50000J0D01*
G01*
X13512000Y-11049000D02*
G75*
G02*
X13412000Y-11049000I-50000J0D01*
G01*
X13412000Y-11049000D02*
G75*
G02*
X13512000Y-11049000I50000J0D01*
G01*
X13512000Y-11303000D02*
G75*
G02*
X13412000Y-11303000I-50000J0D01*
G01*
X13412000Y-11303000D02*
G75*
G02*
X13512000Y-11303000I50000J0D01*
G01*
X13512000Y-11557000D02*
G75*
G02*
X13412000Y-11557000I-50000J0D01*
G01*
X13412000Y-11557000D02*
G75*
G02*
X13512000Y-11557000I50000J0D01*
G01*
X13512000Y-11811000D02*
G75*
G02*
X13412000Y-11811000I-50000J0D01*
G01*
X13412000Y-11811000D02*
G75*
G02*
X13512000Y-11811000I50000J0D01*
G01*
X13512000Y-12065000D02*
G75*
G02*
X13412000Y-12065000I-50000J0D01*
G01*
X13412000Y-12065000D02*
G75*
G02*
X13512000Y-12065000I50000J0D01*
G01*
X13512000Y-12319000D02*
G75*
G02*
X13412000Y-12319000I-50000J0D01*
G01*
X13412000Y-12319000D02*
G75*
G02*
X13512000Y-12319000I50000J0D01*
G01*
X13512000Y-12573000D02*
G75*
G02*
X13412000Y-12573000I-50000J0D01*
G01*
X13412000Y-12573000D02*
G75*
G02*
X13512000Y-12573000I50000J0D01*
G01*
X13512000Y-12827000D02*
G75*
G02*
X13412000Y-12827000I-50000J0D01*
G01*
X13412000Y-12827000D02*
G75*
G02*
X13512000Y-12827000I50000J0D01*
G01*
X13512000Y-13081000D02*
G75*
G02*
X13412000Y-13081000I-50000J0D01*
G01*
X13412000Y-13081000D02*
G75*
G02*
X13512000Y-13081000I50000J0D01*
G01*
X13512000Y-13335000D02*
G75*
G02*
X13412000Y-13335000I-50000J0D01*
G01*
X13412000Y-13335000D02*
G75*
G02*
X13512000Y-13335000I50000J0D01*
G01*
X13512000Y-13589000D02*
G75*
G02*
X13412000Y-13589000I-50000J0D01*
G01*
X13412000Y-13589000D02*
G75*
G02*
X13512000Y-13589000I50000J0D01*
G01*
X13512000Y-13843000D02*
G75*
G02*
X13412000Y-13843000I-50000J0D01*
G01*
X13412000Y-13843000D02*
G75*
G02*
X13512000Y-13843000I50000J0D01*
G01*
X13512000Y-14097000D02*
G75*
G02*
X13412000Y-14097000I-50000J0D01*
G01*
X13412000Y-14097000D02*
G75*
G02*
X13512000Y-14097000I50000J0D01*
G01*
X13512000Y-14351000D02*
G75*
G02*
X13412000Y-14351000I-50000J0D01*
G01*
X13412000Y-14351000D02*
G75*
G02*
X13512000Y-14351000I50000J0D01*
G01*
X13766000Y-14097000D02*
G75*
G02*
X13666000Y-14097000I-50000J0D01*
G01*
X13666000Y-14097000D02*
G75*
G02*
X13766000Y-14097000I50000J0D01*
G01*
X13766000Y-14351000D02*
G75*
G02*
X13666000Y-14351000I-50000J0D01*
G01*
X13666000Y-14351000D02*
G75*
G02*
X13766000Y-14351000I50000J0D01*
G01*
X14020000Y-7747000D02*
G75*
G02*
X13920000Y-7747000I-50000J0D01*
G01*
X13920000Y-7747000D02*
G75*
G02*
X14020000Y-7747000I50000J0D01*
G01*
X14020000Y-8001000D02*
G75*
G02*
X13920000Y-8001000I-50000J0D01*
G01*
X13920000Y-8001000D02*
G75*
G02*
X14020000Y-8001000I50000J0D01*
G01*
X14020000Y-8255000D02*
G75*
G02*
X13920000Y-8255000I-50000J0D01*
G01*
X13920000Y-8255000D02*
G75*
G02*
X14020000Y-8255000I50000J0D01*
G01*
X14020000Y-8509000D02*
G75*
G02*
X13920000Y-8509000I-50000J0D01*
G01*
X13920000Y-8509000D02*
G75*
G02*
X14020000Y-8509000I50000J0D01*
G01*
X14020000Y-8763000D02*
G75*
G02*
X13920000Y-8763000I-50000J0D01*
G01*
X13920000Y-8763000D02*
G75*
G02*
X14020000Y-8763000I50000J0D01*
G01*
X14020000Y-9017000D02*
G75*
G02*
X13920000Y-9017000I-50000J0D01*
G01*
X13920000Y-9017000D02*
G75*
G02*
X14020000Y-9017000I50000J0D01*
G01*
X14020000Y-9271000D02*
G75*
G02*
X13920000Y-9271000I-50000J0D01*
G01*
X13920000Y-9271000D02*
G75*
G02*
X14020000Y-9271000I50000J0D01*
G01*
X14020000Y-9525000D02*
G75*
G02*
X13920000Y-9525000I-50000J0D01*
G01*
X13920000Y-9525000D02*
G75*
G02*
X14020000Y-9525000I50000J0D01*
G01*
X14020000Y-9779000D02*
G75*
G02*
X13920000Y-9779000I-50000J0D01*
G01*
X13920000Y-9779000D02*
G75*
G02*
X14020000Y-9779000I50000J0D01*
G01*
X14020000Y-10033000D02*
G75*
G02*
X13920000Y-10033000I-50000J0D01*
G01*
X13920000Y-10033000D02*
G75*
G02*
X14020000Y-10033000I50000J0D01*
G01*
X14020000Y-10287000D02*
G75*
G02*
X13920000Y-10287000I-50000J0D01*
G01*
X13920000Y-10287000D02*
G75*
G02*
X14020000Y-10287000I50000J0D01*
G01*
X14020000Y-10541000D02*
G75*
G02*
X13920000Y-10541000I-50000J0D01*
G01*
X13920000Y-10541000D02*
G75*
G02*
X14020000Y-10541000I50000J0D01*
G01*
X14020000Y-10795000D02*
G75*
G02*
X13920000Y-10795000I-50000J0D01*
G01*
X13920000Y-10795000D02*
G75*
G02*
X14020000Y-10795000I50000J0D01*
G01*
X14020000Y-11049000D02*
G75*
G02*
X13920000Y-11049000I-50000J0D01*
G01*
X13920000Y-11049000D02*
G75*
G02*
X14020000Y-11049000I50000J0D01*
G01*
X14020000Y-11303000D02*
G75*
G02*
X13920000Y-11303000I-50000J0D01*
G01*
X13920000Y-11303000D02*
G75*
G02*
X14020000Y-11303000I50000J0D01*
G01*
X14020000Y-11557000D02*
G75*
G02*
X13920000Y-11557000I-50000J0D01*
G01*
X13920000Y-11557000D02*
G75*
G02*
X14020000Y-11557000I50000J0D01*
G01*
X14020000Y-11811000D02*
G75*
G02*
X13920000Y-11811000I-50000J0D01*
G01*
X13920000Y-11811000D02*
G75*
G02*
X14020000Y-11811000I50000J0D01*
G01*
X14020000Y-12065000D02*
G75*
G02*
X13920000Y-12065000I-50000J0D01*
G01*
X13920000Y-12065000D02*
G75*
G02*
X14020000Y-12065000I50000J0D01*
G01*
X14020000Y-12319000D02*
G75*
G02*
X13920000Y-12319000I-50000J0D01*
G01*
X13920000Y-12319000D02*
G75*
G02*
X14020000Y-12319000I50000J0D01*
G01*
X14020000Y-12573000D02*
G75*
G02*
X13920000Y-12573000I-50000J0D01*
G01*
X13920000Y-12573000D02*
G75*
G02*
X14020000Y-12573000I50000J0D01*
G01*
X14274000Y-7747000D02*
G75*
G02*
X14174000Y-7747000I-50000J0D01*
G01*
X14174000Y-7747000D02*
G75*
G02*
X14274000Y-7747000I50000J0D01*
G01*
X14274000Y-8001000D02*
G75*
G02*
X14174000Y-8001000I-50000J0D01*
G01*
X14174000Y-8001000D02*
G75*
G02*
X14274000Y-8001000I50000J0D01*
G01*
X14274000Y-8255000D02*
G75*
G02*
X14174000Y-8255000I-50000J0D01*
G01*
X14174000Y-8255000D02*
G75*
G02*
X14274000Y-8255000I50000J0D01*
G01*
X14274000Y-8509000D02*
G75*
G02*
X14174000Y-8509000I-50000J0D01*
G01*
X14174000Y-8509000D02*
G75*
G02*
X14274000Y-8509000I50000J0D01*
G01*
X14274000Y-8763000D02*
G75*
G02*
X14174000Y-8763000I-50000J0D01*
G01*
X14174000Y-8763000D02*
G75*
G02*
X14274000Y-8763000I50000J0D01*
G01*
X14274000Y-9017000D02*
G75*
G02*
X14174000Y-9017000I-50000J0D01*
G01*
X14174000Y-9017000D02*
G75*
G02*
X14274000Y-9017000I50000J0D01*
G01*
X14274000Y-9271000D02*
G75*
G02*
X14174000Y-9271000I-50000J0D01*
G01*
X14174000Y-9271000D02*
G75*
G02*
X14274000Y-9271000I50000J0D01*
G01*
X14274000Y-9525000D02*
G75*
G02*
X14174000Y-9525000I-50000J0D01*
G01*
X14174000Y-9525000D02*
G75*
G02*
X14274000Y-9525000I50000J0D01*
G01*
X14274000Y-9779000D02*
G75*
G02*
X14174000Y-9779000I-50000J0D01*
G01*
X14174000Y-9779000D02*
G75*
G02*
X14274000Y-9779000I50000J0D01*
G01*
X14274000Y-10033000D02*
G75*
G02*
X14174000Y-10033000I-50000J0D01*
G01*
X14174000Y-10033000D02*
G75*
G02*
X14274000Y-10033000I50000J0D01*
G01*
X14274000Y-10287000D02*
G75*
G02*
X14174000Y-10287000I-50000J0D01*
G01*
X14174000Y-10287000D02*
G75*
G02*
X14274000Y-10287000I50000J0D01*
G01*
X14274000Y-10541000D02*
G75*
G02*
X14174000Y-10541000I-50000J0D01*
G01*
X14174000Y-10541000D02*
G75*
G02*
X14274000Y-10541000I50000J0D01*
G01*
X14274000Y-10795000D02*
G75*
G02*
X14174000Y-10795000I-50000J0D01*
G01*
X14174000Y-10795000D02*
G75*
G02*
X14274000Y-10795000I50000J0D01*
G01*
X14274000Y-11049000D02*
G75*
G02*
X14174000Y-11049000I-50000J0D01*
G01*
X14174000Y-11049000D02*
G75*
G02*
X14274000Y-11049000I50000J0D01*
G01*
X14274000Y-11303000D02*
G75*
G02*
X14174000Y-11303000I-50000J0D01*
G01*
X14174000Y-11303000D02*
G75*
G02*
X14274000Y-11303000I50000J0D01*
G01*
X14274000Y-11557000D02*
G75*
G02*
X14174000Y-11557000I-50000J0D01*
G01*
X14174000Y-11557000D02*
G75*
G02*
X14274000Y-11557000I50000J0D01*
G01*
X14274000Y-11811000D02*
G75*
G02*
X14174000Y-11811000I-50000J0D01*
G01*
X14174000Y-11811000D02*
G75*
G02*
X14274000Y-11811000I50000J0D01*
G01*
X14274000Y-12065000D02*
G75*
G02*
X14174000Y-12065000I-50000J0D01*
G01*
X14174000Y-12065000D02*
G75*
G02*
X14274000Y-12065000I50000J0D01*
G01*
X14274000Y-12319000D02*
G75*
G02*
X14174000Y-12319000I-50000J0D01*
G01*
X14174000Y-12319000D02*
G75*
G02*
X14274000Y-12319000I50000J0D01*
G01*
X14274000Y-12573000D02*
G75*
G02*
X14174000Y-12573000I-50000J0D01*
G01*
X14174000Y-12573000D02*
G75*
G02*
X14274000Y-12573000I50000J0D01*
G01*
X15036000Y-7747000D02*
G75*
G02*
X14936000Y-7747000I-50000J0D01*
G01*
X14936000Y-7747000D02*
G75*
G02*
X15036000Y-7747000I50000J0D01*
G01*
X15036000Y-8001000D02*
G75*
G02*
X14936000Y-8001000I-50000J0D01*
G01*
X14936000Y-8001000D02*
G75*
G02*
X15036000Y-8001000I50000J0D01*
G01*
X15036000Y-8255000D02*
G75*
G02*
X14936000Y-8255000I-50000J0D01*
G01*
X14936000Y-8255000D02*
G75*
G02*
X15036000Y-8255000I50000J0D01*
G01*
X15036000Y-8509000D02*
G75*
G02*
X14936000Y-8509000I-50000J0D01*
G01*
X14936000Y-8509000D02*
G75*
G02*
X15036000Y-8509000I50000J0D01*
G01*
X15036000Y-8763000D02*
G75*
G02*
X14936000Y-8763000I-50000J0D01*
G01*
X14936000Y-8763000D02*
G75*
G02*
X15036000Y-8763000I50000J0D01*
G01*
X15036000Y-9017000D02*
G75*
G02*
X14936000Y-9017000I-50000J0D01*
G01*
X14936000Y-9017000D02*
G75*
G02*
X15036000Y-9017000I50000J0D01*
G01*
X15036000Y-9271000D02*
G75*
G02*
X14936000Y-9271000I-50000J0D01*
G01*
X14936000Y-9271000D02*
G75*
G02*
X15036000Y-9271000I50000J0D01*
G01*
X15036000Y-9525000D02*
G75*
G02*
X14936000Y-9525000I-50000J0D01*
G01*
X14936000Y-9525000D02*
G75*
G02*
X15036000Y-9525000I50000J0D01*
G01*
X15036000Y-9779000D02*
G75*
G02*
X14936000Y-9779000I-50000J0D01*
G01*
X14936000Y-9779000D02*
G75*
G02*
X15036000Y-9779000I50000J0D01*
G01*
X15036000Y-10033000D02*
G75*
G02*
X14936000Y-10033000I-50000J0D01*
G01*
X14936000Y-10033000D02*
G75*
G02*
X15036000Y-10033000I50000J0D01*
G01*
X15036000Y-10287000D02*
G75*
G02*
X14936000Y-10287000I-50000J0D01*
G01*
X14936000Y-10287000D02*
G75*
G02*
X15036000Y-10287000I50000J0D01*
G01*
X15036000Y-10541000D02*
G75*
G02*
X14936000Y-10541000I-50000J0D01*
G01*
X14936000Y-10541000D02*
G75*
G02*
X15036000Y-10541000I50000J0D01*
G01*
X15036000Y-10795000D02*
G75*
G02*
X14936000Y-10795000I-50000J0D01*
G01*
X14936000Y-10795000D02*
G75*
G02*
X15036000Y-10795000I50000J0D01*
G01*
X15036000Y-11049000D02*
G75*
G02*
X14936000Y-11049000I-50000J0D01*
G01*
X14936000Y-11049000D02*
G75*
G02*
X15036000Y-11049000I50000J0D01*
G01*
X15036000Y-11303000D02*
G75*
G02*
X14936000Y-11303000I-50000J0D01*
G01*
X14936000Y-11303000D02*
G75*
G02*
X15036000Y-11303000I50000J0D01*
G01*
X15036000Y-11557000D02*
G75*
G02*
X14936000Y-11557000I-50000J0D01*
G01*
X14936000Y-11557000D02*
G75*
G02*
X15036000Y-11557000I50000J0D01*
G01*
X15036000Y-11811000D02*
G75*
G02*
X14936000Y-11811000I-50000J0D01*
G01*
X14936000Y-11811000D02*
G75*
G02*
X15036000Y-11811000I50000J0D01*
G01*
X15036000Y-12065000D02*
G75*
G02*
X14936000Y-12065000I-50000J0D01*
G01*
X14936000Y-12065000D02*
G75*
G02*
X15036000Y-12065000I50000J0D01*
G01*
X15036000Y-12319000D02*
G75*
G02*
X14936000Y-12319000I-50000J0D01*
G01*
X14936000Y-12319000D02*
G75*
G02*
X15036000Y-12319000I50000J0D01*
G01*
X15036000Y-12573000D02*
G75*
G02*
X14936000Y-12573000I-50000J0D01*
G01*
X14936000Y-12573000D02*
G75*
G02*
X15036000Y-12573000I50000J0D01*
G01*
X15798000Y-6985000D02*
G75*
G02*
X15698000Y-6985000I-50000J0D01*
G01*
X15698000Y-6985000D02*
G75*
G02*
X15798000Y-6985000I50000J0D01*
G01*
X16052000Y-6985000D02*
G75*
G02*
X15952000Y-6985000I-50000J0D01*
G01*
X15952000Y-6985000D02*
G75*
G02*
X16052000Y-6985000I50000J0D01*
G01*
X16179000Y-5854000D02*
G75*
G02*
X16079000Y-5854000I-50000J0D01*
G01*
X16079000Y-5854000D02*
G75*
G02*
X16179000Y-5854000I50000J0D01*
G01*
X16204000Y-5804000D02*
X16054000Y-5804000D01*
X16054000Y-5904000D02*
G75*
G02*
X16054000Y-5804000I0J50000D01*
G01*
X16054000Y-5904000D02*
X16204000Y-5904000D01*
X16204000Y-5904000D02*
G75*
G03*
X16204000Y-5804000I0J50000D01*
G01*
X16179000Y-6604000D02*
G75*
G02*
X16079000Y-6604000I-50000J0D01*
G01*
X16079000Y-6604000D02*
G75*
G02*
X16179000Y-6604000I50000J0D01*
G01*
X16204000Y-6554000D02*
X16054000Y-6554000D01*
X16054000Y-6654000D02*
G75*
G02*
X16054000Y-6554000I0J50000D01*
G01*
X16054000Y-6654000D02*
X16204000Y-6654000D01*
X16204000Y-6654000D02*
G75*
G03*
X16204000Y-6554000I0J50000D01*
G01*
X16814000Y-7747000D02*
G75*
G02*
X16714000Y-7747000I-50000J0D01*
G01*
X16714000Y-7747000D02*
G75*
G02*
X16814000Y-7747000I50000J0D01*
G01*
X16814000Y-8001000D02*
G75*
G02*
X16714000Y-8001000I-50000J0D01*
G01*
X16714000Y-8001000D02*
G75*
G02*
X16814000Y-8001000I50000J0D01*
G01*
X16814000Y-8255000D02*
G75*
G02*
X16714000Y-8255000I-50000J0D01*
G01*
X16714000Y-8255000D02*
G75*
G02*
X16814000Y-8255000I50000J0D01*
G01*
X16814000Y-8509000D02*
G75*
G02*
X16714000Y-8509000I-50000J0D01*
G01*
X16714000Y-8509000D02*
G75*
G02*
X16814000Y-8509000I50000J0D01*
G01*
X16814000Y-8763000D02*
G75*
G02*
X16714000Y-8763000I-50000J0D01*
G01*
X16714000Y-8763000D02*
G75*
G02*
X16814000Y-8763000I50000J0D01*
G01*
X16814000Y-9017000D02*
G75*
G02*
X16714000Y-9017000I-50000J0D01*
G01*
X16714000Y-9017000D02*
G75*
G02*
X16814000Y-9017000I50000J0D01*
G01*
X16814000Y-9271000D02*
G75*
G02*
X16714000Y-9271000I-50000J0D01*
G01*
X16714000Y-9271000D02*
G75*
G02*
X16814000Y-9271000I50000J0D01*
G01*
X16814000Y-9525000D02*
G75*
G02*
X16714000Y-9525000I-50000J0D01*
G01*
X16714000Y-9525000D02*
G75*
G02*
X16814000Y-9525000I50000J0D01*
G01*
X16814000Y-9779000D02*
G75*
G02*
X16714000Y-9779000I-50000J0D01*
G01*
X16714000Y-9779000D02*
G75*
G02*
X16814000Y-9779000I50000J0D01*
G01*
X16814000Y-10033000D02*
G75*
G02*
X16714000Y-10033000I-50000J0D01*
G01*
X16714000Y-10033000D02*
G75*
G02*
X16814000Y-10033000I50000J0D01*
G01*
X16814000Y-10287000D02*
G75*
G02*
X16714000Y-10287000I-50000J0D01*
G01*
X16714000Y-10287000D02*
G75*
G02*
X16814000Y-10287000I50000J0D01*
G01*
X16814000Y-10541000D02*
G75*
G02*
X16714000Y-10541000I-50000J0D01*
G01*
X16714000Y-10541000D02*
G75*
G02*
X16814000Y-10541000I50000J0D01*
G01*
X16814000Y-10795000D02*
G75*
G02*
X16714000Y-10795000I-50000J0D01*
G01*
X16714000Y-10795000D02*
G75*
G02*
X16814000Y-10795000I50000J0D01*
G01*
X16814000Y-11049000D02*
G75*
G02*
X16714000Y-11049000I-50000J0D01*
G01*
X16714000Y-11049000D02*
G75*
G02*
X16814000Y-11049000I50000J0D01*
G01*
X16814000Y-11303000D02*
G75*
G02*
X16714000Y-11303000I-50000J0D01*
G01*
X16714000Y-11303000D02*
G75*
G02*
X16814000Y-11303000I50000J0D01*
G01*
X16814000Y-11557000D02*
G75*
G02*
X16714000Y-11557000I-50000J0D01*
G01*
X16714000Y-11557000D02*
G75*
G02*
X16814000Y-11557000I50000J0D01*
G01*
X16814000Y-11811000D02*
G75*
G02*
X16714000Y-11811000I-50000J0D01*
G01*
X16714000Y-11811000D02*
G75*
G02*
X16814000Y-11811000I50000J0D01*
G01*
X16814000Y-12065000D02*
G75*
G02*
X16714000Y-12065000I-50000J0D01*
G01*
X16714000Y-12065000D02*
G75*
G02*
X16814000Y-12065000I50000J0D01*
G01*
X16814000Y-12319000D02*
G75*
G02*
X16714000Y-12319000I-50000J0D01*
G01*
X16714000Y-12319000D02*
G75*
G02*
X16814000Y-12319000I50000J0D01*
G01*
X16814000Y-12573000D02*
G75*
G02*
X16714000Y-12573000I-50000J0D01*
G01*
X16714000Y-12573000D02*
G75*
G02*
X16814000Y-12573000I50000J0D01*
G01*
X17576000Y-7747000D02*
G75*
G02*
X17476000Y-7747000I-50000J0D01*
G01*
X17476000Y-7747000D02*
G75*
G02*
X17576000Y-7747000I50000J0D01*
G01*
X17576000Y-8001000D02*
G75*
G02*
X17476000Y-8001000I-50000J0D01*
G01*
X17476000Y-8001000D02*
G75*
G02*
X17576000Y-8001000I50000J0D01*
G01*
X17576000Y-8255000D02*
G75*
G02*
X17476000Y-8255000I-50000J0D01*
G01*
X17476000Y-8255000D02*
G75*
G02*
X17576000Y-8255000I50000J0D01*
G01*
X17576000Y-8509000D02*
G75*
G02*
X17476000Y-8509000I-50000J0D01*
G01*
X17476000Y-8509000D02*
G75*
G02*
X17576000Y-8509000I50000J0D01*
G01*
X17576000Y-8763000D02*
G75*
G02*
X17476000Y-8763000I-50000J0D01*
G01*
X17476000Y-8763000D02*
G75*
G02*
X17576000Y-8763000I50000J0D01*
G01*
X17576000Y-9017000D02*
G75*
G02*
X17476000Y-9017000I-50000J0D01*
G01*
X17476000Y-9017000D02*
G75*
G02*
X17576000Y-9017000I50000J0D01*
G01*
X17576000Y-9271000D02*
G75*
G02*
X17476000Y-9271000I-50000J0D01*
G01*
X17476000Y-9271000D02*
G75*
G02*
X17576000Y-9271000I50000J0D01*
G01*
X17576000Y-9525000D02*
G75*
G02*
X17476000Y-9525000I-50000J0D01*
G01*
X17476000Y-9525000D02*
G75*
G02*
X17576000Y-9525000I50000J0D01*
G01*
X17576000Y-9779000D02*
G75*
G02*
X17476000Y-9779000I-50000J0D01*
G01*
X17476000Y-9779000D02*
G75*
G02*
X17576000Y-9779000I50000J0D01*
G01*
X17576000Y-10033000D02*
G75*
G02*
X17476000Y-10033000I-50000J0D01*
G01*
X17476000Y-10033000D02*
G75*
G02*
X17576000Y-10033000I50000J0D01*
G01*
X17576000Y-10287000D02*
G75*
G02*
X17476000Y-10287000I-50000J0D01*
G01*
X17476000Y-10287000D02*
G75*
G02*
X17576000Y-10287000I50000J0D01*
G01*
X17576000Y-10541000D02*
G75*
G02*
X17476000Y-10541000I-50000J0D01*
G01*
X17476000Y-10541000D02*
G75*
G02*
X17576000Y-10541000I50000J0D01*
G01*
X17576000Y-10795000D02*
G75*
G02*
X17476000Y-10795000I-50000J0D01*
G01*
X17476000Y-10795000D02*
G75*
G02*
X17576000Y-10795000I50000J0D01*
G01*
X17576000Y-11049000D02*
G75*
G02*
X17476000Y-11049000I-50000J0D01*
G01*
X17476000Y-11049000D02*
G75*
G02*
X17576000Y-11049000I50000J0D01*
G01*
X17576000Y-11303000D02*
G75*
G02*
X17476000Y-11303000I-50000J0D01*
G01*
X17476000Y-11303000D02*
G75*
G02*
X17576000Y-11303000I50000J0D01*
G01*
X17576000Y-11557000D02*
G75*
G02*
X17476000Y-11557000I-50000J0D01*
G01*
X17476000Y-11557000D02*
G75*
G02*
X17576000Y-11557000I50000J0D01*
G01*
X17576000Y-11811000D02*
G75*
G02*
X17476000Y-11811000I-50000J0D01*
G01*
X17476000Y-11811000D02*
G75*
G02*
X17576000Y-11811000I50000J0D01*
G01*
X17576000Y-12065000D02*
G75*
G02*
X17476000Y-12065000I-50000J0D01*
G01*
X17476000Y-12065000D02*
G75*
G02*
X17576000Y-12065000I50000J0D01*
G01*
X17576000Y-12319000D02*
G75*
G02*
X17476000Y-12319000I-50000J0D01*
G01*
X17476000Y-12319000D02*
G75*
G02*
X17576000Y-12319000I50000J0D01*
G01*
X17576000Y-12573000D02*
G75*
G02*
X17476000Y-12573000I-50000J0D01*
G01*
X17476000Y-12573000D02*
G75*
G02*
X17576000Y-12573000I50000J0D01*
G01*
X17830000Y-7747000D02*
G75*
G02*
X17730000Y-7747000I-50000J0D01*
G01*
X17730000Y-7747000D02*
G75*
G02*
X17830000Y-7747000I50000J0D01*
G01*
X17830000Y-8001000D02*
G75*
G02*
X17730000Y-8001000I-50000J0D01*
G01*
X17730000Y-8001000D02*
G75*
G02*
X17830000Y-8001000I50000J0D01*
G01*
X17830000Y-8255000D02*
G75*
G02*
X17730000Y-8255000I-50000J0D01*
G01*
X17730000Y-8255000D02*
G75*
G02*
X17830000Y-8255000I50000J0D01*
G01*
X17830000Y-8509000D02*
G75*
G02*
X17730000Y-8509000I-50000J0D01*
G01*
X17730000Y-8509000D02*
G75*
G02*
X17830000Y-8509000I50000J0D01*
G01*
X17830000Y-8763000D02*
G75*
G02*
X17730000Y-8763000I-50000J0D01*
G01*
X17730000Y-8763000D02*
G75*
G02*
X17830000Y-8763000I50000J0D01*
G01*
X17830000Y-9017000D02*
G75*
G02*
X17730000Y-9017000I-50000J0D01*
G01*
X17730000Y-9017000D02*
G75*
G02*
X17830000Y-9017000I50000J0D01*
G01*
X17830000Y-9271000D02*
G75*
G02*
X17730000Y-9271000I-50000J0D01*
G01*
X17730000Y-9271000D02*
G75*
G02*
X17830000Y-9271000I50000J0D01*
G01*
X17830000Y-9525000D02*
G75*
G02*
X17730000Y-9525000I-50000J0D01*
G01*
X17730000Y-9525000D02*
G75*
G02*
X17830000Y-9525000I50000J0D01*
G01*
X17830000Y-9779000D02*
G75*
G02*
X17730000Y-9779000I-50000J0D01*
G01*
X17730000Y-9779000D02*
G75*
G02*
X17830000Y-9779000I50000J0D01*
G01*
X17830000Y-10033000D02*
G75*
G02*
X17730000Y-10033000I-50000J0D01*
G01*
X17730000Y-10033000D02*
G75*
G02*
X17830000Y-10033000I50000J0D01*
G01*
X17830000Y-10287000D02*
G75*
G02*
X17730000Y-10287000I-50000J0D01*
G01*
X17730000Y-10287000D02*
G75*
G02*
X17830000Y-10287000I50000J0D01*
G01*
X17830000Y-10541000D02*
G75*
G02*
X17730000Y-10541000I-50000J0D01*
G01*
X17730000Y-10541000D02*
G75*
G02*
X17830000Y-10541000I50000J0D01*
G01*
X17830000Y-10795000D02*
G75*
G02*
X17730000Y-10795000I-50000J0D01*
G01*
X17730000Y-10795000D02*
G75*
G02*
X17830000Y-10795000I50000J0D01*
G01*
X17830000Y-11049000D02*
G75*
G02*
X17730000Y-11049000I-50000J0D01*
G01*
X17730000Y-11049000D02*
G75*
G02*
X17830000Y-11049000I50000J0D01*
G01*
X17830000Y-11303000D02*
G75*
G02*
X17730000Y-11303000I-50000J0D01*
G01*
X17730000Y-11303000D02*
G75*
G02*
X17830000Y-11303000I50000J0D01*
G01*
X17830000Y-11557000D02*
G75*
G02*
X17730000Y-11557000I-50000J0D01*
G01*
X17730000Y-11557000D02*
G75*
G02*
X17830000Y-11557000I50000J0D01*
G01*
X17830000Y-11811000D02*
G75*
G02*
X17730000Y-11811000I-50000J0D01*
G01*
X17730000Y-11811000D02*
G75*
G02*
X17830000Y-11811000I50000J0D01*
G01*
X17830000Y-12065000D02*
G75*
G02*
X17730000Y-12065000I-50000J0D01*
G01*
X17730000Y-12065000D02*
G75*
G02*
X17830000Y-12065000I50000J0D01*
G01*
X17830000Y-12319000D02*
G75*
G02*
X17730000Y-12319000I-50000J0D01*
G01*
X17730000Y-12319000D02*
G75*
G02*
X17830000Y-12319000I50000J0D01*
G01*
X17830000Y-12573000D02*
G75*
G02*
X17730000Y-12573000I-50000J0D01*
G01*
X17730000Y-12573000D02*
G75*
G02*
X17830000Y-12573000I50000J0D01*
G01*
X19481000Y-5588000D02*
G75*
G02*
X19381000Y-5588000I-50000J0D01*
G01*
X19381000Y-5588000D02*
G75*
G02*
X19481000Y-5588000I50000J0D01*
G01*
X19481000Y-5842000D02*
G75*
G02*
X19381000Y-5842000I-50000J0D01*
G01*
X19381000Y-5842000D02*
G75*
G02*
X19481000Y-5842000I50000J0D01*
G01*
X19481000Y-6096000D02*
G75*
G02*
X19381000Y-6096000I-50000J0D01*
G01*
X19381000Y-6096000D02*
G75*
G02*
X19481000Y-6096000I50000J0D01*
G01*
X19481000Y-6350000D02*
G75*
G02*
X19381000Y-6350000I-50000J0D01*
G01*
X19381000Y-6350000D02*
G75*
G02*
X19481000Y-6350000I50000J0D01*
G01*
X19481000Y-7239000D02*
G75*
G02*
X19381000Y-7239000I-50000J0D01*
G01*
X19381000Y-7239000D02*
G75*
G02*
X19481000Y-7239000I50000J0D01*
G01*
X19481000Y-7493000D02*
G75*
G02*
X19381000Y-7493000I-50000J0D01*
G01*
X19381000Y-7493000D02*
G75*
G02*
X19481000Y-7493000I50000J0D01*
G01*
X19481000Y-7747000D02*
G75*
G02*
X19381000Y-7747000I-50000J0D01*
G01*
X19381000Y-7747000D02*
G75*
G02*
X19481000Y-7747000I50000J0D01*
G01*
X19481000Y-8001000D02*
G75*
G02*
X19381000Y-8001000I-50000J0D01*
G01*
X19381000Y-8001000D02*
G75*
G02*
X19481000Y-8001000I50000J0D01*
G01*
X19481000Y-8890000D02*
G75*
G02*
X19381000Y-8890000I-50000J0D01*
G01*
X19381000Y-8890000D02*
G75*
G02*
X19481000Y-8890000I50000J0D01*
G01*
X19481000Y-9144000D02*
G75*
G02*
X19381000Y-9144000I-50000J0D01*
G01*
X19381000Y-9144000D02*
G75*
G02*
X19481000Y-9144000I50000J0D01*
G01*
X19481000Y-9398000D02*
G75*
G02*
X19381000Y-9398000I-50000J0D01*
G01*
X19381000Y-9398000D02*
G75*
G02*
X19481000Y-9398000I50000J0D01*
G01*
X19481000Y-9652000D02*
G75*
G02*
X19381000Y-9652000I-50000J0D01*
G01*
X19381000Y-9652000D02*
G75*
G02*
X19481000Y-9652000I50000J0D01*
G01*
X19481000Y-10541000D02*
G75*
G02*
X19381000Y-10541000I-50000J0D01*
G01*
X19381000Y-10541000D02*
G75*
G02*
X19481000Y-10541000I50000J0D01*
G01*
X19481000Y-10795000D02*
G75*
G02*
X19381000Y-10795000I-50000J0D01*
G01*
X19381000Y-10795000D02*
G75*
G02*
X19481000Y-10795000I50000J0D01*
G01*
X19481000Y-11049000D02*
G75*
G02*
X19381000Y-11049000I-50000J0D01*
G01*
X19381000Y-11049000D02*
G75*
G02*
X19481000Y-11049000I50000J0D01*
G01*
X19481000Y-11303000D02*
G75*
G02*
X19381000Y-11303000I-50000J0D01*
G01*
X19381000Y-11303000D02*
G75*
G02*
X19481000Y-11303000I50000J0D01*
G01*
X19481000Y-12192000D02*
G75*
G02*
X19381000Y-12192000I-50000J0D01*
G01*
X19381000Y-12192000D02*
G75*
G02*
X19481000Y-12192000I50000J0D01*
G01*
X19481000Y-12446000D02*
G75*
G02*
X19381000Y-12446000I-50000J0D01*
G01*
X19381000Y-12446000D02*
G75*
G02*
X19481000Y-12446000I50000J0D01*
G01*
X19481000Y-12700000D02*
G75*
G02*
X19381000Y-12700000I-50000J0D01*
G01*
X19381000Y-12700000D02*
G75*
G02*
X19481000Y-12700000I50000J0D01*
G01*
X19481000Y-12954000D02*
G75*
G02*
X19381000Y-12954000I-50000J0D01*
G01*
X19381000Y-12954000D02*
G75*
G02*
X19481000Y-12954000I50000J0D01*
G01*
X19481000Y-13843000D02*
G75*
G02*
X19381000Y-13843000I-50000J0D01*
G01*
X19381000Y-13843000D02*
G75*
G02*
X19481000Y-13843000I50000J0D01*
G01*
X19481000Y-14097000D02*
G75*
G02*
X19381000Y-14097000I-50000J0D01*
G01*
X19381000Y-14097000D02*
G75*
G02*
X19481000Y-14097000I50000J0D01*
G01*
X19481000Y-14351000D02*
G75*
G02*
X19381000Y-14351000I-50000J0D01*
G01*
X19381000Y-14351000D02*
G75*
G02*
X19481000Y-14351000I50000J0D01*
G01*
X19481000Y-14605000D02*
G75*
G02*
X19381000Y-14605000I-50000J0D01*
G01*
X19381000Y-14605000D02*
G75*
G02*
X19481000Y-14605000I50000J0D01*
G01*
X19989000Y-5334000D02*
G75*
G02*
X19889000Y-5334000I-50000J0D01*
G01*
X19889000Y-5334000D02*
G75*
G02*
X19989000Y-5334000I50000J0D01*
G01*
X19989000Y-5588000D02*
G75*
G02*
X19889000Y-5588000I-50000J0D01*
G01*
X19889000Y-5588000D02*
G75*
G02*
X19989000Y-5588000I50000J0D01*
G01*
X19989000Y-5842000D02*
G75*
G02*
X19889000Y-5842000I-50000J0D01*
G01*
X19889000Y-5842000D02*
G75*
G02*
X19989000Y-5842000I50000J0D01*
G01*
X19989000Y-6096000D02*
G75*
G02*
X19889000Y-6096000I-50000J0D01*
G01*
X19889000Y-6096000D02*
G75*
G02*
X19989000Y-6096000I50000J0D01*
G01*
X19989000Y-6350000D02*
G75*
G02*
X19889000Y-6350000I-50000J0D01*
G01*
X19889000Y-6350000D02*
G75*
G02*
X19989000Y-6350000I50000J0D01*
G01*
X19989000Y-6604000D02*
G75*
G02*
X19889000Y-6604000I-50000J0D01*
G01*
X19889000Y-6604000D02*
G75*
G02*
X19989000Y-6604000I50000J0D01*
G01*
X19989000Y-6985000D02*
G75*
G02*
X19889000Y-6985000I-50000J0D01*
G01*
X19889000Y-6985000D02*
G75*
G02*
X19989000Y-6985000I50000J0D01*
G01*
X19989000Y-7239000D02*
G75*
G02*
X19889000Y-7239000I-50000J0D01*
G01*
X19889000Y-7239000D02*
G75*
G02*
X19989000Y-7239000I50000J0D01*
G01*
X19989000Y-7493000D02*
G75*
G02*
X19889000Y-7493000I-50000J0D01*
G01*
X19889000Y-7493000D02*
G75*
G02*
X19989000Y-7493000I50000J0D01*
G01*
X19989000Y-7747000D02*
G75*
G02*
X19889000Y-7747000I-50000J0D01*
G01*
X19889000Y-7747000D02*
G75*
G02*
X19989000Y-7747000I50000J0D01*
G01*
X19989000Y-8001000D02*
G75*
G02*
X19889000Y-8001000I-50000J0D01*
G01*
X19889000Y-8001000D02*
G75*
G02*
X19989000Y-8001000I50000J0D01*
G01*
X19989000Y-8255000D02*
G75*
G02*
X19889000Y-8255000I-50000J0D01*
G01*
X19889000Y-8255000D02*
G75*
G02*
X19989000Y-8255000I50000J0D01*
G01*
X19989000Y-8636000D02*
G75*
G02*
X19889000Y-8636000I-50000J0D01*
G01*
X19889000Y-8636000D02*
G75*
G02*
X19989000Y-8636000I50000J0D01*
G01*
X19989000Y-8890000D02*
G75*
G02*
X19889000Y-8890000I-50000J0D01*
G01*
X19889000Y-8890000D02*
G75*
G02*
X19989000Y-8890000I50000J0D01*
G01*
X19989000Y-9144000D02*
G75*
G02*
X19889000Y-9144000I-50000J0D01*
G01*
X19889000Y-9144000D02*
G75*
G02*
X19989000Y-9144000I50000J0D01*
G01*
X19989000Y-9398000D02*
G75*
G02*
X19889000Y-9398000I-50000J0D01*
G01*
X19889000Y-9398000D02*
G75*
G02*
X19989000Y-9398000I50000J0D01*
G01*
X19989000Y-9652000D02*
G75*
G02*
X19889000Y-9652000I-50000J0D01*
G01*
X19889000Y-9652000D02*
G75*
G02*
X19989000Y-9652000I50000J0D01*
G01*
X19989000Y-9906000D02*
G75*
G02*
X19889000Y-9906000I-50000J0D01*
G01*
X19889000Y-9906000D02*
G75*
G02*
X19989000Y-9906000I50000J0D01*
G01*
X19989000Y-10287000D02*
G75*
G02*
X19889000Y-10287000I-50000J0D01*
G01*
X19889000Y-10287000D02*
G75*
G02*
X19989000Y-10287000I50000J0D01*
G01*
X19989000Y-10541000D02*
G75*
G02*
X19889000Y-10541000I-50000J0D01*
G01*
X19889000Y-10541000D02*
G75*
G02*
X19989000Y-10541000I50000J0D01*
G01*
X19989000Y-10795000D02*
G75*
G02*
X19889000Y-10795000I-50000J0D01*
G01*
X19889000Y-10795000D02*
G75*
G02*
X19989000Y-10795000I50000J0D01*
G01*
X19989000Y-11049000D02*
G75*
G02*
X19889000Y-11049000I-50000J0D01*
G01*
X19889000Y-11049000D02*
G75*
G02*
X19989000Y-11049000I50000J0D01*
G01*
X19989000Y-11303000D02*
G75*
G02*
X19889000Y-11303000I-50000J0D01*
G01*
X19889000Y-11303000D02*
G75*
G02*
X19989000Y-11303000I50000J0D01*
G01*
X19989000Y-11557000D02*
G75*
G02*
X19889000Y-11557000I-50000J0D01*
G01*
X19889000Y-11557000D02*
G75*
G02*
X19989000Y-11557000I50000J0D01*
G01*
X19989000Y-11938000D02*
G75*
G02*
X19889000Y-11938000I-50000J0D01*
G01*
X19889000Y-11938000D02*
G75*
G02*
X19989000Y-11938000I50000J0D01*
G01*
X19989000Y-12192000D02*
G75*
G02*
X19889000Y-12192000I-50000J0D01*
G01*
X19889000Y-12192000D02*
G75*
G02*
X19989000Y-12192000I50000J0D01*
G01*
X19989000Y-12446000D02*
G75*
G02*
X19889000Y-12446000I-50000J0D01*
G01*
X19889000Y-12446000D02*
G75*
G02*
X19989000Y-12446000I50000J0D01*
G01*
X19989000Y-12700000D02*
G75*
G02*
X19889000Y-12700000I-50000J0D01*
G01*
X19889000Y-12700000D02*
G75*
G02*
X19989000Y-12700000I50000J0D01*
G01*
X19989000Y-12954000D02*
G75*
G02*
X19889000Y-12954000I-50000J0D01*
G01*
X19889000Y-12954000D02*
G75*
G02*
X19989000Y-12954000I50000J0D01*
G01*
X19989000Y-13208000D02*
G75*
G02*
X19889000Y-13208000I-50000J0D01*
G01*
X19889000Y-13208000D02*
G75*
G02*
X19989000Y-13208000I50000J0D01*
G01*
X19989000Y-13589000D02*
G75*
G02*
X19889000Y-13589000I-50000J0D01*
G01*
X19889000Y-13589000D02*
G75*
G02*
X19989000Y-13589000I50000J0D01*
G01*
X19989000Y-13843000D02*
G75*
G02*
X19889000Y-13843000I-50000J0D01*
G01*
X19889000Y-13843000D02*
G75*
G02*
X19989000Y-13843000I50000J0D01*
G01*
X19989000Y-14097000D02*
G75*
G02*
X19889000Y-14097000I-50000J0D01*
G01*
X19889000Y-14097000D02*
G75*
G02*
X19989000Y-14097000I50000J0D01*
G01*
X19989000Y-14351000D02*
G75*
G02*
X19889000Y-14351000I-50000J0D01*
G01*
X19889000Y-14351000D02*
G75*
G02*
X19989000Y-14351000I50000J0D01*
G01*
X19989000Y-14605000D02*
G75*
G02*
X19889000Y-14605000I-50000J0D01*
G01*
X19889000Y-14605000D02*
G75*
G02*
X19989000Y-14605000I50000J0D01*
G01*
X19989000Y-14859000D02*
G75*
G02*
X19889000Y-14859000I-50000J0D01*
G01*
X19889000Y-14859000D02*
G75*
G02*
X19989000Y-14859000I50000J0D01*
G01*
X21005000Y-5334000D02*
G75*
G02*
X20905000Y-5334000I-50000J0D01*
G01*
X20905000Y-5334000D02*
G75*
G02*
X21005000Y-5334000I50000J0D01*
G01*
X21005000Y-5588000D02*
G75*
G02*
X20905000Y-5588000I-50000J0D01*
G01*
X20905000Y-5588000D02*
G75*
G02*
X21005000Y-5588000I50000J0D01*
G01*
X21005000Y-5842000D02*
G75*
G02*
X20905000Y-5842000I-50000J0D01*
G01*
X20905000Y-5842000D02*
G75*
G02*
X21005000Y-5842000I50000J0D01*
G01*
X21005000Y-6096000D02*
G75*
G02*
X20905000Y-6096000I-50000J0D01*
G01*
X20905000Y-6096000D02*
G75*
G02*
X21005000Y-6096000I50000J0D01*
G01*
X21005000Y-6350000D02*
G75*
G02*
X20905000Y-6350000I-50000J0D01*
G01*
X20905000Y-6350000D02*
G75*
G02*
X21005000Y-6350000I50000J0D01*
G01*
X21005000Y-6604000D02*
G75*
G02*
X20905000Y-6604000I-50000J0D01*
G01*
X20905000Y-6604000D02*
G75*
G02*
X21005000Y-6604000I50000J0D01*
G01*
X21005000Y-6985000D02*
G75*
G02*
X20905000Y-6985000I-50000J0D01*
G01*
X20905000Y-6985000D02*
G75*
G02*
X21005000Y-6985000I50000J0D01*
G01*
X21005000Y-7239000D02*
G75*
G02*
X20905000Y-7239000I-50000J0D01*
G01*
X20905000Y-7239000D02*
G75*
G02*
X21005000Y-7239000I50000J0D01*
G01*
X21005000Y-7493000D02*
G75*
G02*
X20905000Y-7493000I-50000J0D01*
G01*
X20905000Y-7493000D02*
G75*
G02*
X21005000Y-7493000I50000J0D01*
G01*
X21005000Y-7747000D02*
G75*
G02*
X20905000Y-7747000I-50000J0D01*
G01*
X20905000Y-7747000D02*
G75*
G02*
X21005000Y-7747000I50000J0D01*
G01*
X21005000Y-8001000D02*
G75*
G02*
X20905000Y-8001000I-50000J0D01*
G01*
X20905000Y-8001000D02*
G75*
G02*
X21005000Y-8001000I50000J0D01*
G01*
X21005000Y-8255000D02*
G75*
G02*
X20905000Y-8255000I-50000J0D01*
G01*
X20905000Y-8255000D02*
G75*
G02*
X21005000Y-8255000I50000J0D01*
G01*
X21005000Y-8636000D02*
G75*
G02*
X20905000Y-8636000I-50000J0D01*
G01*
X20905000Y-8636000D02*
G75*
G02*
X21005000Y-8636000I50000J0D01*
G01*
X21005000Y-8890000D02*
G75*
G02*
X20905000Y-8890000I-50000J0D01*
G01*
X20905000Y-8890000D02*
G75*
G02*
X21005000Y-8890000I50000J0D01*
G01*
X21005000Y-9144000D02*
G75*
G02*
X20905000Y-9144000I-50000J0D01*
G01*
X20905000Y-9144000D02*
G75*
G02*
X21005000Y-9144000I50000J0D01*
G01*
X21005000Y-9398000D02*
G75*
G02*
X20905000Y-9398000I-50000J0D01*
G01*
X20905000Y-9398000D02*
G75*
G02*
X21005000Y-9398000I50000J0D01*
G01*
X21005000Y-9652000D02*
G75*
G02*
X20905000Y-9652000I-50000J0D01*
G01*
X20905000Y-9652000D02*
G75*
G02*
X21005000Y-9652000I50000J0D01*
G01*
X21005000Y-9906000D02*
G75*
G02*
X20905000Y-9906000I-50000J0D01*
G01*
X20905000Y-9906000D02*
G75*
G02*
X21005000Y-9906000I50000J0D01*
G01*
X21005000Y-10287000D02*
G75*
G02*
X20905000Y-10287000I-50000J0D01*
G01*
X20905000Y-10287000D02*
G75*
G02*
X21005000Y-10287000I50000J0D01*
G01*
X21005000Y-10541000D02*
G75*
G02*
X20905000Y-10541000I-50000J0D01*
G01*
X20905000Y-10541000D02*
G75*
G02*
X21005000Y-10541000I50000J0D01*
G01*
X21005000Y-10795000D02*
G75*
G02*
X20905000Y-10795000I-50000J0D01*
G01*
X20905000Y-10795000D02*
G75*
G02*
X21005000Y-10795000I50000J0D01*
G01*
X21005000Y-11049000D02*
G75*
G02*
X20905000Y-11049000I-50000J0D01*
G01*
X20905000Y-11049000D02*
G75*
G02*
X21005000Y-11049000I50000J0D01*
G01*
X21005000Y-11303000D02*
G75*
G02*
X20905000Y-11303000I-50000J0D01*
G01*
X20905000Y-11303000D02*
G75*
G02*
X21005000Y-11303000I50000J0D01*
G01*
X21005000Y-11557000D02*
G75*
G02*
X20905000Y-11557000I-50000J0D01*
G01*
X20905000Y-11557000D02*
G75*
G02*
X21005000Y-11557000I50000J0D01*
G01*
X21005000Y-11938000D02*
G75*
G02*
X20905000Y-11938000I-50000J0D01*
G01*
X20905000Y-11938000D02*
G75*
G02*
X21005000Y-11938000I50000J0D01*
G01*
X21005000Y-12192000D02*
G75*
G02*
X20905000Y-12192000I-50000J0D01*
G01*
X20905000Y-12192000D02*
G75*
G02*
X21005000Y-12192000I50000J0D01*
G01*
X21005000Y-12446000D02*
G75*
G02*
X20905000Y-12446000I-50000J0D01*
G01*
X20905000Y-12446000D02*
G75*
G02*
X21005000Y-12446000I50000J0D01*
G01*
X21005000Y-12700000D02*
G75*
G02*
X20905000Y-12700000I-50000J0D01*
G01*
X20905000Y-12700000D02*
G75*
G02*
X21005000Y-12700000I50000J0D01*
G01*
X21005000Y-12954000D02*
G75*
G02*
X20905000Y-12954000I-50000J0D01*
G01*
X20905000Y-12954000D02*
G75*
G02*
X21005000Y-12954000I50000J0D01*
G01*
X21005000Y-13208000D02*
G75*
G02*
X20905000Y-13208000I-50000J0D01*
G01*
X20905000Y-13208000D02*
G75*
G02*
X21005000Y-13208000I50000J0D01*
G01*
X21005000Y-13589000D02*
G75*
G02*
X20905000Y-13589000I-50000J0D01*
G01*
X20905000Y-13589000D02*
G75*
G02*
X21005000Y-13589000I50000J0D01*
G01*
X21005000Y-13843000D02*
G75*
G02*
X20905000Y-13843000I-50000J0D01*
G01*
X20905000Y-13843000D02*
G75*
G02*
X21005000Y-13843000I50000J0D01*
G01*
X21005000Y-14097000D02*
G75*
G02*
X20905000Y-14097000I-50000J0D01*
G01*
X20905000Y-14097000D02*
G75*
G02*
X21005000Y-14097000I50000J0D01*
G01*
X21005000Y-14351000D02*
G75*
G02*
X20905000Y-14351000I-50000J0D01*
G01*
X20905000Y-14351000D02*
G75*
G02*
X21005000Y-14351000I50000J0D01*
G01*
X21005000Y-14605000D02*
G75*
G02*
X20905000Y-14605000I-50000J0D01*
G01*
X20905000Y-14605000D02*
G75*
G02*
X21005000Y-14605000I50000J0D01*
G01*
X21005000Y-14859000D02*
G75*
G02*
X20905000Y-14859000I-50000J0D01*
G01*
X20905000Y-14859000D02*
G75*
G02*
X21005000Y-14859000I50000J0D01*
G01*
X21513000Y-5588000D02*
G75*
G02*
X21413000Y-5588000I-50000J0D01*
G01*
X21413000Y-5588000D02*
G75*
G02*
X21513000Y-5588000I50000J0D01*
G01*
X21513000Y-5842000D02*
G75*
G02*
X21413000Y-5842000I-50000J0D01*
G01*
X21413000Y-5842000D02*
G75*
G02*
X21513000Y-5842000I50000J0D01*
G01*
X21513000Y-6096000D02*
G75*
G02*
X21413000Y-6096000I-50000J0D01*
G01*
X21413000Y-6096000D02*
G75*
G02*
X21513000Y-6096000I50000J0D01*
G01*
X21513000Y-6350000D02*
G75*
G02*
X21413000Y-6350000I-50000J0D01*
G01*
X21413000Y-6350000D02*
G75*
G02*
X21513000Y-6350000I50000J0D01*
G01*
X21513000Y-7239000D02*
G75*
G02*
X21413000Y-7239000I-50000J0D01*
G01*
X21413000Y-7239000D02*
G75*
G02*
X21513000Y-7239000I50000J0D01*
G01*
X21513000Y-7493000D02*
G75*
G02*
X21413000Y-7493000I-50000J0D01*
G01*
X21413000Y-7493000D02*
G75*
G02*
X21513000Y-7493000I50000J0D01*
G01*
X21513000Y-7747000D02*
G75*
G02*
X21413000Y-7747000I-50000J0D01*
G01*
X21413000Y-7747000D02*
G75*
G02*
X21513000Y-7747000I50000J0D01*
G01*
X21513000Y-8001000D02*
G75*
G02*
X21413000Y-8001000I-50000J0D01*
G01*
X21413000Y-8001000D02*
G75*
G02*
X21513000Y-8001000I50000J0D01*
G01*
X21513000Y-8890000D02*
G75*
G02*
X21413000Y-8890000I-50000J0D01*
G01*
X21413000Y-8890000D02*
G75*
G02*
X21513000Y-8890000I50000J0D01*
G01*
X21513000Y-9144000D02*
G75*
G02*
X21413000Y-9144000I-50000J0D01*
G01*
X21413000Y-9144000D02*
G75*
G02*
X21513000Y-9144000I50000J0D01*
G01*
X21513000Y-9398000D02*
G75*
G02*
X21413000Y-9398000I-50000J0D01*
G01*
X21413000Y-9398000D02*
G75*
G02*
X21513000Y-9398000I50000J0D01*
G01*
X21513000Y-9652000D02*
G75*
G02*
X21413000Y-9652000I-50000J0D01*
G01*
X21413000Y-9652000D02*
G75*
G02*
X21513000Y-9652000I50000J0D01*
G01*
X21513000Y-10541000D02*
G75*
G02*
X21413000Y-10541000I-50000J0D01*
G01*
X21413000Y-10541000D02*
G75*
G02*
X21513000Y-10541000I50000J0D01*
G01*
X21513000Y-10795000D02*
G75*
G02*
X21413000Y-10795000I-50000J0D01*
G01*
X21413000Y-10795000D02*
G75*
G02*
X21513000Y-10795000I50000J0D01*
G01*
X21513000Y-11049000D02*
G75*
G02*
X21413000Y-11049000I-50000J0D01*
G01*
X21413000Y-11049000D02*
G75*
G02*
X21513000Y-11049000I50000J0D01*
G01*
X21513000Y-11303000D02*
G75*
G02*
X21413000Y-11303000I-50000J0D01*
G01*
X21413000Y-11303000D02*
G75*
G02*
X21513000Y-11303000I50000J0D01*
G01*
X21513000Y-12192000D02*
G75*
G02*
X21413000Y-12192000I-50000J0D01*
G01*
X21413000Y-12192000D02*
G75*
G02*
X21513000Y-12192000I50000J0D01*
G01*
X21513000Y-12446000D02*
G75*
G02*
X21413000Y-12446000I-50000J0D01*
G01*
X21413000Y-12446000D02*
G75*
G02*
X21513000Y-12446000I50000J0D01*
G01*
X21513000Y-12700000D02*
G75*
G02*
X21413000Y-12700000I-50000J0D01*
G01*
X21413000Y-12700000D02*
G75*
G02*
X21513000Y-12700000I50000J0D01*
G01*
X21513000Y-12954000D02*
G75*
G02*
X21413000Y-12954000I-50000J0D01*
G01*
X21413000Y-12954000D02*
G75*
G02*
X21513000Y-12954000I50000J0D01*
G01*
X21513000Y-13843000D02*
G75*
G02*
X21413000Y-13843000I-50000J0D01*
G01*
X21413000Y-13843000D02*
G75*
G02*
X21513000Y-13843000I50000J0D01*
G01*
X21513000Y-14097000D02*
G75*
G02*
X21413000Y-14097000I-50000J0D01*
G01*
X21413000Y-14097000D02*
G75*
G02*
X21513000Y-14097000I50000J0D01*
G01*
X21513000Y-14351000D02*
G75*
G02*
X21413000Y-14351000I-50000J0D01*
G01*
X21413000Y-14351000D02*
G75*
G02*
X21513000Y-14351000I50000J0D01*
G01*
X21513000Y-14605000D02*
G75*
G02*
X21413000Y-14605000I-50000J0D01*
G01*
X21413000Y-14605000D02*
G75*
G02*
X21513000Y-14605000I50000J0D01*
G01*
X23164000Y-5588000D02*
G75*
G02*
X23064000Y-5588000I-50000J0D01*
G01*
X23064000Y-5588000D02*
G75*
G02*
X23164000Y-5588000I50000J0D01*
G01*
X23164000Y-5842000D02*
G75*
G02*
X23064000Y-5842000I-50000J0D01*
G01*
X23064000Y-5842000D02*
G75*
G02*
X23164000Y-5842000I50000J0D01*
G01*
X23164000Y-6096000D02*
G75*
G02*
X23064000Y-6096000I-50000J0D01*
G01*
X23064000Y-6096000D02*
G75*
G02*
X23164000Y-6096000I50000J0D01*
G01*
X23164000Y-6350000D02*
G75*
G02*
X23064000Y-6350000I-50000J0D01*
G01*
X23064000Y-6350000D02*
G75*
G02*
X23164000Y-6350000I50000J0D01*
G01*
X23164000Y-6604000D02*
G75*
G02*
X23064000Y-6604000I-50000J0D01*
G01*
X23064000Y-6604000D02*
G75*
G02*
X23164000Y-6604000I50000J0D01*
G01*
X23164000Y-6858000D02*
G75*
G02*
X23064000Y-6858000I-50000J0D01*
G01*
X23064000Y-6858000D02*
G75*
G02*
X23164000Y-6858000I50000J0D01*
G01*
X23164000Y-7112000D02*
G75*
G02*
X23064000Y-7112000I-50000J0D01*
G01*
X23064000Y-7112000D02*
G75*
G02*
X23164000Y-7112000I50000J0D01*
G01*
X23164000Y-7366000D02*
G75*
G02*
X23064000Y-7366000I-50000J0D01*
G01*
X23064000Y-7366000D02*
G75*
G02*
X23164000Y-7366000I50000J0D01*
G01*
X23164000Y-7620000D02*
G75*
G02*
X23064000Y-7620000I-50000J0D01*
G01*
X23064000Y-7620000D02*
G75*
G02*
X23164000Y-7620000I50000J0D01*
G01*
X23164000Y-7874000D02*
G75*
G02*
X23064000Y-7874000I-50000J0D01*
G01*
X23064000Y-7874000D02*
G75*
G02*
X23164000Y-7874000I50000J0D01*
G01*
X23164000Y-8128000D02*
G75*
G02*
X23064000Y-8128000I-50000J0D01*
G01*
X23064000Y-8128000D02*
G75*
G02*
X23164000Y-8128000I50000J0D01*
G01*
X23164000Y-8382000D02*
G75*
G02*
X23064000Y-8382000I-50000J0D01*
G01*
X23064000Y-8382000D02*
G75*
G02*
X23164000Y-8382000I50000J0D01*
G01*
X23164000Y-8636000D02*
G75*
G02*
X23064000Y-8636000I-50000J0D01*
G01*
X23064000Y-8636000D02*
G75*
G02*
X23164000Y-8636000I50000J0D01*
G01*
X23164000Y-8890000D02*
G75*
G02*
X23064000Y-8890000I-50000J0D01*
G01*
X23064000Y-8890000D02*
G75*
G02*
X23164000Y-8890000I50000J0D01*
G01*
X23164000Y-9144000D02*
G75*
G02*
X23064000Y-9144000I-50000J0D01*
G01*
X23064000Y-9144000D02*
G75*
G02*
X23164000Y-9144000I50000J0D01*
G01*
X23164000Y-9398000D02*
G75*
G02*
X23064000Y-9398000I-50000J0D01*
G01*
X23064000Y-9398000D02*
G75*
G02*
X23164000Y-9398000I50000J0D01*
G01*
X23164000Y-9652000D02*
G75*
G02*
X23064000Y-9652000I-50000J0D01*
G01*
X23064000Y-9652000D02*
G75*
G02*
X23164000Y-9652000I50000J0D01*
G01*
X23164000Y-9906000D02*
G75*
G02*
X23064000Y-9906000I-50000J0D01*
G01*
X23064000Y-9906000D02*
G75*
G02*
X23164000Y-9906000I50000J0D01*
G01*
X23164000Y-10160000D02*
G75*
G02*
X23064000Y-10160000I-50000J0D01*
G01*
X23064000Y-10160000D02*
G75*
G02*
X23164000Y-10160000I50000J0D01*
G01*
X23164000Y-10414000D02*
G75*
G02*
X23064000Y-10414000I-50000J0D01*
G01*
X23064000Y-10414000D02*
G75*
G02*
X23164000Y-10414000I50000J0D01*
G01*
X23164000Y-10668000D02*
G75*
G02*
X23064000Y-10668000I-50000J0D01*
G01*
X23064000Y-10668000D02*
G75*
G02*
X23164000Y-10668000I50000J0D01*
G01*
X23164000Y-10922000D02*
G75*
G02*
X23064000Y-10922000I-50000J0D01*
G01*
X23064000Y-10922000D02*
G75*
G02*
X23164000Y-10922000I50000J0D01*
G01*
X23164000Y-11176000D02*
G75*
G02*
X23064000Y-11176000I-50000J0D01*
G01*
X23064000Y-11176000D02*
G75*
G02*
X23164000Y-11176000I50000J0D01*
G01*
X23164000Y-11430000D02*
G75*
G02*
X23064000Y-11430000I-50000J0D01*
G01*
X23064000Y-11430000D02*
G75*
G02*
X23164000Y-11430000I50000J0D01*
G01*
X23164000Y-11684000D02*
G75*
G02*
X23064000Y-11684000I-50000J0D01*
G01*
X23064000Y-11684000D02*
G75*
G02*
X23164000Y-11684000I50000J0D01*
G01*
X23164000Y-11938000D02*
G75*
G02*
X23064000Y-11938000I-50000J0D01*
G01*
X23064000Y-11938000D02*
G75*
G02*
X23164000Y-11938000I50000J0D01*
G01*
X23164000Y-12192000D02*
G75*
G02*
X23064000Y-12192000I-50000J0D01*
G01*
X23064000Y-12192000D02*
G75*
G02*
X23164000Y-12192000I50000J0D01*
G01*
X23164000Y-12446000D02*
G75*
G02*
X23064000Y-12446000I-50000J0D01*
G01*
X23064000Y-12446000D02*
G75*
G02*
X23164000Y-12446000I50000J0D01*
G01*
X23164000Y-12700000D02*
G75*
G02*
X23064000Y-12700000I-50000J0D01*
G01*
X23064000Y-12700000D02*
G75*
G02*
X23164000Y-12700000I50000J0D01*
G01*
X23164000Y-12954000D02*
G75*
G02*
X23064000Y-12954000I-50000J0D01*
G01*
X23064000Y-12954000D02*
G75*
G02*
X23164000Y-12954000I50000J0D01*
G01*
X23164000Y-13208000D02*
G75*
G02*
X23064000Y-13208000I-50000J0D01*
G01*
X23064000Y-13208000D02*
G75*
G02*
X23164000Y-13208000I50000J0D01*
G01*
X23164000Y-13462000D02*
G75*
G02*
X23064000Y-13462000I-50000J0D01*
G01*
X23064000Y-13462000D02*
G75*
G02*
X23164000Y-13462000I50000J0D01*
G01*
X23164000Y-13716000D02*
G75*
G02*
X23064000Y-13716000I-50000J0D01*
G01*
X23064000Y-13716000D02*
G75*
G02*
X23164000Y-13716000I50000J0D01*
G01*
X23164000Y-13970000D02*
G75*
G02*
X23064000Y-13970000I-50000J0D01*
G01*
X23064000Y-13970000D02*
G75*
G02*
X23164000Y-13970000I50000J0D01*
G01*
X23164000Y-14224000D02*
G75*
G02*
X23064000Y-14224000I-50000J0D01*
G01*
X23064000Y-14224000D02*
G75*
G02*
X23164000Y-14224000I50000J0D01*
G01*
X23164000Y-14478000D02*
G75*
G02*
X23064000Y-14478000I-50000J0D01*
G01*
X23064000Y-14478000D02*
G75*
G02*
X23164000Y-14478000I50000J0D01*
G01*
X23164000Y-14732000D02*
G75*
G02*
X23064000Y-14732000I-50000J0D01*
G01*
X23064000Y-14732000D02*
G75*
G02*
X23164000Y-14732000I50000J0D01*
G01*
X23418000Y-5588000D02*
G75*
G02*
X23318000Y-5588000I-50000J0D01*
G01*
X23318000Y-5588000D02*
G75*
G02*
X23418000Y-5588000I50000J0D01*
G01*
X23418000Y-5842000D02*
G75*
G02*
X23318000Y-5842000I-50000J0D01*
G01*
X23318000Y-5842000D02*
G75*
G02*
X23418000Y-5842000I50000J0D01*
G01*
X23418000Y-6096000D02*
G75*
G02*
X23318000Y-6096000I-50000J0D01*
G01*
X23318000Y-6096000D02*
G75*
G02*
X23418000Y-6096000I50000J0D01*
G01*
X23418000Y-6350000D02*
G75*
G02*
X23318000Y-6350000I-50000J0D01*
G01*
X23318000Y-6350000D02*
G75*
G02*
X23418000Y-6350000I50000J0D01*
G01*
X23418000Y-6604000D02*
G75*
G02*
X23318000Y-6604000I-50000J0D01*
G01*
X23318000Y-6604000D02*
G75*
G02*
X23418000Y-6604000I50000J0D01*
G01*
X23418000Y-6858000D02*
G75*
G02*
X23318000Y-6858000I-50000J0D01*
G01*
X23318000Y-6858000D02*
G75*
G02*
X23418000Y-6858000I50000J0D01*
G01*
X23418000Y-7112000D02*
G75*
G02*
X23318000Y-7112000I-50000J0D01*
G01*
X23318000Y-7112000D02*
G75*
G02*
X23418000Y-7112000I50000J0D01*
G01*
X23418000Y-7366000D02*
G75*
G02*
X23318000Y-7366000I-50000J0D01*
G01*
X23318000Y-7366000D02*
G75*
G02*
X23418000Y-7366000I50000J0D01*
G01*
X23418000Y-7620000D02*
G75*
G02*
X23318000Y-7620000I-50000J0D01*
G01*
X23318000Y-7620000D02*
G75*
G02*
X23418000Y-7620000I50000J0D01*
G01*
X23418000Y-7874000D02*
G75*
G02*
X23318000Y-7874000I-50000J0D01*
G01*
X23318000Y-7874000D02*
G75*
G02*
X23418000Y-7874000I50000J0D01*
G01*
X23418000Y-8128000D02*
G75*
G02*
X23318000Y-8128000I-50000J0D01*
G01*
X23318000Y-8128000D02*
G75*
G02*
X23418000Y-8128000I50000J0D01*
G01*
X23418000Y-8382000D02*
G75*
G02*
X23318000Y-8382000I-50000J0D01*
G01*
X23318000Y-8382000D02*
G75*
G02*
X23418000Y-8382000I50000J0D01*
G01*
X23418000Y-8636000D02*
G75*
G02*
X23318000Y-8636000I-50000J0D01*
G01*
X23318000Y-8636000D02*
G75*
G02*
X23418000Y-8636000I50000J0D01*
G01*
X23418000Y-8890000D02*
G75*
G02*
X23318000Y-8890000I-50000J0D01*
G01*
X23318000Y-8890000D02*
G75*
G02*
X23418000Y-8890000I50000J0D01*
G01*
X23418000Y-9144000D02*
G75*
G02*
X23318000Y-9144000I-50000J0D01*
G01*
X23318000Y-9144000D02*
G75*
G02*
X23418000Y-9144000I50000J0D01*
G01*
X23418000Y-9398000D02*
G75*
G02*
X23318000Y-9398000I-50000J0D01*
G01*
X23318000Y-9398000D02*
G75*
G02*
X23418000Y-9398000I50000J0D01*
G01*
X23418000Y-9652000D02*
G75*
G02*
X23318000Y-9652000I-50000J0D01*
G01*
X23318000Y-9652000D02*
G75*
G02*
X23418000Y-9652000I50000J0D01*
G01*
X23418000Y-9906000D02*
G75*
G02*
X23318000Y-9906000I-50000J0D01*
G01*
X23318000Y-9906000D02*
G75*
G02*
X23418000Y-9906000I50000J0D01*
G01*
X23418000Y-10160000D02*
G75*
G02*
X23318000Y-10160000I-50000J0D01*
G01*
X23318000Y-10160000D02*
G75*
G02*
X23418000Y-10160000I50000J0D01*
G01*
X23418000Y-10414000D02*
G75*
G02*
X23318000Y-10414000I-50000J0D01*
G01*
X23318000Y-10414000D02*
G75*
G02*
X23418000Y-10414000I50000J0D01*
G01*
X23418000Y-10668000D02*
G75*
G02*
X23318000Y-10668000I-50000J0D01*
G01*
X23318000Y-10668000D02*
G75*
G02*
X23418000Y-10668000I50000J0D01*
G01*
X23418000Y-10922000D02*
G75*
G02*
X23318000Y-10922000I-50000J0D01*
G01*
X23318000Y-10922000D02*
G75*
G02*
X23418000Y-10922000I50000J0D01*
G01*
X23418000Y-11176000D02*
G75*
G02*
X23318000Y-11176000I-50000J0D01*
G01*
X23318000Y-11176000D02*
G75*
G02*
X23418000Y-11176000I50000J0D01*
G01*
X23418000Y-11430000D02*
G75*
G02*
X23318000Y-11430000I-50000J0D01*
G01*
X23318000Y-11430000D02*
G75*
G02*
X23418000Y-11430000I50000J0D01*
G01*
X23418000Y-11684000D02*
G75*
G02*
X23318000Y-11684000I-50000J0D01*
G01*
X23318000Y-11684000D02*
G75*
G02*
X23418000Y-11684000I50000J0D01*
G01*
X23418000Y-11938000D02*
G75*
G02*
X23318000Y-11938000I-50000J0D01*
G01*
X23318000Y-11938000D02*
G75*
G02*
X23418000Y-11938000I50000J0D01*
G01*
X23418000Y-12192000D02*
G75*
G02*
X23318000Y-12192000I-50000J0D01*
G01*
X23318000Y-12192000D02*
G75*
G02*
X23418000Y-12192000I50000J0D01*
G01*
X23418000Y-12446000D02*
G75*
G02*
X23318000Y-12446000I-50000J0D01*
G01*
X23318000Y-12446000D02*
G75*
G02*
X23418000Y-12446000I50000J0D01*
G01*
X23418000Y-12700000D02*
G75*
G02*
X23318000Y-12700000I-50000J0D01*
G01*
X23318000Y-12700000D02*
G75*
G02*
X23418000Y-12700000I50000J0D01*
G01*
X23418000Y-12954000D02*
G75*
G02*
X23318000Y-12954000I-50000J0D01*
G01*
X23318000Y-12954000D02*
G75*
G02*
X23418000Y-12954000I50000J0D01*
G01*
X23418000Y-13208000D02*
G75*
G02*
X23318000Y-13208000I-50000J0D01*
G01*
X23318000Y-13208000D02*
G75*
G02*
X23418000Y-13208000I50000J0D01*
G01*
X23418000Y-13462000D02*
G75*
G02*
X23318000Y-13462000I-50000J0D01*
G01*
X23318000Y-13462000D02*
G75*
G02*
X23418000Y-13462000I50000J0D01*
G01*
X23418000Y-13716000D02*
G75*
G02*
X23318000Y-13716000I-50000J0D01*
G01*
X23318000Y-13716000D02*
G75*
G02*
X23418000Y-13716000I50000J0D01*
G01*
X23418000Y-13970000D02*
G75*
G02*
X23318000Y-13970000I-50000J0D01*
G01*
X23318000Y-13970000D02*
G75*
G02*
X23418000Y-13970000I50000J0D01*
G01*
X23418000Y-14224000D02*
G75*
G02*
X23318000Y-14224000I-50000J0D01*
G01*
X23318000Y-14224000D02*
G75*
G02*
X23418000Y-14224000I50000J0D01*
G01*
X23418000Y-14478000D02*
G75*
G02*
X23318000Y-14478000I-50000J0D01*
G01*
X23318000Y-14478000D02*
G75*
G02*
X23418000Y-14478000I50000J0D01*
G01*
X23418000Y-14732000D02*
G75*
G02*
X23318000Y-14732000I-50000J0D01*
G01*
X23318000Y-14732000D02*
G75*
G02*
X23418000Y-14732000I50000J0D01*
G01*
D13*
X16764000Y-13011000D02*
X16764000Y-13121000D01*
X16709000Y-13066000D02*
X16819000Y-13066000D01*
X16764000Y-13661000D02*
X16764000Y-13771000D01*
X16709000Y-13716000D02*
X16819000Y-13716000D01*
X17214000Y-13011000D02*
X17214000Y-13121000D01*
X17159000Y-13066000D02*
X17269000Y-13066000D01*
X17214000Y-13661000D02*
X17214000Y-13771000D01*
X17159000Y-13716000D02*
X17269000Y-13716000D01*
D14*
X15804962Y-6274962D02*
X15804962Y-6183038D01*
X15713038Y-6183038D01*
X15713038Y-6274962D01*
X15804962Y-6274962D01*
D12*
X15694000Y-6181500D02*
X15694000Y-6276500D01*
X15824000Y-6276500D02*
G75*
G02*
X15694000Y-6276500I-65000J0D01*
G01*
X15824000Y-6276500D02*
X15824000Y-6181500D01*
X15824000Y-6181500D02*
G75*
G03*
X15694000Y-6181500I-65000J0D01*
G01*
D11*
X11116777Y-15452384D02*
X11116777Y-15252384D01*
X11116777Y-15252384D02*
X11164396Y-15252384D01*
X11164396Y-15252384D02*
X11192967Y-15261908D01*
X11192967Y-15261908D02*
X11212015Y-15280955D01*
X11212015Y-15280955D02*
X11221539Y-15300003D01*
X11221539Y-15300003D02*
X11231062Y-15338098D01*
X11231062Y-15338098D02*
X11231062Y-15366669D01*
X11231062Y-15366669D02*
X11221539Y-15404765D01*
X11221539Y-15404765D02*
X11212015Y-15423812D01*
X11212015Y-15423812D02*
X11192967Y-15442860D01*
X11192967Y-15442860D02*
X11164396Y-15452384D01*
X11164396Y-15452384D02*
X11116777Y-15452384D01*
X11316777Y-15452384D02*
X11316777Y-15319050D01*
X11316777Y-15357146D02*
X11326301Y-15338098D01*
X11326301Y-15338098D02*
X11335824Y-15328574D01*
X11335824Y-15328574D02*
X11354872Y-15319050D01*
X11354872Y-15319050D02*
X11373920Y-15319050D01*
X11440586Y-15452384D02*
X11440586Y-15319050D01*
X11440586Y-15252384D02*
X11431062Y-15261908D01*
X11431062Y-15261908D02*
X11440586Y-15271431D01*
X11440586Y-15271431D02*
X11450110Y-15261908D01*
X11450110Y-15261908D02*
X11440586Y-15252384D01*
X11440586Y-15252384D02*
X11440586Y-15271431D01*
X11564396Y-15452384D02*
X11545348Y-15442860D01*
X11545348Y-15442860D02*
X11535824Y-15423812D01*
X11535824Y-15423812D02*
X11535824Y-15252384D01*
X11669158Y-15452384D02*
X11650110Y-15442860D01*
X11650110Y-15442860D02*
X11640586Y-15423812D01*
X11640586Y-15423812D02*
X11640586Y-15252384D01*
X11897729Y-15452384D02*
X11897729Y-15252384D01*
X11897729Y-15252384D02*
X11964396Y-15395241D01*
X11964396Y-15395241D02*
X12031062Y-15252384D01*
X12031062Y-15252384D02*
X12031062Y-15452384D01*
X12212015Y-15452384D02*
X12212015Y-15347622D01*
X12212015Y-15347622D02*
X12202491Y-15328574D01*
X12202491Y-15328574D02*
X12183443Y-15319050D01*
X12183443Y-15319050D02*
X12145348Y-15319050D01*
X12145348Y-15319050D02*
X12126301Y-15328574D01*
X12212015Y-15442860D02*
X12192967Y-15452384D01*
X12192967Y-15452384D02*
X12145348Y-15452384D01*
X12145348Y-15452384D02*
X12126301Y-15442860D01*
X12126301Y-15442860D02*
X12116777Y-15423812D01*
X12116777Y-15423812D02*
X12116777Y-15404765D01*
X12116777Y-15404765D02*
X12126301Y-15385717D01*
X12126301Y-15385717D02*
X12145348Y-15376193D01*
X12145348Y-15376193D02*
X12192967Y-15376193D01*
X12192967Y-15376193D02*
X12212015Y-15366669D01*
X12307253Y-15319050D02*
X12307253Y-15519050D01*
X12307253Y-15328574D02*
X12326301Y-15319050D01*
X12326301Y-15319050D02*
X12364396Y-15319050D01*
X12364396Y-15319050D02*
X12383443Y-15328574D01*
X12383443Y-15328574D02*
X12392967Y-15338098D01*
X12392967Y-15338098D02*
X12402491Y-15357146D01*
X12402491Y-15357146D02*
X12402491Y-15414288D01*
X12402491Y-15414288D02*
X12392967Y-15433336D01*
X12392967Y-15433336D02*
X12383443Y-15442860D01*
X12383443Y-15442860D02*
X12364396Y-15452384D01*
X12364396Y-15452384D02*
X12326301Y-15452384D01*
X12326301Y-15452384D02*
X12307253Y-15442860D01*
X12488205Y-15433336D02*
X12497729Y-15442860D01*
X12497729Y-15442860D02*
X12488205Y-15452384D01*
X12488205Y-15452384D02*
X12478682Y-15442860D01*
X12478682Y-15442860D02*
X12488205Y-15433336D01*
X12488205Y-15433336D02*
X12488205Y-15452384D01*
X12488205Y-15328574D02*
X12497729Y-15338098D01*
X12497729Y-15338098D02*
X12488205Y-15347622D01*
X12488205Y-15347622D02*
X12478682Y-15338098D01*
X12478682Y-15338098D02*
X12488205Y-15328574D01*
X12488205Y-15328574D02*
X12488205Y-15347622D01*
D12*
X10826000Y-15765900D02*
X10856000Y-15795900D01*
X10856000Y-15765900D02*
X10826000Y-15795900D01*
D11*
X11154872Y-15672384D02*
X11173920Y-15672384D01*
X11173920Y-15672384D02*
X11192967Y-15681908D01*
X11192967Y-15681908D02*
X11202491Y-15691431D01*
X11202491Y-15691431D02*
X11212015Y-15710479D01*
X11212015Y-15710479D02*
X11221539Y-15748574D01*
X11221539Y-15748574D02*
X11221539Y-15796193D01*
X11221539Y-15796193D02*
X11212015Y-15834288D01*
X11212015Y-15834288D02*
X11202491Y-15853336D01*
X11202491Y-15853336D02*
X11192967Y-15862860D01*
X11192967Y-15862860D02*
X11173920Y-15872384D01*
X11173920Y-15872384D02*
X11154872Y-15872384D01*
X11154872Y-15872384D02*
X11135824Y-15862860D01*
X11135824Y-15862860D02*
X11126301Y-15853336D01*
X11126301Y-15853336D02*
X11116777Y-15834288D01*
X11116777Y-15834288D02*
X11107253Y-15796193D01*
X11107253Y-15796193D02*
X11107253Y-15748574D01*
X11107253Y-15748574D02*
X11116777Y-15710479D01*
X11116777Y-15710479D02*
X11126301Y-15691431D01*
X11126301Y-15691431D02*
X11135824Y-15681908D01*
X11135824Y-15681908D02*
X11154872Y-15672384D01*
X11307253Y-15853336D02*
X11316777Y-15862860D01*
X11316777Y-15862860D02*
X11307253Y-15872384D01*
X11307253Y-15872384D02*
X11297729Y-15862860D01*
X11297729Y-15862860D02*
X11307253Y-15853336D01*
X11307253Y-15853336D02*
X11307253Y-15872384D01*
X11383443Y-15672384D02*
X11507253Y-15672384D01*
X11507253Y-15672384D02*
X11440586Y-15748574D01*
X11440586Y-15748574D02*
X11469158Y-15748574D01*
X11469158Y-15748574D02*
X11488205Y-15758098D01*
X11488205Y-15758098D02*
X11497729Y-15767622D01*
X11497729Y-15767622D02*
X11507253Y-15786669D01*
X11507253Y-15786669D02*
X11507253Y-15834288D01*
X11507253Y-15834288D02*
X11497729Y-15853336D01*
X11497729Y-15853336D02*
X11488205Y-15862860D01*
X11488205Y-15862860D02*
X11469158Y-15872384D01*
X11469158Y-15872384D02*
X11412015Y-15872384D01*
X11412015Y-15872384D02*
X11392967Y-15862860D01*
X11392967Y-15862860D02*
X11383443Y-15853336D01*
X11631062Y-15672384D02*
X11650110Y-15672384D01*
X11650110Y-15672384D02*
X11669158Y-15681908D01*
X11669158Y-15681908D02*
X11678682Y-15691431D01*
X11678682Y-15691431D02*
X11688205Y-15710479D01*
X11688205Y-15710479D02*
X11697729Y-15748574D01*
X11697729Y-15748574D02*
X11697729Y-15796193D01*
X11697729Y-15796193D02*
X11688205Y-15834288D01*
X11688205Y-15834288D02*
X11678682Y-15853336D01*
X11678682Y-15853336D02*
X11669158Y-15862860D01*
X11669158Y-15862860D02*
X11650110Y-15872384D01*
X11650110Y-15872384D02*
X11631062Y-15872384D01*
X11631062Y-15872384D02*
X11612015Y-15862860D01*
X11612015Y-15862860D02*
X11602491Y-15853336D01*
X11602491Y-15853336D02*
X11592967Y-15834288D01*
X11592967Y-15834288D02*
X11583443Y-15796193D01*
X11583443Y-15796193D02*
X11583443Y-15748574D01*
X11583443Y-15748574D02*
X11592967Y-15710479D01*
X11592967Y-15710479D02*
X11602491Y-15691431D01*
X11602491Y-15691431D02*
X11612015Y-15681908D01*
X11612015Y-15681908D02*
X11631062Y-15672384D01*
X11821539Y-15672384D02*
X11840586Y-15672384D01*
X11840586Y-15672384D02*
X11859634Y-15681908D01*
X11859634Y-15681908D02*
X11869158Y-15691431D01*
X11869158Y-15691431D02*
X11878682Y-15710479D01*
X11878682Y-15710479D02*
X11888205Y-15748574D01*
X11888205Y-15748574D02*
X11888205Y-15796193D01*
X11888205Y-15796193D02*
X11878682Y-15834288D01*
X11878682Y-15834288D02*
X11869158Y-15853336D01*
X11869158Y-15853336D02*
X11859634Y-15862860D01*
X11859634Y-15862860D02*
X11840586Y-15872384D01*
X11840586Y-15872384D02*
X11821539Y-15872384D01*
X11821539Y-15872384D02*
X11802491Y-15862860D01*
X11802491Y-15862860D02*
X11792967Y-15853336D01*
X11792967Y-15853336D02*
X11783443Y-15834288D01*
X11783443Y-15834288D02*
X11773920Y-15796193D01*
X11773920Y-15796193D02*
X11773920Y-15748574D01*
X11773920Y-15748574D02*
X11783443Y-15710479D01*
X11783443Y-15710479D02*
X11792967Y-15691431D01*
X11792967Y-15691431D02*
X11802491Y-15681908D01*
X11802491Y-15681908D02*
X11821539Y-15672384D01*
X11973920Y-15872384D02*
X11973920Y-15739050D01*
X11973920Y-15758098D02*
X11983443Y-15748574D01*
X11983443Y-15748574D02*
X12002491Y-15739050D01*
X12002491Y-15739050D02*
X12031063Y-15739050D01*
X12031063Y-15739050D02*
X12050110Y-15748574D01*
X12050110Y-15748574D02*
X12059634Y-15767622D01*
X12059634Y-15767622D02*
X12059634Y-15872384D01*
X12059634Y-15767622D02*
X12069158Y-15748574D01*
X12069158Y-15748574D02*
X12088205Y-15739050D01*
X12088205Y-15739050D02*
X12116777Y-15739050D01*
X12116777Y-15739050D02*
X12135824Y-15748574D01*
X12135824Y-15748574D02*
X12145348Y-15767622D01*
X12145348Y-15767622D02*
X12145348Y-15872384D01*
X12240586Y-15872384D02*
X12240586Y-15739050D01*
X12240586Y-15758098D02*
X12250110Y-15748574D01*
X12250110Y-15748574D02*
X12269158Y-15739050D01*
X12269158Y-15739050D02*
X12297729Y-15739050D01*
X12297729Y-15739050D02*
X12316777Y-15748574D01*
X12316777Y-15748574D02*
X12326301Y-15767622D01*
X12326301Y-15767622D02*
X12326301Y-15872384D01*
X12326301Y-15767622D02*
X12335824Y-15748574D01*
X12335824Y-15748574D02*
X12354872Y-15739050D01*
X12354872Y-15739050D02*
X12383443Y-15739050D01*
X12383443Y-15739050D02*
X12402491Y-15748574D01*
X12402491Y-15748574D02*
X12412015Y-15767622D01*
X12412015Y-15767622D02*
X12412015Y-15872384D01*
X12802491Y-15662860D02*
X12631063Y-15920003D01*
X13059634Y-15672384D02*
X13078682Y-15672384D01*
X13078682Y-15672384D02*
X13097729Y-15681908D01*
X13097729Y-15681908D02*
X13107253Y-15691431D01*
X13107253Y-15691431D02*
X13116777Y-15710479D01*
X13116777Y-15710479D02*
X13126301Y-15748574D01*
X13126301Y-15748574D02*
X13126301Y-15796193D01*
X13126301Y-15796193D02*
X13116777Y-15834288D01*
X13116777Y-15834288D02*
X13107253Y-15853336D01*
X13107253Y-15853336D02*
X13097729Y-15862860D01*
X13097729Y-15862860D02*
X13078682Y-15872384D01*
X13078682Y-15872384D02*
X13059634Y-15872384D01*
X13059634Y-15872384D02*
X13040586Y-15862860D01*
X13040586Y-15862860D02*
X13031063Y-15853336D01*
X13031063Y-15853336D02*
X13021539Y-15834288D01*
X13021539Y-15834288D02*
X13012015Y-15796193D01*
X13012015Y-15796193D02*
X13012015Y-15748574D01*
X13012015Y-15748574D02*
X13021539Y-15710479D01*
X13021539Y-15710479D02*
X13031063Y-15691431D01*
X13031063Y-15691431D02*
X13040586Y-15681908D01*
X13040586Y-15681908D02*
X13059634Y-15672384D01*
X13212015Y-15853336D02*
X13221539Y-15862860D01*
X13221539Y-15862860D02*
X13212015Y-15872384D01*
X13212015Y-15872384D02*
X13202491Y-15862860D01*
X13202491Y-15862860D02*
X13212015Y-15853336D01*
X13212015Y-15853336D02*
X13212015Y-15872384D01*
X13345348Y-15672384D02*
X13364396Y-15672384D01*
X13364396Y-15672384D02*
X13383444Y-15681908D01*
X13383444Y-15681908D02*
X13392967Y-15691431D01*
X13392967Y-15691431D02*
X13402491Y-15710479D01*
X13402491Y-15710479D02*
X13412015Y-15748574D01*
X13412015Y-15748574D02*
X13412015Y-15796193D01*
X13412015Y-15796193D02*
X13402491Y-15834288D01*
X13402491Y-15834288D02*
X13392967Y-15853336D01*
X13392967Y-15853336D02*
X13383444Y-15862860D01*
X13383444Y-15862860D02*
X13364396Y-15872384D01*
X13364396Y-15872384D02*
X13345348Y-15872384D01*
X13345348Y-15872384D02*
X13326301Y-15862860D01*
X13326301Y-15862860D02*
X13316777Y-15853336D01*
X13316777Y-15853336D02*
X13307253Y-15834288D01*
X13307253Y-15834288D02*
X13297729Y-15796193D01*
X13297729Y-15796193D02*
X13297729Y-15748574D01*
X13297729Y-15748574D02*
X13307253Y-15710479D01*
X13307253Y-15710479D02*
X13316777Y-15691431D01*
X13316777Y-15691431D02*
X13326301Y-15681908D01*
X13326301Y-15681908D02*
X13345348Y-15672384D01*
X13602491Y-15872384D02*
X13488206Y-15872384D01*
X13545348Y-15872384D02*
X13545348Y-15672384D01*
X13545348Y-15672384D02*
X13526301Y-15700955D01*
X13526301Y-15700955D02*
X13507253Y-15720003D01*
X13507253Y-15720003D02*
X13488206Y-15729527D01*
X13792967Y-15872384D02*
X13678682Y-15872384D01*
X13735825Y-15872384D02*
X13735825Y-15672384D01*
X13735825Y-15672384D02*
X13716777Y-15700955D01*
X13716777Y-15700955D02*
X13697729Y-15720003D01*
X13697729Y-15720003D02*
X13678682Y-15729527D01*
X13907253Y-15758098D02*
X13888206Y-15748574D01*
X13888206Y-15748574D02*
X13878682Y-15739050D01*
X13878682Y-15739050D02*
X13869158Y-15720003D01*
X13869158Y-15720003D02*
X13869158Y-15710479D01*
X13869158Y-15710479D02*
X13878682Y-15691431D01*
X13878682Y-15691431D02*
X13888206Y-15681908D01*
X13888206Y-15681908D02*
X13907253Y-15672384D01*
X13907253Y-15672384D02*
X13945348Y-15672384D01*
X13945348Y-15672384D02*
X13964396Y-15681908D01*
X13964396Y-15681908D02*
X13973920Y-15691431D01*
X13973920Y-15691431D02*
X13983444Y-15710479D01*
X13983444Y-15710479D02*
X13983444Y-15720003D01*
X13983444Y-15720003D02*
X13973920Y-15739050D01*
X13973920Y-15739050D02*
X13964396Y-15748574D01*
X13964396Y-15748574D02*
X13945348Y-15758098D01*
X13945348Y-15758098D02*
X13907253Y-15758098D01*
X13907253Y-15758098D02*
X13888206Y-15767622D01*
X13888206Y-15767622D02*
X13878682Y-15777146D01*
X13878682Y-15777146D02*
X13869158Y-15796193D01*
X13869158Y-15796193D02*
X13869158Y-15834288D01*
X13869158Y-15834288D02*
X13878682Y-15853336D01*
X13878682Y-15853336D02*
X13888206Y-15862860D01*
X13888206Y-15862860D02*
X13907253Y-15872384D01*
X13907253Y-15872384D02*
X13945348Y-15872384D01*
X13945348Y-15872384D02*
X13964396Y-15862860D01*
X13964396Y-15862860D02*
X13973920Y-15853336D01*
X13973920Y-15853336D02*
X13983444Y-15834288D01*
X13983444Y-15834288D02*
X13983444Y-15796193D01*
X13983444Y-15796193D02*
X13973920Y-15777146D01*
X13973920Y-15777146D02*
X13964396Y-15767622D01*
X13964396Y-15767622D02*
X13945348Y-15758098D01*
X14059634Y-15672384D02*
X14059634Y-15710479D01*
X14135825Y-15672384D02*
X14135825Y-15710479D01*
X14431063Y-15948574D02*
X14421539Y-15939050D01*
X14421539Y-15939050D02*
X14402491Y-15910479D01*
X14402491Y-15910479D02*
X14392968Y-15891431D01*
X14392968Y-15891431D02*
X14383444Y-15862860D01*
X14383444Y-15862860D02*
X14373920Y-15815241D01*
X14373920Y-15815241D02*
X14373920Y-15777146D01*
X14373920Y-15777146D02*
X14383444Y-15729527D01*
X14383444Y-15729527D02*
X14392968Y-15700955D01*
X14392968Y-15700955D02*
X14402491Y-15681908D01*
X14402491Y-15681908D02*
X14421539Y-15653336D01*
X14421539Y-15653336D02*
X14431063Y-15643812D01*
X14612015Y-15872384D02*
X14497729Y-15872384D01*
X14554872Y-15872384D02*
X14554872Y-15672384D01*
X14554872Y-15672384D02*
X14535825Y-15700955D01*
X14535825Y-15700955D02*
X14516777Y-15720003D01*
X14516777Y-15720003D02*
X14497729Y-15729527D01*
X14678682Y-15672384D02*
X14802491Y-15672384D01*
X14802491Y-15672384D02*
X14735825Y-15748574D01*
X14735825Y-15748574D02*
X14764396Y-15748574D01*
X14764396Y-15748574D02*
X14783444Y-15758098D01*
X14783444Y-15758098D02*
X14792968Y-15767622D01*
X14792968Y-15767622D02*
X14802491Y-15786669D01*
X14802491Y-15786669D02*
X14802491Y-15834288D01*
X14802491Y-15834288D02*
X14792968Y-15853336D01*
X14792968Y-15853336D02*
X14783444Y-15862860D01*
X14783444Y-15862860D02*
X14764396Y-15872384D01*
X14764396Y-15872384D02*
X14707253Y-15872384D01*
X14707253Y-15872384D02*
X14688206Y-15862860D01*
X14688206Y-15862860D02*
X14678682Y-15853336D01*
X15040587Y-15872384D02*
X15040587Y-15672384D01*
X15126301Y-15872384D02*
X15126301Y-15767622D01*
X15126301Y-15767622D02*
X15116777Y-15748574D01*
X15116777Y-15748574D02*
X15097730Y-15739050D01*
X15097730Y-15739050D02*
X15069158Y-15739050D01*
X15069158Y-15739050D02*
X15050110Y-15748574D01*
X15050110Y-15748574D02*
X15040587Y-15758098D01*
X15250110Y-15872384D02*
X15231063Y-15862860D01*
X15231063Y-15862860D02*
X15221539Y-15853336D01*
X15221539Y-15853336D02*
X15212015Y-15834288D01*
X15212015Y-15834288D02*
X15212015Y-15777146D01*
X15212015Y-15777146D02*
X15221539Y-15758098D01*
X15221539Y-15758098D02*
X15231063Y-15748574D01*
X15231063Y-15748574D02*
X15250110Y-15739050D01*
X15250110Y-15739050D02*
X15278682Y-15739050D01*
X15278682Y-15739050D02*
X15297730Y-15748574D01*
X15297730Y-15748574D02*
X15307253Y-15758098D01*
X15307253Y-15758098D02*
X15316777Y-15777146D01*
X15316777Y-15777146D02*
X15316777Y-15834288D01*
X15316777Y-15834288D02*
X15307253Y-15853336D01*
X15307253Y-15853336D02*
X15297730Y-15862860D01*
X15297730Y-15862860D02*
X15278682Y-15872384D01*
X15278682Y-15872384D02*
X15250110Y-15872384D01*
X15431063Y-15872384D02*
X15412015Y-15862860D01*
X15412015Y-15862860D02*
X15402491Y-15843812D01*
X15402491Y-15843812D02*
X15402491Y-15672384D01*
X15583444Y-15862860D02*
X15564396Y-15872384D01*
X15564396Y-15872384D02*
X15526301Y-15872384D01*
X15526301Y-15872384D02*
X15507253Y-15862860D01*
X15507253Y-15862860D02*
X15497730Y-15843812D01*
X15497730Y-15843812D02*
X15497730Y-15767622D01*
X15497730Y-15767622D02*
X15507253Y-15748574D01*
X15507253Y-15748574D02*
X15526301Y-15739050D01*
X15526301Y-15739050D02*
X15564396Y-15739050D01*
X15564396Y-15739050D02*
X15583444Y-15748574D01*
X15583444Y-15748574D02*
X15592968Y-15767622D01*
X15592968Y-15767622D02*
X15592968Y-15786669D01*
X15592968Y-15786669D02*
X15497730Y-15805717D01*
X15669158Y-15862860D02*
X15688206Y-15872384D01*
X15688206Y-15872384D02*
X15726301Y-15872384D01*
X15726301Y-15872384D02*
X15745349Y-15862860D01*
X15745349Y-15862860D02*
X15754872Y-15843812D01*
X15754872Y-15843812D02*
X15754872Y-15834288D01*
X15754872Y-15834288D02*
X15745349Y-15815241D01*
X15745349Y-15815241D02*
X15726301Y-15805717D01*
X15726301Y-15805717D02*
X15697730Y-15805717D01*
X15697730Y-15805717D02*
X15678682Y-15796193D01*
X15678682Y-15796193D02*
X15669158Y-15777146D01*
X15669158Y-15777146D02*
X15669158Y-15767622D01*
X15669158Y-15767622D02*
X15678682Y-15748574D01*
X15678682Y-15748574D02*
X15697730Y-15739050D01*
X15697730Y-15739050D02*
X15726301Y-15739050D01*
X15726301Y-15739050D02*
X15745349Y-15748574D01*
X15821539Y-15948574D02*
X15831063Y-15939050D01*
X15831063Y-15939050D02*
X15850111Y-15910479D01*
X15850111Y-15910479D02*
X15859634Y-15891431D01*
X15859634Y-15891431D02*
X15869158Y-15862860D01*
X15869158Y-15862860D02*
X15878682Y-15815241D01*
X15878682Y-15815241D02*
X15878682Y-15777146D01*
X15878682Y-15777146D02*
X15869158Y-15729527D01*
X15869158Y-15729527D02*
X15859634Y-15700955D01*
X15859634Y-15700955D02*
X15850111Y-15681908D01*
X15850111Y-15681908D02*
X15831063Y-15653336D01*
X15831063Y-15653336D02*
X15821539Y-15643812D01*
D12*
X10856000Y-16044900D02*
G75*
G02*
X10756000Y-16044900I-50000J0D01*
G01*
X10756000Y-16044900D02*
G75*
G02*
X10856000Y-16044900I50000J0D01*
G01*
D11*
X11221539Y-16136384D02*
X11107253Y-16136384D01*
X11164396Y-16136384D02*
X11164396Y-15936384D01*
X11164396Y-15936384D02*
X11145348Y-15964955D01*
X11145348Y-15964955D02*
X11126301Y-15984003D01*
X11126301Y-15984003D02*
X11107253Y-15993527D01*
X11307253Y-16117336D02*
X11316777Y-16126860D01*
X11316777Y-16126860D02*
X11307253Y-16136384D01*
X11307253Y-16136384D02*
X11297729Y-16126860D01*
X11297729Y-16126860D02*
X11307253Y-16117336D01*
X11307253Y-16117336D02*
X11307253Y-16136384D01*
X11440586Y-15936384D02*
X11459634Y-15936384D01*
X11459634Y-15936384D02*
X11478682Y-15945908D01*
X11478682Y-15945908D02*
X11488205Y-15955431D01*
X11488205Y-15955431D02*
X11497729Y-15974479D01*
X11497729Y-15974479D02*
X11507253Y-16012574D01*
X11507253Y-16012574D02*
X11507253Y-16060193D01*
X11507253Y-16060193D02*
X11497729Y-16098288D01*
X11497729Y-16098288D02*
X11488205Y-16117336D01*
X11488205Y-16117336D02*
X11478682Y-16126860D01*
X11478682Y-16126860D02*
X11459634Y-16136384D01*
X11459634Y-16136384D02*
X11440586Y-16136384D01*
X11440586Y-16136384D02*
X11421539Y-16126860D01*
X11421539Y-16126860D02*
X11412015Y-16117336D01*
X11412015Y-16117336D02*
X11402491Y-16098288D01*
X11402491Y-16098288D02*
X11392967Y-16060193D01*
X11392967Y-16060193D02*
X11392967Y-16012574D01*
X11392967Y-16012574D02*
X11402491Y-15974479D01*
X11402491Y-15974479D02*
X11412015Y-15955431D01*
X11412015Y-15955431D02*
X11421539Y-15945908D01*
X11421539Y-15945908D02*
X11440586Y-15936384D01*
X11631062Y-15936384D02*
X11650110Y-15936384D01*
X11650110Y-15936384D02*
X11669158Y-15945908D01*
X11669158Y-15945908D02*
X11678682Y-15955431D01*
X11678682Y-15955431D02*
X11688205Y-15974479D01*
X11688205Y-15974479D02*
X11697729Y-16012574D01*
X11697729Y-16012574D02*
X11697729Y-16060193D01*
X11697729Y-16060193D02*
X11688205Y-16098288D01*
X11688205Y-16098288D02*
X11678682Y-16117336D01*
X11678682Y-16117336D02*
X11669158Y-16126860D01*
X11669158Y-16126860D02*
X11650110Y-16136384D01*
X11650110Y-16136384D02*
X11631062Y-16136384D01*
X11631062Y-16136384D02*
X11612015Y-16126860D01*
X11612015Y-16126860D02*
X11602491Y-16117336D01*
X11602491Y-16117336D02*
X11592967Y-16098288D01*
X11592967Y-16098288D02*
X11583443Y-16060193D01*
X11583443Y-16060193D02*
X11583443Y-16012574D01*
X11583443Y-16012574D02*
X11592967Y-15974479D01*
X11592967Y-15974479D02*
X11602491Y-15955431D01*
X11602491Y-15955431D02*
X11612015Y-15945908D01*
X11612015Y-15945908D02*
X11631062Y-15936384D01*
X11821539Y-15936384D02*
X11840586Y-15936384D01*
X11840586Y-15936384D02*
X11859634Y-15945908D01*
X11859634Y-15945908D02*
X11869158Y-15955431D01*
X11869158Y-15955431D02*
X11878682Y-15974479D01*
X11878682Y-15974479D02*
X11888205Y-16012574D01*
X11888205Y-16012574D02*
X11888205Y-16060193D01*
X11888205Y-16060193D02*
X11878682Y-16098288D01*
X11878682Y-16098288D02*
X11869158Y-16117336D01*
X11869158Y-16117336D02*
X11859634Y-16126860D01*
X11859634Y-16126860D02*
X11840586Y-16136384D01*
X11840586Y-16136384D02*
X11821539Y-16136384D01*
X11821539Y-16136384D02*
X11802491Y-16126860D01*
X11802491Y-16126860D02*
X11792967Y-16117336D01*
X11792967Y-16117336D02*
X11783443Y-16098288D01*
X11783443Y-16098288D02*
X11773920Y-16060193D01*
X11773920Y-16060193D02*
X11773920Y-16012574D01*
X11773920Y-16012574D02*
X11783443Y-15974479D01*
X11783443Y-15974479D02*
X11792967Y-15955431D01*
X11792967Y-15955431D02*
X11802491Y-15945908D01*
X11802491Y-15945908D02*
X11821539Y-15936384D01*
X11973920Y-16136384D02*
X11973920Y-16003050D01*
X11973920Y-16022098D02*
X11983443Y-16012574D01*
X11983443Y-16012574D02*
X12002491Y-16003050D01*
X12002491Y-16003050D02*
X12031063Y-16003050D01*
X12031063Y-16003050D02*
X12050110Y-16012574D01*
X12050110Y-16012574D02*
X12059634Y-16031622D01*
X12059634Y-16031622D02*
X12059634Y-16136384D01*
X12059634Y-16031622D02*
X12069158Y-16012574D01*
X12069158Y-16012574D02*
X12088205Y-16003050D01*
X12088205Y-16003050D02*
X12116777Y-16003050D01*
X12116777Y-16003050D02*
X12135824Y-16012574D01*
X12135824Y-16012574D02*
X12145348Y-16031622D01*
X12145348Y-16031622D02*
X12145348Y-16136384D01*
X12240586Y-16136384D02*
X12240586Y-16003050D01*
X12240586Y-16022098D02*
X12250110Y-16012574D01*
X12250110Y-16012574D02*
X12269158Y-16003050D01*
X12269158Y-16003050D02*
X12297729Y-16003050D01*
X12297729Y-16003050D02*
X12316777Y-16012574D01*
X12316777Y-16012574D02*
X12326301Y-16031622D01*
X12326301Y-16031622D02*
X12326301Y-16136384D01*
X12326301Y-16031622D02*
X12335824Y-16012574D01*
X12335824Y-16012574D02*
X12354872Y-16003050D01*
X12354872Y-16003050D02*
X12383443Y-16003050D01*
X12383443Y-16003050D02*
X12402491Y-16012574D01*
X12402491Y-16012574D02*
X12412015Y-16031622D01*
X12412015Y-16031622D02*
X12412015Y-16136384D01*
X12802491Y-15926860D02*
X12631063Y-16184003D01*
X13059634Y-15936384D02*
X13078682Y-15936384D01*
X13078682Y-15936384D02*
X13097729Y-15945908D01*
X13097729Y-15945908D02*
X13107253Y-15955431D01*
X13107253Y-15955431D02*
X13116777Y-15974479D01*
X13116777Y-15974479D02*
X13126301Y-16012574D01*
X13126301Y-16012574D02*
X13126301Y-16060193D01*
X13126301Y-16060193D02*
X13116777Y-16098288D01*
X13116777Y-16098288D02*
X13107253Y-16117336D01*
X13107253Y-16117336D02*
X13097729Y-16126860D01*
X13097729Y-16126860D02*
X13078682Y-16136384D01*
X13078682Y-16136384D02*
X13059634Y-16136384D01*
X13059634Y-16136384D02*
X13040586Y-16126860D01*
X13040586Y-16126860D02*
X13031063Y-16117336D01*
X13031063Y-16117336D02*
X13021539Y-16098288D01*
X13021539Y-16098288D02*
X13012015Y-16060193D01*
X13012015Y-16060193D02*
X13012015Y-16012574D01*
X13012015Y-16012574D02*
X13021539Y-15974479D01*
X13021539Y-15974479D02*
X13031063Y-15955431D01*
X13031063Y-15955431D02*
X13040586Y-15945908D01*
X13040586Y-15945908D02*
X13059634Y-15936384D01*
X13212015Y-16117336D02*
X13221539Y-16126860D01*
X13221539Y-16126860D02*
X13212015Y-16136384D01*
X13212015Y-16136384D02*
X13202491Y-16126860D01*
X13202491Y-16126860D02*
X13212015Y-16117336D01*
X13212015Y-16117336D02*
X13212015Y-16136384D01*
X13345348Y-15936384D02*
X13364396Y-15936384D01*
X13364396Y-15936384D02*
X13383444Y-15945908D01*
X13383444Y-15945908D02*
X13392967Y-15955431D01*
X13392967Y-15955431D02*
X13402491Y-15974479D01*
X13402491Y-15974479D02*
X13412015Y-16012574D01*
X13412015Y-16012574D02*
X13412015Y-16060193D01*
X13412015Y-16060193D02*
X13402491Y-16098288D01*
X13402491Y-16098288D02*
X13392967Y-16117336D01*
X13392967Y-16117336D02*
X13383444Y-16126860D01*
X13383444Y-16126860D02*
X13364396Y-16136384D01*
X13364396Y-16136384D02*
X13345348Y-16136384D01*
X13345348Y-16136384D02*
X13326301Y-16126860D01*
X13326301Y-16126860D02*
X13316777Y-16117336D01*
X13316777Y-16117336D02*
X13307253Y-16098288D01*
X13307253Y-16098288D02*
X13297729Y-16060193D01*
X13297729Y-16060193D02*
X13297729Y-16012574D01*
X13297729Y-16012574D02*
X13307253Y-15974479D01*
X13307253Y-15974479D02*
X13316777Y-15955431D01*
X13316777Y-15955431D02*
X13326301Y-15945908D01*
X13326301Y-15945908D02*
X13345348Y-15936384D01*
X13478682Y-15936384D02*
X13602491Y-15936384D01*
X13602491Y-15936384D02*
X13535825Y-16012574D01*
X13535825Y-16012574D02*
X13564396Y-16012574D01*
X13564396Y-16012574D02*
X13583444Y-16022098D01*
X13583444Y-16022098D02*
X13592967Y-16031622D01*
X13592967Y-16031622D02*
X13602491Y-16050669D01*
X13602491Y-16050669D02*
X13602491Y-16098288D01*
X13602491Y-16098288D02*
X13592967Y-16117336D01*
X13592967Y-16117336D02*
X13583444Y-16126860D01*
X13583444Y-16126860D02*
X13564396Y-16136384D01*
X13564396Y-16136384D02*
X13507253Y-16136384D01*
X13507253Y-16136384D02*
X13488206Y-16126860D01*
X13488206Y-16126860D02*
X13478682Y-16117336D01*
X13697729Y-16136384D02*
X13735825Y-16136384D01*
X13735825Y-16136384D02*
X13754872Y-16126860D01*
X13754872Y-16126860D02*
X13764396Y-16117336D01*
X13764396Y-16117336D02*
X13783444Y-16088765D01*
X13783444Y-16088765D02*
X13792967Y-16050669D01*
X13792967Y-16050669D02*
X13792967Y-15974479D01*
X13792967Y-15974479D02*
X13783444Y-15955431D01*
X13783444Y-15955431D02*
X13773920Y-15945908D01*
X13773920Y-15945908D02*
X13754872Y-15936384D01*
X13754872Y-15936384D02*
X13716777Y-15936384D01*
X13716777Y-15936384D02*
X13697729Y-15945908D01*
X13697729Y-15945908D02*
X13688206Y-15955431D01*
X13688206Y-15955431D02*
X13678682Y-15974479D01*
X13678682Y-15974479D02*
X13678682Y-16022098D01*
X13678682Y-16022098D02*
X13688206Y-16041146D01*
X13688206Y-16041146D02*
X13697729Y-16050669D01*
X13697729Y-16050669D02*
X13716777Y-16060193D01*
X13716777Y-16060193D02*
X13754872Y-16060193D01*
X13754872Y-16060193D02*
X13773920Y-16050669D01*
X13773920Y-16050669D02*
X13783444Y-16041146D01*
X13783444Y-16041146D02*
X13792967Y-16022098D01*
X13964396Y-16003050D02*
X13964396Y-16136384D01*
X13916777Y-15926860D02*
X13869158Y-16069717D01*
X13869158Y-16069717D02*
X13992967Y-16069717D01*
X14059634Y-15936384D02*
X14059634Y-15974479D01*
X14135825Y-15936384D02*
X14135825Y-15974479D01*
X14431063Y-16212574D02*
X14421539Y-16203050D01*
X14421539Y-16203050D02*
X14402491Y-16174479D01*
X14402491Y-16174479D02*
X14392968Y-16155431D01*
X14392968Y-16155431D02*
X14383444Y-16126860D01*
X14383444Y-16126860D02*
X14373920Y-16079241D01*
X14373920Y-16079241D02*
X14373920Y-16041146D01*
X14373920Y-16041146D02*
X14383444Y-15993527D01*
X14383444Y-15993527D02*
X14392968Y-15964955D01*
X14392968Y-15964955D02*
X14402491Y-15945908D01*
X14402491Y-15945908D02*
X14421539Y-15917336D01*
X14421539Y-15917336D02*
X14431063Y-15907812D01*
X14592968Y-16003050D02*
X14592968Y-16136384D01*
X14545348Y-15926860D02*
X14497729Y-16069717D01*
X14497729Y-16069717D02*
X14621539Y-16069717D01*
X14678682Y-15936384D02*
X14812015Y-15936384D01*
X14812015Y-15936384D02*
X14726301Y-16136384D01*
X14973920Y-16003050D02*
X14973920Y-16136384D01*
X14926301Y-15926860D02*
X14878682Y-16069717D01*
X14878682Y-16069717D02*
X15002491Y-16069717D01*
X15231063Y-16136384D02*
X15231063Y-15936384D01*
X15316777Y-16136384D02*
X15316777Y-16031622D01*
X15316777Y-16031622D02*
X15307253Y-16012574D01*
X15307253Y-16012574D02*
X15288206Y-16003050D01*
X15288206Y-16003050D02*
X15259634Y-16003050D01*
X15259634Y-16003050D02*
X15240587Y-16012574D01*
X15240587Y-16012574D02*
X15231063Y-16022098D01*
X15440587Y-16136384D02*
X15421539Y-16126860D01*
X15421539Y-16126860D02*
X15412015Y-16117336D01*
X15412015Y-16117336D02*
X15402491Y-16098288D01*
X15402491Y-16098288D02*
X15402491Y-16041146D01*
X15402491Y-16041146D02*
X15412015Y-16022098D01*
X15412015Y-16022098D02*
X15421539Y-16012574D01*
X15421539Y-16012574D02*
X15440587Y-16003050D01*
X15440587Y-16003050D02*
X15469158Y-16003050D01*
X15469158Y-16003050D02*
X15488206Y-16012574D01*
X15488206Y-16012574D02*
X15497730Y-16022098D01*
X15497730Y-16022098D02*
X15507253Y-16041146D01*
X15507253Y-16041146D02*
X15507253Y-16098288D01*
X15507253Y-16098288D02*
X15497730Y-16117336D01*
X15497730Y-16117336D02*
X15488206Y-16126860D01*
X15488206Y-16126860D02*
X15469158Y-16136384D01*
X15469158Y-16136384D02*
X15440587Y-16136384D01*
X15621539Y-16136384D02*
X15602491Y-16126860D01*
X15602491Y-16126860D02*
X15592968Y-16107812D01*
X15592968Y-16107812D02*
X15592968Y-15936384D01*
X15773920Y-16126860D02*
X15754872Y-16136384D01*
X15754872Y-16136384D02*
X15716777Y-16136384D01*
X15716777Y-16136384D02*
X15697730Y-16126860D01*
X15697730Y-16126860D02*
X15688206Y-16107812D01*
X15688206Y-16107812D02*
X15688206Y-16031622D01*
X15688206Y-16031622D02*
X15697730Y-16012574D01*
X15697730Y-16012574D02*
X15716777Y-16003050D01*
X15716777Y-16003050D02*
X15754872Y-16003050D01*
X15754872Y-16003050D02*
X15773920Y-16012574D01*
X15773920Y-16012574D02*
X15783444Y-16031622D01*
X15783444Y-16031622D02*
X15783444Y-16050669D01*
X15783444Y-16050669D02*
X15688206Y-16069717D01*
X15859634Y-16126860D02*
X15878682Y-16136384D01*
X15878682Y-16136384D02*
X15916777Y-16136384D01*
X15916777Y-16136384D02*
X15935825Y-16126860D01*
X15935825Y-16126860D02*
X15945349Y-16107812D01*
X15945349Y-16107812D02*
X15945349Y-16098288D01*
X15945349Y-16098288D02*
X15935825Y-16079241D01*
X15935825Y-16079241D02*
X15916777Y-16069717D01*
X15916777Y-16069717D02*
X15888206Y-16069717D01*
X15888206Y-16069717D02*
X15869158Y-16060193D01*
X15869158Y-16060193D02*
X15859634Y-16041146D01*
X15859634Y-16041146D02*
X15859634Y-16031622D01*
X15859634Y-16031622D02*
X15869158Y-16012574D01*
X15869158Y-16012574D02*
X15888206Y-16003050D01*
X15888206Y-16003050D02*
X15916777Y-16003050D01*
X15916777Y-16003050D02*
X15935825Y-16012574D01*
X16183444Y-16060193D02*
X16335825Y-16060193D01*
X16259634Y-16136384D02*
X16259634Y-15984003D01*
X16573920Y-15955431D02*
X16583444Y-15945908D01*
X16583444Y-15945908D02*
X16602492Y-15936384D01*
X16602492Y-15936384D02*
X16650111Y-15936384D01*
X16650111Y-15936384D02*
X16669158Y-15945908D01*
X16669158Y-15945908D02*
X16678682Y-15955431D01*
X16678682Y-15955431D02*
X16688206Y-15974479D01*
X16688206Y-15974479D02*
X16688206Y-15993527D01*
X16688206Y-15993527D02*
X16678682Y-16022098D01*
X16678682Y-16022098D02*
X16564396Y-16136384D01*
X16564396Y-16136384D02*
X16688206Y-16136384D01*
X16916777Y-16126860D02*
X16935825Y-16136384D01*
X16935825Y-16136384D02*
X16973920Y-16136384D01*
X16973920Y-16136384D02*
X16992968Y-16126860D01*
X16992968Y-16126860D02*
X17002492Y-16107812D01*
X17002492Y-16107812D02*
X17002492Y-16098288D01*
X17002492Y-16098288D02*
X16992968Y-16079241D01*
X16992968Y-16079241D02*
X16973920Y-16069717D01*
X16973920Y-16069717D02*
X16945349Y-16069717D01*
X16945349Y-16069717D02*
X16926301Y-16060193D01*
X16926301Y-16060193D02*
X16916777Y-16041146D01*
X16916777Y-16041146D02*
X16916777Y-16031622D01*
X16916777Y-16031622D02*
X16926301Y-16012574D01*
X16926301Y-16012574D02*
X16945349Y-16003050D01*
X16945349Y-16003050D02*
X16973920Y-16003050D01*
X16973920Y-16003050D02*
X16992968Y-16012574D01*
X17116777Y-16136384D02*
X17097730Y-16126860D01*
X17097730Y-16126860D02*
X17088206Y-16107812D01*
X17088206Y-16107812D02*
X17088206Y-15936384D01*
X17221539Y-16136384D02*
X17202492Y-16126860D01*
X17202492Y-16126860D02*
X17192968Y-16117336D01*
X17192968Y-16117336D02*
X17183444Y-16098288D01*
X17183444Y-16098288D02*
X17183444Y-16041146D01*
X17183444Y-16041146D02*
X17192968Y-16022098D01*
X17192968Y-16022098D02*
X17202492Y-16012574D01*
X17202492Y-16012574D02*
X17221539Y-16003050D01*
X17221539Y-16003050D02*
X17250111Y-16003050D01*
X17250111Y-16003050D02*
X17269158Y-16012574D01*
X17269158Y-16012574D02*
X17278682Y-16022098D01*
X17278682Y-16022098D02*
X17288206Y-16041146D01*
X17288206Y-16041146D02*
X17288206Y-16098288D01*
X17288206Y-16098288D02*
X17278682Y-16117336D01*
X17278682Y-16117336D02*
X17269158Y-16126860D01*
X17269158Y-16126860D02*
X17250111Y-16136384D01*
X17250111Y-16136384D02*
X17221539Y-16136384D01*
X17345349Y-16003050D02*
X17421539Y-16003050D01*
X17373920Y-15936384D02*
X17373920Y-16107812D01*
X17373920Y-16107812D02*
X17383444Y-16126860D01*
X17383444Y-16126860D02*
X17402492Y-16136384D01*
X17402492Y-16136384D02*
X17421539Y-16136384D01*
X17478682Y-16126860D02*
X17497730Y-16136384D01*
X17497730Y-16136384D02*
X17535825Y-16136384D01*
X17535825Y-16136384D02*
X17554873Y-16126860D01*
X17554873Y-16126860D02*
X17564397Y-16107812D01*
X17564397Y-16107812D02*
X17564397Y-16098288D01*
X17564397Y-16098288D02*
X17554873Y-16079241D01*
X17554873Y-16079241D02*
X17535825Y-16069717D01*
X17535825Y-16069717D02*
X17507254Y-16069717D01*
X17507254Y-16069717D02*
X17488206Y-16060193D01*
X17488206Y-16060193D02*
X17478682Y-16041146D01*
X17478682Y-16041146D02*
X17478682Y-16031622D01*
X17478682Y-16031622D02*
X17488206Y-16012574D01*
X17488206Y-16012574D02*
X17507254Y-16003050D01*
X17507254Y-16003050D02*
X17535825Y-16003050D01*
X17535825Y-16003050D02*
X17554873Y-16012574D01*
X17631063Y-16212574D02*
X17640587Y-16203050D01*
X17640587Y-16203050D02*
X17659635Y-16174479D01*
X17659635Y-16174479D02*
X17669158Y-16155431D01*
X17669158Y-16155431D02*
X17678682Y-16126860D01*
X17678682Y-16126860D02*
X17688206Y-16079241D01*
X17688206Y-16079241D02*
X17688206Y-16041146D01*
X17688206Y-16041146D02*
X17678682Y-15993527D01*
X17678682Y-15993527D02*
X17669158Y-15964955D01*
X17669158Y-15964955D02*
X17659635Y-15945908D01*
X17659635Y-15945908D02*
X17640587Y-15917336D01*
X17640587Y-15917336D02*
X17631063Y-15907812D01*
D13*
X10801000Y-16253900D02*
X10801000Y-16363900D01*
X10746000Y-16308900D02*
X10856000Y-16308900D01*
D11*
X11221539Y-16400384D02*
X11107253Y-16400384D01*
X11164396Y-16400384D02*
X11164396Y-16200384D01*
X11164396Y-16200384D02*
X11145348Y-16228955D01*
X11145348Y-16228955D02*
X11126301Y-16248003D01*
X11126301Y-16248003D02*
X11107253Y-16257527D01*
X11307253Y-16381336D02*
X11316777Y-16390860D01*
X11316777Y-16390860D02*
X11307253Y-16400384D01*
X11307253Y-16400384D02*
X11297729Y-16390860D01*
X11297729Y-16390860D02*
X11307253Y-16381336D01*
X11307253Y-16381336D02*
X11307253Y-16400384D01*
X11507253Y-16400384D02*
X11392967Y-16400384D01*
X11450110Y-16400384D02*
X11450110Y-16200384D01*
X11450110Y-16200384D02*
X11431062Y-16228955D01*
X11431062Y-16228955D02*
X11412015Y-16248003D01*
X11412015Y-16248003D02*
X11392967Y-16257527D01*
X11631062Y-16200384D02*
X11650110Y-16200384D01*
X11650110Y-16200384D02*
X11669158Y-16209908D01*
X11669158Y-16209908D02*
X11678682Y-16219431D01*
X11678682Y-16219431D02*
X11688205Y-16238479D01*
X11688205Y-16238479D02*
X11697729Y-16276574D01*
X11697729Y-16276574D02*
X11697729Y-16324193D01*
X11697729Y-16324193D02*
X11688205Y-16362288D01*
X11688205Y-16362288D02*
X11678682Y-16381336D01*
X11678682Y-16381336D02*
X11669158Y-16390860D01*
X11669158Y-16390860D02*
X11650110Y-16400384D01*
X11650110Y-16400384D02*
X11631062Y-16400384D01*
X11631062Y-16400384D02*
X11612015Y-16390860D01*
X11612015Y-16390860D02*
X11602491Y-16381336D01*
X11602491Y-16381336D02*
X11592967Y-16362288D01*
X11592967Y-16362288D02*
X11583443Y-16324193D01*
X11583443Y-16324193D02*
X11583443Y-16276574D01*
X11583443Y-16276574D02*
X11592967Y-16238479D01*
X11592967Y-16238479D02*
X11602491Y-16219431D01*
X11602491Y-16219431D02*
X11612015Y-16209908D01*
X11612015Y-16209908D02*
X11631062Y-16200384D01*
X11821539Y-16200384D02*
X11840586Y-16200384D01*
X11840586Y-16200384D02*
X11859634Y-16209908D01*
X11859634Y-16209908D02*
X11869158Y-16219431D01*
X11869158Y-16219431D02*
X11878682Y-16238479D01*
X11878682Y-16238479D02*
X11888205Y-16276574D01*
X11888205Y-16276574D02*
X11888205Y-16324193D01*
X11888205Y-16324193D02*
X11878682Y-16362288D01*
X11878682Y-16362288D02*
X11869158Y-16381336D01*
X11869158Y-16381336D02*
X11859634Y-16390860D01*
X11859634Y-16390860D02*
X11840586Y-16400384D01*
X11840586Y-16400384D02*
X11821539Y-16400384D01*
X11821539Y-16400384D02*
X11802491Y-16390860D01*
X11802491Y-16390860D02*
X11792967Y-16381336D01*
X11792967Y-16381336D02*
X11783443Y-16362288D01*
X11783443Y-16362288D02*
X11773920Y-16324193D01*
X11773920Y-16324193D02*
X11773920Y-16276574D01*
X11773920Y-16276574D02*
X11783443Y-16238479D01*
X11783443Y-16238479D02*
X11792967Y-16219431D01*
X11792967Y-16219431D02*
X11802491Y-16209908D01*
X11802491Y-16209908D02*
X11821539Y-16200384D01*
X11973920Y-16400384D02*
X11973920Y-16267050D01*
X11973920Y-16286098D02*
X11983443Y-16276574D01*
X11983443Y-16276574D02*
X12002491Y-16267050D01*
X12002491Y-16267050D02*
X12031063Y-16267050D01*
X12031063Y-16267050D02*
X12050110Y-16276574D01*
X12050110Y-16276574D02*
X12059634Y-16295622D01*
X12059634Y-16295622D02*
X12059634Y-16400384D01*
X12059634Y-16295622D02*
X12069158Y-16276574D01*
X12069158Y-16276574D02*
X12088205Y-16267050D01*
X12088205Y-16267050D02*
X12116777Y-16267050D01*
X12116777Y-16267050D02*
X12135824Y-16276574D01*
X12135824Y-16276574D02*
X12145348Y-16295622D01*
X12145348Y-16295622D02*
X12145348Y-16400384D01*
X12240586Y-16400384D02*
X12240586Y-16267050D01*
X12240586Y-16286098D02*
X12250110Y-16276574D01*
X12250110Y-16276574D02*
X12269158Y-16267050D01*
X12269158Y-16267050D02*
X12297729Y-16267050D01*
X12297729Y-16267050D02*
X12316777Y-16276574D01*
X12316777Y-16276574D02*
X12326301Y-16295622D01*
X12326301Y-16295622D02*
X12326301Y-16400384D01*
X12326301Y-16295622D02*
X12335824Y-16276574D01*
X12335824Y-16276574D02*
X12354872Y-16267050D01*
X12354872Y-16267050D02*
X12383443Y-16267050D01*
X12383443Y-16267050D02*
X12402491Y-16276574D01*
X12402491Y-16276574D02*
X12412015Y-16295622D01*
X12412015Y-16295622D02*
X12412015Y-16400384D01*
X12802491Y-16190860D02*
X12631063Y-16448003D01*
X13059634Y-16200384D02*
X13078682Y-16200384D01*
X13078682Y-16200384D02*
X13097729Y-16209908D01*
X13097729Y-16209908D02*
X13107253Y-16219431D01*
X13107253Y-16219431D02*
X13116777Y-16238479D01*
X13116777Y-16238479D02*
X13126301Y-16276574D01*
X13126301Y-16276574D02*
X13126301Y-16324193D01*
X13126301Y-16324193D02*
X13116777Y-16362288D01*
X13116777Y-16362288D02*
X13107253Y-16381336D01*
X13107253Y-16381336D02*
X13097729Y-16390860D01*
X13097729Y-16390860D02*
X13078682Y-16400384D01*
X13078682Y-16400384D02*
X13059634Y-16400384D01*
X13059634Y-16400384D02*
X13040586Y-16390860D01*
X13040586Y-16390860D02*
X13031063Y-16381336D01*
X13031063Y-16381336D02*
X13021539Y-16362288D01*
X13021539Y-16362288D02*
X13012015Y-16324193D01*
X13012015Y-16324193D02*
X13012015Y-16276574D01*
X13012015Y-16276574D02*
X13021539Y-16238479D01*
X13021539Y-16238479D02*
X13031063Y-16219431D01*
X13031063Y-16219431D02*
X13040586Y-16209908D01*
X13040586Y-16209908D02*
X13059634Y-16200384D01*
X13212015Y-16381336D02*
X13221539Y-16390860D01*
X13221539Y-16390860D02*
X13212015Y-16400384D01*
X13212015Y-16400384D02*
X13202491Y-16390860D01*
X13202491Y-16390860D02*
X13212015Y-16381336D01*
X13212015Y-16381336D02*
X13212015Y-16400384D01*
X13345348Y-16200384D02*
X13364396Y-16200384D01*
X13364396Y-16200384D02*
X13383444Y-16209908D01*
X13383444Y-16209908D02*
X13392967Y-16219431D01*
X13392967Y-16219431D02*
X13402491Y-16238479D01*
X13402491Y-16238479D02*
X13412015Y-16276574D01*
X13412015Y-16276574D02*
X13412015Y-16324193D01*
X13412015Y-16324193D02*
X13402491Y-16362288D01*
X13402491Y-16362288D02*
X13392967Y-16381336D01*
X13392967Y-16381336D02*
X13383444Y-16390860D01*
X13383444Y-16390860D02*
X13364396Y-16400384D01*
X13364396Y-16400384D02*
X13345348Y-16400384D01*
X13345348Y-16400384D02*
X13326301Y-16390860D01*
X13326301Y-16390860D02*
X13316777Y-16381336D01*
X13316777Y-16381336D02*
X13307253Y-16362288D01*
X13307253Y-16362288D02*
X13297729Y-16324193D01*
X13297729Y-16324193D02*
X13297729Y-16276574D01*
X13297729Y-16276574D02*
X13307253Y-16238479D01*
X13307253Y-16238479D02*
X13316777Y-16219431D01*
X13316777Y-16219431D02*
X13326301Y-16209908D01*
X13326301Y-16209908D02*
X13345348Y-16200384D01*
X13583444Y-16267050D02*
X13583444Y-16400384D01*
X13535825Y-16190860D02*
X13488206Y-16333717D01*
X13488206Y-16333717D02*
X13612015Y-16333717D01*
X13669158Y-16200384D02*
X13792967Y-16200384D01*
X13792967Y-16200384D02*
X13726301Y-16276574D01*
X13726301Y-16276574D02*
X13754872Y-16276574D01*
X13754872Y-16276574D02*
X13773920Y-16286098D01*
X13773920Y-16286098D02*
X13783444Y-16295622D01*
X13783444Y-16295622D02*
X13792967Y-16314669D01*
X13792967Y-16314669D02*
X13792967Y-16362288D01*
X13792967Y-16362288D02*
X13783444Y-16381336D01*
X13783444Y-16381336D02*
X13773920Y-16390860D01*
X13773920Y-16390860D02*
X13754872Y-16400384D01*
X13754872Y-16400384D02*
X13697729Y-16400384D01*
X13697729Y-16400384D02*
X13678682Y-16390860D01*
X13678682Y-16390860D02*
X13669158Y-16381336D01*
X13859634Y-16200384D02*
X13983444Y-16200384D01*
X13983444Y-16200384D02*
X13916777Y-16276574D01*
X13916777Y-16276574D02*
X13945348Y-16276574D01*
X13945348Y-16276574D02*
X13964396Y-16286098D01*
X13964396Y-16286098D02*
X13973920Y-16295622D01*
X13973920Y-16295622D02*
X13983444Y-16314669D01*
X13983444Y-16314669D02*
X13983444Y-16362288D01*
X13983444Y-16362288D02*
X13973920Y-16381336D01*
X13973920Y-16381336D02*
X13964396Y-16390860D01*
X13964396Y-16390860D02*
X13945348Y-16400384D01*
X13945348Y-16400384D02*
X13888206Y-16400384D01*
X13888206Y-16400384D02*
X13869158Y-16390860D01*
X13869158Y-16390860D02*
X13859634Y-16381336D01*
X14059634Y-16200384D02*
X14059634Y-16238479D01*
X14135825Y-16200384D02*
X14135825Y-16238479D01*
X14431063Y-16476574D02*
X14421539Y-16467050D01*
X14421539Y-16467050D02*
X14402491Y-16438479D01*
X14402491Y-16438479D02*
X14392968Y-16419431D01*
X14392968Y-16419431D02*
X14383444Y-16390860D01*
X14383444Y-16390860D02*
X14373920Y-16343241D01*
X14373920Y-16343241D02*
X14373920Y-16305146D01*
X14373920Y-16305146D02*
X14383444Y-16257527D01*
X14383444Y-16257527D02*
X14392968Y-16228955D01*
X14392968Y-16228955D02*
X14402491Y-16209908D01*
X14402491Y-16209908D02*
X14421539Y-16181336D01*
X14421539Y-16181336D02*
X14431063Y-16171812D01*
X14592968Y-16267050D02*
X14592968Y-16400384D01*
X14545348Y-16190860D02*
X14497729Y-16333717D01*
X14497729Y-16333717D02*
X14621539Y-16333717D01*
X14850110Y-16400384D02*
X14850110Y-16200384D01*
X14935825Y-16400384D02*
X14935825Y-16295622D01*
X14935825Y-16295622D02*
X14926301Y-16276574D01*
X14926301Y-16276574D02*
X14907253Y-16267050D01*
X14907253Y-16267050D02*
X14878682Y-16267050D01*
X14878682Y-16267050D02*
X14859634Y-16276574D01*
X14859634Y-16276574D02*
X14850110Y-16286098D01*
X15059634Y-16400384D02*
X15040587Y-16390860D01*
X15040587Y-16390860D02*
X15031063Y-16381336D01*
X15031063Y-16381336D02*
X15021539Y-16362288D01*
X15021539Y-16362288D02*
X15021539Y-16305146D01*
X15021539Y-16305146D02*
X15031063Y-16286098D01*
X15031063Y-16286098D02*
X15040587Y-16276574D01*
X15040587Y-16276574D02*
X15059634Y-16267050D01*
X15059634Y-16267050D02*
X15088206Y-16267050D01*
X15088206Y-16267050D02*
X15107253Y-16276574D01*
X15107253Y-16276574D02*
X15116777Y-16286098D01*
X15116777Y-16286098D02*
X15126301Y-16305146D01*
X15126301Y-16305146D02*
X15126301Y-16362288D01*
X15126301Y-16362288D02*
X15116777Y-16381336D01*
X15116777Y-16381336D02*
X15107253Y-16390860D01*
X15107253Y-16390860D02*
X15088206Y-16400384D01*
X15088206Y-16400384D02*
X15059634Y-16400384D01*
X15240587Y-16400384D02*
X15221539Y-16390860D01*
X15221539Y-16390860D02*
X15212015Y-16371812D01*
X15212015Y-16371812D02*
X15212015Y-16200384D01*
X15392968Y-16390860D02*
X15373920Y-16400384D01*
X15373920Y-16400384D02*
X15335825Y-16400384D01*
X15335825Y-16400384D02*
X15316777Y-16390860D01*
X15316777Y-16390860D02*
X15307253Y-16371812D01*
X15307253Y-16371812D02*
X15307253Y-16295622D01*
X15307253Y-16295622D02*
X15316777Y-16276574D01*
X15316777Y-16276574D02*
X15335825Y-16267050D01*
X15335825Y-16267050D02*
X15373920Y-16267050D01*
X15373920Y-16267050D02*
X15392968Y-16276574D01*
X15392968Y-16276574D02*
X15402491Y-16295622D01*
X15402491Y-16295622D02*
X15402491Y-16314669D01*
X15402491Y-16314669D02*
X15307253Y-16333717D01*
X15478682Y-16390860D02*
X15497730Y-16400384D01*
X15497730Y-16400384D02*
X15535825Y-16400384D01*
X15535825Y-16400384D02*
X15554872Y-16390860D01*
X15554872Y-16390860D02*
X15564396Y-16371812D01*
X15564396Y-16371812D02*
X15564396Y-16362288D01*
X15564396Y-16362288D02*
X15554872Y-16343241D01*
X15554872Y-16343241D02*
X15535825Y-16333717D01*
X15535825Y-16333717D02*
X15507253Y-16333717D01*
X15507253Y-16333717D02*
X15488206Y-16324193D01*
X15488206Y-16324193D02*
X15478682Y-16305146D01*
X15478682Y-16305146D02*
X15478682Y-16295622D01*
X15478682Y-16295622D02*
X15488206Y-16276574D01*
X15488206Y-16276574D02*
X15507253Y-16267050D01*
X15507253Y-16267050D02*
X15535825Y-16267050D01*
X15535825Y-16267050D02*
X15554872Y-16276574D01*
X15631063Y-16476574D02*
X15640587Y-16467050D01*
X15640587Y-16467050D02*
X15659634Y-16438479D01*
X15659634Y-16438479D02*
X15669158Y-16419431D01*
X15669158Y-16419431D02*
X15678682Y-16390860D01*
X15678682Y-16390860D02*
X15688206Y-16343241D01*
X15688206Y-16343241D02*
X15688206Y-16305146D01*
X15688206Y-16305146D02*
X15678682Y-16257527D01*
X15678682Y-16257527D02*
X15669158Y-16228955D01*
X15669158Y-16228955D02*
X15659634Y-16209908D01*
X15659634Y-16209908D02*
X15640587Y-16181336D01*
X15640587Y-16181336D02*
X15631063Y-16171812D01*
D14*
X10836962Y-16618862D02*
X10836962Y-16526938D01*
X10745038Y-16526938D01*
X10745038Y-16618862D01*
X10836962Y-16618862D01*
D11*
X11221539Y-16664384D02*
X11107253Y-16664384D01*
X11164396Y-16664384D02*
X11164396Y-16464384D01*
X11164396Y-16464384D02*
X11145348Y-16492955D01*
X11145348Y-16492955D02*
X11126301Y-16512003D01*
X11126301Y-16512003D02*
X11107253Y-16521527D01*
X11307253Y-16645336D02*
X11316777Y-16654860D01*
X11316777Y-16654860D02*
X11307253Y-16664384D01*
X11307253Y-16664384D02*
X11297729Y-16654860D01*
X11297729Y-16654860D02*
X11307253Y-16645336D01*
X11307253Y-16645336D02*
X11307253Y-16664384D01*
X11383443Y-16464384D02*
X11507253Y-16464384D01*
X11507253Y-16464384D02*
X11440586Y-16540574D01*
X11440586Y-16540574D02*
X11469158Y-16540574D01*
X11469158Y-16540574D02*
X11488205Y-16550098D01*
X11488205Y-16550098D02*
X11497729Y-16559622D01*
X11497729Y-16559622D02*
X11507253Y-16578669D01*
X11507253Y-16578669D02*
X11507253Y-16626288D01*
X11507253Y-16626288D02*
X11497729Y-16645336D01*
X11497729Y-16645336D02*
X11488205Y-16654860D01*
X11488205Y-16654860D02*
X11469158Y-16664384D01*
X11469158Y-16664384D02*
X11412015Y-16664384D01*
X11412015Y-16664384D02*
X11392967Y-16654860D01*
X11392967Y-16654860D02*
X11383443Y-16645336D01*
X11631062Y-16464384D02*
X11650110Y-16464384D01*
X11650110Y-16464384D02*
X11669158Y-16473908D01*
X11669158Y-16473908D02*
X11678682Y-16483431D01*
X11678682Y-16483431D02*
X11688205Y-16502479D01*
X11688205Y-16502479D02*
X11697729Y-16540574D01*
X11697729Y-16540574D02*
X11697729Y-16588193D01*
X11697729Y-16588193D02*
X11688205Y-16626288D01*
X11688205Y-16626288D02*
X11678682Y-16645336D01*
X11678682Y-16645336D02*
X11669158Y-16654860D01*
X11669158Y-16654860D02*
X11650110Y-16664384D01*
X11650110Y-16664384D02*
X11631062Y-16664384D01*
X11631062Y-16664384D02*
X11612015Y-16654860D01*
X11612015Y-16654860D02*
X11602491Y-16645336D01*
X11602491Y-16645336D02*
X11592967Y-16626288D01*
X11592967Y-16626288D02*
X11583443Y-16588193D01*
X11583443Y-16588193D02*
X11583443Y-16540574D01*
X11583443Y-16540574D02*
X11592967Y-16502479D01*
X11592967Y-16502479D02*
X11602491Y-16483431D01*
X11602491Y-16483431D02*
X11612015Y-16473908D01*
X11612015Y-16473908D02*
X11631062Y-16464384D01*
X11821539Y-16464384D02*
X11840586Y-16464384D01*
X11840586Y-16464384D02*
X11859634Y-16473908D01*
X11859634Y-16473908D02*
X11869158Y-16483431D01*
X11869158Y-16483431D02*
X11878682Y-16502479D01*
X11878682Y-16502479D02*
X11888205Y-16540574D01*
X11888205Y-16540574D02*
X11888205Y-16588193D01*
X11888205Y-16588193D02*
X11878682Y-16626288D01*
X11878682Y-16626288D02*
X11869158Y-16645336D01*
X11869158Y-16645336D02*
X11859634Y-16654860D01*
X11859634Y-16654860D02*
X11840586Y-16664384D01*
X11840586Y-16664384D02*
X11821539Y-16664384D01*
X11821539Y-16664384D02*
X11802491Y-16654860D01*
X11802491Y-16654860D02*
X11792967Y-16645336D01*
X11792967Y-16645336D02*
X11783443Y-16626288D01*
X11783443Y-16626288D02*
X11773920Y-16588193D01*
X11773920Y-16588193D02*
X11773920Y-16540574D01*
X11773920Y-16540574D02*
X11783443Y-16502479D01*
X11783443Y-16502479D02*
X11792967Y-16483431D01*
X11792967Y-16483431D02*
X11802491Y-16473908D01*
X11802491Y-16473908D02*
X11821539Y-16464384D01*
X11973920Y-16664384D02*
X11973920Y-16531050D01*
X11973920Y-16550098D02*
X11983443Y-16540574D01*
X11983443Y-16540574D02*
X12002491Y-16531050D01*
X12002491Y-16531050D02*
X12031063Y-16531050D01*
X12031063Y-16531050D02*
X12050110Y-16540574D01*
X12050110Y-16540574D02*
X12059634Y-16559622D01*
X12059634Y-16559622D02*
X12059634Y-16664384D01*
X12059634Y-16559622D02*
X12069158Y-16540574D01*
X12069158Y-16540574D02*
X12088205Y-16531050D01*
X12088205Y-16531050D02*
X12116777Y-16531050D01*
X12116777Y-16531050D02*
X12135824Y-16540574D01*
X12135824Y-16540574D02*
X12145348Y-16559622D01*
X12145348Y-16559622D02*
X12145348Y-16664384D01*
X12240586Y-16664384D02*
X12240586Y-16531050D01*
X12240586Y-16550098D02*
X12250110Y-16540574D01*
X12250110Y-16540574D02*
X12269158Y-16531050D01*
X12269158Y-16531050D02*
X12297729Y-16531050D01*
X12297729Y-16531050D02*
X12316777Y-16540574D01*
X12316777Y-16540574D02*
X12326301Y-16559622D01*
X12326301Y-16559622D02*
X12326301Y-16664384D01*
X12326301Y-16559622D02*
X12335824Y-16540574D01*
X12335824Y-16540574D02*
X12354872Y-16531050D01*
X12354872Y-16531050D02*
X12383443Y-16531050D01*
X12383443Y-16531050D02*
X12402491Y-16540574D01*
X12402491Y-16540574D02*
X12412015Y-16559622D01*
X12412015Y-16559622D02*
X12412015Y-16664384D01*
X12802491Y-16454860D02*
X12631063Y-16712003D01*
X13059634Y-16464384D02*
X13078682Y-16464384D01*
X13078682Y-16464384D02*
X13097729Y-16473908D01*
X13097729Y-16473908D02*
X13107253Y-16483431D01*
X13107253Y-16483431D02*
X13116777Y-16502479D01*
X13116777Y-16502479D02*
X13126301Y-16540574D01*
X13126301Y-16540574D02*
X13126301Y-16588193D01*
X13126301Y-16588193D02*
X13116777Y-16626288D01*
X13116777Y-16626288D02*
X13107253Y-16645336D01*
X13107253Y-16645336D02*
X13097729Y-16654860D01*
X13097729Y-16654860D02*
X13078682Y-16664384D01*
X13078682Y-16664384D02*
X13059634Y-16664384D01*
X13059634Y-16664384D02*
X13040586Y-16654860D01*
X13040586Y-16654860D02*
X13031063Y-16645336D01*
X13031063Y-16645336D02*
X13021539Y-16626288D01*
X13021539Y-16626288D02*
X13012015Y-16588193D01*
X13012015Y-16588193D02*
X13012015Y-16540574D01*
X13012015Y-16540574D02*
X13021539Y-16502479D01*
X13021539Y-16502479D02*
X13031063Y-16483431D01*
X13031063Y-16483431D02*
X13040586Y-16473908D01*
X13040586Y-16473908D02*
X13059634Y-16464384D01*
X13212015Y-16645336D02*
X13221539Y-16654860D01*
X13221539Y-16654860D02*
X13212015Y-16664384D01*
X13212015Y-16664384D02*
X13202491Y-16654860D01*
X13202491Y-16654860D02*
X13212015Y-16645336D01*
X13212015Y-16645336D02*
X13212015Y-16664384D01*
X13345348Y-16464384D02*
X13364396Y-16464384D01*
X13364396Y-16464384D02*
X13383444Y-16473908D01*
X13383444Y-16473908D02*
X13392967Y-16483431D01*
X13392967Y-16483431D02*
X13402491Y-16502479D01*
X13402491Y-16502479D02*
X13412015Y-16540574D01*
X13412015Y-16540574D02*
X13412015Y-16588193D01*
X13412015Y-16588193D02*
X13402491Y-16626288D01*
X13402491Y-16626288D02*
X13392967Y-16645336D01*
X13392967Y-16645336D02*
X13383444Y-16654860D01*
X13383444Y-16654860D02*
X13364396Y-16664384D01*
X13364396Y-16664384D02*
X13345348Y-16664384D01*
X13345348Y-16664384D02*
X13326301Y-16654860D01*
X13326301Y-16654860D02*
X13316777Y-16645336D01*
X13316777Y-16645336D02*
X13307253Y-16626288D01*
X13307253Y-16626288D02*
X13297729Y-16588193D01*
X13297729Y-16588193D02*
X13297729Y-16540574D01*
X13297729Y-16540574D02*
X13307253Y-16502479D01*
X13307253Y-16502479D02*
X13316777Y-16483431D01*
X13316777Y-16483431D02*
X13326301Y-16473908D01*
X13326301Y-16473908D02*
X13345348Y-16464384D01*
X13592967Y-16464384D02*
X13497729Y-16464384D01*
X13497729Y-16464384D02*
X13488206Y-16559622D01*
X13488206Y-16559622D02*
X13497729Y-16550098D01*
X13497729Y-16550098D02*
X13516777Y-16540574D01*
X13516777Y-16540574D02*
X13564396Y-16540574D01*
X13564396Y-16540574D02*
X13583444Y-16550098D01*
X13583444Y-16550098D02*
X13592967Y-16559622D01*
X13592967Y-16559622D02*
X13602491Y-16578669D01*
X13602491Y-16578669D02*
X13602491Y-16626288D01*
X13602491Y-16626288D02*
X13592967Y-16645336D01*
X13592967Y-16645336D02*
X13583444Y-16654860D01*
X13583444Y-16654860D02*
X13564396Y-16664384D01*
X13564396Y-16664384D02*
X13516777Y-16664384D01*
X13516777Y-16664384D02*
X13497729Y-16654860D01*
X13497729Y-16654860D02*
X13488206Y-16645336D01*
X13792967Y-16664384D02*
X13678682Y-16664384D01*
X13735825Y-16664384D02*
X13735825Y-16464384D01*
X13735825Y-16464384D02*
X13716777Y-16492955D01*
X13716777Y-16492955D02*
X13697729Y-16512003D01*
X13697729Y-16512003D02*
X13678682Y-16521527D01*
X13869158Y-16483431D02*
X13878682Y-16473908D01*
X13878682Y-16473908D02*
X13897729Y-16464384D01*
X13897729Y-16464384D02*
X13945348Y-16464384D01*
X13945348Y-16464384D02*
X13964396Y-16473908D01*
X13964396Y-16473908D02*
X13973920Y-16483431D01*
X13973920Y-16483431D02*
X13983444Y-16502479D01*
X13983444Y-16502479D02*
X13983444Y-16521527D01*
X13983444Y-16521527D02*
X13973920Y-16550098D01*
X13973920Y-16550098D02*
X13859634Y-16664384D01*
X13859634Y-16664384D02*
X13983444Y-16664384D01*
X14059634Y-16464384D02*
X14059634Y-16502479D01*
X14135825Y-16464384D02*
X14135825Y-16502479D01*
X14431063Y-16740574D02*
X14421539Y-16731050D01*
X14421539Y-16731050D02*
X14402491Y-16702479D01*
X14402491Y-16702479D02*
X14392968Y-16683431D01*
X14392968Y-16683431D02*
X14383444Y-16654860D01*
X14383444Y-16654860D02*
X14373920Y-16607241D01*
X14373920Y-16607241D02*
X14373920Y-16569146D01*
X14373920Y-16569146D02*
X14383444Y-16521527D01*
X14383444Y-16521527D02*
X14392968Y-16492955D01*
X14392968Y-16492955D02*
X14402491Y-16473908D01*
X14402491Y-16473908D02*
X14421539Y-16445336D01*
X14421539Y-16445336D02*
X14431063Y-16435812D01*
X14612015Y-16664384D02*
X14497729Y-16664384D01*
X14554872Y-16664384D02*
X14554872Y-16464384D01*
X14554872Y-16464384D02*
X14535825Y-16492955D01*
X14535825Y-16492955D02*
X14516777Y-16512003D01*
X14516777Y-16512003D02*
X14497729Y-16521527D01*
X14840587Y-16654860D02*
X14859634Y-16664384D01*
X14859634Y-16664384D02*
X14897729Y-16664384D01*
X14897729Y-16664384D02*
X14916777Y-16654860D01*
X14916777Y-16654860D02*
X14926301Y-16635812D01*
X14926301Y-16635812D02*
X14926301Y-16626288D01*
X14926301Y-16626288D02*
X14916777Y-16607241D01*
X14916777Y-16607241D02*
X14897729Y-16597717D01*
X14897729Y-16597717D02*
X14869158Y-16597717D01*
X14869158Y-16597717D02*
X14850110Y-16588193D01*
X14850110Y-16588193D02*
X14840587Y-16569146D01*
X14840587Y-16569146D02*
X14840587Y-16559622D01*
X14840587Y-16559622D02*
X14850110Y-16540574D01*
X14850110Y-16540574D02*
X14869158Y-16531050D01*
X14869158Y-16531050D02*
X14897729Y-16531050D01*
X14897729Y-16531050D02*
X14916777Y-16540574D01*
X15040587Y-16664384D02*
X15021539Y-16654860D01*
X15021539Y-16654860D02*
X15012015Y-16635812D01*
X15012015Y-16635812D02*
X15012015Y-16464384D01*
X15145349Y-16664384D02*
X15126301Y-16654860D01*
X15126301Y-16654860D02*
X15116777Y-16645336D01*
X15116777Y-16645336D02*
X15107253Y-16626288D01*
X15107253Y-16626288D02*
X15107253Y-16569146D01*
X15107253Y-16569146D02*
X15116777Y-16550098D01*
X15116777Y-16550098D02*
X15126301Y-16540574D01*
X15126301Y-16540574D02*
X15145349Y-16531050D01*
X15145349Y-16531050D02*
X15173920Y-16531050D01*
X15173920Y-16531050D02*
X15192968Y-16540574D01*
X15192968Y-16540574D02*
X15202491Y-16550098D01*
X15202491Y-16550098D02*
X15212015Y-16569146D01*
X15212015Y-16569146D02*
X15212015Y-16626288D01*
X15212015Y-16626288D02*
X15202491Y-16645336D01*
X15202491Y-16645336D02*
X15192968Y-16654860D01*
X15192968Y-16654860D02*
X15173920Y-16664384D01*
X15173920Y-16664384D02*
X15145349Y-16664384D01*
X15269158Y-16531050D02*
X15345349Y-16531050D01*
X15297730Y-16464384D02*
X15297730Y-16635812D01*
X15297730Y-16635812D02*
X15307253Y-16654860D01*
X15307253Y-16654860D02*
X15326301Y-16664384D01*
X15326301Y-16664384D02*
X15345349Y-16664384D01*
X15392968Y-16740574D02*
X15402491Y-16731050D01*
X15402491Y-16731050D02*
X15421539Y-16702479D01*
X15421539Y-16702479D02*
X15431063Y-16683431D01*
X15431063Y-16683431D02*
X15440587Y-16654860D01*
X15440587Y-16654860D02*
X15450110Y-16607241D01*
X15450110Y-16607241D02*
X15450110Y-16569146D01*
X15450110Y-16569146D02*
X15440587Y-16521527D01*
X15440587Y-16521527D02*
X15431063Y-16492955D01*
X15431063Y-16492955D02*
X15421539Y-16473908D01*
X15421539Y-16473908D02*
X15402491Y-16445336D01*
X15402491Y-16445336D02*
X15392968Y-16435812D01*
M02*
