M48
; DRILL file {KiCad 9.0.4} date 2026-01-25T09:32:28+1300
; FORMAT={-:-/ absolute / metric / decimal}
; #@! TF.CreationDate,2026-01-25T09:32:28+13:00
; #@! TF.GenerationSoftware,Kicad,Pcbnew,9.0.4
; #@! TF.FileFunction,Plated,1,2,PTH
FMAT,2
METRIC
; #@! TA.AperFunction,Plated,PTH,ViaDrill
T1C0.300
; #@! TA.AperFunction,Plated,PTH,ComponentDrill
T2C0.700
; #@! TA.AperFunction,Plated,PTH,ComponentDrill
T3C1.000
; #@! TA.AperFunction,Plated,PTH,ComponentDrill
T4C1.100
; #@! TA.AperFunction,Plated,PTH,ComponentDrill
T5C1.300
%
G90
G05
T1
X178.816Y-74.168
X182.275Y-85.09
X185.166Y-91.313
X185.928Y-77.47
X186.69Y-87.63
X187.198Y-74.93
X187.452Y-91.44
X188.214Y-72.39
X188.976Y-88.9
X189.738Y-63.5
X190.5Y-80.01
X204.216Y-79.756
X204.724Y-54.356
X204.724Y-64.008
X204.724Y-71.628
X204.724Y-86.868
X204.724Y-96.52
X204.724Y-105.156
X204.724Y-113.284
X204.724Y-121.412
X204.724Y-129.032
X204.724Y-136.652
X204.724Y-145.288
X226.822Y-86.106
X226.822Y-94.488
T2
X147.32Y-57.15
X147.32Y-60.325
X147.32Y-63.5
X147.32Y-66.675
X154.94Y-57.15
X154.94Y-60.325
X154.94Y-63.5
X154.94Y-66.675
X157.48Y-60.325
X157.48Y-63.5
X157.48Y-66.675
X165.1Y-60.325
X165.1Y-63.5
X165.1Y-66.675
X167.64Y-60.325
X167.64Y-63.475
X167.64Y-66.625
X175.26Y-60.325
X175.26Y-63.475
X175.26Y-66.625
T3
X116.84Y-140.97
X116.84Y-143.51
X119.38Y-102.87
X119.38Y-105.41
X119.38Y-107.95
X119.38Y-110.49
X119.38Y-113.03
X119.38Y-115.57
X119.38Y-118.11
X119.38Y-120.65
X119.38Y-123.19
X119.38Y-125.73
X119.38Y-128.27
X119.38Y-130.81
X119.38Y-133.35
X119.38Y-135.89
X119.38Y-138.43
X119.38Y-140.97
X119.38Y-143.51
X121.92Y-102.87
X121.92Y-105.41
X121.92Y-107.95
X121.92Y-110.49
X121.92Y-113.03
X121.92Y-115.57
X121.92Y-118.11
X121.92Y-120.65
X121.92Y-123.19
X121.92Y-125.73
X121.92Y-128.27
X121.92Y-130.81
X121.92Y-133.35
X121.92Y-135.89
X121.92Y-138.43
X121.92Y-140.97
X121.92Y-143.51
X124.46Y-102.87
X124.46Y-105.41
X124.46Y-107.95
X124.46Y-110.49
X124.46Y-113.03
X124.46Y-115.57
X124.46Y-118.11
X124.46Y-120.65
X124.46Y-123.19
X124.46Y-125.73
X124.46Y-128.27
X124.46Y-130.81
X124.46Y-133.35
X124.46Y-135.89
X124.46Y-138.43
X124.46Y-140.97
X124.46Y-143.51
X127.0Y-102.87
X127.0Y-105.41
X127.0Y-107.95
X127.0Y-110.49
X127.0Y-113.03
X127.0Y-115.57
X127.0Y-118.11
X127.0Y-120.65
X127.0Y-123.19
X127.0Y-125.73
X127.0Y-128.27
X127.0Y-130.81
X127.0Y-133.35
X127.0Y-135.89
X127.0Y-138.43
X127.0Y-140.97
X127.0Y-143.51
X129.54Y-102.87
X129.54Y-105.41
X129.54Y-107.95
X129.54Y-110.49
X129.54Y-113.03
X129.54Y-115.57
X129.54Y-118.11
X129.54Y-120.65
X129.54Y-123.19
X129.54Y-125.73
X129.54Y-128.27
X129.54Y-130.81
X129.54Y-133.35
X129.54Y-135.89
X129.54Y-138.43
X129.54Y-140.97
X129.54Y-143.51
X132.08Y-102.87
X132.08Y-105.41
X132.08Y-107.95
X132.08Y-110.49
X132.08Y-113.03
X132.08Y-115.57
X132.08Y-118.11
X132.08Y-120.65
X132.08Y-123.19
X132.08Y-125.73
X132.08Y-128.27
X132.08Y-130.81
X132.08Y-133.35
X132.08Y-135.89
X132.08Y-138.43
X132.08Y-140.97
X132.08Y-143.51
X134.62Y-102.87
X134.62Y-105.41
X134.62Y-107.95
X134.62Y-110.49
X134.62Y-113.03
X134.62Y-115.57
X134.62Y-118.11
X134.62Y-120.65
X134.62Y-123.19
X134.62Y-125.73
X134.62Y-128.27
X134.62Y-130.81
X134.62Y-133.35
X134.62Y-135.89
X134.62Y-138.43
X134.62Y-140.97
X134.62Y-143.51
X137.16Y-140.97
X137.16Y-143.51
X139.7Y-77.47
X139.7Y-80.01
X139.7Y-82.55
X139.7Y-85.09
X139.7Y-87.63
X139.7Y-90.17
X139.7Y-92.71
X139.7Y-95.25
X139.7Y-97.79
X139.7Y-100.33
X139.7Y-102.87
X139.7Y-105.41
X139.7Y-107.95
X139.7Y-110.49
X139.7Y-113.03
X139.7Y-115.57
X139.7Y-118.11
X139.7Y-120.65
X139.7Y-123.19
X139.7Y-125.73
X142.24Y-77.47
X142.24Y-80.01
X142.24Y-82.55
X142.24Y-85.09
X142.24Y-87.63
X142.24Y-90.17
X142.24Y-92.71
X142.24Y-95.25
X142.24Y-97.79
X142.24Y-100.33
X142.24Y-102.87
X142.24Y-105.41
X142.24Y-107.95
X142.24Y-110.49
X142.24Y-113.03
X142.24Y-115.57
X142.24Y-118.11
X142.24Y-120.65
X142.24Y-123.19
X142.24Y-125.73
X149.86Y-77.47
X149.86Y-80.01
X149.86Y-82.55
X149.86Y-85.09
X149.86Y-87.63
X149.86Y-90.17
X149.86Y-92.71
X149.86Y-95.25
X149.86Y-97.79
X149.86Y-100.33
X149.86Y-102.87
X149.86Y-105.41
X149.86Y-107.95
X149.86Y-110.49
X149.86Y-113.03
X149.86Y-115.57
X149.86Y-118.11
X149.86Y-120.65
X149.86Y-123.19
X149.86Y-125.73
X167.64Y-77.47
X167.64Y-80.01
X167.64Y-82.55
X167.64Y-85.09
X167.64Y-87.63
X167.64Y-90.17
X167.64Y-92.71
X167.64Y-95.25
X167.64Y-97.79
X167.64Y-100.33
X167.64Y-102.87
X167.64Y-105.41
X167.64Y-107.95
X167.64Y-110.49
X167.64Y-113.03
X167.64Y-115.57
X167.64Y-118.11
X167.64Y-120.65
X167.64Y-123.19
X167.64Y-125.73
X175.26Y-77.47
X175.26Y-80.01
X175.26Y-82.55
X175.26Y-85.09
X175.26Y-87.63
X175.26Y-90.17
X175.26Y-92.71
X175.26Y-95.25
X175.26Y-97.79
X175.26Y-100.33
X175.26Y-102.87
X175.26Y-105.41
X175.26Y-107.95
X175.26Y-110.49
X175.26Y-113.03
X175.26Y-115.57
X175.26Y-118.11
X175.26Y-120.65
X175.26Y-123.19
X175.26Y-125.73
X177.8Y-77.47
X177.8Y-80.01
X177.8Y-82.55
X177.8Y-85.09
X177.8Y-87.63
X177.8Y-90.17
X177.8Y-92.71
X177.8Y-95.25
X177.8Y-97.79
X177.8Y-100.33
X177.8Y-102.87
X177.8Y-105.41
X177.8Y-107.95
X177.8Y-110.49
X177.8Y-113.03
X177.8Y-115.57
X177.8Y-118.11
X177.8Y-120.65
X177.8Y-123.19
X177.8Y-125.73
X194.31Y-55.88
X194.31Y-58.42
X194.31Y-60.96
X194.31Y-63.5
X194.31Y-72.39
X194.31Y-74.93
X194.31Y-77.47
X194.31Y-80.01
X194.31Y-88.9
X194.31Y-91.44
X194.31Y-93.98
X194.31Y-96.52
X194.31Y-105.41
X194.31Y-107.95
X194.31Y-110.49
X194.31Y-113.03
X194.31Y-121.92
X194.31Y-124.46
X194.31Y-127.0
X194.31Y-129.54
X194.31Y-138.43
X194.31Y-140.97
X194.31Y-143.51
X194.31Y-146.05
X199.39Y-53.34
X199.39Y-55.88
X199.39Y-58.42
X199.39Y-60.96
X199.39Y-63.5
X199.39Y-66.04
X199.39Y-69.85
X199.39Y-72.39
X199.39Y-74.93
X199.39Y-77.47
X199.39Y-80.01
X199.39Y-82.55
X199.39Y-86.36
X199.39Y-88.9
X199.39Y-91.44
X199.39Y-93.98
X199.39Y-96.52
X199.39Y-99.06
X199.39Y-102.87
X199.39Y-105.41
X199.39Y-107.95
X199.39Y-110.49
X199.39Y-113.03
X199.39Y-115.57
X199.39Y-119.38
X199.39Y-121.92
X199.39Y-124.46
X199.39Y-127.0
X199.39Y-129.54
X199.39Y-132.08
X199.39Y-135.89
X199.39Y-138.43
X199.39Y-140.97
X199.39Y-143.51
X199.39Y-146.05
X199.39Y-148.59
X209.55Y-53.34
X209.55Y-55.88
X209.55Y-58.42
X209.55Y-60.96
X209.55Y-63.5
X209.55Y-66.04
X209.55Y-69.85
X209.55Y-72.39
X209.55Y-74.93
X209.55Y-77.47
X209.55Y-80.01
X209.55Y-82.55
X209.55Y-86.36
X209.55Y-88.9
X209.55Y-91.44
X209.55Y-93.98
X209.55Y-96.52
X209.55Y-99.06
X209.55Y-102.87
X209.55Y-105.41
X209.55Y-107.95
X209.55Y-110.49
X209.55Y-113.03
X209.55Y-115.57
X209.55Y-119.38
X209.55Y-121.92
X209.55Y-124.46
X209.55Y-127.0
X209.55Y-129.54
X209.55Y-132.08
X209.55Y-135.89
X209.55Y-138.43
X209.55Y-140.97
X209.55Y-143.51
X209.55Y-146.05
X209.55Y-148.59
X214.63Y-55.88
X214.63Y-58.42
X214.63Y-60.96
X214.63Y-63.5
X214.63Y-72.39
X214.63Y-74.93
X214.63Y-77.47
X214.63Y-80.01
X214.63Y-88.9
X214.63Y-91.44
X214.63Y-93.98
X214.63Y-96.52
X214.63Y-105.41
X214.63Y-107.95
X214.63Y-110.49
X214.63Y-113.03
X214.63Y-121.92
X214.63Y-124.46
X214.63Y-127.0
X214.63Y-129.54
X214.63Y-138.43
X214.63Y-140.97
X214.63Y-143.51
X214.63Y-146.05
X231.14Y-55.88
X231.14Y-58.42
X231.14Y-60.96
X231.14Y-63.5
X231.14Y-66.04
X231.14Y-68.58
X231.14Y-71.12
X231.14Y-73.66
X231.14Y-76.2
X231.14Y-78.74
X231.14Y-81.28
X231.14Y-83.82
X231.14Y-86.36
X231.14Y-88.9
X231.14Y-91.44
X231.14Y-93.98
X231.14Y-96.52
X231.14Y-99.06
X231.14Y-101.6
X231.14Y-104.14
X231.14Y-106.68
X231.14Y-109.22
X231.14Y-111.76
X231.14Y-114.3
X231.14Y-116.84
X231.14Y-119.38
X231.14Y-121.92
X231.14Y-124.46
X231.14Y-127.0
X231.14Y-129.54
X231.14Y-132.08
X231.14Y-134.62
X231.14Y-137.16
X231.14Y-139.7
X231.14Y-142.24
X231.14Y-144.78
X231.14Y-147.32
X233.68Y-55.88
X233.68Y-58.42
X233.68Y-60.96
X233.68Y-63.5
X233.68Y-66.04
X233.68Y-68.58
X233.68Y-71.12
X233.68Y-73.66
X233.68Y-76.2
X233.68Y-78.74
X233.68Y-81.28
X233.68Y-83.82
X233.68Y-86.36
X233.68Y-88.9
X233.68Y-91.44
X233.68Y-93.98
X233.68Y-96.52
X233.68Y-99.06
X233.68Y-101.6
X233.68Y-104.14
X233.68Y-106.68
X233.68Y-109.22
X233.68Y-111.76
X233.68Y-114.3
X233.68Y-116.84
X233.68Y-119.38
X233.68Y-121.92
X233.68Y-124.46
X233.68Y-127.0
X233.68Y-129.54
X233.68Y-132.08
X233.68Y-134.62
X233.68Y-137.16
X233.68Y-139.7
X233.68Y-142.24
X233.68Y-144.78
X233.68Y-147.32
T4
X167.64Y-130.66
X167.64Y-137.16
X172.14Y-130.66
X172.14Y-137.16
T3
X132.085Y-57.845G85X130.585Y-57.845
G05
X132.085Y-65.345G85X130.585Y-65.345
G05
T5
X127.635Y-61.12G85X127.635Y-62.07
G05
M30
