%TF.GenerationSoftware,KiCad,Pcbnew,9.0.4*%
%TF.CreationDate,2026-01-25T12:04:24+13:00*%
%TF.ProjectId,AWS_CPU_Video_Decoder,4157535f-4350-4555-9f56-6964656f5f44,rev?*%
%TF.SameCoordinates,Original*%
%TF.FileFunction,Drillmap*%
%TF.FilePolarity,Positive*%
%FSLAX45Y45*%
G04 Gerber Fmt 4.5, Leading zero omitted, Abs format (unit mm)*
G04 Created by KiCad (PCBNEW 9.0.4) date 2026-01-25 12:04:24*
%MOMM*%
%LPD*%
G01*
G04 APERTURE LIST*
%ADD10C,0.050000*%
%ADD11C,0.200000*%
%ADD12C,0.100000*%
%ADD13C,0.110000*%
%ADD14C,0.130000*%
%ADD15C,0.140000*%
G04 APERTURE END LIST*
D10*
X20955000Y-4635500D02*
X8013700Y-4635500D01*
X20955000Y-14592300D02*
X8013700Y-14592300D01*
X21082000Y-4762500D02*
X21082000Y-14465300D01*
X7886700Y-4762500D02*
G75*
G02*
X8013700Y-4635500I127000J0D01*
G01*
X20955000Y-4635500D02*
G75*
G02*
X21082000Y-4762500I0J-127000D01*
G01*
X8387600Y-9438900D02*
G75*
G02*
X8387600Y-9788900I0J-175000D01*
G01*
X7886700Y-14465300D02*
X7886700Y-4762500D01*
X8229600Y-9438900D02*
X8387600Y-9438900D01*
X8229600Y-9788900D02*
X8387600Y-9788900D01*
X8229600Y-9788900D02*
G75*
G02*
X8229600Y-9438900I0J175000D01*
G01*
X8013700Y-14592300D02*
G75*
G02*
X7886700Y-14465300I0J127000D01*
G01*
X21082000Y-14465300D02*
G75*
G02*
X20955000Y-14592300I-127000J0D01*
G01*
D11*
D12*
X14894800Y-6855700D02*
X14924800Y-6885700D01*
X14924800Y-6855700D02*
X14894800Y-6885700D01*
X15240700Y-7947900D02*
X15270700Y-7977900D01*
X15270700Y-7947900D02*
X15240700Y-7977900D01*
X15529800Y-8570200D02*
X15559800Y-8600200D01*
X15559800Y-8570200D02*
X15529800Y-8600200D01*
X15606000Y-7185900D02*
X15636000Y-7215900D01*
X15636000Y-7185900D02*
X15606000Y-7215900D01*
X15682200Y-8201900D02*
X15712200Y-8231900D01*
X15712200Y-8201900D02*
X15682200Y-8231900D01*
X15733000Y-6931900D02*
X15763000Y-6961900D01*
X15763000Y-6931900D02*
X15733000Y-6961900D01*
X15758400Y-8582900D02*
X15788400Y-8612900D01*
X15788400Y-8582900D02*
X15758400Y-8612900D01*
X15834600Y-6677900D02*
X15864600Y-6707900D01*
X15864600Y-6677900D02*
X15834600Y-6707900D01*
X15910800Y-8328900D02*
X15940800Y-8358900D01*
X15940800Y-8328900D02*
X15910800Y-8358900D01*
X15987000Y-5788900D02*
X16017000Y-5818900D01*
X16017000Y-5788900D02*
X15987000Y-5818900D01*
X16063200Y-7439900D02*
X16093200Y-7469900D01*
X16093200Y-7439900D02*
X16063200Y-7469900D01*
X17434800Y-7414500D02*
X17464800Y-7444500D01*
X17464800Y-7414500D02*
X17434800Y-7444500D01*
X17485600Y-4874500D02*
X17515600Y-4904500D01*
X17515600Y-4874500D02*
X17485600Y-4904500D01*
X17485600Y-5839700D02*
X17515600Y-5869700D01*
X17515600Y-5839700D02*
X17485600Y-5869700D01*
X17485600Y-6601700D02*
X17515600Y-6631700D01*
X17515600Y-6601700D02*
X17485600Y-6631700D01*
X17485600Y-8125700D02*
X17515600Y-8155700D01*
X17515600Y-8125700D02*
X17485600Y-8155700D01*
X17485600Y-9090900D02*
X17515600Y-9120900D01*
X17515600Y-9090900D02*
X17485600Y-9120900D01*
X17485600Y-9954500D02*
X17515600Y-9984500D01*
X17515600Y-9954500D02*
X17485600Y-9984500D01*
X17485600Y-10767300D02*
X17515600Y-10797300D01*
X17515600Y-10767300D02*
X17485600Y-10797300D01*
X17485600Y-11580100D02*
X17515600Y-11610100D01*
X17515600Y-11580100D02*
X17485600Y-11610100D01*
X17485600Y-12342100D02*
X17515600Y-12372100D01*
X17515600Y-12342100D02*
X17485600Y-12372100D01*
X17485600Y-13104100D02*
X17515600Y-13134100D01*
X17515600Y-13104100D02*
X17485600Y-13134100D01*
X17485600Y-13967700D02*
X17515600Y-13997700D01*
X17515600Y-13967700D02*
X17485600Y-13997700D01*
X18425400Y-7795500D02*
X18455400Y-7825500D01*
X18455400Y-7795500D02*
X18425400Y-7825500D01*
X18501600Y-6169900D02*
X18531600Y-6199900D01*
X18531600Y-6169900D02*
X18501600Y-6199900D01*
X18704800Y-9446500D02*
X18734800Y-9476500D01*
X18734800Y-9446500D02*
X18704800Y-9476500D01*
X19035000Y-13053300D02*
X19065000Y-13083300D01*
X19065000Y-13053300D02*
X19035000Y-13083300D01*
X19035000Y-14018500D02*
X19065000Y-14048500D01*
X19065000Y-14018500D02*
X19035000Y-14048500D01*
X19060400Y-10995900D02*
X19090400Y-11025900D01*
X19090400Y-10995900D02*
X19060400Y-11025900D01*
X19060400Y-12138900D02*
X19090400Y-12168900D01*
X19090400Y-12138900D02*
X19060400Y-12168900D01*
X19695400Y-8049500D02*
X19725400Y-8079500D01*
X19725400Y-8049500D02*
X19695400Y-8079500D01*
X19695400Y-8887700D02*
X19725400Y-8917700D01*
X19725400Y-8887700D02*
X19695400Y-8917700D01*
X11795200Y-5168900D02*
G75*
G02*
X11725200Y-5168900I-35000J0D01*
G01*
X11725200Y-5168900D02*
G75*
G02*
X11795200Y-5168900I35000J0D01*
G01*
X11795200Y-5486400D02*
G75*
G02*
X11725200Y-5486400I-35000J0D01*
G01*
X11725200Y-5486400D02*
G75*
G02*
X11795200Y-5486400I35000J0D01*
G01*
X11795200Y-5803900D02*
G75*
G02*
X11725200Y-5803900I-35000J0D01*
G01*
X11725200Y-5803900D02*
G75*
G02*
X11795200Y-5803900I35000J0D01*
G01*
X11795200Y-6121400D02*
G75*
G02*
X11725200Y-6121400I-35000J0D01*
G01*
X11725200Y-6121400D02*
G75*
G02*
X11795200Y-6121400I35000J0D01*
G01*
X12557200Y-5168900D02*
G75*
G02*
X12487200Y-5168900I-35000J0D01*
G01*
X12487200Y-5168900D02*
G75*
G02*
X12557200Y-5168900I35000J0D01*
G01*
X12557200Y-5486400D02*
G75*
G02*
X12487200Y-5486400I-35000J0D01*
G01*
X12487200Y-5486400D02*
G75*
G02*
X12557200Y-5486400I35000J0D01*
G01*
X12557200Y-5803900D02*
G75*
G02*
X12487200Y-5803900I-35000J0D01*
G01*
X12487200Y-5803900D02*
G75*
G02*
X12557200Y-5803900I35000J0D01*
G01*
X12557200Y-6121400D02*
G75*
G02*
X12487200Y-6121400I-35000J0D01*
G01*
X12487200Y-6121400D02*
G75*
G02*
X12557200Y-6121400I35000J0D01*
G01*
X12811200Y-5486400D02*
G75*
G02*
X12741200Y-5486400I-35000J0D01*
G01*
X12741200Y-5486400D02*
G75*
G02*
X12811200Y-5486400I35000J0D01*
G01*
X12811200Y-5803900D02*
G75*
G02*
X12741200Y-5803900I-35000J0D01*
G01*
X12741200Y-5803900D02*
G75*
G02*
X12811200Y-5803900I35000J0D01*
G01*
X12811200Y-6121400D02*
G75*
G02*
X12741200Y-6121400I-35000J0D01*
G01*
X12741200Y-6121400D02*
G75*
G02*
X12811200Y-6121400I35000J0D01*
G01*
X13573200Y-5486400D02*
G75*
G02*
X13503200Y-5486400I-35000J0D01*
G01*
X13503200Y-5486400D02*
G75*
G02*
X13573200Y-5486400I35000J0D01*
G01*
X13573200Y-5803900D02*
G75*
G02*
X13503200Y-5803900I-35000J0D01*
G01*
X13503200Y-5803900D02*
G75*
G02*
X13573200Y-5803900I35000J0D01*
G01*
X13573200Y-6121400D02*
G75*
G02*
X13503200Y-6121400I-35000J0D01*
G01*
X13503200Y-6121400D02*
G75*
G02*
X13573200Y-6121400I35000J0D01*
G01*
X13827200Y-5486400D02*
G75*
G02*
X13757200Y-5486400I-35000J0D01*
G01*
X13757200Y-5486400D02*
G75*
G02*
X13827200Y-5486400I35000J0D01*
G01*
X13827200Y-5801400D02*
G75*
G02*
X13757200Y-5801400I-35000J0D01*
G01*
X13757200Y-5801400D02*
G75*
G02*
X13827200Y-5801400I35000J0D01*
G01*
X13827200Y-6116400D02*
G75*
G02*
X13757200Y-6116400I-35000J0D01*
G01*
X13757200Y-6116400D02*
G75*
G02*
X13827200Y-6116400I35000J0D01*
G01*
X14589200Y-5486400D02*
G75*
G02*
X14519200Y-5486400I-35000J0D01*
G01*
X14519200Y-5486400D02*
G75*
G02*
X14589200Y-5486400I35000J0D01*
G01*
X14589200Y-5801400D02*
G75*
G02*
X14519200Y-5801400I-35000J0D01*
G01*
X14519200Y-5801400D02*
G75*
G02*
X14589200Y-5801400I35000J0D01*
G01*
X14589200Y-6116400D02*
G75*
G02*
X14519200Y-6116400I-35000J0D01*
G01*
X14519200Y-6116400D02*
G75*
G02*
X14589200Y-6116400I35000J0D01*
G01*
X8712200Y-13500900D02*
X8712200Y-13600900D01*
X8662200Y-13550900D02*
X8762200Y-13550900D01*
X8712200Y-13754900D02*
X8712200Y-13854900D01*
X8662200Y-13804900D02*
X8762200Y-13804900D01*
X8966200Y-9690900D02*
X8966200Y-9790900D01*
X8916200Y-9740900D02*
X9016200Y-9740900D01*
X8966200Y-9944900D02*
X8966200Y-10044900D01*
X8916200Y-9994900D02*
X9016200Y-9994900D01*
X8966200Y-10198900D02*
X8966200Y-10298900D01*
X8916200Y-10248900D02*
X9016200Y-10248900D01*
X8966200Y-10452900D02*
X8966200Y-10552900D01*
X8916200Y-10502900D02*
X9016200Y-10502900D01*
X8966200Y-10706900D02*
X8966200Y-10806900D01*
X8916200Y-10756900D02*
X9016200Y-10756900D01*
X8966200Y-10960900D02*
X8966200Y-11060900D01*
X8916200Y-11010900D02*
X9016200Y-11010900D01*
X8966200Y-11214900D02*
X8966200Y-11314900D01*
X8916200Y-11264900D02*
X9016200Y-11264900D01*
X8966200Y-11468900D02*
X8966200Y-11568900D01*
X8916200Y-11518900D02*
X9016200Y-11518900D01*
X8966200Y-11722900D02*
X8966200Y-11822900D01*
X8916200Y-11772900D02*
X9016200Y-11772900D01*
X8966200Y-11976900D02*
X8966200Y-12076900D01*
X8916200Y-12026900D02*
X9016200Y-12026900D01*
X8966200Y-12230900D02*
X8966200Y-12330900D01*
X8916200Y-12280900D02*
X9016200Y-12280900D01*
X8966200Y-12484900D02*
X8966200Y-12584900D01*
X8916200Y-12534900D02*
X9016200Y-12534900D01*
X8966200Y-12738900D02*
X8966200Y-12838900D01*
X8916200Y-12788900D02*
X9016200Y-12788900D01*
X8966200Y-12992900D02*
X8966200Y-13092900D01*
X8916200Y-13042900D02*
X9016200Y-13042900D01*
X8966200Y-13246900D02*
X8966200Y-13346900D01*
X8916200Y-13296900D02*
X9016200Y-13296900D01*
X8966200Y-13500900D02*
X8966200Y-13600900D01*
X8916200Y-13550900D02*
X9016200Y-13550900D01*
X8966200Y-13754900D02*
X8966200Y-13854900D01*
X8916200Y-13804900D02*
X9016200Y-13804900D01*
X9220200Y-9690900D02*
X9220200Y-9790900D01*
X9170200Y-9740900D02*
X9270200Y-9740900D01*
X9220200Y-9944900D02*
X9220200Y-10044900D01*
X9170200Y-9994900D02*
X9270200Y-9994900D01*
X9220200Y-10198900D02*
X9220200Y-10298900D01*
X9170200Y-10248900D02*
X9270200Y-10248900D01*
X9220200Y-10452900D02*
X9220200Y-10552900D01*
X9170200Y-10502900D02*
X9270200Y-10502900D01*
X9220200Y-10706900D02*
X9220200Y-10806900D01*
X9170200Y-10756900D02*
X9270200Y-10756900D01*
X9220200Y-10960900D02*
X9220200Y-11060900D01*
X9170200Y-11010900D02*
X9270200Y-11010900D01*
X9220200Y-11214900D02*
X9220200Y-11314900D01*
X9170200Y-11264900D02*
X9270200Y-11264900D01*
X9220200Y-11468900D02*
X9220200Y-11568900D01*
X9170200Y-11518900D02*
X9270200Y-11518900D01*
X9220200Y-11722900D02*
X9220200Y-11822900D01*
X9170200Y-11772900D02*
X9270200Y-11772900D01*
X9220200Y-11976900D02*
X9220200Y-12076900D01*
X9170200Y-12026900D02*
X9270200Y-12026900D01*
X9220200Y-12230900D02*
X9220200Y-12330900D01*
X9170200Y-12280900D02*
X9270200Y-12280900D01*
X9220200Y-12484900D02*
X9220200Y-12584900D01*
X9170200Y-12534900D02*
X9270200Y-12534900D01*
X9220200Y-12738900D02*
X9220200Y-12838900D01*
X9170200Y-12788900D02*
X9270200Y-12788900D01*
X9220200Y-12992900D02*
X9220200Y-13092900D01*
X9170200Y-13042900D02*
X9270200Y-13042900D01*
X9220200Y-13246900D02*
X9220200Y-13346900D01*
X9170200Y-13296900D02*
X9270200Y-13296900D01*
X9220200Y-13500900D02*
X9220200Y-13600900D01*
X9170200Y-13550900D02*
X9270200Y-13550900D01*
X9220200Y-13754900D02*
X9220200Y-13854900D01*
X9170200Y-13804900D02*
X9270200Y-13804900D01*
X9474200Y-9690900D02*
X9474200Y-9790900D01*
X9424200Y-9740900D02*
X9524200Y-9740900D01*
X9474200Y-9944900D02*
X9474200Y-10044900D01*
X9424200Y-9994900D02*
X9524200Y-9994900D01*
X9474200Y-10198900D02*
X9474200Y-10298900D01*
X9424200Y-10248900D02*
X9524200Y-10248900D01*
X9474200Y-10452900D02*
X9474200Y-10552900D01*
X9424200Y-10502900D02*
X9524200Y-10502900D01*
X9474200Y-10706900D02*
X9474200Y-10806900D01*
X9424200Y-10756900D02*
X9524200Y-10756900D01*
X9474200Y-10960900D02*
X9474200Y-11060900D01*
X9424200Y-11010900D02*
X9524200Y-11010900D01*
X9474200Y-11214900D02*
X9474200Y-11314900D01*
X9424200Y-11264900D02*
X9524200Y-11264900D01*
X9474200Y-11468900D02*
X9474200Y-11568900D01*
X9424200Y-11518900D02*
X9524200Y-11518900D01*
X9474200Y-11722900D02*
X9474200Y-11822900D01*
X9424200Y-11772900D02*
X9524200Y-11772900D01*
X9474200Y-11976900D02*
X9474200Y-12076900D01*
X9424200Y-12026900D02*
X9524200Y-12026900D01*
X9474200Y-12230900D02*
X9474200Y-12330900D01*
X9424200Y-12280900D02*
X9524200Y-12280900D01*
X9474200Y-12484900D02*
X9474200Y-12584900D01*
X9424200Y-12534900D02*
X9524200Y-12534900D01*
X9474200Y-12738900D02*
X9474200Y-12838900D01*
X9424200Y-12788900D02*
X9524200Y-12788900D01*
X9474200Y-12992900D02*
X9474200Y-13092900D01*
X9424200Y-13042900D02*
X9524200Y-13042900D01*
X9474200Y-13246900D02*
X9474200Y-13346900D01*
X9424200Y-13296900D02*
X9524200Y-13296900D01*
X9474200Y-13500900D02*
X9474200Y-13600900D01*
X9424200Y-13550900D02*
X9524200Y-13550900D01*
X9474200Y-13754900D02*
X9474200Y-13854900D01*
X9424200Y-13804900D02*
X9524200Y-13804900D01*
X9728200Y-9690900D02*
X9728200Y-9790900D01*
X9678200Y-9740900D02*
X9778200Y-9740900D01*
X9728200Y-9944900D02*
X9728200Y-10044900D01*
X9678200Y-9994900D02*
X9778200Y-9994900D01*
X9728200Y-10198900D02*
X9728200Y-10298900D01*
X9678200Y-10248900D02*
X9778200Y-10248900D01*
X9728200Y-10452900D02*
X9728200Y-10552900D01*
X9678200Y-10502900D02*
X9778200Y-10502900D01*
X9728200Y-10706900D02*
X9728200Y-10806900D01*
X9678200Y-10756900D02*
X9778200Y-10756900D01*
X9728200Y-10960900D02*
X9728200Y-11060900D01*
X9678200Y-11010900D02*
X9778200Y-11010900D01*
X9728200Y-11214900D02*
X9728200Y-11314900D01*
X9678200Y-11264900D02*
X9778200Y-11264900D01*
X9728200Y-11468900D02*
X9728200Y-11568900D01*
X9678200Y-11518900D02*
X9778200Y-11518900D01*
X9728200Y-11722900D02*
X9728200Y-11822900D01*
X9678200Y-11772900D02*
X9778200Y-11772900D01*
X9728200Y-11976900D02*
X9728200Y-12076900D01*
X9678200Y-12026900D02*
X9778200Y-12026900D01*
X9728200Y-12230900D02*
X9728200Y-12330900D01*
X9678200Y-12280900D02*
X9778200Y-12280900D01*
X9728200Y-12484900D02*
X9728200Y-12584900D01*
X9678200Y-12534900D02*
X9778200Y-12534900D01*
X9728200Y-12738900D02*
X9728200Y-12838900D01*
X9678200Y-12788900D02*
X9778200Y-12788900D01*
X9728200Y-12992900D02*
X9728200Y-13092900D01*
X9678200Y-13042900D02*
X9778200Y-13042900D01*
X9728200Y-13246900D02*
X9728200Y-13346900D01*
X9678200Y-13296900D02*
X9778200Y-13296900D01*
X9728200Y-13500900D02*
X9728200Y-13600900D01*
X9678200Y-13550900D02*
X9778200Y-13550900D01*
X9728200Y-13754900D02*
X9728200Y-13854900D01*
X9678200Y-13804900D02*
X9778200Y-13804900D01*
X9982200Y-9690900D02*
X9982200Y-9790900D01*
X9932200Y-9740900D02*
X10032200Y-9740900D01*
X9982200Y-9944900D02*
X9982200Y-10044900D01*
X9932200Y-9994900D02*
X10032200Y-9994900D01*
X9982200Y-10198900D02*
X9982200Y-10298900D01*
X9932200Y-10248900D02*
X10032200Y-10248900D01*
X9982200Y-10452900D02*
X9982200Y-10552900D01*
X9932200Y-10502900D02*
X10032200Y-10502900D01*
X9982200Y-10706900D02*
X9982200Y-10806900D01*
X9932200Y-10756900D02*
X10032200Y-10756900D01*
X9982200Y-10960900D02*
X9982200Y-11060900D01*
X9932200Y-11010900D02*
X10032200Y-11010900D01*
X9982200Y-11214900D02*
X9982200Y-11314900D01*
X9932200Y-11264900D02*
X10032200Y-11264900D01*
X9982200Y-11468900D02*
X9982200Y-11568900D01*
X9932200Y-11518900D02*
X10032200Y-11518900D01*
X9982200Y-11722900D02*
X9982200Y-11822900D01*
X9932200Y-11772900D02*
X10032200Y-11772900D01*
X9982200Y-11976900D02*
X9982200Y-12076900D01*
X9932200Y-12026900D02*
X10032200Y-12026900D01*
X9982200Y-12230900D02*
X9982200Y-12330900D01*
X9932200Y-12280900D02*
X10032200Y-12280900D01*
X9982200Y-12484900D02*
X9982200Y-12584900D01*
X9932200Y-12534900D02*
X10032200Y-12534900D01*
X9982200Y-12738900D02*
X9982200Y-12838900D01*
X9932200Y-12788900D02*
X10032200Y-12788900D01*
X9982200Y-12992900D02*
X9982200Y-13092900D01*
X9932200Y-13042900D02*
X10032200Y-13042900D01*
X9982200Y-13246900D02*
X9982200Y-13346900D01*
X9932200Y-13296900D02*
X10032200Y-13296900D01*
X9982200Y-13500900D02*
X9982200Y-13600900D01*
X9932200Y-13550900D02*
X10032200Y-13550900D01*
X9982200Y-13754900D02*
X9982200Y-13854900D01*
X9932200Y-13804900D02*
X10032200Y-13804900D01*
X10161700Y-5188400D02*
X10161700Y-5288400D01*
X10111700Y-5238400D02*
X10211700Y-5238400D01*
X10236700Y-5188400D02*
X10086700Y-5188400D01*
X10086700Y-5288400D02*
G75*
G02*
X10086700Y-5188400I0J50000D01*
G01*
X10086700Y-5288400D02*
X10236700Y-5288400D01*
X10236700Y-5288400D02*
G75*
G03*
X10236700Y-5188400I0J50000D01*
G01*
X10161700Y-5938400D02*
X10161700Y-6038400D01*
X10111700Y-5988400D02*
X10211700Y-5988400D01*
X10236700Y-5938400D02*
X10086700Y-5938400D01*
X10086700Y-6038400D02*
G75*
G02*
X10086700Y-5938400I0J50000D01*
G01*
X10086700Y-6038400D02*
X10236700Y-6038400D01*
X10236700Y-6038400D02*
G75*
G03*
X10236700Y-5938400I0J50000D01*
G01*
X10236200Y-9690900D02*
X10236200Y-9790900D01*
X10186200Y-9740900D02*
X10286200Y-9740900D01*
X10236200Y-9944900D02*
X10236200Y-10044900D01*
X10186200Y-9994900D02*
X10286200Y-9994900D01*
X10236200Y-10198900D02*
X10236200Y-10298900D01*
X10186200Y-10248900D02*
X10286200Y-10248900D01*
X10236200Y-10452900D02*
X10236200Y-10552900D01*
X10186200Y-10502900D02*
X10286200Y-10502900D01*
X10236200Y-10706900D02*
X10236200Y-10806900D01*
X10186200Y-10756900D02*
X10286200Y-10756900D01*
X10236200Y-10960900D02*
X10236200Y-11060900D01*
X10186200Y-11010900D02*
X10286200Y-11010900D01*
X10236200Y-11214900D02*
X10236200Y-11314900D01*
X10186200Y-11264900D02*
X10286200Y-11264900D01*
X10236200Y-11468900D02*
X10236200Y-11568900D01*
X10186200Y-11518900D02*
X10286200Y-11518900D01*
X10236200Y-11722900D02*
X10236200Y-11822900D01*
X10186200Y-11772900D02*
X10286200Y-11772900D01*
X10236200Y-11976900D02*
X10236200Y-12076900D01*
X10186200Y-12026900D02*
X10286200Y-12026900D01*
X10236200Y-12230900D02*
X10236200Y-12330900D01*
X10186200Y-12280900D02*
X10286200Y-12280900D01*
X10236200Y-12484900D02*
X10236200Y-12584900D01*
X10186200Y-12534900D02*
X10286200Y-12534900D01*
X10236200Y-12738900D02*
X10236200Y-12838900D01*
X10186200Y-12788900D02*
X10286200Y-12788900D01*
X10236200Y-12992900D02*
X10236200Y-13092900D01*
X10186200Y-13042900D02*
X10286200Y-13042900D01*
X10236200Y-13246900D02*
X10236200Y-13346900D01*
X10186200Y-13296900D02*
X10286200Y-13296900D01*
X10236200Y-13500900D02*
X10236200Y-13600900D01*
X10186200Y-13550900D02*
X10286200Y-13550900D01*
X10236200Y-13754900D02*
X10236200Y-13854900D01*
X10186200Y-13804900D02*
X10286200Y-13804900D01*
X10490200Y-9690900D02*
X10490200Y-9790900D01*
X10440200Y-9740900D02*
X10540200Y-9740900D01*
X10490200Y-9944900D02*
X10490200Y-10044900D01*
X10440200Y-9994900D02*
X10540200Y-9994900D01*
X10490200Y-10198900D02*
X10490200Y-10298900D01*
X10440200Y-10248900D02*
X10540200Y-10248900D01*
X10490200Y-10452900D02*
X10490200Y-10552900D01*
X10440200Y-10502900D02*
X10540200Y-10502900D01*
X10490200Y-10706900D02*
X10490200Y-10806900D01*
X10440200Y-10756900D02*
X10540200Y-10756900D01*
X10490200Y-10960900D02*
X10490200Y-11060900D01*
X10440200Y-11010900D02*
X10540200Y-11010900D01*
X10490200Y-11214900D02*
X10490200Y-11314900D01*
X10440200Y-11264900D02*
X10540200Y-11264900D01*
X10490200Y-11468900D02*
X10490200Y-11568900D01*
X10440200Y-11518900D02*
X10540200Y-11518900D01*
X10490200Y-11722900D02*
X10490200Y-11822900D01*
X10440200Y-11772900D02*
X10540200Y-11772900D01*
X10490200Y-11976900D02*
X10490200Y-12076900D01*
X10440200Y-12026900D02*
X10540200Y-12026900D01*
X10490200Y-12230900D02*
X10490200Y-12330900D01*
X10440200Y-12280900D02*
X10540200Y-12280900D01*
X10490200Y-12484900D02*
X10490200Y-12584900D01*
X10440200Y-12534900D02*
X10540200Y-12534900D01*
X10490200Y-12738900D02*
X10490200Y-12838900D01*
X10440200Y-12788900D02*
X10540200Y-12788900D01*
X10490200Y-12992900D02*
X10490200Y-13092900D01*
X10440200Y-13042900D02*
X10540200Y-13042900D01*
X10490200Y-13246900D02*
X10490200Y-13346900D01*
X10440200Y-13296900D02*
X10540200Y-13296900D01*
X10490200Y-13500900D02*
X10490200Y-13600900D01*
X10440200Y-13550900D02*
X10540200Y-13550900D01*
X10490200Y-13754900D02*
X10490200Y-13854900D01*
X10440200Y-13804900D02*
X10540200Y-13804900D01*
X10744200Y-13500900D02*
X10744200Y-13600900D01*
X10694200Y-13550900D02*
X10794200Y-13550900D01*
X10744200Y-13754900D02*
X10744200Y-13854900D01*
X10694200Y-13804900D02*
X10794200Y-13804900D01*
X10998200Y-7150900D02*
X10998200Y-7250900D01*
X10948200Y-7200900D02*
X11048200Y-7200900D01*
X10998200Y-7404900D02*
X10998200Y-7504900D01*
X10948200Y-7454900D02*
X11048200Y-7454900D01*
X10998200Y-7658900D02*
X10998200Y-7758900D01*
X10948200Y-7708900D02*
X11048200Y-7708900D01*
X10998200Y-7912900D02*
X10998200Y-8012900D01*
X10948200Y-7962900D02*
X11048200Y-7962900D01*
X10998200Y-8166900D02*
X10998200Y-8266900D01*
X10948200Y-8216900D02*
X11048200Y-8216900D01*
X10998200Y-8420900D02*
X10998200Y-8520900D01*
X10948200Y-8470900D02*
X11048200Y-8470900D01*
X10998200Y-8674900D02*
X10998200Y-8774900D01*
X10948200Y-8724900D02*
X11048200Y-8724900D01*
X10998200Y-8928900D02*
X10998200Y-9028900D01*
X10948200Y-8978900D02*
X11048200Y-8978900D01*
X10998200Y-9182900D02*
X10998200Y-9282900D01*
X10948200Y-9232900D02*
X11048200Y-9232900D01*
X10998200Y-9436900D02*
X10998200Y-9536900D01*
X10948200Y-9486900D02*
X11048200Y-9486900D01*
X10998200Y-9690900D02*
X10998200Y-9790900D01*
X10948200Y-9740900D02*
X11048200Y-9740900D01*
X10998200Y-9944900D02*
X10998200Y-10044900D01*
X10948200Y-9994900D02*
X11048200Y-9994900D01*
X10998200Y-10198900D02*
X10998200Y-10298900D01*
X10948200Y-10248900D02*
X11048200Y-10248900D01*
X10998200Y-10452900D02*
X10998200Y-10552900D01*
X10948200Y-10502900D02*
X11048200Y-10502900D01*
X10998200Y-10706900D02*
X10998200Y-10806900D01*
X10948200Y-10756900D02*
X11048200Y-10756900D01*
X10998200Y-10960900D02*
X10998200Y-11060900D01*
X10948200Y-11010900D02*
X11048200Y-11010900D01*
X10998200Y-11214900D02*
X10998200Y-11314900D01*
X10948200Y-11264900D02*
X11048200Y-11264900D01*
X10998200Y-11468900D02*
X10998200Y-11568900D01*
X10948200Y-11518900D02*
X11048200Y-11518900D01*
X10998200Y-11722900D02*
X10998200Y-11822900D01*
X10948200Y-11772900D02*
X11048200Y-11772900D01*
X10998200Y-11976900D02*
X10998200Y-12076900D01*
X10948200Y-12026900D02*
X11048200Y-12026900D01*
X11252200Y-7150900D02*
X11252200Y-7250900D01*
X11202200Y-7200900D02*
X11302200Y-7200900D01*
X11252200Y-7404900D02*
X11252200Y-7504900D01*
X11202200Y-7454900D02*
X11302200Y-7454900D01*
X11252200Y-7658900D02*
X11252200Y-7758900D01*
X11202200Y-7708900D02*
X11302200Y-7708900D01*
X11252200Y-7912900D02*
X11252200Y-8012900D01*
X11202200Y-7962900D02*
X11302200Y-7962900D01*
X11252200Y-8166900D02*
X11252200Y-8266900D01*
X11202200Y-8216900D02*
X11302200Y-8216900D01*
X11252200Y-8420900D02*
X11252200Y-8520900D01*
X11202200Y-8470900D02*
X11302200Y-8470900D01*
X11252200Y-8674900D02*
X11252200Y-8774900D01*
X11202200Y-8724900D02*
X11302200Y-8724900D01*
X11252200Y-8928900D02*
X11252200Y-9028900D01*
X11202200Y-8978900D02*
X11302200Y-8978900D01*
X11252200Y-9182900D02*
X11252200Y-9282900D01*
X11202200Y-9232900D02*
X11302200Y-9232900D01*
X11252200Y-9436900D02*
X11252200Y-9536900D01*
X11202200Y-9486900D02*
X11302200Y-9486900D01*
X11252200Y-9690900D02*
X11252200Y-9790900D01*
X11202200Y-9740900D02*
X11302200Y-9740900D01*
X11252200Y-9944900D02*
X11252200Y-10044900D01*
X11202200Y-9994900D02*
X11302200Y-9994900D01*
X11252200Y-10198900D02*
X11252200Y-10298900D01*
X11202200Y-10248900D02*
X11302200Y-10248900D01*
X11252200Y-10452900D02*
X11252200Y-10552900D01*
X11202200Y-10502900D02*
X11302200Y-10502900D01*
X11252200Y-10706900D02*
X11252200Y-10806900D01*
X11202200Y-10756900D02*
X11302200Y-10756900D01*
X11252200Y-10960900D02*
X11252200Y-11060900D01*
X11202200Y-11010900D02*
X11302200Y-11010900D01*
X11252200Y-11214900D02*
X11252200Y-11314900D01*
X11202200Y-11264900D02*
X11302200Y-11264900D01*
X11252200Y-11468900D02*
X11252200Y-11568900D01*
X11202200Y-11518900D02*
X11302200Y-11518900D01*
X11252200Y-11722900D02*
X11252200Y-11822900D01*
X11202200Y-11772900D02*
X11302200Y-11772900D01*
X11252200Y-11976900D02*
X11252200Y-12076900D01*
X11202200Y-12026900D02*
X11302200Y-12026900D01*
X12014200Y-7150900D02*
X12014200Y-7250900D01*
X11964200Y-7200900D02*
X12064200Y-7200900D01*
X12014200Y-7404900D02*
X12014200Y-7504900D01*
X11964200Y-7454900D02*
X12064200Y-7454900D01*
X12014200Y-7658900D02*
X12014200Y-7758900D01*
X11964200Y-7708900D02*
X12064200Y-7708900D01*
X12014200Y-7912900D02*
X12014200Y-8012900D01*
X11964200Y-7962900D02*
X12064200Y-7962900D01*
X12014200Y-8166900D02*
X12014200Y-8266900D01*
X11964200Y-8216900D02*
X12064200Y-8216900D01*
X12014200Y-8420900D02*
X12014200Y-8520900D01*
X11964200Y-8470900D02*
X12064200Y-8470900D01*
X12014200Y-8674900D02*
X12014200Y-8774900D01*
X11964200Y-8724900D02*
X12064200Y-8724900D01*
X12014200Y-8928900D02*
X12014200Y-9028900D01*
X11964200Y-8978900D02*
X12064200Y-8978900D01*
X12014200Y-9182900D02*
X12014200Y-9282900D01*
X11964200Y-9232900D02*
X12064200Y-9232900D01*
X12014200Y-9436900D02*
X12014200Y-9536900D01*
X11964200Y-9486900D02*
X12064200Y-9486900D01*
X12014200Y-9690900D02*
X12014200Y-9790900D01*
X11964200Y-9740900D02*
X12064200Y-9740900D01*
X12014200Y-9944900D02*
X12014200Y-10044900D01*
X11964200Y-9994900D02*
X12064200Y-9994900D01*
X12014200Y-10198900D02*
X12014200Y-10298900D01*
X11964200Y-10248900D02*
X12064200Y-10248900D01*
X12014200Y-10452900D02*
X12014200Y-10552900D01*
X11964200Y-10502900D02*
X12064200Y-10502900D01*
X12014200Y-10706900D02*
X12014200Y-10806900D01*
X11964200Y-10756900D02*
X12064200Y-10756900D01*
X12014200Y-10960900D02*
X12014200Y-11060900D01*
X11964200Y-11010900D02*
X12064200Y-11010900D01*
X12014200Y-11214900D02*
X12014200Y-11314900D01*
X11964200Y-11264900D02*
X12064200Y-11264900D01*
X12014200Y-11468900D02*
X12014200Y-11568900D01*
X11964200Y-11518900D02*
X12064200Y-11518900D01*
X12014200Y-11722900D02*
X12014200Y-11822900D01*
X11964200Y-11772900D02*
X12064200Y-11772900D01*
X12014200Y-11976900D02*
X12014200Y-12076900D01*
X11964200Y-12026900D02*
X12064200Y-12026900D01*
X13792200Y-7150900D02*
X13792200Y-7250900D01*
X13742200Y-7200900D02*
X13842200Y-7200900D01*
X13792200Y-7404900D02*
X13792200Y-7504900D01*
X13742200Y-7454900D02*
X13842200Y-7454900D01*
X13792200Y-7658900D02*
X13792200Y-7758900D01*
X13742200Y-7708900D02*
X13842200Y-7708900D01*
X13792200Y-7912900D02*
X13792200Y-8012900D01*
X13742200Y-7962900D02*
X13842200Y-7962900D01*
X13792200Y-8166900D02*
X13792200Y-8266900D01*
X13742200Y-8216900D02*
X13842200Y-8216900D01*
X13792200Y-8420900D02*
X13792200Y-8520900D01*
X13742200Y-8470900D02*
X13842200Y-8470900D01*
X13792200Y-8674900D02*
X13792200Y-8774900D01*
X13742200Y-8724900D02*
X13842200Y-8724900D01*
X13792200Y-8928900D02*
X13792200Y-9028900D01*
X13742200Y-8978900D02*
X13842200Y-8978900D01*
X13792200Y-9182900D02*
X13792200Y-9282900D01*
X13742200Y-9232900D02*
X13842200Y-9232900D01*
X13792200Y-9436900D02*
X13792200Y-9536900D01*
X13742200Y-9486900D02*
X13842200Y-9486900D01*
X13792200Y-9690900D02*
X13792200Y-9790900D01*
X13742200Y-9740900D02*
X13842200Y-9740900D01*
X13792200Y-9944900D02*
X13792200Y-10044900D01*
X13742200Y-9994900D02*
X13842200Y-9994900D01*
X13792200Y-10198900D02*
X13792200Y-10298900D01*
X13742200Y-10248900D02*
X13842200Y-10248900D01*
X13792200Y-10452900D02*
X13792200Y-10552900D01*
X13742200Y-10502900D02*
X13842200Y-10502900D01*
X13792200Y-10706900D02*
X13792200Y-10806900D01*
X13742200Y-10756900D02*
X13842200Y-10756900D01*
X13792200Y-10960900D02*
X13792200Y-11060900D01*
X13742200Y-11010900D02*
X13842200Y-11010900D01*
X13792200Y-11214900D02*
X13792200Y-11314900D01*
X13742200Y-11264900D02*
X13842200Y-11264900D01*
X13792200Y-11468900D02*
X13792200Y-11568900D01*
X13742200Y-11518900D02*
X13842200Y-11518900D01*
X13792200Y-11722900D02*
X13792200Y-11822900D01*
X13742200Y-11772900D02*
X13842200Y-11772900D01*
X13792200Y-11976900D02*
X13792200Y-12076900D01*
X13742200Y-12026900D02*
X13842200Y-12026900D01*
X14554200Y-7150900D02*
X14554200Y-7250900D01*
X14504200Y-7200900D02*
X14604200Y-7200900D01*
X14554200Y-7404900D02*
X14554200Y-7504900D01*
X14504200Y-7454900D02*
X14604200Y-7454900D01*
X14554200Y-7658900D02*
X14554200Y-7758900D01*
X14504200Y-7708900D02*
X14604200Y-7708900D01*
X14554200Y-7912900D02*
X14554200Y-8012900D01*
X14504200Y-7962900D02*
X14604200Y-7962900D01*
X14554200Y-8166900D02*
X14554200Y-8266900D01*
X14504200Y-8216900D02*
X14604200Y-8216900D01*
X14554200Y-8420900D02*
X14554200Y-8520900D01*
X14504200Y-8470900D02*
X14604200Y-8470900D01*
X14554200Y-8674900D02*
X14554200Y-8774900D01*
X14504200Y-8724900D02*
X14604200Y-8724900D01*
X14554200Y-8928900D02*
X14554200Y-9028900D01*
X14504200Y-8978900D02*
X14604200Y-8978900D01*
X14554200Y-9182900D02*
X14554200Y-9282900D01*
X14504200Y-9232900D02*
X14604200Y-9232900D01*
X14554200Y-9436900D02*
X14554200Y-9536900D01*
X14504200Y-9486900D02*
X14604200Y-9486900D01*
X14554200Y-9690900D02*
X14554200Y-9790900D01*
X14504200Y-9740900D02*
X14604200Y-9740900D01*
X14554200Y-9944900D02*
X14554200Y-10044900D01*
X14504200Y-9994900D02*
X14604200Y-9994900D01*
X14554200Y-10198900D02*
X14554200Y-10298900D01*
X14504200Y-10248900D02*
X14604200Y-10248900D01*
X14554200Y-10452900D02*
X14554200Y-10552900D01*
X14504200Y-10502900D02*
X14604200Y-10502900D01*
X14554200Y-10706900D02*
X14554200Y-10806900D01*
X14504200Y-10756900D02*
X14604200Y-10756900D01*
X14554200Y-10960900D02*
X14554200Y-11060900D01*
X14504200Y-11010900D02*
X14604200Y-11010900D01*
X14554200Y-11214900D02*
X14554200Y-11314900D01*
X14504200Y-11264900D02*
X14604200Y-11264900D01*
X14554200Y-11468900D02*
X14554200Y-11568900D01*
X14504200Y-11518900D02*
X14604200Y-11518900D01*
X14554200Y-11722900D02*
X14554200Y-11822900D01*
X14504200Y-11772900D02*
X14604200Y-11772900D01*
X14554200Y-11976900D02*
X14554200Y-12076900D01*
X14504200Y-12026900D02*
X14604200Y-12026900D01*
X14808200Y-7150900D02*
X14808200Y-7250900D01*
X14758200Y-7200900D02*
X14858200Y-7200900D01*
X14808200Y-7404900D02*
X14808200Y-7504900D01*
X14758200Y-7454900D02*
X14858200Y-7454900D01*
X14808200Y-7658900D02*
X14808200Y-7758900D01*
X14758200Y-7708900D02*
X14858200Y-7708900D01*
X14808200Y-7912900D02*
X14808200Y-8012900D01*
X14758200Y-7962900D02*
X14858200Y-7962900D01*
X14808200Y-8166900D02*
X14808200Y-8266900D01*
X14758200Y-8216900D02*
X14858200Y-8216900D01*
X14808200Y-8420900D02*
X14808200Y-8520900D01*
X14758200Y-8470900D02*
X14858200Y-8470900D01*
X14808200Y-8674900D02*
X14808200Y-8774900D01*
X14758200Y-8724900D02*
X14858200Y-8724900D01*
X14808200Y-8928900D02*
X14808200Y-9028900D01*
X14758200Y-8978900D02*
X14858200Y-8978900D01*
X14808200Y-9182900D02*
X14808200Y-9282900D01*
X14758200Y-9232900D02*
X14858200Y-9232900D01*
X14808200Y-9436900D02*
X14808200Y-9536900D01*
X14758200Y-9486900D02*
X14858200Y-9486900D01*
X14808200Y-9690900D02*
X14808200Y-9790900D01*
X14758200Y-9740900D02*
X14858200Y-9740900D01*
X14808200Y-9944900D02*
X14808200Y-10044900D01*
X14758200Y-9994900D02*
X14858200Y-9994900D01*
X14808200Y-10198900D02*
X14808200Y-10298900D01*
X14758200Y-10248900D02*
X14858200Y-10248900D01*
X14808200Y-10452900D02*
X14808200Y-10552900D01*
X14758200Y-10502900D02*
X14858200Y-10502900D01*
X14808200Y-10706900D02*
X14808200Y-10806900D01*
X14758200Y-10756900D02*
X14858200Y-10756900D01*
X14808200Y-10960900D02*
X14808200Y-11060900D01*
X14758200Y-11010900D02*
X14858200Y-11010900D01*
X14808200Y-11214900D02*
X14808200Y-11314900D01*
X14758200Y-11264900D02*
X14858200Y-11264900D01*
X14808200Y-11468900D02*
X14808200Y-11568900D01*
X14758200Y-11518900D02*
X14858200Y-11518900D01*
X14808200Y-11722900D02*
X14808200Y-11822900D01*
X14758200Y-11772900D02*
X14858200Y-11772900D01*
X14808200Y-11976900D02*
X14808200Y-12076900D01*
X14758200Y-12026900D02*
X14858200Y-12026900D01*
X16459200Y-4991900D02*
X16459200Y-5091900D01*
X16409200Y-5041900D02*
X16509200Y-5041900D01*
X16459200Y-5245900D02*
X16459200Y-5345900D01*
X16409200Y-5295900D02*
X16509200Y-5295900D01*
X16459200Y-5499900D02*
X16459200Y-5599900D01*
X16409200Y-5549900D02*
X16509200Y-5549900D01*
X16459200Y-5753900D02*
X16459200Y-5853900D01*
X16409200Y-5803900D02*
X16509200Y-5803900D01*
X16459200Y-6642900D02*
X16459200Y-6742900D01*
X16409200Y-6692900D02*
X16509200Y-6692900D01*
X16459200Y-6896900D02*
X16459200Y-6996900D01*
X16409200Y-6946900D02*
X16509200Y-6946900D01*
X16459200Y-7150900D02*
X16459200Y-7250900D01*
X16409200Y-7200900D02*
X16509200Y-7200900D01*
X16459200Y-7404900D02*
X16459200Y-7504900D01*
X16409200Y-7454900D02*
X16509200Y-7454900D01*
X16459200Y-8293900D02*
X16459200Y-8393900D01*
X16409200Y-8343900D02*
X16509200Y-8343900D01*
X16459200Y-8547900D02*
X16459200Y-8647900D01*
X16409200Y-8597900D02*
X16509200Y-8597900D01*
X16459200Y-8801900D02*
X16459200Y-8901900D01*
X16409200Y-8851900D02*
X16509200Y-8851900D01*
X16459200Y-9055900D02*
X16459200Y-9155900D01*
X16409200Y-9105900D02*
X16509200Y-9105900D01*
X16459200Y-9944900D02*
X16459200Y-10044900D01*
X16409200Y-9994900D02*
X16509200Y-9994900D01*
X16459200Y-10198900D02*
X16459200Y-10298900D01*
X16409200Y-10248900D02*
X16509200Y-10248900D01*
X16459200Y-10452900D02*
X16459200Y-10552900D01*
X16409200Y-10502900D02*
X16509200Y-10502900D01*
X16459200Y-10706900D02*
X16459200Y-10806900D01*
X16409200Y-10756900D02*
X16509200Y-10756900D01*
X16459200Y-11595900D02*
X16459200Y-11695900D01*
X16409200Y-11645900D02*
X16509200Y-11645900D01*
X16459200Y-11849900D02*
X16459200Y-11949900D01*
X16409200Y-11899900D02*
X16509200Y-11899900D01*
X16459200Y-12103900D02*
X16459200Y-12203900D01*
X16409200Y-12153900D02*
X16509200Y-12153900D01*
X16459200Y-12357900D02*
X16459200Y-12457900D01*
X16409200Y-12407900D02*
X16509200Y-12407900D01*
X16459200Y-13246900D02*
X16459200Y-13346900D01*
X16409200Y-13296900D02*
X16509200Y-13296900D01*
X16459200Y-13500900D02*
X16459200Y-13600900D01*
X16409200Y-13550900D02*
X16509200Y-13550900D01*
X16459200Y-13754900D02*
X16459200Y-13854900D01*
X16409200Y-13804900D02*
X16509200Y-13804900D01*
X16459200Y-14008900D02*
X16459200Y-14108900D01*
X16409200Y-14058900D02*
X16509200Y-14058900D01*
X16967200Y-4737900D02*
X16967200Y-4837900D01*
X16917200Y-4787900D02*
X17017200Y-4787900D01*
X16967200Y-4991900D02*
X16967200Y-5091900D01*
X16917200Y-5041900D02*
X17017200Y-5041900D01*
X16967200Y-5245900D02*
X16967200Y-5345900D01*
X16917200Y-5295900D02*
X17017200Y-5295900D01*
X16967200Y-5499900D02*
X16967200Y-5599900D01*
X16917200Y-5549900D02*
X17017200Y-5549900D01*
X16967200Y-5753900D02*
X16967200Y-5853900D01*
X16917200Y-5803900D02*
X17017200Y-5803900D01*
X16967200Y-6007900D02*
X16967200Y-6107900D01*
X16917200Y-6057900D02*
X17017200Y-6057900D01*
X16967200Y-6388900D02*
X16967200Y-6488900D01*
X16917200Y-6438900D02*
X17017200Y-6438900D01*
X16967200Y-6642900D02*
X16967200Y-6742900D01*
X16917200Y-6692900D02*
X17017200Y-6692900D01*
X16967200Y-6896900D02*
X16967200Y-6996900D01*
X16917200Y-6946900D02*
X17017200Y-6946900D01*
X16967200Y-7150900D02*
X16967200Y-7250900D01*
X16917200Y-7200900D02*
X17017200Y-7200900D01*
X16967200Y-7404900D02*
X16967200Y-7504900D01*
X16917200Y-7454900D02*
X17017200Y-7454900D01*
X16967200Y-7658900D02*
X16967200Y-7758900D01*
X16917200Y-7708900D02*
X17017200Y-7708900D01*
X16967200Y-8039900D02*
X16967200Y-8139900D01*
X16917200Y-8089900D02*
X17017200Y-8089900D01*
X16967200Y-8293900D02*
X16967200Y-8393900D01*
X16917200Y-8343900D02*
X17017200Y-8343900D01*
X16967200Y-8547900D02*
X16967200Y-8647900D01*
X16917200Y-8597900D02*
X17017200Y-8597900D01*
X16967200Y-8801900D02*
X16967200Y-8901900D01*
X16917200Y-8851900D02*
X17017200Y-8851900D01*
X16967200Y-9055900D02*
X16967200Y-9155900D01*
X16917200Y-9105900D02*
X17017200Y-9105900D01*
X16967200Y-9309900D02*
X16967200Y-9409900D01*
X16917200Y-9359900D02*
X17017200Y-9359900D01*
X16967200Y-9690900D02*
X16967200Y-9790900D01*
X16917200Y-9740900D02*
X17017200Y-9740900D01*
X16967200Y-9944900D02*
X16967200Y-10044900D01*
X16917200Y-9994900D02*
X17017200Y-9994900D01*
X16967200Y-10198900D02*
X16967200Y-10298900D01*
X16917200Y-10248900D02*
X17017200Y-10248900D01*
X16967200Y-10452900D02*
X16967200Y-10552900D01*
X16917200Y-10502900D02*
X17017200Y-10502900D01*
X16967200Y-10706900D02*
X16967200Y-10806900D01*
X16917200Y-10756900D02*
X17017200Y-10756900D01*
X16967200Y-10960900D02*
X16967200Y-11060900D01*
X16917200Y-11010900D02*
X17017200Y-11010900D01*
X16967200Y-11341900D02*
X16967200Y-11441900D01*
X16917200Y-11391900D02*
X17017200Y-11391900D01*
X16967200Y-11595900D02*
X16967200Y-11695900D01*
X16917200Y-11645900D02*
X17017200Y-11645900D01*
X16967200Y-11849900D02*
X16967200Y-11949900D01*
X16917200Y-11899900D02*
X17017200Y-11899900D01*
X16967200Y-12103900D02*
X16967200Y-12203900D01*
X16917200Y-12153900D02*
X17017200Y-12153900D01*
X16967200Y-12357900D02*
X16967200Y-12457900D01*
X16917200Y-12407900D02*
X17017200Y-12407900D01*
X16967200Y-12611900D02*
X16967200Y-12711900D01*
X16917200Y-12661900D02*
X17017200Y-12661900D01*
X16967200Y-12992900D02*
X16967200Y-13092900D01*
X16917200Y-13042900D02*
X17017200Y-13042900D01*
X16967200Y-13246900D02*
X16967200Y-13346900D01*
X16917200Y-13296900D02*
X17017200Y-13296900D01*
X16967200Y-13500900D02*
X16967200Y-13600900D01*
X16917200Y-13550900D02*
X17017200Y-13550900D01*
X16967200Y-13754900D02*
X16967200Y-13854900D01*
X16917200Y-13804900D02*
X17017200Y-13804900D01*
X16967200Y-14008900D02*
X16967200Y-14108900D01*
X16917200Y-14058900D02*
X17017200Y-14058900D01*
X16967200Y-14262900D02*
X16967200Y-14362900D01*
X16917200Y-14312900D02*
X17017200Y-14312900D01*
X17983200Y-4737900D02*
X17983200Y-4837900D01*
X17933200Y-4787900D02*
X18033200Y-4787900D01*
X17983200Y-4991900D02*
X17983200Y-5091900D01*
X17933200Y-5041900D02*
X18033200Y-5041900D01*
X17983200Y-5245900D02*
X17983200Y-5345900D01*
X17933200Y-5295900D02*
X18033200Y-5295900D01*
X17983200Y-5499900D02*
X17983200Y-5599900D01*
X17933200Y-5549900D02*
X18033200Y-5549900D01*
X17983200Y-5753900D02*
X17983200Y-5853900D01*
X17933200Y-5803900D02*
X18033200Y-5803900D01*
X17983200Y-6007900D02*
X17983200Y-6107900D01*
X17933200Y-6057900D02*
X18033200Y-6057900D01*
X17983200Y-6388900D02*
X17983200Y-6488900D01*
X17933200Y-6438900D02*
X18033200Y-6438900D01*
X17983200Y-6642900D02*
X17983200Y-6742900D01*
X17933200Y-6692900D02*
X18033200Y-6692900D01*
X17983200Y-6896900D02*
X17983200Y-6996900D01*
X17933200Y-6946900D02*
X18033200Y-6946900D01*
X17983200Y-7150900D02*
X17983200Y-7250900D01*
X17933200Y-7200900D02*
X18033200Y-7200900D01*
X17983200Y-7404900D02*
X17983200Y-7504900D01*
X17933200Y-7454900D02*
X18033200Y-7454900D01*
X17983200Y-7658900D02*
X17983200Y-7758900D01*
X17933200Y-7708900D02*
X18033200Y-7708900D01*
X17983200Y-8039900D02*
X17983200Y-8139900D01*
X17933200Y-8089900D02*
X18033200Y-8089900D01*
X17983200Y-8293900D02*
X17983200Y-8393900D01*
X17933200Y-8343900D02*
X18033200Y-8343900D01*
X17983200Y-8547900D02*
X17983200Y-8647900D01*
X17933200Y-8597900D02*
X18033200Y-8597900D01*
X17983200Y-8801900D02*
X17983200Y-8901900D01*
X17933200Y-8851900D02*
X18033200Y-8851900D01*
X17983200Y-9055900D02*
X17983200Y-9155900D01*
X17933200Y-9105900D02*
X18033200Y-9105900D01*
X17983200Y-9309900D02*
X17983200Y-9409900D01*
X17933200Y-9359900D02*
X18033200Y-9359900D01*
X17983200Y-9690900D02*
X17983200Y-9790900D01*
X17933200Y-9740900D02*
X18033200Y-9740900D01*
X17983200Y-9944900D02*
X17983200Y-10044900D01*
X17933200Y-9994900D02*
X18033200Y-9994900D01*
X17983200Y-10198900D02*
X17983200Y-10298900D01*
X17933200Y-10248900D02*
X18033200Y-10248900D01*
X17983200Y-10452900D02*
X17983200Y-10552900D01*
X17933200Y-10502900D02*
X18033200Y-10502900D01*
X17983200Y-10706900D02*
X17983200Y-10806900D01*
X17933200Y-10756900D02*
X18033200Y-10756900D01*
X17983200Y-10960900D02*
X17983200Y-11060900D01*
X17933200Y-11010900D02*
X18033200Y-11010900D01*
X17983200Y-11341900D02*
X17983200Y-11441900D01*
X17933200Y-11391900D02*
X18033200Y-11391900D01*
X17983200Y-11595900D02*
X17983200Y-11695900D01*
X17933200Y-11645900D02*
X18033200Y-11645900D01*
X17983200Y-11849900D02*
X17983200Y-11949900D01*
X17933200Y-11899900D02*
X18033200Y-11899900D01*
X17983200Y-12103900D02*
X17983200Y-12203900D01*
X17933200Y-12153900D02*
X18033200Y-12153900D01*
X17983200Y-12357900D02*
X17983200Y-12457900D01*
X17933200Y-12407900D02*
X18033200Y-12407900D01*
X17983200Y-12611900D02*
X17983200Y-12711900D01*
X17933200Y-12661900D02*
X18033200Y-12661900D01*
X17983200Y-12992900D02*
X17983200Y-13092900D01*
X17933200Y-13042900D02*
X18033200Y-13042900D01*
X17983200Y-13246900D02*
X17983200Y-13346900D01*
X17933200Y-13296900D02*
X18033200Y-13296900D01*
X17983200Y-13500900D02*
X17983200Y-13600900D01*
X17933200Y-13550900D02*
X18033200Y-13550900D01*
X17983200Y-13754900D02*
X17983200Y-13854900D01*
X17933200Y-13804900D02*
X18033200Y-13804900D01*
X17983200Y-14008900D02*
X17983200Y-14108900D01*
X17933200Y-14058900D02*
X18033200Y-14058900D01*
X17983200Y-14262900D02*
X17983200Y-14362900D01*
X17933200Y-14312900D02*
X18033200Y-14312900D01*
X18491200Y-4991900D02*
X18491200Y-5091900D01*
X18441200Y-5041900D02*
X18541200Y-5041900D01*
X18491200Y-5245900D02*
X18491200Y-5345900D01*
X18441200Y-5295900D02*
X18541200Y-5295900D01*
X18491200Y-5499900D02*
X18491200Y-5599900D01*
X18441200Y-5549900D02*
X18541200Y-5549900D01*
X18491200Y-5753900D02*
X18491200Y-5853900D01*
X18441200Y-5803900D02*
X18541200Y-5803900D01*
X18491200Y-6642900D02*
X18491200Y-6742900D01*
X18441200Y-6692900D02*
X18541200Y-6692900D01*
X18491200Y-6896900D02*
X18491200Y-6996900D01*
X18441200Y-6946900D02*
X18541200Y-6946900D01*
X18491200Y-7150900D02*
X18491200Y-7250900D01*
X18441200Y-7200900D02*
X18541200Y-7200900D01*
X18491200Y-7404900D02*
X18491200Y-7504900D01*
X18441200Y-7454900D02*
X18541200Y-7454900D01*
X18491200Y-8293900D02*
X18491200Y-8393900D01*
X18441200Y-8343900D02*
X18541200Y-8343900D01*
X18491200Y-8547900D02*
X18491200Y-8647900D01*
X18441200Y-8597900D02*
X18541200Y-8597900D01*
X18491200Y-8801900D02*
X18491200Y-8901900D01*
X18441200Y-8851900D02*
X18541200Y-8851900D01*
X18491200Y-9055900D02*
X18491200Y-9155900D01*
X18441200Y-9105900D02*
X18541200Y-9105900D01*
X18491200Y-9944900D02*
X18491200Y-10044900D01*
X18441200Y-9994900D02*
X18541200Y-9994900D01*
X18491200Y-10198900D02*
X18491200Y-10298900D01*
X18441200Y-10248900D02*
X18541200Y-10248900D01*
X18491200Y-10452900D02*
X18491200Y-10552900D01*
X18441200Y-10502900D02*
X18541200Y-10502900D01*
X18491200Y-10706900D02*
X18491200Y-10806900D01*
X18441200Y-10756900D02*
X18541200Y-10756900D01*
X18491200Y-11595900D02*
X18491200Y-11695900D01*
X18441200Y-11645900D02*
X18541200Y-11645900D01*
X18491200Y-11849900D02*
X18491200Y-11949900D01*
X18441200Y-11899900D02*
X18541200Y-11899900D01*
X18491200Y-12103900D02*
X18491200Y-12203900D01*
X18441200Y-12153900D02*
X18541200Y-12153900D01*
X18491200Y-12357900D02*
X18491200Y-12457900D01*
X18441200Y-12407900D02*
X18541200Y-12407900D01*
X18491200Y-13246900D02*
X18491200Y-13346900D01*
X18441200Y-13296900D02*
X18541200Y-13296900D01*
X18491200Y-13500900D02*
X18491200Y-13600900D01*
X18441200Y-13550900D02*
X18541200Y-13550900D01*
X18491200Y-13754900D02*
X18491200Y-13854900D01*
X18441200Y-13804900D02*
X18541200Y-13804900D01*
X18491200Y-14008900D02*
X18491200Y-14108900D01*
X18441200Y-14058900D02*
X18541200Y-14058900D01*
X20142200Y-4991900D02*
X20142200Y-5091900D01*
X20092200Y-5041900D02*
X20192200Y-5041900D01*
X20142200Y-5245900D02*
X20142200Y-5345900D01*
X20092200Y-5295900D02*
X20192200Y-5295900D01*
X20142200Y-5499900D02*
X20142200Y-5599900D01*
X20092200Y-5549900D02*
X20192200Y-5549900D01*
X20142200Y-5753900D02*
X20142200Y-5853900D01*
X20092200Y-5803900D02*
X20192200Y-5803900D01*
X20142200Y-6007900D02*
X20142200Y-6107900D01*
X20092200Y-6057900D02*
X20192200Y-6057900D01*
X20142200Y-6261900D02*
X20142200Y-6361900D01*
X20092200Y-6311900D02*
X20192200Y-6311900D01*
X20142200Y-6515900D02*
X20142200Y-6615900D01*
X20092200Y-6565900D02*
X20192200Y-6565900D01*
X20142200Y-6769900D02*
X20142200Y-6869900D01*
X20092200Y-6819900D02*
X20192200Y-6819900D01*
X20142200Y-7023900D02*
X20142200Y-7123900D01*
X20092200Y-7073900D02*
X20192200Y-7073900D01*
X20142200Y-7277900D02*
X20142200Y-7377900D01*
X20092200Y-7327900D02*
X20192200Y-7327900D01*
X20142200Y-7531900D02*
X20142200Y-7631900D01*
X20092200Y-7581900D02*
X20192200Y-7581900D01*
X20142200Y-7785900D02*
X20142200Y-7885900D01*
X20092200Y-7835900D02*
X20192200Y-7835900D01*
X20142200Y-8039900D02*
X20142200Y-8139900D01*
X20092200Y-8089900D02*
X20192200Y-8089900D01*
X20142200Y-8293900D02*
X20142200Y-8393900D01*
X20092200Y-8343900D02*
X20192200Y-8343900D01*
X20142200Y-8547900D02*
X20142200Y-8647900D01*
X20092200Y-8597900D02*
X20192200Y-8597900D01*
X20142200Y-8801900D02*
X20142200Y-8901900D01*
X20092200Y-8851900D02*
X20192200Y-8851900D01*
X20142200Y-9055900D02*
X20142200Y-9155900D01*
X20092200Y-9105900D02*
X20192200Y-9105900D01*
X20142200Y-9309900D02*
X20142200Y-9409900D01*
X20092200Y-9359900D02*
X20192200Y-9359900D01*
X20142200Y-9563900D02*
X20142200Y-9663900D01*
X20092200Y-9613900D02*
X20192200Y-9613900D01*
X20142200Y-9817900D02*
X20142200Y-9917900D01*
X20092200Y-9867900D02*
X20192200Y-9867900D01*
X20142200Y-10071900D02*
X20142200Y-10171900D01*
X20092200Y-10121900D02*
X20192200Y-10121900D01*
X20142200Y-10325900D02*
X20142200Y-10425900D01*
X20092200Y-10375900D02*
X20192200Y-10375900D01*
X20142200Y-10579900D02*
X20142200Y-10679900D01*
X20092200Y-10629900D02*
X20192200Y-10629900D01*
X20142200Y-10833900D02*
X20142200Y-10933900D01*
X20092200Y-10883900D02*
X20192200Y-10883900D01*
X20142200Y-11087900D02*
X20142200Y-11187900D01*
X20092200Y-11137900D02*
X20192200Y-11137900D01*
X20142200Y-11341900D02*
X20142200Y-11441900D01*
X20092200Y-11391900D02*
X20192200Y-11391900D01*
X20142200Y-11595900D02*
X20142200Y-11695900D01*
X20092200Y-11645900D02*
X20192200Y-11645900D01*
X20142200Y-11849900D02*
X20142200Y-11949900D01*
X20092200Y-11899900D02*
X20192200Y-11899900D01*
X20142200Y-12103900D02*
X20142200Y-12203900D01*
X20092200Y-12153900D02*
X20192200Y-12153900D01*
X20142200Y-12357900D02*
X20142200Y-12457900D01*
X20092200Y-12407900D02*
X20192200Y-12407900D01*
X20142200Y-12611900D02*
X20142200Y-12711900D01*
X20092200Y-12661900D02*
X20192200Y-12661900D01*
X20142200Y-12865900D02*
X20142200Y-12965900D01*
X20092200Y-12915900D02*
X20192200Y-12915900D01*
X20142200Y-13119900D02*
X20142200Y-13219900D01*
X20092200Y-13169900D02*
X20192200Y-13169900D01*
X20142200Y-13373900D02*
X20142200Y-13473900D01*
X20092200Y-13423900D02*
X20192200Y-13423900D01*
X20142200Y-13627900D02*
X20142200Y-13727900D01*
X20092200Y-13677900D02*
X20192200Y-13677900D01*
X20142200Y-13881900D02*
X20142200Y-13981900D01*
X20092200Y-13931900D02*
X20192200Y-13931900D01*
X20142200Y-14135900D02*
X20142200Y-14235900D01*
X20092200Y-14185900D02*
X20192200Y-14185900D01*
X20396200Y-4991900D02*
X20396200Y-5091900D01*
X20346200Y-5041900D02*
X20446200Y-5041900D01*
X20396200Y-5245900D02*
X20396200Y-5345900D01*
X20346200Y-5295900D02*
X20446200Y-5295900D01*
X20396200Y-5499900D02*
X20396200Y-5599900D01*
X20346200Y-5549900D02*
X20446200Y-5549900D01*
X20396200Y-5753900D02*
X20396200Y-5853900D01*
X20346200Y-5803900D02*
X20446200Y-5803900D01*
X20396200Y-6007900D02*
X20396200Y-6107900D01*
X20346200Y-6057900D02*
X20446200Y-6057900D01*
X20396200Y-6261900D02*
X20396200Y-6361900D01*
X20346200Y-6311900D02*
X20446200Y-6311900D01*
X20396200Y-6515900D02*
X20396200Y-6615900D01*
X20346200Y-6565900D02*
X20446200Y-6565900D01*
X20396200Y-6769900D02*
X20396200Y-6869900D01*
X20346200Y-6819900D02*
X20446200Y-6819900D01*
X20396200Y-7023900D02*
X20396200Y-7123900D01*
X20346200Y-7073900D02*
X20446200Y-7073900D01*
X20396200Y-7277900D02*
X20396200Y-7377900D01*
X20346200Y-7327900D02*
X20446200Y-7327900D01*
X20396200Y-7531900D02*
X20396200Y-7631900D01*
X20346200Y-7581900D02*
X20446200Y-7581900D01*
X20396200Y-7785900D02*
X20396200Y-7885900D01*
X20346200Y-7835900D02*
X20446200Y-7835900D01*
X20396200Y-8039900D02*
X20396200Y-8139900D01*
X20346200Y-8089900D02*
X20446200Y-8089900D01*
X20396200Y-8293900D02*
X20396200Y-8393900D01*
X20346200Y-8343900D02*
X20446200Y-8343900D01*
X20396200Y-8547900D02*
X20396200Y-8647900D01*
X20346200Y-8597900D02*
X20446200Y-8597900D01*
X20396200Y-8801900D02*
X20396200Y-8901900D01*
X20346200Y-8851900D02*
X20446200Y-8851900D01*
X20396200Y-9055900D02*
X20396200Y-9155900D01*
X20346200Y-9105900D02*
X20446200Y-9105900D01*
X20396200Y-9309900D02*
X20396200Y-9409900D01*
X20346200Y-9359900D02*
X20446200Y-9359900D01*
X20396200Y-9563900D02*
X20396200Y-9663900D01*
X20346200Y-9613900D02*
X20446200Y-9613900D01*
X20396200Y-9817900D02*
X20396200Y-9917900D01*
X20346200Y-9867900D02*
X20446200Y-9867900D01*
X20396200Y-10071900D02*
X20396200Y-10171900D01*
X20346200Y-10121900D02*
X20446200Y-10121900D01*
X20396200Y-10325900D02*
X20396200Y-10425900D01*
X20346200Y-10375900D02*
X20446200Y-10375900D01*
X20396200Y-10579900D02*
X20396200Y-10679900D01*
X20346200Y-10629900D02*
X20446200Y-10629900D01*
X20396200Y-10833900D02*
X20396200Y-10933900D01*
X20346200Y-10883900D02*
X20446200Y-10883900D01*
X20396200Y-11087900D02*
X20396200Y-11187900D01*
X20346200Y-11137900D02*
X20446200Y-11137900D01*
X20396200Y-11341900D02*
X20396200Y-11441900D01*
X20346200Y-11391900D02*
X20446200Y-11391900D01*
X20396200Y-11595900D02*
X20396200Y-11695900D01*
X20346200Y-11645900D02*
X20446200Y-11645900D01*
X20396200Y-11849900D02*
X20396200Y-11949900D01*
X20346200Y-11899900D02*
X20446200Y-11899900D01*
X20396200Y-12103900D02*
X20396200Y-12203900D01*
X20346200Y-12153900D02*
X20446200Y-12153900D01*
X20396200Y-12357900D02*
X20396200Y-12457900D01*
X20346200Y-12407900D02*
X20446200Y-12407900D01*
X20396200Y-12611900D02*
X20396200Y-12711900D01*
X20346200Y-12661900D02*
X20446200Y-12661900D01*
X20396200Y-12865900D02*
X20396200Y-12965900D01*
X20346200Y-12915900D02*
X20446200Y-12915900D01*
X20396200Y-13119900D02*
X20396200Y-13219900D01*
X20346200Y-13169900D02*
X20446200Y-13169900D01*
X20396200Y-13373900D02*
X20396200Y-13473900D01*
X20346200Y-13423900D02*
X20446200Y-13423900D01*
X20396200Y-13627900D02*
X20396200Y-13727900D01*
X20346200Y-13677900D02*
X20446200Y-13677900D01*
X20396200Y-13881900D02*
X20396200Y-13981900D01*
X20346200Y-13931900D02*
X20446200Y-13931900D01*
X20396200Y-14135900D02*
X20396200Y-14235900D01*
X20346200Y-14185900D02*
X20446200Y-14185900D01*
D13*
X13831091Y-12558791D02*
X13831091Y-12481009D01*
X13753309Y-12481009D01*
X13753309Y-12558791D01*
X13831091Y-12558791D01*
X13831091Y-13208791D02*
X13831091Y-13131009D01*
X13753309Y-13131009D01*
X13753309Y-13208791D01*
X13831091Y-13208791D01*
X14281091Y-12558791D02*
X14281091Y-12481009D01*
X14203309Y-12481009D01*
X14203309Y-12558791D01*
X14281091Y-12558791D01*
X14281091Y-13208791D02*
X14281091Y-13131009D01*
X14203309Y-13131009D01*
X14203309Y-13208791D01*
X14281091Y-13208791D01*
D14*
X9791700Y-5678400D02*
X9856700Y-5613400D01*
X9791700Y-5548400D01*
X9726700Y-5613400D01*
X9791700Y-5678400D01*
D12*
X9726700Y-5565900D02*
X9726700Y-5660900D01*
X9856700Y-5660900D02*
G75*
G02*
X9726700Y-5660900I-65000J0D01*
G01*
X9856700Y-5660900D02*
X9856700Y-5565900D01*
X9856700Y-5565900D02*
G75*
G03*
X9726700Y-5565900I-65000J0D01*
G01*
D15*
X11741000Y-12541100D02*
X11881000Y-12681100D01*
X11881000Y-12541100D02*
X11741000Y-12681100D01*
X11881000Y-12611100D02*
G75*
G02*
X11741000Y-12611100I-70000J0D01*
G01*
X11741000Y-12611100D02*
G75*
G02*
X11881000Y-12611100I70000J0D01*
G01*
X11741000Y-13811100D02*
X11881000Y-13951100D01*
X11881000Y-13811100D02*
X11741000Y-13951100D01*
X11881000Y-13881100D02*
G75*
G02*
X11741000Y-13881100I-70000J0D01*
G01*
X11741000Y-13881100D02*
G75*
G02*
X11881000Y-13881100I70000J0D01*
G01*
D11*
X8144977Y-14906284D02*
X8144977Y-14706284D01*
X8144977Y-14706284D02*
X8192596Y-14706284D01*
X8192596Y-14706284D02*
X8221167Y-14715808D01*
X8221167Y-14715808D02*
X8240215Y-14734855D01*
X8240215Y-14734855D02*
X8249739Y-14753903D01*
X8249739Y-14753903D02*
X8259262Y-14791998D01*
X8259262Y-14791998D02*
X8259262Y-14820569D01*
X8259262Y-14820569D02*
X8249739Y-14858665D01*
X8249739Y-14858665D02*
X8240215Y-14877712D01*
X8240215Y-14877712D02*
X8221167Y-14896760D01*
X8221167Y-14896760D02*
X8192596Y-14906284D01*
X8192596Y-14906284D02*
X8144977Y-14906284D01*
X8344977Y-14906284D02*
X8344977Y-14772950D01*
X8344977Y-14811046D02*
X8354501Y-14791998D01*
X8354501Y-14791998D02*
X8364024Y-14782474D01*
X8364024Y-14782474D02*
X8383072Y-14772950D01*
X8383072Y-14772950D02*
X8402120Y-14772950D01*
X8468786Y-14906284D02*
X8468786Y-14772950D01*
X8468786Y-14706284D02*
X8459263Y-14715808D01*
X8459263Y-14715808D02*
X8468786Y-14725331D01*
X8468786Y-14725331D02*
X8478310Y-14715808D01*
X8478310Y-14715808D02*
X8468786Y-14706284D01*
X8468786Y-14706284D02*
X8468786Y-14725331D01*
X8592596Y-14906284D02*
X8573548Y-14896760D01*
X8573548Y-14896760D02*
X8564024Y-14877712D01*
X8564024Y-14877712D02*
X8564024Y-14706284D01*
X8697358Y-14906284D02*
X8678310Y-14896760D01*
X8678310Y-14896760D02*
X8668786Y-14877712D01*
X8668786Y-14877712D02*
X8668786Y-14706284D01*
X8925929Y-14906284D02*
X8925929Y-14706284D01*
X8925929Y-14706284D02*
X8992596Y-14849141D01*
X8992596Y-14849141D02*
X9059263Y-14706284D01*
X9059263Y-14706284D02*
X9059263Y-14906284D01*
X9240215Y-14906284D02*
X9240215Y-14801522D01*
X9240215Y-14801522D02*
X9230691Y-14782474D01*
X9230691Y-14782474D02*
X9211644Y-14772950D01*
X9211644Y-14772950D02*
X9173548Y-14772950D01*
X9173548Y-14772950D02*
X9154501Y-14782474D01*
X9240215Y-14896760D02*
X9221167Y-14906284D01*
X9221167Y-14906284D02*
X9173548Y-14906284D01*
X9173548Y-14906284D02*
X9154501Y-14896760D01*
X9154501Y-14896760D02*
X9144977Y-14877712D01*
X9144977Y-14877712D02*
X9144977Y-14858665D01*
X9144977Y-14858665D02*
X9154501Y-14839617D01*
X9154501Y-14839617D02*
X9173548Y-14830093D01*
X9173548Y-14830093D02*
X9221167Y-14830093D01*
X9221167Y-14830093D02*
X9240215Y-14820569D01*
X9335453Y-14772950D02*
X9335453Y-14972950D01*
X9335453Y-14782474D02*
X9354501Y-14772950D01*
X9354501Y-14772950D02*
X9392596Y-14772950D01*
X9392596Y-14772950D02*
X9411644Y-14782474D01*
X9411644Y-14782474D02*
X9421167Y-14791998D01*
X9421167Y-14791998D02*
X9430691Y-14811046D01*
X9430691Y-14811046D02*
X9430691Y-14868188D01*
X9430691Y-14868188D02*
X9421167Y-14887236D01*
X9421167Y-14887236D02*
X9411644Y-14896760D01*
X9411644Y-14896760D02*
X9392596Y-14906284D01*
X9392596Y-14906284D02*
X9354501Y-14906284D01*
X9354501Y-14906284D02*
X9335453Y-14896760D01*
X9516405Y-14887236D02*
X9525929Y-14896760D01*
X9525929Y-14896760D02*
X9516405Y-14906284D01*
X9516405Y-14906284D02*
X9506882Y-14896760D01*
X9506882Y-14896760D02*
X9516405Y-14887236D01*
X9516405Y-14887236D02*
X9516405Y-14906284D01*
X9516405Y-14782474D02*
X9525929Y-14791998D01*
X9525929Y-14791998D02*
X9516405Y-14801522D01*
X9516405Y-14801522D02*
X9506882Y-14791998D01*
X9506882Y-14791998D02*
X9516405Y-14782474D01*
X9516405Y-14782474D02*
X9516405Y-14801522D01*
D12*
X7854200Y-15219800D02*
X7884200Y-15249800D01*
X7884200Y-15219800D02*
X7854200Y-15249800D01*
D11*
X8183072Y-15126284D02*
X8202120Y-15126284D01*
X8202120Y-15126284D02*
X8221167Y-15135808D01*
X8221167Y-15135808D02*
X8230691Y-15145331D01*
X8230691Y-15145331D02*
X8240215Y-15164379D01*
X8240215Y-15164379D02*
X8249739Y-15202474D01*
X8249739Y-15202474D02*
X8249739Y-15250093D01*
X8249739Y-15250093D02*
X8240215Y-15288188D01*
X8240215Y-15288188D02*
X8230691Y-15307236D01*
X8230691Y-15307236D02*
X8221167Y-15316760D01*
X8221167Y-15316760D02*
X8202120Y-15326284D01*
X8202120Y-15326284D02*
X8183072Y-15326284D01*
X8183072Y-15326284D02*
X8164024Y-15316760D01*
X8164024Y-15316760D02*
X8154501Y-15307236D01*
X8154501Y-15307236D02*
X8144977Y-15288188D01*
X8144977Y-15288188D02*
X8135453Y-15250093D01*
X8135453Y-15250093D02*
X8135453Y-15202474D01*
X8135453Y-15202474D02*
X8144977Y-15164379D01*
X8144977Y-15164379D02*
X8154501Y-15145331D01*
X8154501Y-15145331D02*
X8164024Y-15135808D01*
X8164024Y-15135808D02*
X8183072Y-15126284D01*
X8335453Y-15307236D02*
X8344977Y-15316760D01*
X8344977Y-15316760D02*
X8335453Y-15326284D01*
X8335453Y-15326284D02*
X8325929Y-15316760D01*
X8325929Y-15316760D02*
X8335453Y-15307236D01*
X8335453Y-15307236D02*
X8335453Y-15326284D01*
X8411644Y-15126284D02*
X8535453Y-15126284D01*
X8535453Y-15126284D02*
X8468786Y-15202474D01*
X8468786Y-15202474D02*
X8497358Y-15202474D01*
X8497358Y-15202474D02*
X8516405Y-15211998D01*
X8516405Y-15211998D02*
X8525929Y-15221522D01*
X8525929Y-15221522D02*
X8535453Y-15240569D01*
X8535453Y-15240569D02*
X8535453Y-15288188D01*
X8535453Y-15288188D02*
X8525929Y-15307236D01*
X8525929Y-15307236D02*
X8516405Y-15316760D01*
X8516405Y-15316760D02*
X8497358Y-15326284D01*
X8497358Y-15326284D02*
X8440215Y-15326284D01*
X8440215Y-15326284D02*
X8421167Y-15316760D01*
X8421167Y-15316760D02*
X8411644Y-15307236D01*
X8659263Y-15126284D02*
X8678310Y-15126284D01*
X8678310Y-15126284D02*
X8697358Y-15135808D01*
X8697358Y-15135808D02*
X8706882Y-15145331D01*
X8706882Y-15145331D02*
X8716405Y-15164379D01*
X8716405Y-15164379D02*
X8725929Y-15202474D01*
X8725929Y-15202474D02*
X8725929Y-15250093D01*
X8725929Y-15250093D02*
X8716405Y-15288188D01*
X8716405Y-15288188D02*
X8706882Y-15307236D01*
X8706882Y-15307236D02*
X8697358Y-15316760D01*
X8697358Y-15316760D02*
X8678310Y-15326284D01*
X8678310Y-15326284D02*
X8659263Y-15326284D01*
X8659263Y-15326284D02*
X8640215Y-15316760D01*
X8640215Y-15316760D02*
X8630691Y-15307236D01*
X8630691Y-15307236D02*
X8621167Y-15288188D01*
X8621167Y-15288188D02*
X8611644Y-15250093D01*
X8611644Y-15250093D02*
X8611644Y-15202474D01*
X8611644Y-15202474D02*
X8621167Y-15164379D01*
X8621167Y-15164379D02*
X8630691Y-15145331D01*
X8630691Y-15145331D02*
X8640215Y-15135808D01*
X8640215Y-15135808D02*
X8659263Y-15126284D01*
X8849739Y-15126284D02*
X8868786Y-15126284D01*
X8868786Y-15126284D02*
X8887834Y-15135808D01*
X8887834Y-15135808D02*
X8897358Y-15145331D01*
X8897358Y-15145331D02*
X8906882Y-15164379D01*
X8906882Y-15164379D02*
X8916405Y-15202474D01*
X8916405Y-15202474D02*
X8916405Y-15250093D01*
X8916405Y-15250093D02*
X8906882Y-15288188D01*
X8906882Y-15288188D02*
X8897358Y-15307236D01*
X8897358Y-15307236D02*
X8887834Y-15316760D01*
X8887834Y-15316760D02*
X8868786Y-15326284D01*
X8868786Y-15326284D02*
X8849739Y-15326284D01*
X8849739Y-15326284D02*
X8830691Y-15316760D01*
X8830691Y-15316760D02*
X8821167Y-15307236D01*
X8821167Y-15307236D02*
X8811644Y-15288188D01*
X8811644Y-15288188D02*
X8802120Y-15250093D01*
X8802120Y-15250093D02*
X8802120Y-15202474D01*
X8802120Y-15202474D02*
X8811644Y-15164379D01*
X8811644Y-15164379D02*
X8821167Y-15145331D01*
X8821167Y-15145331D02*
X8830691Y-15135808D01*
X8830691Y-15135808D02*
X8849739Y-15126284D01*
X9002120Y-15326284D02*
X9002120Y-15192950D01*
X9002120Y-15211998D02*
X9011644Y-15202474D01*
X9011644Y-15202474D02*
X9030691Y-15192950D01*
X9030691Y-15192950D02*
X9059263Y-15192950D01*
X9059263Y-15192950D02*
X9078310Y-15202474D01*
X9078310Y-15202474D02*
X9087834Y-15221522D01*
X9087834Y-15221522D02*
X9087834Y-15326284D01*
X9087834Y-15221522D02*
X9097358Y-15202474D01*
X9097358Y-15202474D02*
X9116405Y-15192950D01*
X9116405Y-15192950D02*
X9144977Y-15192950D01*
X9144977Y-15192950D02*
X9164025Y-15202474D01*
X9164025Y-15202474D02*
X9173548Y-15221522D01*
X9173548Y-15221522D02*
X9173548Y-15326284D01*
X9268786Y-15326284D02*
X9268786Y-15192950D01*
X9268786Y-15211998D02*
X9278310Y-15202474D01*
X9278310Y-15202474D02*
X9297358Y-15192950D01*
X9297358Y-15192950D02*
X9325929Y-15192950D01*
X9325929Y-15192950D02*
X9344977Y-15202474D01*
X9344977Y-15202474D02*
X9354501Y-15221522D01*
X9354501Y-15221522D02*
X9354501Y-15326284D01*
X9354501Y-15221522D02*
X9364025Y-15202474D01*
X9364025Y-15202474D02*
X9383072Y-15192950D01*
X9383072Y-15192950D02*
X9411644Y-15192950D01*
X9411644Y-15192950D02*
X9430691Y-15202474D01*
X9430691Y-15202474D02*
X9440215Y-15221522D01*
X9440215Y-15221522D02*
X9440215Y-15326284D01*
X9830691Y-15116760D02*
X9659263Y-15373903D01*
X10087834Y-15126284D02*
X10106882Y-15126284D01*
X10106882Y-15126284D02*
X10125929Y-15135808D01*
X10125929Y-15135808D02*
X10135453Y-15145331D01*
X10135453Y-15145331D02*
X10144977Y-15164379D01*
X10144977Y-15164379D02*
X10154501Y-15202474D01*
X10154501Y-15202474D02*
X10154501Y-15250093D01*
X10154501Y-15250093D02*
X10144977Y-15288188D01*
X10144977Y-15288188D02*
X10135453Y-15307236D01*
X10135453Y-15307236D02*
X10125929Y-15316760D01*
X10125929Y-15316760D02*
X10106882Y-15326284D01*
X10106882Y-15326284D02*
X10087834Y-15326284D01*
X10087834Y-15326284D02*
X10068787Y-15316760D01*
X10068787Y-15316760D02*
X10059263Y-15307236D01*
X10059263Y-15307236D02*
X10049739Y-15288188D01*
X10049739Y-15288188D02*
X10040215Y-15250093D01*
X10040215Y-15250093D02*
X10040215Y-15202474D01*
X10040215Y-15202474D02*
X10049739Y-15164379D01*
X10049739Y-15164379D02*
X10059263Y-15145331D01*
X10059263Y-15145331D02*
X10068787Y-15135808D01*
X10068787Y-15135808D02*
X10087834Y-15126284D01*
X10240215Y-15307236D02*
X10249739Y-15316760D01*
X10249739Y-15316760D02*
X10240215Y-15326284D01*
X10240215Y-15326284D02*
X10230691Y-15316760D01*
X10230691Y-15316760D02*
X10240215Y-15307236D01*
X10240215Y-15307236D02*
X10240215Y-15326284D01*
X10373548Y-15126284D02*
X10392596Y-15126284D01*
X10392596Y-15126284D02*
X10411644Y-15135808D01*
X10411644Y-15135808D02*
X10421168Y-15145331D01*
X10421168Y-15145331D02*
X10430691Y-15164379D01*
X10430691Y-15164379D02*
X10440215Y-15202474D01*
X10440215Y-15202474D02*
X10440215Y-15250093D01*
X10440215Y-15250093D02*
X10430691Y-15288188D01*
X10430691Y-15288188D02*
X10421168Y-15307236D01*
X10421168Y-15307236D02*
X10411644Y-15316760D01*
X10411644Y-15316760D02*
X10392596Y-15326284D01*
X10392596Y-15326284D02*
X10373548Y-15326284D01*
X10373548Y-15326284D02*
X10354501Y-15316760D01*
X10354501Y-15316760D02*
X10344977Y-15307236D01*
X10344977Y-15307236D02*
X10335453Y-15288188D01*
X10335453Y-15288188D02*
X10325929Y-15250093D01*
X10325929Y-15250093D02*
X10325929Y-15202474D01*
X10325929Y-15202474D02*
X10335453Y-15164379D01*
X10335453Y-15164379D02*
X10344977Y-15145331D01*
X10344977Y-15145331D02*
X10354501Y-15135808D01*
X10354501Y-15135808D02*
X10373548Y-15126284D01*
X10630691Y-15326284D02*
X10516406Y-15326284D01*
X10573548Y-15326284D02*
X10573548Y-15126284D01*
X10573548Y-15126284D02*
X10554501Y-15154855D01*
X10554501Y-15154855D02*
X10535453Y-15173903D01*
X10535453Y-15173903D02*
X10516406Y-15183427D01*
X10821168Y-15326284D02*
X10706882Y-15326284D01*
X10764025Y-15326284D02*
X10764025Y-15126284D01*
X10764025Y-15126284D02*
X10744977Y-15154855D01*
X10744977Y-15154855D02*
X10725929Y-15173903D01*
X10725929Y-15173903D02*
X10706882Y-15183427D01*
X10935453Y-15211998D02*
X10916406Y-15202474D01*
X10916406Y-15202474D02*
X10906882Y-15192950D01*
X10906882Y-15192950D02*
X10897358Y-15173903D01*
X10897358Y-15173903D02*
X10897358Y-15164379D01*
X10897358Y-15164379D02*
X10906882Y-15145331D01*
X10906882Y-15145331D02*
X10916406Y-15135808D01*
X10916406Y-15135808D02*
X10935453Y-15126284D01*
X10935453Y-15126284D02*
X10973549Y-15126284D01*
X10973549Y-15126284D02*
X10992596Y-15135808D01*
X10992596Y-15135808D02*
X11002120Y-15145331D01*
X11002120Y-15145331D02*
X11011644Y-15164379D01*
X11011644Y-15164379D02*
X11011644Y-15173903D01*
X11011644Y-15173903D02*
X11002120Y-15192950D01*
X11002120Y-15192950D02*
X10992596Y-15202474D01*
X10992596Y-15202474D02*
X10973549Y-15211998D01*
X10973549Y-15211998D02*
X10935453Y-15211998D01*
X10935453Y-15211998D02*
X10916406Y-15221522D01*
X10916406Y-15221522D02*
X10906882Y-15231046D01*
X10906882Y-15231046D02*
X10897358Y-15250093D01*
X10897358Y-15250093D02*
X10897358Y-15288188D01*
X10897358Y-15288188D02*
X10906882Y-15307236D01*
X10906882Y-15307236D02*
X10916406Y-15316760D01*
X10916406Y-15316760D02*
X10935453Y-15326284D01*
X10935453Y-15326284D02*
X10973549Y-15326284D01*
X10973549Y-15326284D02*
X10992596Y-15316760D01*
X10992596Y-15316760D02*
X11002120Y-15307236D01*
X11002120Y-15307236D02*
X11011644Y-15288188D01*
X11011644Y-15288188D02*
X11011644Y-15250093D01*
X11011644Y-15250093D02*
X11002120Y-15231046D01*
X11002120Y-15231046D02*
X10992596Y-15221522D01*
X10992596Y-15221522D02*
X10973549Y-15211998D01*
X11087834Y-15126284D02*
X11087834Y-15164379D01*
X11164025Y-15126284D02*
X11164025Y-15164379D01*
X11459263Y-15402474D02*
X11449739Y-15392950D01*
X11449739Y-15392950D02*
X11430691Y-15364379D01*
X11430691Y-15364379D02*
X11421168Y-15345331D01*
X11421168Y-15345331D02*
X11411644Y-15316760D01*
X11411644Y-15316760D02*
X11402120Y-15269141D01*
X11402120Y-15269141D02*
X11402120Y-15231046D01*
X11402120Y-15231046D02*
X11411644Y-15183427D01*
X11411644Y-15183427D02*
X11421168Y-15154855D01*
X11421168Y-15154855D02*
X11430691Y-15135808D01*
X11430691Y-15135808D02*
X11449739Y-15107236D01*
X11449739Y-15107236D02*
X11459263Y-15097712D01*
X11516406Y-15126284D02*
X11640215Y-15126284D01*
X11640215Y-15126284D02*
X11573548Y-15202474D01*
X11573548Y-15202474D02*
X11602120Y-15202474D01*
X11602120Y-15202474D02*
X11621168Y-15211998D01*
X11621168Y-15211998D02*
X11630691Y-15221522D01*
X11630691Y-15221522D02*
X11640215Y-15240569D01*
X11640215Y-15240569D02*
X11640215Y-15288188D01*
X11640215Y-15288188D02*
X11630691Y-15307236D01*
X11630691Y-15307236D02*
X11621168Y-15316760D01*
X11621168Y-15316760D02*
X11602120Y-15326284D01*
X11602120Y-15326284D02*
X11544977Y-15326284D01*
X11544977Y-15326284D02*
X11525929Y-15316760D01*
X11525929Y-15316760D02*
X11516406Y-15307236D01*
X11716406Y-15145331D02*
X11725929Y-15135808D01*
X11725929Y-15135808D02*
X11744977Y-15126284D01*
X11744977Y-15126284D02*
X11792596Y-15126284D01*
X11792596Y-15126284D02*
X11811644Y-15135808D01*
X11811644Y-15135808D02*
X11821168Y-15145331D01*
X11821168Y-15145331D02*
X11830691Y-15164379D01*
X11830691Y-15164379D02*
X11830691Y-15183427D01*
X11830691Y-15183427D02*
X11821168Y-15211998D01*
X11821168Y-15211998D02*
X11706882Y-15326284D01*
X11706882Y-15326284D02*
X11830691Y-15326284D01*
X12068787Y-15326284D02*
X12068787Y-15126284D01*
X12154501Y-15326284D02*
X12154501Y-15221522D01*
X12154501Y-15221522D02*
X12144977Y-15202474D01*
X12144977Y-15202474D02*
X12125930Y-15192950D01*
X12125930Y-15192950D02*
X12097358Y-15192950D01*
X12097358Y-15192950D02*
X12078310Y-15202474D01*
X12078310Y-15202474D02*
X12068787Y-15211998D01*
X12278310Y-15326284D02*
X12259263Y-15316760D01*
X12259263Y-15316760D02*
X12249739Y-15307236D01*
X12249739Y-15307236D02*
X12240215Y-15288188D01*
X12240215Y-15288188D02*
X12240215Y-15231046D01*
X12240215Y-15231046D02*
X12249739Y-15211998D01*
X12249739Y-15211998D02*
X12259263Y-15202474D01*
X12259263Y-15202474D02*
X12278310Y-15192950D01*
X12278310Y-15192950D02*
X12306882Y-15192950D01*
X12306882Y-15192950D02*
X12325930Y-15202474D01*
X12325930Y-15202474D02*
X12335453Y-15211998D01*
X12335453Y-15211998D02*
X12344977Y-15231046D01*
X12344977Y-15231046D02*
X12344977Y-15288188D01*
X12344977Y-15288188D02*
X12335453Y-15307236D01*
X12335453Y-15307236D02*
X12325930Y-15316760D01*
X12325930Y-15316760D02*
X12306882Y-15326284D01*
X12306882Y-15326284D02*
X12278310Y-15326284D01*
X12459263Y-15326284D02*
X12440215Y-15316760D01*
X12440215Y-15316760D02*
X12430691Y-15297712D01*
X12430691Y-15297712D02*
X12430691Y-15126284D01*
X12611644Y-15316760D02*
X12592596Y-15326284D01*
X12592596Y-15326284D02*
X12554501Y-15326284D01*
X12554501Y-15326284D02*
X12535453Y-15316760D01*
X12535453Y-15316760D02*
X12525930Y-15297712D01*
X12525930Y-15297712D02*
X12525930Y-15221522D01*
X12525930Y-15221522D02*
X12535453Y-15202474D01*
X12535453Y-15202474D02*
X12554501Y-15192950D01*
X12554501Y-15192950D02*
X12592596Y-15192950D01*
X12592596Y-15192950D02*
X12611644Y-15202474D01*
X12611644Y-15202474D02*
X12621168Y-15221522D01*
X12621168Y-15221522D02*
X12621168Y-15240569D01*
X12621168Y-15240569D02*
X12525930Y-15259617D01*
X12697358Y-15316760D02*
X12716406Y-15326284D01*
X12716406Y-15326284D02*
X12754501Y-15326284D01*
X12754501Y-15326284D02*
X12773549Y-15316760D01*
X12773549Y-15316760D02*
X12783072Y-15297712D01*
X12783072Y-15297712D02*
X12783072Y-15288188D01*
X12783072Y-15288188D02*
X12773549Y-15269141D01*
X12773549Y-15269141D02*
X12754501Y-15259617D01*
X12754501Y-15259617D02*
X12725930Y-15259617D01*
X12725930Y-15259617D02*
X12706882Y-15250093D01*
X12706882Y-15250093D02*
X12697358Y-15231046D01*
X12697358Y-15231046D02*
X12697358Y-15221522D01*
X12697358Y-15221522D02*
X12706882Y-15202474D01*
X12706882Y-15202474D02*
X12725930Y-15192950D01*
X12725930Y-15192950D02*
X12754501Y-15192950D01*
X12754501Y-15192950D02*
X12773549Y-15202474D01*
X12849739Y-15402474D02*
X12859263Y-15392950D01*
X12859263Y-15392950D02*
X12878311Y-15364379D01*
X12878311Y-15364379D02*
X12887834Y-15345331D01*
X12887834Y-15345331D02*
X12897358Y-15316760D01*
X12897358Y-15316760D02*
X12906882Y-15269141D01*
X12906882Y-15269141D02*
X12906882Y-15231046D01*
X12906882Y-15231046D02*
X12897358Y-15183427D01*
X12897358Y-15183427D02*
X12887834Y-15154855D01*
X12887834Y-15154855D02*
X12878311Y-15135808D01*
X12878311Y-15135808D02*
X12859263Y-15107236D01*
X12859263Y-15107236D02*
X12849739Y-15097712D01*
D12*
X7884200Y-15498800D02*
G75*
G02*
X7814200Y-15498800I-35000J0D01*
G01*
X7814200Y-15498800D02*
G75*
G02*
X7884200Y-15498800I35000J0D01*
G01*
D11*
X8183072Y-15390284D02*
X8202120Y-15390284D01*
X8202120Y-15390284D02*
X8221167Y-15399808D01*
X8221167Y-15399808D02*
X8230691Y-15409331D01*
X8230691Y-15409331D02*
X8240215Y-15428379D01*
X8240215Y-15428379D02*
X8249739Y-15466474D01*
X8249739Y-15466474D02*
X8249739Y-15514093D01*
X8249739Y-15514093D02*
X8240215Y-15552188D01*
X8240215Y-15552188D02*
X8230691Y-15571236D01*
X8230691Y-15571236D02*
X8221167Y-15580760D01*
X8221167Y-15580760D02*
X8202120Y-15590284D01*
X8202120Y-15590284D02*
X8183072Y-15590284D01*
X8183072Y-15590284D02*
X8164024Y-15580760D01*
X8164024Y-15580760D02*
X8154501Y-15571236D01*
X8154501Y-15571236D02*
X8144977Y-15552188D01*
X8144977Y-15552188D02*
X8135453Y-15514093D01*
X8135453Y-15514093D02*
X8135453Y-15466474D01*
X8135453Y-15466474D02*
X8144977Y-15428379D01*
X8144977Y-15428379D02*
X8154501Y-15409331D01*
X8154501Y-15409331D02*
X8164024Y-15399808D01*
X8164024Y-15399808D02*
X8183072Y-15390284D01*
X8335453Y-15571236D02*
X8344977Y-15580760D01*
X8344977Y-15580760D02*
X8335453Y-15590284D01*
X8335453Y-15590284D02*
X8325929Y-15580760D01*
X8325929Y-15580760D02*
X8335453Y-15571236D01*
X8335453Y-15571236D02*
X8335453Y-15590284D01*
X8411644Y-15390284D02*
X8544977Y-15390284D01*
X8544977Y-15390284D02*
X8459263Y-15590284D01*
X8659263Y-15390284D02*
X8678310Y-15390284D01*
X8678310Y-15390284D02*
X8697358Y-15399808D01*
X8697358Y-15399808D02*
X8706882Y-15409331D01*
X8706882Y-15409331D02*
X8716405Y-15428379D01*
X8716405Y-15428379D02*
X8725929Y-15466474D01*
X8725929Y-15466474D02*
X8725929Y-15514093D01*
X8725929Y-15514093D02*
X8716405Y-15552188D01*
X8716405Y-15552188D02*
X8706882Y-15571236D01*
X8706882Y-15571236D02*
X8697358Y-15580760D01*
X8697358Y-15580760D02*
X8678310Y-15590284D01*
X8678310Y-15590284D02*
X8659263Y-15590284D01*
X8659263Y-15590284D02*
X8640215Y-15580760D01*
X8640215Y-15580760D02*
X8630691Y-15571236D01*
X8630691Y-15571236D02*
X8621167Y-15552188D01*
X8621167Y-15552188D02*
X8611644Y-15514093D01*
X8611644Y-15514093D02*
X8611644Y-15466474D01*
X8611644Y-15466474D02*
X8621167Y-15428379D01*
X8621167Y-15428379D02*
X8630691Y-15409331D01*
X8630691Y-15409331D02*
X8640215Y-15399808D01*
X8640215Y-15399808D02*
X8659263Y-15390284D01*
X8849739Y-15390284D02*
X8868786Y-15390284D01*
X8868786Y-15390284D02*
X8887834Y-15399808D01*
X8887834Y-15399808D02*
X8897358Y-15409331D01*
X8897358Y-15409331D02*
X8906882Y-15428379D01*
X8906882Y-15428379D02*
X8916405Y-15466474D01*
X8916405Y-15466474D02*
X8916405Y-15514093D01*
X8916405Y-15514093D02*
X8906882Y-15552188D01*
X8906882Y-15552188D02*
X8897358Y-15571236D01*
X8897358Y-15571236D02*
X8887834Y-15580760D01*
X8887834Y-15580760D02*
X8868786Y-15590284D01*
X8868786Y-15590284D02*
X8849739Y-15590284D01*
X8849739Y-15590284D02*
X8830691Y-15580760D01*
X8830691Y-15580760D02*
X8821167Y-15571236D01*
X8821167Y-15571236D02*
X8811644Y-15552188D01*
X8811644Y-15552188D02*
X8802120Y-15514093D01*
X8802120Y-15514093D02*
X8802120Y-15466474D01*
X8802120Y-15466474D02*
X8811644Y-15428379D01*
X8811644Y-15428379D02*
X8821167Y-15409331D01*
X8821167Y-15409331D02*
X8830691Y-15399808D01*
X8830691Y-15399808D02*
X8849739Y-15390284D01*
X9002120Y-15590284D02*
X9002120Y-15456950D01*
X9002120Y-15475998D02*
X9011644Y-15466474D01*
X9011644Y-15466474D02*
X9030691Y-15456950D01*
X9030691Y-15456950D02*
X9059263Y-15456950D01*
X9059263Y-15456950D02*
X9078310Y-15466474D01*
X9078310Y-15466474D02*
X9087834Y-15485522D01*
X9087834Y-15485522D02*
X9087834Y-15590284D01*
X9087834Y-15485522D02*
X9097358Y-15466474D01*
X9097358Y-15466474D02*
X9116405Y-15456950D01*
X9116405Y-15456950D02*
X9144977Y-15456950D01*
X9144977Y-15456950D02*
X9164025Y-15466474D01*
X9164025Y-15466474D02*
X9173548Y-15485522D01*
X9173548Y-15485522D02*
X9173548Y-15590284D01*
X9268786Y-15590284D02*
X9268786Y-15456950D01*
X9268786Y-15475998D02*
X9278310Y-15466474D01*
X9278310Y-15466474D02*
X9297358Y-15456950D01*
X9297358Y-15456950D02*
X9325929Y-15456950D01*
X9325929Y-15456950D02*
X9344977Y-15466474D01*
X9344977Y-15466474D02*
X9354501Y-15485522D01*
X9354501Y-15485522D02*
X9354501Y-15590284D01*
X9354501Y-15485522D02*
X9364025Y-15466474D01*
X9364025Y-15466474D02*
X9383072Y-15456950D01*
X9383072Y-15456950D02*
X9411644Y-15456950D01*
X9411644Y-15456950D02*
X9430691Y-15466474D01*
X9430691Y-15466474D02*
X9440215Y-15485522D01*
X9440215Y-15485522D02*
X9440215Y-15590284D01*
X9830691Y-15380760D02*
X9659263Y-15637903D01*
X10087834Y-15390284D02*
X10106882Y-15390284D01*
X10106882Y-15390284D02*
X10125929Y-15399808D01*
X10125929Y-15399808D02*
X10135453Y-15409331D01*
X10135453Y-15409331D02*
X10144977Y-15428379D01*
X10144977Y-15428379D02*
X10154501Y-15466474D01*
X10154501Y-15466474D02*
X10154501Y-15514093D01*
X10154501Y-15514093D02*
X10144977Y-15552188D01*
X10144977Y-15552188D02*
X10135453Y-15571236D01*
X10135453Y-15571236D02*
X10125929Y-15580760D01*
X10125929Y-15580760D02*
X10106882Y-15590284D01*
X10106882Y-15590284D02*
X10087834Y-15590284D01*
X10087834Y-15590284D02*
X10068787Y-15580760D01*
X10068787Y-15580760D02*
X10059263Y-15571236D01*
X10059263Y-15571236D02*
X10049739Y-15552188D01*
X10049739Y-15552188D02*
X10040215Y-15514093D01*
X10040215Y-15514093D02*
X10040215Y-15466474D01*
X10040215Y-15466474D02*
X10049739Y-15428379D01*
X10049739Y-15428379D02*
X10059263Y-15409331D01*
X10059263Y-15409331D02*
X10068787Y-15399808D01*
X10068787Y-15399808D02*
X10087834Y-15390284D01*
X10240215Y-15571236D02*
X10249739Y-15580760D01*
X10249739Y-15580760D02*
X10240215Y-15590284D01*
X10240215Y-15590284D02*
X10230691Y-15580760D01*
X10230691Y-15580760D02*
X10240215Y-15571236D01*
X10240215Y-15571236D02*
X10240215Y-15590284D01*
X10373548Y-15390284D02*
X10392596Y-15390284D01*
X10392596Y-15390284D02*
X10411644Y-15399808D01*
X10411644Y-15399808D02*
X10421168Y-15409331D01*
X10421168Y-15409331D02*
X10430691Y-15428379D01*
X10430691Y-15428379D02*
X10440215Y-15466474D01*
X10440215Y-15466474D02*
X10440215Y-15514093D01*
X10440215Y-15514093D02*
X10430691Y-15552188D01*
X10430691Y-15552188D02*
X10421168Y-15571236D01*
X10421168Y-15571236D02*
X10411644Y-15580760D01*
X10411644Y-15580760D02*
X10392596Y-15590284D01*
X10392596Y-15590284D02*
X10373548Y-15590284D01*
X10373548Y-15590284D02*
X10354501Y-15580760D01*
X10354501Y-15580760D02*
X10344977Y-15571236D01*
X10344977Y-15571236D02*
X10335453Y-15552188D01*
X10335453Y-15552188D02*
X10325929Y-15514093D01*
X10325929Y-15514093D02*
X10325929Y-15466474D01*
X10325929Y-15466474D02*
X10335453Y-15428379D01*
X10335453Y-15428379D02*
X10344977Y-15409331D01*
X10344977Y-15409331D02*
X10354501Y-15399808D01*
X10354501Y-15399808D02*
X10373548Y-15390284D01*
X10516406Y-15409331D02*
X10525929Y-15399808D01*
X10525929Y-15399808D02*
X10544977Y-15390284D01*
X10544977Y-15390284D02*
X10592596Y-15390284D01*
X10592596Y-15390284D02*
X10611644Y-15399808D01*
X10611644Y-15399808D02*
X10621168Y-15409331D01*
X10621168Y-15409331D02*
X10630691Y-15428379D01*
X10630691Y-15428379D02*
X10630691Y-15447427D01*
X10630691Y-15447427D02*
X10621168Y-15475998D01*
X10621168Y-15475998D02*
X10506882Y-15590284D01*
X10506882Y-15590284D02*
X10630691Y-15590284D01*
X10697358Y-15390284D02*
X10830691Y-15390284D01*
X10830691Y-15390284D02*
X10744977Y-15590284D01*
X10992596Y-15390284D02*
X10954501Y-15390284D01*
X10954501Y-15390284D02*
X10935453Y-15399808D01*
X10935453Y-15399808D02*
X10925929Y-15409331D01*
X10925929Y-15409331D02*
X10906882Y-15437903D01*
X10906882Y-15437903D02*
X10897358Y-15475998D01*
X10897358Y-15475998D02*
X10897358Y-15552188D01*
X10897358Y-15552188D02*
X10906882Y-15571236D01*
X10906882Y-15571236D02*
X10916406Y-15580760D01*
X10916406Y-15580760D02*
X10935453Y-15590284D01*
X10935453Y-15590284D02*
X10973549Y-15590284D01*
X10973549Y-15590284D02*
X10992596Y-15580760D01*
X10992596Y-15580760D02*
X11002120Y-15571236D01*
X11002120Y-15571236D02*
X11011644Y-15552188D01*
X11011644Y-15552188D02*
X11011644Y-15504569D01*
X11011644Y-15504569D02*
X11002120Y-15485522D01*
X11002120Y-15485522D02*
X10992596Y-15475998D01*
X10992596Y-15475998D02*
X10973549Y-15466474D01*
X10973549Y-15466474D02*
X10935453Y-15466474D01*
X10935453Y-15466474D02*
X10916406Y-15475998D01*
X10916406Y-15475998D02*
X10906882Y-15485522D01*
X10906882Y-15485522D02*
X10897358Y-15504569D01*
X11087834Y-15390284D02*
X11087834Y-15428379D01*
X11164025Y-15390284D02*
X11164025Y-15428379D01*
X11459263Y-15666474D02*
X11449739Y-15656950D01*
X11449739Y-15656950D02*
X11430691Y-15628379D01*
X11430691Y-15628379D02*
X11421168Y-15609331D01*
X11421168Y-15609331D02*
X11411644Y-15580760D01*
X11411644Y-15580760D02*
X11402120Y-15533141D01*
X11402120Y-15533141D02*
X11402120Y-15495046D01*
X11402120Y-15495046D02*
X11411644Y-15447427D01*
X11411644Y-15447427D02*
X11421168Y-15418855D01*
X11421168Y-15418855D02*
X11430691Y-15399808D01*
X11430691Y-15399808D02*
X11449739Y-15371236D01*
X11449739Y-15371236D02*
X11459263Y-15361712D01*
X11525929Y-15409331D02*
X11535453Y-15399808D01*
X11535453Y-15399808D02*
X11554501Y-15390284D01*
X11554501Y-15390284D02*
X11602120Y-15390284D01*
X11602120Y-15390284D02*
X11621168Y-15399808D01*
X11621168Y-15399808D02*
X11630691Y-15409331D01*
X11630691Y-15409331D02*
X11640215Y-15428379D01*
X11640215Y-15428379D02*
X11640215Y-15447427D01*
X11640215Y-15447427D02*
X11630691Y-15475998D01*
X11630691Y-15475998D02*
X11516406Y-15590284D01*
X11516406Y-15590284D02*
X11640215Y-15590284D01*
X11764025Y-15390284D02*
X11783072Y-15390284D01*
X11783072Y-15390284D02*
X11802120Y-15399808D01*
X11802120Y-15399808D02*
X11811644Y-15409331D01*
X11811644Y-15409331D02*
X11821168Y-15428379D01*
X11821168Y-15428379D02*
X11830691Y-15466474D01*
X11830691Y-15466474D02*
X11830691Y-15514093D01*
X11830691Y-15514093D02*
X11821168Y-15552188D01*
X11821168Y-15552188D02*
X11811644Y-15571236D01*
X11811644Y-15571236D02*
X11802120Y-15580760D01*
X11802120Y-15580760D02*
X11783072Y-15590284D01*
X11783072Y-15590284D02*
X11764025Y-15590284D01*
X11764025Y-15590284D02*
X11744977Y-15580760D01*
X11744977Y-15580760D02*
X11735453Y-15571236D01*
X11735453Y-15571236D02*
X11725929Y-15552188D01*
X11725929Y-15552188D02*
X11716406Y-15514093D01*
X11716406Y-15514093D02*
X11716406Y-15466474D01*
X11716406Y-15466474D02*
X11725929Y-15428379D01*
X11725929Y-15428379D02*
X11735453Y-15409331D01*
X11735453Y-15409331D02*
X11744977Y-15399808D01*
X11744977Y-15399808D02*
X11764025Y-15390284D01*
X12068787Y-15590284D02*
X12068787Y-15390284D01*
X12154501Y-15590284D02*
X12154501Y-15485522D01*
X12154501Y-15485522D02*
X12144977Y-15466474D01*
X12144977Y-15466474D02*
X12125930Y-15456950D01*
X12125930Y-15456950D02*
X12097358Y-15456950D01*
X12097358Y-15456950D02*
X12078310Y-15466474D01*
X12078310Y-15466474D02*
X12068787Y-15475998D01*
X12278310Y-15590284D02*
X12259263Y-15580760D01*
X12259263Y-15580760D02*
X12249739Y-15571236D01*
X12249739Y-15571236D02*
X12240215Y-15552188D01*
X12240215Y-15552188D02*
X12240215Y-15495046D01*
X12240215Y-15495046D02*
X12249739Y-15475998D01*
X12249739Y-15475998D02*
X12259263Y-15466474D01*
X12259263Y-15466474D02*
X12278310Y-15456950D01*
X12278310Y-15456950D02*
X12306882Y-15456950D01*
X12306882Y-15456950D02*
X12325930Y-15466474D01*
X12325930Y-15466474D02*
X12335453Y-15475998D01*
X12335453Y-15475998D02*
X12344977Y-15495046D01*
X12344977Y-15495046D02*
X12344977Y-15552188D01*
X12344977Y-15552188D02*
X12335453Y-15571236D01*
X12335453Y-15571236D02*
X12325930Y-15580760D01*
X12325930Y-15580760D02*
X12306882Y-15590284D01*
X12306882Y-15590284D02*
X12278310Y-15590284D01*
X12459263Y-15590284D02*
X12440215Y-15580760D01*
X12440215Y-15580760D02*
X12430691Y-15561712D01*
X12430691Y-15561712D02*
X12430691Y-15390284D01*
X12611644Y-15580760D02*
X12592596Y-15590284D01*
X12592596Y-15590284D02*
X12554501Y-15590284D01*
X12554501Y-15590284D02*
X12535453Y-15580760D01*
X12535453Y-15580760D02*
X12525930Y-15561712D01*
X12525930Y-15561712D02*
X12525930Y-15485522D01*
X12525930Y-15485522D02*
X12535453Y-15466474D01*
X12535453Y-15466474D02*
X12554501Y-15456950D01*
X12554501Y-15456950D02*
X12592596Y-15456950D01*
X12592596Y-15456950D02*
X12611644Y-15466474D01*
X12611644Y-15466474D02*
X12621168Y-15485522D01*
X12621168Y-15485522D02*
X12621168Y-15504569D01*
X12621168Y-15504569D02*
X12525930Y-15523617D01*
X12697358Y-15580760D02*
X12716406Y-15590284D01*
X12716406Y-15590284D02*
X12754501Y-15590284D01*
X12754501Y-15590284D02*
X12773549Y-15580760D01*
X12773549Y-15580760D02*
X12783072Y-15561712D01*
X12783072Y-15561712D02*
X12783072Y-15552188D01*
X12783072Y-15552188D02*
X12773549Y-15533141D01*
X12773549Y-15533141D02*
X12754501Y-15523617D01*
X12754501Y-15523617D02*
X12725930Y-15523617D01*
X12725930Y-15523617D02*
X12706882Y-15514093D01*
X12706882Y-15514093D02*
X12697358Y-15495046D01*
X12697358Y-15495046D02*
X12697358Y-15485522D01*
X12697358Y-15485522D02*
X12706882Y-15466474D01*
X12706882Y-15466474D02*
X12725930Y-15456950D01*
X12725930Y-15456950D02*
X12754501Y-15456950D01*
X12754501Y-15456950D02*
X12773549Y-15466474D01*
X12849739Y-15666474D02*
X12859263Y-15656950D01*
X12859263Y-15656950D02*
X12878311Y-15628379D01*
X12878311Y-15628379D02*
X12887834Y-15609331D01*
X12887834Y-15609331D02*
X12897358Y-15580760D01*
X12897358Y-15580760D02*
X12906882Y-15533141D01*
X12906882Y-15533141D02*
X12906882Y-15495046D01*
X12906882Y-15495046D02*
X12897358Y-15447427D01*
X12897358Y-15447427D02*
X12887834Y-15418855D01*
X12887834Y-15418855D02*
X12878311Y-15399808D01*
X12878311Y-15399808D02*
X12859263Y-15371236D01*
X12859263Y-15371236D02*
X12849739Y-15361712D01*
D12*
X7834200Y-15712800D02*
X7834200Y-15812800D01*
X7784200Y-15762800D02*
X7884200Y-15762800D01*
D11*
X8249739Y-15854284D02*
X8135453Y-15854284D01*
X8192596Y-15854284D02*
X8192596Y-15654284D01*
X8192596Y-15654284D02*
X8173548Y-15682855D01*
X8173548Y-15682855D02*
X8154501Y-15701903D01*
X8154501Y-15701903D02*
X8135453Y-15711427D01*
X8335453Y-15835236D02*
X8344977Y-15844760D01*
X8344977Y-15844760D02*
X8335453Y-15854284D01*
X8335453Y-15854284D02*
X8325929Y-15844760D01*
X8325929Y-15844760D02*
X8335453Y-15835236D01*
X8335453Y-15835236D02*
X8335453Y-15854284D01*
X8468786Y-15654284D02*
X8487834Y-15654284D01*
X8487834Y-15654284D02*
X8506882Y-15663808D01*
X8506882Y-15663808D02*
X8516405Y-15673331D01*
X8516405Y-15673331D02*
X8525929Y-15692379D01*
X8525929Y-15692379D02*
X8535453Y-15730474D01*
X8535453Y-15730474D02*
X8535453Y-15778093D01*
X8535453Y-15778093D02*
X8525929Y-15816188D01*
X8525929Y-15816188D02*
X8516405Y-15835236D01*
X8516405Y-15835236D02*
X8506882Y-15844760D01*
X8506882Y-15844760D02*
X8487834Y-15854284D01*
X8487834Y-15854284D02*
X8468786Y-15854284D01*
X8468786Y-15854284D02*
X8449739Y-15844760D01*
X8449739Y-15844760D02*
X8440215Y-15835236D01*
X8440215Y-15835236D02*
X8430691Y-15816188D01*
X8430691Y-15816188D02*
X8421167Y-15778093D01*
X8421167Y-15778093D02*
X8421167Y-15730474D01*
X8421167Y-15730474D02*
X8430691Y-15692379D01*
X8430691Y-15692379D02*
X8440215Y-15673331D01*
X8440215Y-15673331D02*
X8449739Y-15663808D01*
X8449739Y-15663808D02*
X8468786Y-15654284D01*
X8659263Y-15654284D02*
X8678310Y-15654284D01*
X8678310Y-15654284D02*
X8697358Y-15663808D01*
X8697358Y-15663808D02*
X8706882Y-15673331D01*
X8706882Y-15673331D02*
X8716405Y-15692379D01*
X8716405Y-15692379D02*
X8725929Y-15730474D01*
X8725929Y-15730474D02*
X8725929Y-15778093D01*
X8725929Y-15778093D02*
X8716405Y-15816188D01*
X8716405Y-15816188D02*
X8706882Y-15835236D01*
X8706882Y-15835236D02*
X8697358Y-15844760D01*
X8697358Y-15844760D02*
X8678310Y-15854284D01*
X8678310Y-15854284D02*
X8659263Y-15854284D01*
X8659263Y-15854284D02*
X8640215Y-15844760D01*
X8640215Y-15844760D02*
X8630691Y-15835236D01*
X8630691Y-15835236D02*
X8621167Y-15816188D01*
X8621167Y-15816188D02*
X8611644Y-15778093D01*
X8611644Y-15778093D02*
X8611644Y-15730474D01*
X8611644Y-15730474D02*
X8621167Y-15692379D01*
X8621167Y-15692379D02*
X8630691Y-15673331D01*
X8630691Y-15673331D02*
X8640215Y-15663808D01*
X8640215Y-15663808D02*
X8659263Y-15654284D01*
X8849739Y-15654284D02*
X8868786Y-15654284D01*
X8868786Y-15654284D02*
X8887834Y-15663808D01*
X8887834Y-15663808D02*
X8897358Y-15673331D01*
X8897358Y-15673331D02*
X8906882Y-15692379D01*
X8906882Y-15692379D02*
X8916405Y-15730474D01*
X8916405Y-15730474D02*
X8916405Y-15778093D01*
X8916405Y-15778093D02*
X8906882Y-15816188D01*
X8906882Y-15816188D02*
X8897358Y-15835236D01*
X8897358Y-15835236D02*
X8887834Y-15844760D01*
X8887834Y-15844760D02*
X8868786Y-15854284D01*
X8868786Y-15854284D02*
X8849739Y-15854284D01*
X8849739Y-15854284D02*
X8830691Y-15844760D01*
X8830691Y-15844760D02*
X8821167Y-15835236D01*
X8821167Y-15835236D02*
X8811644Y-15816188D01*
X8811644Y-15816188D02*
X8802120Y-15778093D01*
X8802120Y-15778093D02*
X8802120Y-15730474D01*
X8802120Y-15730474D02*
X8811644Y-15692379D01*
X8811644Y-15692379D02*
X8821167Y-15673331D01*
X8821167Y-15673331D02*
X8830691Y-15663808D01*
X8830691Y-15663808D02*
X8849739Y-15654284D01*
X9002120Y-15854284D02*
X9002120Y-15720950D01*
X9002120Y-15739998D02*
X9011644Y-15730474D01*
X9011644Y-15730474D02*
X9030691Y-15720950D01*
X9030691Y-15720950D02*
X9059263Y-15720950D01*
X9059263Y-15720950D02*
X9078310Y-15730474D01*
X9078310Y-15730474D02*
X9087834Y-15749522D01*
X9087834Y-15749522D02*
X9087834Y-15854284D01*
X9087834Y-15749522D02*
X9097358Y-15730474D01*
X9097358Y-15730474D02*
X9116405Y-15720950D01*
X9116405Y-15720950D02*
X9144977Y-15720950D01*
X9144977Y-15720950D02*
X9164025Y-15730474D01*
X9164025Y-15730474D02*
X9173548Y-15749522D01*
X9173548Y-15749522D02*
X9173548Y-15854284D01*
X9268786Y-15854284D02*
X9268786Y-15720950D01*
X9268786Y-15739998D02*
X9278310Y-15730474D01*
X9278310Y-15730474D02*
X9297358Y-15720950D01*
X9297358Y-15720950D02*
X9325929Y-15720950D01*
X9325929Y-15720950D02*
X9344977Y-15730474D01*
X9344977Y-15730474D02*
X9354501Y-15749522D01*
X9354501Y-15749522D02*
X9354501Y-15854284D01*
X9354501Y-15749522D02*
X9364025Y-15730474D01*
X9364025Y-15730474D02*
X9383072Y-15720950D01*
X9383072Y-15720950D02*
X9411644Y-15720950D01*
X9411644Y-15720950D02*
X9430691Y-15730474D01*
X9430691Y-15730474D02*
X9440215Y-15749522D01*
X9440215Y-15749522D02*
X9440215Y-15854284D01*
X9830691Y-15644760D02*
X9659263Y-15901903D01*
X10087834Y-15654284D02*
X10106882Y-15654284D01*
X10106882Y-15654284D02*
X10125929Y-15663808D01*
X10125929Y-15663808D02*
X10135453Y-15673331D01*
X10135453Y-15673331D02*
X10144977Y-15692379D01*
X10144977Y-15692379D02*
X10154501Y-15730474D01*
X10154501Y-15730474D02*
X10154501Y-15778093D01*
X10154501Y-15778093D02*
X10144977Y-15816188D01*
X10144977Y-15816188D02*
X10135453Y-15835236D01*
X10135453Y-15835236D02*
X10125929Y-15844760D01*
X10125929Y-15844760D02*
X10106882Y-15854284D01*
X10106882Y-15854284D02*
X10087834Y-15854284D01*
X10087834Y-15854284D02*
X10068787Y-15844760D01*
X10068787Y-15844760D02*
X10059263Y-15835236D01*
X10059263Y-15835236D02*
X10049739Y-15816188D01*
X10049739Y-15816188D02*
X10040215Y-15778093D01*
X10040215Y-15778093D02*
X10040215Y-15730474D01*
X10040215Y-15730474D02*
X10049739Y-15692379D01*
X10049739Y-15692379D02*
X10059263Y-15673331D01*
X10059263Y-15673331D02*
X10068787Y-15663808D01*
X10068787Y-15663808D02*
X10087834Y-15654284D01*
X10240215Y-15835236D02*
X10249739Y-15844760D01*
X10249739Y-15844760D02*
X10240215Y-15854284D01*
X10240215Y-15854284D02*
X10230691Y-15844760D01*
X10230691Y-15844760D02*
X10240215Y-15835236D01*
X10240215Y-15835236D02*
X10240215Y-15854284D01*
X10373548Y-15654284D02*
X10392596Y-15654284D01*
X10392596Y-15654284D02*
X10411644Y-15663808D01*
X10411644Y-15663808D02*
X10421168Y-15673331D01*
X10421168Y-15673331D02*
X10430691Y-15692379D01*
X10430691Y-15692379D02*
X10440215Y-15730474D01*
X10440215Y-15730474D02*
X10440215Y-15778093D01*
X10440215Y-15778093D02*
X10430691Y-15816188D01*
X10430691Y-15816188D02*
X10421168Y-15835236D01*
X10421168Y-15835236D02*
X10411644Y-15844760D01*
X10411644Y-15844760D02*
X10392596Y-15854284D01*
X10392596Y-15854284D02*
X10373548Y-15854284D01*
X10373548Y-15854284D02*
X10354501Y-15844760D01*
X10354501Y-15844760D02*
X10344977Y-15835236D01*
X10344977Y-15835236D02*
X10335453Y-15816188D01*
X10335453Y-15816188D02*
X10325929Y-15778093D01*
X10325929Y-15778093D02*
X10325929Y-15730474D01*
X10325929Y-15730474D02*
X10335453Y-15692379D01*
X10335453Y-15692379D02*
X10344977Y-15673331D01*
X10344977Y-15673331D02*
X10354501Y-15663808D01*
X10354501Y-15663808D02*
X10373548Y-15654284D01*
X10506882Y-15654284D02*
X10630691Y-15654284D01*
X10630691Y-15654284D02*
X10564025Y-15730474D01*
X10564025Y-15730474D02*
X10592596Y-15730474D01*
X10592596Y-15730474D02*
X10611644Y-15739998D01*
X10611644Y-15739998D02*
X10621168Y-15749522D01*
X10621168Y-15749522D02*
X10630691Y-15768569D01*
X10630691Y-15768569D02*
X10630691Y-15816188D01*
X10630691Y-15816188D02*
X10621168Y-15835236D01*
X10621168Y-15835236D02*
X10611644Y-15844760D01*
X10611644Y-15844760D02*
X10592596Y-15854284D01*
X10592596Y-15854284D02*
X10535453Y-15854284D01*
X10535453Y-15854284D02*
X10516406Y-15844760D01*
X10516406Y-15844760D02*
X10506882Y-15835236D01*
X10725929Y-15854284D02*
X10764025Y-15854284D01*
X10764025Y-15854284D02*
X10783072Y-15844760D01*
X10783072Y-15844760D02*
X10792596Y-15835236D01*
X10792596Y-15835236D02*
X10811644Y-15806665D01*
X10811644Y-15806665D02*
X10821168Y-15768569D01*
X10821168Y-15768569D02*
X10821168Y-15692379D01*
X10821168Y-15692379D02*
X10811644Y-15673331D01*
X10811644Y-15673331D02*
X10802120Y-15663808D01*
X10802120Y-15663808D02*
X10783072Y-15654284D01*
X10783072Y-15654284D02*
X10744977Y-15654284D01*
X10744977Y-15654284D02*
X10725929Y-15663808D01*
X10725929Y-15663808D02*
X10716406Y-15673331D01*
X10716406Y-15673331D02*
X10706882Y-15692379D01*
X10706882Y-15692379D02*
X10706882Y-15739998D01*
X10706882Y-15739998D02*
X10716406Y-15759046D01*
X10716406Y-15759046D02*
X10725929Y-15768569D01*
X10725929Y-15768569D02*
X10744977Y-15778093D01*
X10744977Y-15778093D02*
X10783072Y-15778093D01*
X10783072Y-15778093D02*
X10802120Y-15768569D01*
X10802120Y-15768569D02*
X10811644Y-15759046D01*
X10811644Y-15759046D02*
X10821168Y-15739998D01*
X10992596Y-15720950D02*
X10992596Y-15854284D01*
X10944977Y-15644760D02*
X10897358Y-15787617D01*
X10897358Y-15787617D02*
X11021168Y-15787617D01*
X11087834Y-15654284D02*
X11087834Y-15692379D01*
X11164025Y-15654284D02*
X11164025Y-15692379D01*
X11459263Y-15930474D02*
X11449739Y-15920950D01*
X11449739Y-15920950D02*
X11430691Y-15892379D01*
X11430691Y-15892379D02*
X11421168Y-15873331D01*
X11421168Y-15873331D02*
X11411644Y-15844760D01*
X11411644Y-15844760D02*
X11402120Y-15797141D01*
X11402120Y-15797141D02*
X11402120Y-15759046D01*
X11402120Y-15759046D02*
X11411644Y-15711427D01*
X11411644Y-15711427D02*
X11421168Y-15682855D01*
X11421168Y-15682855D02*
X11430691Y-15663808D01*
X11430691Y-15663808D02*
X11449739Y-15635236D01*
X11449739Y-15635236D02*
X11459263Y-15625712D01*
X11621168Y-15720950D02*
X11621168Y-15854284D01*
X11573548Y-15644760D02*
X11525929Y-15787617D01*
X11525929Y-15787617D02*
X11649739Y-15787617D01*
X11706882Y-15654284D02*
X11830691Y-15654284D01*
X11830691Y-15654284D02*
X11764025Y-15730474D01*
X11764025Y-15730474D02*
X11792596Y-15730474D01*
X11792596Y-15730474D02*
X11811644Y-15739998D01*
X11811644Y-15739998D02*
X11821168Y-15749522D01*
X11821168Y-15749522D02*
X11830691Y-15768569D01*
X11830691Y-15768569D02*
X11830691Y-15816188D01*
X11830691Y-15816188D02*
X11821168Y-15835236D01*
X11821168Y-15835236D02*
X11811644Y-15844760D01*
X11811644Y-15844760D02*
X11792596Y-15854284D01*
X11792596Y-15854284D02*
X11735453Y-15854284D01*
X11735453Y-15854284D02*
X11716406Y-15844760D01*
X11716406Y-15844760D02*
X11706882Y-15835236D01*
X11897358Y-15654284D02*
X12030691Y-15654284D01*
X12030691Y-15654284D02*
X11944977Y-15854284D01*
X12259263Y-15854284D02*
X12259263Y-15654284D01*
X12344977Y-15854284D02*
X12344977Y-15749522D01*
X12344977Y-15749522D02*
X12335453Y-15730474D01*
X12335453Y-15730474D02*
X12316406Y-15720950D01*
X12316406Y-15720950D02*
X12287834Y-15720950D01*
X12287834Y-15720950D02*
X12268787Y-15730474D01*
X12268787Y-15730474D02*
X12259263Y-15739998D01*
X12468787Y-15854284D02*
X12449739Y-15844760D01*
X12449739Y-15844760D02*
X12440215Y-15835236D01*
X12440215Y-15835236D02*
X12430691Y-15816188D01*
X12430691Y-15816188D02*
X12430691Y-15759046D01*
X12430691Y-15759046D02*
X12440215Y-15739998D01*
X12440215Y-15739998D02*
X12449739Y-15730474D01*
X12449739Y-15730474D02*
X12468787Y-15720950D01*
X12468787Y-15720950D02*
X12497358Y-15720950D01*
X12497358Y-15720950D02*
X12516406Y-15730474D01*
X12516406Y-15730474D02*
X12525930Y-15739998D01*
X12525930Y-15739998D02*
X12535453Y-15759046D01*
X12535453Y-15759046D02*
X12535453Y-15816188D01*
X12535453Y-15816188D02*
X12525930Y-15835236D01*
X12525930Y-15835236D02*
X12516406Y-15844760D01*
X12516406Y-15844760D02*
X12497358Y-15854284D01*
X12497358Y-15854284D02*
X12468787Y-15854284D01*
X12649739Y-15854284D02*
X12630691Y-15844760D01*
X12630691Y-15844760D02*
X12621168Y-15825712D01*
X12621168Y-15825712D02*
X12621168Y-15654284D01*
X12802120Y-15844760D02*
X12783072Y-15854284D01*
X12783072Y-15854284D02*
X12744977Y-15854284D01*
X12744977Y-15854284D02*
X12725930Y-15844760D01*
X12725930Y-15844760D02*
X12716406Y-15825712D01*
X12716406Y-15825712D02*
X12716406Y-15749522D01*
X12716406Y-15749522D02*
X12725930Y-15730474D01*
X12725930Y-15730474D02*
X12744977Y-15720950D01*
X12744977Y-15720950D02*
X12783072Y-15720950D01*
X12783072Y-15720950D02*
X12802120Y-15730474D01*
X12802120Y-15730474D02*
X12811644Y-15749522D01*
X12811644Y-15749522D02*
X12811644Y-15768569D01*
X12811644Y-15768569D02*
X12716406Y-15787617D01*
X12887834Y-15844760D02*
X12906882Y-15854284D01*
X12906882Y-15854284D02*
X12944977Y-15854284D01*
X12944977Y-15854284D02*
X12964025Y-15844760D01*
X12964025Y-15844760D02*
X12973549Y-15825712D01*
X12973549Y-15825712D02*
X12973549Y-15816188D01*
X12973549Y-15816188D02*
X12964025Y-15797141D01*
X12964025Y-15797141D02*
X12944977Y-15787617D01*
X12944977Y-15787617D02*
X12916406Y-15787617D01*
X12916406Y-15787617D02*
X12897358Y-15778093D01*
X12897358Y-15778093D02*
X12887834Y-15759046D01*
X12887834Y-15759046D02*
X12887834Y-15749522D01*
X12887834Y-15749522D02*
X12897358Y-15730474D01*
X12897358Y-15730474D02*
X12916406Y-15720950D01*
X12916406Y-15720950D02*
X12944977Y-15720950D01*
X12944977Y-15720950D02*
X12964025Y-15730474D01*
X13211644Y-15778093D02*
X13364025Y-15778093D01*
X13287834Y-15854284D02*
X13287834Y-15701903D01*
X13602120Y-15673331D02*
X13611644Y-15663808D01*
X13611644Y-15663808D02*
X13630692Y-15654284D01*
X13630692Y-15654284D02*
X13678311Y-15654284D01*
X13678311Y-15654284D02*
X13697358Y-15663808D01*
X13697358Y-15663808D02*
X13706882Y-15673331D01*
X13706882Y-15673331D02*
X13716406Y-15692379D01*
X13716406Y-15692379D02*
X13716406Y-15711427D01*
X13716406Y-15711427D02*
X13706882Y-15739998D01*
X13706882Y-15739998D02*
X13592596Y-15854284D01*
X13592596Y-15854284D02*
X13716406Y-15854284D01*
X13944977Y-15844760D02*
X13964025Y-15854284D01*
X13964025Y-15854284D02*
X14002120Y-15854284D01*
X14002120Y-15854284D02*
X14021168Y-15844760D01*
X14021168Y-15844760D02*
X14030692Y-15825712D01*
X14030692Y-15825712D02*
X14030692Y-15816188D01*
X14030692Y-15816188D02*
X14021168Y-15797141D01*
X14021168Y-15797141D02*
X14002120Y-15787617D01*
X14002120Y-15787617D02*
X13973549Y-15787617D01*
X13973549Y-15787617D02*
X13954501Y-15778093D01*
X13954501Y-15778093D02*
X13944977Y-15759046D01*
X13944977Y-15759046D02*
X13944977Y-15749522D01*
X13944977Y-15749522D02*
X13954501Y-15730474D01*
X13954501Y-15730474D02*
X13973549Y-15720950D01*
X13973549Y-15720950D02*
X14002120Y-15720950D01*
X14002120Y-15720950D02*
X14021168Y-15730474D01*
X14144977Y-15854284D02*
X14125930Y-15844760D01*
X14125930Y-15844760D02*
X14116406Y-15825712D01*
X14116406Y-15825712D02*
X14116406Y-15654284D01*
X14249739Y-15854284D02*
X14230692Y-15844760D01*
X14230692Y-15844760D02*
X14221168Y-15835236D01*
X14221168Y-15835236D02*
X14211644Y-15816188D01*
X14211644Y-15816188D02*
X14211644Y-15759046D01*
X14211644Y-15759046D02*
X14221168Y-15739998D01*
X14221168Y-15739998D02*
X14230692Y-15730474D01*
X14230692Y-15730474D02*
X14249739Y-15720950D01*
X14249739Y-15720950D02*
X14278311Y-15720950D01*
X14278311Y-15720950D02*
X14297358Y-15730474D01*
X14297358Y-15730474D02*
X14306882Y-15739998D01*
X14306882Y-15739998D02*
X14316406Y-15759046D01*
X14316406Y-15759046D02*
X14316406Y-15816188D01*
X14316406Y-15816188D02*
X14306882Y-15835236D01*
X14306882Y-15835236D02*
X14297358Y-15844760D01*
X14297358Y-15844760D02*
X14278311Y-15854284D01*
X14278311Y-15854284D02*
X14249739Y-15854284D01*
X14373549Y-15720950D02*
X14449739Y-15720950D01*
X14402120Y-15654284D02*
X14402120Y-15825712D01*
X14402120Y-15825712D02*
X14411644Y-15844760D01*
X14411644Y-15844760D02*
X14430692Y-15854284D01*
X14430692Y-15854284D02*
X14449739Y-15854284D01*
X14506882Y-15844760D02*
X14525930Y-15854284D01*
X14525930Y-15854284D02*
X14564025Y-15854284D01*
X14564025Y-15854284D02*
X14583073Y-15844760D01*
X14583073Y-15844760D02*
X14592596Y-15825712D01*
X14592596Y-15825712D02*
X14592596Y-15816188D01*
X14592596Y-15816188D02*
X14583073Y-15797141D01*
X14583073Y-15797141D02*
X14564025Y-15787617D01*
X14564025Y-15787617D02*
X14535454Y-15787617D01*
X14535454Y-15787617D02*
X14516406Y-15778093D01*
X14516406Y-15778093D02*
X14506882Y-15759046D01*
X14506882Y-15759046D02*
X14506882Y-15749522D01*
X14506882Y-15749522D02*
X14516406Y-15730474D01*
X14516406Y-15730474D02*
X14535454Y-15720950D01*
X14535454Y-15720950D02*
X14564025Y-15720950D01*
X14564025Y-15720950D02*
X14583073Y-15730474D01*
X14659263Y-15930474D02*
X14668787Y-15920950D01*
X14668787Y-15920950D02*
X14687835Y-15892379D01*
X14687835Y-15892379D02*
X14697358Y-15873331D01*
X14697358Y-15873331D02*
X14706882Y-15844760D01*
X14706882Y-15844760D02*
X14716406Y-15797141D01*
X14716406Y-15797141D02*
X14716406Y-15759046D01*
X14716406Y-15759046D02*
X14706882Y-15711427D01*
X14706882Y-15711427D02*
X14697358Y-15682855D01*
X14697358Y-15682855D02*
X14687835Y-15663808D01*
X14687835Y-15663808D02*
X14668787Y-15635236D01*
X14668787Y-15635236D02*
X14659263Y-15625712D01*
D13*
X7868091Y-16065691D02*
X7868091Y-15987909D01*
X7790309Y-15987909D01*
X7790309Y-16065691D01*
X7868091Y-16065691D01*
D11*
X8249739Y-16118284D02*
X8135453Y-16118284D01*
X8192596Y-16118284D02*
X8192596Y-15918284D01*
X8192596Y-15918284D02*
X8173548Y-15946855D01*
X8173548Y-15946855D02*
X8154501Y-15965903D01*
X8154501Y-15965903D02*
X8135453Y-15975427D01*
X8335453Y-16099236D02*
X8344977Y-16108760D01*
X8344977Y-16108760D02*
X8335453Y-16118284D01*
X8335453Y-16118284D02*
X8325929Y-16108760D01*
X8325929Y-16108760D02*
X8335453Y-16099236D01*
X8335453Y-16099236D02*
X8335453Y-16118284D01*
X8535453Y-16118284D02*
X8421167Y-16118284D01*
X8478310Y-16118284D02*
X8478310Y-15918284D01*
X8478310Y-15918284D02*
X8459263Y-15946855D01*
X8459263Y-15946855D02*
X8440215Y-15965903D01*
X8440215Y-15965903D02*
X8421167Y-15975427D01*
X8659263Y-15918284D02*
X8678310Y-15918284D01*
X8678310Y-15918284D02*
X8697358Y-15927808D01*
X8697358Y-15927808D02*
X8706882Y-15937331D01*
X8706882Y-15937331D02*
X8716405Y-15956379D01*
X8716405Y-15956379D02*
X8725929Y-15994474D01*
X8725929Y-15994474D02*
X8725929Y-16042093D01*
X8725929Y-16042093D02*
X8716405Y-16080188D01*
X8716405Y-16080188D02*
X8706882Y-16099236D01*
X8706882Y-16099236D02*
X8697358Y-16108760D01*
X8697358Y-16108760D02*
X8678310Y-16118284D01*
X8678310Y-16118284D02*
X8659263Y-16118284D01*
X8659263Y-16118284D02*
X8640215Y-16108760D01*
X8640215Y-16108760D02*
X8630691Y-16099236D01*
X8630691Y-16099236D02*
X8621167Y-16080188D01*
X8621167Y-16080188D02*
X8611644Y-16042093D01*
X8611644Y-16042093D02*
X8611644Y-15994474D01*
X8611644Y-15994474D02*
X8621167Y-15956379D01*
X8621167Y-15956379D02*
X8630691Y-15937331D01*
X8630691Y-15937331D02*
X8640215Y-15927808D01*
X8640215Y-15927808D02*
X8659263Y-15918284D01*
X8849739Y-15918284D02*
X8868786Y-15918284D01*
X8868786Y-15918284D02*
X8887834Y-15927808D01*
X8887834Y-15927808D02*
X8897358Y-15937331D01*
X8897358Y-15937331D02*
X8906882Y-15956379D01*
X8906882Y-15956379D02*
X8916405Y-15994474D01*
X8916405Y-15994474D02*
X8916405Y-16042093D01*
X8916405Y-16042093D02*
X8906882Y-16080188D01*
X8906882Y-16080188D02*
X8897358Y-16099236D01*
X8897358Y-16099236D02*
X8887834Y-16108760D01*
X8887834Y-16108760D02*
X8868786Y-16118284D01*
X8868786Y-16118284D02*
X8849739Y-16118284D01*
X8849739Y-16118284D02*
X8830691Y-16108760D01*
X8830691Y-16108760D02*
X8821167Y-16099236D01*
X8821167Y-16099236D02*
X8811644Y-16080188D01*
X8811644Y-16080188D02*
X8802120Y-16042093D01*
X8802120Y-16042093D02*
X8802120Y-15994474D01*
X8802120Y-15994474D02*
X8811644Y-15956379D01*
X8811644Y-15956379D02*
X8821167Y-15937331D01*
X8821167Y-15937331D02*
X8830691Y-15927808D01*
X8830691Y-15927808D02*
X8849739Y-15918284D01*
X9002120Y-16118284D02*
X9002120Y-15984950D01*
X9002120Y-16003998D02*
X9011644Y-15994474D01*
X9011644Y-15994474D02*
X9030691Y-15984950D01*
X9030691Y-15984950D02*
X9059263Y-15984950D01*
X9059263Y-15984950D02*
X9078310Y-15994474D01*
X9078310Y-15994474D02*
X9087834Y-16013522D01*
X9087834Y-16013522D02*
X9087834Y-16118284D01*
X9087834Y-16013522D02*
X9097358Y-15994474D01*
X9097358Y-15994474D02*
X9116405Y-15984950D01*
X9116405Y-15984950D02*
X9144977Y-15984950D01*
X9144977Y-15984950D02*
X9164025Y-15994474D01*
X9164025Y-15994474D02*
X9173548Y-16013522D01*
X9173548Y-16013522D02*
X9173548Y-16118284D01*
X9268786Y-16118284D02*
X9268786Y-15984950D01*
X9268786Y-16003998D02*
X9278310Y-15994474D01*
X9278310Y-15994474D02*
X9297358Y-15984950D01*
X9297358Y-15984950D02*
X9325929Y-15984950D01*
X9325929Y-15984950D02*
X9344977Y-15994474D01*
X9344977Y-15994474D02*
X9354501Y-16013522D01*
X9354501Y-16013522D02*
X9354501Y-16118284D01*
X9354501Y-16013522D02*
X9364025Y-15994474D01*
X9364025Y-15994474D02*
X9383072Y-15984950D01*
X9383072Y-15984950D02*
X9411644Y-15984950D01*
X9411644Y-15984950D02*
X9430691Y-15994474D01*
X9430691Y-15994474D02*
X9440215Y-16013522D01*
X9440215Y-16013522D02*
X9440215Y-16118284D01*
X9830691Y-15908760D02*
X9659263Y-16165903D01*
X10087834Y-15918284D02*
X10106882Y-15918284D01*
X10106882Y-15918284D02*
X10125929Y-15927808D01*
X10125929Y-15927808D02*
X10135453Y-15937331D01*
X10135453Y-15937331D02*
X10144977Y-15956379D01*
X10144977Y-15956379D02*
X10154501Y-15994474D01*
X10154501Y-15994474D02*
X10154501Y-16042093D01*
X10154501Y-16042093D02*
X10144977Y-16080188D01*
X10144977Y-16080188D02*
X10135453Y-16099236D01*
X10135453Y-16099236D02*
X10125929Y-16108760D01*
X10125929Y-16108760D02*
X10106882Y-16118284D01*
X10106882Y-16118284D02*
X10087834Y-16118284D01*
X10087834Y-16118284D02*
X10068787Y-16108760D01*
X10068787Y-16108760D02*
X10059263Y-16099236D01*
X10059263Y-16099236D02*
X10049739Y-16080188D01*
X10049739Y-16080188D02*
X10040215Y-16042093D01*
X10040215Y-16042093D02*
X10040215Y-15994474D01*
X10040215Y-15994474D02*
X10049739Y-15956379D01*
X10049739Y-15956379D02*
X10059263Y-15937331D01*
X10059263Y-15937331D02*
X10068787Y-15927808D01*
X10068787Y-15927808D02*
X10087834Y-15918284D01*
X10240215Y-16099236D02*
X10249739Y-16108760D01*
X10249739Y-16108760D02*
X10240215Y-16118284D01*
X10240215Y-16118284D02*
X10230691Y-16108760D01*
X10230691Y-16108760D02*
X10240215Y-16099236D01*
X10240215Y-16099236D02*
X10240215Y-16118284D01*
X10373548Y-15918284D02*
X10392596Y-15918284D01*
X10392596Y-15918284D02*
X10411644Y-15927808D01*
X10411644Y-15927808D02*
X10421168Y-15937331D01*
X10421168Y-15937331D02*
X10430691Y-15956379D01*
X10430691Y-15956379D02*
X10440215Y-15994474D01*
X10440215Y-15994474D02*
X10440215Y-16042093D01*
X10440215Y-16042093D02*
X10430691Y-16080188D01*
X10430691Y-16080188D02*
X10421168Y-16099236D01*
X10421168Y-16099236D02*
X10411644Y-16108760D01*
X10411644Y-16108760D02*
X10392596Y-16118284D01*
X10392596Y-16118284D02*
X10373548Y-16118284D01*
X10373548Y-16118284D02*
X10354501Y-16108760D01*
X10354501Y-16108760D02*
X10344977Y-16099236D01*
X10344977Y-16099236D02*
X10335453Y-16080188D01*
X10335453Y-16080188D02*
X10325929Y-16042093D01*
X10325929Y-16042093D02*
X10325929Y-15994474D01*
X10325929Y-15994474D02*
X10335453Y-15956379D01*
X10335453Y-15956379D02*
X10344977Y-15937331D01*
X10344977Y-15937331D02*
X10354501Y-15927808D01*
X10354501Y-15927808D02*
X10373548Y-15918284D01*
X10611644Y-15984950D02*
X10611644Y-16118284D01*
X10564025Y-15908760D02*
X10516406Y-16051617D01*
X10516406Y-16051617D02*
X10640215Y-16051617D01*
X10697358Y-15918284D02*
X10821168Y-15918284D01*
X10821168Y-15918284D02*
X10754501Y-15994474D01*
X10754501Y-15994474D02*
X10783072Y-15994474D01*
X10783072Y-15994474D02*
X10802120Y-16003998D01*
X10802120Y-16003998D02*
X10811644Y-16013522D01*
X10811644Y-16013522D02*
X10821168Y-16032569D01*
X10821168Y-16032569D02*
X10821168Y-16080188D01*
X10821168Y-16080188D02*
X10811644Y-16099236D01*
X10811644Y-16099236D02*
X10802120Y-16108760D01*
X10802120Y-16108760D02*
X10783072Y-16118284D01*
X10783072Y-16118284D02*
X10725929Y-16118284D01*
X10725929Y-16118284D02*
X10706882Y-16108760D01*
X10706882Y-16108760D02*
X10697358Y-16099236D01*
X10887834Y-15918284D02*
X11011644Y-15918284D01*
X11011644Y-15918284D02*
X10944977Y-15994474D01*
X10944977Y-15994474D02*
X10973549Y-15994474D01*
X10973549Y-15994474D02*
X10992596Y-16003998D01*
X10992596Y-16003998D02*
X11002120Y-16013522D01*
X11002120Y-16013522D02*
X11011644Y-16032569D01*
X11011644Y-16032569D02*
X11011644Y-16080188D01*
X11011644Y-16080188D02*
X11002120Y-16099236D01*
X11002120Y-16099236D02*
X10992596Y-16108760D01*
X10992596Y-16108760D02*
X10973549Y-16118284D01*
X10973549Y-16118284D02*
X10916406Y-16118284D01*
X10916406Y-16118284D02*
X10897358Y-16108760D01*
X10897358Y-16108760D02*
X10887834Y-16099236D01*
X11087834Y-15918284D02*
X11087834Y-15956379D01*
X11164025Y-15918284D02*
X11164025Y-15956379D01*
X11459263Y-16194474D02*
X11449739Y-16184950D01*
X11449739Y-16184950D02*
X11430691Y-16156379D01*
X11430691Y-16156379D02*
X11421168Y-16137331D01*
X11421168Y-16137331D02*
X11411644Y-16108760D01*
X11411644Y-16108760D02*
X11402120Y-16061141D01*
X11402120Y-16061141D02*
X11402120Y-16023046D01*
X11402120Y-16023046D02*
X11411644Y-15975427D01*
X11411644Y-15975427D02*
X11421168Y-15946855D01*
X11421168Y-15946855D02*
X11430691Y-15927808D01*
X11430691Y-15927808D02*
X11449739Y-15899236D01*
X11449739Y-15899236D02*
X11459263Y-15889712D01*
X11621168Y-15984950D02*
X11621168Y-16118284D01*
X11573548Y-15908760D02*
X11525929Y-16051617D01*
X11525929Y-16051617D02*
X11649739Y-16051617D01*
X11878310Y-16118284D02*
X11878310Y-15918284D01*
X11964025Y-16118284D02*
X11964025Y-16013522D01*
X11964025Y-16013522D02*
X11954501Y-15994474D01*
X11954501Y-15994474D02*
X11935453Y-15984950D01*
X11935453Y-15984950D02*
X11906882Y-15984950D01*
X11906882Y-15984950D02*
X11887834Y-15994474D01*
X11887834Y-15994474D02*
X11878310Y-16003998D01*
X12087834Y-16118284D02*
X12068787Y-16108760D01*
X12068787Y-16108760D02*
X12059263Y-16099236D01*
X12059263Y-16099236D02*
X12049739Y-16080188D01*
X12049739Y-16080188D02*
X12049739Y-16023046D01*
X12049739Y-16023046D02*
X12059263Y-16003998D01*
X12059263Y-16003998D02*
X12068787Y-15994474D01*
X12068787Y-15994474D02*
X12087834Y-15984950D01*
X12087834Y-15984950D02*
X12116406Y-15984950D01*
X12116406Y-15984950D02*
X12135453Y-15994474D01*
X12135453Y-15994474D02*
X12144977Y-16003998D01*
X12144977Y-16003998D02*
X12154501Y-16023046D01*
X12154501Y-16023046D02*
X12154501Y-16080188D01*
X12154501Y-16080188D02*
X12144977Y-16099236D01*
X12144977Y-16099236D02*
X12135453Y-16108760D01*
X12135453Y-16108760D02*
X12116406Y-16118284D01*
X12116406Y-16118284D02*
X12087834Y-16118284D01*
X12268787Y-16118284D02*
X12249739Y-16108760D01*
X12249739Y-16108760D02*
X12240215Y-16089712D01*
X12240215Y-16089712D02*
X12240215Y-15918284D01*
X12421168Y-16108760D02*
X12402120Y-16118284D01*
X12402120Y-16118284D02*
X12364025Y-16118284D01*
X12364025Y-16118284D02*
X12344977Y-16108760D01*
X12344977Y-16108760D02*
X12335453Y-16089712D01*
X12335453Y-16089712D02*
X12335453Y-16013522D01*
X12335453Y-16013522D02*
X12344977Y-15994474D01*
X12344977Y-15994474D02*
X12364025Y-15984950D01*
X12364025Y-15984950D02*
X12402120Y-15984950D01*
X12402120Y-15984950D02*
X12421168Y-15994474D01*
X12421168Y-15994474D02*
X12430691Y-16013522D01*
X12430691Y-16013522D02*
X12430691Y-16032569D01*
X12430691Y-16032569D02*
X12335453Y-16051617D01*
X12506882Y-16108760D02*
X12525930Y-16118284D01*
X12525930Y-16118284D02*
X12564025Y-16118284D01*
X12564025Y-16118284D02*
X12583072Y-16108760D01*
X12583072Y-16108760D02*
X12592596Y-16089712D01*
X12592596Y-16089712D02*
X12592596Y-16080188D01*
X12592596Y-16080188D02*
X12583072Y-16061141D01*
X12583072Y-16061141D02*
X12564025Y-16051617D01*
X12564025Y-16051617D02*
X12535453Y-16051617D01*
X12535453Y-16051617D02*
X12516406Y-16042093D01*
X12516406Y-16042093D02*
X12506882Y-16023046D01*
X12506882Y-16023046D02*
X12506882Y-16013522D01*
X12506882Y-16013522D02*
X12516406Y-15994474D01*
X12516406Y-15994474D02*
X12535453Y-15984950D01*
X12535453Y-15984950D02*
X12564025Y-15984950D01*
X12564025Y-15984950D02*
X12583072Y-15994474D01*
X12659263Y-16194474D02*
X12668787Y-16184950D01*
X12668787Y-16184950D02*
X12687834Y-16156379D01*
X12687834Y-16156379D02*
X12697358Y-16137331D01*
X12697358Y-16137331D02*
X12706882Y-16108760D01*
X12706882Y-16108760D02*
X12716406Y-16061141D01*
X12716406Y-16061141D02*
X12716406Y-16023046D01*
X12716406Y-16023046D02*
X12706882Y-15975427D01*
X12706882Y-15975427D02*
X12697358Y-15946855D01*
X12697358Y-15946855D02*
X12687834Y-15927808D01*
X12687834Y-15927808D02*
X12668787Y-15899236D01*
X12668787Y-15899236D02*
X12659263Y-15889712D01*
D14*
X7819200Y-16355800D02*
X7884200Y-16290800D01*
X7819200Y-16225800D01*
X7754200Y-16290800D01*
X7819200Y-16355800D01*
D11*
X8249739Y-16382284D02*
X8135453Y-16382284D01*
X8192596Y-16382284D02*
X8192596Y-16182284D01*
X8192596Y-16182284D02*
X8173548Y-16210855D01*
X8173548Y-16210855D02*
X8154501Y-16229903D01*
X8154501Y-16229903D02*
X8135453Y-16239427D01*
X8335453Y-16363236D02*
X8344977Y-16372760D01*
X8344977Y-16372760D02*
X8335453Y-16382284D01*
X8335453Y-16382284D02*
X8325929Y-16372760D01*
X8325929Y-16372760D02*
X8335453Y-16363236D01*
X8335453Y-16363236D02*
X8335453Y-16382284D01*
X8411644Y-16182284D02*
X8535453Y-16182284D01*
X8535453Y-16182284D02*
X8468786Y-16258474D01*
X8468786Y-16258474D02*
X8497358Y-16258474D01*
X8497358Y-16258474D02*
X8516405Y-16267998D01*
X8516405Y-16267998D02*
X8525929Y-16277522D01*
X8525929Y-16277522D02*
X8535453Y-16296569D01*
X8535453Y-16296569D02*
X8535453Y-16344188D01*
X8535453Y-16344188D02*
X8525929Y-16363236D01*
X8525929Y-16363236D02*
X8516405Y-16372760D01*
X8516405Y-16372760D02*
X8497358Y-16382284D01*
X8497358Y-16382284D02*
X8440215Y-16382284D01*
X8440215Y-16382284D02*
X8421167Y-16372760D01*
X8421167Y-16372760D02*
X8411644Y-16363236D01*
X8659263Y-16182284D02*
X8678310Y-16182284D01*
X8678310Y-16182284D02*
X8697358Y-16191808D01*
X8697358Y-16191808D02*
X8706882Y-16201331D01*
X8706882Y-16201331D02*
X8716405Y-16220379D01*
X8716405Y-16220379D02*
X8725929Y-16258474D01*
X8725929Y-16258474D02*
X8725929Y-16306093D01*
X8725929Y-16306093D02*
X8716405Y-16344188D01*
X8716405Y-16344188D02*
X8706882Y-16363236D01*
X8706882Y-16363236D02*
X8697358Y-16372760D01*
X8697358Y-16372760D02*
X8678310Y-16382284D01*
X8678310Y-16382284D02*
X8659263Y-16382284D01*
X8659263Y-16382284D02*
X8640215Y-16372760D01*
X8640215Y-16372760D02*
X8630691Y-16363236D01*
X8630691Y-16363236D02*
X8621167Y-16344188D01*
X8621167Y-16344188D02*
X8611644Y-16306093D01*
X8611644Y-16306093D02*
X8611644Y-16258474D01*
X8611644Y-16258474D02*
X8621167Y-16220379D01*
X8621167Y-16220379D02*
X8630691Y-16201331D01*
X8630691Y-16201331D02*
X8640215Y-16191808D01*
X8640215Y-16191808D02*
X8659263Y-16182284D01*
X8849739Y-16182284D02*
X8868786Y-16182284D01*
X8868786Y-16182284D02*
X8887834Y-16191808D01*
X8887834Y-16191808D02*
X8897358Y-16201331D01*
X8897358Y-16201331D02*
X8906882Y-16220379D01*
X8906882Y-16220379D02*
X8916405Y-16258474D01*
X8916405Y-16258474D02*
X8916405Y-16306093D01*
X8916405Y-16306093D02*
X8906882Y-16344188D01*
X8906882Y-16344188D02*
X8897358Y-16363236D01*
X8897358Y-16363236D02*
X8887834Y-16372760D01*
X8887834Y-16372760D02*
X8868786Y-16382284D01*
X8868786Y-16382284D02*
X8849739Y-16382284D01*
X8849739Y-16382284D02*
X8830691Y-16372760D01*
X8830691Y-16372760D02*
X8821167Y-16363236D01*
X8821167Y-16363236D02*
X8811644Y-16344188D01*
X8811644Y-16344188D02*
X8802120Y-16306093D01*
X8802120Y-16306093D02*
X8802120Y-16258474D01*
X8802120Y-16258474D02*
X8811644Y-16220379D01*
X8811644Y-16220379D02*
X8821167Y-16201331D01*
X8821167Y-16201331D02*
X8830691Y-16191808D01*
X8830691Y-16191808D02*
X8849739Y-16182284D01*
X9002120Y-16382284D02*
X9002120Y-16248950D01*
X9002120Y-16267998D02*
X9011644Y-16258474D01*
X9011644Y-16258474D02*
X9030691Y-16248950D01*
X9030691Y-16248950D02*
X9059263Y-16248950D01*
X9059263Y-16248950D02*
X9078310Y-16258474D01*
X9078310Y-16258474D02*
X9087834Y-16277522D01*
X9087834Y-16277522D02*
X9087834Y-16382284D01*
X9087834Y-16277522D02*
X9097358Y-16258474D01*
X9097358Y-16258474D02*
X9116405Y-16248950D01*
X9116405Y-16248950D02*
X9144977Y-16248950D01*
X9144977Y-16248950D02*
X9164025Y-16258474D01*
X9164025Y-16258474D02*
X9173548Y-16277522D01*
X9173548Y-16277522D02*
X9173548Y-16382284D01*
X9268786Y-16382284D02*
X9268786Y-16248950D01*
X9268786Y-16267998D02*
X9278310Y-16258474D01*
X9278310Y-16258474D02*
X9297358Y-16248950D01*
X9297358Y-16248950D02*
X9325929Y-16248950D01*
X9325929Y-16248950D02*
X9344977Y-16258474D01*
X9344977Y-16258474D02*
X9354501Y-16277522D01*
X9354501Y-16277522D02*
X9354501Y-16382284D01*
X9354501Y-16277522D02*
X9364025Y-16258474D01*
X9364025Y-16258474D02*
X9383072Y-16248950D01*
X9383072Y-16248950D02*
X9411644Y-16248950D01*
X9411644Y-16248950D02*
X9430691Y-16258474D01*
X9430691Y-16258474D02*
X9440215Y-16277522D01*
X9440215Y-16277522D02*
X9440215Y-16382284D01*
X9830691Y-16172760D02*
X9659263Y-16429903D01*
X10087834Y-16182284D02*
X10106882Y-16182284D01*
X10106882Y-16182284D02*
X10125929Y-16191808D01*
X10125929Y-16191808D02*
X10135453Y-16201331D01*
X10135453Y-16201331D02*
X10144977Y-16220379D01*
X10144977Y-16220379D02*
X10154501Y-16258474D01*
X10154501Y-16258474D02*
X10154501Y-16306093D01*
X10154501Y-16306093D02*
X10144977Y-16344188D01*
X10144977Y-16344188D02*
X10135453Y-16363236D01*
X10135453Y-16363236D02*
X10125929Y-16372760D01*
X10125929Y-16372760D02*
X10106882Y-16382284D01*
X10106882Y-16382284D02*
X10087834Y-16382284D01*
X10087834Y-16382284D02*
X10068787Y-16372760D01*
X10068787Y-16372760D02*
X10059263Y-16363236D01*
X10059263Y-16363236D02*
X10049739Y-16344188D01*
X10049739Y-16344188D02*
X10040215Y-16306093D01*
X10040215Y-16306093D02*
X10040215Y-16258474D01*
X10040215Y-16258474D02*
X10049739Y-16220379D01*
X10049739Y-16220379D02*
X10059263Y-16201331D01*
X10059263Y-16201331D02*
X10068787Y-16191808D01*
X10068787Y-16191808D02*
X10087834Y-16182284D01*
X10240215Y-16363236D02*
X10249739Y-16372760D01*
X10249739Y-16372760D02*
X10240215Y-16382284D01*
X10240215Y-16382284D02*
X10230691Y-16372760D01*
X10230691Y-16372760D02*
X10240215Y-16363236D01*
X10240215Y-16363236D02*
X10240215Y-16382284D01*
X10373548Y-16182284D02*
X10392596Y-16182284D01*
X10392596Y-16182284D02*
X10411644Y-16191808D01*
X10411644Y-16191808D02*
X10421168Y-16201331D01*
X10421168Y-16201331D02*
X10430691Y-16220379D01*
X10430691Y-16220379D02*
X10440215Y-16258474D01*
X10440215Y-16258474D02*
X10440215Y-16306093D01*
X10440215Y-16306093D02*
X10430691Y-16344188D01*
X10430691Y-16344188D02*
X10421168Y-16363236D01*
X10421168Y-16363236D02*
X10411644Y-16372760D01*
X10411644Y-16372760D02*
X10392596Y-16382284D01*
X10392596Y-16382284D02*
X10373548Y-16382284D01*
X10373548Y-16382284D02*
X10354501Y-16372760D01*
X10354501Y-16372760D02*
X10344977Y-16363236D01*
X10344977Y-16363236D02*
X10335453Y-16344188D01*
X10335453Y-16344188D02*
X10325929Y-16306093D01*
X10325929Y-16306093D02*
X10325929Y-16258474D01*
X10325929Y-16258474D02*
X10335453Y-16220379D01*
X10335453Y-16220379D02*
X10344977Y-16201331D01*
X10344977Y-16201331D02*
X10354501Y-16191808D01*
X10354501Y-16191808D02*
X10373548Y-16182284D01*
X10621168Y-16182284D02*
X10525929Y-16182284D01*
X10525929Y-16182284D02*
X10516406Y-16277522D01*
X10516406Y-16277522D02*
X10525929Y-16267998D01*
X10525929Y-16267998D02*
X10544977Y-16258474D01*
X10544977Y-16258474D02*
X10592596Y-16258474D01*
X10592596Y-16258474D02*
X10611644Y-16267998D01*
X10611644Y-16267998D02*
X10621168Y-16277522D01*
X10621168Y-16277522D02*
X10630691Y-16296569D01*
X10630691Y-16296569D02*
X10630691Y-16344188D01*
X10630691Y-16344188D02*
X10621168Y-16363236D01*
X10621168Y-16363236D02*
X10611644Y-16372760D01*
X10611644Y-16372760D02*
X10592596Y-16382284D01*
X10592596Y-16382284D02*
X10544977Y-16382284D01*
X10544977Y-16382284D02*
X10525929Y-16372760D01*
X10525929Y-16372760D02*
X10516406Y-16363236D01*
X10821168Y-16382284D02*
X10706882Y-16382284D01*
X10764025Y-16382284D02*
X10764025Y-16182284D01*
X10764025Y-16182284D02*
X10744977Y-16210855D01*
X10744977Y-16210855D02*
X10725929Y-16229903D01*
X10725929Y-16229903D02*
X10706882Y-16239427D01*
X10897358Y-16201331D02*
X10906882Y-16191808D01*
X10906882Y-16191808D02*
X10925929Y-16182284D01*
X10925929Y-16182284D02*
X10973549Y-16182284D01*
X10973549Y-16182284D02*
X10992596Y-16191808D01*
X10992596Y-16191808D02*
X11002120Y-16201331D01*
X11002120Y-16201331D02*
X11011644Y-16220379D01*
X11011644Y-16220379D02*
X11011644Y-16239427D01*
X11011644Y-16239427D02*
X11002120Y-16267998D01*
X11002120Y-16267998D02*
X10887834Y-16382284D01*
X10887834Y-16382284D02*
X11011644Y-16382284D01*
X11087834Y-16182284D02*
X11087834Y-16220379D01*
X11164025Y-16182284D02*
X11164025Y-16220379D01*
X11459263Y-16458474D02*
X11449739Y-16448950D01*
X11449739Y-16448950D02*
X11430691Y-16420379D01*
X11430691Y-16420379D02*
X11421168Y-16401331D01*
X11421168Y-16401331D02*
X11411644Y-16372760D01*
X11411644Y-16372760D02*
X11402120Y-16325141D01*
X11402120Y-16325141D02*
X11402120Y-16287046D01*
X11402120Y-16287046D02*
X11411644Y-16239427D01*
X11411644Y-16239427D02*
X11421168Y-16210855D01*
X11421168Y-16210855D02*
X11430691Y-16191808D01*
X11430691Y-16191808D02*
X11449739Y-16163236D01*
X11449739Y-16163236D02*
X11459263Y-16153712D01*
X11640215Y-16382284D02*
X11525929Y-16382284D01*
X11583072Y-16382284D02*
X11583072Y-16182284D01*
X11583072Y-16182284D02*
X11564025Y-16210855D01*
X11564025Y-16210855D02*
X11544977Y-16229903D01*
X11544977Y-16229903D02*
X11525929Y-16239427D01*
X11868787Y-16372760D02*
X11887834Y-16382284D01*
X11887834Y-16382284D02*
X11925929Y-16382284D01*
X11925929Y-16382284D02*
X11944977Y-16372760D01*
X11944977Y-16372760D02*
X11954501Y-16353712D01*
X11954501Y-16353712D02*
X11954501Y-16344188D01*
X11954501Y-16344188D02*
X11944977Y-16325141D01*
X11944977Y-16325141D02*
X11925929Y-16315617D01*
X11925929Y-16315617D02*
X11897358Y-16315617D01*
X11897358Y-16315617D02*
X11878310Y-16306093D01*
X11878310Y-16306093D02*
X11868787Y-16287046D01*
X11868787Y-16287046D02*
X11868787Y-16277522D01*
X11868787Y-16277522D02*
X11878310Y-16258474D01*
X11878310Y-16258474D02*
X11897358Y-16248950D01*
X11897358Y-16248950D02*
X11925929Y-16248950D01*
X11925929Y-16248950D02*
X11944977Y-16258474D01*
X12068787Y-16382284D02*
X12049739Y-16372760D01*
X12049739Y-16372760D02*
X12040215Y-16353712D01*
X12040215Y-16353712D02*
X12040215Y-16182284D01*
X12173549Y-16382284D02*
X12154501Y-16372760D01*
X12154501Y-16372760D02*
X12144977Y-16363236D01*
X12144977Y-16363236D02*
X12135453Y-16344188D01*
X12135453Y-16344188D02*
X12135453Y-16287046D01*
X12135453Y-16287046D02*
X12144977Y-16267998D01*
X12144977Y-16267998D02*
X12154501Y-16258474D01*
X12154501Y-16258474D02*
X12173549Y-16248950D01*
X12173549Y-16248950D02*
X12202120Y-16248950D01*
X12202120Y-16248950D02*
X12221168Y-16258474D01*
X12221168Y-16258474D02*
X12230691Y-16267998D01*
X12230691Y-16267998D02*
X12240215Y-16287046D01*
X12240215Y-16287046D02*
X12240215Y-16344188D01*
X12240215Y-16344188D02*
X12230691Y-16363236D01*
X12230691Y-16363236D02*
X12221168Y-16372760D01*
X12221168Y-16372760D02*
X12202120Y-16382284D01*
X12202120Y-16382284D02*
X12173549Y-16382284D01*
X12297358Y-16248950D02*
X12373549Y-16248950D01*
X12325930Y-16182284D02*
X12325930Y-16353712D01*
X12325930Y-16353712D02*
X12335453Y-16372760D01*
X12335453Y-16372760D02*
X12354501Y-16382284D01*
X12354501Y-16382284D02*
X12373549Y-16382284D01*
X12421168Y-16458474D02*
X12430691Y-16448950D01*
X12430691Y-16448950D02*
X12449739Y-16420379D01*
X12449739Y-16420379D02*
X12459263Y-16401331D01*
X12459263Y-16401331D02*
X12468787Y-16372760D01*
X12468787Y-16372760D02*
X12478310Y-16325141D01*
X12478310Y-16325141D02*
X12478310Y-16287046D01*
X12478310Y-16287046D02*
X12468787Y-16239427D01*
X12468787Y-16239427D02*
X12459263Y-16210855D01*
X12459263Y-16210855D02*
X12449739Y-16191808D01*
X12449739Y-16191808D02*
X12430691Y-16163236D01*
X12430691Y-16163236D02*
X12421168Y-16153712D01*
D15*
X7744200Y-16484800D02*
X7884200Y-16624800D01*
X7884200Y-16484800D02*
X7744200Y-16624800D01*
X7884200Y-16554800D02*
G75*
G02*
X7744200Y-16554800I-70000J0D01*
G01*
X7744200Y-16554800D02*
G75*
G02*
X7884200Y-16554800I70000J0D01*
G01*
D11*
X8249739Y-16646284D02*
X8135453Y-16646284D01*
X8192596Y-16646284D02*
X8192596Y-16446284D01*
X8192596Y-16446284D02*
X8173548Y-16474855D01*
X8173548Y-16474855D02*
X8154501Y-16493903D01*
X8154501Y-16493903D02*
X8135453Y-16503427D01*
X8335453Y-16627236D02*
X8344977Y-16636760D01*
X8344977Y-16636760D02*
X8335453Y-16646284D01*
X8335453Y-16646284D02*
X8325929Y-16636760D01*
X8325929Y-16636760D02*
X8335453Y-16627236D01*
X8335453Y-16627236D02*
X8335453Y-16646284D01*
X8516405Y-16512950D02*
X8516405Y-16646284D01*
X8468786Y-16436760D02*
X8421167Y-16579617D01*
X8421167Y-16579617D02*
X8544977Y-16579617D01*
X8659263Y-16446284D02*
X8678310Y-16446284D01*
X8678310Y-16446284D02*
X8697358Y-16455808D01*
X8697358Y-16455808D02*
X8706882Y-16465331D01*
X8706882Y-16465331D02*
X8716405Y-16484379D01*
X8716405Y-16484379D02*
X8725929Y-16522474D01*
X8725929Y-16522474D02*
X8725929Y-16570093D01*
X8725929Y-16570093D02*
X8716405Y-16608188D01*
X8716405Y-16608188D02*
X8706882Y-16627236D01*
X8706882Y-16627236D02*
X8697358Y-16636760D01*
X8697358Y-16636760D02*
X8678310Y-16646284D01*
X8678310Y-16646284D02*
X8659263Y-16646284D01*
X8659263Y-16646284D02*
X8640215Y-16636760D01*
X8640215Y-16636760D02*
X8630691Y-16627236D01*
X8630691Y-16627236D02*
X8621167Y-16608188D01*
X8621167Y-16608188D02*
X8611644Y-16570093D01*
X8611644Y-16570093D02*
X8611644Y-16522474D01*
X8611644Y-16522474D02*
X8621167Y-16484379D01*
X8621167Y-16484379D02*
X8630691Y-16465331D01*
X8630691Y-16465331D02*
X8640215Y-16455808D01*
X8640215Y-16455808D02*
X8659263Y-16446284D01*
X8849739Y-16446284D02*
X8868786Y-16446284D01*
X8868786Y-16446284D02*
X8887834Y-16455808D01*
X8887834Y-16455808D02*
X8897358Y-16465331D01*
X8897358Y-16465331D02*
X8906882Y-16484379D01*
X8906882Y-16484379D02*
X8916405Y-16522474D01*
X8916405Y-16522474D02*
X8916405Y-16570093D01*
X8916405Y-16570093D02*
X8906882Y-16608188D01*
X8906882Y-16608188D02*
X8897358Y-16627236D01*
X8897358Y-16627236D02*
X8887834Y-16636760D01*
X8887834Y-16636760D02*
X8868786Y-16646284D01*
X8868786Y-16646284D02*
X8849739Y-16646284D01*
X8849739Y-16646284D02*
X8830691Y-16636760D01*
X8830691Y-16636760D02*
X8821167Y-16627236D01*
X8821167Y-16627236D02*
X8811644Y-16608188D01*
X8811644Y-16608188D02*
X8802120Y-16570093D01*
X8802120Y-16570093D02*
X8802120Y-16522474D01*
X8802120Y-16522474D02*
X8811644Y-16484379D01*
X8811644Y-16484379D02*
X8821167Y-16465331D01*
X8821167Y-16465331D02*
X8830691Y-16455808D01*
X8830691Y-16455808D02*
X8849739Y-16446284D01*
X9002120Y-16646284D02*
X9002120Y-16512950D01*
X9002120Y-16531998D02*
X9011644Y-16522474D01*
X9011644Y-16522474D02*
X9030691Y-16512950D01*
X9030691Y-16512950D02*
X9059263Y-16512950D01*
X9059263Y-16512950D02*
X9078310Y-16522474D01*
X9078310Y-16522474D02*
X9087834Y-16541522D01*
X9087834Y-16541522D02*
X9087834Y-16646284D01*
X9087834Y-16541522D02*
X9097358Y-16522474D01*
X9097358Y-16522474D02*
X9116405Y-16512950D01*
X9116405Y-16512950D02*
X9144977Y-16512950D01*
X9144977Y-16512950D02*
X9164025Y-16522474D01*
X9164025Y-16522474D02*
X9173548Y-16541522D01*
X9173548Y-16541522D02*
X9173548Y-16646284D01*
X9268786Y-16646284D02*
X9268786Y-16512950D01*
X9268786Y-16531998D02*
X9278310Y-16522474D01*
X9278310Y-16522474D02*
X9297358Y-16512950D01*
X9297358Y-16512950D02*
X9325929Y-16512950D01*
X9325929Y-16512950D02*
X9344977Y-16522474D01*
X9344977Y-16522474D02*
X9354501Y-16541522D01*
X9354501Y-16541522D02*
X9354501Y-16646284D01*
X9354501Y-16541522D02*
X9364025Y-16522474D01*
X9364025Y-16522474D02*
X9383072Y-16512950D01*
X9383072Y-16512950D02*
X9411644Y-16512950D01*
X9411644Y-16512950D02*
X9430691Y-16522474D01*
X9430691Y-16522474D02*
X9440215Y-16541522D01*
X9440215Y-16541522D02*
X9440215Y-16646284D01*
X9830691Y-16436760D02*
X9659263Y-16693903D01*
X10087834Y-16446284D02*
X10106882Y-16446284D01*
X10106882Y-16446284D02*
X10125929Y-16455808D01*
X10125929Y-16455808D02*
X10135453Y-16465331D01*
X10135453Y-16465331D02*
X10144977Y-16484379D01*
X10144977Y-16484379D02*
X10154501Y-16522474D01*
X10154501Y-16522474D02*
X10154501Y-16570093D01*
X10154501Y-16570093D02*
X10144977Y-16608188D01*
X10144977Y-16608188D02*
X10135453Y-16627236D01*
X10135453Y-16627236D02*
X10125929Y-16636760D01*
X10125929Y-16636760D02*
X10106882Y-16646284D01*
X10106882Y-16646284D02*
X10087834Y-16646284D01*
X10087834Y-16646284D02*
X10068787Y-16636760D01*
X10068787Y-16636760D02*
X10059263Y-16627236D01*
X10059263Y-16627236D02*
X10049739Y-16608188D01*
X10049739Y-16608188D02*
X10040215Y-16570093D01*
X10040215Y-16570093D02*
X10040215Y-16522474D01*
X10040215Y-16522474D02*
X10049739Y-16484379D01*
X10049739Y-16484379D02*
X10059263Y-16465331D01*
X10059263Y-16465331D02*
X10068787Y-16455808D01*
X10068787Y-16455808D02*
X10087834Y-16446284D01*
X10240215Y-16627236D02*
X10249739Y-16636760D01*
X10249739Y-16636760D02*
X10240215Y-16646284D01*
X10240215Y-16646284D02*
X10230691Y-16636760D01*
X10230691Y-16636760D02*
X10240215Y-16627236D01*
X10240215Y-16627236D02*
X10240215Y-16646284D01*
X10373548Y-16446284D02*
X10392596Y-16446284D01*
X10392596Y-16446284D02*
X10411644Y-16455808D01*
X10411644Y-16455808D02*
X10421168Y-16465331D01*
X10421168Y-16465331D02*
X10430691Y-16484379D01*
X10430691Y-16484379D02*
X10440215Y-16522474D01*
X10440215Y-16522474D02*
X10440215Y-16570093D01*
X10440215Y-16570093D02*
X10430691Y-16608188D01*
X10430691Y-16608188D02*
X10421168Y-16627236D01*
X10421168Y-16627236D02*
X10411644Y-16636760D01*
X10411644Y-16636760D02*
X10392596Y-16646284D01*
X10392596Y-16646284D02*
X10373548Y-16646284D01*
X10373548Y-16646284D02*
X10354501Y-16636760D01*
X10354501Y-16636760D02*
X10344977Y-16627236D01*
X10344977Y-16627236D02*
X10335453Y-16608188D01*
X10335453Y-16608188D02*
X10325929Y-16570093D01*
X10325929Y-16570093D02*
X10325929Y-16522474D01*
X10325929Y-16522474D02*
X10335453Y-16484379D01*
X10335453Y-16484379D02*
X10344977Y-16465331D01*
X10344977Y-16465331D02*
X10354501Y-16455808D01*
X10354501Y-16455808D02*
X10373548Y-16446284D01*
X10621168Y-16446284D02*
X10525929Y-16446284D01*
X10525929Y-16446284D02*
X10516406Y-16541522D01*
X10516406Y-16541522D02*
X10525929Y-16531998D01*
X10525929Y-16531998D02*
X10544977Y-16522474D01*
X10544977Y-16522474D02*
X10592596Y-16522474D01*
X10592596Y-16522474D02*
X10611644Y-16531998D01*
X10611644Y-16531998D02*
X10621168Y-16541522D01*
X10621168Y-16541522D02*
X10630691Y-16560569D01*
X10630691Y-16560569D02*
X10630691Y-16608188D01*
X10630691Y-16608188D02*
X10621168Y-16627236D01*
X10621168Y-16627236D02*
X10611644Y-16636760D01*
X10611644Y-16636760D02*
X10592596Y-16646284D01*
X10592596Y-16646284D02*
X10544977Y-16646284D01*
X10544977Y-16646284D02*
X10525929Y-16636760D01*
X10525929Y-16636760D02*
X10516406Y-16627236D01*
X10811644Y-16446284D02*
X10716406Y-16446284D01*
X10716406Y-16446284D02*
X10706882Y-16541522D01*
X10706882Y-16541522D02*
X10716406Y-16531998D01*
X10716406Y-16531998D02*
X10735453Y-16522474D01*
X10735453Y-16522474D02*
X10783072Y-16522474D01*
X10783072Y-16522474D02*
X10802120Y-16531998D01*
X10802120Y-16531998D02*
X10811644Y-16541522D01*
X10811644Y-16541522D02*
X10821168Y-16560569D01*
X10821168Y-16560569D02*
X10821168Y-16608188D01*
X10821168Y-16608188D02*
X10811644Y-16627236D01*
X10811644Y-16627236D02*
X10802120Y-16636760D01*
X10802120Y-16636760D02*
X10783072Y-16646284D01*
X10783072Y-16646284D02*
X10735453Y-16646284D01*
X10735453Y-16646284D02*
X10716406Y-16636760D01*
X10716406Y-16636760D02*
X10706882Y-16627236D01*
X11011644Y-16646284D02*
X10897358Y-16646284D01*
X10954501Y-16646284D02*
X10954501Y-16446284D01*
X10954501Y-16446284D02*
X10935453Y-16474855D01*
X10935453Y-16474855D02*
X10916406Y-16493903D01*
X10916406Y-16493903D02*
X10897358Y-16503427D01*
X11087834Y-16446284D02*
X11087834Y-16484379D01*
X11164025Y-16446284D02*
X11164025Y-16484379D01*
X11459263Y-16722474D02*
X11449739Y-16712950D01*
X11449739Y-16712950D02*
X11430691Y-16684379D01*
X11430691Y-16684379D02*
X11421168Y-16665331D01*
X11421168Y-16665331D02*
X11411644Y-16636760D01*
X11411644Y-16636760D02*
X11402120Y-16589141D01*
X11402120Y-16589141D02*
X11402120Y-16551046D01*
X11402120Y-16551046D02*
X11411644Y-16503427D01*
X11411644Y-16503427D02*
X11421168Y-16474855D01*
X11421168Y-16474855D02*
X11430691Y-16455808D01*
X11430691Y-16455808D02*
X11449739Y-16427236D01*
X11449739Y-16427236D02*
X11459263Y-16417712D01*
X11525929Y-16465331D02*
X11535453Y-16455808D01*
X11535453Y-16455808D02*
X11554501Y-16446284D01*
X11554501Y-16446284D02*
X11602120Y-16446284D01*
X11602120Y-16446284D02*
X11621168Y-16455808D01*
X11621168Y-16455808D02*
X11630691Y-16465331D01*
X11630691Y-16465331D02*
X11640215Y-16484379D01*
X11640215Y-16484379D02*
X11640215Y-16503427D01*
X11640215Y-16503427D02*
X11630691Y-16531998D01*
X11630691Y-16531998D02*
X11516406Y-16646284D01*
X11516406Y-16646284D02*
X11640215Y-16646284D01*
X11878310Y-16646284D02*
X11878310Y-16446284D01*
X11964025Y-16646284D02*
X11964025Y-16541522D01*
X11964025Y-16541522D02*
X11954501Y-16522474D01*
X11954501Y-16522474D02*
X11935453Y-16512950D01*
X11935453Y-16512950D02*
X11906882Y-16512950D01*
X11906882Y-16512950D02*
X11887834Y-16522474D01*
X11887834Y-16522474D02*
X11878310Y-16531998D01*
X12087834Y-16646284D02*
X12068787Y-16636760D01*
X12068787Y-16636760D02*
X12059263Y-16627236D01*
X12059263Y-16627236D02*
X12049739Y-16608188D01*
X12049739Y-16608188D02*
X12049739Y-16551046D01*
X12049739Y-16551046D02*
X12059263Y-16531998D01*
X12059263Y-16531998D02*
X12068787Y-16522474D01*
X12068787Y-16522474D02*
X12087834Y-16512950D01*
X12087834Y-16512950D02*
X12116406Y-16512950D01*
X12116406Y-16512950D02*
X12135453Y-16522474D01*
X12135453Y-16522474D02*
X12144977Y-16531998D01*
X12144977Y-16531998D02*
X12154501Y-16551046D01*
X12154501Y-16551046D02*
X12154501Y-16608188D01*
X12154501Y-16608188D02*
X12144977Y-16627236D01*
X12144977Y-16627236D02*
X12135453Y-16636760D01*
X12135453Y-16636760D02*
X12116406Y-16646284D01*
X12116406Y-16646284D02*
X12087834Y-16646284D01*
X12268787Y-16646284D02*
X12249739Y-16636760D01*
X12249739Y-16636760D02*
X12240215Y-16617712D01*
X12240215Y-16617712D02*
X12240215Y-16446284D01*
X12421168Y-16636760D02*
X12402120Y-16646284D01*
X12402120Y-16646284D02*
X12364025Y-16646284D01*
X12364025Y-16646284D02*
X12344977Y-16636760D01*
X12344977Y-16636760D02*
X12335453Y-16617712D01*
X12335453Y-16617712D02*
X12335453Y-16541522D01*
X12335453Y-16541522D02*
X12344977Y-16522474D01*
X12344977Y-16522474D02*
X12364025Y-16512950D01*
X12364025Y-16512950D02*
X12402120Y-16512950D01*
X12402120Y-16512950D02*
X12421168Y-16522474D01*
X12421168Y-16522474D02*
X12430691Y-16541522D01*
X12430691Y-16541522D02*
X12430691Y-16560569D01*
X12430691Y-16560569D02*
X12335453Y-16579617D01*
X12506882Y-16636760D02*
X12525930Y-16646284D01*
X12525930Y-16646284D02*
X12564025Y-16646284D01*
X12564025Y-16646284D02*
X12583072Y-16636760D01*
X12583072Y-16636760D02*
X12592596Y-16617712D01*
X12592596Y-16617712D02*
X12592596Y-16608188D01*
X12592596Y-16608188D02*
X12583072Y-16589141D01*
X12583072Y-16589141D02*
X12564025Y-16579617D01*
X12564025Y-16579617D02*
X12535453Y-16579617D01*
X12535453Y-16579617D02*
X12516406Y-16570093D01*
X12516406Y-16570093D02*
X12506882Y-16551046D01*
X12506882Y-16551046D02*
X12506882Y-16541522D01*
X12506882Y-16541522D02*
X12516406Y-16522474D01*
X12516406Y-16522474D02*
X12535453Y-16512950D01*
X12535453Y-16512950D02*
X12564025Y-16512950D01*
X12564025Y-16512950D02*
X12583072Y-16522474D01*
X12659263Y-16722474D02*
X12668787Y-16712950D01*
X12668787Y-16712950D02*
X12687834Y-16684379D01*
X12687834Y-16684379D02*
X12697358Y-16665331D01*
X12697358Y-16665331D02*
X12706882Y-16636760D01*
X12706882Y-16636760D02*
X12716406Y-16589141D01*
X12716406Y-16589141D02*
X12716406Y-16551046D01*
X12716406Y-16551046D02*
X12706882Y-16503427D01*
X12706882Y-16503427D02*
X12697358Y-16474855D01*
X12697358Y-16474855D02*
X12687834Y-16455808D01*
X12687834Y-16455808D02*
X12668787Y-16427236D01*
X12668787Y-16427236D02*
X12659263Y-16417712D01*
M02*
