%TF.GenerationSoftware,KiCad,Pcbnew,9.0.4*%
%TF.CreationDate,2026-01-14T20:41:32+13:00*%
%TF.ProjectId,AWS_CPU_Video_Decoder,4157535f-4350-4555-9f56-6964656f5f44,rev?*%
%TF.SameCoordinates,Original*%
%TF.FileFunction,Soldermask,Top*%
%TF.FilePolarity,Negative*%
%FSLAX46Y46*%
G04 Gerber Fmt 4.6, Leading zero omitted, Abs format (unit mm)*
G04 Created by KiCad (PCBNEW 9.0.4) date 2026-01-14 20:41:32*
%MOMM*%
%LPD*%
G01*
G04 APERTURE LIST*
G04 Aperture macros list*
%AMRoundRect*
0 Rectangle with rounded corners*
0 $1 Rounding radius*
0 $2 $3 $4 $5 $6 $7 $8 $9 X,Y pos of 4 corners*
0 Add a 4 corners polygon primitive as box body*
4,1,4,$2,$3,$4,$5,$6,$7,$8,$9,$2,$3,0*
0 Add four circle primitives for the rounded corners*
1,1,$1+$1,$2,$3*
1,1,$1+$1,$4,$5*
1,1,$1+$1,$6,$7*
1,1,$1+$1,$8,$9*
0 Add four rect primitives between the rounded corners*
20,1,$1+$1,$2,$3,$4,$5,0*
20,1,$1+$1,$4,$5,$6,$7,0*
20,1,$1+$1,$6,$7,$8,$9,0*
20,1,$1+$1,$8,$9,$2,$3,0*%
%AMFreePoly0*
4,1,23,0.500000,-0.750000,0.000000,-0.750000,0.000000,-0.745722,-0.065263,-0.745722,-0.191342,-0.711940,-0.304381,-0.646677,-0.396677,-0.554381,-0.461940,-0.441342,-0.495722,-0.315263,-0.495722,-0.250000,-0.500000,-0.250000,-0.500000,0.250000,-0.495722,0.250000,-0.495722,0.315263,-0.461940,0.441342,-0.396677,0.554381,-0.304381,0.646677,-0.191342,0.711940,-0.065263,0.745722,0.000000,0.745722,
0.000000,0.750000,0.500000,0.750000,0.500000,-0.750000,0.500000,-0.750000,$1*%
%AMFreePoly1*
4,1,23,0.000000,0.745722,0.065263,0.745722,0.191342,0.711940,0.304381,0.646677,0.396677,0.554381,0.461940,0.441342,0.495722,0.315263,0.495722,0.250000,0.500000,0.250000,0.500000,-0.250000,0.495722,-0.250000,0.495722,-0.315263,0.461940,-0.441342,0.396677,-0.554381,0.304381,-0.646677,0.191342,-0.711940,0.065263,-0.745722,0.000000,-0.745722,0.000000,-0.750000,-0.500000,-0.750000,
-0.500000,0.750000,0.000000,0.750000,0.000000,0.745722,0.000000,0.745722,$1*%
%AMFreePoly2*
4,1,37,0.800000,0.796148,0.878414,0.796148,1.032228,0.765552,1.177117,0.705537,1.307515,0.618408,1.418408,0.507515,1.505537,0.377117,1.565552,0.232228,1.596148,0.078414,1.596148,-0.078414,1.565552,-0.232228,1.505537,-0.377117,1.418408,-0.507515,1.307515,-0.618408,1.177117,-0.705537,1.032228,-0.765552,0.878414,-0.796148,0.800000,-0.796148,0.800000,-0.800000,-1.400000,-0.800000,
-1.403843,-0.796157,-1.439018,-0.796157,-1.511114,-0.766294,-1.566294,-0.711114,-1.596157,-0.639018,-1.596157,-0.603843,-1.600000,-0.600000,-1.600000,0.600000,-1.596157,0.603843,-1.596157,0.639018,-1.566294,0.711114,-1.511114,0.766294,-1.439018,0.796157,-1.403843,0.796157,-1.400000,0.800000,0.800000,0.800000,0.800000,0.796148,0.800000,0.796148,$1*%
%AMFreePoly3*
4,1,37,1.403843,0.796157,1.439018,0.796157,1.511114,0.766294,1.566294,0.711114,1.596157,0.639018,1.596157,0.603843,1.600000,0.600000,1.600000,-0.600000,1.596157,-0.603843,1.596157,-0.639018,1.566294,-0.711114,1.511114,-0.766294,1.439018,-0.796157,1.403843,-0.796157,1.400000,-0.800000,-0.800000,-0.800000,-0.800000,-0.796148,-0.878414,-0.796148,-1.032228,-0.765552,-1.177117,-0.705537,
-1.307515,-0.618408,-1.418408,-0.507515,-1.505537,-0.377117,-1.565552,-0.232228,-1.596148,-0.078414,-1.596148,0.078414,-1.565552,0.232228,-1.505537,0.377117,-1.418408,0.507515,-1.307515,0.618408,-1.177117,0.705537,-1.032228,0.765552,-0.878414,0.796148,-0.800000,0.796148,-0.800000,0.800000,1.400000,0.800000,1.403843,0.796157,1.403843,0.796157,$1*%
%AMFreePoly4*
4,1,37,0.603843,0.796157,0.639018,0.796157,0.711114,0.766294,0.766294,0.711114,0.796157,0.639018,0.796157,0.603843,0.800000,0.600000,0.800000,-0.600000,0.796157,-0.603843,0.796157,-0.639018,0.766294,-0.711114,0.711114,-0.766294,0.639018,-0.796157,0.603843,-0.796157,0.600000,-0.800000,0.000000,-0.800000,0.000000,-0.796148,-0.078414,-0.796148,-0.232228,-0.765552,-0.377117,-0.705537,
-0.507515,-0.618408,-0.618408,-0.507515,-0.705537,-0.377117,-0.765552,-0.232228,-0.796148,-0.078414,-0.796148,0.078414,-0.765552,0.232228,-0.705537,0.377117,-0.618408,0.507515,-0.507515,0.618408,-0.377117,0.705537,-0.232228,0.765552,-0.078414,0.796148,0.000000,0.796148,0.000000,0.800000,0.600000,0.800000,0.603843,0.796157,0.603843,0.796157,$1*%
%AMFreePoly5*
4,1,37,0.000000,0.796148,0.078414,0.796148,0.232228,0.765552,0.377117,0.705537,0.507515,0.618408,0.618408,0.507515,0.705537,0.377117,0.765552,0.232228,0.796148,0.078414,0.796148,-0.078414,0.765552,-0.232228,0.705537,-0.377117,0.618408,-0.507515,0.507515,-0.618408,0.377117,-0.705537,0.232228,-0.765552,0.078414,-0.796148,0.000000,-0.796148,0.000000,-0.800000,-0.600000,-0.800000,
-0.603843,-0.796157,-0.639018,-0.796157,-0.711114,-0.766294,-0.766294,-0.711114,-0.796157,-0.639018,-0.796157,-0.603843,-0.800000,-0.600000,-0.800000,0.600000,-0.796157,0.603843,-0.796157,0.639018,-0.766294,0.711114,-0.711114,0.766294,-0.639018,0.796157,-0.603843,0.796157,-0.600000,0.800000,0.000000,0.800000,0.000000,0.796148,0.000000,0.796148,$1*%
G04 Aperture macros list end*
%ADD10R,1.700000X1.700000*%
%ADD11C,1.700000*%
%ADD12O,2.304000X4.404000*%
%ADD13O,3.804000X2.004000*%
%ADD14FreePoly0,180.000000*%
%ADD15FreePoly1,180.000000*%
%ADD16C,2.200000*%
%ADD17C,1.850000*%
%ADD18FreePoly2,180.000000*%
%ADD19RoundRect,0.200000X0.600000X0.600000X-0.600000X0.600000X-0.600000X-0.600000X0.600000X-0.600000X0*%
%ADD20RoundRect,0.800000X0.800000X0.000010X-0.800000X0.000010X-0.800000X-0.000010X0.800000X-0.000010X0*%
%ADD21C,1.600000*%
%ADD22FreePoly3,180.000000*%
%ADD23FreePoly4,180.000000*%
%ADD24FreePoly5,180.000000*%
%ADD25C,2.000000*%
%ADD26C,7.000000*%
G04 APERTURE END LIST*
%TO.C,JP15*%
G36*
X136055000Y-80760000D02*
G01*
X135755000Y-80760000D01*
X135755000Y-79260000D01*
X136055000Y-79260000D01*
X136055000Y-80760000D01*
G37*
%TO.C,JP9*%
G36*
X181760000Y-93460000D02*
G01*
X181460000Y-93460000D01*
X181460000Y-91960000D01*
X181760000Y-91960000D01*
X181760000Y-93460000D01*
G37*
%TO.C,JP2*%
G36*
X181760000Y-116320000D02*
G01*
X181460000Y-116320000D01*
X181460000Y-114820000D01*
X181760000Y-114820000D01*
X181760000Y-116320000D01*
G37*
%TO.C,JP3*%
G36*
X181760000Y-113780000D02*
G01*
X181460000Y-113780000D01*
X181460000Y-112280000D01*
X181760000Y-112280000D01*
X181760000Y-113780000D01*
G37*
%TO.C,JP7*%
G36*
X181760000Y-101080000D02*
G01*
X181460000Y-101080000D01*
X181460000Y-99580000D01*
X181760000Y-99580000D01*
X181760000Y-101080000D01*
G37*
%TO.C,JP17*%
G36*
X136055000Y-85840000D02*
G01*
X135755000Y-85840000D01*
X135755000Y-84340000D01*
X136055000Y-84340000D01*
X136055000Y-85840000D01*
G37*
%TO.C,JP5*%
G36*
X181760000Y-106160000D02*
G01*
X181460000Y-106160000D01*
X181460000Y-104660000D01*
X181760000Y-104660000D01*
X181760000Y-106160000D01*
G37*
%TO.C,JP16*%
G36*
X136040000Y-78220000D02*
G01*
X135740000Y-78220000D01*
X135740000Y-76720000D01*
X136040000Y-76720000D01*
X136040000Y-78220000D01*
G37*
%TO.C,JP8*%
G36*
X181760000Y-98540000D02*
G01*
X181460000Y-98540000D01*
X181460000Y-97040000D01*
X181760000Y-97040000D01*
X181760000Y-98540000D01*
G37*
%TO.C,JP1*%
G36*
X181760000Y-118860000D02*
G01*
X181460000Y-118860000D01*
X181460000Y-117360000D01*
X181760000Y-117360000D01*
X181760000Y-118860000D01*
G37*
%TO.C,JP13*%
G36*
X181760000Y-80760000D02*
G01*
X181460000Y-80760000D01*
X181460000Y-79260000D01*
X181760000Y-79260000D01*
X181760000Y-80760000D01*
G37*
%TO.C,JP11*%
G36*
X181775000Y-88380000D02*
G01*
X181475000Y-88380000D01*
X181475000Y-86880000D01*
X181775000Y-86880000D01*
X181775000Y-88380000D01*
G37*
%TO.C,JP4*%
G36*
X181760000Y-111240000D02*
G01*
X181460000Y-111240000D01*
X181460000Y-109740000D01*
X181760000Y-109740000D01*
X181760000Y-111240000D01*
G37*
%TO.C,JP6*%
G36*
X181745000Y-103620000D02*
G01*
X181445000Y-103620000D01*
X181445000Y-102120000D01*
X181745000Y-102120000D01*
X181745000Y-103620000D01*
G37*
%TO.C,JP14*%
G36*
X181760000Y-78220000D02*
G01*
X181460000Y-78220000D01*
X181460000Y-76720000D01*
X181760000Y-76720000D01*
X181760000Y-78220000D01*
G37*
%TO.C,JP12*%
G36*
X181775000Y-85840000D02*
G01*
X181475000Y-85840000D01*
X181475000Y-84340000D01*
X181775000Y-84340000D01*
X181775000Y-85840000D01*
G37*
%TO.C,JP10*%
G36*
X181775000Y-90920000D02*
G01*
X181475000Y-90920000D01*
X181475000Y-89420000D01*
X181775000Y-89420000D01*
X181775000Y-90920000D01*
G37*
%TD*%
D10*
%TO.C,J19*%
X116840000Y-140970000D03*
D11*
X116840000Y-143510000D03*
%TD*%
D10*
%TO.C,J18*%
X137160000Y-140970000D03*
D11*
X137160000Y-143510000D03*
%TD*%
D10*
%TO.C,J17*%
X160020000Y-69850000D03*
D11*
X157480000Y-69850000D03*
%TD*%
D12*
%TO.C,J16*%
X157590000Y-62290000D03*
D13*
X161290000Y-66040000D03*
X161290000Y-58540000D03*
%TD*%
D11*
%TO.C,*%
X134620000Y-90170000D03*
%TD*%
%TO.C,*%
X119380000Y-90170000D03*
%TD*%
%TO.C,*%
X127000000Y-90170000D03*
%TD*%
%TO.C,*%
X124460000Y-90170000D03*
%TD*%
%TO.C,*%
X129540000Y-90170000D03*
%TD*%
%TO.C,*%
X121920000Y-90170000D03*
%TD*%
%TO.C,*%
X132080000Y-90170000D03*
%TD*%
%TO.C,*%
X134620000Y-97790000D03*
%TD*%
%TO.C,*%
X127000000Y-97790000D03*
%TD*%
%TO.C,*%
X121920000Y-97790000D03*
%TD*%
%TO.C,*%
X129540000Y-97790000D03*
%TD*%
%TO.C,*%
X132080000Y-97790000D03*
%TD*%
%TO.C,*%
X119380000Y-97790000D03*
%TD*%
%TO.C,*%
X124460000Y-97790000D03*
%TD*%
%TO.C,*%
X134620000Y-95250000D03*
%TD*%
%TO.C,*%
X132080000Y-95250000D03*
%TD*%
%TO.C,*%
X119380000Y-95250000D03*
%TD*%
%TO.C,*%
X124460000Y-95250000D03*
%TD*%
%TO.C,*%
X129540000Y-95250000D03*
%TD*%
%TO.C,*%
X121920000Y-95250000D03*
%TD*%
%TO.C,*%
X127000000Y-95250000D03*
%TD*%
%TO.C,*%
X132080000Y-92710000D03*
%TD*%
%TO.C,*%
X134620000Y-92710000D03*
%TD*%
%TO.C,*%
X127000000Y-92710000D03*
%TD*%
%TO.C,*%
X124460000Y-92710000D03*
%TD*%
%TO.C,*%
X121920000Y-92710000D03*
%TD*%
%TO.C,*%
X129540000Y-92710000D03*
%TD*%
%TO.C,*%
X119380000Y-92710000D03*
%TD*%
%TO.C,*%
X134620000Y-105410000D03*
%TD*%
%TO.C,*%
X119380000Y-105410000D03*
%TD*%
%TO.C,*%
X127000000Y-105410000D03*
%TD*%
%TO.C,*%
X124460000Y-105410000D03*
%TD*%
%TO.C,*%
X129540000Y-105410000D03*
%TD*%
%TO.C,*%
X121920000Y-105410000D03*
%TD*%
%TO.C,*%
X132080000Y-105410000D03*
%TD*%
%TO.C,*%
X134620000Y-100330000D03*
%TD*%
%TO.C,*%
X132080000Y-100330000D03*
%TD*%
%TO.C,*%
X127000000Y-100330000D03*
%TD*%
%TO.C,*%
X134620000Y-143510000D03*
%TD*%
%TO.C,*%
X119380000Y-143510000D03*
%TD*%
%TO.C,*%
X127000000Y-143510000D03*
%TD*%
%TO.C,*%
X129540000Y-143510000D03*
%TD*%
%TO.C,*%
X121920000Y-143510000D03*
%TD*%
%TO.C,*%
X134620000Y-138430000D03*
%TD*%
%TO.C,*%
X132080000Y-138430000D03*
%TD*%
%TO.C,*%
X132080000Y-143510000D03*
%TD*%
%TO.C,*%
X124460000Y-143510000D03*
%TD*%
%TO.C,*%
X127000000Y-138430000D03*
%TD*%
%TO.C,*%
X124460000Y-138430000D03*
%TD*%
%TO.C,*%
X121920000Y-138430000D03*
%TD*%
%TO.C,*%
X119380000Y-138430000D03*
%TD*%
%TO.C,*%
X129540000Y-138430000D03*
%TD*%
%TO.C,*%
X127000000Y-140970000D03*
%TD*%
%TO.C,*%
X121920000Y-140970000D03*
%TD*%
%TO.C,*%
X134620000Y-140970000D03*
%TD*%
%TO.C,*%
X119380000Y-140970000D03*
%TD*%
%TO.C,*%
X132080000Y-140970000D03*
%TD*%
%TO.C,*%
X124460000Y-140970000D03*
%TD*%
%TO.C,*%
X129540000Y-140970000D03*
%TD*%
%TO.C,*%
X134620000Y-130810000D03*
%TD*%
%TO.C,*%
X119380000Y-130810000D03*
%TD*%
%TO.C,*%
X124460000Y-130810000D03*
%TD*%
%TO.C,*%
X121920000Y-130810000D03*
%TD*%
%TO.C,*%
X132080000Y-125730000D03*
%TD*%
%TO.C,*%
X119380000Y-125730000D03*
%TD*%
%TO.C,*%
X132080000Y-130810000D03*
%TD*%
%TO.C,*%
X127000000Y-125730000D03*
%TD*%
%TO.C,*%
X124460000Y-125730000D03*
%TD*%
%TO.C,*%
X127000000Y-130810000D03*
%TD*%
%TO.C,*%
X129540000Y-130810000D03*
%TD*%
%TO.C,*%
X134620000Y-125730000D03*
%TD*%
%TO.C,*%
X119380000Y-135890000D03*
%TD*%
%TO.C,*%
X124460000Y-135890000D03*
%TD*%
%TO.C,*%
X129540000Y-125730000D03*
%TD*%
%TO.C,*%
X127000000Y-135890000D03*
%TD*%
%TO.C,*%
X121920000Y-135890000D03*
%TD*%
%TO.C,*%
X121920000Y-125730000D03*
%TD*%
%TO.C,*%
X132080000Y-135890000D03*
%TD*%
%TO.C,*%
X134620000Y-135890000D03*
%TD*%
%TO.C,*%
X129540000Y-135890000D03*
%TD*%
%TO.C,*%
X132080000Y-133350000D03*
%TD*%
%TO.C,*%
X127000000Y-133350000D03*
%TD*%
%TO.C,*%
X134620000Y-133350000D03*
%TD*%
%TO.C,*%
X132080000Y-128270000D03*
%TD*%
%TO.C,*%
X129540000Y-133350000D03*
%TD*%
%TO.C,*%
X119380000Y-133350000D03*
%TD*%
%TO.C,*%
X134620000Y-128270000D03*
%TD*%
%TO.C,*%
X127000000Y-128270000D03*
%TD*%
%TO.C,*%
X124460000Y-128270000D03*
%TD*%
%TO.C,*%
X129540000Y-128270000D03*
%TD*%
%TO.C,*%
X124460000Y-133350000D03*
%TD*%
%TO.C,*%
X121920000Y-133350000D03*
%TD*%
%TO.C,*%
X119380000Y-128270000D03*
%TD*%
%TO.C,*%
X121920000Y-128270000D03*
%TD*%
%TO.C,*%
X129540000Y-118110000D03*
%TD*%
%TO.C,*%
X121920000Y-118110000D03*
%TD*%
%TO.C,*%
X134620000Y-118110000D03*
%TD*%
%TO.C,*%
X124460000Y-118110000D03*
%TD*%
%TO.C,*%
X119380000Y-118110000D03*
%TD*%
%TO.C,*%
X127000000Y-118110000D03*
%TD*%
%TO.C,*%
X119380000Y-100330000D03*
%TD*%
%TO.C,*%
X124460000Y-100330000D03*
%TD*%
%TO.C,*%
X121920000Y-100330000D03*
%TD*%
%TO.C,*%
X129540000Y-100330000D03*
%TD*%
%TO.C,*%
X119380000Y-120650000D03*
%TD*%
%TO.C,*%
X132080000Y-115570000D03*
%TD*%
%TO.C,*%
X132080000Y-120650000D03*
%TD*%
%TO.C,*%
X129540000Y-120650000D03*
%TD*%
%TO.C,*%
X121920000Y-115570000D03*
%TD*%
%TO.C,*%
X134620000Y-120650000D03*
%TD*%
%TO.C,*%
X124460000Y-120650000D03*
%TD*%
%TO.C,*%
X127000000Y-120650000D03*
%TD*%
%TO.C,*%
X121920000Y-120650000D03*
%TD*%
%TO.C,*%
X119380000Y-115570000D03*
%TD*%
%TO.C,*%
X127000000Y-115570000D03*
%TD*%
%TO.C,*%
X129540000Y-115570000D03*
%TD*%
%TO.C,*%
X124460000Y-115570000D03*
%TD*%
%TO.C,*%
X134620000Y-115570000D03*
%TD*%
%TO.C,*%
X134620000Y-113030000D03*
%TD*%
%TO.C,*%
X132080000Y-118110000D03*
%TD*%
%TO.C,*%
X127000000Y-113030000D03*
%TD*%
%TO.C,*%
X121920000Y-113030000D03*
%TD*%
%TO.C,*%
X129540000Y-113030000D03*
%TD*%
%TO.C,*%
X132080000Y-123190000D03*
%TD*%
%TO.C,*%
X134620000Y-123190000D03*
%TD*%
%TO.C,*%
X129540000Y-123190000D03*
%TD*%
%TO.C,*%
X127000000Y-123190000D03*
%TD*%
%TO.C,*%
X132080000Y-113030000D03*
%TD*%
%TO.C,*%
X119380000Y-113030000D03*
%TD*%
%TO.C,*%
X124460000Y-113030000D03*
%TD*%
%TO.C,*%
X124460000Y-123190000D03*
%TD*%
%TO.C,*%
X119380000Y-123190000D03*
%TD*%
%TO.C,*%
X121920000Y-123190000D03*
%TD*%
%TO.C,*%
X134620000Y-110490000D03*
%TD*%
%TO.C,*%
X132080000Y-110490000D03*
%TD*%
%TO.C,*%
X119380000Y-110490000D03*
%TD*%
%TO.C,*%
X124460000Y-110490000D03*
%TD*%
%TO.C,*%
X129540000Y-110490000D03*
%TD*%
%TO.C,*%
X121920000Y-110490000D03*
%TD*%
%TO.C,*%
X127000000Y-110490000D03*
%TD*%
%TO.C,*%
X132080000Y-107950000D03*
%TD*%
%TO.C,*%
X134620000Y-107950000D03*
%TD*%
%TO.C,*%
X127000000Y-107950000D03*
%TD*%
%TO.C,*%
X124460000Y-107950000D03*
%TD*%
%TO.C,*%
X121920000Y-107950000D03*
%TD*%
%TO.C,*%
X129540000Y-107950000D03*
%TD*%
%TO.C,*%
X119380000Y-107950000D03*
%TD*%
%TO.C,*%
X132080000Y-102870000D03*
%TD*%
%TO.C,*%
X121920000Y-102870000D03*
%TD*%
%TO.C,*%
X119380000Y-102870000D03*
%TD*%
%TO.C,*%
X127000000Y-102870000D03*
%TD*%
%TO.C,*%
X124460000Y-102870000D03*
%TD*%
%TO.C,*%
X134620000Y-102870000D03*
%TD*%
%TO.C,*%
X129540000Y-102870000D03*
%TD*%
D14*
%TO.C,JP15*%
X136555000Y-80010000D03*
D15*
X135255000Y-80010000D03*
%TD*%
D10*
%TO.C,J8*%
X194310000Y-129540000D03*
D11*
X194310000Y-127000000D03*
X194310000Y-124460000D03*
X194310000Y-121920000D03*
%TD*%
D16*
%TO.C,A2*%
X161475000Y-125600000D03*
D17*
X161175000Y-122570000D03*
X156325000Y-122570000D03*
D16*
X156025000Y-125600000D03*
D18*
X168440000Y-125730000D03*
D19*
X167640000Y-125730000D03*
D20*
X168440000Y-123190000D03*
D21*
X167640000Y-123190000D03*
D22*
X168440000Y-120650000D03*
D23*
X167640000Y-120650000D03*
D20*
X168440000Y-118110000D03*
D21*
X167640000Y-118110000D03*
D20*
X168440000Y-115570000D03*
D21*
X167640000Y-115570000D03*
D20*
X168440000Y-113030000D03*
D21*
X167640000Y-113030000D03*
D20*
X168440000Y-110490000D03*
D21*
X167640000Y-110490000D03*
D22*
X168440000Y-107950000D03*
D23*
X167640000Y-107950000D03*
D20*
X168440000Y-105410000D03*
D21*
X167640000Y-105410000D03*
D20*
X168440000Y-102870000D03*
D21*
X167640000Y-102870000D03*
D20*
X168440000Y-100330000D03*
D21*
X167640000Y-100330000D03*
D20*
X168440000Y-97790000D03*
D21*
X167640000Y-97790000D03*
D22*
X168440000Y-95250000D03*
D23*
X167640000Y-95250000D03*
D20*
X168440000Y-92710000D03*
D21*
X167640000Y-92710000D03*
D20*
X168440000Y-90170000D03*
D21*
X167640000Y-90170000D03*
D20*
X168440000Y-87630000D03*
D21*
X167640000Y-87630000D03*
D20*
X168440000Y-85090000D03*
D21*
X167640000Y-85090000D03*
D22*
X168440000Y-82550000D03*
D23*
X167640000Y-82550000D03*
D20*
X168440000Y-80010000D03*
D21*
X167640000Y-80010000D03*
D20*
X168440000Y-77470000D03*
D21*
X167640000Y-77470000D03*
X149860000Y-77470000D03*
D20*
X149060000Y-77470000D03*
D21*
X149860000Y-80010000D03*
D20*
X149060000Y-80010000D03*
D24*
X149860000Y-82550000D03*
D18*
X149060000Y-82550000D03*
D21*
X149860000Y-85090000D03*
D20*
X149060000Y-85090000D03*
D21*
X149860000Y-87630000D03*
D20*
X149060000Y-87630000D03*
D21*
X149860000Y-90170000D03*
D20*
X149060000Y-90170000D03*
D21*
X149860000Y-92710000D03*
D20*
X149060000Y-92710000D03*
D24*
X149860000Y-95250000D03*
D18*
X149060000Y-95250000D03*
D21*
X149860000Y-97790000D03*
D20*
X149060000Y-97790000D03*
D21*
X149860000Y-100330000D03*
D20*
X149060000Y-100330000D03*
D21*
X149860000Y-102870000D03*
D20*
X149060000Y-102870000D03*
D21*
X149860000Y-105410000D03*
D20*
X149060000Y-105410000D03*
D24*
X149860000Y-107950000D03*
D18*
X149060000Y-107950000D03*
D21*
X149860000Y-110490000D03*
D20*
X149060000Y-110490000D03*
D21*
X149860000Y-113030000D03*
D20*
X149060000Y-113030000D03*
D21*
X149860000Y-115570000D03*
D20*
X149060000Y-115570000D03*
D21*
X149860000Y-118110000D03*
D20*
X149060000Y-118110000D03*
D24*
X149860000Y-120650000D03*
D18*
X149060000Y-120650000D03*
D21*
X149860000Y-123190000D03*
D20*
X149060000Y-123190000D03*
D21*
X149860000Y-125730000D03*
D20*
X149060000Y-125730000D03*
%TD*%
D10*
%TO.C,J13*%
X214630000Y-129540000D03*
D11*
X214630000Y-127000000D03*
X214630000Y-124460000D03*
X214630000Y-121920000D03*
%TD*%
D14*
%TO.C,JP9*%
X182260000Y-92710000D03*
D15*
X180960000Y-92710000D03*
%TD*%
D14*
%TO.C,JP2*%
X182260000Y-115570000D03*
D15*
X180960000Y-115570000D03*
%TD*%
D14*
%TO.C,JP3*%
X182260000Y-113030000D03*
D15*
X180960000Y-113030000D03*
%TD*%
D14*
%TO.C,JP7*%
X182260000Y-100330000D03*
D15*
X180960000Y-100330000D03*
%TD*%
D10*
%TO.C,J12*%
X214630000Y-80010000D03*
D11*
X214630000Y-77470000D03*
X214630000Y-74930000D03*
X214630000Y-72390000D03*
%TD*%
D10*
%TO.C,J15*%
X214630000Y-113030000D03*
D11*
X214630000Y-110490000D03*
X214630000Y-107950000D03*
X214630000Y-105410000D03*
%TD*%
D10*
%TO.C,J9*%
X194310000Y-146050000D03*
D11*
X194310000Y-143510000D03*
X194310000Y-140970000D03*
X194310000Y-138430000D03*
%TD*%
D14*
%TO.C,JP17*%
X136555000Y-85090000D03*
D15*
X135255000Y-85090000D03*
%TD*%
D10*
%TO.C,U2*%
X209550000Y-82550000D03*
D11*
X209550000Y-80010000D03*
X209550000Y-77470000D03*
X209550000Y-74930000D03*
X209550000Y-72390000D03*
X209550000Y-69850000D03*
X199390000Y-69850000D03*
X199390000Y-72390000D03*
X199390000Y-74930000D03*
X199390000Y-77470000D03*
X199390000Y-80010000D03*
X199390000Y-82550000D03*
%TD*%
D14*
%TO.C,JP5*%
X182260000Y-105410000D03*
D15*
X180960000Y-105410000D03*
%TD*%
D10*
%TO.C,J2*%
X194310000Y-63500000D03*
D11*
X194310000Y-60960000D03*
X194310000Y-58420000D03*
X194310000Y-55880000D03*
%TD*%
D14*
%TO.C,JP16*%
X136540000Y-77470000D03*
D15*
X135240000Y-77470000D03*
%TD*%
D10*
%TO.C,J14*%
X214630000Y-96520000D03*
D11*
X214630000Y-93980000D03*
X214630000Y-91440000D03*
X214630000Y-88900000D03*
%TD*%
D14*
%TO.C,JP8*%
X182260000Y-97790000D03*
D15*
X180960000Y-97790000D03*
%TD*%
D25*
%TO.C,SW1*%
X167640000Y-137160000D03*
X167640000Y-130660000D03*
X172140000Y-137160000D03*
X172140000Y-130660000D03*
%TD*%
D10*
%TO.C,J6*%
X194310000Y-96520000D03*
D11*
X194310000Y-93980000D03*
X194310000Y-91440000D03*
X194310000Y-88900000D03*
%TD*%
D26*
%TO.C,H1*%
X112410000Y-101600000D03*
%TD*%
D10*
%TO.C,J11*%
X214630000Y-146050000D03*
D11*
X214630000Y-143510000D03*
X214630000Y-140970000D03*
X214630000Y-138430000D03*
%TD*%
D14*
%TO.C,JP1*%
X182260000Y-118110000D03*
D15*
X180960000Y-118110000D03*
%TD*%
D14*
%TO.C,JP13*%
X182260000Y-80010000D03*
D15*
X180960000Y-80010000D03*
%TD*%
D14*
%TO.C,JP11*%
X182275000Y-87630000D03*
D15*
X180975000Y-87630000D03*
%TD*%
D10*
%TO.C,J7*%
X194310000Y-113030000D03*
D11*
X194310000Y-110490000D03*
X194310000Y-107950000D03*
X194310000Y-105410000D03*
%TD*%
D10*
%TO.C,J5*%
X177800000Y-125730000D03*
D11*
X175260000Y-125730000D03*
X177800000Y-123190000D03*
X175260000Y-123190000D03*
X177800000Y-120650000D03*
X175260000Y-120650000D03*
X177800000Y-118110000D03*
X175260000Y-118110000D03*
X177800000Y-115570000D03*
X175260000Y-115570000D03*
X177800000Y-113030000D03*
X175260000Y-113030000D03*
X177800000Y-110490000D03*
X175260000Y-110490000D03*
X177800000Y-107950000D03*
X175260000Y-107950000D03*
X177800000Y-105410000D03*
X175260000Y-105410000D03*
X177800000Y-102870000D03*
X175260000Y-102870000D03*
X177800000Y-100330000D03*
X175260000Y-100330000D03*
X177800000Y-97790000D03*
X175260000Y-97790000D03*
X177800000Y-95250000D03*
X175260000Y-95250000D03*
X177800000Y-92710000D03*
X175260000Y-92710000D03*
X177800000Y-90170000D03*
X175260000Y-90170000D03*
X177800000Y-87630000D03*
X175260000Y-87630000D03*
X177800000Y-85090000D03*
X175260000Y-85090000D03*
X177800000Y-82550000D03*
X175260000Y-82550000D03*
X177800000Y-80010000D03*
X175260000Y-80010000D03*
X177800000Y-77470000D03*
X175260000Y-77470000D03*
%TD*%
D14*
%TO.C,JP4*%
X182260000Y-110490000D03*
D15*
X180960000Y-110490000D03*
%TD*%
D14*
%TO.C,JP6*%
X182245000Y-102870000D03*
D15*
X180945000Y-102870000D03*
%TD*%
D14*
%TO.C,JP14*%
X182260000Y-77470000D03*
D15*
X180960000Y-77470000D03*
%TD*%
D10*
%TO.C,U5*%
X209550000Y-132080000D03*
D11*
X209550000Y-129540000D03*
X209550000Y-127000000D03*
X209550000Y-124460000D03*
X209550000Y-121920000D03*
X209550000Y-119380000D03*
X199390000Y-119380000D03*
X199390000Y-121920000D03*
X199390000Y-124460000D03*
X199390000Y-127000000D03*
X199390000Y-129540000D03*
X199390000Y-132080000D03*
%TD*%
D14*
%TO.C,JP12*%
X182275000Y-85090000D03*
D15*
X180975000Y-85090000D03*
%TD*%
D14*
%TO.C,JP10*%
X182275000Y-90170000D03*
D15*
X180975000Y-90170000D03*
%TD*%
D10*
%TO.C,U3*%
X209550000Y-99060000D03*
D11*
X209550000Y-96520000D03*
X209550000Y-93980000D03*
X209550000Y-91440000D03*
X209550000Y-88900000D03*
X209550000Y-86360000D03*
X199390000Y-86360000D03*
X199390000Y-88900000D03*
X199390000Y-91440000D03*
X199390000Y-93980000D03*
X199390000Y-96520000D03*
X199390000Y-99060000D03*
%TD*%
D10*
%TO.C,J1*%
X142240000Y-125730000D03*
D11*
X139700000Y-125730000D03*
X142240000Y-123190000D03*
X139700000Y-123190000D03*
X142240000Y-120650000D03*
X139700000Y-120650000D03*
X142240000Y-118110000D03*
X139700000Y-118110000D03*
X142240000Y-115570000D03*
X139700000Y-115570000D03*
X142240000Y-113030000D03*
X139700000Y-113030000D03*
X142240000Y-110490000D03*
X139700000Y-110490000D03*
X142240000Y-107950000D03*
X139700000Y-107950000D03*
X142240000Y-105410000D03*
X139700000Y-105410000D03*
X142240000Y-102870000D03*
X139700000Y-102870000D03*
X142240000Y-100330000D03*
X139700000Y-100330000D03*
X142240000Y-97790000D03*
X139700000Y-97790000D03*
X142240000Y-95250000D03*
X139700000Y-95250000D03*
X142240000Y-92710000D03*
X139700000Y-92710000D03*
X142240000Y-90170000D03*
X139700000Y-90170000D03*
X142240000Y-87630000D03*
X139700000Y-87630000D03*
X142240000Y-85090000D03*
X139700000Y-85090000D03*
X142240000Y-82550000D03*
X139700000Y-82550000D03*
X142240000Y-80010000D03*
X139700000Y-80010000D03*
X142240000Y-77470000D03*
X139700000Y-77470000D03*
%TD*%
D10*
%TO.C,U6*%
X209550000Y-148590000D03*
D11*
X209550000Y-146050000D03*
X209550000Y-143510000D03*
X209550000Y-140970000D03*
X209550000Y-138430000D03*
X209550000Y-135890000D03*
X199390000Y-135890000D03*
X199390000Y-138430000D03*
X199390000Y-140970000D03*
X199390000Y-143510000D03*
X199390000Y-146050000D03*
X199390000Y-148590000D03*
%TD*%
D10*
%TO.C,U4*%
X209550000Y-115570000D03*
D11*
X209550000Y-113030000D03*
X209550000Y-110490000D03*
X209550000Y-107950000D03*
X209550000Y-105410000D03*
X209550000Y-102870000D03*
X199390000Y-102870000D03*
X199390000Y-105410000D03*
X199390000Y-107950000D03*
X199390000Y-110490000D03*
X199390000Y-113030000D03*
X199390000Y-115570000D03*
%TD*%
D10*
%TO.C,J4*%
X194310000Y-80010000D03*
D11*
X194310000Y-77470000D03*
X194310000Y-74930000D03*
X194310000Y-72390000D03*
%TD*%
D10*
%TO.C,J10*%
X214630000Y-63500000D03*
D11*
X214630000Y-60960000D03*
X214630000Y-58420000D03*
X214630000Y-55880000D03*
%TD*%
D10*
%TO.C,U1*%
X209550000Y-66040000D03*
D11*
X209550000Y-63500000D03*
X209550000Y-60960000D03*
X209550000Y-58420000D03*
X209550000Y-55880000D03*
X209550000Y-53340000D03*
X199390000Y-53340000D03*
X199390000Y-55880000D03*
X199390000Y-58420000D03*
X199390000Y-60960000D03*
X199390000Y-63500000D03*
X199390000Y-66040000D03*
%TD*%
D10*
%TO.C,J3*%
X233680000Y-147320000D03*
D11*
X231140000Y-147320000D03*
X233680000Y-144780000D03*
X231140000Y-144780000D03*
X233680000Y-142240000D03*
X231140000Y-142240000D03*
X233680000Y-139700000D03*
X231140000Y-139700000D03*
X233680000Y-137160000D03*
X231140000Y-137160000D03*
X233680000Y-134620000D03*
X231140000Y-134620000D03*
X233680000Y-132080000D03*
X231140000Y-132080000D03*
X233680000Y-129540000D03*
X231140000Y-129540000D03*
X233680000Y-127000000D03*
X231140000Y-127000000D03*
X233680000Y-124460000D03*
X231140000Y-124460000D03*
X233680000Y-121920000D03*
X231140000Y-121920000D03*
X233680000Y-119380000D03*
X231140000Y-119380000D03*
X233680000Y-116840000D03*
X231140000Y-116840000D03*
X233680000Y-114300000D03*
X231140000Y-114300000D03*
X233680000Y-111760000D03*
X231140000Y-111760000D03*
X233680000Y-109220000D03*
X231140000Y-109220000D03*
X233680000Y-106680000D03*
X231140000Y-106680000D03*
X233680000Y-104140000D03*
X231140000Y-104140000D03*
X233680000Y-101600000D03*
X231140000Y-101600000D03*
X233680000Y-99060000D03*
X231140000Y-99060000D03*
X233680000Y-96520000D03*
X231140000Y-96520000D03*
X233680000Y-93980000D03*
X231140000Y-93980000D03*
X233680000Y-91440000D03*
X231140000Y-91440000D03*
X233680000Y-88900000D03*
X231140000Y-88900000D03*
X233680000Y-86360000D03*
X231140000Y-86360000D03*
X233680000Y-83820000D03*
X231140000Y-83820000D03*
X233680000Y-81280000D03*
X231140000Y-81280000D03*
X233680000Y-78740000D03*
X231140000Y-78740000D03*
X233680000Y-76200000D03*
X231140000Y-76200000D03*
X233680000Y-73660000D03*
X231140000Y-73660000D03*
X233680000Y-71120000D03*
X231140000Y-71120000D03*
X233680000Y-68580000D03*
X231140000Y-68580000D03*
X233680000Y-66040000D03*
X231140000Y-66040000D03*
X233680000Y-63500000D03*
X231140000Y-63500000D03*
X233680000Y-60960000D03*
X231140000Y-60960000D03*
X233680000Y-58420000D03*
X231140000Y-58420000D03*
X233680000Y-55880000D03*
X231140000Y-55880000D03*
%TD*%
M02*
