M48
; DRILL file {KiCad 9.0.4} date 2026-01-25T12:04:24+1300
; FORMAT={-:-/ absolute / metric / decimal}
; #@! TF.CreationDate,2026-01-25T12:04:24+13:00
; #@! TF.GenerationSoftware,Kicad,Pcbnew,9.0.4
; #@! TF.FileFunction,Plated,1,2,PTH
FMAT,2
METRIC
; #@! TA.AperFunction,Plated,PTH,ViaDrill
T1C0.300
; #@! TA.AperFunction,Plated,PTH,ComponentDrill
T2C0.700
; #@! TA.AperFunction,Plated,PTH,ComponentDrill
T3C1.000
; #@! TA.AperFunction,Plated,PTH,ComponentDrill
T4C1.100
; #@! TA.AperFunction,Plated,PTH,ComponentDrill
T5C1.300
; #@! TA.AperFunction,Plated,PTH,ComponentDrill
T6C1.400
%
G90
G05
T1
X149.098Y-68.707
X152.557Y-79.629
X155.448Y-85.852
X156.21Y-72.009
X156.972Y-82.169
X157.48Y-69.469
X157.734Y-85.979
X158.496Y-66.929
X159.258Y-83.439
X160.02Y-58.039
X160.782Y-74.549
X174.498Y-74.295
X175.006Y-48.895
X175.006Y-58.547
X175.006Y-66.167
X175.006Y-81.407
X175.006Y-91.059
X175.006Y-99.695
X175.006Y-107.823
X175.006Y-115.951
X175.006Y-123.571
X175.006Y-131.191
X175.006Y-139.827
X184.404Y-78.105
X185.166Y-61.849
X187.198Y-94.615
X190.5Y-130.683
X190.5Y-140.335
X190.754Y-110.109
X190.754Y-121.539
X197.104Y-80.645
X197.104Y-89.027
T2
X117.602Y-51.689
X117.602Y-54.864
X117.602Y-58.039
X117.602Y-61.214
X125.222Y-51.689
X125.222Y-54.864
X125.222Y-58.039
X125.222Y-61.214
X127.762Y-54.864
X127.762Y-58.039
X127.762Y-61.214
X135.382Y-54.864
X135.382Y-58.039
X135.382Y-61.214
X137.922Y-54.864
X137.922Y-58.014
X137.922Y-61.164
X145.542Y-54.864
X145.542Y-58.014
X145.542Y-61.164
T3
X87.122Y-135.509
X87.122Y-138.049
X89.662Y-97.409
X89.662Y-99.949
X89.662Y-102.489
X89.662Y-105.029
X89.662Y-107.569
X89.662Y-110.109
X89.662Y-112.649
X89.662Y-115.189
X89.662Y-117.729
X89.662Y-120.269
X89.662Y-122.809
X89.662Y-125.349
X89.662Y-127.889
X89.662Y-130.429
X89.662Y-132.969
X89.662Y-135.509
X89.662Y-138.049
X92.202Y-97.409
X92.202Y-99.949
X92.202Y-102.489
X92.202Y-105.029
X92.202Y-107.569
X92.202Y-110.109
X92.202Y-112.649
X92.202Y-115.189
X92.202Y-117.729
X92.202Y-120.269
X92.202Y-122.809
X92.202Y-125.349
X92.202Y-127.889
X92.202Y-130.429
X92.202Y-132.969
X92.202Y-135.509
X92.202Y-138.049
X94.742Y-97.409
X94.742Y-99.949
X94.742Y-102.489
X94.742Y-105.029
X94.742Y-107.569
X94.742Y-110.109
X94.742Y-112.649
X94.742Y-115.189
X94.742Y-117.729
X94.742Y-120.269
X94.742Y-122.809
X94.742Y-125.349
X94.742Y-127.889
X94.742Y-130.429
X94.742Y-132.969
X94.742Y-135.509
X94.742Y-138.049
X97.282Y-97.409
X97.282Y-99.949
X97.282Y-102.489
X97.282Y-105.029
X97.282Y-107.569
X97.282Y-110.109
X97.282Y-112.649
X97.282Y-115.189
X97.282Y-117.729
X97.282Y-120.269
X97.282Y-122.809
X97.282Y-125.349
X97.282Y-127.889
X97.282Y-130.429
X97.282Y-132.969
X97.282Y-135.509
X97.282Y-138.049
X99.822Y-97.409
X99.822Y-99.949
X99.822Y-102.489
X99.822Y-105.029
X99.822Y-107.569
X99.822Y-110.109
X99.822Y-112.649
X99.822Y-115.189
X99.822Y-117.729
X99.822Y-120.269
X99.822Y-122.809
X99.822Y-125.349
X99.822Y-127.889
X99.822Y-130.429
X99.822Y-132.969
X99.822Y-135.509
X99.822Y-138.049
X102.362Y-97.409
X102.362Y-99.949
X102.362Y-102.489
X102.362Y-105.029
X102.362Y-107.569
X102.362Y-110.109
X102.362Y-112.649
X102.362Y-115.189
X102.362Y-117.729
X102.362Y-120.269
X102.362Y-122.809
X102.362Y-125.349
X102.362Y-127.889
X102.362Y-130.429
X102.362Y-132.969
X102.362Y-135.509
X102.362Y-138.049
X104.902Y-97.409
X104.902Y-99.949
X104.902Y-102.489
X104.902Y-105.029
X104.902Y-107.569
X104.902Y-110.109
X104.902Y-112.649
X104.902Y-115.189
X104.902Y-117.729
X104.902Y-120.269
X104.902Y-122.809
X104.902Y-125.349
X104.902Y-127.889
X104.902Y-130.429
X104.902Y-132.969
X104.902Y-135.509
X104.902Y-138.049
X107.442Y-135.509
X107.442Y-138.049
X109.982Y-72.009
X109.982Y-74.549
X109.982Y-77.089
X109.982Y-79.629
X109.982Y-82.169
X109.982Y-84.709
X109.982Y-87.249
X109.982Y-89.789
X109.982Y-92.329
X109.982Y-94.869
X109.982Y-97.409
X109.982Y-99.949
X109.982Y-102.489
X109.982Y-105.029
X109.982Y-107.569
X109.982Y-110.109
X109.982Y-112.649
X109.982Y-115.189
X109.982Y-117.729
X109.982Y-120.269
X112.522Y-72.009
X112.522Y-74.549
X112.522Y-77.089
X112.522Y-79.629
X112.522Y-82.169
X112.522Y-84.709
X112.522Y-87.249
X112.522Y-89.789
X112.522Y-92.329
X112.522Y-94.869
X112.522Y-97.409
X112.522Y-99.949
X112.522Y-102.489
X112.522Y-105.029
X112.522Y-107.569
X112.522Y-110.109
X112.522Y-112.649
X112.522Y-115.189
X112.522Y-117.729
X112.522Y-120.269
X120.142Y-72.009
X120.142Y-74.549
X120.142Y-77.089
X120.142Y-79.629
X120.142Y-82.169
X120.142Y-84.709
X120.142Y-87.249
X120.142Y-89.789
X120.142Y-92.329
X120.142Y-94.869
X120.142Y-97.409
X120.142Y-99.949
X120.142Y-102.489
X120.142Y-105.029
X120.142Y-107.569
X120.142Y-110.109
X120.142Y-112.649
X120.142Y-115.189
X120.142Y-117.729
X120.142Y-120.269
X137.922Y-72.009
X137.922Y-74.549
X137.922Y-77.089
X137.922Y-79.629
X137.922Y-82.169
X137.922Y-84.709
X137.922Y-87.249
X137.922Y-89.789
X137.922Y-92.329
X137.922Y-94.869
X137.922Y-97.409
X137.922Y-99.949
X137.922Y-102.489
X137.922Y-105.029
X137.922Y-107.569
X137.922Y-110.109
X137.922Y-112.649
X137.922Y-115.189
X137.922Y-117.729
X137.922Y-120.269
X145.542Y-72.009
X145.542Y-74.549
X145.542Y-77.089
X145.542Y-79.629
X145.542Y-82.169
X145.542Y-84.709
X145.542Y-87.249
X145.542Y-89.789
X145.542Y-92.329
X145.542Y-94.869
X145.542Y-97.409
X145.542Y-99.949
X145.542Y-102.489
X145.542Y-105.029
X145.542Y-107.569
X145.542Y-110.109
X145.542Y-112.649
X145.542Y-115.189
X145.542Y-117.729
X145.542Y-120.269
X148.082Y-72.009
X148.082Y-74.549
X148.082Y-77.089
X148.082Y-79.629
X148.082Y-82.169
X148.082Y-84.709
X148.082Y-87.249
X148.082Y-89.789
X148.082Y-92.329
X148.082Y-94.869
X148.082Y-97.409
X148.082Y-99.949
X148.082Y-102.489
X148.082Y-105.029
X148.082Y-107.569
X148.082Y-110.109
X148.082Y-112.649
X148.082Y-115.189
X148.082Y-117.729
X148.082Y-120.269
X164.592Y-50.419
X164.592Y-52.959
X164.592Y-55.499
X164.592Y-58.039
X164.592Y-66.929
X164.592Y-69.469
X164.592Y-72.009
X164.592Y-74.549
X164.592Y-83.439
X164.592Y-85.979
X164.592Y-88.519
X164.592Y-91.059
X164.592Y-99.949
X164.592Y-102.489
X164.592Y-105.029
X164.592Y-107.569
X164.592Y-116.459
X164.592Y-118.999
X164.592Y-121.539
X164.592Y-124.079
X164.592Y-132.969
X164.592Y-135.509
X164.592Y-138.049
X164.592Y-140.589
X169.672Y-47.879
X169.672Y-50.419
X169.672Y-52.959
X169.672Y-55.499
X169.672Y-58.039
X169.672Y-60.579
X169.672Y-64.389
X169.672Y-66.929
X169.672Y-69.469
X169.672Y-72.009
X169.672Y-74.549
X169.672Y-77.089
X169.672Y-80.899
X169.672Y-83.439
X169.672Y-85.979
X169.672Y-88.519
X169.672Y-91.059
X169.672Y-93.599
X169.672Y-97.409
X169.672Y-99.949
X169.672Y-102.489
X169.672Y-105.029
X169.672Y-107.569
X169.672Y-110.109
X169.672Y-113.919
X169.672Y-116.459
X169.672Y-118.999
X169.672Y-121.539
X169.672Y-124.079
X169.672Y-126.619
X169.672Y-130.429
X169.672Y-132.969
X169.672Y-135.509
X169.672Y-138.049
X169.672Y-140.589
X169.672Y-143.129
X179.832Y-47.879
X179.832Y-50.419
X179.832Y-52.959
X179.832Y-55.499
X179.832Y-58.039
X179.832Y-60.579
X179.832Y-64.389
X179.832Y-66.929
X179.832Y-69.469
X179.832Y-72.009
X179.832Y-74.549
X179.832Y-77.089
X179.832Y-80.899
X179.832Y-83.439
X179.832Y-85.979
X179.832Y-88.519
X179.832Y-91.059
X179.832Y-93.599
X179.832Y-97.409
X179.832Y-99.949
X179.832Y-102.489
X179.832Y-105.029
X179.832Y-107.569
X179.832Y-110.109
X179.832Y-113.919
X179.832Y-116.459
X179.832Y-118.999
X179.832Y-121.539
X179.832Y-124.079
X179.832Y-126.619
X179.832Y-130.429
X179.832Y-132.969
X179.832Y-135.509
X179.832Y-138.049
X179.832Y-140.589
X179.832Y-143.129
X184.912Y-50.419
X184.912Y-52.959
X184.912Y-55.499
X184.912Y-58.039
X184.912Y-66.929
X184.912Y-69.469
X184.912Y-72.009
X184.912Y-74.549
X184.912Y-83.439
X184.912Y-85.979
X184.912Y-88.519
X184.912Y-91.059
X184.912Y-99.949
X184.912Y-102.489
X184.912Y-105.029
X184.912Y-107.569
X184.912Y-116.459
X184.912Y-118.999
X184.912Y-121.539
X184.912Y-124.079
X184.912Y-132.969
X184.912Y-135.509
X184.912Y-138.049
X184.912Y-140.589
X201.422Y-50.419
X201.422Y-52.959
X201.422Y-55.499
X201.422Y-58.039
X201.422Y-60.579
X201.422Y-63.119
X201.422Y-65.659
X201.422Y-68.199
X201.422Y-70.739
X201.422Y-73.279
X201.422Y-75.819
X201.422Y-78.359
X201.422Y-80.899
X201.422Y-83.439
X201.422Y-85.979
X201.422Y-88.519
X201.422Y-91.059
X201.422Y-93.599
X201.422Y-96.139
X201.422Y-98.679
X201.422Y-101.219
X201.422Y-103.759
X201.422Y-106.299
X201.422Y-108.839
X201.422Y-111.379
X201.422Y-113.919
X201.422Y-116.459
X201.422Y-118.999
X201.422Y-121.539
X201.422Y-124.079
X201.422Y-126.619
X201.422Y-129.159
X201.422Y-131.699
X201.422Y-134.239
X201.422Y-136.779
X201.422Y-139.319
X201.422Y-141.859
X203.962Y-50.419
X203.962Y-52.959
X203.962Y-55.499
X203.962Y-58.039
X203.962Y-60.579
X203.962Y-63.119
X203.962Y-65.659
X203.962Y-68.199
X203.962Y-70.739
X203.962Y-73.279
X203.962Y-75.819
X203.962Y-78.359
X203.962Y-80.899
X203.962Y-83.439
X203.962Y-85.979
X203.962Y-88.519
X203.962Y-91.059
X203.962Y-93.599
X203.962Y-96.139
X203.962Y-98.679
X203.962Y-101.219
X203.962Y-103.759
X203.962Y-106.299
X203.962Y-108.839
X203.962Y-111.379
X203.962Y-113.919
X203.962Y-116.459
X203.962Y-118.999
X203.962Y-121.539
X203.962Y-124.079
X203.962Y-126.619
X203.962Y-129.159
X203.962Y-131.699
X203.962Y-134.239
X203.962Y-136.779
X203.962Y-139.319
X203.962Y-141.859
T4
X137.922Y-125.199
X137.922Y-131.699
X142.422Y-125.199
X142.422Y-131.699
T6
X118.11Y-126.111
X118.11Y-138.811
T3
X102.367Y-52.384G85X100.867Y-52.384
G05
X102.367Y-59.884G85X100.867Y-59.884
G05
T5
X97.917Y-55.659G85X97.917Y-56.609
G05
M30
