%TF.GenerationSoftware,KiCad,Pcbnew,9.0.4*%
%TF.CreationDate,2026-01-25T12:04:24+13:00*%
%TF.ProjectId,AWS_CPU_Video_Decoder,4157535f-4350-4555-9f56-6964656f5f44,rev?*%
%TF.SameCoordinates,Original*%
%TF.FileFunction,Drillmap*%
%TF.FilePolarity,Positive*%
%FSLAX45Y45*%
G04 Gerber Fmt 4.5, Leading zero omitted, Abs format (unit mm)*
G04 Created by KiCad (PCBNEW 9.0.4) date 2026-01-25 12:04:24*
%MOMM*%
%LPD*%
G01*
G04 APERTURE LIST*
%ADD10C,0.050000*%
%ADD11C,0.200000*%
%ADD12C,0.185000*%
%ADD13C,0.220000*%
%ADD14C,0.350000*%
G04 APERTURE END LIST*
D10*
X20955000Y-4635500D02*
X8013700Y-4635500D01*
X20955000Y-14592300D02*
X8013700Y-14592300D01*
X21082000Y-4762500D02*
X21082000Y-14465300D01*
X7886700Y-4762500D02*
G75*
G02*
X8013700Y-4635500I127000J0D01*
G01*
X20955000Y-4635500D02*
G75*
G02*
X21082000Y-4762500I0J-127000D01*
G01*
X8387600Y-9438900D02*
G75*
G02*
X8387600Y-9788900I0J-175000D01*
G01*
X7886700Y-14465300D02*
X7886700Y-4762500D01*
X8229600Y-9438900D02*
X8387600Y-9438900D01*
X8229600Y-9788900D02*
X8387600Y-9788900D01*
X8229600Y-9788900D02*
G75*
G02*
X8229600Y-9438900I0J175000D01*
G01*
X8013700Y-14592300D02*
G75*
G02*
X7886700Y-14465300I0J127000D01*
G01*
X21082000Y-14465300D02*
G75*
G02*
X20955000Y-14592300I-127000J0D01*
G01*
D11*
D12*
X12568200Y-11618400D02*
X12753200Y-11803400D01*
X12753200Y-11618400D02*
X12568200Y-11803400D01*
X13053200Y-11618400D02*
X13238200Y-11803400D01*
X13238200Y-11618400D02*
X13053200Y-11803400D01*
D13*
X12740700Y-12013900D02*
G75*
G02*
X12520700Y-12013900I-110000J0D01*
G01*
X12520700Y-12013900D02*
G75*
G02*
X12740700Y-12013900I110000J0D01*
G01*
X13285700Y-12013900D02*
G75*
G02*
X13065700Y-12013900I-110000J0D01*
G01*
X13065700Y-12013900D02*
G75*
G02*
X13285700Y-12013900I110000J0D01*
G01*
D14*
X8310100Y-9438900D02*
X8310100Y-9788900D01*
X8135100Y-9613900D02*
X8485100Y-9613900D01*
D11*
X8144977Y-14906284D02*
X8144977Y-14706284D01*
X8144977Y-14706284D02*
X8192596Y-14706284D01*
X8192596Y-14706284D02*
X8221167Y-14715808D01*
X8221167Y-14715808D02*
X8240215Y-14734855D01*
X8240215Y-14734855D02*
X8249739Y-14753903D01*
X8249739Y-14753903D02*
X8259262Y-14791998D01*
X8259262Y-14791998D02*
X8259262Y-14820569D01*
X8259262Y-14820569D02*
X8249739Y-14858665D01*
X8249739Y-14858665D02*
X8240215Y-14877712D01*
X8240215Y-14877712D02*
X8221167Y-14896760D01*
X8221167Y-14896760D02*
X8192596Y-14906284D01*
X8192596Y-14906284D02*
X8144977Y-14906284D01*
X8344977Y-14906284D02*
X8344977Y-14772950D01*
X8344977Y-14811046D02*
X8354501Y-14791998D01*
X8354501Y-14791998D02*
X8364024Y-14782474D01*
X8364024Y-14782474D02*
X8383072Y-14772950D01*
X8383072Y-14772950D02*
X8402120Y-14772950D01*
X8468786Y-14906284D02*
X8468786Y-14772950D01*
X8468786Y-14706284D02*
X8459263Y-14715808D01*
X8459263Y-14715808D02*
X8468786Y-14725331D01*
X8468786Y-14725331D02*
X8478310Y-14715808D01*
X8478310Y-14715808D02*
X8468786Y-14706284D01*
X8468786Y-14706284D02*
X8468786Y-14725331D01*
X8592596Y-14906284D02*
X8573548Y-14896760D01*
X8573548Y-14896760D02*
X8564024Y-14877712D01*
X8564024Y-14877712D02*
X8564024Y-14706284D01*
X8697358Y-14906284D02*
X8678310Y-14896760D01*
X8678310Y-14896760D02*
X8668786Y-14877712D01*
X8668786Y-14877712D02*
X8668786Y-14706284D01*
X8925929Y-14906284D02*
X8925929Y-14706284D01*
X8925929Y-14706284D02*
X8992596Y-14849141D01*
X8992596Y-14849141D02*
X9059263Y-14706284D01*
X9059263Y-14706284D02*
X9059263Y-14906284D01*
X9240215Y-14906284D02*
X9240215Y-14801522D01*
X9240215Y-14801522D02*
X9230691Y-14782474D01*
X9230691Y-14782474D02*
X9211644Y-14772950D01*
X9211644Y-14772950D02*
X9173548Y-14772950D01*
X9173548Y-14772950D02*
X9154501Y-14782474D01*
X9240215Y-14896760D02*
X9221167Y-14906284D01*
X9221167Y-14906284D02*
X9173548Y-14906284D01*
X9173548Y-14906284D02*
X9154501Y-14896760D01*
X9154501Y-14896760D02*
X9144977Y-14877712D01*
X9144977Y-14877712D02*
X9144977Y-14858665D01*
X9144977Y-14858665D02*
X9154501Y-14839617D01*
X9154501Y-14839617D02*
X9173548Y-14830093D01*
X9173548Y-14830093D02*
X9221167Y-14830093D01*
X9221167Y-14830093D02*
X9240215Y-14820569D01*
X9335453Y-14772950D02*
X9335453Y-14972950D01*
X9335453Y-14782474D02*
X9354501Y-14772950D01*
X9354501Y-14772950D02*
X9392596Y-14772950D01*
X9392596Y-14772950D02*
X9411644Y-14782474D01*
X9411644Y-14782474D02*
X9421167Y-14791998D01*
X9421167Y-14791998D02*
X9430691Y-14811046D01*
X9430691Y-14811046D02*
X9430691Y-14868188D01*
X9430691Y-14868188D02*
X9421167Y-14887236D01*
X9421167Y-14887236D02*
X9411644Y-14896760D01*
X9411644Y-14896760D02*
X9392596Y-14906284D01*
X9392596Y-14906284D02*
X9354501Y-14906284D01*
X9354501Y-14906284D02*
X9335453Y-14896760D01*
X9516405Y-14887236D02*
X9525929Y-14896760D01*
X9525929Y-14896760D02*
X9516405Y-14906284D01*
X9516405Y-14906284D02*
X9506882Y-14896760D01*
X9506882Y-14896760D02*
X9516405Y-14887236D01*
X9516405Y-14887236D02*
X9516405Y-14906284D01*
X9516405Y-14782474D02*
X9525929Y-14791998D01*
X9525929Y-14791998D02*
X9516405Y-14801522D01*
X9516405Y-14801522D02*
X9506882Y-14791998D01*
X9506882Y-14791998D02*
X9516405Y-14782474D01*
X9516405Y-14782474D02*
X9516405Y-14801522D01*
D12*
X7699200Y-15142300D02*
X7884200Y-15327300D01*
X7884200Y-15142300D02*
X7699200Y-15327300D01*
D11*
X8249739Y-15326284D02*
X8135453Y-15326284D01*
X8192596Y-15326284D02*
X8192596Y-15126284D01*
X8192596Y-15126284D02*
X8173548Y-15154855D01*
X8173548Y-15154855D02*
X8154501Y-15173903D01*
X8154501Y-15173903D02*
X8135453Y-15183427D01*
X8335453Y-15307236D02*
X8344977Y-15316760D01*
X8344977Y-15316760D02*
X8335453Y-15326284D01*
X8335453Y-15326284D02*
X8325929Y-15316760D01*
X8325929Y-15316760D02*
X8335453Y-15307236D01*
X8335453Y-15307236D02*
X8335453Y-15326284D01*
X8459263Y-15211998D02*
X8440215Y-15202474D01*
X8440215Y-15202474D02*
X8430691Y-15192950D01*
X8430691Y-15192950D02*
X8421167Y-15173903D01*
X8421167Y-15173903D02*
X8421167Y-15164379D01*
X8421167Y-15164379D02*
X8430691Y-15145331D01*
X8430691Y-15145331D02*
X8440215Y-15135808D01*
X8440215Y-15135808D02*
X8459263Y-15126284D01*
X8459263Y-15126284D02*
X8497358Y-15126284D01*
X8497358Y-15126284D02*
X8516405Y-15135808D01*
X8516405Y-15135808D02*
X8525929Y-15145331D01*
X8525929Y-15145331D02*
X8535453Y-15164379D01*
X8535453Y-15164379D02*
X8535453Y-15173903D01*
X8535453Y-15173903D02*
X8525929Y-15192950D01*
X8525929Y-15192950D02*
X8516405Y-15202474D01*
X8516405Y-15202474D02*
X8497358Y-15211998D01*
X8497358Y-15211998D02*
X8459263Y-15211998D01*
X8459263Y-15211998D02*
X8440215Y-15221522D01*
X8440215Y-15221522D02*
X8430691Y-15231046D01*
X8430691Y-15231046D02*
X8421167Y-15250093D01*
X8421167Y-15250093D02*
X8421167Y-15288188D01*
X8421167Y-15288188D02*
X8430691Y-15307236D01*
X8430691Y-15307236D02*
X8440215Y-15316760D01*
X8440215Y-15316760D02*
X8459263Y-15326284D01*
X8459263Y-15326284D02*
X8497358Y-15326284D01*
X8497358Y-15326284D02*
X8516405Y-15316760D01*
X8516405Y-15316760D02*
X8525929Y-15307236D01*
X8525929Y-15307236D02*
X8535453Y-15288188D01*
X8535453Y-15288188D02*
X8535453Y-15250093D01*
X8535453Y-15250093D02*
X8525929Y-15231046D01*
X8525929Y-15231046D02*
X8516405Y-15221522D01*
X8516405Y-15221522D02*
X8497358Y-15211998D01*
X8716405Y-15126284D02*
X8621167Y-15126284D01*
X8621167Y-15126284D02*
X8611644Y-15221522D01*
X8611644Y-15221522D02*
X8621167Y-15211998D01*
X8621167Y-15211998D02*
X8640215Y-15202474D01*
X8640215Y-15202474D02*
X8687834Y-15202474D01*
X8687834Y-15202474D02*
X8706882Y-15211998D01*
X8706882Y-15211998D02*
X8716405Y-15221522D01*
X8716405Y-15221522D02*
X8725929Y-15240569D01*
X8725929Y-15240569D02*
X8725929Y-15288188D01*
X8725929Y-15288188D02*
X8716405Y-15307236D01*
X8716405Y-15307236D02*
X8706882Y-15316760D01*
X8706882Y-15316760D02*
X8687834Y-15326284D01*
X8687834Y-15326284D02*
X8640215Y-15326284D01*
X8640215Y-15326284D02*
X8621167Y-15316760D01*
X8621167Y-15316760D02*
X8611644Y-15307236D01*
X8849739Y-15126284D02*
X8868786Y-15126284D01*
X8868786Y-15126284D02*
X8887834Y-15135808D01*
X8887834Y-15135808D02*
X8897358Y-15145331D01*
X8897358Y-15145331D02*
X8906882Y-15164379D01*
X8906882Y-15164379D02*
X8916405Y-15202474D01*
X8916405Y-15202474D02*
X8916405Y-15250093D01*
X8916405Y-15250093D02*
X8906882Y-15288188D01*
X8906882Y-15288188D02*
X8897358Y-15307236D01*
X8897358Y-15307236D02*
X8887834Y-15316760D01*
X8887834Y-15316760D02*
X8868786Y-15326284D01*
X8868786Y-15326284D02*
X8849739Y-15326284D01*
X8849739Y-15326284D02*
X8830691Y-15316760D01*
X8830691Y-15316760D02*
X8821167Y-15307236D01*
X8821167Y-15307236D02*
X8811644Y-15288188D01*
X8811644Y-15288188D02*
X8802120Y-15250093D01*
X8802120Y-15250093D02*
X8802120Y-15202474D01*
X8802120Y-15202474D02*
X8811644Y-15164379D01*
X8811644Y-15164379D02*
X8821167Y-15145331D01*
X8821167Y-15145331D02*
X8830691Y-15135808D01*
X8830691Y-15135808D02*
X8849739Y-15126284D01*
X9002120Y-15326284D02*
X9002120Y-15192950D01*
X9002120Y-15211998D02*
X9011644Y-15202474D01*
X9011644Y-15202474D02*
X9030691Y-15192950D01*
X9030691Y-15192950D02*
X9059263Y-15192950D01*
X9059263Y-15192950D02*
X9078310Y-15202474D01*
X9078310Y-15202474D02*
X9087834Y-15221522D01*
X9087834Y-15221522D02*
X9087834Y-15326284D01*
X9087834Y-15221522D02*
X9097358Y-15202474D01*
X9097358Y-15202474D02*
X9116405Y-15192950D01*
X9116405Y-15192950D02*
X9144977Y-15192950D01*
X9144977Y-15192950D02*
X9164025Y-15202474D01*
X9164025Y-15202474D02*
X9173548Y-15221522D01*
X9173548Y-15221522D02*
X9173548Y-15326284D01*
X9268786Y-15326284D02*
X9268786Y-15192950D01*
X9268786Y-15211998D02*
X9278310Y-15202474D01*
X9278310Y-15202474D02*
X9297358Y-15192950D01*
X9297358Y-15192950D02*
X9325929Y-15192950D01*
X9325929Y-15192950D02*
X9344977Y-15202474D01*
X9344977Y-15202474D02*
X9354501Y-15221522D01*
X9354501Y-15221522D02*
X9354501Y-15326284D01*
X9354501Y-15221522D02*
X9364025Y-15202474D01*
X9364025Y-15202474D02*
X9383072Y-15192950D01*
X9383072Y-15192950D02*
X9411644Y-15192950D01*
X9411644Y-15192950D02*
X9430691Y-15202474D01*
X9430691Y-15202474D02*
X9440215Y-15221522D01*
X9440215Y-15221522D02*
X9440215Y-15326284D01*
X9830691Y-15116760D02*
X9659263Y-15373903D01*
X10087834Y-15126284D02*
X10106882Y-15126284D01*
X10106882Y-15126284D02*
X10125929Y-15135808D01*
X10125929Y-15135808D02*
X10135453Y-15145331D01*
X10135453Y-15145331D02*
X10144977Y-15164379D01*
X10144977Y-15164379D02*
X10154501Y-15202474D01*
X10154501Y-15202474D02*
X10154501Y-15250093D01*
X10154501Y-15250093D02*
X10144977Y-15288188D01*
X10144977Y-15288188D02*
X10135453Y-15307236D01*
X10135453Y-15307236D02*
X10125929Y-15316760D01*
X10125929Y-15316760D02*
X10106882Y-15326284D01*
X10106882Y-15326284D02*
X10087834Y-15326284D01*
X10087834Y-15326284D02*
X10068787Y-15316760D01*
X10068787Y-15316760D02*
X10059263Y-15307236D01*
X10059263Y-15307236D02*
X10049739Y-15288188D01*
X10049739Y-15288188D02*
X10040215Y-15250093D01*
X10040215Y-15250093D02*
X10040215Y-15202474D01*
X10040215Y-15202474D02*
X10049739Y-15164379D01*
X10049739Y-15164379D02*
X10059263Y-15145331D01*
X10059263Y-15145331D02*
X10068787Y-15135808D01*
X10068787Y-15135808D02*
X10087834Y-15126284D01*
X10240215Y-15307236D02*
X10249739Y-15316760D01*
X10249739Y-15316760D02*
X10240215Y-15326284D01*
X10240215Y-15326284D02*
X10230691Y-15316760D01*
X10230691Y-15316760D02*
X10240215Y-15307236D01*
X10240215Y-15307236D02*
X10240215Y-15326284D01*
X10373548Y-15126284D02*
X10392596Y-15126284D01*
X10392596Y-15126284D02*
X10411644Y-15135808D01*
X10411644Y-15135808D02*
X10421168Y-15145331D01*
X10421168Y-15145331D02*
X10430691Y-15164379D01*
X10430691Y-15164379D02*
X10440215Y-15202474D01*
X10440215Y-15202474D02*
X10440215Y-15250093D01*
X10440215Y-15250093D02*
X10430691Y-15288188D01*
X10430691Y-15288188D02*
X10421168Y-15307236D01*
X10421168Y-15307236D02*
X10411644Y-15316760D01*
X10411644Y-15316760D02*
X10392596Y-15326284D01*
X10392596Y-15326284D02*
X10373548Y-15326284D01*
X10373548Y-15326284D02*
X10354501Y-15316760D01*
X10354501Y-15316760D02*
X10344977Y-15307236D01*
X10344977Y-15307236D02*
X10335453Y-15288188D01*
X10335453Y-15288188D02*
X10325929Y-15250093D01*
X10325929Y-15250093D02*
X10325929Y-15202474D01*
X10325929Y-15202474D02*
X10335453Y-15164379D01*
X10335453Y-15164379D02*
X10344977Y-15145331D01*
X10344977Y-15145331D02*
X10354501Y-15135808D01*
X10354501Y-15135808D02*
X10373548Y-15126284D01*
X10506882Y-15126284D02*
X10640215Y-15126284D01*
X10640215Y-15126284D02*
X10554501Y-15326284D01*
X10706882Y-15145331D02*
X10716406Y-15135808D01*
X10716406Y-15135808D02*
X10735453Y-15126284D01*
X10735453Y-15126284D02*
X10783072Y-15126284D01*
X10783072Y-15126284D02*
X10802120Y-15135808D01*
X10802120Y-15135808D02*
X10811644Y-15145331D01*
X10811644Y-15145331D02*
X10821168Y-15164379D01*
X10821168Y-15164379D02*
X10821168Y-15183427D01*
X10821168Y-15183427D02*
X10811644Y-15211998D01*
X10811644Y-15211998D02*
X10697358Y-15326284D01*
X10697358Y-15326284D02*
X10821168Y-15326284D01*
X10935453Y-15211998D02*
X10916406Y-15202474D01*
X10916406Y-15202474D02*
X10906882Y-15192950D01*
X10906882Y-15192950D02*
X10897358Y-15173903D01*
X10897358Y-15173903D02*
X10897358Y-15164379D01*
X10897358Y-15164379D02*
X10906882Y-15145331D01*
X10906882Y-15145331D02*
X10916406Y-15135808D01*
X10916406Y-15135808D02*
X10935453Y-15126284D01*
X10935453Y-15126284D02*
X10973549Y-15126284D01*
X10973549Y-15126284D02*
X10992596Y-15135808D01*
X10992596Y-15135808D02*
X11002120Y-15145331D01*
X11002120Y-15145331D02*
X11011644Y-15164379D01*
X11011644Y-15164379D02*
X11011644Y-15173903D01*
X11011644Y-15173903D02*
X11002120Y-15192950D01*
X11002120Y-15192950D02*
X10992596Y-15202474D01*
X10992596Y-15202474D02*
X10973549Y-15211998D01*
X10973549Y-15211998D02*
X10935453Y-15211998D01*
X10935453Y-15211998D02*
X10916406Y-15221522D01*
X10916406Y-15221522D02*
X10906882Y-15231046D01*
X10906882Y-15231046D02*
X10897358Y-15250093D01*
X10897358Y-15250093D02*
X10897358Y-15288188D01*
X10897358Y-15288188D02*
X10906882Y-15307236D01*
X10906882Y-15307236D02*
X10916406Y-15316760D01*
X10916406Y-15316760D02*
X10935453Y-15326284D01*
X10935453Y-15326284D02*
X10973549Y-15326284D01*
X10973549Y-15326284D02*
X10992596Y-15316760D01*
X10992596Y-15316760D02*
X11002120Y-15307236D01*
X11002120Y-15307236D02*
X11011644Y-15288188D01*
X11011644Y-15288188D02*
X11011644Y-15250093D01*
X11011644Y-15250093D02*
X11002120Y-15231046D01*
X11002120Y-15231046D02*
X10992596Y-15221522D01*
X10992596Y-15221522D02*
X10973549Y-15211998D01*
X11087834Y-15126284D02*
X11087834Y-15164379D01*
X11164025Y-15126284D02*
X11164025Y-15164379D01*
X11459263Y-15402474D02*
X11449739Y-15392950D01*
X11449739Y-15392950D02*
X11430691Y-15364379D01*
X11430691Y-15364379D02*
X11421168Y-15345331D01*
X11421168Y-15345331D02*
X11411644Y-15316760D01*
X11411644Y-15316760D02*
X11402120Y-15269141D01*
X11402120Y-15269141D02*
X11402120Y-15231046D01*
X11402120Y-15231046D02*
X11411644Y-15183427D01*
X11411644Y-15183427D02*
X11421168Y-15154855D01*
X11421168Y-15154855D02*
X11430691Y-15135808D01*
X11430691Y-15135808D02*
X11449739Y-15107236D01*
X11449739Y-15107236D02*
X11459263Y-15097712D01*
X11525929Y-15145331D02*
X11535453Y-15135808D01*
X11535453Y-15135808D02*
X11554501Y-15126284D01*
X11554501Y-15126284D02*
X11602120Y-15126284D01*
X11602120Y-15126284D02*
X11621168Y-15135808D01*
X11621168Y-15135808D02*
X11630691Y-15145331D01*
X11630691Y-15145331D02*
X11640215Y-15164379D01*
X11640215Y-15164379D02*
X11640215Y-15183427D01*
X11640215Y-15183427D02*
X11630691Y-15211998D01*
X11630691Y-15211998D02*
X11516406Y-15326284D01*
X11516406Y-15326284D02*
X11640215Y-15326284D01*
X11878310Y-15326284D02*
X11878310Y-15126284D01*
X11964025Y-15326284D02*
X11964025Y-15221522D01*
X11964025Y-15221522D02*
X11954501Y-15202474D01*
X11954501Y-15202474D02*
X11935453Y-15192950D01*
X11935453Y-15192950D02*
X11906882Y-15192950D01*
X11906882Y-15192950D02*
X11887834Y-15202474D01*
X11887834Y-15202474D02*
X11878310Y-15211998D01*
X12087834Y-15326284D02*
X12068787Y-15316760D01*
X12068787Y-15316760D02*
X12059263Y-15307236D01*
X12059263Y-15307236D02*
X12049739Y-15288188D01*
X12049739Y-15288188D02*
X12049739Y-15231046D01*
X12049739Y-15231046D02*
X12059263Y-15211998D01*
X12059263Y-15211998D02*
X12068787Y-15202474D01*
X12068787Y-15202474D02*
X12087834Y-15192950D01*
X12087834Y-15192950D02*
X12116406Y-15192950D01*
X12116406Y-15192950D02*
X12135453Y-15202474D01*
X12135453Y-15202474D02*
X12144977Y-15211998D01*
X12144977Y-15211998D02*
X12154501Y-15231046D01*
X12154501Y-15231046D02*
X12154501Y-15288188D01*
X12154501Y-15288188D02*
X12144977Y-15307236D01*
X12144977Y-15307236D02*
X12135453Y-15316760D01*
X12135453Y-15316760D02*
X12116406Y-15326284D01*
X12116406Y-15326284D02*
X12087834Y-15326284D01*
X12268787Y-15326284D02*
X12249739Y-15316760D01*
X12249739Y-15316760D02*
X12240215Y-15297712D01*
X12240215Y-15297712D02*
X12240215Y-15126284D01*
X12421168Y-15316760D02*
X12402120Y-15326284D01*
X12402120Y-15326284D02*
X12364025Y-15326284D01*
X12364025Y-15326284D02*
X12344977Y-15316760D01*
X12344977Y-15316760D02*
X12335453Y-15297712D01*
X12335453Y-15297712D02*
X12335453Y-15221522D01*
X12335453Y-15221522D02*
X12344977Y-15202474D01*
X12344977Y-15202474D02*
X12364025Y-15192950D01*
X12364025Y-15192950D02*
X12402120Y-15192950D01*
X12402120Y-15192950D02*
X12421168Y-15202474D01*
X12421168Y-15202474D02*
X12430691Y-15221522D01*
X12430691Y-15221522D02*
X12430691Y-15240569D01*
X12430691Y-15240569D02*
X12335453Y-15259617D01*
X12506882Y-15316760D02*
X12525930Y-15326284D01*
X12525930Y-15326284D02*
X12564025Y-15326284D01*
X12564025Y-15326284D02*
X12583072Y-15316760D01*
X12583072Y-15316760D02*
X12592596Y-15297712D01*
X12592596Y-15297712D02*
X12592596Y-15288188D01*
X12592596Y-15288188D02*
X12583072Y-15269141D01*
X12583072Y-15269141D02*
X12564025Y-15259617D01*
X12564025Y-15259617D02*
X12535453Y-15259617D01*
X12535453Y-15259617D02*
X12516406Y-15250093D01*
X12516406Y-15250093D02*
X12506882Y-15231046D01*
X12506882Y-15231046D02*
X12506882Y-15221522D01*
X12506882Y-15221522D02*
X12516406Y-15202474D01*
X12516406Y-15202474D02*
X12535453Y-15192950D01*
X12535453Y-15192950D02*
X12564025Y-15192950D01*
X12564025Y-15192950D02*
X12583072Y-15202474D01*
X12659263Y-15402474D02*
X12668787Y-15392950D01*
X12668787Y-15392950D02*
X12687834Y-15364379D01*
X12687834Y-15364379D02*
X12697358Y-15345331D01*
X12697358Y-15345331D02*
X12706882Y-15316760D01*
X12706882Y-15316760D02*
X12716406Y-15269141D01*
X12716406Y-15269141D02*
X12716406Y-15231046D01*
X12716406Y-15231046D02*
X12706882Y-15183427D01*
X12706882Y-15183427D02*
X12697358Y-15154855D01*
X12697358Y-15154855D02*
X12687834Y-15135808D01*
X12687834Y-15135808D02*
X12668787Y-15107236D01*
X12668787Y-15107236D02*
X12659263Y-15097712D01*
X13021168Y-15402474D02*
X13011644Y-15392950D01*
X13011644Y-15392950D02*
X12992596Y-15364379D01*
X12992596Y-15364379D02*
X12983072Y-15345331D01*
X12983072Y-15345331D02*
X12973549Y-15316760D01*
X12973549Y-15316760D02*
X12964025Y-15269141D01*
X12964025Y-15269141D02*
X12964025Y-15231046D01*
X12964025Y-15231046D02*
X12973549Y-15183427D01*
X12973549Y-15183427D02*
X12983072Y-15154855D01*
X12983072Y-15154855D02*
X12992596Y-15135808D01*
X12992596Y-15135808D02*
X13011644Y-15107236D01*
X13011644Y-15107236D02*
X13021168Y-15097712D01*
X13097358Y-15192950D02*
X13097358Y-15326284D01*
X13097358Y-15211998D02*
X13106882Y-15202474D01*
X13106882Y-15202474D02*
X13125930Y-15192950D01*
X13125930Y-15192950D02*
X13154501Y-15192950D01*
X13154501Y-15192950D02*
X13173549Y-15202474D01*
X13173549Y-15202474D02*
X13183072Y-15221522D01*
X13183072Y-15221522D02*
X13183072Y-15326284D01*
X13306882Y-15326284D02*
X13287834Y-15316760D01*
X13287834Y-15316760D02*
X13278311Y-15307236D01*
X13278311Y-15307236D02*
X13268787Y-15288188D01*
X13268787Y-15288188D02*
X13268787Y-15231046D01*
X13268787Y-15231046D02*
X13278311Y-15211998D01*
X13278311Y-15211998D02*
X13287834Y-15202474D01*
X13287834Y-15202474D02*
X13306882Y-15192950D01*
X13306882Y-15192950D02*
X13335453Y-15192950D01*
X13335453Y-15192950D02*
X13354501Y-15202474D01*
X13354501Y-15202474D02*
X13364025Y-15211998D01*
X13364025Y-15211998D02*
X13373549Y-15231046D01*
X13373549Y-15231046D02*
X13373549Y-15288188D01*
X13373549Y-15288188D02*
X13364025Y-15307236D01*
X13364025Y-15307236D02*
X13354501Y-15316760D01*
X13354501Y-15316760D02*
X13335453Y-15326284D01*
X13335453Y-15326284D02*
X13306882Y-15326284D01*
X13430692Y-15192950D02*
X13506882Y-15192950D01*
X13459263Y-15126284D02*
X13459263Y-15297712D01*
X13459263Y-15297712D02*
X13468787Y-15316760D01*
X13468787Y-15316760D02*
X13487834Y-15326284D01*
X13487834Y-15326284D02*
X13506882Y-15326284D01*
X13725930Y-15192950D02*
X13725930Y-15392950D01*
X13725930Y-15202474D02*
X13744977Y-15192950D01*
X13744977Y-15192950D02*
X13783073Y-15192950D01*
X13783073Y-15192950D02*
X13802120Y-15202474D01*
X13802120Y-15202474D02*
X13811644Y-15211998D01*
X13811644Y-15211998D02*
X13821168Y-15231046D01*
X13821168Y-15231046D02*
X13821168Y-15288188D01*
X13821168Y-15288188D02*
X13811644Y-15307236D01*
X13811644Y-15307236D02*
X13802120Y-15316760D01*
X13802120Y-15316760D02*
X13783073Y-15326284D01*
X13783073Y-15326284D02*
X13744977Y-15326284D01*
X13744977Y-15326284D02*
X13725930Y-15316760D01*
X13935453Y-15326284D02*
X13916406Y-15316760D01*
X13916406Y-15316760D02*
X13906882Y-15297712D01*
X13906882Y-15297712D02*
X13906882Y-15126284D01*
X14097358Y-15326284D02*
X14097358Y-15221522D01*
X14097358Y-15221522D02*
X14087834Y-15202474D01*
X14087834Y-15202474D02*
X14068787Y-15192950D01*
X14068787Y-15192950D02*
X14030692Y-15192950D01*
X14030692Y-15192950D02*
X14011644Y-15202474D01*
X14097358Y-15316760D02*
X14078311Y-15326284D01*
X14078311Y-15326284D02*
X14030692Y-15326284D01*
X14030692Y-15326284D02*
X14011644Y-15316760D01*
X14011644Y-15316760D02*
X14002120Y-15297712D01*
X14002120Y-15297712D02*
X14002120Y-15278665D01*
X14002120Y-15278665D02*
X14011644Y-15259617D01*
X14011644Y-15259617D02*
X14030692Y-15250093D01*
X14030692Y-15250093D02*
X14078311Y-15250093D01*
X14078311Y-15250093D02*
X14097358Y-15240569D01*
X14164025Y-15192950D02*
X14240215Y-15192950D01*
X14192596Y-15126284D02*
X14192596Y-15297712D01*
X14192596Y-15297712D02*
X14202120Y-15316760D01*
X14202120Y-15316760D02*
X14221168Y-15326284D01*
X14221168Y-15326284D02*
X14240215Y-15326284D01*
X14383073Y-15316760D02*
X14364025Y-15326284D01*
X14364025Y-15326284D02*
X14325930Y-15326284D01*
X14325930Y-15326284D02*
X14306882Y-15316760D01*
X14306882Y-15316760D02*
X14297358Y-15297712D01*
X14297358Y-15297712D02*
X14297358Y-15221522D01*
X14297358Y-15221522D02*
X14306882Y-15202474D01*
X14306882Y-15202474D02*
X14325930Y-15192950D01*
X14325930Y-15192950D02*
X14364025Y-15192950D01*
X14364025Y-15192950D02*
X14383073Y-15202474D01*
X14383073Y-15202474D02*
X14392596Y-15221522D01*
X14392596Y-15221522D02*
X14392596Y-15240569D01*
X14392596Y-15240569D02*
X14297358Y-15259617D01*
X14564025Y-15326284D02*
X14564025Y-15126284D01*
X14564025Y-15316760D02*
X14544977Y-15326284D01*
X14544977Y-15326284D02*
X14506882Y-15326284D01*
X14506882Y-15326284D02*
X14487834Y-15316760D01*
X14487834Y-15316760D02*
X14478311Y-15307236D01*
X14478311Y-15307236D02*
X14468787Y-15288188D01*
X14468787Y-15288188D02*
X14468787Y-15231046D01*
X14468787Y-15231046D02*
X14478311Y-15211998D01*
X14478311Y-15211998D02*
X14487834Y-15202474D01*
X14487834Y-15202474D02*
X14506882Y-15192950D01*
X14506882Y-15192950D02*
X14544977Y-15192950D01*
X14544977Y-15192950D02*
X14564025Y-15202474D01*
X14640215Y-15402474D02*
X14649739Y-15392950D01*
X14649739Y-15392950D02*
X14668787Y-15364379D01*
X14668787Y-15364379D02*
X14678311Y-15345331D01*
X14678311Y-15345331D02*
X14687834Y-15316760D01*
X14687834Y-15316760D02*
X14697358Y-15269141D01*
X14697358Y-15269141D02*
X14697358Y-15231046D01*
X14697358Y-15231046D02*
X14687834Y-15183427D01*
X14687834Y-15183427D02*
X14678311Y-15154855D01*
X14678311Y-15154855D02*
X14668787Y-15135808D01*
X14668787Y-15135808D02*
X14649739Y-15107236D01*
X14649739Y-15107236D02*
X14640215Y-15097712D01*
X7884200Y-15539800D02*
G75*
G02*
X7684200Y-15539800I-100000J0D01*
G01*
X7684200Y-15539800D02*
G75*
G02*
X7884200Y-15539800I100000J0D01*
G01*
X8135453Y-15450331D02*
X8144977Y-15440808D01*
X8144977Y-15440808D02*
X8164024Y-15431284D01*
X8164024Y-15431284D02*
X8211643Y-15431284D01*
X8211643Y-15431284D02*
X8230691Y-15440808D01*
X8230691Y-15440808D02*
X8240215Y-15450331D01*
X8240215Y-15450331D02*
X8249739Y-15469379D01*
X8249739Y-15469379D02*
X8249739Y-15488427D01*
X8249739Y-15488427D02*
X8240215Y-15516998D01*
X8240215Y-15516998D02*
X8125929Y-15631284D01*
X8125929Y-15631284D02*
X8249739Y-15631284D01*
X8335453Y-15612236D02*
X8344977Y-15621760D01*
X8344977Y-15621760D02*
X8335453Y-15631284D01*
X8335453Y-15631284D02*
X8325929Y-15621760D01*
X8325929Y-15621760D02*
X8335453Y-15612236D01*
X8335453Y-15612236D02*
X8335453Y-15631284D01*
X8421167Y-15450331D02*
X8430691Y-15440808D01*
X8430691Y-15440808D02*
X8449739Y-15431284D01*
X8449739Y-15431284D02*
X8497358Y-15431284D01*
X8497358Y-15431284D02*
X8516405Y-15440808D01*
X8516405Y-15440808D02*
X8525929Y-15450331D01*
X8525929Y-15450331D02*
X8535453Y-15469379D01*
X8535453Y-15469379D02*
X8535453Y-15488427D01*
X8535453Y-15488427D02*
X8525929Y-15516998D01*
X8525929Y-15516998D02*
X8411644Y-15631284D01*
X8411644Y-15631284D02*
X8535453Y-15631284D01*
X8659263Y-15431284D02*
X8678310Y-15431284D01*
X8678310Y-15431284D02*
X8697358Y-15440808D01*
X8697358Y-15440808D02*
X8706882Y-15450331D01*
X8706882Y-15450331D02*
X8716405Y-15469379D01*
X8716405Y-15469379D02*
X8725929Y-15507474D01*
X8725929Y-15507474D02*
X8725929Y-15555093D01*
X8725929Y-15555093D02*
X8716405Y-15593188D01*
X8716405Y-15593188D02*
X8706882Y-15612236D01*
X8706882Y-15612236D02*
X8697358Y-15621760D01*
X8697358Y-15621760D02*
X8678310Y-15631284D01*
X8678310Y-15631284D02*
X8659263Y-15631284D01*
X8659263Y-15631284D02*
X8640215Y-15621760D01*
X8640215Y-15621760D02*
X8630691Y-15612236D01*
X8630691Y-15612236D02*
X8621167Y-15593188D01*
X8621167Y-15593188D02*
X8611644Y-15555093D01*
X8611644Y-15555093D02*
X8611644Y-15507474D01*
X8611644Y-15507474D02*
X8621167Y-15469379D01*
X8621167Y-15469379D02*
X8630691Y-15450331D01*
X8630691Y-15450331D02*
X8640215Y-15440808D01*
X8640215Y-15440808D02*
X8659263Y-15431284D01*
X8849739Y-15431284D02*
X8868786Y-15431284D01*
X8868786Y-15431284D02*
X8887834Y-15440808D01*
X8887834Y-15440808D02*
X8897358Y-15450331D01*
X8897358Y-15450331D02*
X8906882Y-15469379D01*
X8906882Y-15469379D02*
X8916405Y-15507474D01*
X8916405Y-15507474D02*
X8916405Y-15555093D01*
X8916405Y-15555093D02*
X8906882Y-15593188D01*
X8906882Y-15593188D02*
X8897358Y-15612236D01*
X8897358Y-15612236D02*
X8887834Y-15621760D01*
X8887834Y-15621760D02*
X8868786Y-15631284D01*
X8868786Y-15631284D02*
X8849739Y-15631284D01*
X8849739Y-15631284D02*
X8830691Y-15621760D01*
X8830691Y-15621760D02*
X8821167Y-15612236D01*
X8821167Y-15612236D02*
X8811644Y-15593188D01*
X8811644Y-15593188D02*
X8802120Y-15555093D01*
X8802120Y-15555093D02*
X8802120Y-15507474D01*
X8802120Y-15507474D02*
X8811644Y-15469379D01*
X8811644Y-15469379D02*
X8821167Y-15450331D01*
X8821167Y-15450331D02*
X8830691Y-15440808D01*
X8830691Y-15440808D02*
X8849739Y-15431284D01*
X9002120Y-15631284D02*
X9002120Y-15497950D01*
X9002120Y-15516998D02*
X9011644Y-15507474D01*
X9011644Y-15507474D02*
X9030691Y-15497950D01*
X9030691Y-15497950D02*
X9059263Y-15497950D01*
X9059263Y-15497950D02*
X9078310Y-15507474D01*
X9078310Y-15507474D02*
X9087834Y-15526522D01*
X9087834Y-15526522D02*
X9087834Y-15631284D01*
X9087834Y-15526522D02*
X9097358Y-15507474D01*
X9097358Y-15507474D02*
X9116405Y-15497950D01*
X9116405Y-15497950D02*
X9144977Y-15497950D01*
X9144977Y-15497950D02*
X9164025Y-15507474D01*
X9164025Y-15507474D02*
X9173548Y-15526522D01*
X9173548Y-15526522D02*
X9173548Y-15631284D01*
X9268786Y-15631284D02*
X9268786Y-15497950D01*
X9268786Y-15516998D02*
X9278310Y-15507474D01*
X9278310Y-15507474D02*
X9297358Y-15497950D01*
X9297358Y-15497950D02*
X9325929Y-15497950D01*
X9325929Y-15497950D02*
X9344977Y-15507474D01*
X9344977Y-15507474D02*
X9354501Y-15526522D01*
X9354501Y-15526522D02*
X9354501Y-15631284D01*
X9354501Y-15526522D02*
X9364025Y-15507474D01*
X9364025Y-15507474D02*
X9383072Y-15497950D01*
X9383072Y-15497950D02*
X9411644Y-15497950D01*
X9411644Y-15497950D02*
X9430691Y-15507474D01*
X9430691Y-15507474D02*
X9440215Y-15526522D01*
X9440215Y-15526522D02*
X9440215Y-15631284D01*
X9830691Y-15421760D02*
X9659263Y-15678903D01*
X10087834Y-15431284D02*
X10106882Y-15431284D01*
X10106882Y-15431284D02*
X10125929Y-15440808D01*
X10125929Y-15440808D02*
X10135453Y-15450331D01*
X10135453Y-15450331D02*
X10144977Y-15469379D01*
X10144977Y-15469379D02*
X10154501Y-15507474D01*
X10154501Y-15507474D02*
X10154501Y-15555093D01*
X10154501Y-15555093D02*
X10144977Y-15593188D01*
X10144977Y-15593188D02*
X10135453Y-15612236D01*
X10135453Y-15612236D02*
X10125929Y-15621760D01*
X10125929Y-15621760D02*
X10106882Y-15631284D01*
X10106882Y-15631284D02*
X10087834Y-15631284D01*
X10087834Y-15631284D02*
X10068787Y-15621760D01*
X10068787Y-15621760D02*
X10059263Y-15612236D01*
X10059263Y-15612236D02*
X10049739Y-15593188D01*
X10049739Y-15593188D02*
X10040215Y-15555093D01*
X10040215Y-15555093D02*
X10040215Y-15507474D01*
X10040215Y-15507474D02*
X10049739Y-15469379D01*
X10049739Y-15469379D02*
X10059263Y-15450331D01*
X10059263Y-15450331D02*
X10068787Y-15440808D01*
X10068787Y-15440808D02*
X10087834Y-15431284D01*
X10240215Y-15612236D02*
X10249739Y-15621760D01*
X10249739Y-15621760D02*
X10240215Y-15631284D01*
X10240215Y-15631284D02*
X10230691Y-15621760D01*
X10230691Y-15621760D02*
X10240215Y-15612236D01*
X10240215Y-15612236D02*
X10240215Y-15631284D01*
X10373548Y-15431284D02*
X10392596Y-15431284D01*
X10392596Y-15431284D02*
X10411644Y-15440808D01*
X10411644Y-15440808D02*
X10421168Y-15450331D01*
X10421168Y-15450331D02*
X10430691Y-15469379D01*
X10430691Y-15469379D02*
X10440215Y-15507474D01*
X10440215Y-15507474D02*
X10440215Y-15555093D01*
X10440215Y-15555093D02*
X10430691Y-15593188D01*
X10430691Y-15593188D02*
X10421168Y-15612236D01*
X10421168Y-15612236D02*
X10411644Y-15621760D01*
X10411644Y-15621760D02*
X10392596Y-15631284D01*
X10392596Y-15631284D02*
X10373548Y-15631284D01*
X10373548Y-15631284D02*
X10354501Y-15621760D01*
X10354501Y-15621760D02*
X10344977Y-15612236D01*
X10344977Y-15612236D02*
X10335453Y-15593188D01*
X10335453Y-15593188D02*
X10325929Y-15555093D01*
X10325929Y-15555093D02*
X10325929Y-15507474D01*
X10325929Y-15507474D02*
X10335453Y-15469379D01*
X10335453Y-15469379D02*
X10344977Y-15450331D01*
X10344977Y-15450331D02*
X10354501Y-15440808D01*
X10354501Y-15440808D02*
X10373548Y-15431284D01*
X10554501Y-15516998D02*
X10535453Y-15507474D01*
X10535453Y-15507474D02*
X10525929Y-15497950D01*
X10525929Y-15497950D02*
X10516406Y-15478903D01*
X10516406Y-15478903D02*
X10516406Y-15469379D01*
X10516406Y-15469379D02*
X10525929Y-15450331D01*
X10525929Y-15450331D02*
X10535453Y-15440808D01*
X10535453Y-15440808D02*
X10554501Y-15431284D01*
X10554501Y-15431284D02*
X10592596Y-15431284D01*
X10592596Y-15431284D02*
X10611644Y-15440808D01*
X10611644Y-15440808D02*
X10621168Y-15450331D01*
X10621168Y-15450331D02*
X10630691Y-15469379D01*
X10630691Y-15469379D02*
X10630691Y-15478903D01*
X10630691Y-15478903D02*
X10621168Y-15497950D01*
X10621168Y-15497950D02*
X10611644Y-15507474D01*
X10611644Y-15507474D02*
X10592596Y-15516998D01*
X10592596Y-15516998D02*
X10554501Y-15516998D01*
X10554501Y-15516998D02*
X10535453Y-15526522D01*
X10535453Y-15526522D02*
X10525929Y-15536046D01*
X10525929Y-15536046D02*
X10516406Y-15555093D01*
X10516406Y-15555093D02*
X10516406Y-15593188D01*
X10516406Y-15593188D02*
X10525929Y-15612236D01*
X10525929Y-15612236D02*
X10535453Y-15621760D01*
X10535453Y-15621760D02*
X10554501Y-15631284D01*
X10554501Y-15631284D02*
X10592596Y-15631284D01*
X10592596Y-15631284D02*
X10611644Y-15621760D01*
X10611644Y-15621760D02*
X10621168Y-15612236D01*
X10621168Y-15612236D02*
X10630691Y-15593188D01*
X10630691Y-15593188D02*
X10630691Y-15555093D01*
X10630691Y-15555093D02*
X10621168Y-15536046D01*
X10621168Y-15536046D02*
X10611644Y-15526522D01*
X10611644Y-15526522D02*
X10592596Y-15516998D01*
X10802120Y-15431284D02*
X10764025Y-15431284D01*
X10764025Y-15431284D02*
X10744977Y-15440808D01*
X10744977Y-15440808D02*
X10735453Y-15450331D01*
X10735453Y-15450331D02*
X10716406Y-15478903D01*
X10716406Y-15478903D02*
X10706882Y-15516998D01*
X10706882Y-15516998D02*
X10706882Y-15593188D01*
X10706882Y-15593188D02*
X10716406Y-15612236D01*
X10716406Y-15612236D02*
X10725929Y-15621760D01*
X10725929Y-15621760D02*
X10744977Y-15631284D01*
X10744977Y-15631284D02*
X10783072Y-15631284D01*
X10783072Y-15631284D02*
X10802120Y-15621760D01*
X10802120Y-15621760D02*
X10811644Y-15612236D01*
X10811644Y-15612236D02*
X10821168Y-15593188D01*
X10821168Y-15593188D02*
X10821168Y-15545569D01*
X10821168Y-15545569D02*
X10811644Y-15526522D01*
X10811644Y-15526522D02*
X10802120Y-15516998D01*
X10802120Y-15516998D02*
X10783072Y-15507474D01*
X10783072Y-15507474D02*
X10744977Y-15507474D01*
X10744977Y-15507474D02*
X10725929Y-15516998D01*
X10725929Y-15516998D02*
X10716406Y-15526522D01*
X10716406Y-15526522D02*
X10706882Y-15545569D01*
X10992596Y-15431284D02*
X10954501Y-15431284D01*
X10954501Y-15431284D02*
X10935453Y-15440808D01*
X10935453Y-15440808D02*
X10925929Y-15450331D01*
X10925929Y-15450331D02*
X10906882Y-15478903D01*
X10906882Y-15478903D02*
X10897358Y-15516998D01*
X10897358Y-15516998D02*
X10897358Y-15593188D01*
X10897358Y-15593188D02*
X10906882Y-15612236D01*
X10906882Y-15612236D02*
X10916406Y-15621760D01*
X10916406Y-15621760D02*
X10935453Y-15631284D01*
X10935453Y-15631284D02*
X10973549Y-15631284D01*
X10973549Y-15631284D02*
X10992596Y-15621760D01*
X10992596Y-15621760D02*
X11002120Y-15612236D01*
X11002120Y-15612236D02*
X11011644Y-15593188D01*
X11011644Y-15593188D02*
X11011644Y-15545569D01*
X11011644Y-15545569D02*
X11002120Y-15526522D01*
X11002120Y-15526522D02*
X10992596Y-15516998D01*
X10992596Y-15516998D02*
X10973549Y-15507474D01*
X10973549Y-15507474D02*
X10935453Y-15507474D01*
X10935453Y-15507474D02*
X10916406Y-15516998D01*
X10916406Y-15516998D02*
X10906882Y-15526522D01*
X10906882Y-15526522D02*
X10897358Y-15545569D01*
X11087834Y-15431284D02*
X11087834Y-15469379D01*
X11164025Y-15431284D02*
X11164025Y-15469379D01*
X11459263Y-15707474D02*
X11449739Y-15697950D01*
X11449739Y-15697950D02*
X11430691Y-15669379D01*
X11430691Y-15669379D02*
X11421168Y-15650331D01*
X11421168Y-15650331D02*
X11411644Y-15621760D01*
X11411644Y-15621760D02*
X11402120Y-15574141D01*
X11402120Y-15574141D02*
X11402120Y-15536046D01*
X11402120Y-15536046D02*
X11411644Y-15488427D01*
X11411644Y-15488427D02*
X11421168Y-15459855D01*
X11421168Y-15459855D02*
X11430691Y-15440808D01*
X11430691Y-15440808D02*
X11449739Y-15412236D01*
X11449739Y-15412236D02*
X11459263Y-15402712D01*
X11525929Y-15450331D02*
X11535453Y-15440808D01*
X11535453Y-15440808D02*
X11554501Y-15431284D01*
X11554501Y-15431284D02*
X11602120Y-15431284D01*
X11602120Y-15431284D02*
X11621168Y-15440808D01*
X11621168Y-15440808D02*
X11630691Y-15450331D01*
X11630691Y-15450331D02*
X11640215Y-15469379D01*
X11640215Y-15469379D02*
X11640215Y-15488427D01*
X11640215Y-15488427D02*
X11630691Y-15516998D01*
X11630691Y-15516998D02*
X11516406Y-15631284D01*
X11516406Y-15631284D02*
X11640215Y-15631284D01*
X11878310Y-15631284D02*
X11878310Y-15431284D01*
X11964025Y-15631284D02*
X11964025Y-15526522D01*
X11964025Y-15526522D02*
X11954501Y-15507474D01*
X11954501Y-15507474D02*
X11935453Y-15497950D01*
X11935453Y-15497950D02*
X11906882Y-15497950D01*
X11906882Y-15497950D02*
X11887834Y-15507474D01*
X11887834Y-15507474D02*
X11878310Y-15516998D01*
X12087834Y-15631284D02*
X12068787Y-15621760D01*
X12068787Y-15621760D02*
X12059263Y-15612236D01*
X12059263Y-15612236D02*
X12049739Y-15593188D01*
X12049739Y-15593188D02*
X12049739Y-15536046D01*
X12049739Y-15536046D02*
X12059263Y-15516998D01*
X12059263Y-15516998D02*
X12068787Y-15507474D01*
X12068787Y-15507474D02*
X12087834Y-15497950D01*
X12087834Y-15497950D02*
X12116406Y-15497950D01*
X12116406Y-15497950D02*
X12135453Y-15507474D01*
X12135453Y-15507474D02*
X12144977Y-15516998D01*
X12144977Y-15516998D02*
X12154501Y-15536046D01*
X12154501Y-15536046D02*
X12154501Y-15593188D01*
X12154501Y-15593188D02*
X12144977Y-15612236D01*
X12144977Y-15612236D02*
X12135453Y-15621760D01*
X12135453Y-15621760D02*
X12116406Y-15631284D01*
X12116406Y-15631284D02*
X12087834Y-15631284D01*
X12268787Y-15631284D02*
X12249739Y-15621760D01*
X12249739Y-15621760D02*
X12240215Y-15602712D01*
X12240215Y-15602712D02*
X12240215Y-15431284D01*
X12421168Y-15621760D02*
X12402120Y-15631284D01*
X12402120Y-15631284D02*
X12364025Y-15631284D01*
X12364025Y-15631284D02*
X12344977Y-15621760D01*
X12344977Y-15621760D02*
X12335453Y-15602712D01*
X12335453Y-15602712D02*
X12335453Y-15526522D01*
X12335453Y-15526522D02*
X12344977Y-15507474D01*
X12344977Y-15507474D02*
X12364025Y-15497950D01*
X12364025Y-15497950D02*
X12402120Y-15497950D01*
X12402120Y-15497950D02*
X12421168Y-15507474D01*
X12421168Y-15507474D02*
X12430691Y-15526522D01*
X12430691Y-15526522D02*
X12430691Y-15545569D01*
X12430691Y-15545569D02*
X12335453Y-15564617D01*
X12506882Y-15621760D02*
X12525930Y-15631284D01*
X12525930Y-15631284D02*
X12564025Y-15631284D01*
X12564025Y-15631284D02*
X12583072Y-15621760D01*
X12583072Y-15621760D02*
X12592596Y-15602712D01*
X12592596Y-15602712D02*
X12592596Y-15593188D01*
X12592596Y-15593188D02*
X12583072Y-15574141D01*
X12583072Y-15574141D02*
X12564025Y-15564617D01*
X12564025Y-15564617D02*
X12535453Y-15564617D01*
X12535453Y-15564617D02*
X12516406Y-15555093D01*
X12516406Y-15555093D02*
X12506882Y-15536046D01*
X12506882Y-15536046D02*
X12506882Y-15526522D01*
X12506882Y-15526522D02*
X12516406Y-15507474D01*
X12516406Y-15507474D02*
X12535453Y-15497950D01*
X12535453Y-15497950D02*
X12564025Y-15497950D01*
X12564025Y-15497950D02*
X12583072Y-15507474D01*
X12659263Y-15707474D02*
X12668787Y-15697950D01*
X12668787Y-15697950D02*
X12687834Y-15669379D01*
X12687834Y-15669379D02*
X12697358Y-15650331D01*
X12697358Y-15650331D02*
X12706882Y-15621760D01*
X12706882Y-15621760D02*
X12716406Y-15574141D01*
X12716406Y-15574141D02*
X12716406Y-15536046D01*
X12716406Y-15536046D02*
X12706882Y-15488427D01*
X12706882Y-15488427D02*
X12697358Y-15459855D01*
X12697358Y-15459855D02*
X12687834Y-15440808D01*
X12687834Y-15440808D02*
X12668787Y-15412236D01*
X12668787Y-15412236D02*
X12659263Y-15402712D01*
X13021168Y-15707474D02*
X13011644Y-15697950D01*
X13011644Y-15697950D02*
X12992596Y-15669379D01*
X12992596Y-15669379D02*
X12983072Y-15650331D01*
X12983072Y-15650331D02*
X12973549Y-15621760D01*
X12973549Y-15621760D02*
X12964025Y-15574141D01*
X12964025Y-15574141D02*
X12964025Y-15536046D01*
X12964025Y-15536046D02*
X12973549Y-15488427D01*
X12973549Y-15488427D02*
X12983072Y-15459855D01*
X12983072Y-15459855D02*
X12992596Y-15440808D01*
X12992596Y-15440808D02*
X13011644Y-15412236D01*
X13011644Y-15412236D02*
X13021168Y-15402712D01*
X13097358Y-15497950D02*
X13097358Y-15631284D01*
X13097358Y-15516998D02*
X13106882Y-15507474D01*
X13106882Y-15507474D02*
X13125930Y-15497950D01*
X13125930Y-15497950D02*
X13154501Y-15497950D01*
X13154501Y-15497950D02*
X13173549Y-15507474D01*
X13173549Y-15507474D02*
X13183072Y-15526522D01*
X13183072Y-15526522D02*
X13183072Y-15631284D01*
X13306882Y-15631284D02*
X13287834Y-15621760D01*
X13287834Y-15621760D02*
X13278311Y-15612236D01*
X13278311Y-15612236D02*
X13268787Y-15593188D01*
X13268787Y-15593188D02*
X13268787Y-15536046D01*
X13268787Y-15536046D02*
X13278311Y-15516998D01*
X13278311Y-15516998D02*
X13287834Y-15507474D01*
X13287834Y-15507474D02*
X13306882Y-15497950D01*
X13306882Y-15497950D02*
X13335453Y-15497950D01*
X13335453Y-15497950D02*
X13354501Y-15507474D01*
X13354501Y-15507474D02*
X13364025Y-15516998D01*
X13364025Y-15516998D02*
X13373549Y-15536046D01*
X13373549Y-15536046D02*
X13373549Y-15593188D01*
X13373549Y-15593188D02*
X13364025Y-15612236D01*
X13364025Y-15612236D02*
X13354501Y-15621760D01*
X13354501Y-15621760D02*
X13335453Y-15631284D01*
X13335453Y-15631284D02*
X13306882Y-15631284D01*
X13430692Y-15497950D02*
X13506882Y-15497950D01*
X13459263Y-15431284D02*
X13459263Y-15602712D01*
X13459263Y-15602712D02*
X13468787Y-15621760D01*
X13468787Y-15621760D02*
X13487834Y-15631284D01*
X13487834Y-15631284D02*
X13506882Y-15631284D01*
X13725930Y-15497950D02*
X13725930Y-15697950D01*
X13725930Y-15507474D02*
X13744977Y-15497950D01*
X13744977Y-15497950D02*
X13783073Y-15497950D01*
X13783073Y-15497950D02*
X13802120Y-15507474D01*
X13802120Y-15507474D02*
X13811644Y-15516998D01*
X13811644Y-15516998D02*
X13821168Y-15536046D01*
X13821168Y-15536046D02*
X13821168Y-15593188D01*
X13821168Y-15593188D02*
X13811644Y-15612236D01*
X13811644Y-15612236D02*
X13802120Y-15621760D01*
X13802120Y-15621760D02*
X13783073Y-15631284D01*
X13783073Y-15631284D02*
X13744977Y-15631284D01*
X13744977Y-15631284D02*
X13725930Y-15621760D01*
X13935453Y-15631284D02*
X13916406Y-15621760D01*
X13916406Y-15621760D02*
X13906882Y-15602712D01*
X13906882Y-15602712D02*
X13906882Y-15431284D01*
X14097358Y-15631284D02*
X14097358Y-15526522D01*
X14097358Y-15526522D02*
X14087834Y-15507474D01*
X14087834Y-15507474D02*
X14068787Y-15497950D01*
X14068787Y-15497950D02*
X14030692Y-15497950D01*
X14030692Y-15497950D02*
X14011644Y-15507474D01*
X14097358Y-15621760D02*
X14078311Y-15631284D01*
X14078311Y-15631284D02*
X14030692Y-15631284D01*
X14030692Y-15631284D02*
X14011644Y-15621760D01*
X14011644Y-15621760D02*
X14002120Y-15602712D01*
X14002120Y-15602712D02*
X14002120Y-15583665D01*
X14002120Y-15583665D02*
X14011644Y-15564617D01*
X14011644Y-15564617D02*
X14030692Y-15555093D01*
X14030692Y-15555093D02*
X14078311Y-15555093D01*
X14078311Y-15555093D02*
X14097358Y-15545569D01*
X14164025Y-15497950D02*
X14240215Y-15497950D01*
X14192596Y-15431284D02*
X14192596Y-15602712D01*
X14192596Y-15602712D02*
X14202120Y-15621760D01*
X14202120Y-15621760D02*
X14221168Y-15631284D01*
X14221168Y-15631284D02*
X14240215Y-15631284D01*
X14383073Y-15621760D02*
X14364025Y-15631284D01*
X14364025Y-15631284D02*
X14325930Y-15631284D01*
X14325930Y-15631284D02*
X14306882Y-15621760D01*
X14306882Y-15621760D02*
X14297358Y-15602712D01*
X14297358Y-15602712D02*
X14297358Y-15526522D01*
X14297358Y-15526522D02*
X14306882Y-15507474D01*
X14306882Y-15507474D02*
X14325930Y-15497950D01*
X14325930Y-15497950D02*
X14364025Y-15497950D01*
X14364025Y-15497950D02*
X14383073Y-15507474D01*
X14383073Y-15507474D02*
X14392596Y-15526522D01*
X14392596Y-15526522D02*
X14392596Y-15545569D01*
X14392596Y-15545569D02*
X14297358Y-15564617D01*
X14564025Y-15631284D02*
X14564025Y-15431284D01*
X14564025Y-15621760D02*
X14544977Y-15631284D01*
X14544977Y-15631284D02*
X14506882Y-15631284D01*
X14506882Y-15631284D02*
X14487834Y-15621760D01*
X14487834Y-15621760D02*
X14478311Y-15612236D01*
X14478311Y-15612236D02*
X14468787Y-15593188D01*
X14468787Y-15593188D02*
X14468787Y-15536046D01*
X14468787Y-15536046D02*
X14478311Y-15516998D01*
X14478311Y-15516998D02*
X14487834Y-15507474D01*
X14487834Y-15507474D02*
X14506882Y-15497950D01*
X14506882Y-15497950D02*
X14544977Y-15497950D01*
X14544977Y-15497950D02*
X14564025Y-15507474D01*
X14640215Y-15707474D02*
X14649739Y-15697950D01*
X14649739Y-15697950D02*
X14668787Y-15669379D01*
X14668787Y-15669379D02*
X14678311Y-15650331D01*
X14678311Y-15650331D02*
X14687834Y-15621760D01*
X14687834Y-15621760D02*
X14697358Y-15574141D01*
X14697358Y-15574141D02*
X14697358Y-15536046D01*
X14697358Y-15536046D02*
X14687834Y-15488427D01*
X14687834Y-15488427D02*
X14678311Y-15459855D01*
X14678311Y-15459855D02*
X14668787Y-15440808D01*
X14668787Y-15440808D02*
X14649739Y-15412236D01*
X14649739Y-15412236D02*
X14640215Y-15402712D01*
X7784200Y-15759800D02*
X7784200Y-15959800D01*
X7684200Y-15859800D02*
X7884200Y-15859800D01*
X8125929Y-15751284D02*
X8249739Y-15751284D01*
X8249739Y-15751284D02*
X8183072Y-15827474D01*
X8183072Y-15827474D02*
X8211643Y-15827474D01*
X8211643Y-15827474D02*
X8230691Y-15836998D01*
X8230691Y-15836998D02*
X8240215Y-15846522D01*
X8240215Y-15846522D02*
X8249739Y-15865569D01*
X8249739Y-15865569D02*
X8249739Y-15913188D01*
X8249739Y-15913188D02*
X8240215Y-15932236D01*
X8240215Y-15932236D02*
X8230691Y-15941760D01*
X8230691Y-15941760D02*
X8211643Y-15951284D01*
X8211643Y-15951284D02*
X8154501Y-15951284D01*
X8154501Y-15951284D02*
X8135453Y-15941760D01*
X8135453Y-15941760D02*
X8125929Y-15932236D01*
X8335453Y-15932236D02*
X8344977Y-15941760D01*
X8344977Y-15941760D02*
X8335453Y-15951284D01*
X8335453Y-15951284D02*
X8325929Y-15941760D01*
X8325929Y-15941760D02*
X8335453Y-15932236D01*
X8335453Y-15932236D02*
X8335453Y-15951284D01*
X8525929Y-15751284D02*
X8430691Y-15751284D01*
X8430691Y-15751284D02*
X8421167Y-15846522D01*
X8421167Y-15846522D02*
X8430691Y-15836998D01*
X8430691Y-15836998D02*
X8449739Y-15827474D01*
X8449739Y-15827474D02*
X8497358Y-15827474D01*
X8497358Y-15827474D02*
X8516405Y-15836998D01*
X8516405Y-15836998D02*
X8525929Y-15846522D01*
X8525929Y-15846522D02*
X8535453Y-15865569D01*
X8535453Y-15865569D02*
X8535453Y-15913188D01*
X8535453Y-15913188D02*
X8525929Y-15932236D01*
X8525929Y-15932236D02*
X8516405Y-15941760D01*
X8516405Y-15941760D02*
X8497358Y-15951284D01*
X8497358Y-15951284D02*
X8449739Y-15951284D01*
X8449739Y-15951284D02*
X8430691Y-15941760D01*
X8430691Y-15941760D02*
X8421167Y-15932236D01*
X8659263Y-15751284D02*
X8678310Y-15751284D01*
X8678310Y-15751284D02*
X8697358Y-15760808D01*
X8697358Y-15760808D02*
X8706882Y-15770331D01*
X8706882Y-15770331D02*
X8716405Y-15789379D01*
X8716405Y-15789379D02*
X8725929Y-15827474D01*
X8725929Y-15827474D02*
X8725929Y-15875093D01*
X8725929Y-15875093D02*
X8716405Y-15913188D01*
X8716405Y-15913188D02*
X8706882Y-15932236D01*
X8706882Y-15932236D02*
X8697358Y-15941760D01*
X8697358Y-15941760D02*
X8678310Y-15951284D01*
X8678310Y-15951284D02*
X8659263Y-15951284D01*
X8659263Y-15951284D02*
X8640215Y-15941760D01*
X8640215Y-15941760D02*
X8630691Y-15932236D01*
X8630691Y-15932236D02*
X8621167Y-15913188D01*
X8621167Y-15913188D02*
X8611644Y-15875093D01*
X8611644Y-15875093D02*
X8611644Y-15827474D01*
X8611644Y-15827474D02*
X8621167Y-15789379D01*
X8621167Y-15789379D02*
X8630691Y-15770331D01*
X8630691Y-15770331D02*
X8640215Y-15760808D01*
X8640215Y-15760808D02*
X8659263Y-15751284D01*
X8849739Y-15751284D02*
X8868786Y-15751284D01*
X8868786Y-15751284D02*
X8887834Y-15760808D01*
X8887834Y-15760808D02*
X8897358Y-15770331D01*
X8897358Y-15770331D02*
X8906882Y-15789379D01*
X8906882Y-15789379D02*
X8916405Y-15827474D01*
X8916405Y-15827474D02*
X8916405Y-15875093D01*
X8916405Y-15875093D02*
X8906882Y-15913188D01*
X8906882Y-15913188D02*
X8897358Y-15932236D01*
X8897358Y-15932236D02*
X8887834Y-15941760D01*
X8887834Y-15941760D02*
X8868786Y-15951284D01*
X8868786Y-15951284D02*
X8849739Y-15951284D01*
X8849739Y-15951284D02*
X8830691Y-15941760D01*
X8830691Y-15941760D02*
X8821167Y-15932236D01*
X8821167Y-15932236D02*
X8811644Y-15913188D01*
X8811644Y-15913188D02*
X8802120Y-15875093D01*
X8802120Y-15875093D02*
X8802120Y-15827474D01*
X8802120Y-15827474D02*
X8811644Y-15789379D01*
X8811644Y-15789379D02*
X8821167Y-15770331D01*
X8821167Y-15770331D02*
X8830691Y-15760808D01*
X8830691Y-15760808D02*
X8849739Y-15751284D01*
X9002120Y-15951284D02*
X9002120Y-15817950D01*
X9002120Y-15836998D02*
X9011644Y-15827474D01*
X9011644Y-15827474D02*
X9030691Y-15817950D01*
X9030691Y-15817950D02*
X9059263Y-15817950D01*
X9059263Y-15817950D02*
X9078310Y-15827474D01*
X9078310Y-15827474D02*
X9087834Y-15846522D01*
X9087834Y-15846522D02*
X9087834Y-15951284D01*
X9087834Y-15846522D02*
X9097358Y-15827474D01*
X9097358Y-15827474D02*
X9116405Y-15817950D01*
X9116405Y-15817950D02*
X9144977Y-15817950D01*
X9144977Y-15817950D02*
X9164025Y-15827474D01*
X9164025Y-15827474D02*
X9173548Y-15846522D01*
X9173548Y-15846522D02*
X9173548Y-15951284D01*
X9268786Y-15951284D02*
X9268786Y-15817950D01*
X9268786Y-15836998D02*
X9278310Y-15827474D01*
X9278310Y-15827474D02*
X9297358Y-15817950D01*
X9297358Y-15817950D02*
X9325929Y-15817950D01*
X9325929Y-15817950D02*
X9344977Y-15827474D01*
X9344977Y-15827474D02*
X9354501Y-15846522D01*
X9354501Y-15846522D02*
X9354501Y-15951284D01*
X9354501Y-15846522D02*
X9364025Y-15827474D01*
X9364025Y-15827474D02*
X9383072Y-15817950D01*
X9383072Y-15817950D02*
X9411644Y-15817950D01*
X9411644Y-15817950D02*
X9430691Y-15827474D01*
X9430691Y-15827474D02*
X9440215Y-15846522D01*
X9440215Y-15846522D02*
X9440215Y-15951284D01*
X9830691Y-15741760D02*
X9659263Y-15998903D01*
X10087834Y-15751284D02*
X10106882Y-15751284D01*
X10106882Y-15751284D02*
X10125929Y-15760808D01*
X10125929Y-15760808D02*
X10135453Y-15770331D01*
X10135453Y-15770331D02*
X10144977Y-15789379D01*
X10144977Y-15789379D02*
X10154501Y-15827474D01*
X10154501Y-15827474D02*
X10154501Y-15875093D01*
X10154501Y-15875093D02*
X10144977Y-15913188D01*
X10144977Y-15913188D02*
X10135453Y-15932236D01*
X10135453Y-15932236D02*
X10125929Y-15941760D01*
X10125929Y-15941760D02*
X10106882Y-15951284D01*
X10106882Y-15951284D02*
X10087834Y-15951284D01*
X10087834Y-15951284D02*
X10068787Y-15941760D01*
X10068787Y-15941760D02*
X10059263Y-15932236D01*
X10059263Y-15932236D02*
X10049739Y-15913188D01*
X10049739Y-15913188D02*
X10040215Y-15875093D01*
X10040215Y-15875093D02*
X10040215Y-15827474D01*
X10040215Y-15827474D02*
X10049739Y-15789379D01*
X10049739Y-15789379D02*
X10059263Y-15770331D01*
X10059263Y-15770331D02*
X10068787Y-15760808D01*
X10068787Y-15760808D02*
X10087834Y-15751284D01*
X10240215Y-15932236D02*
X10249739Y-15941760D01*
X10249739Y-15941760D02*
X10240215Y-15951284D01*
X10240215Y-15951284D02*
X10230691Y-15941760D01*
X10230691Y-15941760D02*
X10240215Y-15932236D01*
X10240215Y-15932236D02*
X10240215Y-15951284D01*
X10440215Y-15951284D02*
X10325929Y-15951284D01*
X10383072Y-15951284D02*
X10383072Y-15751284D01*
X10383072Y-15751284D02*
X10364025Y-15779855D01*
X10364025Y-15779855D02*
X10344977Y-15798903D01*
X10344977Y-15798903D02*
X10325929Y-15808427D01*
X10506882Y-15751284D02*
X10630691Y-15751284D01*
X10630691Y-15751284D02*
X10564025Y-15827474D01*
X10564025Y-15827474D02*
X10592596Y-15827474D01*
X10592596Y-15827474D02*
X10611644Y-15836998D01*
X10611644Y-15836998D02*
X10621168Y-15846522D01*
X10621168Y-15846522D02*
X10630691Y-15865569D01*
X10630691Y-15865569D02*
X10630691Y-15913188D01*
X10630691Y-15913188D02*
X10621168Y-15932236D01*
X10621168Y-15932236D02*
X10611644Y-15941760D01*
X10611644Y-15941760D02*
X10592596Y-15951284D01*
X10592596Y-15951284D02*
X10535453Y-15951284D01*
X10535453Y-15951284D02*
X10516406Y-15941760D01*
X10516406Y-15941760D02*
X10506882Y-15932236D01*
X10697358Y-15751284D02*
X10830691Y-15751284D01*
X10830691Y-15751284D02*
X10744977Y-15951284D01*
X10935453Y-15836998D02*
X10916406Y-15827474D01*
X10916406Y-15827474D02*
X10906882Y-15817950D01*
X10906882Y-15817950D02*
X10897358Y-15798903D01*
X10897358Y-15798903D02*
X10897358Y-15789379D01*
X10897358Y-15789379D02*
X10906882Y-15770331D01*
X10906882Y-15770331D02*
X10916406Y-15760808D01*
X10916406Y-15760808D02*
X10935453Y-15751284D01*
X10935453Y-15751284D02*
X10973549Y-15751284D01*
X10973549Y-15751284D02*
X10992596Y-15760808D01*
X10992596Y-15760808D02*
X11002120Y-15770331D01*
X11002120Y-15770331D02*
X11011644Y-15789379D01*
X11011644Y-15789379D02*
X11011644Y-15798903D01*
X11011644Y-15798903D02*
X11002120Y-15817950D01*
X11002120Y-15817950D02*
X10992596Y-15827474D01*
X10992596Y-15827474D02*
X10973549Y-15836998D01*
X10973549Y-15836998D02*
X10935453Y-15836998D01*
X10935453Y-15836998D02*
X10916406Y-15846522D01*
X10916406Y-15846522D02*
X10906882Y-15856046D01*
X10906882Y-15856046D02*
X10897358Y-15875093D01*
X10897358Y-15875093D02*
X10897358Y-15913188D01*
X10897358Y-15913188D02*
X10906882Y-15932236D01*
X10906882Y-15932236D02*
X10916406Y-15941760D01*
X10916406Y-15941760D02*
X10935453Y-15951284D01*
X10935453Y-15951284D02*
X10973549Y-15951284D01*
X10973549Y-15951284D02*
X10992596Y-15941760D01*
X10992596Y-15941760D02*
X11002120Y-15932236D01*
X11002120Y-15932236D02*
X11011644Y-15913188D01*
X11011644Y-15913188D02*
X11011644Y-15875093D01*
X11011644Y-15875093D02*
X11002120Y-15856046D01*
X11002120Y-15856046D02*
X10992596Y-15846522D01*
X10992596Y-15846522D02*
X10973549Y-15836998D01*
X11087834Y-15751284D02*
X11087834Y-15789379D01*
X11164025Y-15751284D02*
X11164025Y-15789379D01*
X11459263Y-16027474D02*
X11449739Y-16017950D01*
X11449739Y-16017950D02*
X11430691Y-15989379D01*
X11430691Y-15989379D02*
X11421168Y-15970331D01*
X11421168Y-15970331D02*
X11411644Y-15941760D01*
X11411644Y-15941760D02*
X11402120Y-15894141D01*
X11402120Y-15894141D02*
X11402120Y-15856046D01*
X11402120Y-15856046D02*
X11411644Y-15808427D01*
X11411644Y-15808427D02*
X11421168Y-15779855D01*
X11421168Y-15779855D02*
X11430691Y-15760808D01*
X11430691Y-15760808D02*
X11449739Y-15732236D01*
X11449739Y-15732236D02*
X11459263Y-15722712D01*
X11640215Y-15951284D02*
X11525929Y-15951284D01*
X11583072Y-15951284D02*
X11583072Y-15751284D01*
X11583072Y-15751284D02*
X11564025Y-15779855D01*
X11564025Y-15779855D02*
X11544977Y-15798903D01*
X11544977Y-15798903D02*
X11525929Y-15808427D01*
X11878310Y-15951284D02*
X11878310Y-15751284D01*
X11964025Y-15951284D02*
X11964025Y-15846522D01*
X11964025Y-15846522D02*
X11954501Y-15827474D01*
X11954501Y-15827474D02*
X11935453Y-15817950D01*
X11935453Y-15817950D02*
X11906882Y-15817950D01*
X11906882Y-15817950D02*
X11887834Y-15827474D01*
X11887834Y-15827474D02*
X11878310Y-15836998D01*
X12087834Y-15951284D02*
X12068787Y-15941760D01*
X12068787Y-15941760D02*
X12059263Y-15932236D01*
X12059263Y-15932236D02*
X12049739Y-15913188D01*
X12049739Y-15913188D02*
X12049739Y-15856046D01*
X12049739Y-15856046D02*
X12059263Y-15836998D01*
X12059263Y-15836998D02*
X12068787Y-15827474D01*
X12068787Y-15827474D02*
X12087834Y-15817950D01*
X12087834Y-15817950D02*
X12116406Y-15817950D01*
X12116406Y-15817950D02*
X12135453Y-15827474D01*
X12135453Y-15827474D02*
X12144977Y-15836998D01*
X12144977Y-15836998D02*
X12154501Y-15856046D01*
X12154501Y-15856046D02*
X12154501Y-15913188D01*
X12154501Y-15913188D02*
X12144977Y-15932236D01*
X12144977Y-15932236D02*
X12135453Y-15941760D01*
X12135453Y-15941760D02*
X12116406Y-15951284D01*
X12116406Y-15951284D02*
X12087834Y-15951284D01*
X12268787Y-15951284D02*
X12249739Y-15941760D01*
X12249739Y-15941760D02*
X12240215Y-15922712D01*
X12240215Y-15922712D02*
X12240215Y-15751284D01*
X12421168Y-15941760D02*
X12402120Y-15951284D01*
X12402120Y-15951284D02*
X12364025Y-15951284D01*
X12364025Y-15951284D02*
X12344977Y-15941760D01*
X12344977Y-15941760D02*
X12335453Y-15922712D01*
X12335453Y-15922712D02*
X12335453Y-15846522D01*
X12335453Y-15846522D02*
X12344977Y-15827474D01*
X12344977Y-15827474D02*
X12364025Y-15817950D01*
X12364025Y-15817950D02*
X12402120Y-15817950D01*
X12402120Y-15817950D02*
X12421168Y-15827474D01*
X12421168Y-15827474D02*
X12430691Y-15846522D01*
X12430691Y-15846522D02*
X12430691Y-15865569D01*
X12430691Y-15865569D02*
X12335453Y-15884617D01*
X12497358Y-16027474D02*
X12506882Y-16017950D01*
X12506882Y-16017950D02*
X12525930Y-15989379D01*
X12525930Y-15989379D02*
X12535453Y-15970331D01*
X12535453Y-15970331D02*
X12544977Y-15941760D01*
X12544977Y-15941760D02*
X12554501Y-15894141D01*
X12554501Y-15894141D02*
X12554501Y-15856046D01*
X12554501Y-15856046D02*
X12544977Y-15808427D01*
X12544977Y-15808427D02*
X12535453Y-15779855D01*
X12535453Y-15779855D02*
X12525930Y-15760808D01*
X12525930Y-15760808D02*
X12506882Y-15732236D01*
X12506882Y-15732236D02*
X12497358Y-15722712D01*
X12859263Y-16027474D02*
X12849739Y-16017950D01*
X12849739Y-16017950D02*
X12830691Y-15989379D01*
X12830691Y-15989379D02*
X12821168Y-15970331D01*
X12821168Y-15970331D02*
X12811644Y-15941760D01*
X12811644Y-15941760D02*
X12802120Y-15894141D01*
X12802120Y-15894141D02*
X12802120Y-15856046D01*
X12802120Y-15856046D02*
X12811644Y-15808427D01*
X12811644Y-15808427D02*
X12821168Y-15779855D01*
X12821168Y-15779855D02*
X12830691Y-15760808D01*
X12830691Y-15760808D02*
X12849739Y-15732236D01*
X12849739Y-15732236D02*
X12859263Y-15722712D01*
X12935453Y-15817950D02*
X12935453Y-15951284D01*
X12935453Y-15836998D02*
X12944977Y-15827474D01*
X12944977Y-15827474D02*
X12964025Y-15817950D01*
X12964025Y-15817950D02*
X12992596Y-15817950D01*
X12992596Y-15817950D02*
X13011644Y-15827474D01*
X13011644Y-15827474D02*
X13021168Y-15846522D01*
X13021168Y-15846522D02*
X13021168Y-15951284D01*
X13144977Y-15951284D02*
X13125930Y-15941760D01*
X13125930Y-15941760D02*
X13116406Y-15932236D01*
X13116406Y-15932236D02*
X13106882Y-15913188D01*
X13106882Y-15913188D02*
X13106882Y-15856046D01*
X13106882Y-15856046D02*
X13116406Y-15836998D01*
X13116406Y-15836998D02*
X13125930Y-15827474D01*
X13125930Y-15827474D02*
X13144977Y-15817950D01*
X13144977Y-15817950D02*
X13173549Y-15817950D01*
X13173549Y-15817950D02*
X13192596Y-15827474D01*
X13192596Y-15827474D02*
X13202120Y-15836998D01*
X13202120Y-15836998D02*
X13211644Y-15856046D01*
X13211644Y-15856046D02*
X13211644Y-15913188D01*
X13211644Y-15913188D02*
X13202120Y-15932236D01*
X13202120Y-15932236D02*
X13192596Y-15941760D01*
X13192596Y-15941760D02*
X13173549Y-15951284D01*
X13173549Y-15951284D02*
X13144977Y-15951284D01*
X13268787Y-15817950D02*
X13344977Y-15817950D01*
X13297358Y-15751284D02*
X13297358Y-15922712D01*
X13297358Y-15922712D02*
X13306882Y-15941760D01*
X13306882Y-15941760D02*
X13325930Y-15951284D01*
X13325930Y-15951284D02*
X13344977Y-15951284D01*
X13564025Y-15817950D02*
X13564025Y-16017950D01*
X13564025Y-15827474D02*
X13583072Y-15817950D01*
X13583072Y-15817950D02*
X13621168Y-15817950D01*
X13621168Y-15817950D02*
X13640215Y-15827474D01*
X13640215Y-15827474D02*
X13649739Y-15836998D01*
X13649739Y-15836998D02*
X13659263Y-15856046D01*
X13659263Y-15856046D02*
X13659263Y-15913188D01*
X13659263Y-15913188D02*
X13649739Y-15932236D01*
X13649739Y-15932236D02*
X13640215Y-15941760D01*
X13640215Y-15941760D02*
X13621168Y-15951284D01*
X13621168Y-15951284D02*
X13583072Y-15951284D01*
X13583072Y-15951284D02*
X13564025Y-15941760D01*
X13773549Y-15951284D02*
X13754501Y-15941760D01*
X13754501Y-15941760D02*
X13744977Y-15922712D01*
X13744977Y-15922712D02*
X13744977Y-15751284D01*
X13935453Y-15951284D02*
X13935453Y-15846522D01*
X13935453Y-15846522D02*
X13925930Y-15827474D01*
X13925930Y-15827474D02*
X13906882Y-15817950D01*
X13906882Y-15817950D02*
X13868787Y-15817950D01*
X13868787Y-15817950D02*
X13849739Y-15827474D01*
X13935453Y-15941760D02*
X13916406Y-15951284D01*
X13916406Y-15951284D02*
X13868787Y-15951284D01*
X13868787Y-15951284D02*
X13849739Y-15941760D01*
X13849739Y-15941760D02*
X13840215Y-15922712D01*
X13840215Y-15922712D02*
X13840215Y-15903665D01*
X13840215Y-15903665D02*
X13849739Y-15884617D01*
X13849739Y-15884617D02*
X13868787Y-15875093D01*
X13868787Y-15875093D02*
X13916406Y-15875093D01*
X13916406Y-15875093D02*
X13935453Y-15865569D01*
X14002120Y-15817950D02*
X14078311Y-15817950D01*
X14030692Y-15751284D02*
X14030692Y-15922712D01*
X14030692Y-15922712D02*
X14040215Y-15941760D01*
X14040215Y-15941760D02*
X14059263Y-15951284D01*
X14059263Y-15951284D02*
X14078311Y-15951284D01*
X14221168Y-15941760D02*
X14202120Y-15951284D01*
X14202120Y-15951284D02*
X14164025Y-15951284D01*
X14164025Y-15951284D02*
X14144977Y-15941760D01*
X14144977Y-15941760D02*
X14135453Y-15922712D01*
X14135453Y-15922712D02*
X14135453Y-15846522D01*
X14135453Y-15846522D02*
X14144977Y-15827474D01*
X14144977Y-15827474D02*
X14164025Y-15817950D01*
X14164025Y-15817950D02*
X14202120Y-15817950D01*
X14202120Y-15817950D02*
X14221168Y-15827474D01*
X14221168Y-15827474D02*
X14230692Y-15846522D01*
X14230692Y-15846522D02*
X14230692Y-15865569D01*
X14230692Y-15865569D02*
X14135453Y-15884617D01*
X14402120Y-15951284D02*
X14402120Y-15751284D01*
X14402120Y-15941760D02*
X14383073Y-15951284D01*
X14383073Y-15951284D02*
X14344977Y-15951284D01*
X14344977Y-15951284D02*
X14325930Y-15941760D01*
X14325930Y-15941760D02*
X14316406Y-15932236D01*
X14316406Y-15932236D02*
X14306882Y-15913188D01*
X14306882Y-15913188D02*
X14306882Y-15856046D01*
X14306882Y-15856046D02*
X14316406Y-15836998D01*
X14316406Y-15836998D02*
X14325930Y-15827474D01*
X14325930Y-15827474D02*
X14344977Y-15817950D01*
X14344977Y-15817950D02*
X14383073Y-15817950D01*
X14383073Y-15817950D02*
X14402120Y-15827474D01*
X14478311Y-16027474D02*
X14487834Y-16017950D01*
X14487834Y-16017950D02*
X14506882Y-15989379D01*
X14506882Y-15989379D02*
X14516406Y-15970331D01*
X14516406Y-15970331D02*
X14525930Y-15941760D01*
X14525930Y-15941760D02*
X14535453Y-15894141D01*
X14535453Y-15894141D02*
X14535453Y-15856046D01*
X14535453Y-15856046D02*
X14525930Y-15808427D01*
X14525930Y-15808427D02*
X14516406Y-15779855D01*
X14516406Y-15779855D02*
X14506882Y-15760808D01*
X14506882Y-15760808D02*
X14487834Y-15732236D01*
X14487834Y-15732236D02*
X14478311Y-15722712D01*
M02*
