%TF.GenerationSoftware,KiCad,Pcbnew,9.0.4*%
%TF.CreationDate,2026-01-25T12:04:21+13:00*%
%TF.ProjectId,AWS_CPU_Video_Decoder,4157535f-4350-4555-9f56-6964656f5f44,rev?*%
%TF.SameCoordinates,Original*%
%TF.FileFunction,Soldermask,Bot*%
%TF.FilePolarity,Negative*%
%FSLAX46Y46*%
G04 Gerber Fmt 4.6, Leading zero omitted, Abs format (unit mm)*
G04 Created by KiCad (PCBNEW 9.0.4) date 2026-01-25 12:04:21*
%MOMM*%
%LPD*%
G01*
G04 APERTURE LIST*
G04 Aperture macros list*
%AMRoundRect*
0 Rectangle with rounded corners*
0 $1 Rounding radius*
0 $2 $3 $4 $5 $6 $7 $8 $9 X,Y pos of 4 corners*
0 Add a 4 corners polygon primitive as box body*
4,1,4,$2,$3,$4,$5,$6,$7,$8,$9,$2,$3,0*
0 Add four circle primitives for the rounded corners*
1,1,$1+$1,$2,$3*
1,1,$1+$1,$4,$5*
1,1,$1+$1,$6,$7*
1,1,$1+$1,$8,$9*
0 Add four rect primitives between the rounded corners*
20,1,$1+$1,$2,$3,$4,$5,0*
20,1,$1+$1,$4,$5,$6,$7,0*
20,1,$1+$1,$6,$7,$8,$9,0*
20,1,$1+$1,$8,$9,$2,$3,0*%
%AMFreePoly0*
4,1,37,0.603843,0.796157,0.639018,0.796157,0.711114,0.766294,0.766294,0.711114,0.796157,0.639018,0.796157,0.603843,0.800000,0.600000,0.800000,-0.600000,0.796157,-0.603843,0.796157,-0.639018,0.766294,-0.711114,0.711114,-0.766294,0.639018,-0.796157,0.603843,-0.796157,0.600000,-0.800000,0.000000,-0.800000,0.000000,-0.796148,-0.078414,-0.796148,-0.232228,-0.765552,-0.377117,-0.705537,
-0.507515,-0.618408,-0.618408,-0.507515,-0.705537,-0.377117,-0.765552,-0.232228,-0.796148,-0.078414,-0.796148,0.078414,-0.765552,0.232228,-0.705537,0.377117,-0.618408,0.507515,-0.507515,0.618408,-0.377117,0.705537,-0.232228,0.765552,-0.078414,0.796148,0.000000,0.796148,0.000000,0.800000,0.600000,0.800000,0.603843,0.796157,0.603843,0.796157,$1*%
%AMFreePoly1*
4,1,37,0.000000,0.796148,0.078414,0.796148,0.232228,0.765552,0.377117,0.705537,0.507515,0.618408,0.618408,0.507515,0.705537,0.377117,0.765552,0.232228,0.796148,0.078414,0.796148,-0.078414,0.765552,-0.232228,0.705537,-0.377117,0.618408,-0.507515,0.507515,-0.618408,0.377117,-0.705537,0.232228,-0.765552,0.078414,-0.796148,0.000000,-0.796148,0.000000,-0.800000,-0.600000,-0.800000,
-0.603843,-0.796157,-0.639018,-0.796157,-0.711114,-0.766294,-0.766294,-0.711114,-0.796157,-0.639018,-0.796157,-0.603843,-0.800000,-0.600000,-0.800000,0.600000,-0.796157,0.603843,-0.796157,0.639018,-0.766294,0.711114,-0.711114,0.766294,-0.639018,0.796157,-0.603843,0.796157,-0.600000,0.800000,0.000000,0.800000,0.000000,0.796148,0.000000,0.796148,$1*%
G04 Aperture macros list end*
%ADD10RoundRect,0.250001X-1.149999X1.149999X-1.149999X-1.149999X1.149999X-1.149999X1.149999X1.149999X0*%
%ADD11C,2.800000*%
%ADD12C,1.700000*%
%ADD13C,1.400000*%
%ADD14R,1.700000X1.700000*%
%ADD15C,2.200000*%
%ADD16C,1.850000*%
%ADD17RoundRect,0.200000X0.600000X0.600000X-0.600000X0.600000X-0.600000X-0.600000X0.600000X-0.600000X0*%
%ADD18C,1.600000*%
%ADD19FreePoly0,180.000000*%
%ADD20FreePoly1,180.000000*%
%ADD21C,2.000000*%
%ADD22C,7.000000*%
%ADD23O,3.804000X2.004000*%
%ADD24O,2.304000X4.404000*%
G04 APERTURE END LIST*
D10*
%TO.C,D1*%
X118110000Y-126111000D03*
D11*
X118110000Y-138811000D03*
%TD*%
D12*
%TO.C,*%
X94742000Y-97409000D03*
%TD*%
%TO.C,*%
X104902000Y-127889000D03*
%TD*%
D13*
%TO.C,R7*%
X125222000Y-54864000D03*
X117602000Y-54864000D03*
%TD*%
D14*
%TO.C,J8*%
X164592000Y-124079000D03*
D12*
X164592000Y-121539000D03*
X164592000Y-118999000D03*
X164592000Y-116459000D03*
%TD*%
%TO.C,*%
X99822000Y-125349000D03*
%TD*%
D15*
%TO.C,A2*%
X131757000Y-120139000D03*
D16*
X131457000Y-117109000D03*
X126607000Y-117109000D03*
D15*
X126307000Y-120139000D03*
D17*
X137922000Y-120269000D03*
D18*
X137922000Y-117729000D03*
D19*
X137922000Y-115189000D03*
D18*
X137922000Y-112649000D03*
X137922000Y-110109000D03*
X137922000Y-107569000D03*
X137922000Y-105029000D03*
D19*
X137922000Y-102489000D03*
D18*
X137922000Y-99949000D03*
X137922000Y-97409000D03*
X137922000Y-94869000D03*
X137922000Y-92329000D03*
D19*
X137922000Y-89789000D03*
D18*
X137922000Y-87249000D03*
X137922000Y-84709000D03*
X137922000Y-82169000D03*
X137922000Y-79629000D03*
D19*
X137922000Y-77089000D03*
D18*
X137922000Y-74549000D03*
X137922000Y-72009000D03*
X120142000Y-72009000D03*
X120142000Y-74549000D03*
D20*
X120142000Y-77089000D03*
D18*
X120142000Y-79629000D03*
X120142000Y-82169000D03*
X120142000Y-84709000D03*
X120142000Y-87249000D03*
D20*
X120142000Y-89789000D03*
D18*
X120142000Y-92329000D03*
X120142000Y-94869000D03*
X120142000Y-97409000D03*
X120142000Y-99949000D03*
D20*
X120142000Y-102489000D03*
D18*
X120142000Y-105029000D03*
X120142000Y-107569000D03*
X120142000Y-110109000D03*
X120142000Y-112649000D03*
D20*
X120142000Y-115189000D03*
D18*
X120142000Y-117729000D03*
X120142000Y-120269000D03*
%TD*%
D12*
%TO.C,*%
X94742000Y-99949000D03*
%TD*%
D14*
%TO.C,J13*%
X184912000Y-124079000D03*
D12*
X184912000Y-121539000D03*
X184912000Y-118999000D03*
X184912000Y-116459000D03*
%TD*%
%TO.C,*%
X94742000Y-127889000D03*
%TD*%
%TO.C,*%
X97282000Y-105029000D03*
%TD*%
%TO.C,*%
X94742000Y-132969000D03*
%TD*%
%TO.C,*%
X99822000Y-112649000D03*
%TD*%
%TO.C,*%
X104902000Y-132969000D03*
%TD*%
%TO.C,*%
X99822000Y-132969000D03*
%TD*%
%TO.C,*%
X97282000Y-107569000D03*
%TD*%
D13*
%TO.C,R2*%
X137922000Y-58014000D03*
X145542000Y-58014000D03*
%TD*%
D12*
%TO.C,*%
X94742000Y-117729000D03*
%TD*%
%TO.C,*%
X97282000Y-135509000D03*
%TD*%
%TO.C,*%
X104902000Y-102489000D03*
%TD*%
%TO.C,*%
X92202000Y-112649000D03*
%TD*%
D14*
%TO.C,J12*%
X184912000Y-74549000D03*
D12*
X184912000Y-72009000D03*
X184912000Y-69469000D03*
X184912000Y-66929000D03*
%TD*%
%TO.C,*%
X94742000Y-112649000D03*
%TD*%
%TO.C,*%
X89662000Y-117729000D03*
%TD*%
%TO.C,*%
X92202000Y-130429000D03*
%TD*%
D14*
%TO.C,J15*%
X184912000Y-107569000D03*
D12*
X184912000Y-105029000D03*
X184912000Y-102489000D03*
X184912000Y-99949000D03*
%TD*%
%TO.C,*%
X99822000Y-117729000D03*
%TD*%
%TO.C,*%
X89662000Y-102489000D03*
%TD*%
%TO.C,*%
X102362000Y-122809000D03*
%TD*%
D13*
%TO.C,R4*%
X127762000Y-54864000D03*
X135382000Y-54864000D03*
%TD*%
D14*
%TO.C,J9*%
X164592000Y-140589000D03*
D12*
X164592000Y-138049000D03*
X164592000Y-135509000D03*
X164592000Y-132969000D03*
%TD*%
%TO.C,*%
X97282000Y-132969000D03*
%TD*%
%TO.C,*%
X89662000Y-135509000D03*
%TD*%
%TO.C,*%
X92202000Y-110109000D03*
%TD*%
%TO.C,*%
X99822000Y-107569000D03*
%TD*%
%TO.C,*%
X94742000Y-138049000D03*
%TD*%
%TO.C,*%
X104902000Y-130429000D03*
%TD*%
%TO.C,*%
X102362000Y-115189000D03*
%TD*%
%TO.C,*%
X89662000Y-138049000D03*
%TD*%
%TO.C,*%
X97282000Y-127889000D03*
%TD*%
%TO.C,*%
X102362000Y-112649000D03*
%TD*%
D13*
%TO.C,R6*%
X127762000Y-61214000D03*
X135382000Y-61214000D03*
%TD*%
D12*
%TO.C,*%
X102362000Y-132969000D03*
%TD*%
D13*
%TO.C,R5*%
X127762000Y-58039000D03*
X135382000Y-58039000D03*
%TD*%
D12*
%TO.C,*%
X102362000Y-127889000D03*
%TD*%
%TO.C,*%
X99822000Y-120269000D03*
%TD*%
%TO.C,*%
X99822000Y-122809000D03*
%TD*%
D14*
%TO.C,U2*%
X169672000Y-64389000D03*
D12*
X169672000Y-66929000D03*
X169672000Y-69469000D03*
X169672000Y-72009000D03*
X169672000Y-74549000D03*
X169672000Y-77089000D03*
X179832000Y-77089000D03*
X179832000Y-74549000D03*
X179832000Y-72009000D03*
X179832000Y-69469000D03*
X179832000Y-66929000D03*
X179832000Y-64389000D03*
%TD*%
%TO.C,*%
X97282000Y-102489000D03*
%TD*%
%TO.C,*%
X99822000Y-115189000D03*
%TD*%
D13*
%TO.C,R9*%
X125222000Y-61214000D03*
X117602000Y-61214000D03*
%TD*%
D12*
%TO.C,*%
X102362000Y-135509000D03*
%TD*%
%TO.C,*%
X92202000Y-125349000D03*
%TD*%
%TO.C,*%
X102362000Y-117729000D03*
%TD*%
D14*
%TO.C,J2*%
X164592000Y-58039000D03*
D12*
X164592000Y-55499000D03*
X164592000Y-52959000D03*
X164592000Y-50419000D03*
%TD*%
D14*
%TO.C,J14*%
X184912000Y-91059000D03*
D12*
X184912000Y-88519000D03*
X184912000Y-85979000D03*
X184912000Y-83439000D03*
%TD*%
%TO.C,*%
X94742000Y-135509000D03*
%TD*%
%TO.C,*%
X99822000Y-138049000D03*
%TD*%
%TO.C,*%
X94742000Y-122809000D03*
%TD*%
D21*
%TO.C,SW1*%
X137922000Y-131699000D03*
X137922000Y-125199000D03*
X142422000Y-131699000D03*
X142422000Y-125199000D03*
%TD*%
D12*
%TO.C,*%
X104902000Y-105029000D03*
%TD*%
%TO.C,*%
X89662000Y-115189000D03*
%TD*%
%TO.C,*%
X97282000Y-125349000D03*
%TD*%
%TO.C,*%
X99822000Y-99949000D03*
%TD*%
%TO.C,*%
X92202000Y-102489000D03*
%TD*%
%TO.C,*%
X99822000Y-130429000D03*
%TD*%
%TO.C,*%
X92202000Y-138049000D03*
%TD*%
D13*
%TO.C,R3*%
X137922000Y-61164000D03*
X145542000Y-61164000D03*
%TD*%
D12*
%TO.C,*%
X104902000Y-138049000D03*
%TD*%
%TO.C,*%
X104902000Y-115189000D03*
%TD*%
%TO.C,*%
X99822000Y-97409000D03*
%TD*%
%TO.C,*%
X102362000Y-130429000D03*
%TD*%
D14*
%TO.C,J6*%
X164592000Y-91059000D03*
D12*
X164592000Y-88519000D03*
X164592000Y-85979000D03*
X164592000Y-83439000D03*
%TD*%
%TO.C,*%
X104902000Y-112649000D03*
%TD*%
%TO.C,*%
X92202000Y-117729000D03*
%TD*%
%TO.C,*%
X102362000Y-102489000D03*
%TD*%
D22*
%TO.C,H1*%
X83101000Y-96139000D03*
%TD*%
D14*
%TO.C,J11*%
X184912000Y-140589000D03*
D12*
X184912000Y-138049000D03*
X184912000Y-135509000D03*
X184912000Y-132969000D03*
%TD*%
D14*
%TO.C,J18*%
X107442000Y-135509000D03*
D12*
X107442000Y-138049000D03*
%TD*%
%TO.C,*%
X94742000Y-115189000D03*
%TD*%
%TO.C,*%
X92202000Y-105029000D03*
%TD*%
%TO.C,*%
X104902000Y-125349000D03*
%TD*%
D14*
%TO.C,J19*%
X87122000Y-135509000D03*
D12*
X87122000Y-138049000D03*
%TD*%
%TO.C,*%
X89662000Y-132969000D03*
%TD*%
%TO.C,*%
X94742000Y-125349000D03*
%TD*%
%TO.C,*%
X104902000Y-99949000D03*
%TD*%
%TO.C,*%
X89662000Y-107569000D03*
%TD*%
%TO.C,*%
X92202000Y-122809000D03*
%TD*%
%TO.C,*%
X97282000Y-120269000D03*
%TD*%
%TO.C,*%
X102362000Y-120269000D03*
%TD*%
%TO.C,*%
X102362000Y-105029000D03*
%TD*%
%TO.C,*%
X97282000Y-99949000D03*
%TD*%
%TO.C,*%
X102362000Y-125349000D03*
%TD*%
%TO.C,*%
X97282000Y-122809000D03*
%TD*%
%TO.C,*%
X92202000Y-115189000D03*
%TD*%
%TO.C,*%
X92202000Y-127889000D03*
%TD*%
%TO.C,*%
X104902000Y-135509000D03*
%TD*%
D14*
%TO.C,J7*%
X164592000Y-107569000D03*
D12*
X164592000Y-105029000D03*
X164592000Y-102489000D03*
X164592000Y-99949000D03*
%TD*%
%TO.C,*%
X94742000Y-105029000D03*
%TD*%
%TO.C,*%
X92202000Y-97409000D03*
%TD*%
%TO.C,*%
X104902000Y-110109000D03*
%TD*%
%TO.C,*%
X104902000Y-117729000D03*
%TD*%
D14*
%TO.C,J5*%
X148082000Y-120269000D03*
D12*
X145542000Y-120269000D03*
X148082000Y-117729000D03*
X145542000Y-117729000D03*
X148082000Y-115189000D03*
X145542000Y-115189000D03*
X148082000Y-112649000D03*
X145542000Y-112649000D03*
X148082000Y-110109000D03*
X145542000Y-110109000D03*
X148082000Y-107569000D03*
X145542000Y-107569000D03*
X148082000Y-105029000D03*
X145542000Y-105029000D03*
X148082000Y-102489000D03*
X145542000Y-102489000D03*
X148082000Y-99949000D03*
X145542000Y-99949000D03*
X148082000Y-97409000D03*
X145542000Y-97409000D03*
X148082000Y-94869000D03*
X145542000Y-94869000D03*
X148082000Y-92329000D03*
X145542000Y-92329000D03*
X148082000Y-89789000D03*
X145542000Y-89789000D03*
X148082000Y-87249000D03*
X145542000Y-87249000D03*
X148082000Y-84709000D03*
X145542000Y-84709000D03*
X148082000Y-82169000D03*
X145542000Y-82169000D03*
X148082000Y-79629000D03*
X145542000Y-79629000D03*
X148082000Y-77089000D03*
X145542000Y-77089000D03*
X148082000Y-74549000D03*
X145542000Y-74549000D03*
X148082000Y-72009000D03*
X145542000Y-72009000D03*
%TD*%
%TO.C,*%
X104902000Y-122809000D03*
%TD*%
%TO.C,*%
X92202000Y-120269000D03*
%TD*%
%TO.C,*%
X94742000Y-120269000D03*
%TD*%
%TO.C,*%
X99822000Y-135509000D03*
%TD*%
%TO.C,*%
X92202000Y-135509000D03*
%TD*%
%TO.C,*%
X99822000Y-102489000D03*
%TD*%
%TO.C,*%
X89662000Y-110109000D03*
%TD*%
D14*
%TO.C,U5*%
X169672000Y-113919000D03*
D12*
X169672000Y-116459000D03*
X169672000Y-118999000D03*
X169672000Y-121539000D03*
X169672000Y-124079000D03*
X169672000Y-126619000D03*
X179832000Y-126619000D03*
X179832000Y-124079000D03*
X179832000Y-121539000D03*
X179832000Y-118999000D03*
X179832000Y-116459000D03*
X179832000Y-113919000D03*
%TD*%
%TO.C,*%
X97282000Y-97409000D03*
%TD*%
%TO.C,*%
X89662000Y-105029000D03*
%TD*%
%TO.C,*%
X97282000Y-110109000D03*
%TD*%
%TO.C,*%
X89662000Y-130429000D03*
%TD*%
%TO.C,*%
X97282000Y-112649000D03*
%TD*%
%TO.C,*%
X104902000Y-97409000D03*
%TD*%
%TO.C,*%
X99822000Y-127889000D03*
%TD*%
%TO.C,*%
X102362000Y-138049000D03*
%TD*%
%TO.C,*%
X97282000Y-138049000D03*
%TD*%
%TO.C,*%
X104902000Y-107569000D03*
%TD*%
%TO.C,*%
X99822000Y-110109000D03*
%TD*%
%TO.C,*%
X89662000Y-120269000D03*
%TD*%
%TO.C,*%
X102362000Y-107569000D03*
%TD*%
D14*
%TO.C,U3*%
X169672000Y-80899000D03*
D12*
X169672000Y-83439000D03*
X169672000Y-85979000D03*
X169672000Y-88519000D03*
X169672000Y-91059000D03*
X169672000Y-93599000D03*
X179832000Y-93599000D03*
X179832000Y-91059000D03*
X179832000Y-88519000D03*
X179832000Y-85979000D03*
X179832000Y-83439000D03*
X179832000Y-80899000D03*
%TD*%
D14*
%TO.C,J1*%
X112522000Y-120269000D03*
D12*
X109982000Y-120269000D03*
X112522000Y-117729000D03*
X109982000Y-117729000D03*
X112522000Y-115189000D03*
X109982000Y-115189000D03*
X112522000Y-112649000D03*
X109982000Y-112649000D03*
X112522000Y-110109000D03*
X109982000Y-110109000D03*
X112522000Y-107569000D03*
X109982000Y-107569000D03*
X112522000Y-105029000D03*
X109982000Y-105029000D03*
X112522000Y-102489000D03*
X109982000Y-102489000D03*
X112522000Y-99949000D03*
X109982000Y-99949000D03*
X112522000Y-97409000D03*
X109982000Y-97409000D03*
X112522000Y-94869000D03*
X109982000Y-94869000D03*
X112522000Y-92329000D03*
X109982000Y-92329000D03*
X112522000Y-89789000D03*
X109982000Y-89789000D03*
X112522000Y-87249000D03*
X109982000Y-87249000D03*
X112522000Y-84709000D03*
X109982000Y-84709000D03*
X112522000Y-82169000D03*
X109982000Y-82169000D03*
X112522000Y-79629000D03*
X109982000Y-79629000D03*
X112522000Y-77089000D03*
X109982000Y-77089000D03*
X112522000Y-74549000D03*
X109982000Y-74549000D03*
X112522000Y-72009000D03*
X109982000Y-72009000D03*
%TD*%
%TO.C,*%
X89662000Y-122809000D03*
%TD*%
%TO.C,*%
X102362000Y-110109000D03*
%TD*%
%TO.C,*%
X89662000Y-99949000D03*
%TD*%
%TO.C,*%
X102362000Y-97409000D03*
%TD*%
D14*
%TO.C,U6*%
X169672000Y-130429000D03*
D12*
X169672000Y-132969000D03*
X169672000Y-135509000D03*
X169672000Y-138049000D03*
X169672000Y-140589000D03*
X169672000Y-143129000D03*
X179832000Y-143129000D03*
X179832000Y-140589000D03*
X179832000Y-138049000D03*
X179832000Y-135509000D03*
X179832000Y-132969000D03*
X179832000Y-130429000D03*
%TD*%
%TO.C,*%
X99822000Y-105029000D03*
%TD*%
%TO.C,*%
X92202000Y-107569000D03*
%TD*%
%TO.C,*%
X94742000Y-107569000D03*
%TD*%
%TO.C,*%
X94742000Y-102489000D03*
%TD*%
%TO.C,*%
X89662000Y-112649000D03*
%TD*%
%TO.C,*%
X89662000Y-97409000D03*
%TD*%
D14*
%TO.C,U4*%
X169672000Y-97409000D03*
D12*
X169672000Y-99949000D03*
X169672000Y-102489000D03*
X169672000Y-105029000D03*
X169672000Y-107569000D03*
X169672000Y-110109000D03*
X179832000Y-110109000D03*
X179832000Y-107569000D03*
X179832000Y-105029000D03*
X179832000Y-102489000D03*
X179832000Y-99949000D03*
X179832000Y-97409000D03*
%TD*%
D23*
%TO.C,J16*%
X101617000Y-52384000D03*
X101617000Y-59884000D03*
D24*
X97917000Y-56134000D03*
%TD*%
D12*
%TO.C,*%
X89662000Y-125349000D03*
%TD*%
D13*
%TO.C,R10*%
X125222000Y-51689000D03*
X117602000Y-51689000D03*
%TD*%
D12*
%TO.C,*%
X92202000Y-99949000D03*
%TD*%
D14*
%TO.C,J4*%
X164592000Y-74549000D03*
D12*
X164592000Y-72009000D03*
X164592000Y-69469000D03*
X164592000Y-66929000D03*
%TD*%
D13*
%TO.C,R8*%
X117602000Y-58039000D03*
X125222000Y-58039000D03*
%TD*%
%TO.C,R1*%
X137922000Y-54864000D03*
X145542000Y-54864000D03*
%TD*%
D12*
%TO.C,*%
X102362000Y-99949000D03*
%TD*%
D14*
%TO.C,J10*%
X184912000Y-58039000D03*
D12*
X184912000Y-55499000D03*
X184912000Y-52959000D03*
X184912000Y-50419000D03*
%TD*%
%TO.C,*%
X92202000Y-132969000D03*
%TD*%
%TO.C,*%
X94742000Y-130429000D03*
%TD*%
D14*
%TO.C,U1*%
X169672000Y-47879000D03*
D12*
X169672000Y-50419000D03*
X169672000Y-52959000D03*
X169672000Y-55499000D03*
X169672000Y-58039000D03*
X169672000Y-60579000D03*
X179832000Y-60579000D03*
X179832000Y-58039000D03*
X179832000Y-55499000D03*
X179832000Y-52959000D03*
X179832000Y-50419000D03*
X179832000Y-47879000D03*
%TD*%
%TO.C,*%
X97282000Y-117729000D03*
%TD*%
%TO.C,*%
X97282000Y-115189000D03*
%TD*%
%TO.C,*%
X104902000Y-120269000D03*
%TD*%
%TO.C,*%
X89662000Y-127889000D03*
%TD*%
%TO.C,*%
X97282000Y-130429000D03*
%TD*%
%TO.C,*%
X94742000Y-110109000D03*
%TD*%
D14*
%TO.C,J3*%
X203962000Y-141859000D03*
D12*
X201422000Y-141859000D03*
X203962000Y-139319000D03*
X201422000Y-139319000D03*
X203962000Y-136779000D03*
X201422000Y-136779000D03*
X203962000Y-134239000D03*
X201422000Y-134239000D03*
X203962000Y-131699000D03*
X201422000Y-131699000D03*
X203962000Y-129159000D03*
X201422000Y-129159000D03*
X203962000Y-126619000D03*
X201422000Y-126619000D03*
X203962000Y-124079000D03*
X201422000Y-124079000D03*
X203962000Y-121539000D03*
X201422000Y-121539000D03*
X203962000Y-118999000D03*
X201422000Y-118999000D03*
X203962000Y-116459000D03*
X201422000Y-116459000D03*
X203962000Y-113919000D03*
X201422000Y-113919000D03*
X203962000Y-111379000D03*
X201422000Y-111379000D03*
X203962000Y-108839000D03*
X201422000Y-108839000D03*
X203962000Y-106299000D03*
X201422000Y-106299000D03*
X203962000Y-103759000D03*
X201422000Y-103759000D03*
X203962000Y-101219000D03*
X201422000Y-101219000D03*
X203962000Y-98679000D03*
X201422000Y-98679000D03*
X203962000Y-96139000D03*
X201422000Y-96139000D03*
X203962000Y-93599000D03*
X201422000Y-93599000D03*
X203962000Y-91059000D03*
X201422000Y-91059000D03*
X203962000Y-88519000D03*
X201422000Y-88519000D03*
X203962000Y-85979000D03*
X201422000Y-85979000D03*
X203962000Y-83439000D03*
X201422000Y-83439000D03*
X203962000Y-80899000D03*
X201422000Y-80899000D03*
X203962000Y-78359000D03*
X201422000Y-78359000D03*
X203962000Y-75819000D03*
X201422000Y-75819000D03*
X203962000Y-73279000D03*
X201422000Y-73279000D03*
X203962000Y-70739000D03*
X201422000Y-70739000D03*
X203962000Y-68199000D03*
X201422000Y-68199000D03*
X203962000Y-65659000D03*
X201422000Y-65659000D03*
X203962000Y-63119000D03*
X201422000Y-63119000D03*
X203962000Y-60579000D03*
X201422000Y-60579000D03*
X203962000Y-58039000D03*
X201422000Y-58039000D03*
X203962000Y-55499000D03*
X201422000Y-55499000D03*
X203962000Y-52959000D03*
X201422000Y-52959000D03*
X203962000Y-50419000D03*
X201422000Y-50419000D03*
%TD*%
M02*
