%TF.GenerationSoftware,KiCad,Pcbnew,9.0.4*%
%TF.CreationDate,2026-01-14T20:41:32+13:00*%
%TF.ProjectId,AWS_CPU_Video_Decoder,4157535f-4350-4555-9f56-6964656f5f44,rev?*%
%TF.SameCoordinates,Original*%
%TF.FileFunction,Legend,Top*%
%TF.FilePolarity,Positive*%
%FSLAX46Y46*%
G04 Gerber Fmt 4.6, Leading zero omitted, Abs format (unit mm)*
G04 Created by KiCad (PCBNEW 9.0.4) date 2026-01-14 20:41:32*
%MOMM*%
%LPD*%
G01*
G04 APERTURE LIST*
%ADD10C,0.100000*%
%ADD11C,0.150000*%
%ADD12C,0.120000*%
%ADD13C,0.200000*%
%ADD14C,0.127000*%
G04 APERTURE END LIST*
D10*
X116078095Y-145555038D02*
X115982857Y-145507419D01*
X115982857Y-145507419D02*
X115840000Y-145507419D01*
X115840000Y-145507419D02*
X115697143Y-145555038D01*
X115697143Y-145555038D02*
X115601905Y-145650276D01*
X115601905Y-145650276D02*
X115554286Y-145745514D01*
X115554286Y-145745514D02*
X115506667Y-145935990D01*
X115506667Y-145935990D02*
X115506667Y-146078847D01*
X115506667Y-146078847D02*
X115554286Y-146269323D01*
X115554286Y-146269323D02*
X115601905Y-146364561D01*
X115601905Y-146364561D02*
X115697143Y-146459800D01*
X115697143Y-146459800D02*
X115840000Y-146507419D01*
X115840000Y-146507419D02*
X115935238Y-146507419D01*
X115935238Y-146507419D02*
X116078095Y-146459800D01*
X116078095Y-146459800D02*
X116125714Y-146412180D01*
X116125714Y-146412180D02*
X116125714Y-146078847D01*
X116125714Y-146078847D02*
X115935238Y-146078847D01*
X116554286Y-146507419D02*
X116554286Y-145507419D01*
X116554286Y-145507419D02*
X117125714Y-146507419D01*
X117125714Y-146507419D02*
X117125714Y-145507419D01*
X117601905Y-146507419D02*
X117601905Y-145507419D01*
X117601905Y-145507419D02*
X117840000Y-145507419D01*
X117840000Y-145507419D02*
X117982857Y-145555038D01*
X117982857Y-145555038D02*
X118078095Y-145650276D01*
X118078095Y-145650276D02*
X118125714Y-145745514D01*
X118125714Y-145745514D02*
X118173333Y-145935990D01*
X118173333Y-145935990D02*
X118173333Y-146078847D01*
X118173333Y-146078847D02*
X118125714Y-146269323D01*
X118125714Y-146269323D02*
X118078095Y-146364561D01*
X118078095Y-146364561D02*
X117982857Y-146459800D01*
X117982857Y-146459800D02*
X117840000Y-146507419D01*
X117840000Y-146507419D02*
X117601905Y-146507419D01*
X136969523Y-145507419D02*
X136493333Y-145507419D01*
X136493333Y-145507419D02*
X136445714Y-145983609D01*
X136445714Y-145983609D02*
X136493333Y-145935990D01*
X136493333Y-145935990D02*
X136588571Y-145888371D01*
X136588571Y-145888371D02*
X136826666Y-145888371D01*
X136826666Y-145888371D02*
X136921904Y-145935990D01*
X136921904Y-145935990D02*
X136969523Y-145983609D01*
X136969523Y-145983609D02*
X137017142Y-146078847D01*
X137017142Y-146078847D02*
X137017142Y-146316942D01*
X137017142Y-146316942D02*
X136969523Y-146412180D01*
X136969523Y-146412180D02*
X136921904Y-146459800D01*
X136921904Y-146459800D02*
X136826666Y-146507419D01*
X136826666Y-146507419D02*
X136588571Y-146507419D01*
X136588571Y-146507419D02*
X136493333Y-146459800D01*
X136493333Y-146459800D02*
X136445714Y-146412180D01*
X137302857Y-145507419D02*
X137636190Y-146507419D01*
X137636190Y-146507419D02*
X137969523Y-145507419D01*
X217181995Y-124917419D02*
X216848662Y-124441228D01*
X216610567Y-124917419D02*
X216610567Y-123917419D01*
X216610567Y-123917419D02*
X216991519Y-123917419D01*
X216991519Y-123917419D02*
X217086757Y-123965038D01*
X217086757Y-123965038D02*
X217134376Y-124012657D01*
X217134376Y-124012657D02*
X217181995Y-124107895D01*
X217181995Y-124107895D02*
X217181995Y-124250752D01*
X217181995Y-124250752D02*
X217134376Y-124345990D01*
X217134376Y-124345990D02*
X217086757Y-124393609D01*
X217086757Y-124393609D02*
X216991519Y-124441228D01*
X216991519Y-124441228D02*
X216610567Y-124441228D01*
X217610567Y-124393609D02*
X217943900Y-124393609D01*
X218086757Y-124917419D02*
X217610567Y-124917419D01*
X217610567Y-124917419D02*
X217610567Y-123917419D01*
X217610567Y-123917419D02*
X218086757Y-123917419D01*
X218467710Y-124869800D02*
X218610567Y-124917419D01*
X218610567Y-124917419D02*
X218848662Y-124917419D01*
X218848662Y-124917419D02*
X218943900Y-124869800D01*
X218943900Y-124869800D02*
X218991519Y-124822180D01*
X218991519Y-124822180D02*
X219039138Y-124726942D01*
X219039138Y-124726942D02*
X219039138Y-124631704D01*
X219039138Y-124631704D02*
X218991519Y-124536466D01*
X218991519Y-124536466D02*
X218943900Y-124488847D01*
X218943900Y-124488847D02*
X218848662Y-124441228D01*
X218848662Y-124441228D02*
X218658186Y-124393609D01*
X218658186Y-124393609D02*
X218562948Y-124345990D01*
X218562948Y-124345990D02*
X218515329Y-124298371D01*
X218515329Y-124298371D02*
X218467710Y-124203133D01*
X218467710Y-124203133D02*
X218467710Y-124107895D01*
X218467710Y-124107895D02*
X218515329Y-124012657D01*
X218515329Y-124012657D02*
X218562948Y-123965038D01*
X218562948Y-123965038D02*
X218658186Y-123917419D01*
X218658186Y-123917419D02*
X218896281Y-123917419D01*
X218896281Y-123917419D02*
X219039138Y-123965038D01*
X219467710Y-124393609D02*
X219801043Y-124393609D01*
X219943900Y-124917419D02*
X219467710Y-124917419D01*
X219467710Y-124917419D02*
X219467710Y-123917419D01*
X219467710Y-123917419D02*
X219943900Y-123917419D01*
X220229615Y-123917419D02*
X220801043Y-123917419D01*
X220515329Y-124917419D02*
X220515329Y-123917419D01*
X216472472Y-123639800D02*
X220796282Y-123639800D01*
X184174095Y-117567419D02*
X184507428Y-118567419D01*
X184507428Y-118567419D02*
X184840761Y-117567419D01*
X185126476Y-118519800D02*
X185269333Y-118567419D01*
X185269333Y-118567419D02*
X185507428Y-118567419D01*
X185507428Y-118567419D02*
X185602666Y-118519800D01*
X185602666Y-118519800D02*
X185650285Y-118472180D01*
X185650285Y-118472180D02*
X185697904Y-118376942D01*
X185697904Y-118376942D02*
X185697904Y-118281704D01*
X185697904Y-118281704D02*
X185650285Y-118186466D01*
X185650285Y-118186466D02*
X185602666Y-118138847D01*
X185602666Y-118138847D02*
X185507428Y-118091228D01*
X185507428Y-118091228D02*
X185316952Y-118043609D01*
X185316952Y-118043609D02*
X185221714Y-117995990D01*
X185221714Y-117995990D02*
X185174095Y-117948371D01*
X185174095Y-117948371D02*
X185126476Y-117853133D01*
X185126476Y-117853133D02*
X185126476Y-117757895D01*
X185126476Y-117757895D02*
X185174095Y-117662657D01*
X185174095Y-117662657D02*
X185221714Y-117615038D01*
X185221714Y-117615038D02*
X185316952Y-117567419D01*
X185316952Y-117567419D02*
X185555047Y-117567419D01*
X185555047Y-117567419D02*
X185697904Y-117615038D01*
X186316952Y-118091228D02*
X186316952Y-118567419D01*
X185983619Y-117567419D02*
X186316952Y-118091228D01*
X186316952Y-118091228D02*
X186650285Y-117567419D01*
X186983619Y-118567419D02*
X186983619Y-117567419D01*
X186983619Y-117567419D02*
X187555047Y-118567419D01*
X187555047Y-118567419D02*
X187555047Y-117567419D01*
X188602666Y-118472180D02*
X188555047Y-118519800D01*
X188555047Y-118519800D02*
X188412190Y-118567419D01*
X188412190Y-118567419D02*
X188316952Y-118567419D01*
X188316952Y-118567419D02*
X188174095Y-118519800D01*
X188174095Y-118519800D02*
X188078857Y-118424561D01*
X188078857Y-118424561D02*
X188031238Y-118329323D01*
X188031238Y-118329323D02*
X187983619Y-118138847D01*
X187983619Y-118138847D02*
X187983619Y-117995990D01*
X187983619Y-117995990D02*
X188031238Y-117805514D01*
X188031238Y-117805514D02*
X188078857Y-117710276D01*
X188078857Y-117710276D02*
X188174095Y-117615038D01*
X188174095Y-117615038D02*
X188316952Y-117567419D01*
X188316952Y-117567419D02*
X188412190Y-117567419D01*
X188412190Y-117567419D02*
X188555047Y-117615038D01*
X188555047Y-117615038D02*
X188602666Y-117662657D01*
X236015884Y-122377419D02*
X236015884Y-121377419D01*
X236015884Y-121377419D02*
X236253979Y-121377419D01*
X236253979Y-121377419D02*
X236396836Y-121425038D01*
X236396836Y-121425038D02*
X236492074Y-121520276D01*
X236492074Y-121520276D02*
X236539693Y-121615514D01*
X236539693Y-121615514D02*
X236587312Y-121805990D01*
X236587312Y-121805990D02*
X236587312Y-121948847D01*
X236587312Y-121948847D02*
X236539693Y-122139323D01*
X236539693Y-122139323D02*
X236492074Y-122234561D01*
X236492074Y-122234561D02*
X236396836Y-122329800D01*
X236396836Y-122329800D02*
X236253979Y-122377419D01*
X236253979Y-122377419D02*
X236015884Y-122377419D01*
X236920646Y-121377419D02*
X237587312Y-121377419D01*
X237587312Y-121377419D02*
X237158741Y-122377419D01*
X226232687Y-147396466D02*
X226994592Y-147396466D01*
X226613639Y-147777419D02*
X226613639Y-147015514D01*
X227946972Y-146777419D02*
X227470782Y-146777419D01*
X227470782Y-146777419D02*
X227423163Y-147253609D01*
X227423163Y-147253609D02*
X227470782Y-147205990D01*
X227470782Y-147205990D02*
X227566020Y-147158371D01*
X227566020Y-147158371D02*
X227804115Y-147158371D01*
X227804115Y-147158371D02*
X227899353Y-147205990D01*
X227899353Y-147205990D02*
X227946972Y-147253609D01*
X227946972Y-147253609D02*
X227994591Y-147348847D01*
X227994591Y-147348847D02*
X227994591Y-147586942D01*
X227994591Y-147586942D02*
X227946972Y-147682180D01*
X227946972Y-147682180D02*
X227899353Y-147729800D01*
X227899353Y-147729800D02*
X227804115Y-147777419D01*
X227804115Y-147777419D02*
X227566020Y-147777419D01*
X227566020Y-147777419D02*
X227470782Y-147729800D01*
X227470782Y-147729800D02*
X227423163Y-147682180D01*
X228280306Y-146777419D02*
X228613639Y-147777419D01*
X228613639Y-147777419D02*
X228946972Y-146777419D01*
X236015884Y-104597419D02*
X236015884Y-103597419D01*
X236015884Y-104073609D02*
X236587312Y-104073609D01*
X236587312Y-104597419D02*
X236587312Y-103597419D01*
X237015884Y-104549800D02*
X237158741Y-104597419D01*
X237158741Y-104597419D02*
X237396836Y-104597419D01*
X237396836Y-104597419D02*
X237492074Y-104549800D01*
X237492074Y-104549800D02*
X237539693Y-104502180D01*
X237539693Y-104502180D02*
X237587312Y-104406942D01*
X237587312Y-104406942D02*
X237587312Y-104311704D01*
X237587312Y-104311704D02*
X237539693Y-104216466D01*
X237539693Y-104216466D02*
X237492074Y-104168847D01*
X237492074Y-104168847D02*
X237396836Y-104121228D01*
X237396836Y-104121228D02*
X237206360Y-104073609D01*
X237206360Y-104073609D02*
X237111122Y-104025990D01*
X237111122Y-104025990D02*
X237063503Y-103978371D01*
X237063503Y-103978371D02*
X237015884Y-103883133D01*
X237015884Y-103883133D02*
X237015884Y-103787895D01*
X237015884Y-103787895D02*
X237063503Y-103692657D01*
X237063503Y-103692657D02*
X237111122Y-103645038D01*
X237111122Y-103645038D02*
X237206360Y-103597419D01*
X237206360Y-103597419D02*
X237444455Y-103597419D01*
X237444455Y-103597419D02*
X237587312Y-103645038D01*
X238206360Y-104121228D02*
X238206360Y-104597419D01*
X237873027Y-103597419D02*
X238206360Y-104121228D01*
X238206360Y-104121228D02*
X238539693Y-103597419D01*
X238873027Y-104597419D02*
X238873027Y-103597419D01*
X238873027Y-103597419D02*
X239444455Y-104597419D01*
X239444455Y-104597419D02*
X239444455Y-103597419D01*
X239920646Y-104216466D02*
X240682551Y-104216466D01*
X240301598Y-104597419D02*
X240301598Y-103835514D01*
X130945095Y-78054419D02*
X130945095Y-77054419D01*
X130945095Y-77530609D02*
X131516523Y-77530609D01*
X131516523Y-78054419D02*
X131516523Y-77054419D01*
X132326047Y-77530609D02*
X132468904Y-77578228D01*
X132468904Y-77578228D02*
X132516523Y-77625847D01*
X132516523Y-77625847D02*
X132564142Y-77721085D01*
X132564142Y-77721085D02*
X132564142Y-77863942D01*
X132564142Y-77863942D02*
X132516523Y-77959180D01*
X132516523Y-77959180D02*
X132468904Y-78006800D01*
X132468904Y-78006800D02*
X132373666Y-78054419D01*
X132373666Y-78054419D02*
X131992714Y-78054419D01*
X131992714Y-78054419D02*
X131992714Y-77054419D01*
X131992714Y-77054419D02*
X132326047Y-77054419D01*
X132326047Y-77054419D02*
X132421285Y-77102038D01*
X132421285Y-77102038D02*
X132468904Y-77149657D01*
X132468904Y-77149657D02*
X132516523Y-77244895D01*
X132516523Y-77244895D02*
X132516523Y-77340133D01*
X132516523Y-77340133D02*
X132468904Y-77435371D01*
X132468904Y-77435371D02*
X132421285Y-77482990D01*
X132421285Y-77482990D02*
X132326047Y-77530609D01*
X132326047Y-77530609D02*
X131992714Y-77530609D01*
X132945095Y-78006800D02*
X133087952Y-78054419D01*
X133087952Y-78054419D02*
X133326047Y-78054419D01*
X133326047Y-78054419D02*
X133421285Y-78006800D01*
X133421285Y-78006800D02*
X133468904Y-77959180D01*
X133468904Y-77959180D02*
X133516523Y-77863942D01*
X133516523Y-77863942D02*
X133516523Y-77768704D01*
X133516523Y-77768704D02*
X133468904Y-77673466D01*
X133468904Y-77673466D02*
X133421285Y-77625847D01*
X133421285Y-77625847D02*
X133326047Y-77578228D01*
X133326047Y-77578228D02*
X133135571Y-77530609D01*
X133135571Y-77530609D02*
X133040333Y-77482990D01*
X133040333Y-77482990D02*
X132992714Y-77435371D01*
X132992714Y-77435371D02*
X132945095Y-77340133D01*
X132945095Y-77340133D02*
X132945095Y-77244895D01*
X132945095Y-77244895D02*
X132992714Y-77149657D01*
X132992714Y-77149657D02*
X133040333Y-77102038D01*
X133040333Y-77102038D02*
X133135571Y-77054419D01*
X133135571Y-77054419D02*
X133373666Y-77054419D01*
X133373666Y-77054419D02*
X133516523Y-77102038D01*
X226899353Y-68942180D02*
X226851734Y-68989800D01*
X226851734Y-68989800D02*
X226708877Y-69037419D01*
X226708877Y-69037419D02*
X226613639Y-69037419D01*
X226613639Y-69037419D02*
X226470782Y-68989800D01*
X226470782Y-68989800D02*
X226375544Y-68894561D01*
X226375544Y-68894561D02*
X226327925Y-68799323D01*
X226327925Y-68799323D02*
X226280306Y-68608847D01*
X226280306Y-68608847D02*
X226280306Y-68465990D01*
X226280306Y-68465990D02*
X226327925Y-68275514D01*
X226327925Y-68275514D02*
X226375544Y-68180276D01*
X226375544Y-68180276D02*
X226470782Y-68085038D01*
X226470782Y-68085038D02*
X226613639Y-68037419D01*
X226613639Y-68037419D02*
X226708877Y-68037419D01*
X226708877Y-68037419D02*
X226851734Y-68085038D01*
X226851734Y-68085038D02*
X226899353Y-68132657D01*
X227899353Y-68942180D02*
X227851734Y-68989800D01*
X227851734Y-68989800D02*
X227708877Y-69037419D01*
X227708877Y-69037419D02*
X227613639Y-69037419D01*
X227613639Y-69037419D02*
X227470782Y-68989800D01*
X227470782Y-68989800D02*
X227375544Y-68894561D01*
X227375544Y-68894561D02*
X227327925Y-68799323D01*
X227327925Y-68799323D02*
X227280306Y-68608847D01*
X227280306Y-68608847D02*
X227280306Y-68465990D01*
X227280306Y-68465990D02*
X227327925Y-68275514D01*
X227327925Y-68275514D02*
X227375544Y-68180276D01*
X227375544Y-68180276D02*
X227470782Y-68085038D01*
X227470782Y-68085038D02*
X227613639Y-68037419D01*
X227613639Y-68037419D02*
X227708877Y-68037419D01*
X227708877Y-68037419D02*
X227851734Y-68085038D01*
X227851734Y-68085038D02*
X227899353Y-68132657D01*
X228804115Y-68037419D02*
X228327925Y-68037419D01*
X228327925Y-68037419D02*
X228280306Y-68513609D01*
X228280306Y-68513609D02*
X228327925Y-68465990D01*
X228327925Y-68465990D02*
X228423163Y-68418371D01*
X228423163Y-68418371D02*
X228661258Y-68418371D01*
X228661258Y-68418371D02*
X228756496Y-68465990D01*
X228756496Y-68465990D02*
X228804115Y-68513609D01*
X228804115Y-68513609D02*
X228851734Y-68608847D01*
X228851734Y-68608847D02*
X228851734Y-68846942D01*
X228851734Y-68846942D02*
X228804115Y-68942180D01*
X228804115Y-68942180D02*
X228756496Y-68989800D01*
X228756496Y-68989800D02*
X228661258Y-69037419D01*
X228661258Y-69037419D02*
X228423163Y-69037419D01*
X228423163Y-69037419D02*
X228327925Y-68989800D01*
X228327925Y-68989800D02*
X228280306Y-68942180D01*
X226899353Y-66402180D02*
X226851734Y-66449800D01*
X226851734Y-66449800D02*
X226708877Y-66497419D01*
X226708877Y-66497419D02*
X226613639Y-66497419D01*
X226613639Y-66497419D02*
X226470782Y-66449800D01*
X226470782Y-66449800D02*
X226375544Y-66354561D01*
X226375544Y-66354561D02*
X226327925Y-66259323D01*
X226327925Y-66259323D02*
X226280306Y-66068847D01*
X226280306Y-66068847D02*
X226280306Y-65925990D01*
X226280306Y-65925990D02*
X226327925Y-65735514D01*
X226327925Y-65735514D02*
X226375544Y-65640276D01*
X226375544Y-65640276D02*
X226470782Y-65545038D01*
X226470782Y-65545038D02*
X226613639Y-65497419D01*
X226613639Y-65497419D02*
X226708877Y-65497419D01*
X226708877Y-65497419D02*
X226851734Y-65545038D01*
X226851734Y-65545038D02*
X226899353Y-65592657D01*
X227899353Y-66402180D02*
X227851734Y-66449800D01*
X227851734Y-66449800D02*
X227708877Y-66497419D01*
X227708877Y-66497419D02*
X227613639Y-66497419D01*
X227613639Y-66497419D02*
X227470782Y-66449800D01*
X227470782Y-66449800D02*
X227375544Y-66354561D01*
X227375544Y-66354561D02*
X227327925Y-66259323D01*
X227327925Y-66259323D02*
X227280306Y-66068847D01*
X227280306Y-66068847D02*
X227280306Y-65925990D01*
X227280306Y-65925990D02*
X227327925Y-65735514D01*
X227327925Y-65735514D02*
X227375544Y-65640276D01*
X227375544Y-65640276D02*
X227470782Y-65545038D01*
X227470782Y-65545038D02*
X227613639Y-65497419D01*
X227613639Y-65497419D02*
X227708877Y-65497419D01*
X227708877Y-65497419D02*
X227851734Y-65545038D01*
X227851734Y-65545038D02*
X227899353Y-65592657D01*
X228851734Y-66497419D02*
X228280306Y-66497419D01*
X228566020Y-66497419D02*
X228566020Y-65497419D01*
X228566020Y-65497419D02*
X228470782Y-65640276D01*
X228470782Y-65640276D02*
X228375544Y-65735514D01*
X228375544Y-65735514D02*
X228280306Y-65783133D01*
X236015884Y-132537419D02*
X236015884Y-131537419D01*
X236015884Y-131537419D02*
X236253979Y-131537419D01*
X236253979Y-131537419D02*
X236396836Y-131585038D01*
X236396836Y-131585038D02*
X236492074Y-131680276D01*
X236492074Y-131680276D02*
X236539693Y-131775514D01*
X236539693Y-131775514D02*
X236587312Y-131965990D01*
X236587312Y-131965990D02*
X236587312Y-132108847D01*
X236587312Y-132108847D02*
X236539693Y-132299323D01*
X236539693Y-132299323D02*
X236492074Y-132394561D01*
X236492074Y-132394561D02*
X236396836Y-132489800D01*
X236396836Y-132489800D02*
X236253979Y-132537419D01*
X236253979Y-132537419D02*
X236015884Y-132537419D01*
X237206360Y-131537419D02*
X237301598Y-131537419D01*
X237301598Y-131537419D02*
X237396836Y-131585038D01*
X237396836Y-131585038D02*
X237444455Y-131632657D01*
X237444455Y-131632657D02*
X237492074Y-131727895D01*
X237492074Y-131727895D02*
X237539693Y-131918371D01*
X237539693Y-131918371D02*
X237539693Y-132156466D01*
X237539693Y-132156466D02*
X237492074Y-132346942D01*
X237492074Y-132346942D02*
X237444455Y-132442180D01*
X237444455Y-132442180D02*
X237396836Y-132489800D01*
X237396836Y-132489800D02*
X237301598Y-132537419D01*
X237301598Y-132537419D02*
X237206360Y-132537419D01*
X237206360Y-132537419D02*
X237111122Y-132489800D01*
X237111122Y-132489800D02*
X237063503Y-132442180D01*
X237063503Y-132442180D02*
X237015884Y-132346942D01*
X237015884Y-132346942D02*
X236968265Y-132156466D01*
X236968265Y-132156466D02*
X236968265Y-131918371D01*
X236968265Y-131918371D02*
X237015884Y-131727895D01*
X237015884Y-131727895D02*
X237063503Y-131632657D01*
X237063503Y-131632657D02*
X237111122Y-131585038D01*
X237111122Y-131585038D02*
X237206360Y-131537419D01*
X227327925Y-127457419D02*
X227327925Y-126457419D01*
X227327925Y-126457419D02*
X227566020Y-126457419D01*
X227566020Y-126457419D02*
X227708877Y-126505038D01*
X227708877Y-126505038D02*
X227804115Y-126600276D01*
X227804115Y-126600276D02*
X227851734Y-126695514D01*
X227851734Y-126695514D02*
X227899353Y-126885990D01*
X227899353Y-126885990D02*
X227899353Y-127028847D01*
X227899353Y-127028847D02*
X227851734Y-127219323D01*
X227851734Y-127219323D02*
X227804115Y-127314561D01*
X227804115Y-127314561D02*
X227708877Y-127409800D01*
X227708877Y-127409800D02*
X227566020Y-127457419D01*
X227566020Y-127457419D02*
X227327925Y-127457419D01*
X228756496Y-126790752D02*
X228756496Y-127457419D01*
X228518401Y-126409800D02*
X228280306Y-127124085D01*
X228280306Y-127124085D02*
X228899353Y-127124085D01*
X217265333Y-61499180D02*
X217217714Y-61546800D01*
X217217714Y-61546800D02*
X217074857Y-61594419D01*
X217074857Y-61594419D02*
X216979619Y-61594419D01*
X216979619Y-61594419D02*
X216836762Y-61546800D01*
X216836762Y-61546800D02*
X216741524Y-61451561D01*
X216741524Y-61451561D02*
X216693905Y-61356323D01*
X216693905Y-61356323D02*
X216646286Y-61165847D01*
X216646286Y-61165847D02*
X216646286Y-61022990D01*
X216646286Y-61022990D02*
X216693905Y-60832514D01*
X216693905Y-60832514D02*
X216741524Y-60737276D01*
X216741524Y-60737276D02*
X216836762Y-60642038D01*
X216836762Y-60642038D02*
X216979619Y-60594419D01*
X216979619Y-60594419D02*
X217074857Y-60594419D01*
X217074857Y-60594419D02*
X217217714Y-60642038D01*
X217217714Y-60642038D02*
X217265333Y-60689657D01*
X218265333Y-61499180D02*
X218217714Y-61546800D01*
X218217714Y-61546800D02*
X218074857Y-61594419D01*
X218074857Y-61594419D02*
X217979619Y-61594419D01*
X217979619Y-61594419D02*
X217836762Y-61546800D01*
X217836762Y-61546800D02*
X217741524Y-61451561D01*
X217741524Y-61451561D02*
X217693905Y-61356323D01*
X217693905Y-61356323D02*
X217646286Y-61165847D01*
X217646286Y-61165847D02*
X217646286Y-61022990D01*
X217646286Y-61022990D02*
X217693905Y-60832514D01*
X217693905Y-60832514D02*
X217741524Y-60737276D01*
X217741524Y-60737276D02*
X217836762Y-60642038D01*
X217836762Y-60642038D02*
X217979619Y-60594419D01*
X217979619Y-60594419D02*
X218074857Y-60594419D01*
X218074857Y-60594419D02*
X218217714Y-60642038D01*
X218217714Y-60642038D02*
X218265333Y-60689657D01*
X219217714Y-61594419D02*
X218646286Y-61594419D01*
X218932000Y-61594419D02*
X218932000Y-60594419D01*
X218932000Y-60594419D02*
X218836762Y-60737276D01*
X218836762Y-60737276D02*
X218741524Y-60832514D01*
X218741524Y-60832514D02*
X218646286Y-60880133D01*
X236539693Y-141745038D02*
X236444455Y-141697419D01*
X236444455Y-141697419D02*
X236301598Y-141697419D01*
X236301598Y-141697419D02*
X236158741Y-141745038D01*
X236158741Y-141745038D02*
X236063503Y-141840276D01*
X236063503Y-141840276D02*
X236015884Y-141935514D01*
X236015884Y-141935514D02*
X235968265Y-142125990D01*
X235968265Y-142125990D02*
X235968265Y-142268847D01*
X235968265Y-142268847D02*
X236015884Y-142459323D01*
X236015884Y-142459323D02*
X236063503Y-142554561D01*
X236063503Y-142554561D02*
X236158741Y-142649800D01*
X236158741Y-142649800D02*
X236301598Y-142697419D01*
X236301598Y-142697419D02*
X236396836Y-142697419D01*
X236396836Y-142697419D02*
X236539693Y-142649800D01*
X236539693Y-142649800D02*
X236587312Y-142602180D01*
X236587312Y-142602180D02*
X236587312Y-142268847D01*
X236587312Y-142268847D02*
X236396836Y-142268847D01*
X237015884Y-142697419D02*
X237015884Y-141697419D01*
X237015884Y-141697419D02*
X237587312Y-142697419D01*
X237587312Y-142697419D02*
X237587312Y-141697419D01*
X238063503Y-142697419D02*
X238063503Y-141697419D01*
X238063503Y-141697419D02*
X238301598Y-141697419D01*
X238301598Y-141697419D02*
X238444455Y-141745038D01*
X238444455Y-141745038D02*
X238539693Y-141840276D01*
X238539693Y-141840276D02*
X238587312Y-141935514D01*
X238587312Y-141935514D02*
X238634931Y-142125990D01*
X238634931Y-142125990D02*
X238634931Y-142268847D01*
X238634931Y-142268847D02*
X238587312Y-142459323D01*
X238587312Y-142459323D02*
X238539693Y-142554561D01*
X238539693Y-142554561D02*
X238444455Y-142649800D01*
X238444455Y-142649800D02*
X238301598Y-142697419D01*
X238301598Y-142697419D02*
X238063503Y-142697419D01*
X131048238Y-85452180D02*
X131000619Y-85499800D01*
X131000619Y-85499800D02*
X130857762Y-85547419D01*
X130857762Y-85547419D02*
X130762524Y-85547419D01*
X130762524Y-85547419D02*
X130619667Y-85499800D01*
X130619667Y-85499800D02*
X130524429Y-85404561D01*
X130524429Y-85404561D02*
X130476810Y-85309323D01*
X130476810Y-85309323D02*
X130429191Y-85118847D01*
X130429191Y-85118847D02*
X130429191Y-84975990D01*
X130429191Y-84975990D02*
X130476810Y-84785514D01*
X130476810Y-84785514D02*
X130524429Y-84690276D01*
X130524429Y-84690276D02*
X130619667Y-84595038D01*
X130619667Y-84595038D02*
X130762524Y-84547419D01*
X130762524Y-84547419D02*
X130857762Y-84547419D01*
X130857762Y-84547419D02*
X131000619Y-84595038D01*
X131000619Y-84595038D02*
X131048238Y-84642657D01*
X131476810Y-85547419D02*
X131476810Y-84547419D01*
X131476810Y-84547419D02*
X131857762Y-84547419D01*
X131857762Y-84547419D02*
X131953000Y-84595038D01*
X131953000Y-84595038D02*
X132000619Y-84642657D01*
X132000619Y-84642657D02*
X132048238Y-84737895D01*
X132048238Y-84737895D02*
X132048238Y-84880752D01*
X132048238Y-84880752D02*
X132000619Y-84975990D01*
X132000619Y-84975990D02*
X131953000Y-85023609D01*
X131953000Y-85023609D02*
X131857762Y-85071228D01*
X131857762Y-85071228D02*
X131476810Y-85071228D01*
X132476810Y-85547419D02*
X132476810Y-84547419D01*
X132857762Y-84547419D02*
X133524428Y-85547419D01*
X133524428Y-84547419D02*
X132857762Y-85547419D01*
X217812952Y-75310419D02*
X217479619Y-74834228D01*
X217241524Y-75310419D02*
X217241524Y-74310419D01*
X217241524Y-74310419D02*
X217622476Y-74310419D01*
X217622476Y-74310419D02*
X217717714Y-74358038D01*
X217717714Y-74358038D02*
X217765333Y-74405657D01*
X217765333Y-74405657D02*
X217812952Y-74500895D01*
X217812952Y-74500895D02*
X217812952Y-74643752D01*
X217812952Y-74643752D02*
X217765333Y-74738990D01*
X217765333Y-74738990D02*
X217717714Y-74786609D01*
X217717714Y-74786609D02*
X217622476Y-74834228D01*
X217622476Y-74834228D02*
X217241524Y-74834228D01*
X218098667Y-74310419D02*
X218432000Y-75310419D01*
X218432000Y-75310419D02*
X218765333Y-74310419D01*
X217265333Y-91979180D02*
X217217714Y-92026800D01*
X217217714Y-92026800D02*
X217074857Y-92074419D01*
X217074857Y-92074419D02*
X216979619Y-92074419D01*
X216979619Y-92074419D02*
X216836762Y-92026800D01*
X216836762Y-92026800D02*
X216741524Y-91931561D01*
X216741524Y-91931561D02*
X216693905Y-91836323D01*
X216693905Y-91836323D02*
X216646286Y-91645847D01*
X216646286Y-91645847D02*
X216646286Y-91502990D01*
X216646286Y-91502990D02*
X216693905Y-91312514D01*
X216693905Y-91312514D02*
X216741524Y-91217276D01*
X216741524Y-91217276D02*
X216836762Y-91122038D01*
X216836762Y-91122038D02*
X216979619Y-91074419D01*
X216979619Y-91074419D02*
X217074857Y-91074419D01*
X217074857Y-91074419D02*
X217217714Y-91122038D01*
X217217714Y-91122038D02*
X217265333Y-91169657D01*
X218265333Y-91979180D02*
X218217714Y-92026800D01*
X218217714Y-92026800D02*
X218074857Y-92074419D01*
X218074857Y-92074419D02*
X217979619Y-92074419D01*
X217979619Y-92074419D02*
X217836762Y-92026800D01*
X217836762Y-92026800D02*
X217741524Y-91931561D01*
X217741524Y-91931561D02*
X217693905Y-91836323D01*
X217693905Y-91836323D02*
X217646286Y-91645847D01*
X217646286Y-91645847D02*
X217646286Y-91502990D01*
X217646286Y-91502990D02*
X217693905Y-91312514D01*
X217693905Y-91312514D02*
X217741524Y-91217276D01*
X217741524Y-91217276D02*
X217836762Y-91122038D01*
X217836762Y-91122038D02*
X217979619Y-91074419D01*
X217979619Y-91074419D02*
X218074857Y-91074419D01*
X218074857Y-91074419D02*
X218217714Y-91122038D01*
X218217714Y-91122038D02*
X218265333Y-91169657D01*
X219122476Y-91074419D02*
X218932000Y-91074419D01*
X218932000Y-91074419D02*
X218836762Y-91122038D01*
X218836762Y-91122038D02*
X218789143Y-91169657D01*
X218789143Y-91169657D02*
X218693905Y-91312514D01*
X218693905Y-91312514D02*
X218646286Y-91502990D01*
X218646286Y-91502990D02*
X218646286Y-91883942D01*
X218646286Y-91883942D02*
X218693905Y-91979180D01*
X218693905Y-91979180D02*
X218741524Y-92026800D01*
X218741524Y-92026800D02*
X218836762Y-92074419D01*
X218836762Y-92074419D02*
X219027238Y-92074419D01*
X219027238Y-92074419D02*
X219122476Y-92026800D01*
X219122476Y-92026800D02*
X219170095Y-91979180D01*
X219170095Y-91979180D02*
X219217714Y-91883942D01*
X219217714Y-91883942D02*
X219217714Y-91645847D01*
X219217714Y-91645847D02*
X219170095Y-91550609D01*
X219170095Y-91550609D02*
X219122476Y-91502990D01*
X219122476Y-91502990D02*
X219027238Y-91455371D01*
X219027238Y-91455371D02*
X218836762Y-91455371D01*
X218836762Y-91455371D02*
X218741524Y-91502990D01*
X218741524Y-91502990D02*
X218693905Y-91550609D01*
X218693905Y-91550609D02*
X218646286Y-91645847D01*
X236539693Y-70625038D02*
X236444455Y-70577419D01*
X236444455Y-70577419D02*
X236301598Y-70577419D01*
X236301598Y-70577419D02*
X236158741Y-70625038D01*
X236158741Y-70625038D02*
X236063503Y-70720276D01*
X236063503Y-70720276D02*
X236015884Y-70815514D01*
X236015884Y-70815514D02*
X235968265Y-71005990D01*
X235968265Y-71005990D02*
X235968265Y-71148847D01*
X235968265Y-71148847D02*
X236015884Y-71339323D01*
X236015884Y-71339323D02*
X236063503Y-71434561D01*
X236063503Y-71434561D02*
X236158741Y-71529800D01*
X236158741Y-71529800D02*
X236301598Y-71577419D01*
X236301598Y-71577419D02*
X236396836Y-71577419D01*
X236396836Y-71577419D02*
X236539693Y-71529800D01*
X236539693Y-71529800D02*
X236587312Y-71482180D01*
X236587312Y-71482180D02*
X236587312Y-71148847D01*
X236587312Y-71148847D02*
X236396836Y-71148847D01*
X237015884Y-71577419D02*
X237015884Y-70577419D01*
X237015884Y-70577419D02*
X237587312Y-71577419D01*
X237587312Y-71577419D02*
X237587312Y-70577419D01*
X238063503Y-71577419D02*
X238063503Y-70577419D01*
X238063503Y-70577419D02*
X238301598Y-70577419D01*
X238301598Y-70577419D02*
X238444455Y-70625038D01*
X238444455Y-70625038D02*
X238539693Y-70720276D01*
X238539693Y-70720276D02*
X238587312Y-70815514D01*
X238587312Y-70815514D02*
X238634931Y-71005990D01*
X238634931Y-71005990D02*
X238634931Y-71148847D01*
X238634931Y-71148847D02*
X238587312Y-71339323D01*
X238587312Y-71339323D02*
X238539693Y-71434561D01*
X238539693Y-71434561D02*
X238444455Y-71529800D01*
X238444455Y-71529800D02*
X238301598Y-71577419D01*
X238301598Y-71577419D02*
X238063503Y-71577419D01*
X227327925Y-124917419D02*
X227327925Y-123917419D01*
X227327925Y-123917419D02*
X227566020Y-123917419D01*
X227566020Y-123917419D02*
X227708877Y-123965038D01*
X227708877Y-123965038D02*
X227804115Y-124060276D01*
X227804115Y-124060276D02*
X227851734Y-124155514D01*
X227851734Y-124155514D02*
X227899353Y-124345990D01*
X227899353Y-124345990D02*
X227899353Y-124488847D01*
X227899353Y-124488847D02*
X227851734Y-124679323D01*
X227851734Y-124679323D02*
X227804115Y-124774561D01*
X227804115Y-124774561D02*
X227708877Y-124869800D01*
X227708877Y-124869800D02*
X227566020Y-124917419D01*
X227566020Y-124917419D02*
X227327925Y-124917419D01*
X228756496Y-123917419D02*
X228566020Y-123917419D01*
X228566020Y-123917419D02*
X228470782Y-123965038D01*
X228470782Y-123965038D02*
X228423163Y-124012657D01*
X228423163Y-124012657D02*
X228327925Y-124155514D01*
X228327925Y-124155514D02*
X228280306Y-124345990D01*
X228280306Y-124345990D02*
X228280306Y-124726942D01*
X228280306Y-124726942D02*
X228327925Y-124822180D01*
X228327925Y-124822180D02*
X228375544Y-124869800D01*
X228375544Y-124869800D02*
X228470782Y-124917419D01*
X228470782Y-124917419D02*
X228661258Y-124917419D01*
X228661258Y-124917419D02*
X228756496Y-124869800D01*
X228756496Y-124869800D02*
X228804115Y-124822180D01*
X228804115Y-124822180D02*
X228851734Y-124726942D01*
X228851734Y-124726942D02*
X228851734Y-124488847D01*
X228851734Y-124488847D02*
X228804115Y-124393609D01*
X228804115Y-124393609D02*
X228756496Y-124345990D01*
X228756496Y-124345990D02*
X228661258Y-124298371D01*
X228661258Y-124298371D02*
X228470782Y-124298371D01*
X228470782Y-124298371D02*
X228375544Y-124345990D01*
X228375544Y-124345990D02*
X228327925Y-124393609D01*
X228327925Y-124393609D02*
X228280306Y-124488847D01*
X217241524Y-96154419D02*
X217241524Y-96963942D01*
X217241524Y-96963942D02*
X217289143Y-97059180D01*
X217289143Y-97059180D02*
X217336762Y-97106800D01*
X217336762Y-97106800D02*
X217432000Y-97154419D01*
X217432000Y-97154419D02*
X217622476Y-97154419D01*
X217622476Y-97154419D02*
X217717714Y-97106800D01*
X217717714Y-97106800D02*
X217765333Y-97059180D01*
X217765333Y-97059180D02*
X217812952Y-96963942D01*
X217812952Y-96963942D02*
X217812952Y-96154419D01*
X218765333Y-97154419D02*
X218289143Y-97154419D01*
X218289143Y-97154419D02*
X218289143Y-96154419D01*
X235968265Y-81451704D02*
X236444455Y-81451704D01*
X235873027Y-81737419D02*
X236206360Y-80737419D01*
X236206360Y-80737419D02*
X236539693Y-81737419D01*
X237206360Y-81213609D02*
X236873027Y-81213609D01*
X236873027Y-81737419D02*
X236873027Y-80737419D01*
X236873027Y-80737419D02*
X237349217Y-80737419D01*
X184626333Y-110852180D02*
X184578714Y-110899800D01*
X184578714Y-110899800D02*
X184435857Y-110947419D01*
X184435857Y-110947419D02*
X184340619Y-110947419D01*
X184340619Y-110947419D02*
X184197762Y-110899800D01*
X184197762Y-110899800D02*
X184102524Y-110804561D01*
X184102524Y-110804561D02*
X184054905Y-110709323D01*
X184054905Y-110709323D02*
X184007286Y-110518847D01*
X184007286Y-110518847D02*
X184007286Y-110375990D01*
X184007286Y-110375990D02*
X184054905Y-110185514D01*
X184054905Y-110185514D02*
X184102524Y-110090276D01*
X184102524Y-110090276D02*
X184197762Y-109995038D01*
X184197762Y-109995038D02*
X184340619Y-109947419D01*
X184340619Y-109947419D02*
X184435857Y-109947419D01*
X184435857Y-109947419D02*
X184578714Y-109995038D01*
X184578714Y-109995038D02*
X184626333Y-110042657D01*
X185626333Y-110852180D02*
X185578714Y-110899800D01*
X185578714Y-110899800D02*
X185435857Y-110947419D01*
X185435857Y-110947419D02*
X185340619Y-110947419D01*
X185340619Y-110947419D02*
X185197762Y-110899800D01*
X185197762Y-110899800D02*
X185102524Y-110804561D01*
X185102524Y-110804561D02*
X185054905Y-110709323D01*
X185054905Y-110709323D02*
X185007286Y-110518847D01*
X185007286Y-110518847D02*
X185007286Y-110375990D01*
X185007286Y-110375990D02*
X185054905Y-110185514D01*
X185054905Y-110185514D02*
X185102524Y-110090276D01*
X185102524Y-110090276D02*
X185197762Y-109995038D01*
X185197762Y-109995038D02*
X185340619Y-109947419D01*
X185340619Y-109947419D02*
X185435857Y-109947419D01*
X185435857Y-109947419D02*
X185578714Y-109995038D01*
X185578714Y-109995038D02*
X185626333Y-110042657D01*
X186578714Y-110947419D02*
X186007286Y-110947419D01*
X186293000Y-110947419D02*
X186293000Y-109947419D01*
X186293000Y-109947419D02*
X186197762Y-110090276D01*
X186197762Y-110090276D02*
X186102524Y-110185514D01*
X186102524Y-110185514D02*
X186007286Y-110233133D01*
X224137449Y-104597419D02*
X224137449Y-103597419D01*
X224137449Y-104073609D02*
X224708877Y-104073609D01*
X224708877Y-104597419D02*
X224708877Y-103597419D01*
X225137449Y-104549800D02*
X225280306Y-104597419D01*
X225280306Y-104597419D02*
X225518401Y-104597419D01*
X225518401Y-104597419D02*
X225613639Y-104549800D01*
X225613639Y-104549800D02*
X225661258Y-104502180D01*
X225661258Y-104502180D02*
X225708877Y-104406942D01*
X225708877Y-104406942D02*
X225708877Y-104311704D01*
X225708877Y-104311704D02*
X225661258Y-104216466D01*
X225661258Y-104216466D02*
X225613639Y-104168847D01*
X225613639Y-104168847D02*
X225518401Y-104121228D01*
X225518401Y-104121228D02*
X225327925Y-104073609D01*
X225327925Y-104073609D02*
X225232687Y-104025990D01*
X225232687Y-104025990D02*
X225185068Y-103978371D01*
X225185068Y-103978371D02*
X225137449Y-103883133D01*
X225137449Y-103883133D02*
X225137449Y-103787895D01*
X225137449Y-103787895D02*
X225185068Y-103692657D01*
X225185068Y-103692657D02*
X225232687Y-103645038D01*
X225232687Y-103645038D02*
X225327925Y-103597419D01*
X225327925Y-103597419D02*
X225566020Y-103597419D01*
X225566020Y-103597419D02*
X225708877Y-103645038D01*
X226327925Y-104121228D02*
X226327925Y-104597419D01*
X225994592Y-103597419D02*
X226327925Y-104121228D01*
X226327925Y-104121228D02*
X226661258Y-103597419D01*
X226994592Y-104597419D02*
X226994592Y-103597419D01*
X226994592Y-103597419D02*
X227566020Y-104597419D01*
X227566020Y-104597419D02*
X227566020Y-103597419D01*
X228042211Y-104216466D02*
X228804116Y-104216466D01*
X225042211Y-135077419D02*
X225042211Y-134077419D01*
X225042211Y-134077419D02*
X225280306Y-134077419D01*
X225280306Y-134077419D02*
X225423163Y-134125038D01*
X225423163Y-134125038D02*
X225518401Y-134220276D01*
X225518401Y-134220276D02*
X225566020Y-134315514D01*
X225566020Y-134315514D02*
X225613639Y-134505990D01*
X225613639Y-134505990D02*
X225613639Y-134648847D01*
X225613639Y-134648847D02*
X225566020Y-134839323D01*
X225566020Y-134839323D02*
X225518401Y-134934561D01*
X225518401Y-134934561D02*
X225423163Y-135029800D01*
X225423163Y-135029800D02*
X225280306Y-135077419D01*
X225280306Y-135077419D02*
X225042211Y-135077419D01*
X225946973Y-134077419D02*
X226185068Y-135077419D01*
X226185068Y-135077419D02*
X226375544Y-134363133D01*
X226375544Y-134363133D02*
X226566020Y-135077419D01*
X226566020Y-135077419D02*
X226804116Y-134077419D01*
X227137449Y-134791704D02*
X227613639Y-134791704D01*
X227042211Y-135077419D02*
X227375544Y-134077419D01*
X227375544Y-134077419D02*
X227708877Y-135077419D01*
X228042211Y-135077419D02*
X228042211Y-134077419D01*
X228375544Y-134077419D02*
X228946972Y-134077419D01*
X228661258Y-135077419D02*
X228661258Y-134077419D01*
X224904116Y-133799800D02*
X228942211Y-133799800D01*
X184094714Y-116027419D02*
X184094714Y-115027419D01*
X184094714Y-115503609D02*
X184666142Y-115503609D01*
X184666142Y-116027419D02*
X184666142Y-115027419D01*
X185094714Y-115979800D02*
X185237571Y-116027419D01*
X185237571Y-116027419D02*
X185475666Y-116027419D01*
X185475666Y-116027419D02*
X185570904Y-115979800D01*
X185570904Y-115979800D02*
X185618523Y-115932180D01*
X185618523Y-115932180D02*
X185666142Y-115836942D01*
X185666142Y-115836942D02*
X185666142Y-115741704D01*
X185666142Y-115741704D02*
X185618523Y-115646466D01*
X185618523Y-115646466D02*
X185570904Y-115598847D01*
X185570904Y-115598847D02*
X185475666Y-115551228D01*
X185475666Y-115551228D02*
X185285190Y-115503609D01*
X185285190Y-115503609D02*
X185189952Y-115455990D01*
X185189952Y-115455990D02*
X185142333Y-115408371D01*
X185142333Y-115408371D02*
X185094714Y-115313133D01*
X185094714Y-115313133D02*
X185094714Y-115217895D01*
X185094714Y-115217895D02*
X185142333Y-115122657D01*
X185142333Y-115122657D02*
X185189952Y-115075038D01*
X185189952Y-115075038D02*
X185285190Y-115027419D01*
X185285190Y-115027419D02*
X185523285Y-115027419D01*
X185523285Y-115027419D02*
X185666142Y-115075038D01*
X186285190Y-115551228D02*
X186285190Y-116027419D01*
X185951857Y-115027419D02*
X186285190Y-115551228D01*
X186285190Y-115551228D02*
X186618523Y-115027419D01*
X186951857Y-116027419D02*
X186951857Y-115027419D01*
X186951857Y-115027419D02*
X187523285Y-116027419D01*
X187523285Y-116027419D02*
X187523285Y-115027419D01*
X188570904Y-115932180D02*
X188523285Y-115979800D01*
X188523285Y-115979800D02*
X188380428Y-116027419D01*
X188380428Y-116027419D02*
X188285190Y-116027419D01*
X188285190Y-116027419D02*
X188142333Y-115979800D01*
X188142333Y-115979800D02*
X188047095Y-115884561D01*
X188047095Y-115884561D02*
X187999476Y-115789323D01*
X187999476Y-115789323D02*
X187951857Y-115598847D01*
X187951857Y-115598847D02*
X187951857Y-115455990D01*
X187951857Y-115455990D02*
X187999476Y-115265514D01*
X187999476Y-115265514D02*
X188047095Y-115170276D01*
X188047095Y-115170276D02*
X188142333Y-115075038D01*
X188142333Y-115075038D02*
X188285190Y-115027419D01*
X188285190Y-115027419D02*
X188380428Y-115027419D01*
X188380428Y-115027419D02*
X188523285Y-115075038D01*
X188523285Y-115075038D02*
X188570904Y-115122657D01*
X236539693Y-60465038D02*
X236444455Y-60417419D01*
X236444455Y-60417419D02*
X236301598Y-60417419D01*
X236301598Y-60417419D02*
X236158741Y-60465038D01*
X236158741Y-60465038D02*
X236063503Y-60560276D01*
X236063503Y-60560276D02*
X236015884Y-60655514D01*
X236015884Y-60655514D02*
X235968265Y-60845990D01*
X235968265Y-60845990D02*
X235968265Y-60988847D01*
X235968265Y-60988847D02*
X236015884Y-61179323D01*
X236015884Y-61179323D02*
X236063503Y-61274561D01*
X236063503Y-61274561D02*
X236158741Y-61369800D01*
X236158741Y-61369800D02*
X236301598Y-61417419D01*
X236301598Y-61417419D02*
X236396836Y-61417419D01*
X236396836Y-61417419D02*
X236539693Y-61369800D01*
X236539693Y-61369800D02*
X236587312Y-61322180D01*
X236587312Y-61322180D02*
X236587312Y-60988847D01*
X236587312Y-60988847D02*
X236396836Y-60988847D01*
X237015884Y-61417419D02*
X237015884Y-60417419D01*
X237015884Y-60417419D02*
X237587312Y-61417419D01*
X237587312Y-61417419D02*
X237587312Y-60417419D01*
X238063503Y-61417419D02*
X238063503Y-60417419D01*
X238063503Y-60417419D02*
X238301598Y-60417419D01*
X238301598Y-60417419D02*
X238444455Y-60465038D01*
X238444455Y-60465038D02*
X238539693Y-60560276D01*
X238539693Y-60560276D02*
X238587312Y-60655514D01*
X238587312Y-60655514D02*
X238634931Y-60845990D01*
X238634931Y-60845990D02*
X238634931Y-60988847D01*
X238634931Y-60988847D02*
X238587312Y-61179323D01*
X238587312Y-61179323D02*
X238539693Y-61274561D01*
X238539693Y-61274561D02*
X238444455Y-61369800D01*
X238444455Y-61369800D02*
X238301598Y-61417419D01*
X238301598Y-61417419D02*
X238063503Y-61417419D01*
X236015884Y-147396466D02*
X236777789Y-147396466D01*
X236396836Y-147777419D02*
X236396836Y-147015514D01*
X237730169Y-146777419D02*
X237253979Y-146777419D01*
X237253979Y-146777419D02*
X237206360Y-147253609D01*
X237206360Y-147253609D02*
X237253979Y-147205990D01*
X237253979Y-147205990D02*
X237349217Y-147158371D01*
X237349217Y-147158371D02*
X237587312Y-147158371D01*
X237587312Y-147158371D02*
X237682550Y-147205990D01*
X237682550Y-147205990D02*
X237730169Y-147253609D01*
X237730169Y-147253609D02*
X237777788Y-147348847D01*
X237777788Y-147348847D02*
X237777788Y-147586942D01*
X237777788Y-147586942D02*
X237730169Y-147682180D01*
X237730169Y-147682180D02*
X237682550Y-147729800D01*
X237682550Y-147729800D02*
X237587312Y-147777419D01*
X237587312Y-147777419D02*
X237349217Y-147777419D01*
X237349217Y-147777419D02*
X237253979Y-147729800D01*
X237253979Y-147729800D02*
X237206360Y-147682180D01*
X238063503Y-146777419D02*
X238396836Y-147777419D01*
X238396836Y-147777419D02*
X238730169Y-146777419D01*
X227994591Y-71577419D02*
X227661258Y-71101228D01*
X227423163Y-71577419D02*
X227423163Y-70577419D01*
X227423163Y-70577419D02*
X227804115Y-70577419D01*
X227804115Y-70577419D02*
X227899353Y-70625038D01*
X227899353Y-70625038D02*
X227946972Y-70672657D01*
X227946972Y-70672657D02*
X227994591Y-70767895D01*
X227994591Y-70767895D02*
X227994591Y-70910752D01*
X227994591Y-70910752D02*
X227946972Y-71005990D01*
X227946972Y-71005990D02*
X227899353Y-71053609D01*
X227899353Y-71053609D02*
X227804115Y-71101228D01*
X227804115Y-71101228D02*
X227423163Y-71101228D01*
X228280306Y-70577419D02*
X228613639Y-71577419D01*
X228613639Y-71577419D02*
X228946972Y-70577419D01*
X184499333Y-103232180D02*
X184451714Y-103279800D01*
X184451714Y-103279800D02*
X184308857Y-103327419D01*
X184308857Y-103327419D02*
X184213619Y-103327419D01*
X184213619Y-103327419D02*
X184070762Y-103279800D01*
X184070762Y-103279800D02*
X183975524Y-103184561D01*
X183975524Y-103184561D02*
X183927905Y-103089323D01*
X183927905Y-103089323D02*
X183880286Y-102898847D01*
X183880286Y-102898847D02*
X183880286Y-102755990D01*
X183880286Y-102755990D02*
X183927905Y-102565514D01*
X183927905Y-102565514D02*
X183975524Y-102470276D01*
X183975524Y-102470276D02*
X184070762Y-102375038D01*
X184070762Y-102375038D02*
X184213619Y-102327419D01*
X184213619Y-102327419D02*
X184308857Y-102327419D01*
X184308857Y-102327419D02*
X184451714Y-102375038D01*
X184451714Y-102375038D02*
X184499333Y-102422657D01*
X185499333Y-103232180D02*
X185451714Y-103279800D01*
X185451714Y-103279800D02*
X185308857Y-103327419D01*
X185308857Y-103327419D02*
X185213619Y-103327419D01*
X185213619Y-103327419D02*
X185070762Y-103279800D01*
X185070762Y-103279800D02*
X184975524Y-103184561D01*
X184975524Y-103184561D02*
X184927905Y-103089323D01*
X184927905Y-103089323D02*
X184880286Y-102898847D01*
X184880286Y-102898847D02*
X184880286Y-102755990D01*
X184880286Y-102755990D02*
X184927905Y-102565514D01*
X184927905Y-102565514D02*
X184975524Y-102470276D01*
X184975524Y-102470276D02*
X185070762Y-102375038D01*
X185070762Y-102375038D02*
X185213619Y-102327419D01*
X185213619Y-102327419D02*
X185308857Y-102327419D01*
X185308857Y-102327419D02*
X185451714Y-102375038D01*
X185451714Y-102375038D02*
X185499333Y-102422657D01*
X185832667Y-102327419D02*
X186451714Y-102327419D01*
X186451714Y-102327419D02*
X186118381Y-102708371D01*
X186118381Y-102708371D02*
X186261238Y-102708371D01*
X186261238Y-102708371D02*
X186356476Y-102755990D01*
X186356476Y-102755990D02*
X186404095Y-102803609D01*
X186404095Y-102803609D02*
X186451714Y-102898847D01*
X186451714Y-102898847D02*
X186451714Y-103136942D01*
X186451714Y-103136942D02*
X186404095Y-103232180D01*
X186404095Y-103232180D02*
X186356476Y-103279800D01*
X186356476Y-103279800D02*
X186261238Y-103327419D01*
X186261238Y-103327419D02*
X185975524Y-103327419D01*
X185975524Y-103327419D02*
X185880286Y-103279800D01*
X185880286Y-103279800D02*
X185832667Y-103232180D01*
X236015884Y-78197419D02*
X236015884Y-79006942D01*
X236015884Y-79006942D02*
X236063503Y-79102180D01*
X236063503Y-79102180D02*
X236111122Y-79149800D01*
X236111122Y-79149800D02*
X236206360Y-79197419D01*
X236206360Y-79197419D02*
X236396836Y-79197419D01*
X236396836Y-79197419D02*
X236492074Y-79149800D01*
X236492074Y-79149800D02*
X236539693Y-79102180D01*
X236539693Y-79102180D02*
X236587312Y-79006942D01*
X236587312Y-79006942D02*
X236587312Y-78197419D01*
X237539693Y-79197419D02*
X237063503Y-79197419D01*
X237063503Y-79197419D02*
X237063503Y-78197419D01*
X236539693Y-96025038D02*
X236444455Y-95977419D01*
X236444455Y-95977419D02*
X236301598Y-95977419D01*
X236301598Y-95977419D02*
X236158741Y-96025038D01*
X236158741Y-96025038D02*
X236063503Y-96120276D01*
X236063503Y-96120276D02*
X236015884Y-96215514D01*
X236015884Y-96215514D02*
X235968265Y-96405990D01*
X235968265Y-96405990D02*
X235968265Y-96548847D01*
X235968265Y-96548847D02*
X236015884Y-96739323D01*
X236015884Y-96739323D02*
X236063503Y-96834561D01*
X236063503Y-96834561D02*
X236158741Y-96929800D01*
X236158741Y-96929800D02*
X236301598Y-96977419D01*
X236301598Y-96977419D02*
X236396836Y-96977419D01*
X236396836Y-96977419D02*
X236539693Y-96929800D01*
X236539693Y-96929800D02*
X236587312Y-96882180D01*
X236587312Y-96882180D02*
X236587312Y-96548847D01*
X236587312Y-96548847D02*
X236396836Y-96548847D01*
X237015884Y-96977419D02*
X237015884Y-95977419D01*
X237015884Y-95977419D02*
X237587312Y-96977419D01*
X237587312Y-96977419D02*
X237587312Y-95977419D01*
X238063503Y-96977419D02*
X238063503Y-95977419D01*
X238063503Y-95977419D02*
X238301598Y-95977419D01*
X238301598Y-95977419D02*
X238444455Y-96025038D01*
X238444455Y-96025038D02*
X238539693Y-96120276D01*
X238539693Y-96120276D02*
X238587312Y-96215514D01*
X238587312Y-96215514D02*
X238634931Y-96405990D01*
X238634931Y-96405990D02*
X238634931Y-96548847D01*
X238634931Y-96548847D02*
X238587312Y-96739323D01*
X238587312Y-96739323D02*
X238539693Y-96834561D01*
X238539693Y-96834561D02*
X238444455Y-96929800D01*
X238444455Y-96929800D02*
X238301598Y-96977419D01*
X238301598Y-96977419D02*
X238063503Y-96977419D01*
X217265333Y-80295180D02*
X217217714Y-80342800D01*
X217217714Y-80342800D02*
X217074857Y-80390419D01*
X217074857Y-80390419D02*
X216979619Y-80390419D01*
X216979619Y-80390419D02*
X216836762Y-80342800D01*
X216836762Y-80342800D02*
X216741524Y-80247561D01*
X216741524Y-80247561D02*
X216693905Y-80152323D01*
X216693905Y-80152323D02*
X216646286Y-79961847D01*
X216646286Y-79961847D02*
X216646286Y-79818990D01*
X216646286Y-79818990D02*
X216693905Y-79628514D01*
X216693905Y-79628514D02*
X216741524Y-79533276D01*
X216741524Y-79533276D02*
X216836762Y-79438038D01*
X216836762Y-79438038D02*
X216979619Y-79390419D01*
X216979619Y-79390419D02*
X217074857Y-79390419D01*
X217074857Y-79390419D02*
X217217714Y-79438038D01*
X217217714Y-79438038D02*
X217265333Y-79485657D01*
X218265333Y-80295180D02*
X218217714Y-80342800D01*
X218217714Y-80342800D02*
X218074857Y-80390419D01*
X218074857Y-80390419D02*
X217979619Y-80390419D01*
X217979619Y-80390419D02*
X217836762Y-80342800D01*
X217836762Y-80342800D02*
X217741524Y-80247561D01*
X217741524Y-80247561D02*
X217693905Y-80152323D01*
X217693905Y-80152323D02*
X217646286Y-79961847D01*
X217646286Y-79961847D02*
X217646286Y-79818990D01*
X217646286Y-79818990D02*
X217693905Y-79628514D01*
X217693905Y-79628514D02*
X217741524Y-79533276D01*
X217741524Y-79533276D02*
X217836762Y-79438038D01*
X217836762Y-79438038D02*
X217979619Y-79390419D01*
X217979619Y-79390419D02*
X218074857Y-79390419D01*
X218074857Y-79390419D02*
X218217714Y-79438038D01*
X218217714Y-79438038D02*
X218265333Y-79485657D01*
X218646286Y-79485657D02*
X218693905Y-79438038D01*
X218693905Y-79438038D02*
X218789143Y-79390419D01*
X218789143Y-79390419D02*
X219027238Y-79390419D01*
X219027238Y-79390419D02*
X219122476Y-79438038D01*
X219122476Y-79438038D02*
X219170095Y-79485657D01*
X219170095Y-79485657D02*
X219217714Y-79580895D01*
X219217714Y-79580895D02*
X219217714Y-79676133D01*
X219217714Y-79676133D02*
X219170095Y-79818990D01*
X219170095Y-79818990D02*
X218598667Y-80390419D01*
X218598667Y-80390419D02*
X219217714Y-80390419D01*
X236587312Y-76562180D02*
X236539693Y-76609800D01*
X236539693Y-76609800D02*
X236396836Y-76657419D01*
X236396836Y-76657419D02*
X236301598Y-76657419D01*
X236301598Y-76657419D02*
X236158741Y-76609800D01*
X236158741Y-76609800D02*
X236063503Y-76514561D01*
X236063503Y-76514561D02*
X236015884Y-76419323D01*
X236015884Y-76419323D02*
X235968265Y-76228847D01*
X235968265Y-76228847D02*
X235968265Y-76085990D01*
X235968265Y-76085990D02*
X236015884Y-75895514D01*
X236015884Y-75895514D02*
X236063503Y-75800276D01*
X236063503Y-75800276D02*
X236158741Y-75705038D01*
X236158741Y-75705038D02*
X236301598Y-75657419D01*
X236301598Y-75657419D02*
X236396836Y-75657419D01*
X236396836Y-75657419D02*
X236539693Y-75705038D01*
X236539693Y-75705038D02*
X236587312Y-75752657D01*
X237587312Y-76562180D02*
X237539693Y-76609800D01*
X237539693Y-76609800D02*
X237396836Y-76657419D01*
X237396836Y-76657419D02*
X237301598Y-76657419D01*
X237301598Y-76657419D02*
X237158741Y-76609800D01*
X237158741Y-76609800D02*
X237063503Y-76514561D01*
X237063503Y-76514561D02*
X237015884Y-76419323D01*
X237015884Y-76419323D02*
X236968265Y-76228847D01*
X236968265Y-76228847D02*
X236968265Y-76085990D01*
X236968265Y-76085990D02*
X237015884Y-75895514D01*
X237015884Y-75895514D02*
X237063503Y-75800276D01*
X237063503Y-75800276D02*
X237158741Y-75705038D01*
X237158741Y-75705038D02*
X237301598Y-75657419D01*
X237301598Y-75657419D02*
X237396836Y-75657419D01*
X237396836Y-75657419D02*
X237539693Y-75705038D01*
X237539693Y-75705038D02*
X237587312Y-75752657D01*
X238444455Y-75657419D02*
X238253979Y-75657419D01*
X238253979Y-75657419D02*
X238158741Y-75705038D01*
X238158741Y-75705038D02*
X238111122Y-75752657D01*
X238111122Y-75752657D02*
X238015884Y-75895514D01*
X238015884Y-75895514D02*
X237968265Y-76085990D01*
X237968265Y-76085990D02*
X237968265Y-76466942D01*
X237968265Y-76466942D02*
X238015884Y-76562180D01*
X238015884Y-76562180D02*
X238063503Y-76609800D01*
X238063503Y-76609800D02*
X238158741Y-76657419D01*
X238158741Y-76657419D02*
X238349217Y-76657419D01*
X238349217Y-76657419D02*
X238444455Y-76609800D01*
X238444455Y-76609800D02*
X238492074Y-76562180D01*
X238492074Y-76562180D02*
X238539693Y-76466942D01*
X238539693Y-76466942D02*
X238539693Y-76228847D01*
X238539693Y-76228847D02*
X238492074Y-76133609D01*
X238492074Y-76133609D02*
X238444455Y-76085990D01*
X238444455Y-76085990D02*
X238349217Y-76038371D01*
X238349217Y-76038371D02*
X238158741Y-76038371D01*
X238158741Y-76038371D02*
X238063503Y-76085990D01*
X238063503Y-76085990D02*
X238015884Y-76133609D01*
X238015884Y-76133609D02*
X237968265Y-76228847D01*
X157529884Y-120030419D02*
X157529884Y-120839942D01*
X157529884Y-120839942D02*
X157577503Y-120935180D01*
X157577503Y-120935180D02*
X157625122Y-120982800D01*
X157625122Y-120982800D02*
X157720360Y-121030419D01*
X157720360Y-121030419D02*
X157910836Y-121030419D01*
X157910836Y-121030419D02*
X158006074Y-120982800D01*
X158006074Y-120982800D02*
X158053693Y-120935180D01*
X158053693Y-120935180D02*
X158101312Y-120839942D01*
X158101312Y-120839942D02*
X158101312Y-120030419D01*
X158529884Y-120982800D02*
X158672741Y-121030419D01*
X158672741Y-121030419D02*
X158910836Y-121030419D01*
X158910836Y-121030419D02*
X159006074Y-120982800D01*
X159006074Y-120982800D02*
X159053693Y-120935180D01*
X159053693Y-120935180D02*
X159101312Y-120839942D01*
X159101312Y-120839942D02*
X159101312Y-120744704D01*
X159101312Y-120744704D02*
X159053693Y-120649466D01*
X159053693Y-120649466D02*
X159006074Y-120601847D01*
X159006074Y-120601847D02*
X158910836Y-120554228D01*
X158910836Y-120554228D02*
X158720360Y-120506609D01*
X158720360Y-120506609D02*
X158625122Y-120458990D01*
X158625122Y-120458990D02*
X158577503Y-120411371D01*
X158577503Y-120411371D02*
X158529884Y-120316133D01*
X158529884Y-120316133D02*
X158529884Y-120220895D01*
X158529884Y-120220895D02*
X158577503Y-120125657D01*
X158577503Y-120125657D02*
X158625122Y-120078038D01*
X158625122Y-120078038D02*
X158720360Y-120030419D01*
X158720360Y-120030419D02*
X158958455Y-120030419D01*
X158958455Y-120030419D02*
X159101312Y-120078038D01*
X159863217Y-120506609D02*
X160006074Y-120554228D01*
X160006074Y-120554228D02*
X160053693Y-120601847D01*
X160053693Y-120601847D02*
X160101312Y-120697085D01*
X160101312Y-120697085D02*
X160101312Y-120839942D01*
X160101312Y-120839942D02*
X160053693Y-120935180D01*
X160053693Y-120935180D02*
X160006074Y-120982800D01*
X160006074Y-120982800D02*
X159910836Y-121030419D01*
X159910836Y-121030419D02*
X159529884Y-121030419D01*
X159529884Y-121030419D02*
X159529884Y-120030419D01*
X159529884Y-120030419D02*
X159863217Y-120030419D01*
X159863217Y-120030419D02*
X159958455Y-120078038D01*
X159958455Y-120078038D02*
X160006074Y-120125657D01*
X160006074Y-120125657D02*
X160053693Y-120220895D01*
X160053693Y-120220895D02*
X160053693Y-120316133D01*
X160053693Y-120316133D02*
X160006074Y-120411371D01*
X160006074Y-120411371D02*
X159958455Y-120458990D01*
X159958455Y-120458990D02*
X159863217Y-120506609D01*
X159863217Y-120506609D02*
X159529884Y-120506609D01*
X236587312Y-74022180D02*
X236539693Y-74069800D01*
X236539693Y-74069800D02*
X236396836Y-74117419D01*
X236396836Y-74117419D02*
X236301598Y-74117419D01*
X236301598Y-74117419D02*
X236158741Y-74069800D01*
X236158741Y-74069800D02*
X236063503Y-73974561D01*
X236063503Y-73974561D02*
X236015884Y-73879323D01*
X236015884Y-73879323D02*
X235968265Y-73688847D01*
X235968265Y-73688847D02*
X235968265Y-73545990D01*
X235968265Y-73545990D02*
X236015884Y-73355514D01*
X236015884Y-73355514D02*
X236063503Y-73260276D01*
X236063503Y-73260276D02*
X236158741Y-73165038D01*
X236158741Y-73165038D02*
X236301598Y-73117419D01*
X236301598Y-73117419D02*
X236396836Y-73117419D01*
X236396836Y-73117419D02*
X236539693Y-73165038D01*
X236539693Y-73165038D02*
X236587312Y-73212657D01*
X237587312Y-74022180D02*
X237539693Y-74069800D01*
X237539693Y-74069800D02*
X237396836Y-74117419D01*
X237396836Y-74117419D02*
X237301598Y-74117419D01*
X237301598Y-74117419D02*
X237158741Y-74069800D01*
X237158741Y-74069800D02*
X237063503Y-73974561D01*
X237063503Y-73974561D02*
X237015884Y-73879323D01*
X237015884Y-73879323D02*
X236968265Y-73688847D01*
X236968265Y-73688847D02*
X236968265Y-73545990D01*
X236968265Y-73545990D02*
X237015884Y-73355514D01*
X237015884Y-73355514D02*
X237063503Y-73260276D01*
X237063503Y-73260276D02*
X237158741Y-73165038D01*
X237158741Y-73165038D02*
X237301598Y-73117419D01*
X237301598Y-73117419D02*
X237396836Y-73117419D01*
X237396836Y-73117419D02*
X237539693Y-73165038D01*
X237539693Y-73165038D02*
X237587312Y-73212657D01*
X237968265Y-73212657D02*
X238015884Y-73165038D01*
X238015884Y-73165038D02*
X238111122Y-73117419D01*
X238111122Y-73117419D02*
X238349217Y-73117419D01*
X238349217Y-73117419D02*
X238444455Y-73165038D01*
X238444455Y-73165038D02*
X238492074Y-73212657D01*
X238492074Y-73212657D02*
X238539693Y-73307895D01*
X238539693Y-73307895D02*
X238539693Y-73403133D01*
X238539693Y-73403133D02*
X238492074Y-73545990D01*
X238492074Y-73545990D02*
X237920646Y-74117419D01*
X237920646Y-74117419D02*
X238539693Y-74117419D01*
X224375544Y-99517419D02*
X224375544Y-98517419D01*
X224375544Y-98993609D02*
X224946972Y-98993609D01*
X224946972Y-99517419D02*
X224946972Y-98517419D01*
X225375544Y-99469800D02*
X225518401Y-99517419D01*
X225518401Y-99517419D02*
X225756496Y-99517419D01*
X225756496Y-99517419D02*
X225851734Y-99469800D01*
X225851734Y-99469800D02*
X225899353Y-99422180D01*
X225899353Y-99422180D02*
X225946972Y-99326942D01*
X225946972Y-99326942D02*
X225946972Y-99231704D01*
X225946972Y-99231704D02*
X225899353Y-99136466D01*
X225899353Y-99136466D02*
X225851734Y-99088847D01*
X225851734Y-99088847D02*
X225756496Y-99041228D01*
X225756496Y-99041228D02*
X225566020Y-98993609D01*
X225566020Y-98993609D02*
X225470782Y-98945990D01*
X225470782Y-98945990D02*
X225423163Y-98898371D01*
X225423163Y-98898371D02*
X225375544Y-98803133D01*
X225375544Y-98803133D02*
X225375544Y-98707895D01*
X225375544Y-98707895D02*
X225423163Y-98612657D01*
X225423163Y-98612657D02*
X225470782Y-98565038D01*
X225470782Y-98565038D02*
X225566020Y-98517419D01*
X225566020Y-98517419D02*
X225804115Y-98517419D01*
X225804115Y-98517419D02*
X225946972Y-98565038D01*
X226566020Y-99041228D02*
X226566020Y-99517419D01*
X226232687Y-98517419D02*
X226566020Y-99041228D01*
X226566020Y-99041228D02*
X226899353Y-98517419D01*
X227232687Y-99517419D02*
X227232687Y-98517419D01*
X227232687Y-98517419D02*
X227804115Y-99517419D01*
X227804115Y-99517419D02*
X227804115Y-98517419D01*
X228851734Y-99422180D02*
X228804115Y-99469800D01*
X228804115Y-99469800D02*
X228661258Y-99517419D01*
X228661258Y-99517419D02*
X228566020Y-99517419D01*
X228566020Y-99517419D02*
X228423163Y-99469800D01*
X228423163Y-99469800D02*
X228327925Y-99374561D01*
X228327925Y-99374561D02*
X228280306Y-99279323D01*
X228280306Y-99279323D02*
X228232687Y-99088847D01*
X228232687Y-99088847D02*
X228232687Y-98945990D01*
X228232687Y-98945990D02*
X228280306Y-98755514D01*
X228280306Y-98755514D02*
X228327925Y-98660276D01*
X228327925Y-98660276D02*
X228423163Y-98565038D01*
X228423163Y-98565038D02*
X228566020Y-98517419D01*
X228566020Y-98517419D02*
X228661258Y-98517419D01*
X228661258Y-98517419D02*
X228804115Y-98565038D01*
X228804115Y-98565038D02*
X228851734Y-98612657D01*
X217146286Y-105790419D02*
X217146286Y-104790419D01*
X217146286Y-105266609D02*
X217717714Y-105266609D01*
X217717714Y-105790419D02*
X217717714Y-104790419D01*
X218527238Y-105266609D02*
X218670095Y-105314228D01*
X218670095Y-105314228D02*
X218717714Y-105361847D01*
X218717714Y-105361847D02*
X218765333Y-105457085D01*
X218765333Y-105457085D02*
X218765333Y-105599942D01*
X218765333Y-105599942D02*
X218717714Y-105695180D01*
X218717714Y-105695180D02*
X218670095Y-105742800D01*
X218670095Y-105742800D02*
X218574857Y-105790419D01*
X218574857Y-105790419D02*
X218193905Y-105790419D01*
X218193905Y-105790419D02*
X218193905Y-104790419D01*
X218193905Y-104790419D02*
X218527238Y-104790419D01*
X218527238Y-104790419D02*
X218622476Y-104838038D01*
X218622476Y-104838038D02*
X218670095Y-104885657D01*
X218670095Y-104885657D02*
X218717714Y-104980895D01*
X218717714Y-104980895D02*
X218717714Y-105076133D01*
X218717714Y-105076133D02*
X218670095Y-105171371D01*
X218670095Y-105171371D02*
X218622476Y-105218990D01*
X218622476Y-105218990D02*
X218527238Y-105266609D01*
X218527238Y-105266609D02*
X218193905Y-105266609D01*
X226994591Y-58877419D02*
X226518401Y-58877419D01*
X226518401Y-58877419D02*
X226518401Y-57877419D01*
X227899353Y-58782180D02*
X227851734Y-58829800D01*
X227851734Y-58829800D02*
X227708877Y-58877419D01*
X227708877Y-58877419D02*
X227613639Y-58877419D01*
X227613639Y-58877419D02*
X227470782Y-58829800D01*
X227470782Y-58829800D02*
X227375544Y-58734561D01*
X227375544Y-58734561D02*
X227327925Y-58639323D01*
X227327925Y-58639323D02*
X227280306Y-58448847D01*
X227280306Y-58448847D02*
X227280306Y-58305990D01*
X227280306Y-58305990D02*
X227327925Y-58115514D01*
X227327925Y-58115514D02*
X227375544Y-58020276D01*
X227375544Y-58020276D02*
X227470782Y-57925038D01*
X227470782Y-57925038D02*
X227613639Y-57877419D01*
X227613639Y-57877419D02*
X227708877Y-57877419D01*
X227708877Y-57877419D02*
X227851734Y-57925038D01*
X227851734Y-57925038D02*
X227899353Y-57972657D01*
X228280306Y-57972657D02*
X228327925Y-57925038D01*
X228327925Y-57925038D02*
X228423163Y-57877419D01*
X228423163Y-57877419D02*
X228661258Y-57877419D01*
X228661258Y-57877419D02*
X228756496Y-57925038D01*
X228756496Y-57925038D02*
X228804115Y-57972657D01*
X228804115Y-57972657D02*
X228851734Y-58067895D01*
X228851734Y-58067895D02*
X228851734Y-58163133D01*
X228851734Y-58163133D02*
X228804115Y-58305990D01*
X228804115Y-58305990D02*
X228232687Y-58877419D01*
X228232687Y-58877419D02*
X228851734Y-58877419D01*
X217265333Y-77755180D02*
X217217714Y-77802800D01*
X217217714Y-77802800D02*
X217074857Y-77850419D01*
X217074857Y-77850419D02*
X216979619Y-77850419D01*
X216979619Y-77850419D02*
X216836762Y-77802800D01*
X216836762Y-77802800D02*
X216741524Y-77707561D01*
X216741524Y-77707561D02*
X216693905Y-77612323D01*
X216693905Y-77612323D02*
X216646286Y-77421847D01*
X216646286Y-77421847D02*
X216646286Y-77278990D01*
X216646286Y-77278990D02*
X216693905Y-77088514D01*
X216693905Y-77088514D02*
X216741524Y-76993276D01*
X216741524Y-76993276D02*
X216836762Y-76898038D01*
X216836762Y-76898038D02*
X216979619Y-76850419D01*
X216979619Y-76850419D02*
X217074857Y-76850419D01*
X217074857Y-76850419D02*
X217217714Y-76898038D01*
X217217714Y-76898038D02*
X217265333Y-76945657D01*
X218265333Y-77755180D02*
X218217714Y-77802800D01*
X218217714Y-77802800D02*
X218074857Y-77850419D01*
X218074857Y-77850419D02*
X217979619Y-77850419D01*
X217979619Y-77850419D02*
X217836762Y-77802800D01*
X217836762Y-77802800D02*
X217741524Y-77707561D01*
X217741524Y-77707561D02*
X217693905Y-77612323D01*
X217693905Y-77612323D02*
X217646286Y-77421847D01*
X217646286Y-77421847D02*
X217646286Y-77278990D01*
X217646286Y-77278990D02*
X217693905Y-77088514D01*
X217693905Y-77088514D02*
X217741524Y-76993276D01*
X217741524Y-76993276D02*
X217836762Y-76898038D01*
X217836762Y-76898038D02*
X217979619Y-76850419D01*
X217979619Y-76850419D02*
X218074857Y-76850419D01*
X218074857Y-76850419D02*
X218217714Y-76898038D01*
X218217714Y-76898038D02*
X218265333Y-76945657D01*
X218884381Y-76850419D02*
X218979619Y-76850419D01*
X218979619Y-76850419D02*
X219074857Y-76898038D01*
X219074857Y-76898038D02*
X219122476Y-76945657D01*
X219122476Y-76945657D02*
X219170095Y-77040895D01*
X219170095Y-77040895D02*
X219217714Y-77231371D01*
X219217714Y-77231371D02*
X219217714Y-77469466D01*
X219217714Y-77469466D02*
X219170095Y-77659942D01*
X219170095Y-77659942D02*
X219122476Y-77755180D01*
X219122476Y-77755180D02*
X219074857Y-77802800D01*
X219074857Y-77802800D02*
X218979619Y-77850419D01*
X218979619Y-77850419D02*
X218884381Y-77850419D01*
X218884381Y-77850419D02*
X218789143Y-77802800D01*
X218789143Y-77802800D02*
X218741524Y-77755180D01*
X218741524Y-77755180D02*
X218693905Y-77659942D01*
X218693905Y-77659942D02*
X218646286Y-77469466D01*
X218646286Y-77469466D02*
X218646286Y-77231371D01*
X218646286Y-77231371D02*
X218693905Y-77040895D01*
X218693905Y-77040895D02*
X218741524Y-76945657D01*
X218741524Y-76945657D02*
X218789143Y-76898038D01*
X218789143Y-76898038D02*
X218884381Y-76850419D01*
X235873027Y-98517419D02*
X236206360Y-99517419D01*
X236206360Y-99517419D02*
X236539693Y-98517419D01*
X236825408Y-99469800D02*
X236968265Y-99517419D01*
X236968265Y-99517419D02*
X237206360Y-99517419D01*
X237206360Y-99517419D02*
X237301598Y-99469800D01*
X237301598Y-99469800D02*
X237349217Y-99422180D01*
X237349217Y-99422180D02*
X237396836Y-99326942D01*
X237396836Y-99326942D02*
X237396836Y-99231704D01*
X237396836Y-99231704D02*
X237349217Y-99136466D01*
X237349217Y-99136466D02*
X237301598Y-99088847D01*
X237301598Y-99088847D02*
X237206360Y-99041228D01*
X237206360Y-99041228D02*
X237015884Y-98993609D01*
X237015884Y-98993609D02*
X236920646Y-98945990D01*
X236920646Y-98945990D02*
X236873027Y-98898371D01*
X236873027Y-98898371D02*
X236825408Y-98803133D01*
X236825408Y-98803133D02*
X236825408Y-98707895D01*
X236825408Y-98707895D02*
X236873027Y-98612657D01*
X236873027Y-98612657D02*
X236920646Y-98565038D01*
X236920646Y-98565038D02*
X237015884Y-98517419D01*
X237015884Y-98517419D02*
X237253979Y-98517419D01*
X237253979Y-98517419D02*
X237396836Y-98565038D01*
X238015884Y-99041228D02*
X238015884Y-99517419D01*
X237682551Y-98517419D02*
X238015884Y-99041228D01*
X238015884Y-99041228D02*
X238349217Y-98517419D01*
X238682551Y-99517419D02*
X238682551Y-98517419D01*
X238682551Y-98517419D02*
X239253979Y-99517419D01*
X239253979Y-99517419D02*
X239253979Y-98517419D01*
X240301598Y-99422180D02*
X240253979Y-99469800D01*
X240253979Y-99469800D02*
X240111122Y-99517419D01*
X240111122Y-99517419D02*
X240015884Y-99517419D01*
X240015884Y-99517419D02*
X239873027Y-99469800D01*
X239873027Y-99469800D02*
X239777789Y-99374561D01*
X239777789Y-99374561D02*
X239730170Y-99279323D01*
X239730170Y-99279323D02*
X239682551Y-99088847D01*
X239682551Y-99088847D02*
X239682551Y-98945990D01*
X239682551Y-98945990D02*
X239730170Y-98755514D01*
X239730170Y-98755514D02*
X239777789Y-98660276D01*
X239777789Y-98660276D02*
X239873027Y-98565038D01*
X239873027Y-98565038D02*
X240015884Y-98517419D01*
X240015884Y-98517419D02*
X240111122Y-98517419D01*
X240111122Y-98517419D02*
X240253979Y-98565038D01*
X240253979Y-98565038D02*
X240301598Y-98612657D01*
X184499333Y-100692180D02*
X184451714Y-100739800D01*
X184451714Y-100739800D02*
X184308857Y-100787419D01*
X184308857Y-100787419D02*
X184213619Y-100787419D01*
X184213619Y-100787419D02*
X184070762Y-100739800D01*
X184070762Y-100739800D02*
X183975524Y-100644561D01*
X183975524Y-100644561D02*
X183927905Y-100549323D01*
X183927905Y-100549323D02*
X183880286Y-100358847D01*
X183880286Y-100358847D02*
X183880286Y-100215990D01*
X183880286Y-100215990D02*
X183927905Y-100025514D01*
X183927905Y-100025514D02*
X183975524Y-99930276D01*
X183975524Y-99930276D02*
X184070762Y-99835038D01*
X184070762Y-99835038D02*
X184213619Y-99787419D01*
X184213619Y-99787419D02*
X184308857Y-99787419D01*
X184308857Y-99787419D02*
X184451714Y-99835038D01*
X184451714Y-99835038D02*
X184499333Y-99882657D01*
X185499333Y-100692180D02*
X185451714Y-100739800D01*
X185451714Y-100739800D02*
X185308857Y-100787419D01*
X185308857Y-100787419D02*
X185213619Y-100787419D01*
X185213619Y-100787419D02*
X185070762Y-100739800D01*
X185070762Y-100739800D02*
X184975524Y-100644561D01*
X184975524Y-100644561D02*
X184927905Y-100549323D01*
X184927905Y-100549323D02*
X184880286Y-100358847D01*
X184880286Y-100358847D02*
X184880286Y-100215990D01*
X184880286Y-100215990D02*
X184927905Y-100025514D01*
X184927905Y-100025514D02*
X184975524Y-99930276D01*
X184975524Y-99930276D02*
X185070762Y-99835038D01*
X185070762Y-99835038D02*
X185213619Y-99787419D01*
X185213619Y-99787419D02*
X185308857Y-99787419D01*
X185308857Y-99787419D02*
X185451714Y-99835038D01*
X185451714Y-99835038D02*
X185499333Y-99882657D01*
X186356476Y-100120752D02*
X186356476Y-100787419D01*
X186118381Y-99739800D02*
X185880286Y-100454085D01*
X185880286Y-100454085D02*
X186499333Y-100454085D01*
X236587312Y-94437419D02*
X236253979Y-93961228D01*
X236015884Y-94437419D02*
X236015884Y-93437419D01*
X236015884Y-93437419D02*
X236396836Y-93437419D01*
X236396836Y-93437419D02*
X236492074Y-93485038D01*
X236492074Y-93485038D02*
X236539693Y-93532657D01*
X236539693Y-93532657D02*
X236587312Y-93627895D01*
X236587312Y-93627895D02*
X236587312Y-93770752D01*
X236587312Y-93770752D02*
X236539693Y-93865990D01*
X236539693Y-93865990D02*
X236492074Y-93913609D01*
X236492074Y-93913609D02*
X236396836Y-93961228D01*
X236396836Y-93961228D02*
X236015884Y-93961228D01*
X237015884Y-94437419D02*
X237015884Y-93437419D01*
X237015884Y-93437419D02*
X237253979Y-93437419D01*
X237253979Y-93437419D02*
X237396836Y-93485038D01*
X237396836Y-93485038D02*
X237492074Y-93580276D01*
X237492074Y-93580276D02*
X237539693Y-93675514D01*
X237539693Y-93675514D02*
X237587312Y-93865990D01*
X237587312Y-93865990D02*
X237587312Y-94008847D01*
X237587312Y-94008847D02*
X237539693Y-94199323D01*
X237539693Y-94199323D02*
X237492074Y-94294561D01*
X237492074Y-94294561D02*
X237396836Y-94389800D01*
X237396836Y-94389800D02*
X237253979Y-94437419D01*
X237253979Y-94437419D02*
X237015884Y-94437419D01*
X235877789Y-93159800D02*
X237677789Y-93159800D01*
X236539693Y-83325038D02*
X236444455Y-83277419D01*
X236444455Y-83277419D02*
X236301598Y-83277419D01*
X236301598Y-83277419D02*
X236158741Y-83325038D01*
X236158741Y-83325038D02*
X236063503Y-83420276D01*
X236063503Y-83420276D02*
X236015884Y-83515514D01*
X236015884Y-83515514D02*
X235968265Y-83705990D01*
X235968265Y-83705990D02*
X235968265Y-83848847D01*
X235968265Y-83848847D02*
X236015884Y-84039323D01*
X236015884Y-84039323D02*
X236063503Y-84134561D01*
X236063503Y-84134561D02*
X236158741Y-84229800D01*
X236158741Y-84229800D02*
X236301598Y-84277419D01*
X236301598Y-84277419D02*
X236396836Y-84277419D01*
X236396836Y-84277419D02*
X236539693Y-84229800D01*
X236539693Y-84229800D02*
X236587312Y-84182180D01*
X236587312Y-84182180D02*
X236587312Y-83848847D01*
X236587312Y-83848847D02*
X236396836Y-83848847D01*
X237015884Y-84277419D02*
X237015884Y-83277419D01*
X237015884Y-83277419D02*
X237587312Y-84277419D01*
X237587312Y-84277419D02*
X237587312Y-83277419D01*
X238063503Y-84277419D02*
X238063503Y-83277419D01*
X238063503Y-83277419D02*
X238301598Y-83277419D01*
X238301598Y-83277419D02*
X238444455Y-83325038D01*
X238444455Y-83325038D02*
X238539693Y-83420276D01*
X238539693Y-83420276D02*
X238587312Y-83515514D01*
X238587312Y-83515514D02*
X238634931Y-83705990D01*
X238634931Y-83705990D02*
X238634931Y-83848847D01*
X238634931Y-83848847D02*
X238587312Y-84039323D01*
X238587312Y-84039323D02*
X238539693Y-84134561D01*
X238539693Y-84134561D02*
X238444455Y-84229800D01*
X238444455Y-84229800D02*
X238301598Y-84277419D01*
X238301598Y-84277419D02*
X238063503Y-84277419D01*
X225946973Y-136617419D02*
X226185068Y-137617419D01*
X226185068Y-137617419D02*
X226375544Y-136903133D01*
X226375544Y-136903133D02*
X226566020Y-137617419D01*
X226566020Y-137617419D02*
X226804116Y-136617419D01*
X227137449Y-137331704D02*
X227613639Y-137331704D01*
X227042211Y-137617419D02*
X227375544Y-136617419D01*
X227375544Y-136617419D02*
X227708877Y-137617419D01*
X228042211Y-137617419D02*
X228042211Y-136617419D01*
X228375544Y-136617419D02*
X228946972Y-136617419D01*
X228661258Y-137617419D02*
X228661258Y-136617419D01*
X225904116Y-136339800D02*
X228942211Y-136339800D01*
X227232687Y-81737419D02*
X227232687Y-80737419D01*
X227232687Y-81213609D02*
X227804115Y-81213609D01*
X227804115Y-81737419D02*
X227804115Y-80737419D01*
X228613639Y-81213609D02*
X228756496Y-81261228D01*
X228756496Y-81261228D02*
X228804115Y-81308847D01*
X228804115Y-81308847D02*
X228851734Y-81404085D01*
X228851734Y-81404085D02*
X228851734Y-81546942D01*
X228851734Y-81546942D02*
X228804115Y-81642180D01*
X228804115Y-81642180D02*
X228756496Y-81689800D01*
X228756496Y-81689800D02*
X228661258Y-81737419D01*
X228661258Y-81737419D02*
X228280306Y-81737419D01*
X228280306Y-81737419D02*
X228280306Y-80737419D01*
X228280306Y-80737419D02*
X228613639Y-80737419D01*
X228613639Y-80737419D02*
X228708877Y-80785038D01*
X228708877Y-80785038D02*
X228756496Y-80832657D01*
X228756496Y-80832657D02*
X228804115Y-80927895D01*
X228804115Y-80927895D02*
X228804115Y-81023133D01*
X228804115Y-81023133D02*
X228756496Y-81118371D01*
X228756496Y-81118371D02*
X228708877Y-81165990D01*
X228708877Y-81165990D02*
X228613639Y-81213609D01*
X228613639Y-81213609D02*
X228280306Y-81213609D01*
X216940095Y-112664419D02*
X217273428Y-113664419D01*
X217273428Y-113664419D02*
X217606761Y-112664419D01*
X217892476Y-113616800D02*
X218035333Y-113664419D01*
X218035333Y-113664419D02*
X218273428Y-113664419D01*
X218273428Y-113664419D02*
X218368666Y-113616800D01*
X218368666Y-113616800D02*
X218416285Y-113569180D01*
X218416285Y-113569180D02*
X218463904Y-113473942D01*
X218463904Y-113473942D02*
X218463904Y-113378704D01*
X218463904Y-113378704D02*
X218416285Y-113283466D01*
X218416285Y-113283466D02*
X218368666Y-113235847D01*
X218368666Y-113235847D02*
X218273428Y-113188228D01*
X218273428Y-113188228D02*
X218082952Y-113140609D01*
X218082952Y-113140609D02*
X217987714Y-113092990D01*
X217987714Y-113092990D02*
X217940095Y-113045371D01*
X217940095Y-113045371D02*
X217892476Y-112950133D01*
X217892476Y-112950133D02*
X217892476Y-112854895D01*
X217892476Y-112854895D02*
X217940095Y-112759657D01*
X217940095Y-112759657D02*
X217987714Y-112712038D01*
X217987714Y-112712038D02*
X218082952Y-112664419D01*
X218082952Y-112664419D02*
X218321047Y-112664419D01*
X218321047Y-112664419D02*
X218463904Y-112712038D01*
X219082952Y-113188228D02*
X219082952Y-113664419D01*
X218749619Y-112664419D02*
X219082952Y-113188228D01*
X219082952Y-113188228D02*
X219416285Y-112664419D01*
X219749619Y-113664419D02*
X219749619Y-112664419D01*
X219749619Y-112664419D02*
X220321047Y-113664419D01*
X220321047Y-113664419D02*
X220321047Y-112664419D01*
X221368666Y-113569180D02*
X221321047Y-113616800D01*
X221321047Y-113616800D02*
X221178190Y-113664419D01*
X221178190Y-113664419D02*
X221082952Y-113664419D01*
X221082952Y-113664419D02*
X220940095Y-113616800D01*
X220940095Y-113616800D02*
X220844857Y-113521561D01*
X220844857Y-113521561D02*
X220797238Y-113426323D01*
X220797238Y-113426323D02*
X220749619Y-113235847D01*
X220749619Y-113235847D02*
X220749619Y-113092990D01*
X220749619Y-113092990D02*
X220797238Y-112902514D01*
X220797238Y-112902514D02*
X220844857Y-112807276D01*
X220844857Y-112807276D02*
X220940095Y-112712038D01*
X220940095Y-112712038D02*
X221082952Y-112664419D01*
X221082952Y-112664419D02*
X221178190Y-112664419D01*
X221178190Y-112664419D02*
X221321047Y-112712038D01*
X221321047Y-112712038D02*
X221368666Y-112759657D01*
X236492074Y-140157419D02*
X236015884Y-140157419D01*
X236015884Y-140157419D02*
X236015884Y-139157419D01*
X236777789Y-139871704D02*
X237253979Y-139871704D01*
X236682551Y-140157419D02*
X237015884Y-139157419D01*
X237015884Y-139157419D02*
X237349217Y-140157419D01*
X237634932Y-139252657D02*
X237682551Y-139205038D01*
X237682551Y-139205038D02*
X237777789Y-139157419D01*
X237777789Y-139157419D02*
X238015884Y-139157419D01*
X238015884Y-139157419D02*
X238111122Y-139205038D01*
X238111122Y-139205038D02*
X238158741Y-139252657D01*
X238158741Y-139252657D02*
X238206360Y-139347895D01*
X238206360Y-139347895D02*
X238206360Y-139443133D01*
X238206360Y-139443133D02*
X238158741Y-139585990D01*
X238158741Y-139585990D02*
X237587313Y-140157419D01*
X237587313Y-140157419D02*
X238206360Y-140157419D01*
X236015884Y-124917419D02*
X236015884Y-123917419D01*
X236015884Y-123917419D02*
X236253979Y-123917419D01*
X236253979Y-123917419D02*
X236396836Y-123965038D01*
X236396836Y-123965038D02*
X236492074Y-124060276D01*
X236492074Y-124060276D02*
X236539693Y-124155514D01*
X236539693Y-124155514D02*
X236587312Y-124345990D01*
X236587312Y-124345990D02*
X236587312Y-124488847D01*
X236587312Y-124488847D02*
X236539693Y-124679323D01*
X236539693Y-124679323D02*
X236492074Y-124774561D01*
X236492074Y-124774561D02*
X236396836Y-124869800D01*
X236396836Y-124869800D02*
X236253979Y-124917419D01*
X236253979Y-124917419D02*
X236015884Y-124917419D01*
X237492074Y-123917419D02*
X237015884Y-123917419D01*
X237015884Y-123917419D02*
X236968265Y-124393609D01*
X236968265Y-124393609D02*
X237015884Y-124345990D01*
X237015884Y-124345990D02*
X237111122Y-124298371D01*
X237111122Y-124298371D02*
X237349217Y-124298371D01*
X237349217Y-124298371D02*
X237444455Y-124345990D01*
X237444455Y-124345990D02*
X237492074Y-124393609D01*
X237492074Y-124393609D02*
X237539693Y-124488847D01*
X237539693Y-124488847D02*
X237539693Y-124726942D01*
X237539693Y-124726942D02*
X237492074Y-124822180D01*
X237492074Y-124822180D02*
X237444455Y-124869800D01*
X237444455Y-124869800D02*
X237349217Y-124917419D01*
X237349217Y-124917419D02*
X237111122Y-124917419D01*
X237111122Y-124917419D02*
X237015884Y-124869800D01*
X237015884Y-124869800D02*
X236968265Y-124822180D01*
X227137448Y-145237419D02*
X226661258Y-145237419D01*
X226661258Y-145237419D02*
X226661258Y-144237419D01*
X227423163Y-144951704D02*
X227899353Y-144951704D01*
X227327925Y-145237419D02*
X227661258Y-144237419D01*
X227661258Y-144237419D02*
X227994591Y-145237419D01*
X228518401Y-144237419D02*
X228613639Y-144237419D01*
X228613639Y-144237419D02*
X228708877Y-144285038D01*
X228708877Y-144285038D02*
X228756496Y-144332657D01*
X228756496Y-144332657D02*
X228804115Y-144427895D01*
X228804115Y-144427895D02*
X228851734Y-144618371D01*
X228851734Y-144618371D02*
X228851734Y-144856466D01*
X228851734Y-144856466D02*
X228804115Y-145046942D01*
X228804115Y-145046942D02*
X228756496Y-145142180D01*
X228756496Y-145142180D02*
X228708877Y-145189800D01*
X228708877Y-145189800D02*
X228613639Y-145237419D01*
X228613639Y-145237419D02*
X228518401Y-145237419D01*
X228518401Y-145237419D02*
X228423163Y-145189800D01*
X228423163Y-145189800D02*
X228375544Y-145142180D01*
X228375544Y-145142180D02*
X228327925Y-145046942D01*
X228327925Y-145046942D02*
X228280306Y-144856466D01*
X228280306Y-144856466D02*
X228280306Y-144618371D01*
X228280306Y-144618371D02*
X228327925Y-144427895D01*
X228327925Y-144427895D02*
X228375544Y-144332657D01*
X228375544Y-144332657D02*
X228423163Y-144285038D01*
X228423163Y-144285038D02*
X228518401Y-144237419D01*
X216519333Y-122300419D02*
X216519333Y-121300419D01*
X216519333Y-121300419D02*
X216757428Y-121300419D01*
X216757428Y-121300419D02*
X216900285Y-121348038D01*
X216900285Y-121348038D02*
X216995523Y-121443276D01*
X216995523Y-121443276D02*
X217043142Y-121538514D01*
X217043142Y-121538514D02*
X217090761Y-121728990D01*
X217090761Y-121728990D02*
X217090761Y-121871847D01*
X217090761Y-121871847D02*
X217043142Y-122062323D01*
X217043142Y-122062323D02*
X216995523Y-122157561D01*
X216995523Y-122157561D02*
X216900285Y-122252800D01*
X216900285Y-122252800D02*
X216757428Y-122300419D01*
X216757428Y-122300419D02*
X216519333Y-122300419D01*
X217376476Y-121300419D02*
X217709809Y-122300419D01*
X217709809Y-122300419D02*
X218043142Y-121300419D01*
X218328857Y-122252800D02*
X218471714Y-122300419D01*
X218471714Y-122300419D02*
X218709809Y-122300419D01*
X218709809Y-122300419D02*
X218805047Y-122252800D01*
X218805047Y-122252800D02*
X218852666Y-122205180D01*
X218852666Y-122205180D02*
X218900285Y-122109942D01*
X218900285Y-122109942D02*
X218900285Y-122014704D01*
X218900285Y-122014704D02*
X218852666Y-121919466D01*
X218852666Y-121919466D02*
X218805047Y-121871847D01*
X218805047Y-121871847D02*
X218709809Y-121824228D01*
X218709809Y-121824228D02*
X218519333Y-121776609D01*
X218519333Y-121776609D02*
X218424095Y-121728990D01*
X218424095Y-121728990D02*
X218376476Y-121681371D01*
X218376476Y-121681371D02*
X218328857Y-121586133D01*
X218328857Y-121586133D02*
X218328857Y-121490895D01*
X218328857Y-121490895D02*
X218376476Y-121395657D01*
X218376476Y-121395657D02*
X218424095Y-121348038D01*
X218424095Y-121348038D02*
X218519333Y-121300419D01*
X218519333Y-121300419D02*
X218757428Y-121300419D01*
X218757428Y-121300419D02*
X218900285Y-121348038D01*
X219328857Y-122300419D02*
X219328857Y-121300419D01*
X219328857Y-121300419D02*
X219709809Y-121300419D01*
X219709809Y-121300419D02*
X219805047Y-121348038D01*
X219805047Y-121348038D02*
X219852666Y-121395657D01*
X219852666Y-121395657D02*
X219900285Y-121490895D01*
X219900285Y-121490895D02*
X219900285Y-121633752D01*
X219900285Y-121633752D02*
X219852666Y-121728990D01*
X219852666Y-121728990D02*
X219805047Y-121776609D01*
X219805047Y-121776609D02*
X219709809Y-121824228D01*
X219709809Y-121824228D02*
X219328857Y-121824228D01*
X227327925Y-129997419D02*
X227327925Y-128997419D01*
X227327925Y-128997419D02*
X227566020Y-128997419D01*
X227566020Y-128997419D02*
X227708877Y-129045038D01*
X227708877Y-129045038D02*
X227804115Y-129140276D01*
X227804115Y-129140276D02*
X227851734Y-129235514D01*
X227851734Y-129235514D02*
X227899353Y-129425990D01*
X227899353Y-129425990D02*
X227899353Y-129568847D01*
X227899353Y-129568847D02*
X227851734Y-129759323D01*
X227851734Y-129759323D02*
X227804115Y-129854561D01*
X227804115Y-129854561D02*
X227708877Y-129949800D01*
X227708877Y-129949800D02*
X227566020Y-129997419D01*
X227566020Y-129997419D02*
X227327925Y-129997419D01*
X228232687Y-128997419D02*
X228851734Y-128997419D01*
X228851734Y-128997419D02*
X228518401Y-129378371D01*
X228518401Y-129378371D02*
X228661258Y-129378371D01*
X228661258Y-129378371D02*
X228756496Y-129425990D01*
X228756496Y-129425990D02*
X228804115Y-129473609D01*
X228804115Y-129473609D02*
X228851734Y-129568847D01*
X228851734Y-129568847D02*
X228851734Y-129806942D01*
X228851734Y-129806942D02*
X228804115Y-129902180D01*
X228804115Y-129902180D02*
X228756496Y-129949800D01*
X228756496Y-129949800D02*
X228661258Y-129997419D01*
X228661258Y-129997419D02*
X228375544Y-129997419D01*
X228375544Y-129997419D02*
X228280306Y-129949800D01*
X228280306Y-129949800D02*
X228232687Y-129902180D01*
X227137448Y-142697419D02*
X226661258Y-142697419D01*
X226661258Y-142697419D02*
X226661258Y-141697419D01*
X227423163Y-142411704D02*
X227899353Y-142411704D01*
X227327925Y-142697419D02*
X227661258Y-141697419D01*
X227661258Y-141697419D02*
X227994591Y-142697419D01*
X228851734Y-142697419D02*
X228280306Y-142697419D01*
X228566020Y-142697419D02*
X228566020Y-141697419D01*
X228566020Y-141697419D02*
X228470782Y-141840276D01*
X228470782Y-141840276D02*
X228375544Y-141935514D01*
X228375544Y-141935514D02*
X228280306Y-141983133D01*
X226232687Y-55956466D02*
X226994592Y-55956466D01*
X226613639Y-56337419D02*
X226613639Y-55575514D01*
X227946972Y-55337419D02*
X227470782Y-55337419D01*
X227470782Y-55337419D02*
X227423163Y-55813609D01*
X227423163Y-55813609D02*
X227470782Y-55765990D01*
X227470782Y-55765990D02*
X227566020Y-55718371D01*
X227566020Y-55718371D02*
X227804115Y-55718371D01*
X227804115Y-55718371D02*
X227899353Y-55765990D01*
X227899353Y-55765990D02*
X227946972Y-55813609D01*
X227946972Y-55813609D02*
X227994591Y-55908847D01*
X227994591Y-55908847D02*
X227994591Y-56146942D01*
X227994591Y-56146942D02*
X227946972Y-56242180D01*
X227946972Y-56242180D02*
X227899353Y-56289800D01*
X227899353Y-56289800D02*
X227804115Y-56337419D01*
X227804115Y-56337419D02*
X227566020Y-56337419D01*
X227566020Y-56337419D02*
X227470782Y-56289800D01*
X227470782Y-56289800D02*
X227423163Y-56242180D01*
X228280306Y-55337419D02*
X228613639Y-56337419D01*
X228613639Y-56337419D02*
X228946972Y-55337419D01*
X235873027Y-108677419D02*
X236206360Y-109677419D01*
X236206360Y-109677419D02*
X236539693Y-108677419D01*
X236873027Y-109677419D02*
X236873027Y-108677419D01*
X237349217Y-109677419D02*
X237349217Y-108677419D01*
X237349217Y-108677419D02*
X237587312Y-108677419D01*
X237587312Y-108677419D02*
X237730169Y-108725038D01*
X237730169Y-108725038D02*
X237825407Y-108820276D01*
X237825407Y-108820276D02*
X237873026Y-108915514D01*
X237873026Y-108915514D02*
X237920645Y-109105990D01*
X237920645Y-109105990D02*
X237920645Y-109248847D01*
X237920645Y-109248847D02*
X237873026Y-109439323D01*
X237873026Y-109439323D02*
X237825407Y-109534561D01*
X237825407Y-109534561D02*
X237730169Y-109629800D01*
X237730169Y-109629800D02*
X237587312Y-109677419D01*
X237587312Y-109677419D02*
X237349217Y-109677419D01*
X238301598Y-108772657D02*
X238349217Y-108725038D01*
X238349217Y-108725038D02*
X238444455Y-108677419D01*
X238444455Y-108677419D02*
X238682550Y-108677419D01*
X238682550Y-108677419D02*
X238777788Y-108725038D01*
X238777788Y-108725038D02*
X238825407Y-108772657D01*
X238825407Y-108772657D02*
X238873026Y-108867895D01*
X238873026Y-108867895D02*
X238873026Y-108963133D01*
X238873026Y-108963133D02*
X238825407Y-109105990D01*
X238825407Y-109105990D02*
X238253979Y-109677419D01*
X238253979Y-109677419D02*
X238873026Y-109677419D01*
X239301598Y-109296466D02*
X240063503Y-109296466D01*
X239682550Y-109677419D02*
X239682550Y-108915514D01*
X236587312Y-63862180D02*
X236539693Y-63909800D01*
X236539693Y-63909800D02*
X236396836Y-63957419D01*
X236396836Y-63957419D02*
X236301598Y-63957419D01*
X236301598Y-63957419D02*
X236158741Y-63909800D01*
X236158741Y-63909800D02*
X236063503Y-63814561D01*
X236063503Y-63814561D02*
X236015884Y-63719323D01*
X236015884Y-63719323D02*
X235968265Y-63528847D01*
X235968265Y-63528847D02*
X235968265Y-63385990D01*
X235968265Y-63385990D02*
X236015884Y-63195514D01*
X236015884Y-63195514D02*
X236063503Y-63100276D01*
X236063503Y-63100276D02*
X236158741Y-63005038D01*
X236158741Y-63005038D02*
X236301598Y-62957419D01*
X236301598Y-62957419D02*
X236396836Y-62957419D01*
X236396836Y-62957419D02*
X236539693Y-63005038D01*
X236539693Y-63005038D02*
X236587312Y-63052657D01*
X237015884Y-63957419D02*
X237015884Y-62957419D01*
X237015884Y-62957419D02*
X237396836Y-62957419D01*
X237396836Y-62957419D02*
X237492074Y-63005038D01*
X237492074Y-63005038D02*
X237539693Y-63052657D01*
X237539693Y-63052657D02*
X237587312Y-63147895D01*
X237587312Y-63147895D02*
X237587312Y-63290752D01*
X237587312Y-63290752D02*
X237539693Y-63385990D01*
X237539693Y-63385990D02*
X237492074Y-63433609D01*
X237492074Y-63433609D02*
X237396836Y-63481228D01*
X237396836Y-63481228D02*
X237015884Y-63481228D01*
X238015884Y-63957419D02*
X238015884Y-62957419D01*
X238396836Y-62957419D02*
X239063502Y-63957419D01*
X239063502Y-62957419D02*
X238396836Y-63957419D01*
X236539693Y-116345038D02*
X236444455Y-116297419D01*
X236444455Y-116297419D02*
X236301598Y-116297419D01*
X236301598Y-116297419D02*
X236158741Y-116345038D01*
X236158741Y-116345038D02*
X236063503Y-116440276D01*
X236063503Y-116440276D02*
X236015884Y-116535514D01*
X236015884Y-116535514D02*
X235968265Y-116725990D01*
X235968265Y-116725990D02*
X235968265Y-116868847D01*
X235968265Y-116868847D02*
X236015884Y-117059323D01*
X236015884Y-117059323D02*
X236063503Y-117154561D01*
X236063503Y-117154561D02*
X236158741Y-117249800D01*
X236158741Y-117249800D02*
X236301598Y-117297419D01*
X236301598Y-117297419D02*
X236396836Y-117297419D01*
X236396836Y-117297419D02*
X236539693Y-117249800D01*
X236539693Y-117249800D02*
X236587312Y-117202180D01*
X236587312Y-117202180D02*
X236587312Y-116868847D01*
X236587312Y-116868847D02*
X236396836Y-116868847D01*
X237015884Y-117297419D02*
X237015884Y-116297419D01*
X237015884Y-116297419D02*
X237396836Y-116297419D01*
X237396836Y-116297419D02*
X237492074Y-116345038D01*
X237492074Y-116345038D02*
X237539693Y-116392657D01*
X237539693Y-116392657D02*
X237587312Y-116487895D01*
X237587312Y-116487895D02*
X237587312Y-116630752D01*
X237587312Y-116630752D02*
X237539693Y-116725990D01*
X237539693Y-116725990D02*
X237492074Y-116773609D01*
X237492074Y-116773609D02*
X237396836Y-116821228D01*
X237396836Y-116821228D02*
X237015884Y-116821228D01*
X238587312Y-117202180D02*
X238539693Y-117249800D01*
X238539693Y-117249800D02*
X238396836Y-117297419D01*
X238396836Y-117297419D02*
X238301598Y-117297419D01*
X238301598Y-117297419D02*
X238158741Y-117249800D01*
X238158741Y-117249800D02*
X238063503Y-117154561D01*
X238063503Y-117154561D02*
X238015884Y-117059323D01*
X238015884Y-117059323D02*
X237968265Y-116868847D01*
X237968265Y-116868847D02*
X237968265Y-116725990D01*
X237968265Y-116725990D02*
X238015884Y-116535514D01*
X238015884Y-116535514D02*
X238063503Y-116440276D01*
X238063503Y-116440276D02*
X238158741Y-116345038D01*
X238158741Y-116345038D02*
X238301598Y-116297419D01*
X238301598Y-116297419D02*
X238396836Y-116297419D01*
X238396836Y-116297419D02*
X238539693Y-116345038D01*
X238539693Y-116345038D02*
X238587312Y-116392657D01*
X239492074Y-117297419D02*
X239015884Y-117297419D01*
X239015884Y-117297419D02*
X239015884Y-116297419D01*
X239825408Y-117297419D02*
X239825408Y-116297419D01*
X240396836Y-117297419D02*
X239968265Y-116725990D01*
X240396836Y-116297419D02*
X239825408Y-116868847D01*
X227042211Y-95977419D02*
X227280306Y-96977419D01*
X227280306Y-96977419D02*
X227470782Y-96263133D01*
X227470782Y-96263133D02*
X227661258Y-96977419D01*
X227661258Y-96977419D02*
X227899354Y-95977419D01*
X228851734Y-96977419D02*
X228518401Y-96501228D01*
X228280306Y-96977419D02*
X228280306Y-95977419D01*
X228280306Y-95977419D02*
X228661258Y-95977419D01*
X228661258Y-95977419D02*
X228756496Y-96025038D01*
X228756496Y-96025038D02*
X228804115Y-96072657D01*
X228804115Y-96072657D02*
X228851734Y-96167895D01*
X228851734Y-96167895D02*
X228851734Y-96310752D01*
X228851734Y-96310752D02*
X228804115Y-96405990D01*
X228804115Y-96405990D02*
X228756496Y-96453609D01*
X228756496Y-96453609D02*
X228661258Y-96501228D01*
X228661258Y-96501228D02*
X228280306Y-96501228D01*
X226999354Y-95699800D02*
X228942211Y-95699800D01*
X225566021Y-101057419D02*
X225899354Y-102057419D01*
X225899354Y-102057419D02*
X226232687Y-101057419D01*
X226566021Y-102057419D02*
X226566021Y-101057419D01*
X227042211Y-102057419D02*
X227042211Y-101057419D01*
X227042211Y-101057419D02*
X227280306Y-101057419D01*
X227280306Y-101057419D02*
X227423163Y-101105038D01*
X227423163Y-101105038D02*
X227518401Y-101200276D01*
X227518401Y-101200276D02*
X227566020Y-101295514D01*
X227566020Y-101295514D02*
X227613639Y-101485990D01*
X227613639Y-101485990D02*
X227613639Y-101628847D01*
X227613639Y-101628847D02*
X227566020Y-101819323D01*
X227566020Y-101819323D02*
X227518401Y-101914561D01*
X227518401Y-101914561D02*
X227423163Y-102009800D01*
X227423163Y-102009800D02*
X227280306Y-102057419D01*
X227280306Y-102057419D02*
X227042211Y-102057419D01*
X228042211Y-101676466D02*
X228804116Y-101676466D01*
X184245333Y-90341704D02*
X184721523Y-90341704D01*
X184150095Y-90627419D02*
X184483428Y-89627419D01*
X184483428Y-89627419D02*
X184816761Y-90627419D01*
X185483428Y-90103609D02*
X185150095Y-90103609D01*
X185150095Y-90627419D02*
X185150095Y-89627419D01*
X185150095Y-89627419D02*
X185626285Y-89627419D01*
X217281238Y-56419180D02*
X217233619Y-56466800D01*
X217233619Y-56466800D02*
X217090762Y-56514419D01*
X217090762Y-56514419D02*
X216995524Y-56514419D01*
X216995524Y-56514419D02*
X216852667Y-56466800D01*
X216852667Y-56466800D02*
X216757429Y-56371561D01*
X216757429Y-56371561D02*
X216709810Y-56276323D01*
X216709810Y-56276323D02*
X216662191Y-56085847D01*
X216662191Y-56085847D02*
X216662191Y-55942990D01*
X216662191Y-55942990D02*
X216709810Y-55752514D01*
X216709810Y-55752514D02*
X216757429Y-55657276D01*
X216757429Y-55657276D02*
X216852667Y-55562038D01*
X216852667Y-55562038D02*
X216995524Y-55514419D01*
X216995524Y-55514419D02*
X217090762Y-55514419D01*
X217090762Y-55514419D02*
X217233619Y-55562038D01*
X217233619Y-55562038D02*
X217281238Y-55609657D01*
X217709810Y-56514419D02*
X217709810Y-55514419D01*
X217709810Y-55514419D02*
X218090762Y-55514419D01*
X218090762Y-55514419D02*
X218186000Y-55562038D01*
X218186000Y-55562038D02*
X218233619Y-55609657D01*
X218233619Y-55609657D02*
X218281238Y-55704895D01*
X218281238Y-55704895D02*
X218281238Y-55847752D01*
X218281238Y-55847752D02*
X218233619Y-55942990D01*
X218233619Y-55942990D02*
X218186000Y-55990609D01*
X218186000Y-55990609D02*
X218090762Y-56038228D01*
X218090762Y-56038228D02*
X217709810Y-56038228D01*
X218709810Y-56514419D02*
X218709810Y-55514419D01*
X219090762Y-55514419D02*
X219757428Y-56514419D01*
X219757428Y-55514419D02*
X219090762Y-56514419D01*
X184007333Y-85547419D02*
X184007333Y-84547419D01*
X184007333Y-84547419D02*
X184245428Y-84547419D01*
X184245428Y-84547419D02*
X184388285Y-84595038D01*
X184388285Y-84595038D02*
X184483523Y-84690276D01*
X184483523Y-84690276D02*
X184531142Y-84785514D01*
X184531142Y-84785514D02*
X184578761Y-84975990D01*
X184578761Y-84975990D02*
X184578761Y-85118847D01*
X184578761Y-85118847D02*
X184531142Y-85309323D01*
X184531142Y-85309323D02*
X184483523Y-85404561D01*
X184483523Y-85404561D02*
X184388285Y-85499800D01*
X184388285Y-85499800D02*
X184245428Y-85547419D01*
X184245428Y-85547419D02*
X184007333Y-85547419D01*
X184864476Y-84547419D02*
X185197809Y-85547419D01*
X185197809Y-85547419D02*
X185531142Y-84547419D01*
X185816857Y-85499800D02*
X185959714Y-85547419D01*
X185959714Y-85547419D02*
X186197809Y-85547419D01*
X186197809Y-85547419D02*
X186293047Y-85499800D01*
X186293047Y-85499800D02*
X186340666Y-85452180D01*
X186340666Y-85452180D02*
X186388285Y-85356942D01*
X186388285Y-85356942D02*
X186388285Y-85261704D01*
X186388285Y-85261704D02*
X186340666Y-85166466D01*
X186340666Y-85166466D02*
X186293047Y-85118847D01*
X186293047Y-85118847D02*
X186197809Y-85071228D01*
X186197809Y-85071228D02*
X186007333Y-85023609D01*
X186007333Y-85023609D02*
X185912095Y-84975990D01*
X185912095Y-84975990D02*
X185864476Y-84928371D01*
X185864476Y-84928371D02*
X185816857Y-84833133D01*
X185816857Y-84833133D02*
X185816857Y-84737895D01*
X185816857Y-84737895D02*
X185864476Y-84642657D01*
X185864476Y-84642657D02*
X185912095Y-84595038D01*
X185912095Y-84595038D02*
X186007333Y-84547419D01*
X186007333Y-84547419D02*
X186245428Y-84547419D01*
X186245428Y-84547419D02*
X186388285Y-84595038D01*
X186816857Y-85547419D02*
X186816857Y-84547419D01*
X186816857Y-84547419D02*
X187197809Y-84547419D01*
X187197809Y-84547419D02*
X187293047Y-84595038D01*
X187293047Y-84595038D02*
X187340666Y-84642657D01*
X187340666Y-84642657D02*
X187388285Y-84737895D01*
X187388285Y-84737895D02*
X187388285Y-84880752D01*
X187388285Y-84880752D02*
X187340666Y-84975990D01*
X187340666Y-84975990D02*
X187293047Y-85023609D01*
X187293047Y-85023609D02*
X187197809Y-85071228D01*
X187197809Y-85071228D02*
X186816857Y-85071228D01*
X235920646Y-134077419D02*
X236539693Y-134077419D01*
X236539693Y-134077419D02*
X236206360Y-134458371D01*
X236206360Y-134458371D02*
X236349217Y-134458371D01*
X236349217Y-134458371D02*
X236444455Y-134505990D01*
X236444455Y-134505990D02*
X236492074Y-134553609D01*
X236492074Y-134553609D02*
X236539693Y-134648847D01*
X236539693Y-134648847D02*
X236539693Y-134886942D01*
X236539693Y-134886942D02*
X236492074Y-134982180D01*
X236492074Y-134982180D02*
X236444455Y-135029800D01*
X236444455Y-135029800D02*
X236349217Y-135077419D01*
X236349217Y-135077419D02*
X236063503Y-135077419D01*
X236063503Y-135077419D02*
X235968265Y-135029800D01*
X235968265Y-135029800D02*
X235920646Y-134982180D01*
X236968265Y-135077419D02*
X236968265Y-134077419D01*
X236968265Y-134077419D02*
X237301598Y-134791704D01*
X237301598Y-134791704D02*
X237634931Y-134077419D01*
X237634931Y-134077419D02*
X237634931Y-135077419D01*
X238111122Y-135077419D02*
X238111122Y-134077419D01*
X238111122Y-134553609D02*
X238682550Y-134553609D01*
X238682550Y-135077419D02*
X238682550Y-134077419D01*
X239063503Y-134077419D02*
X239730169Y-134077419D01*
X239730169Y-134077419D02*
X239063503Y-135077419D01*
X239063503Y-135077419D02*
X239730169Y-135077419D01*
X224185068Y-106137419D02*
X224518401Y-107137419D01*
X224518401Y-107137419D02*
X224851734Y-106137419D01*
X225137449Y-107089800D02*
X225280306Y-107137419D01*
X225280306Y-107137419D02*
X225518401Y-107137419D01*
X225518401Y-107137419D02*
X225613639Y-107089800D01*
X225613639Y-107089800D02*
X225661258Y-107042180D01*
X225661258Y-107042180D02*
X225708877Y-106946942D01*
X225708877Y-106946942D02*
X225708877Y-106851704D01*
X225708877Y-106851704D02*
X225661258Y-106756466D01*
X225661258Y-106756466D02*
X225613639Y-106708847D01*
X225613639Y-106708847D02*
X225518401Y-106661228D01*
X225518401Y-106661228D02*
X225327925Y-106613609D01*
X225327925Y-106613609D02*
X225232687Y-106565990D01*
X225232687Y-106565990D02*
X225185068Y-106518371D01*
X225185068Y-106518371D02*
X225137449Y-106423133D01*
X225137449Y-106423133D02*
X225137449Y-106327895D01*
X225137449Y-106327895D02*
X225185068Y-106232657D01*
X225185068Y-106232657D02*
X225232687Y-106185038D01*
X225232687Y-106185038D02*
X225327925Y-106137419D01*
X225327925Y-106137419D02*
X225566020Y-106137419D01*
X225566020Y-106137419D02*
X225708877Y-106185038D01*
X226327925Y-106661228D02*
X226327925Y-107137419D01*
X225994592Y-106137419D02*
X226327925Y-106661228D01*
X226327925Y-106661228D02*
X226661258Y-106137419D01*
X226994592Y-107137419D02*
X226994592Y-106137419D01*
X226994592Y-106137419D02*
X227566020Y-107137419D01*
X227566020Y-107137419D02*
X227566020Y-106137419D01*
X228042211Y-106756466D02*
X228804116Y-106756466D01*
X225946972Y-111265038D02*
X225851734Y-111217419D01*
X225851734Y-111217419D02*
X225708877Y-111217419D01*
X225708877Y-111217419D02*
X225566020Y-111265038D01*
X225566020Y-111265038D02*
X225470782Y-111360276D01*
X225470782Y-111360276D02*
X225423163Y-111455514D01*
X225423163Y-111455514D02*
X225375544Y-111645990D01*
X225375544Y-111645990D02*
X225375544Y-111788847D01*
X225375544Y-111788847D02*
X225423163Y-111979323D01*
X225423163Y-111979323D02*
X225470782Y-112074561D01*
X225470782Y-112074561D02*
X225566020Y-112169800D01*
X225566020Y-112169800D02*
X225708877Y-112217419D01*
X225708877Y-112217419D02*
X225804115Y-112217419D01*
X225804115Y-112217419D02*
X225946972Y-112169800D01*
X225946972Y-112169800D02*
X225994591Y-112122180D01*
X225994591Y-112122180D02*
X225994591Y-111788847D01*
X225994591Y-111788847D02*
X225804115Y-111788847D01*
X226375544Y-111931704D02*
X226851734Y-111931704D01*
X226280306Y-112217419D02*
X226613639Y-111217419D01*
X226613639Y-111217419D02*
X226946972Y-112217419D01*
X227851734Y-112122180D02*
X227804115Y-112169800D01*
X227804115Y-112169800D02*
X227661258Y-112217419D01*
X227661258Y-112217419D02*
X227566020Y-112217419D01*
X227566020Y-112217419D02*
X227423163Y-112169800D01*
X227423163Y-112169800D02*
X227327925Y-112074561D01*
X227327925Y-112074561D02*
X227280306Y-111979323D01*
X227280306Y-111979323D02*
X227232687Y-111788847D01*
X227232687Y-111788847D02*
X227232687Y-111645990D01*
X227232687Y-111645990D02*
X227280306Y-111455514D01*
X227280306Y-111455514D02*
X227327925Y-111360276D01*
X227327925Y-111360276D02*
X227423163Y-111265038D01*
X227423163Y-111265038D02*
X227566020Y-111217419D01*
X227566020Y-111217419D02*
X227661258Y-111217419D01*
X227661258Y-111217419D02*
X227804115Y-111265038D01*
X227804115Y-111265038D02*
X227851734Y-111312657D01*
X228280306Y-112217419D02*
X228280306Y-111217419D01*
X228851734Y-112217419D02*
X228423163Y-111645990D01*
X228851734Y-111217419D02*
X228280306Y-111788847D01*
X225285068Y-110939800D02*
X228942211Y-110939800D01*
X184094524Y-87087419D02*
X184094524Y-87896942D01*
X184094524Y-87896942D02*
X184142143Y-87992180D01*
X184142143Y-87992180D02*
X184189762Y-88039800D01*
X184189762Y-88039800D02*
X184285000Y-88087419D01*
X184285000Y-88087419D02*
X184475476Y-88087419D01*
X184475476Y-88087419D02*
X184570714Y-88039800D01*
X184570714Y-88039800D02*
X184618333Y-87992180D01*
X184618333Y-87992180D02*
X184665952Y-87896942D01*
X184665952Y-87896942D02*
X184665952Y-87087419D01*
X185618333Y-88087419D02*
X185142143Y-88087419D01*
X185142143Y-88087419D02*
X185142143Y-87087419D01*
X227327925Y-132537419D02*
X227327925Y-131537419D01*
X227327925Y-131537419D02*
X227566020Y-131537419D01*
X227566020Y-131537419D02*
X227708877Y-131585038D01*
X227708877Y-131585038D02*
X227804115Y-131680276D01*
X227804115Y-131680276D02*
X227851734Y-131775514D01*
X227851734Y-131775514D02*
X227899353Y-131965990D01*
X227899353Y-131965990D02*
X227899353Y-132108847D01*
X227899353Y-132108847D02*
X227851734Y-132299323D01*
X227851734Y-132299323D02*
X227804115Y-132394561D01*
X227804115Y-132394561D02*
X227708877Y-132489800D01*
X227708877Y-132489800D02*
X227566020Y-132537419D01*
X227566020Y-132537419D02*
X227327925Y-132537419D01*
X228851734Y-132537419D02*
X228280306Y-132537419D01*
X228566020Y-132537419D02*
X228566020Y-131537419D01*
X228566020Y-131537419D02*
X228470782Y-131680276D01*
X228470782Y-131680276D02*
X228375544Y-131775514D01*
X228375544Y-131775514D02*
X228280306Y-131823133D01*
X183872286Y-77927419D02*
X183872286Y-76927419D01*
X183872286Y-77403609D02*
X184443714Y-77403609D01*
X184443714Y-77927419D02*
X184443714Y-76927419D01*
X185253238Y-77403609D02*
X185396095Y-77451228D01*
X185396095Y-77451228D02*
X185443714Y-77498847D01*
X185443714Y-77498847D02*
X185491333Y-77594085D01*
X185491333Y-77594085D02*
X185491333Y-77736942D01*
X185491333Y-77736942D02*
X185443714Y-77832180D01*
X185443714Y-77832180D02*
X185396095Y-77879800D01*
X185396095Y-77879800D02*
X185300857Y-77927419D01*
X185300857Y-77927419D02*
X184919905Y-77927419D01*
X184919905Y-77927419D02*
X184919905Y-76927419D01*
X184919905Y-76927419D02*
X185253238Y-76927419D01*
X185253238Y-76927419D02*
X185348476Y-76975038D01*
X185348476Y-76975038D02*
X185396095Y-77022657D01*
X185396095Y-77022657D02*
X185443714Y-77117895D01*
X185443714Y-77117895D02*
X185443714Y-77213133D01*
X185443714Y-77213133D02*
X185396095Y-77308371D01*
X185396095Y-77308371D02*
X185348476Y-77355990D01*
X185348476Y-77355990D02*
X185253238Y-77403609D01*
X185253238Y-77403609D02*
X184919905Y-77403609D01*
X217265333Y-89185180D02*
X217217714Y-89232800D01*
X217217714Y-89232800D02*
X217074857Y-89280419D01*
X217074857Y-89280419D02*
X216979619Y-89280419D01*
X216979619Y-89280419D02*
X216836762Y-89232800D01*
X216836762Y-89232800D02*
X216741524Y-89137561D01*
X216741524Y-89137561D02*
X216693905Y-89042323D01*
X216693905Y-89042323D02*
X216646286Y-88851847D01*
X216646286Y-88851847D02*
X216646286Y-88708990D01*
X216646286Y-88708990D02*
X216693905Y-88518514D01*
X216693905Y-88518514D02*
X216741524Y-88423276D01*
X216741524Y-88423276D02*
X216836762Y-88328038D01*
X216836762Y-88328038D02*
X216979619Y-88280419D01*
X216979619Y-88280419D02*
X217074857Y-88280419D01*
X217074857Y-88280419D02*
X217217714Y-88328038D01*
X217217714Y-88328038D02*
X217265333Y-88375657D01*
X218265333Y-89185180D02*
X218217714Y-89232800D01*
X218217714Y-89232800D02*
X218074857Y-89280419D01*
X218074857Y-89280419D02*
X217979619Y-89280419D01*
X217979619Y-89280419D02*
X217836762Y-89232800D01*
X217836762Y-89232800D02*
X217741524Y-89137561D01*
X217741524Y-89137561D02*
X217693905Y-89042323D01*
X217693905Y-89042323D02*
X217646286Y-88851847D01*
X217646286Y-88851847D02*
X217646286Y-88708990D01*
X217646286Y-88708990D02*
X217693905Y-88518514D01*
X217693905Y-88518514D02*
X217741524Y-88423276D01*
X217741524Y-88423276D02*
X217836762Y-88328038D01*
X217836762Y-88328038D02*
X217979619Y-88280419D01*
X217979619Y-88280419D02*
X218074857Y-88280419D01*
X218074857Y-88280419D02*
X218217714Y-88328038D01*
X218217714Y-88328038D02*
X218265333Y-88375657D01*
X219122476Y-88613752D02*
X219122476Y-89280419D01*
X218884381Y-88232800D02*
X218646286Y-88947085D01*
X218646286Y-88947085D02*
X219265333Y-88947085D01*
X226756496Y-113805038D02*
X226661258Y-113757419D01*
X226661258Y-113757419D02*
X226518401Y-113757419D01*
X226518401Y-113757419D02*
X226375544Y-113805038D01*
X226375544Y-113805038D02*
X226280306Y-113900276D01*
X226280306Y-113900276D02*
X226232687Y-113995514D01*
X226232687Y-113995514D02*
X226185068Y-114185990D01*
X226185068Y-114185990D02*
X226185068Y-114328847D01*
X226185068Y-114328847D02*
X226232687Y-114519323D01*
X226232687Y-114519323D02*
X226280306Y-114614561D01*
X226280306Y-114614561D02*
X226375544Y-114709800D01*
X226375544Y-114709800D02*
X226518401Y-114757419D01*
X226518401Y-114757419D02*
X226613639Y-114757419D01*
X226613639Y-114757419D02*
X226756496Y-114709800D01*
X226756496Y-114709800D02*
X226804115Y-114662180D01*
X226804115Y-114662180D02*
X226804115Y-114328847D01*
X226804115Y-114328847D02*
X226613639Y-114328847D01*
X227804115Y-114757419D02*
X227470782Y-114281228D01*
X227232687Y-114757419D02*
X227232687Y-113757419D01*
X227232687Y-113757419D02*
X227613639Y-113757419D01*
X227613639Y-113757419D02*
X227708877Y-113805038D01*
X227708877Y-113805038D02*
X227756496Y-113852657D01*
X227756496Y-113852657D02*
X227804115Y-113947895D01*
X227804115Y-113947895D02*
X227804115Y-114090752D01*
X227804115Y-114090752D02*
X227756496Y-114185990D01*
X227756496Y-114185990D02*
X227708877Y-114233609D01*
X227708877Y-114233609D02*
X227613639Y-114281228D01*
X227613639Y-114281228D02*
X227232687Y-114281228D01*
X228899353Y-114852657D02*
X228804115Y-114805038D01*
X228804115Y-114805038D02*
X228708877Y-114709800D01*
X228708877Y-114709800D02*
X228566020Y-114566942D01*
X228566020Y-114566942D02*
X228470782Y-114519323D01*
X228470782Y-114519323D02*
X228375544Y-114519323D01*
X228423163Y-114757419D02*
X228327925Y-114709800D01*
X228327925Y-114709800D02*
X228232687Y-114614561D01*
X228232687Y-114614561D02*
X228185068Y-114424085D01*
X228185068Y-114424085D02*
X228185068Y-114090752D01*
X228185068Y-114090752D02*
X228232687Y-113900276D01*
X228232687Y-113900276D02*
X228327925Y-113805038D01*
X228327925Y-113805038D02*
X228423163Y-113757419D01*
X228423163Y-113757419D02*
X228613639Y-113757419D01*
X228613639Y-113757419D02*
X228708877Y-113805038D01*
X228708877Y-113805038D02*
X228804115Y-113900276D01*
X228804115Y-113900276D02*
X228851734Y-114090752D01*
X228851734Y-114090752D02*
X228851734Y-114424085D01*
X228851734Y-114424085D02*
X228804115Y-114614561D01*
X228804115Y-114614561D02*
X228708877Y-114709800D01*
X228708877Y-114709800D02*
X228613639Y-114757419D01*
X228613639Y-114757419D02*
X228423163Y-114757419D01*
X226094592Y-113479800D02*
X228942211Y-113479800D01*
X236539693Y-144285038D02*
X236444455Y-144237419D01*
X236444455Y-144237419D02*
X236301598Y-144237419D01*
X236301598Y-144237419D02*
X236158741Y-144285038D01*
X236158741Y-144285038D02*
X236063503Y-144380276D01*
X236063503Y-144380276D02*
X236015884Y-144475514D01*
X236015884Y-144475514D02*
X235968265Y-144665990D01*
X235968265Y-144665990D02*
X235968265Y-144808847D01*
X235968265Y-144808847D02*
X236015884Y-144999323D01*
X236015884Y-144999323D02*
X236063503Y-145094561D01*
X236063503Y-145094561D02*
X236158741Y-145189800D01*
X236158741Y-145189800D02*
X236301598Y-145237419D01*
X236301598Y-145237419D02*
X236396836Y-145237419D01*
X236396836Y-145237419D02*
X236539693Y-145189800D01*
X236539693Y-145189800D02*
X236587312Y-145142180D01*
X236587312Y-145142180D02*
X236587312Y-144808847D01*
X236587312Y-144808847D02*
X236396836Y-144808847D01*
X237015884Y-145237419D02*
X237015884Y-144237419D01*
X237015884Y-144237419D02*
X237396836Y-144237419D01*
X237396836Y-144237419D02*
X237492074Y-144285038D01*
X237492074Y-144285038D02*
X237539693Y-144332657D01*
X237539693Y-144332657D02*
X237587312Y-144427895D01*
X237587312Y-144427895D02*
X237587312Y-144570752D01*
X237587312Y-144570752D02*
X237539693Y-144665990D01*
X237539693Y-144665990D02*
X237492074Y-144713609D01*
X237492074Y-144713609D02*
X237396836Y-144761228D01*
X237396836Y-144761228D02*
X237015884Y-144761228D01*
X238587312Y-145142180D02*
X238539693Y-145189800D01*
X238539693Y-145189800D02*
X238396836Y-145237419D01*
X238396836Y-145237419D02*
X238301598Y-145237419D01*
X238301598Y-145237419D02*
X238158741Y-145189800D01*
X238158741Y-145189800D02*
X238063503Y-145094561D01*
X238063503Y-145094561D02*
X238015884Y-144999323D01*
X238015884Y-144999323D02*
X237968265Y-144808847D01*
X237968265Y-144808847D02*
X237968265Y-144665990D01*
X237968265Y-144665990D02*
X238015884Y-144475514D01*
X238015884Y-144475514D02*
X238063503Y-144380276D01*
X238063503Y-144380276D02*
X238158741Y-144285038D01*
X238158741Y-144285038D02*
X238301598Y-144237419D01*
X238301598Y-144237419D02*
X238396836Y-144237419D01*
X238396836Y-144237419D02*
X238539693Y-144285038D01*
X238539693Y-144285038D02*
X238587312Y-144332657D01*
X238968265Y-145189800D02*
X239111122Y-145237419D01*
X239111122Y-145237419D02*
X239349217Y-145237419D01*
X239349217Y-145237419D02*
X239444455Y-145189800D01*
X239444455Y-145189800D02*
X239492074Y-145142180D01*
X239492074Y-145142180D02*
X239539693Y-145046942D01*
X239539693Y-145046942D02*
X239539693Y-144951704D01*
X239539693Y-144951704D02*
X239492074Y-144856466D01*
X239492074Y-144856466D02*
X239444455Y-144808847D01*
X239444455Y-144808847D02*
X239349217Y-144761228D01*
X239349217Y-144761228D02*
X239158741Y-144713609D01*
X239158741Y-144713609D02*
X239063503Y-144665990D01*
X239063503Y-144665990D02*
X239015884Y-144618371D01*
X239015884Y-144618371D02*
X238968265Y-144523133D01*
X238968265Y-144523133D02*
X238968265Y-144427895D01*
X238968265Y-144427895D02*
X239015884Y-144332657D01*
X239015884Y-144332657D02*
X239063503Y-144285038D01*
X239063503Y-144285038D02*
X239158741Y-144237419D01*
X239158741Y-144237419D02*
X239396836Y-144237419D01*
X239396836Y-144237419D02*
X239539693Y-144285038D01*
X236492074Y-58877419D02*
X236015884Y-58877419D01*
X236015884Y-58877419D02*
X236015884Y-57877419D01*
X237396836Y-58782180D02*
X237349217Y-58829800D01*
X237349217Y-58829800D02*
X237206360Y-58877419D01*
X237206360Y-58877419D02*
X237111122Y-58877419D01*
X237111122Y-58877419D02*
X236968265Y-58829800D01*
X236968265Y-58829800D02*
X236873027Y-58734561D01*
X236873027Y-58734561D02*
X236825408Y-58639323D01*
X236825408Y-58639323D02*
X236777789Y-58448847D01*
X236777789Y-58448847D02*
X236777789Y-58305990D01*
X236777789Y-58305990D02*
X236825408Y-58115514D01*
X236825408Y-58115514D02*
X236873027Y-58020276D01*
X236873027Y-58020276D02*
X236968265Y-57925038D01*
X236968265Y-57925038D02*
X237111122Y-57877419D01*
X237111122Y-57877419D02*
X237206360Y-57877419D01*
X237206360Y-57877419D02*
X237349217Y-57925038D01*
X237349217Y-57925038D02*
X237396836Y-57972657D01*
X237730170Y-57877419D02*
X238349217Y-57877419D01*
X238349217Y-57877419D02*
X238015884Y-58258371D01*
X238015884Y-58258371D02*
X238158741Y-58258371D01*
X238158741Y-58258371D02*
X238253979Y-58305990D01*
X238253979Y-58305990D02*
X238301598Y-58353609D01*
X238301598Y-58353609D02*
X238349217Y-58448847D01*
X238349217Y-58448847D02*
X238349217Y-58686942D01*
X238349217Y-58686942D02*
X238301598Y-58782180D01*
X238301598Y-58782180D02*
X238253979Y-58829800D01*
X238253979Y-58829800D02*
X238158741Y-58877419D01*
X238158741Y-58877419D02*
X237873027Y-58877419D01*
X237873027Y-58877419D02*
X237777789Y-58829800D01*
X237777789Y-58829800D02*
X237730170Y-58782180D01*
X236587312Y-114662180D02*
X236539693Y-114709800D01*
X236539693Y-114709800D02*
X236396836Y-114757419D01*
X236396836Y-114757419D02*
X236301598Y-114757419D01*
X236301598Y-114757419D02*
X236158741Y-114709800D01*
X236158741Y-114709800D02*
X236063503Y-114614561D01*
X236063503Y-114614561D02*
X236015884Y-114519323D01*
X236015884Y-114519323D02*
X235968265Y-114328847D01*
X235968265Y-114328847D02*
X235968265Y-114185990D01*
X235968265Y-114185990D02*
X236015884Y-113995514D01*
X236015884Y-113995514D02*
X236063503Y-113900276D01*
X236063503Y-113900276D02*
X236158741Y-113805038D01*
X236158741Y-113805038D02*
X236301598Y-113757419D01*
X236301598Y-113757419D02*
X236396836Y-113757419D01*
X236396836Y-113757419D02*
X236539693Y-113805038D01*
X236539693Y-113805038D02*
X236587312Y-113852657D01*
X237015884Y-114757419D02*
X237015884Y-113757419D01*
X237015884Y-113757419D02*
X237396836Y-113757419D01*
X237396836Y-113757419D02*
X237492074Y-113805038D01*
X237492074Y-113805038D02*
X237539693Y-113852657D01*
X237539693Y-113852657D02*
X237587312Y-113947895D01*
X237587312Y-113947895D02*
X237587312Y-114090752D01*
X237587312Y-114090752D02*
X237539693Y-114185990D01*
X237539693Y-114185990D02*
X237492074Y-114233609D01*
X237492074Y-114233609D02*
X237396836Y-114281228D01*
X237396836Y-114281228D02*
X237015884Y-114281228D01*
X238015884Y-113757419D02*
X238015884Y-114566942D01*
X238015884Y-114566942D02*
X238063503Y-114662180D01*
X238063503Y-114662180D02*
X238111122Y-114709800D01*
X238111122Y-114709800D02*
X238206360Y-114757419D01*
X238206360Y-114757419D02*
X238396836Y-114757419D01*
X238396836Y-114757419D02*
X238492074Y-114709800D01*
X238492074Y-114709800D02*
X238539693Y-114662180D01*
X238539693Y-114662180D02*
X238587312Y-114566942D01*
X238587312Y-114566942D02*
X238587312Y-113757419D01*
X239063503Y-114757419D02*
X239063503Y-113757419D01*
X239063503Y-113757419D02*
X239301598Y-113757419D01*
X239301598Y-113757419D02*
X239444455Y-113805038D01*
X239444455Y-113805038D02*
X239539693Y-113900276D01*
X239539693Y-113900276D02*
X239587312Y-113995514D01*
X239587312Y-113995514D02*
X239634931Y-114185990D01*
X239634931Y-114185990D02*
X239634931Y-114328847D01*
X239634931Y-114328847D02*
X239587312Y-114519323D01*
X239587312Y-114519323D02*
X239539693Y-114614561D01*
X239539693Y-114614561D02*
X239444455Y-114709800D01*
X239444455Y-114709800D02*
X239301598Y-114757419D01*
X239301598Y-114757419D02*
X239063503Y-114757419D01*
X240063503Y-114757419D02*
X240063503Y-113757419D01*
X240492074Y-114709800D02*
X240634931Y-114757419D01*
X240634931Y-114757419D02*
X240873026Y-114757419D01*
X240873026Y-114757419D02*
X240968264Y-114709800D01*
X240968264Y-114709800D02*
X241015883Y-114662180D01*
X241015883Y-114662180D02*
X241063502Y-114566942D01*
X241063502Y-114566942D02*
X241063502Y-114471704D01*
X241063502Y-114471704D02*
X241015883Y-114376466D01*
X241015883Y-114376466D02*
X240968264Y-114328847D01*
X240968264Y-114328847D02*
X240873026Y-114281228D01*
X240873026Y-114281228D02*
X240682550Y-114233609D01*
X240682550Y-114233609D02*
X240587312Y-114185990D01*
X240587312Y-114185990D02*
X240539693Y-114138371D01*
X240539693Y-114138371D02*
X240492074Y-114043133D01*
X240492074Y-114043133D02*
X240492074Y-113947895D01*
X240492074Y-113947895D02*
X240539693Y-113852657D01*
X240539693Y-113852657D02*
X240587312Y-113805038D01*
X240587312Y-113805038D02*
X240682550Y-113757419D01*
X240682550Y-113757419D02*
X240920645Y-113757419D01*
X240920645Y-113757419D02*
X241063502Y-113805038D01*
X235877789Y-113479800D02*
X241153979Y-113479800D01*
X216670095Y-94614419D02*
X216670095Y-93614419D01*
X216670095Y-94090609D02*
X217241523Y-94090609D01*
X217241523Y-94614419D02*
X217241523Y-93614419D01*
X218051047Y-94090609D02*
X218193904Y-94138228D01*
X218193904Y-94138228D02*
X218241523Y-94185847D01*
X218241523Y-94185847D02*
X218289142Y-94281085D01*
X218289142Y-94281085D02*
X218289142Y-94423942D01*
X218289142Y-94423942D02*
X218241523Y-94519180D01*
X218241523Y-94519180D02*
X218193904Y-94566800D01*
X218193904Y-94566800D02*
X218098666Y-94614419D01*
X218098666Y-94614419D02*
X217717714Y-94614419D01*
X217717714Y-94614419D02*
X217717714Y-93614419D01*
X217717714Y-93614419D02*
X218051047Y-93614419D01*
X218051047Y-93614419D02*
X218146285Y-93662038D01*
X218146285Y-93662038D02*
X218193904Y-93709657D01*
X218193904Y-93709657D02*
X218241523Y-93804895D01*
X218241523Y-93804895D02*
X218241523Y-93900133D01*
X218241523Y-93900133D02*
X218193904Y-93995371D01*
X218193904Y-93995371D02*
X218146285Y-94042990D01*
X218146285Y-94042990D02*
X218051047Y-94090609D01*
X218051047Y-94090609D02*
X217717714Y-94090609D01*
X218670095Y-94566800D02*
X218812952Y-94614419D01*
X218812952Y-94614419D02*
X219051047Y-94614419D01*
X219051047Y-94614419D02*
X219146285Y-94566800D01*
X219146285Y-94566800D02*
X219193904Y-94519180D01*
X219193904Y-94519180D02*
X219241523Y-94423942D01*
X219241523Y-94423942D02*
X219241523Y-94328704D01*
X219241523Y-94328704D02*
X219193904Y-94233466D01*
X219193904Y-94233466D02*
X219146285Y-94185847D01*
X219146285Y-94185847D02*
X219051047Y-94138228D01*
X219051047Y-94138228D02*
X218860571Y-94090609D01*
X218860571Y-94090609D02*
X218765333Y-94042990D01*
X218765333Y-94042990D02*
X218717714Y-93995371D01*
X218717714Y-93995371D02*
X218670095Y-93900133D01*
X218670095Y-93900133D02*
X218670095Y-93804895D01*
X218670095Y-93804895D02*
X218717714Y-93709657D01*
X218717714Y-93709657D02*
X218765333Y-93662038D01*
X218765333Y-93662038D02*
X218860571Y-93614419D01*
X218860571Y-93614419D02*
X219098666Y-93614419D01*
X219098666Y-93614419D02*
X219241523Y-93662038D01*
X226994591Y-63957419D02*
X226518401Y-63957419D01*
X226518401Y-63957419D02*
X226518401Y-62957419D01*
X227899353Y-63862180D02*
X227851734Y-63909800D01*
X227851734Y-63909800D02*
X227708877Y-63957419D01*
X227708877Y-63957419D02*
X227613639Y-63957419D01*
X227613639Y-63957419D02*
X227470782Y-63909800D01*
X227470782Y-63909800D02*
X227375544Y-63814561D01*
X227375544Y-63814561D02*
X227327925Y-63719323D01*
X227327925Y-63719323D02*
X227280306Y-63528847D01*
X227280306Y-63528847D02*
X227280306Y-63385990D01*
X227280306Y-63385990D02*
X227327925Y-63195514D01*
X227327925Y-63195514D02*
X227375544Y-63100276D01*
X227375544Y-63100276D02*
X227470782Y-63005038D01*
X227470782Y-63005038D02*
X227613639Y-62957419D01*
X227613639Y-62957419D02*
X227708877Y-62957419D01*
X227708877Y-62957419D02*
X227851734Y-63005038D01*
X227851734Y-63005038D02*
X227899353Y-63052657D01*
X228518401Y-62957419D02*
X228613639Y-62957419D01*
X228613639Y-62957419D02*
X228708877Y-63005038D01*
X228708877Y-63005038D02*
X228756496Y-63052657D01*
X228756496Y-63052657D02*
X228804115Y-63147895D01*
X228804115Y-63147895D02*
X228851734Y-63338371D01*
X228851734Y-63338371D02*
X228851734Y-63576466D01*
X228851734Y-63576466D02*
X228804115Y-63766942D01*
X228804115Y-63766942D02*
X228756496Y-63862180D01*
X228756496Y-63862180D02*
X228708877Y-63909800D01*
X228708877Y-63909800D02*
X228613639Y-63957419D01*
X228613639Y-63957419D02*
X228518401Y-63957419D01*
X228518401Y-63957419D02*
X228423163Y-63909800D01*
X228423163Y-63909800D02*
X228375544Y-63862180D01*
X228375544Y-63862180D02*
X228327925Y-63766942D01*
X228327925Y-63766942D02*
X228280306Y-63576466D01*
X228280306Y-63576466D02*
X228280306Y-63338371D01*
X228280306Y-63338371D02*
X228327925Y-63147895D01*
X228327925Y-63147895D02*
X228375544Y-63052657D01*
X228375544Y-63052657D02*
X228423163Y-63005038D01*
X228423163Y-63005038D02*
X228518401Y-62957419D01*
X225327924Y-119837419D02*
X224994591Y-119361228D01*
X224756496Y-119837419D02*
X224756496Y-118837419D01*
X224756496Y-118837419D02*
X225137448Y-118837419D01*
X225137448Y-118837419D02*
X225232686Y-118885038D01*
X225232686Y-118885038D02*
X225280305Y-118932657D01*
X225280305Y-118932657D02*
X225327924Y-119027895D01*
X225327924Y-119027895D02*
X225327924Y-119170752D01*
X225327924Y-119170752D02*
X225280305Y-119265990D01*
X225280305Y-119265990D02*
X225232686Y-119313609D01*
X225232686Y-119313609D02*
X225137448Y-119361228D01*
X225137448Y-119361228D02*
X224756496Y-119361228D01*
X225756496Y-119313609D02*
X226089829Y-119313609D01*
X226232686Y-119837419D02*
X225756496Y-119837419D01*
X225756496Y-119837419D02*
X225756496Y-118837419D01*
X225756496Y-118837419D02*
X226232686Y-118837419D01*
X226613639Y-119789800D02*
X226756496Y-119837419D01*
X226756496Y-119837419D02*
X226994591Y-119837419D01*
X226994591Y-119837419D02*
X227089829Y-119789800D01*
X227089829Y-119789800D02*
X227137448Y-119742180D01*
X227137448Y-119742180D02*
X227185067Y-119646942D01*
X227185067Y-119646942D02*
X227185067Y-119551704D01*
X227185067Y-119551704D02*
X227137448Y-119456466D01*
X227137448Y-119456466D02*
X227089829Y-119408847D01*
X227089829Y-119408847D02*
X226994591Y-119361228D01*
X226994591Y-119361228D02*
X226804115Y-119313609D01*
X226804115Y-119313609D02*
X226708877Y-119265990D01*
X226708877Y-119265990D02*
X226661258Y-119218371D01*
X226661258Y-119218371D02*
X226613639Y-119123133D01*
X226613639Y-119123133D02*
X226613639Y-119027895D01*
X226613639Y-119027895D02*
X226661258Y-118932657D01*
X226661258Y-118932657D02*
X226708877Y-118885038D01*
X226708877Y-118885038D02*
X226804115Y-118837419D01*
X226804115Y-118837419D02*
X227042210Y-118837419D01*
X227042210Y-118837419D02*
X227185067Y-118885038D01*
X227613639Y-119313609D02*
X227946972Y-119313609D01*
X228089829Y-119837419D02*
X227613639Y-119837419D01*
X227613639Y-119837419D02*
X227613639Y-118837419D01*
X227613639Y-118837419D02*
X228089829Y-118837419D01*
X228375544Y-118837419D02*
X228946972Y-118837419D01*
X228661258Y-119837419D02*
X228661258Y-118837419D01*
X224618401Y-118559800D02*
X228942211Y-118559800D01*
X216987714Y-111124419D02*
X216987714Y-110124419D01*
X216987714Y-110600609D02*
X217559142Y-110600609D01*
X217559142Y-111124419D02*
X217559142Y-110124419D01*
X217987714Y-111076800D02*
X218130571Y-111124419D01*
X218130571Y-111124419D02*
X218368666Y-111124419D01*
X218368666Y-111124419D02*
X218463904Y-111076800D01*
X218463904Y-111076800D02*
X218511523Y-111029180D01*
X218511523Y-111029180D02*
X218559142Y-110933942D01*
X218559142Y-110933942D02*
X218559142Y-110838704D01*
X218559142Y-110838704D02*
X218511523Y-110743466D01*
X218511523Y-110743466D02*
X218463904Y-110695847D01*
X218463904Y-110695847D02*
X218368666Y-110648228D01*
X218368666Y-110648228D02*
X218178190Y-110600609D01*
X218178190Y-110600609D02*
X218082952Y-110552990D01*
X218082952Y-110552990D02*
X218035333Y-110505371D01*
X218035333Y-110505371D02*
X217987714Y-110410133D01*
X217987714Y-110410133D02*
X217987714Y-110314895D01*
X217987714Y-110314895D02*
X218035333Y-110219657D01*
X218035333Y-110219657D02*
X218082952Y-110172038D01*
X218082952Y-110172038D02*
X218178190Y-110124419D01*
X218178190Y-110124419D02*
X218416285Y-110124419D01*
X218416285Y-110124419D02*
X218559142Y-110172038D01*
X219178190Y-110648228D02*
X219178190Y-111124419D01*
X218844857Y-110124419D02*
X219178190Y-110648228D01*
X219178190Y-110648228D02*
X219511523Y-110124419D01*
X219844857Y-111124419D02*
X219844857Y-110124419D01*
X219844857Y-110124419D02*
X220416285Y-111124419D01*
X220416285Y-111124419D02*
X220416285Y-110124419D01*
X221463904Y-111029180D02*
X221416285Y-111076800D01*
X221416285Y-111076800D02*
X221273428Y-111124419D01*
X221273428Y-111124419D02*
X221178190Y-111124419D01*
X221178190Y-111124419D02*
X221035333Y-111076800D01*
X221035333Y-111076800D02*
X220940095Y-110981561D01*
X220940095Y-110981561D02*
X220892476Y-110886323D01*
X220892476Y-110886323D02*
X220844857Y-110695847D01*
X220844857Y-110695847D02*
X220844857Y-110552990D01*
X220844857Y-110552990D02*
X220892476Y-110362514D01*
X220892476Y-110362514D02*
X220940095Y-110267276D01*
X220940095Y-110267276D02*
X221035333Y-110172038D01*
X221035333Y-110172038D02*
X221178190Y-110124419D01*
X221178190Y-110124419D02*
X221273428Y-110124419D01*
X221273428Y-110124419D02*
X221416285Y-110172038D01*
X221416285Y-110172038D02*
X221463904Y-110219657D01*
X236015884Y-55956466D02*
X236777789Y-55956466D01*
X236396836Y-56337419D02*
X236396836Y-55575514D01*
X237730169Y-55337419D02*
X237253979Y-55337419D01*
X237253979Y-55337419D02*
X237206360Y-55813609D01*
X237206360Y-55813609D02*
X237253979Y-55765990D01*
X237253979Y-55765990D02*
X237349217Y-55718371D01*
X237349217Y-55718371D02*
X237587312Y-55718371D01*
X237587312Y-55718371D02*
X237682550Y-55765990D01*
X237682550Y-55765990D02*
X237730169Y-55813609D01*
X237730169Y-55813609D02*
X237777788Y-55908847D01*
X237777788Y-55908847D02*
X237777788Y-56146942D01*
X237777788Y-56146942D02*
X237730169Y-56242180D01*
X237730169Y-56242180D02*
X237682550Y-56289800D01*
X237682550Y-56289800D02*
X237587312Y-56337419D01*
X237587312Y-56337419D02*
X237349217Y-56337419D01*
X237349217Y-56337419D02*
X237253979Y-56289800D01*
X237253979Y-56289800D02*
X237206360Y-56242180D01*
X238063503Y-55337419D02*
X238396836Y-56337419D01*
X238396836Y-56337419D02*
X238730169Y-55337419D01*
X236539693Y-111265038D02*
X236444455Y-111217419D01*
X236444455Y-111217419D02*
X236301598Y-111217419D01*
X236301598Y-111217419D02*
X236158741Y-111265038D01*
X236158741Y-111265038D02*
X236063503Y-111360276D01*
X236063503Y-111360276D02*
X236015884Y-111455514D01*
X236015884Y-111455514D02*
X235968265Y-111645990D01*
X235968265Y-111645990D02*
X235968265Y-111788847D01*
X235968265Y-111788847D02*
X236015884Y-111979323D01*
X236015884Y-111979323D02*
X236063503Y-112074561D01*
X236063503Y-112074561D02*
X236158741Y-112169800D01*
X236158741Y-112169800D02*
X236301598Y-112217419D01*
X236301598Y-112217419D02*
X236396836Y-112217419D01*
X236396836Y-112217419D02*
X236539693Y-112169800D01*
X236539693Y-112169800D02*
X236587312Y-112122180D01*
X236587312Y-112122180D02*
X236587312Y-111788847D01*
X236587312Y-111788847D02*
X236396836Y-111788847D01*
X237015884Y-112217419D02*
X237015884Y-111217419D01*
X237015884Y-111217419D02*
X237587312Y-112217419D01*
X237587312Y-112217419D02*
X237587312Y-111217419D01*
X238063503Y-112217419D02*
X238063503Y-111217419D01*
X238063503Y-111217419D02*
X238301598Y-111217419D01*
X238301598Y-111217419D02*
X238444455Y-111265038D01*
X238444455Y-111265038D02*
X238539693Y-111360276D01*
X238539693Y-111360276D02*
X238587312Y-111455514D01*
X238587312Y-111455514D02*
X238634931Y-111645990D01*
X238634931Y-111645990D02*
X238634931Y-111788847D01*
X238634931Y-111788847D02*
X238587312Y-111979323D01*
X238587312Y-111979323D02*
X238539693Y-112074561D01*
X238539693Y-112074561D02*
X238444455Y-112169800D01*
X238444455Y-112169800D02*
X238301598Y-112217419D01*
X238301598Y-112217419D02*
X238063503Y-112217419D01*
X226280306Y-79197419D02*
X226280306Y-78197419D01*
X226280306Y-78673609D02*
X226851734Y-78673609D01*
X226851734Y-79197419D02*
X226851734Y-78197419D01*
X227661258Y-78673609D02*
X227804115Y-78721228D01*
X227804115Y-78721228D02*
X227851734Y-78768847D01*
X227851734Y-78768847D02*
X227899353Y-78864085D01*
X227899353Y-78864085D02*
X227899353Y-79006942D01*
X227899353Y-79006942D02*
X227851734Y-79102180D01*
X227851734Y-79102180D02*
X227804115Y-79149800D01*
X227804115Y-79149800D02*
X227708877Y-79197419D01*
X227708877Y-79197419D02*
X227327925Y-79197419D01*
X227327925Y-79197419D02*
X227327925Y-78197419D01*
X227327925Y-78197419D02*
X227661258Y-78197419D01*
X227661258Y-78197419D02*
X227756496Y-78245038D01*
X227756496Y-78245038D02*
X227804115Y-78292657D01*
X227804115Y-78292657D02*
X227851734Y-78387895D01*
X227851734Y-78387895D02*
X227851734Y-78483133D01*
X227851734Y-78483133D02*
X227804115Y-78578371D01*
X227804115Y-78578371D02*
X227756496Y-78625990D01*
X227756496Y-78625990D02*
X227661258Y-78673609D01*
X227661258Y-78673609D02*
X227327925Y-78673609D01*
X228280306Y-79149800D02*
X228423163Y-79197419D01*
X228423163Y-79197419D02*
X228661258Y-79197419D01*
X228661258Y-79197419D02*
X228756496Y-79149800D01*
X228756496Y-79149800D02*
X228804115Y-79102180D01*
X228804115Y-79102180D02*
X228851734Y-79006942D01*
X228851734Y-79006942D02*
X228851734Y-78911704D01*
X228851734Y-78911704D02*
X228804115Y-78816466D01*
X228804115Y-78816466D02*
X228756496Y-78768847D01*
X228756496Y-78768847D02*
X228661258Y-78721228D01*
X228661258Y-78721228D02*
X228470782Y-78673609D01*
X228470782Y-78673609D02*
X228375544Y-78625990D01*
X228375544Y-78625990D02*
X228327925Y-78578371D01*
X228327925Y-78578371D02*
X228280306Y-78483133D01*
X228280306Y-78483133D02*
X228280306Y-78387895D01*
X228280306Y-78387895D02*
X228327925Y-78292657D01*
X228327925Y-78292657D02*
X228375544Y-78245038D01*
X228375544Y-78245038D02*
X228470782Y-78197419D01*
X228470782Y-78197419D02*
X228708877Y-78197419D01*
X228708877Y-78197419D02*
X228851734Y-78245038D01*
X201916360Y-140096419D02*
X202106836Y-140096419D01*
X202106836Y-140096419D02*
X202202074Y-140144038D01*
X202202074Y-140144038D02*
X202297312Y-140239276D01*
X202297312Y-140239276D02*
X202344931Y-140429752D01*
X202344931Y-140429752D02*
X202344931Y-140763085D01*
X202344931Y-140763085D02*
X202297312Y-140953561D01*
X202297312Y-140953561D02*
X202202074Y-141048800D01*
X202202074Y-141048800D02*
X202106836Y-141096419D01*
X202106836Y-141096419D02*
X201916360Y-141096419D01*
X201916360Y-141096419D02*
X201821122Y-141048800D01*
X201821122Y-141048800D02*
X201725884Y-140953561D01*
X201725884Y-140953561D02*
X201678265Y-140763085D01*
X201678265Y-140763085D02*
X201678265Y-140429752D01*
X201678265Y-140429752D02*
X201725884Y-140239276D01*
X201725884Y-140239276D02*
X201821122Y-140144038D01*
X201821122Y-140144038D02*
X201916360Y-140096419D01*
X202773503Y-140429752D02*
X202773503Y-141429752D01*
X202773503Y-140477371D02*
X202868741Y-140429752D01*
X202868741Y-140429752D02*
X203059217Y-140429752D01*
X203059217Y-140429752D02*
X203154455Y-140477371D01*
X203154455Y-140477371D02*
X203202074Y-140524990D01*
X203202074Y-140524990D02*
X203249693Y-140620228D01*
X203249693Y-140620228D02*
X203249693Y-140905942D01*
X203249693Y-140905942D02*
X203202074Y-141001180D01*
X203202074Y-141001180D02*
X203154455Y-141048800D01*
X203154455Y-141048800D02*
X203059217Y-141096419D01*
X203059217Y-141096419D02*
X202868741Y-141096419D01*
X202868741Y-141096419D02*
X202773503Y-141048800D01*
X203535408Y-140429752D02*
X203916360Y-140429752D01*
X203678265Y-140096419D02*
X203678265Y-140953561D01*
X203678265Y-140953561D02*
X203725884Y-141048800D01*
X203725884Y-141048800D02*
X203821122Y-141096419D01*
X203821122Y-141096419D02*
X203916360Y-141096419D01*
X204249694Y-141096419D02*
X204249694Y-140429752D01*
X204249694Y-140096419D02*
X204202075Y-140144038D01*
X204202075Y-140144038D02*
X204249694Y-140191657D01*
X204249694Y-140191657D02*
X204297313Y-140144038D01*
X204297313Y-140144038D02*
X204249694Y-140096419D01*
X204249694Y-140096419D02*
X204249694Y-140191657D01*
X204868741Y-141096419D02*
X204773503Y-141048800D01*
X204773503Y-141048800D02*
X204725884Y-141001180D01*
X204725884Y-141001180D02*
X204678265Y-140905942D01*
X204678265Y-140905942D02*
X204678265Y-140620228D01*
X204678265Y-140620228D02*
X204725884Y-140524990D01*
X204725884Y-140524990D02*
X204773503Y-140477371D01*
X204773503Y-140477371D02*
X204868741Y-140429752D01*
X204868741Y-140429752D02*
X205011598Y-140429752D01*
X205011598Y-140429752D02*
X205106836Y-140477371D01*
X205106836Y-140477371D02*
X205154455Y-140524990D01*
X205154455Y-140524990D02*
X205202074Y-140620228D01*
X205202074Y-140620228D02*
X205202074Y-140905942D01*
X205202074Y-140905942D02*
X205154455Y-141001180D01*
X205154455Y-141001180D02*
X205106836Y-141048800D01*
X205106836Y-141048800D02*
X205011598Y-141096419D01*
X205011598Y-141096419D02*
X204868741Y-141096419D01*
X205630646Y-140429752D02*
X205630646Y-141096419D01*
X205630646Y-140524990D02*
X205678265Y-140477371D01*
X205678265Y-140477371D02*
X205773503Y-140429752D01*
X205773503Y-140429752D02*
X205916360Y-140429752D01*
X205916360Y-140429752D02*
X206011598Y-140477371D01*
X206011598Y-140477371D02*
X206059217Y-140572609D01*
X206059217Y-140572609D02*
X206059217Y-141096419D01*
X206963979Y-141096419D02*
X206963979Y-140572609D01*
X206963979Y-140572609D02*
X206916360Y-140477371D01*
X206916360Y-140477371D02*
X206821122Y-140429752D01*
X206821122Y-140429752D02*
X206630646Y-140429752D01*
X206630646Y-140429752D02*
X206535408Y-140477371D01*
X206963979Y-141048800D02*
X206868741Y-141096419D01*
X206868741Y-141096419D02*
X206630646Y-141096419D01*
X206630646Y-141096419D02*
X206535408Y-141048800D01*
X206535408Y-141048800D02*
X206487789Y-140953561D01*
X206487789Y-140953561D02*
X206487789Y-140858323D01*
X206487789Y-140858323D02*
X206535408Y-140763085D01*
X206535408Y-140763085D02*
X206630646Y-140715466D01*
X206630646Y-140715466D02*
X206868741Y-140715466D01*
X206868741Y-140715466D02*
X206963979Y-140667847D01*
X207583027Y-141096419D02*
X207487789Y-141048800D01*
X207487789Y-141048800D02*
X207440170Y-140953561D01*
X207440170Y-140953561D02*
X207440170Y-140096419D01*
X236539693Y-126505038D02*
X236444455Y-126457419D01*
X236444455Y-126457419D02*
X236301598Y-126457419D01*
X236301598Y-126457419D02*
X236158741Y-126505038D01*
X236158741Y-126505038D02*
X236063503Y-126600276D01*
X236063503Y-126600276D02*
X236015884Y-126695514D01*
X236015884Y-126695514D02*
X235968265Y-126885990D01*
X235968265Y-126885990D02*
X235968265Y-127028847D01*
X235968265Y-127028847D02*
X236015884Y-127219323D01*
X236015884Y-127219323D02*
X236063503Y-127314561D01*
X236063503Y-127314561D02*
X236158741Y-127409800D01*
X236158741Y-127409800D02*
X236301598Y-127457419D01*
X236301598Y-127457419D02*
X236396836Y-127457419D01*
X236396836Y-127457419D02*
X236539693Y-127409800D01*
X236539693Y-127409800D02*
X236587312Y-127362180D01*
X236587312Y-127362180D02*
X236587312Y-127028847D01*
X236587312Y-127028847D02*
X236396836Y-127028847D01*
X237015884Y-127457419D02*
X237015884Y-126457419D01*
X237015884Y-126457419D02*
X237587312Y-127457419D01*
X237587312Y-127457419D02*
X237587312Y-126457419D01*
X238063503Y-127457419D02*
X238063503Y-126457419D01*
X238063503Y-126457419D02*
X238301598Y-126457419D01*
X238301598Y-126457419D02*
X238444455Y-126505038D01*
X238444455Y-126505038D02*
X238539693Y-126600276D01*
X238539693Y-126600276D02*
X238587312Y-126695514D01*
X238587312Y-126695514D02*
X238634931Y-126885990D01*
X238634931Y-126885990D02*
X238634931Y-127028847D01*
X238634931Y-127028847D02*
X238587312Y-127219323D01*
X238587312Y-127219323D02*
X238539693Y-127314561D01*
X238539693Y-127314561D02*
X238444455Y-127409800D01*
X238444455Y-127409800D02*
X238301598Y-127457419D01*
X238301598Y-127457419D02*
X238063503Y-127457419D01*
X226994591Y-61417419D02*
X226518401Y-61417419D01*
X226518401Y-61417419D02*
X226518401Y-60417419D01*
X227899353Y-61322180D02*
X227851734Y-61369800D01*
X227851734Y-61369800D02*
X227708877Y-61417419D01*
X227708877Y-61417419D02*
X227613639Y-61417419D01*
X227613639Y-61417419D02*
X227470782Y-61369800D01*
X227470782Y-61369800D02*
X227375544Y-61274561D01*
X227375544Y-61274561D02*
X227327925Y-61179323D01*
X227327925Y-61179323D02*
X227280306Y-60988847D01*
X227280306Y-60988847D02*
X227280306Y-60845990D01*
X227280306Y-60845990D02*
X227327925Y-60655514D01*
X227327925Y-60655514D02*
X227375544Y-60560276D01*
X227375544Y-60560276D02*
X227470782Y-60465038D01*
X227470782Y-60465038D02*
X227613639Y-60417419D01*
X227613639Y-60417419D02*
X227708877Y-60417419D01*
X227708877Y-60417419D02*
X227851734Y-60465038D01*
X227851734Y-60465038D02*
X227899353Y-60512657D01*
X228851734Y-61417419D02*
X228280306Y-61417419D01*
X228566020Y-61417419D02*
X228566020Y-60417419D01*
X228566020Y-60417419D02*
X228470782Y-60560276D01*
X228470782Y-60560276D02*
X228375544Y-60655514D01*
X228375544Y-60655514D02*
X228280306Y-60703133D01*
X130730761Y-80499180D02*
X130683142Y-80546800D01*
X130683142Y-80546800D02*
X130540285Y-80594419D01*
X130540285Y-80594419D02*
X130445047Y-80594419D01*
X130445047Y-80594419D02*
X130302190Y-80546800D01*
X130302190Y-80546800D02*
X130206952Y-80451561D01*
X130206952Y-80451561D02*
X130159333Y-80356323D01*
X130159333Y-80356323D02*
X130111714Y-80165847D01*
X130111714Y-80165847D02*
X130111714Y-80022990D01*
X130111714Y-80022990D02*
X130159333Y-79832514D01*
X130159333Y-79832514D02*
X130206952Y-79737276D01*
X130206952Y-79737276D02*
X130302190Y-79642038D01*
X130302190Y-79642038D02*
X130445047Y-79594419D01*
X130445047Y-79594419D02*
X130540285Y-79594419D01*
X130540285Y-79594419D02*
X130683142Y-79642038D01*
X130683142Y-79642038D02*
X130730761Y-79689657D01*
X131730761Y-80499180D02*
X131683142Y-80546800D01*
X131683142Y-80546800D02*
X131540285Y-80594419D01*
X131540285Y-80594419D02*
X131445047Y-80594419D01*
X131445047Y-80594419D02*
X131302190Y-80546800D01*
X131302190Y-80546800D02*
X131206952Y-80451561D01*
X131206952Y-80451561D02*
X131159333Y-80356323D01*
X131159333Y-80356323D02*
X131111714Y-80165847D01*
X131111714Y-80165847D02*
X131111714Y-80022990D01*
X131111714Y-80022990D02*
X131159333Y-79832514D01*
X131159333Y-79832514D02*
X131206952Y-79737276D01*
X131206952Y-79737276D02*
X131302190Y-79642038D01*
X131302190Y-79642038D02*
X131445047Y-79594419D01*
X131445047Y-79594419D02*
X131540285Y-79594419D01*
X131540285Y-79594419D02*
X131683142Y-79642038D01*
X131683142Y-79642038D02*
X131730761Y-79689657D01*
X132635523Y-80594419D02*
X132159333Y-80594419D01*
X132159333Y-80594419D02*
X132159333Y-79594419D01*
X132968857Y-80594419D02*
X132968857Y-79594419D01*
X133540285Y-80594419D02*
X133111714Y-80022990D01*
X133540285Y-79594419D02*
X132968857Y-80165847D01*
X184499333Y-93072180D02*
X184451714Y-93119800D01*
X184451714Y-93119800D02*
X184308857Y-93167419D01*
X184308857Y-93167419D02*
X184213619Y-93167419D01*
X184213619Y-93167419D02*
X184070762Y-93119800D01*
X184070762Y-93119800D02*
X183975524Y-93024561D01*
X183975524Y-93024561D02*
X183927905Y-92929323D01*
X183927905Y-92929323D02*
X183880286Y-92738847D01*
X183880286Y-92738847D02*
X183880286Y-92595990D01*
X183880286Y-92595990D02*
X183927905Y-92405514D01*
X183927905Y-92405514D02*
X183975524Y-92310276D01*
X183975524Y-92310276D02*
X184070762Y-92215038D01*
X184070762Y-92215038D02*
X184213619Y-92167419D01*
X184213619Y-92167419D02*
X184308857Y-92167419D01*
X184308857Y-92167419D02*
X184451714Y-92215038D01*
X184451714Y-92215038D02*
X184499333Y-92262657D01*
X185499333Y-93072180D02*
X185451714Y-93119800D01*
X185451714Y-93119800D02*
X185308857Y-93167419D01*
X185308857Y-93167419D02*
X185213619Y-93167419D01*
X185213619Y-93167419D02*
X185070762Y-93119800D01*
X185070762Y-93119800D02*
X184975524Y-93024561D01*
X184975524Y-93024561D02*
X184927905Y-92929323D01*
X184927905Y-92929323D02*
X184880286Y-92738847D01*
X184880286Y-92738847D02*
X184880286Y-92595990D01*
X184880286Y-92595990D02*
X184927905Y-92405514D01*
X184927905Y-92405514D02*
X184975524Y-92310276D01*
X184975524Y-92310276D02*
X185070762Y-92215038D01*
X185070762Y-92215038D02*
X185213619Y-92167419D01*
X185213619Y-92167419D02*
X185308857Y-92167419D01*
X185308857Y-92167419D02*
X185451714Y-92215038D01*
X185451714Y-92215038D02*
X185499333Y-92262657D01*
X186356476Y-92167419D02*
X186166000Y-92167419D01*
X186166000Y-92167419D02*
X186070762Y-92215038D01*
X186070762Y-92215038D02*
X186023143Y-92262657D01*
X186023143Y-92262657D02*
X185927905Y-92405514D01*
X185927905Y-92405514D02*
X185880286Y-92595990D01*
X185880286Y-92595990D02*
X185880286Y-92976942D01*
X185880286Y-92976942D02*
X185927905Y-93072180D01*
X185927905Y-93072180D02*
X185975524Y-93119800D01*
X185975524Y-93119800D02*
X186070762Y-93167419D01*
X186070762Y-93167419D02*
X186261238Y-93167419D01*
X186261238Y-93167419D02*
X186356476Y-93119800D01*
X186356476Y-93119800D02*
X186404095Y-93072180D01*
X186404095Y-93072180D02*
X186451714Y-92976942D01*
X186451714Y-92976942D02*
X186451714Y-92738847D01*
X186451714Y-92738847D02*
X186404095Y-92643609D01*
X186404095Y-92643609D02*
X186356476Y-92595990D01*
X186356476Y-92595990D02*
X186261238Y-92548371D01*
X186261238Y-92548371D02*
X186070762Y-92548371D01*
X186070762Y-92548371D02*
X185975524Y-92595990D01*
X185975524Y-92595990D02*
X185927905Y-92643609D01*
X185927905Y-92643609D02*
X185880286Y-92738847D01*
X235873027Y-101057419D02*
X236206360Y-102057419D01*
X236206360Y-102057419D02*
X236539693Y-101057419D01*
X236873027Y-102057419D02*
X236873027Y-101057419D01*
X237349217Y-102057419D02*
X237349217Y-101057419D01*
X237349217Y-101057419D02*
X237587312Y-101057419D01*
X237587312Y-101057419D02*
X237730169Y-101105038D01*
X237730169Y-101105038D02*
X237825407Y-101200276D01*
X237825407Y-101200276D02*
X237873026Y-101295514D01*
X237873026Y-101295514D02*
X237920645Y-101485990D01*
X237920645Y-101485990D02*
X237920645Y-101628847D01*
X237920645Y-101628847D02*
X237873026Y-101819323D01*
X237873026Y-101819323D02*
X237825407Y-101914561D01*
X237825407Y-101914561D02*
X237730169Y-102009800D01*
X237730169Y-102009800D02*
X237587312Y-102057419D01*
X237587312Y-102057419D02*
X237349217Y-102057419D01*
X238349217Y-101676466D02*
X239111122Y-101676466D01*
X238730169Y-102057419D02*
X238730169Y-101295514D01*
X224613640Y-108677419D02*
X224946973Y-109677419D01*
X224946973Y-109677419D02*
X225280306Y-108677419D01*
X225613640Y-109677419D02*
X225613640Y-108677419D01*
X226089830Y-109677419D02*
X226089830Y-108677419D01*
X226089830Y-108677419D02*
X226327925Y-108677419D01*
X226327925Y-108677419D02*
X226470782Y-108725038D01*
X226470782Y-108725038D02*
X226566020Y-108820276D01*
X226566020Y-108820276D02*
X226613639Y-108915514D01*
X226613639Y-108915514D02*
X226661258Y-109105990D01*
X226661258Y-109105990D02*
X226661258Y-109248847D01*
X226661258Y-109248847D02*
X226613639Y-109439323D01*
X226613639Y-109439323D02*
X226566020Y-109534561D01*
X226566020Y-109534561D02*
X226470782Y-109629800D01*
X226470782Y-109629800D02*
X226327925Y-109677419D01*
X226327925Y-109677419D02*
X226089830Y-109677419D01*
X227042211Y-108772657D02*
X227089830Y-108725038D01*
X227089830Y-108725038D02*
X227185068Y-108677419D01*
X227185068Y-108677419D02*
X227423163Y-108677419D01*
X227423163Y-108677419D02*
X227518401Y-108725038D01*
X227518401Y-108725038D02*
X227566020Y-108772657D01*
X227566020Y-108772657D02*
X227613639Y-108867895D01*
X227613639Y-108867895D02*
X227613639Y-108963133D01*
X227613639Y-108963133D02*
X227566020Y-109105990D01*
X227566020Y-109105990D02*
X226994592Y-109677419D01*
X226994592Y-109677419D02*
X227613639Y-109677419D01*
X228042211Y-109296466D02*
X228804116Y-109296466D01*
X217265333Y-72675180D02*
X217217714Y-72722800D01*
X217217714Y-72722800D02*
X217074857Y-72770419D01*
X217074857Y-72770419D02*
X216979619Y-72770419D01*
X216979619Y-72770419D02*
X216836762Y-72722800D01*
X216836762Y-72722800D02*
X216741524Y-72627561D01*
X216741524Y-72627561D02*
X216693905Y-72532323D01*
X216693905Y-72532323D02*
X216646286Y-72341847D01*
X216646286Y-72341847D02*
X216646286Y-72198990D01*
X216646286Y-72198990D02*
X216693905Y-72008514D01*
X216693905Y-72008514D02*
X216741524Y-71913276D01*
X216741524Y-71913276D02*
X216836762Y-71818038D01*
X216836762Y-71818038D02*
X216979619Y-71770419D01*
X216979619Y-71770419D02*
X217074857Y-71770419D01*
X217074857Y-71770419D02*
X217217714Y-71818038D01*
X217217714Y-71818038D02*
X217265333Y-71865657D01*
X218265333Y-72675180D02*
X218217714Y-72722800D01*
X218217714Y-72722800D02*
X218074857Y-72770419D01*
X218074857Y-72770419D02*
X217979619Y-72770419D01*
X217979619Y-72770419D02*
X217836762Y-72722800D01*
X217836762Y-72722800D02*
X217741524Y-72627561D01*
X217741524Y-72627561D02*
X217693905Y-72532323D01*
X217693905Y-72532323D02*
X217646286Y-72341847D01*
X217646286Y-72341847D02*
X217646286Y-72198990D01*
X217646286Y-72198990D02*
X217693905Y-72008514D01*
X217693905Y-72008514D02*
X217741524Y-71913276D01*
X217741524Y-71913276D02*
X217836762Y-71818038D01*
X217836762Y-71818038D02*
X217979619Y-71770419D01*
X217979619Y-71770419D02*
X218074857Y-71770419D01*
X218074857Y-71770419D02*
X218217714Y-71818038D01*
X218217714Y-71818038D02*
X218265333Y-71865657D01*
X219170095Y-71770419D02*
X218693905Y-71770419D01*
X218693905Y-71770419D02*
X218646286Y-72246609D01*
X218646286Y-72246609D02*
X218693905Y-72198990D01*
X218693905Y-72198990D02*
X218789143Y-72151371D01*
X218789143Y-72151371D02*
X219027238Y-72151371D01*
X219027238Y-72151371D02*
X219122476Y-72198990D01*
X219122476Y-72198990D02*
X219170095Y-72246609D01*
X219170095Y-72246609D02*
X219217714Y-72341847D01*
X219217714Y-72341847D02*
X219217714Y-72579942D01*
X219217714Y-72579942D02*
X219170095Y-72675180D01*
X219170095Y-72675180D02*
X219122476Y-72722800D01*
X219122476Y-72722800D02*
X219027238Y-72770419D01*
X219027238Y-72770419D02*
X218789143Y-72770419D01*
X218789143Y-72770419D02*
X218693905Y-72722800D01*
X218693905Y-72722800D02*
X218646286Y-72675180D01*
X226899353Y-74022180D02*
X226851734Y-74069800D01*
X226851734Y-74069800D02*
X226708877Y-74117419D01*
X226708877Y-74117419D02*
X226613639Y-74117419D01*
X226613639Y-74117419D02*
X226470782Y-74069800D01*
X226470782Y-74069800D02*
X226375544Y-73974561D01*
X226375544Y-73974561D02*
X226327925Y-73879323D01*
X226327925Y-73879323D02*
X226280306Y-73688847D01*
X226280306Y-73688847D02*
X226280306Y-73545990D01*
X226280306Y-73545990D02*
X226327925Y-73355514D01*
X226327925Y-73355514D02*
X226375544Y-73260276D01*
X226375544Y-73260276D02*
X226470782Y-73165038D01*
X226470782Y-73165038D02*
X226613639Y-73117419D01*
X226613639Y-73117419D02*
X226708877Y-73117419D01*
X226708877Y-73117419D02*
X226851734Y-73165038D01*
X226851734Y-73165038D02*
X226899353Y-73212657D01*
X227899353Y-74022180D02*
X227851734Y-74069800D01*
X227851734Y-74069800D02*
X227708877Y-74117419D01*
X227708877Y-74117419D02*
X227613639Y-74117419D01*
X227613639Y-74117419D02*
X227470782Y-74069800D01*
X227470782Y-74069800D02*
X227375544Y-73974561D01*
X227375544Y-73974561D02*
X227327925Y-73879323D01*
X227327925Y-73879323D02*
X227280306Y-73688847D01*
X227280306Y-73688847D02*
X227280306Y-73545990D01*
X227280306Y-73545990D02*
X227327925Y-73355514D01*
X227327925Y-73355514D02*
X227375544Y-73260276D01*
X227375544Y-73260276D02*
X227470782Y-73165038D01*
X227470782Y-73165038D02*
X227613639Y-73117419D01*
X227613639Y-73117419D02*
X227708877Y-73117419D01*
X227708877Y-73117419D02*
X227851734Y-73165038D01*
X227851734Y-73165038D02*
X227899353Y-73212657D01*
X228518401Y-73117419D02*
X228613639Y-73117419D01*
X228613639Y-73117419D02*
X228708877Y-73165038D01*
X228708877Y-73165038D02*
X228756496Y-73212657D01*
X228756496Y-73212657D02*
X228804115Y-73307895D01*
X228804115Y-73307895D02*
X228851734Y-73498371D01*
X228851734Y-73498371D02*
X228851734Y-73736466D01*
X228851734Y-73736466D02*
X228804115Y-73926942D01*
X228804115Y-73926942D02*
X228756496Y-74022180D01*
X228756496Y-74022180D02*
X228708877Y-74069800D01*
X228708877Y-74069800D02*
X228613639Y-74117419D01*
X228613639Y-74117419D02*
X228518401Y-74117419D01*
X228518401Y-74117419D02*
X228423163Y-74069800D01*
X228423163Y-74069800D02*
X228375544Y-74022180D01*
X228375544Y-74022180D02*
X228327925Y-73926942D01*
X228327925Y-73926942D02*
X228280306Y-73736466D01*
X228280306Y-73736466D02*
X228280306Y-73498371D01*
X228280306Y-73498371D02*
X228327925Y-73307895D01*
X228327925Y-73307895D02*
X228375544Y-73212657D01*
X228375544Y-73212657D02*
X228423163Y-73165038D01*
X228423163Y-73165038D02*
X228518401Y-73117419D01*
X236587312Y-66402180D02*
X236539693Y-66449800D01*
X236539693Y-66449800D02*
X236396836Y-66497419D01*
X236396836Y-66497419D02*
X236301598Y-66497419D01*
X236301598Y-66497419D02*
X236158741Y-66449800D01*
X236158741Y-66449800D02*
X236063503Y-66354561D01*
X236063503Y-66354561D02*
X236015884Y-66259323D01*
X236015884Y-66259323D02*
X235968265Y-66068847D01*
X235968265Y-66068847D02*
X235968265Y-65925990D01*
X235968265Y-65925990D02*
X236015884Y-65735514D01*
X236015884Y-65735514D02*
X236063503Y-65640276D01*
X236063503Y-65640276D02*
X236158741Y-65545038D01*
X236158741Y-65545038D02*
X236301598Y-65497419D01*
X236301598Y-65497419D02*
X236396836Y-65497419D01*
X236396836Y-65497419D02*
X236539693Y-65545038D01*
X236539693Y-65545038D02*
X236587312Y-65592657D01*
X237587312Y-66402180D02*
X237539693Y-66449800D01*
X237539693Y-66449800D02*
X237396836Y-66497419D01*
X237396836Y-66497419D02*
X237301598Y-66497419D01*
X237301598Y-66497419D02*
X237158741Y-66449800D01*
X237158741Y-66449800D02*
X237063503Y-66354561D01*
X237063503Y-66354561D02*
X237015884Y-66259323D01*
X237015884Y-66259323D02*
X236968265Y-66068847D01*
X236968265Y-66068847D02*
X236968265Y-65925990D01*
X236968265Y-65925990D02*
X237015884Y-65735514D01*
X237015884Y-65735514D02*
X237063503Y-65640276D01*
X237063503Y-65640276D02*
X237158741Y-65545038D01*
X237158741Y-65545038D02*
X237301598Y-65497419D01*
X237301598Y-65497419D02*
X237396836Y-65497419D01*
X237396836Y-65497419D02*
X237539693Y-65545038D01*
X237539693Y-65545038D02*
X237587312Y-65592657D01*
X238492074Y-66497419D02*
X238015884Y-66497419D01*
X238015884Y-66497419D02*
X238015884Y-65497419D01*
X238825408Y-66497419D02*
X238825408Y-65497419D01*
X239396836Y-66497419D02*
X238968265Y-65925990D01*
X239396836Y-65497419D02*
X238825408Y-66068847D01*
X217265333Y-108298704D02*
X217741523Y-108298704D01*
X217170095Y-108584419D02*
X217503428Y-107584419D01*
X217503428Y-107584419D02*
X217836761Y-108584419D01*
X218503428Y-108060609D02*
X218170095Y-108060609D01*
X218170095Y-108584419D02*
X218170095Y-107584419D01*
X218170095Y-107584419D02*
X218646285Y-107584419D01*
X236492074Y-137617419D02*
X236015884Y-137617419D01*
X236015884Y-137617419D02*
X236015884Y-136617419D01*
X236777789Y-137331704D02*
X237253979Y-137331704D01*
X236682551Y-137617419D02*
X237015884Y-136617419D01*
X237015884Y-136617419D02*
X237349217Y-137617419D01*
X238111122Y-136950752D02*
X238111122Y-137617419D01*
X237873027Y-136569800D02*
X237634932Y-137284085D01*
X237634932Y-137284085D02*
X238253979Y-137284085D01*
X184499333Y-98152180D02*
X184451714Y-98199800D01*
X184451714Y-98199800D02*
X184308857Y-98247419D01*
X184308857Y-98247419D02*
X184213619Y-98247419D01*
X184213619Y-98247419D02*
X184070762Y-98199800D01*
X184070762Y-98199800D02*
X183975524Y-98104561D01*
X183975524Y-98104561D02*
X183927905Y-98009323D01*
X183927905Y-98009323D02*
X183880286Y-97818847D01*
X183880286Y-97818847D02*
X183880286Y-97675990D01*
X183880286Y-97675990D02*
X183927905Y-97485514D01*
X183927905Y-97485514D02*
X183975524Y-97390276D01*
X183975524Y-97390276D02*
X184070762Y-97295038D01*
X184070762Y-97295038D02*
X184213619Y-97247419D01*
X184213619Y-97247419D02*
X184308857Y-97247419D01*
X184308857Y-97247419D02*
X184451714Y-97295038D01*
X184451714Y-97295038D02*
X184499333Y-97342657D01*
X185499333Y-98152180D02*
X185451714Y-98199800D01*
X185451714Y-98199800D02*
X185308857Y-98247419D01*
X185308857Y-98247419D02*
X185213619Y-98247419D01*
X185213619Y-98247419D02*
X185070762Y-98199800D01*
X185070762Y-98199800D02*
X184975524Y-98104561D01*
X184975524Y-98104561D02*
X184927905Y-98009323D01*
X184927905Y-98009323D02*
X184880286Y-97818847D01*
X184880286Y-97818847D02*
X184880286Y-97675990D01*
X184880286Y-97675990D02*
X184927905Y-97485514D01*
X184927905Y-97485514D02*
X184975524Y-97390276D01*
X184975524Y-97390276D02*
X185070762Y-97295038D01*
X185070762Y-97295038D02*
X185213619Y-97247419D01*
X185213619Y-97247419D02*
X185308857Y-97247419D01*
X185308857Y-97247419D02*
X185451714Y-97295038D01*
X185451714Y-97295038D02*
X185499333Y-97342657D01*
X186404095Y-97247419D02*
X185927905Y-97247419D01*
X185927905Y-97247419D02*
X185880286Y-97723609D01*
X185880286Y-97723609D02*
X185927905Y-97675990D01*
X185927905Y-97675990D02*
X186023143Y-97628371D01*
X186023143Y-97628371D02*
X186261238Y-97628371D01*
X186261238Y-97628371D02*
X186356476Y-97675990D01*
X186356476Y-97675990D02*
X186404095Y-97723609D01*
X186404095Y-97723609D02*
X186451714Y-97818847D01*
X186451714Y-97818847D02*
X186451714Y-98056942D01*
X186451714Y-98056942D02*
X186404095Y-98152180D01*
X186404095Y-98152180D02*
X186356476Y-98199800D01*
X186356476Y-98199800D02*
X186261238Y-98247419D01*
X186261238Y-98247419D02*
X186023143Y-98247419D01*
X186023143Y-98247419D02*
X185927905Y-98199800D01*
X185927905Y-98199800D02*
X185880286Y-98152180D01*
X236015884Y-129997419D02*
X236015884Y-128997419D01*
X236015884Y-128997419D02*
X236253979Y-128997419D01*
X236253979Y-128997419D02*
X236396836Y-129045038D01*
X236396836Y-129045038D02*
X236492074Y-129140276D01*
X236492074Y-129140276D02*
X236539693Y-129235514D01*
X236539693Y-129235514D02*
X236587312Y-129425990D01*
X236587312Y-129425990D02*
X236587312Y-129568847D01*
X236587312Y-129568847D02*
X236539693Y-129759323D01*
X236539693Y-129759323D02*
X236492074Y-129854561D01*
X236492074Y-129854561D02*
X236396836Y-129949800D01*
X236396836Y-129949800D02*
X236253979Y-129997419D01*
X236253979Y-129997419D02*
X236015884Y-129997419D01*
X236968265Y-129092657D02*
X237015884Y-129045038D01*
X237015884Y-129045038D02*
X237111122Y-128997419D01*
X237111122Y-128997419D02*
X237349217Y-128997419D01*
X237349217Y-128997419D02*
X237444455Y-129045038D01*
X237444455Y-129045038D02*
X237492074Y-129092657D01*
X237492074Y-129092657D02*
X237539693Y-129187895D01*
X237539693Y-129187895D02*
X237539693Y-129283133D01*
X237539693Y-129283133D02*
X237492074Y-129425990D01*
X237492074Y-129425990D02*
X236920646Y-129997419D01*
X236920646Y-129997419D02*
X237539693Y-129997419D01*
X227137448Y-140157419D02*
X226661258Y-140157419D01*
X226661258Y-140157419D02*
X226661258Y-139157419D01*
X227423163Y-139871704D02*
X227899353Y-139871704D01*
X227327925Y-140157419D02*
X227661258Y-139157419D01*
X227661258Y-139157419D02*
X227994591Y-140157419D01*
X228232687Y-139157419D02*
X228851734Y-139157419D01*
X228851734Y-139157419D02*
X228518401Y-139538371D01*
X228518401Y-139538371D02*
X228661258Y-139538371D01*
X228661258Y-139538371D02*
X228756496Y-139585990D01*
X228756496Y-139585990D02*
X228804115Y-139633609D01*
X228804115Y-139633609D02*
X228851734Y-139728847D01*
X228851734Y-139728847D02*
X228851734Y-139966942D01*
X228851734Y-139966942D02*
X228804115Y-140062180D01*
X228804115Y-140062180D02*
X228756496Y-140109800D01*
X228756496Y-140109800D02*
X228661258Y-140157419D01*
X228661258Y-140157419D02*
X228375544Y-140157419D01*
X228375544Y-140157419D02*
X228280306Y-140109800D01*
X228280306Y-140109800D02*
X228232687Y-140062180D01*
X184626333Y-105772180D02*
X184578714Y-105819800D01*
X184578714Y-105819800D02*
X184435857Y-105867419D01*
X184435857Y-105867419D02*
X184340619Y-105867419D01*
X184340619Y-105867419D02*
X184197762Y-105819800D01*
X184197762Y-105819800D02*
X184102524Y-105724561D01*
X184102524Y-105724561D02*
X184054905Y-105629323D01*
X184054905Y-105629323D02*
X184007286Y-105438847D01*
X184007286Y-105438847D02*
X184007286Y-105295990D01*
X184007286Y-105295990D02*
X184054905Y-105105514D01*
X184054905Y-105105514D02*
X184102524Y-105010276D01*
X184102524Y-105010276D02*
X184197762Y-104915038D01*
X184197762Y-104915038D02*
X184340619Y-104867419D01*
X184340619Y-104867419D02*
X184435857Y-104867419D01*
X184435857Y-104867419D02*
X184578714Y-104915038D01*
X184578714Y-104915038D02*
X184626333Y-104962657D01*
X185626333Y-105772180D02*
X185578714Y-105819800D01*
X185578714Y-105819800D02*
X185435857Y-105867419D01*
X185435857Y-105867419D02*
X185340619Y-105867419D01*
X185340619Y-105867419D02*
X185197762Y-105819800D01*
X185197762Y-105819800D02*
X185102524Y-105724561D01*
X185102524Y-105724561D02*
X185054905Y-105629323D01*
X185054905Y-105629323D02*
X185007286Y-105438847D01*
X185007286Y-105438847D02*
X185007286Y-105295990D01*
X185007286Y-105295990D02*
X185054905Y-105105514D01*
X185054905Y-105105514D02*
X185102524Y-105010276D01*
X185102524Y-105010276D02*
X185197762Y-104915038D01*
X185197762Y-104915038D02*
X185340619Y-104867419D01*
X185340619Y-104867419D02*
X185435857Y-104867419D01*
X185435857Y-104867419D02*
X185578714Y-104915038D01*
X185578714Y-104915038D02*
X185626333Y-104962657D01*
X186007286Y-104962657D02*
X186054905Y-104915038D01*
X186054905Y-104915038D02*
X186150143Y-104867419D01*
X186150143Y-104867419D02*
X186388238Y-104867419D01*
X186388238Y-104867419D02*
X186483476Y-104915038D01*
X186483476Y-104915038D02*
X186531095Y-104962657D01*
X186531095Y-104962657D02*
X186578714Y-105057895D01*
X186578714Y-105057895D02*
X186578714Y-105153133D01*
X186578714Y-105153133D02*
X186531095Y-105295990D01*
X186531095Y-105295990D02*
X185959667Y-105867419D01*
X185959667Y-105867419D02*
X186578714Y-105867419D01*
X236587312Y-68942180D02*
X236539693Y-68989800D01*
X236539693Y-68989800D02*
X236396836Y-69037419D01*
X236396836Y-69037419D02*
X236301598Y-69037419D01*
X236301598Y-69037419D02*
X236158741Y-68989800D01*
X236158741Y-68989800D02*
X236063503Y-68894561D01*
X236063503Y-68894561D02*
X236015884Y-68799323D01*
X236015884Y-68799323D02*
X235968265Y-68608847D01*
X235968265Y-68608847D02*
X235968265Y-68465990D01*
X235968265Y-68465990D02*
X236015884Y-68275514D01*
X236015884Y-68275514D02*
X236063503Y-68180276D01*
X236063503Y-68180276D02*
X236158741Y-68085038D01*
X236158741Y-68085038D02*
X236301598Y-68037419D01*
X236301598Y-68037419D02*
X236396836Y-68037419D01*
X236396836Y-68037419D02*
X236539693Y-68085038D01*
X236539693Y-68085038D02*
X236587312Y-68132657D01*
X237587312Y-68942180D02*
X237539693Y-68989800D01*
X237539693Y-68989800D02*
X237396836Y-69037419D01*
X237396836Y-69037419D02*
X237301598Y-69037419D01*
X237301598Y-69037419D02*
X237158741Y-68989800D01*
X237158741Y-68989800D02*
X237063503Y-68894561D01*
X237063503Y-68894561D02*
X237015884Y-68799323D01*
X237015884Y-68799323D02*
X236968265Y-68608847D01*
X236968265Y-68608847D02*
X236968265Y-68465990D01*
X236968265Y-68465990D02*
X237015884Y-68275514D01*
X237015884Y-68275514D02*
X237063503Y-68180276D01*
X237063503Y-68180276D02*
X237158741Y-68085038D01*
X237158741Y-68085038D02*
X237301598Y-68037419D01*
X237301598Y-68037419D02*
X237396836Y-68037419D01*
X237396836Y-68037419D02*
X237539693Y-68085038D01*
X237539693Y-68085038D02*
X237587312Y-68132657D01*
X237920646Y-68037419D02*
X238539693Y-68037419D01*
X238539693Y-68037419D02*
X238206360Y-68418371D01*
X238206360Y-68418371D02*
X238349217Y-68418371D01*
X238349217Y-68418371D02*
X238444455Y-68465990D01*
X238444455Y-68465990D02*
X238492074Y-68513609D01*
X238492074Y-68513609D02*
X238539693Y-68608847D01*
X238539693Y-68608847D02*
X238539693Y-68846942D01*
X238539693Y-68846942D02*
X238492074Y-68942180D01*
X238492074Y-68942180D02*
X238444455Y-68989800D01*
X238444455Y-68989800D02*
X238349217Y-69037419D01*
X238349217Y-69037419D02*
X238063503Y-69037419D01*
X238063503Y-69037419D02*
X237968265Y-68989800D01*
X237968265Y-68989800D02*
X237920646Y-68942180D01*
X184538952Y-80467419D02*
X184205619Y-79991228D01*
X183967524Y-80467419D02*
X183967524Y-79467419D01*
X183967524Y-79467419D02*
X184348476Y-79467419D01*
X184348476Y-79467419D02*
X184443714Y-79515038D01*
X184443714Y-79515038D02*
X184491333Y-79562657D01*
X184491333Y-79562657D02*
X184538952Y-79657895D01*
X184538952Y-79657895D02*
X184538952Y-79800752D01*
X184538952Y-79800752D02*
X184491333Y-79895990D01*
X184491333Y-79895990D02*
X184443714Y-79943609D01*
X184443714Y-79943609D02*
X184348476Y-79991228D01*
X184348476Y-79991228D02*
X183967524Y-79991228D01*
X184824667Y-79467419D02*
X185158000Y-80467419D01*
X185158000Y-80467419D02*
X185491333Y-79467419D01*
X226899353Y-76562180D02*
X226851734Y-76609800D01*
X226851734Y-76609800D02*
X226708877Y-76657419D01*
X226708877Y-76657419D02*
X226613639Y-76657419D01*
X226613639Y-76657419D02*
X226470782Y-76609800D01*
X226470782Y-76609800D02*
X226375544Y-76514561D01*
X226375544Y-76514561D02*
X226327925Y-76419323D01*
X226327925Y-76419323D02*
X226280306Y-76228847D01*
X226280306Y-76228847D02*
X226280306Y-76085990D01*
X226280306Y-76085990D02*
X226327925Y-75895514D01*
X226327925Y-75895514D02*
X226375544Y-75800276D01*
X226375544Y-75800276D02*
X226470782Y-75705038D01*
X226470782Y-75705038D02*
X226613639Y-75657419D01*
X226613639Y-75657419D02*
X226708877Y-75657419D01*
X226708877Y-75657419D02*
X226851734Y-75705038D01*
X226851734Y-75705038D02*
X226899353Y-75752657D01*
X227899353Y-76562180D02*
X227851734Y-76609800D01*
X227851734Y-76609800D02*
X227708877Y-76657419D01*
X227708877Y-76657419D02*
X227613639Y-76657419D01*
X227613639Y-76657419D02*
X227470782Y-76609800D01*
X227470782Y-76609800D02*
X227375544Y-76514561D01*
X227375544Y-76514561D02*
X227327925Y-76419323D01*
X227327925Y-76419323D02*
X227280306Y-76228847D01*
X227280306Y-76228847D02*
X227280306Y-76085990D01*
X227280306Y-76085990D02*
X227327925Y-75895514D01*
X227327925Y-75895514D02*
X227375544Y-75800276D01*
X227375544Y-75800276D02*
X227470782Y-75705038D01*
X227470782Y-75705038D02*
X227613639Y-75657419D01*
X227613639Y-75657419D02*
X227708877Y-75657419D01*
X227708877Y-75657419D02*
X227851734Y-75705038D01*
X227851734Y-75705038D02*
X227899353Y-75752657D01*
X228756496Y-75990752D02*
X228756496Y-76657419D01*
X228518401Y-75609800D02*
X228280306Y-76324085D01*
X228280306Y-76324085D02*
X228899353Y-76324085D01*
X235873027Y-106137419D02*
X236206360Y-107137419D01*
X236206360Y-107137419D02*
X236539693Y-106137419D01*
X236825408Y-107089800D02*
X236968265Y-107137419D01*
X236968265Y-107137419D02*
X237206360Y-107137419D01*
X237206360Y-107137419D02*
X237301598Y-107089800D01*
X237301598Y-107089800D02*
X237349217Y-107042180D01*
X237349217Y-107042180D02*
X237396836Y-106946942D01*
X237396836Y-106946942D02*
X237396836Y-106851704D01*
X237396836Y-106851704D02*
X237349217Y-106756466D01*
X237349217Y-106756466D02*
X237301598Y-106708847D01*
X237301598Y-106708847D02*
X237206360Y-106661228D01*
X237206360Y-106661228D02*
X237015884Y-106613609D01*
X237015884Y-106613609D02*
X236920646Y-106565990D01*
X236920646Y-106565990D02*
X236873027Y-106518371D01*
X236873027Y-106518371D02*
X236825408Y-106423133D01*
X236825408Y-106423133D02*
X236825408Y-106327895D01*
X236825408Y-106327895D02*
X236873027Y-106232657D01*
X236873027Y-106232657D02*
X236920646Y-106185038D01*
X236920646Y-106185038D02*
X237015884Y-106137419D01*
X237015884Y-106137419D02*
X237253979Y-106137419D01*
X237253979Y-106137419D02*
X237396836Y-106185038D01*
X238015884Y-106661228D02*
X238015884Y-107137419D01*
X237682551Y-106137419D02*
X238015884Y-106661228D01*
X238015884Y-106661228D02*
X238349217Y-106137419D01*
X238682551Y-107137419D02*
X238682551Y-106137419D01*
X238682551Y-106137419D02*
X239253979Y-107137419D01*
X239253979Y-107137419D02*
X239253979Y-106137419D01*
X239730170Y-106756466D02*
X240492075Y-106756466D01*
X240111122Y-107137419D02*
X240111122Y-106375514D01*
X184626333Y-113392180D02*
X184578714Y-113439800D01*
X184578714Y-113439800D02*
X184435857Y-113487419D01*
X184435857Y-113487419D02*
X184340619Y-113487419D01*
X184340619Y-113487419D02*
X184197762Y-113439800D01*
X184197762Y-113439800D02*
X184102524Y-113344561D01*
X184102524Y-113344561D02*
X184054905Y-113249323D01*
X184054905Y-113249323D02*
X184007286Y-113058847D01*
X184007286Y-113058847D02*
X184007286Y-112915990D01*
X184007286Y-112915990D02*
X184054905Y-112725514D01*
X184054905Y-112725514D02*
X184102524Y-112630276D01*
X184102524Y-112630276D02*
X184197762Y-112535038D01*
X184197762Y-112535038D02*
X184340619Y-112487419D01*
X184340619Y-112487419D02*
X184435857Y-112487419D01*
X184435857Y-112487419D02*
X184578714Y-112535038D01*
X184578714Y-112535038D02*
X184626333Y-112582657D01*
X185626333Y-113392180D02*
X185578714Y-113439800D01*
X185578714Y-113439800D02*
X185435857Y-113487419D01*
X185435857Y-113487419D02*
X185340619Y-113487419D01*
X185340619Y-113487419D02*
X185197762Y-113439800D01*
X185197762Y-113439800D02*
X185102524Y-113344561D01*
X185102524Y-113344561D02*
X185054905Y-113249323D01*
X185054905Y-113249323D02*
X185007286Y-113058847D01*
X185007286Y-113058847D02*
X185007286Y-112915990D01*
X185007286Y-112915990D02*
X185054905Y-112725514D01*
X185054905Y-112725514D02*
X185102524Y-112630276D01*
X185102524Y-112630276D02*
X185197762Y-112535038D01*
X185197762Y-112535038D02*
X185340619Y-112487419D01*
X185340619Y-112487419D02*
X185435857Y-112487419D01*
X185435857Y-112487419D02*
X185578714Y-112535038D01*
X185578714Y-112535038D02*
X185626333Y-112582657D01*
X186245381Y-112487419D02*
X186340619Y-112487419D01*
X186340619Y-112487419D02*
X186435857Y-112535038D01*
X186435857Y-112535038D02*
X186483476Y-112582657D01*
X186483476Y-112582657D02*
X186531095Y-112677895D01*
X186531095Y-112677895D02*
X186578714Y-112868371D01*
X186578714Y-112868371D02*
X186578714Y-113106466D01*
X186578714Y-113106466D02*
X186531095Y-113296942D01*
X186531095Y-113296942D02*
X186483476Y-113392180D01*
X186483476Y-113392180D02*
X186435857Y-113439800D01*
X186435857Y-113439800D02*
X186340619Y-113487419D01*
X186340619Y-113487419D02*
X186245381Y-113487419D01*
X186245381Y-113487419D02*
X186150143Y-113439800D01*
X186150143Y-113439800D02*
X186102524Y-113392180D01*
X186102524Y-113392180D02*
X186054905Y-113296942D01*
X186054905Y-113296942D02*
X186007286Y-113106466D01*
X186007286Y-113106466D02*
X186007286Y-112868371D01*
X186007286Y-112868371D02*
X186054905Y-112677895D01*
X186054905Y-112677895D02*
X186102524Y-112582657D01*
X186102524Y-112582657D02*
X186150143Y-112535038D01*
X186150143Y-112535038D02*
X186245381Y-112487419D01*
X217265333Y-63967180D02*
X217217714Y-64014800D01*
X217217714Y-64014800D02*
X217074857Y-64062419D01*
X217074857Y-64062419D02*
X216979619Y-64062419D01*
X216979619Y-64062419D02*
X216836762Y-64014800D01*
X216836762Y-64014800D02*
X216741524Y-63919561D01*
X216741524Y-63919561D02*
X216693905Y-63824323D01*
X216693905Y-63824323D02*
X216646286Y-63633847D01*
X216646286Y-63633847D02*
X216646286Y-63490990D01*
X216646286Y-63490990D02*
X216693905Y-63300514D01*
X216693905Y-63300514D02*
X216741524Y-63205276D01*
X216741524Y-63205276D02*
X216836762Y-63110038D01*
X216836762Y-63110038D02*
X216979619Y-63062419D01*
X216979619Y-63062419D02*
X217074857Y-63062419D01*
X217074857Y-63062419D02*
X217217714Y-63110038D01*
X217217714Y-63110038D02*
X217265333Y-63157657D01*
X218265333Y-63967180D02*
X218217714Y-64014800D01*
X218217714Y-64014800D02*
X218074857Y-64062419D01*
X218074857Y-64062419D02*
X217979619Y-64062419D01*
X217979619Y-64062419D02*
X217836762Y-64014800D01*
X217836762Y-64014800D02*
X217741524Y-63919561D01*
X217741524Y-63919561D02*
X217693905Y-63824323D01*
X217693905Y-63824323D02*
X217646286Y-63633847D01*
X217646286Y-63633847D02*
X217646286Y-63490990D01*
X217646286Y-63490990D02*
X217693905Y-63300514D01*
X217693905Y-63300514D02*
X217741524Y-63205276D01*
X217741524Y-63205276D02*
X217836762Y-63110038D01*
X217836762Y-63110038D02*
X217979619Y-63062419D01*
X217979619Y-63062419D02*
X218074857Y-63062419D01*
X218074857Y-63062419D02*
X218217714Y-63110038D01*
X218217714Y-63110038D02*
X218265333Y-63157657D01*
X218598667Y-63062419D02*
X219217714Y-63062419D01*
X219217714Y-63062419D02*
X218884381Y-63443371D01*
X218884381Y-63443371D02*
X219027238Y-63443371D01*
X219027238Y-63443371D02*
X219122476Y-63490990D01*
X219122476Y-63490990D02*
X219170095Y-63538609D01*
X219170095Y-63538609D02*
X219217714Y-63633847D01*
X219217714Y-63633847D02*
X219217714Y-63871942D01*
X219217714Y-63871942D02*
X219170095Y-63967180D01*
X219170095Y-63967180D02*
X219122476Y-64014800D01*
X219122476Y-64014800D02*
X219027238Y-64062419D01*
X219027238Y-64062419D02*
X218741524Y-64062419D01*
X218741524Y-64062419D02*
X218646286Y-64014800D01*
X218646286Y-64014800D02*
X218598667Y-63967180D01*
X217090761Y-58959180D02*
X217043142Y-59006800D01*
X217043142Y-59006800D02*
X216900285Y-59054419D01*
X216900285Y-59054419D02*
X216805047Y-59054419D01*
X216805047Y-59054419D02*
X216662190Y-59006800D01*
X216662190Y-59006800D02*
X216566952Y-58911561D01*
X216566952Y-58911561D02*
X216519333Y-58816323D01*
X216519333Y-58816323D02*
X216471714Y-58625847D01*
X216471714Y-58625847D02*
X216471714Y-58482990D01*
X216471714Y-58482990D02*
X216519333Y-58292514D01*
X216519333Y-58292514D02*
X216566952Y-58197276D01*
X216566952Y-58197276D02*
X216662190Y-58102038D01*
X216662190Y-58102038D02*
X216805047Y-58054419D01*
X216805047Y-58054419D02*
X216900285Y-58054419D01*
X216900285Y-58054419D02*
X217043142Y-58102038D01*
X217043142Y-58102038D02*
X217090761Y-58149657D01*
X218090761Y-58959180D02*
X218043142Y-59006800D01*
X218043142Y-59006800D02*
X217900285Y-59054419D01*
X217900285Y-59054419D02*
X217805047Y-59054419D01*
X217805047Y-59054419D02*
X217662190Y-59006800D01*
X217662190Y-59006800D02*
X217566952Y-58911561D01*
X217566952Y-58911561D02*
X217519333Y-58816323D01*
X217519333Y-58816323D02*
X217471714Y-58625847D01*
X217471714Y-58625847D02*
X217471714Y-58482990D01*
X217471714Y-58482990D02*
X217519333Y-58292514D01*
X217519333Y-58292514D02*
X217566952Y-58197276D01*
X217566952Y-58197276D02*
X217662190Y-58102038D01*
X217662190Y-58102038D02*
X217805047Y-58054419D01*
X217805047Y-58054419D02*
X217900285Y-58054419D01*
X217900285Y-58054419D02*
X218043142Y-58102038D01*
X218043142Y-58102038D02*
X218090761Y-58149657D01*
X218995523Y-59054419D02*
X218519333Y-59054419D01*
X218519333Y-59054419D02*
X218519333Y-58054419D01*
X219328857Y-59054419D02*
X219328857Y-58054419D01*
X219900285Y-59054419D02*
X219471714Y-58482990D01*
X219900285Y-58054419D02*
X219328857Y-58625847D01*
X225470782Y-117297419D02*
X225470782Y-116297419D01*
X225470782Y-116297419D02*
X225708877Y-116297419D01*
X225708877Y-116297419D02*
X225851734Y-116345038D01*
X225851734Y-116345038D02*
X225946972Y-116440276D01*
X225946972Y-116440276D02*
X225994591Y-116535514D01*
X225994591Y-116535514D02*
X226042210Y-116725990D01*
X226042210Y-116725990D02*
X226042210Y-116868847D01*
X226042210Y-116868847D02*
X225994591Y-117059323D01*
X225994591Y-117059323D02*
X225946972Y-117154561D01*
X225946972Y-117154561D02*
X225851734Y-117249800D01*
X225851734Y-117249800D02*
X225708877Y-117297419D01*
X225708877Y-117297419D02*
X225470782Y-117297419D01*
X226327925Y-116297419D02*
X226661258Y-117297419D01*
X226661258Y-117297419D02*
X226994591Y-116297419D01*
X227280306Y-117249800D02*
X227423163Y-117297419D01*
X227423163Y-117297419D02*
X227661258Y-117297419D01*
X227661258Y-117297419D02*
X227756496Y-117249800D01*
X227756496Y-117249800D02*
X227804115Y-117202180D01*
X227804115Y-117202180D02*
X227851734Y-117106942D01*
X227851734Y-117106942D02*
X227851734Y-117011704D01*
X227851734Y-117011704D02*
X227804115Y-116916466D01*
X227804115Y-116916466D02*
X227756496Y-116868847D01*
X227756496Y-116868847D02*
X227661258Y-116821228D01*
X227661258Y-116821228D02*
X227470782Y-116773609D01*
X227470782Y-116773609D02*
X227375544Y-116725990D01*
X227375544Y-116725990D02*
X227327925Y-116678371D01*
X227327925Y-116678371D02*
X227280306Y-116583133D01*
X227280306Y-116583133D02*
X227280306Y-116487895D01*
X227280306Y-116487895D02*
X227327925Y-116392657D01*
X227327925Y-116392657D02*
X227375544Y-116345038D01*
X227375544Y-116345038D02*
X227470782Y-116297419D01*
X227470782Y-116297419D02*
X227708877Y-116297419D01*
X227708877Y-116297419D02*
X227851734Y-116345038D01*
X228280306Y-117297419D02*
X228280306Y-116297419D01*
X228280306Y-116297419D02*
X228661258Y-116297419D01*
X228661258Y-116297419D02*
X228756496Y-116345038D01*
X228756496Y-116345038D02*
X228804115Y-116392657D01*
X228804115Y-116392657D02*
X228851734Y-116487895D01*
X228851734Y-116487895D02*
X228851734Y-116630752D01*
X228851734Y-116630752D02*
X228804115Y-116725990D01*
X228804115Y-116725990D02*
X228756496Y-116773609D01*
X228756496Y-116773609D02*
X228661258Y-116821228D01*
X228661258Y-116821228D02*
X228280306Y-116821228D01*
D11*
X154394819Y-63099523D02*
X155109104Y-63099523D01*
X155109104Y-63099523D02*
X155251961Y-63147142D01*
X155251961Y-63147142D02*
X155347200Y-63242380D01*
X155347200Y-63242380D02*
X155394819Y-63385237D01*
X155394819Y-63385237D02*
X155394819Y-63480475D01*
X155394819Y-62099523D02*
X155394819Y-62670951D01*
X155394819Y-62385237D02*
X154394819Y-62385237D01*
X154394819Y-62385237D02*
X154537676Y-62480475D01*
X154537676Y-62480475D02*
X154632914Y-62575713D01*
X154632914Y-62575713D02*
X154680533Y-62670951D01*
X154394819Y-61242380D02*
X154394819Y-61432856D01*
X154394819Y-61432856D02*
X154442438Y-61528094D01*
X154442438Y-61528094D02*
X154490057Y-61575713D01*
X154490057Y-61575713D02*
X154632914Y-61670951D01*
X154632914Y-61670951D02*
X154823390Y-61718570D01*
X154823390Y-61718570D02*
X155204342Y-61718570D01*
X155204342Y-61718570D02*
X155299580Y-61670951D01*
X155299580Y-61670951D02*
X155347200Y-61623332D01*
X155347200Y-61623332D02*
X155394819Y-61528094D01*
X155394819Y-61528094D02*
X155394819Y-61337618D01*
X155394819Y-61337618D02*
X155347200Y-61242380D01*
X155347200Y-61242380D02*
X155299580Y-61194761D01*
X155299580Y-61194761D02*
X155204342Y-61147142D01*
X155204342Y-61147142D02*
X154966247Y-61147142D01*
X154966247Y-61147142D02*
X154871009Y-61194761D01*
X154871009Y-61194761D02*
X154823390Y-61242380D01*
X154823390Y-61242380D02*
X154775771Y-61337618D01*
X154775771Y-61337618D02*
X154775771Y-61528094D01*
X154775771Y-61528094D02*
X154823390Y-61623332D01*
X154823390Y-61623332D02*
X154871009Y-61670951D01*
X154871009Y-61670951D02*
X154966247Y-61718570D01*
X146713339Y-76665895D02*
X146237149Y-76665895D01*
X146808577Y-76380180D02*
X146475244Y-77380180D01*
X146475244Y-77380180D02*
X146141911Y-76380180D01*
X145856196Y-77284942D02*
X145808577Y-77332561D01*
X145808577Y-77332561D02*
X145713339Y-77380180D01*
X145713339Y-77380180D02*
X145475244Y-77380180D01*
X145475244Y-77380180D02*
X145380006Y-77332561D01*
X145380006Y-77332561D02*
X145332387Y-77284942D01*
X145332387Y-77284942D02*
X145284768Y-77189704D01*
X145284768Y-77189704D02*
X145284768Y-77094466D01*
X145284768Y-77094466D02*
X145332387Y-76951609D01*
X145332387Y-76951609D02*
X145903815Y-76380180D01*
X145903815Y-76380180D02*
X145284768Y-76380180D01*
X203708095Y-76154819D02*
X203708095Y-76964342D01*
X203708095Y-76964342D02*
X203755714Y-77059580D01*
X203755714Y-77059580D02*
X203803333Y-77107200D01*
X203803333Y-77107200D02*
X203898571Y-77154819D01*
X203898571Y-77154819D02*
X204089047Y-77154819D01*
X204089047Y-77154819D02*
X204184285Y-77107200D01*
X204184285Y-77107200D02*
X204231904Y-77059580D01*
X204231904Y-77059580D02*
X204279523Y-76964342D01*
X204279523Y-76964342D02*
X204279523Y-76154819D01*
X204708095Y-76250057D02*
X204755714Y-76202438D01*
X204755714Y-76202438D02*
X204850952Y-76154819D01*
X204850952Y-76154819D02*
X205089047Y-76154819D01*
X205089047Y-76154819D02*
X205184285Y-76202438D01*
X205184285Y-76202438D02*
X205231904Y-76250057D01*
X205231904Y-76250057D02*
X205279523Y-76345295D01*
X205279523Y-76345295D02*
X205279523Y-76440533D01*
X205279523Y-76440533D02*
X205231904Y-76583390D01*
X205231904Y-76583390D02*
X204660476Y-77154819D01*
X204660476Y-77154819D02*
X205279523Y-77154819D01*
X203708095Y-125684819D02*
X203708095Y-126494342D01*
X203708095Y-126494342D02*
X203755714Y-126589580D01*
X203755714Y-126589580D02*
X203803333Y-126637200D01*
X203803333Y-126637200D02*
X203898571Y-126684819D01*
X203898571Y-126684819D02*
X204089047Y-126684819D01*
X204089047Y-126684819D02*
X204184285Y-126637200D01*
X204184285Y-126637200D02*
X204231904Y-126589580D01*
X204231904Y-126589580D02*
X204279523Y-126494342D01*
X204279523Y-126494342D02*
X204279523Y-125684819D01*
X205231904Y-125684819D02*
X204755714Y-125684819D01*
X204755714Y-125684819D02*
X204708095Y-126161009D01*
X204708095Y-126161009D02*
X204755714Y-126113390D01*
X204755714Y-126113390D02*
X204850952Y-126065771D01*
X204850952Y-126065771D02*
X205089047Y-126065771D01*
X205089047Y-126065771D02*
X205184285Y-126113390D01*
X205184285Y-126113390D02*
X205231904Y-126161009D01*
X205231904Y-126161009D02*
X205279523Y-126256247D01*
X205279523Y-126256247D02*
X205279523Y-126494342D01*
X205279523Y-126494342D02*
X205231904Y-126589580D01*
X205231904Y-126589580D02*
X205184285Y-126637200D01*
X205184285Y-126637200D02*
X205089047Y-126684819D01*
X205089047Y-126684819D02*
X204850952Y-126684819D01*
X204850952Y-126684819D02*
X204755714Y-126637200D01*
X204755714Y-126637200D02*
X204708095Y-126589580D01*
X203708095Y-92664819D02*
X203708095Y-93474342D01*
X203708095Y-93474342D02*
X203755714Y-93569580D01*
X203755714Y-93569580D02*
X203803333Y-93617200D01*
X203803333Y-93617200D02*
X203898571Y-93664819D01*
X203898571Y-93664819D02*
X204089047Y-93664819D01*
X204089047Y-93664819D02*
X204184285Y-93617200D01*
X204184285Y-93617200D02*
X204231904Y-93569580D01*
X204231904Y-93569580D02*
X204279523Y-93474342D01*
X204279523Y-93474342D02*
X204279523Y-92664819D01*
X204660476Y-92664819D02*
X205279523Y-92664819D01*
X205279523Y-92664819D02*
X204946190Y-93045771D01*
X204946190Y-93045771D02*
X205089047Y-93045771D01*
X205089047Y-93045771D02*
X205184285Y-93093390D01*
X205184285Y-93093390D02*
X205231904Y-93141009D01*
X205231904Y-93141009D02*
X205279523Y-93236247D01*
X205279523Y-93236247D02*
X205279523Y-93474342D01*
X205279523Y-93474342D02*
X205231904Y-93569580D01*
X205231904Y-93569580D02*
X205184285Y-93617200D01*
X205184285Y-93617200D02*
X205089047Y-93664819D01*
X205089047Y-93664819D02*
X204803333Y-93664819D01*
X204803333Y-93664819D02*
X204708095Y-93617200D01*
X204708095Y-93617200D02*
X204660476Y-93569580D01*
X203708095Y-142194819D02*
X203708095Y-143004342D01*
X203708095Y-143004342D02*
X203755714Y-143099580D01*
X203755714Y-143099580D02*
X203803333Y-143147200D01*
X203803333Y-143147200D02*
X203898571Y-143194819D01*
X203898571Y-143194819D02*
X204089047Y-143194819D01*
X204089047Y-143194819D02*
X204184285Y-143147200D01*
X204184285Y-143147200D02*
X204231904Y-143099580D01*
X204231904Y-143099580D02*
X204279523Y-143004342D01*
X204279523Y-143004342D02*
X204279523Y-142194819D01*
X205184285Y-142194819D02*
X204993809Y-142194819D01*
X204993809Y-142194819D02*
X204898571Y-142242438D01*
X204898571Y-142242438D02*
X204850952Y-142290057D01*
X204850952Y-142290057D02*
X204755714Y-142432914D01*
X204755714Y-142432914D02*
X204708095Y-142623390D01*
X204708095Y-142623390D02*
X204708095Y-143004342D01*
X204708095Y-143004342D02*
X204755714Y-143099580D01*
X204755714Y-143099580D02*
X204803333Y-143147200D01*
X204803333Y-143147200D02*
X204898571Y-143194819D01*
X204898571Y-143194819D02*
X205089047Y-143194819D01*
X205089047Y-143194819D02*
X205184285Y-143147200D01*
X205184285Y-143147200D02*
X205231904Y-143099580D01*
X205231904Y-143099580D02*
X205279523Y-143004342D01*
X205279523Y-143004342D02*
X205279523Y-142766247D01*
X205279523Y-142766247D02*
X205231904Y-142671009D01*
X205231904Y-142671009D02*
X205184285Y-142623390D01*
X205184285Y-142623390D02*
X205089047Y-142575771D01*
X205089047Y-142575771D02*
X204898571Y-142575771D01*
X204898571Y-142575771D02*
X204803333Y-142623390D01*
X204803333Y-142623390D02*
X204755714Y-142671009D01*
X204755714Y-142671009D02*
X204708095Y-142766247D01*
X203708095Y-109174819D02*
X203708095Y-109984342D01*
X203708095Y-109984342D02*
X203755714Y-110079580D01*
X203755714Y-110079580D02*
X203803333Y-110127200D01*
X203803333Y-110127200D02*
X203898571Y-110174819D01*
X203898571Y-110174819D02*
X204089047Y-110174819D01*
X204089047Y-110174819D02*
X204184285Y-110127200D01*
X204184285Y-110127200D02*
X204231904Y-110079580D01*
X204231904Y-110079580D02*
X204279523Y-109984342D01*
X204279523Y-109984342D02*
X204279523Y-109174819D01*
X205184285Y-109508152D02*
X205184285Y-110174819D01*
X204946190Y-109127200D02*
X204708095Y-109841485D01*
X204708095Y-109841485D02*
X205327142Y-109841485D01*
X203708095Y-59644819D02*
X203708095Y-60454342D01*
X203708095Y-60454342D02*
X203755714Y-60549580D01*
X203755714Y-60549580D02*
X203803333Y-60597200D01*
X203803333Y-60597200D02*
X203898571Y-60644819D01*
X203898571Y-60644819D02*
X204089047Y-60644819D01*
X204089047Y-60644819D02*
X204184285Y-60597200D01*
X204184285Y-60597200D02*
X204231904Y-60549580D01*
X204231904Y-60549580D02*
X204279523Y-60454342D01*
X204279523Y-60454342D02*
X204279523Y-59644819D01*
X205279523Y-60644819D02*
X204708095Y-60644819D01*
X204993809Y-60644819D02*
X204993809Y-59644819D01*
X204993809Y-59644819D02*
X204898571Y-59787676D01*
X204898571Y-59787676D02*
X204803333Y-59882914D01*
X204803333Y-59882914D02*
X204708095Y-59930533D01*
D12*
%TO.C,J19*%
X115460000Y-139590000D02*
X116840000Y-139590000D01*
X115460000Y-140970000D02*
X115460000Y-139590000D01*
X115460000Y-142240000D02*
X115460000Y-144890000D01*
X115460000Y-142240000D02*
X118220000Y-142240000D01*
X115460000Y-144890000D02*
X118220000Y-144890000D01*
X118220000Y-142240000D02*
X118220000Y-144890000D01*
%TO.C,J18*%
X135780000Y-139590000D02*
X137160000Y-139590000D01*
X135780000Y-140970000D02*
X135780000Y-139590000D01*
X135780000Y-142240000D02*
X135780000Y-144890000D01*
X135780000Y-142240000D02*
X138540000Y-142240000D01*
X135780000Y-144890000D02*
X138540000Y-144890000D01*
X138540000Y-142240000D02*
X138540000Y-144890000D01*
%TO.C,J17*%
X161400000Y-68470000D02*
X161400000Y-69850000D01*
X160020000Y-68470000D02*
X161400000Y-68470000D01*
X158750000Y-68470000D02*
X156100000Y-68470000D01*
X158750000Y-68470000D02*
X158750000Y-71230000D01*
X156100000Y-68470000D02*
X156100000Y-71230000D01*
X158750000Y-71230000D02*
X156100000Y-71230000D01*
D13*
%TO.C,J16*%
X157690000Y-56540000D02*
G75*
G02*
X157490000Y-56540000I-100000J0D01*
G01*
X157490000Y-56540000D02*
G75*
G02*
X157690000Y-56540000I100000J0D01*
G01*
D14*
X153590000Y-67290000D02*
X163590000Y-67290000D01*
X163590000Y-67290000D02*
X163590000Y-57290000D01*
X153590000Y-57290000D02*
X153590000Y-67290000D01*
X163590000Y-57290000D02*
X153590000Y-57290000D01*
D12*
%TO.C,JP15*%
X134505000Y-80310000D02*
X134505000Y-79710000D01*
X135205000Y-79010000D02*
X136605000Y-79010000D01*
X136605000Y-81010000D02*
X135205000Y-81010000D01*
X137305000Y-79710000D02*
X137305000Y-80310000D01*
X134505000Y-79710000D02*
G75*
G02*
X135205000Y-79010000I700000J0D01*
G01*
X135205000Y-81010000D02*
G75*
G02*
X134505000Y-80310000I0J700000D01*
G01*
X136605000Y-79010000D02*
G75*
G02*
X137305000Y-79710000I1J-699999D01*
G01*
X137305000Y-80310000D02*
G75*
G02*
X136605000Y-81010000I-699999J-1D01*
G01*
%TO.C,J8*%
X192930000Y-128270000D02*
X192930000Y-120540000D01*
X195690000Y-120540000D02*
X192930000Y-120540000D01*
X195690000Y-128270000D02*
X192930000Y-128270000D01*
X195690000Y-128270000D02*
X195690000Y-120540000D01*
X195690000Y-129540000D02*
X195690000Y-130920000D01*
X195690000Y-130920000D02*
X194310000Y-130920000D01*
%TO.C,A2*%
X148140000Y-78950000D02*
X148140000Y-78530000D01*
X148140000Y-81490000D02*
X148140000Y-81070000D01*
X148140000Y-84030000D02*
X148140000Y-83610000D01*
X148140000Y-86570000D02*
X148140000Y-86150000D01*
X148140000Y-89110000D02*
X148140000Y-88690000D01*
X148140000Y-91650000D02*
X148140000Y-91230000D01*
X148140000Y-94190000D02*
X148140000Y-93770000D01*
X148140000Y-96730000D02*
X148140000Y-96310000D01*
X148140000Y-99270000D02*
X148140000Y-98850000D01*
X148140000Y-101810000D02*
X148140000Y-101390000D01*
X148140000Y-104350000D02*
X148140000Y-103930000D01*
X148140000Y-106890000D02*
X148140000Y-106470000D01*
X148140000Y-109430000D02*
X148140000Y-109010000D01*
X148140000Y-111970000D02*
X148140000Y-111550000D01*
X148140000Y-114510000D02*
X148140000Y-114090000D01*
X148140000Y-117050000D02*
X148140000Y-116630000D01*
X148140000Y-119590000D02*
X148140000Y-119170000D01*
X148140000Y-122130000D02*
X148140000Y-121710000D01*
X148140000Y-124670000D02*
X148140000Y-124250000D01*
X148480000Y-76410063D02*
X148480000Y-76053000D01*
X148480000Y-78950000D02*
X148480000Y-78530000D01*
X148480000Y-81490000D02*
X148480000Y-81070000D01*
X148480000Y-84030000D02*
X148480000Y-83610000D01*
X148480000Y-86570000D02*
X148480000Y-86150000D01*
X148480000Y-89110000D02*
X148480000Y-88690000D01*
X148480000Y-91650000D02*
X148480000Y-91230000D01*
X148480000Y-94190000D02*
X148480000Y-93770000D01*
X148480000Y-96730000D02*
X148480000Y-96310000D01*
X148480000Y-99270000D02*
X148480000Y-98850000D01*
X148480000Y-101810000D02*
X148480000Y-101390000D01*
X148480000Y-104350000D02*
X148480000Y-103930000D01*
X148480000Y-106890000D02*
X148480000Y-106470000D01*
X148480000Y-109430000D02*
X148480000Y-109010000D01*
X148480000Y-111970000D02*
X148480000Y-111550000D01*
X148480000Y-114510000D02*
X148480000Y-114090000D01*
X148480000Y-117050000D02*
X148480000Y-116630000D01*
X148480000Y-119590000D02*
X148480000Y-119170000D01*
X148480000Y-122130000D02*
X148480000Y-121710000D01*
X148480000Y-124670000D02*
X148480000Y-124250000D01*
X148480000Y-126789937D02*
X148480000Y-127147000D01*
X148750000Y-127210000D02*
X151240000Y-127210000D01*
X151240000Y-76903520D02*
X151240000Y-75990000D01*
X151240000Y-123903520D02*
X151240000Y-79296480D01*
X151240000Y-127210000D02*
X151240000Y-126296480D01*
X152587939Y-75990000D02*
X148750000Y-75990000D01*
X152587939Y-127210000D02*
X151240000Y-127210000D01*
X153512061Y-75990000D02*
X155150000Y-75990000D01*
X154515000Y-127210000D02*
X153512061Y-127210000D01*
X154850000Y-123906000D02*
X154850000Y-122690000D01*
X154850000Y-127210000D02*
X154850000Y-126294000D01*
X155146090Y-122690000D02*
X154850000Y-122690000D01*
X155150000Y-75990000D02*
X162350000Y-75990000D01*
X159996090Y-122690000D02*
X157503910Y-122690000D01*
X162350000Y-75990000D02*
X163987939Y-75990000D01*
X162650000Y-122690000D02*
X162353910Y-122690000D01*
X162650000Y-123906000D02*
X162650000Y-122690000D01*
X162650000Y-127210000D02*
X162650000Y-126294000D01*
X162985000Y-127210000D02*
X154515000Y-127210000D01*
X163987939Y-127210000D02*
X162985000Y-127210000D01*
X166260000Y-76903520D02*
X166260000Y-75990000D01*
X166260000Y-123903520D02*
X166260000Y-79296480D01*
X166260000Y-127210000D02*
X164912060Y-127210000D01*
X166260000Y-127210000D02*
X166260000Y-126296480D01*
X168750000Y-75990000D02*
X164912061Y-75990000D01*
X168750000Y-127210000D02*
X166260000Y-127210000D01*
X169020000Y-76410063D02*
X169020000Y-76053000D01*
X169020000Y-78950000D02*
X169020000Y-78530000D01*
X169020000Y-81490000D02*
X169020000Y-81070000D01*
X169020000Y-84030000D02*
X169020000Y-83610000D01*
X169020000Y-86570000D02*
X169020000Y-86150000D01*
X169020000Y-89110000D02*
X169020000Y-88690000D01*
X169020000Y-91650000D02*
X169020000Y-91230000D01*
X169020000Y-94190000D02*
X169020000Y-93770000D01*
X169020000Y-96730000D02*
X169020000Y-96310000D01*
X169020000Y-99270000D02*
X169020000Y-98850000D01*
X169020000Y-101810000D02*
X169020000Y-101390000D01*
X169020000Y-104350000D02*
X169020000Y-103930000D01*
X169020000Y-106890000D02*
X169020000Y-106470000D01*
X169020000Y-109430000D02*
X169020000Y-109010000D01*
X169020000Y-111970000D02*
X169020000Y-111550000D01*
X169020000Y-114510000D02*
X169020000Y-114090000D01*
X169020000Y-117050000D02*
X169020000Y-116630000D01*
X169020000Y-119590000D02*
X169020000Y-119170000D01*
X169020000Y-122130000D02*
X169020000Y-121710000D01*
X169020000Y-124670000D02*
X169020000Y-124250000D01*
X169020000Y-126789937D02*
X169020000Y-127147000D01*
X169329676Y-126790000D02*
X169840000Y-126790000D01*
X169360000Y-78950000D02*
X169360000Y-78530000D01*
X169360000Y-81490000D02*
X169360000Y-81070000D01*
X169360000Y-84030000D02*
X169360000Y-83610000D01*
X169360000Y-86570000D02*
X169360000Y-86150000D01*
X169360000Y-89110000D02*
X169360000Y-88690000D01*
X169360000Y-91650000D02*
X169360000Y-91230000D01*
X169360000Y-94190000D02*
X169360000Y-93770000D01*
X169360000Y-96730000D02*
X169360000Y-96310000D01*
X169360000Y-99270000D02*
X169360000Y-98850000D01*
X169360000Y-101810000D02*
X169360000Y-101390000D01*
X169360000Y-104350000D02*
X169360000Y-103930000D01*
X169360000Y-106890000D02*
X169360000Y-106470000D01*
X169360000Y-109430000D02*
X169360000Y-109010000D01*
X169360000Y-111970000D02*
X169360000Y-111550000D01*
X169360000Y-114510000D02*
X169360000Y-114090000D01*
X169360000Y-117050000D02*
X169360000Y-116630000D01*
X169360000Y-119590000D02*
X169360000Y-119170000D01*
X169360000Y-122130000D02*
X169360000Y-121710000D01*
X169360000Y-124670000D02*
X169360000Y-124250000D01*
X169360000Y-124670000D02*
X169840000Y-124670000D01*
X148170324Y-76410063D02*
G75*
G02*
X148750000Y-75989931I579676J-189837D01*
G01*
X148750000Y-127210000D02*
G75*
G02*
X148170324Y-126789937I0J610000D01*
G01*
X168750000Y-75990000D02*
G75*
G02*
X169329676Y-76410063I-1J-610002D01*
G01*
X169329676Y-126790000D02*
G75*
G02*
X168750000Y-127210000I-579692J190051D01*
G01*
%TO.C,J13*%
X213250000Y-128270000D02*
X213250000Y-120540000D01*
X216010000Y-120540000D02*
X213250000Y-120540000D01*
X216010000Y-128270000D02*
X213250000Y-128270000D01*
X216010000Y-128270000D02*
X216010000Y-120540000D01*
X216010000Y-129540000D02*
X216010000Y-130920000D01*
X216010000Y-130920000D02*
X214630000Y-130920000D01*
%TO.C,JP9*%
X180210000Y-93010000D02*
X180210000Y-92410000D01*
X180910000Y-91710000D02*
X182310000Y-91710000D01*
X182310000Y-93710000D02*
X180910000Y-93710000D01*
X183010000Y-92410000D02*
X183010000Y-93010000D01*
X180210000Y-92410000D02*
G75*
G02*
X180910000Y-91710000I700000J0D01*
G01*
X180910000Y-93710000D02*
G75*
G02*
X180210000Y-93010000I0J700000D01*
G01*
X182310000Y-91710000D02*
G75*
G02*
X183010000Y-92410000I1J-699999D01*
G01*
X183010000Y-93010000D02*
G75*
G02*
X182310000Y-93710000I-699999J-1D01*
G01*
%TO.C,JP2*%
X180210000Y-115870000D02*
X180210000Y-115270000D01*
X180910000Y-114570000D02*
X182310000Y-114570000D01*
X182310000Y-116570000D02*
X180910000Y-116570000D01*
X183010000Y-115270000D02*
X183010000Y-115870000D01*
X180210000Y-115270000D02*
G75*
G02*
X180910000Y-114570000I700000J0D01*
G01*
X180910000Y-116570000D02*
G75*
G02*
X180210000Y-115870000I0J700000D01*
G01*
X182310000Y-114570000D02*
G75*
G02*
X183010000Y-115270000I1J-699999D01*
G01*
X183010000Y-115870000D02*
G75*
G02*
X182310000Y-116570000I-699999J-1D01*
G01*
%TO.C,JP3*%
X180210000Y-113330000D02*
X180210000Y-112730000D01*
X180910000Y-112030000D02*
X182310000Y-112030000D01*
X182310000Y-114030000D02*
X180910000Y-114030000D01*
X183010000Y-112730000D02*
X183010000Y-113330000D01*
X180210000Y-112730000D02*
G75*
G02*
X180910000Y-112030000I700000J0D01*
G01*
X180910000Y-114030000D02*
G75*
G02*
X180210000Y-113330000I0J700000D01*
G01*
X182310000Y-112030000D02*
G75*
G02*
X183010000Y-112730000I1J-699999D01*
G01*
X183010000Y-113330000D02*
G75*
G02*
X182310000Y-114030000I-699999J-1D01*
G01*
%TO.C,JP7*%
X180210000Y-100630000D02*
X180210000Y-100030000D01*
X180910000Y-99330000D02*
X182310000Y-99330000D01*
X182310000Y-101330000D02*
X180910000Y-101330000D01*
X183010000Y-100030000D02*
X183010000Y-100630000D01*
X180210000Y-100030000D02*
G75*
G02*
X180910000Y-99330000I700000J0D01*
G01*
X180910000Y-101330000D02*
G75*
G02*
X180210000Y-100630000I0J700000D01*
G01*
X182310000Y-99330000D02*
G75*
G02*
X183010000Y-100030000I1J-699999D01*
G01*
X183010000Y-100630000D02*
G75*
G02*
X182310000Y-101330000I-699999J-1D01*
G01*
%TO.C,J12*%
X213250000Y-78740000D02*
X213250000Y-71010000D01*
X216010000Y-71010000D02*
X213250000Y-71010000D01*
X216010000Y-78740000D02*
X213250000Y-78740000D01*
X216010000Y-78740000D02*
X216010000Y-71010000D01*
X216010000Y-80010000D02*
X216010000Y-81390000D01*
X216010000Y-81390000D02*
X214630000Y-81390000D01*
%TO.C,J15*%
X213250000Y-111760000D02*
X213250000Y-104030000D01*
X216010000Y-104030000D02*
X213250000Y-104030000D01*
X216010000Y-111760000D02*
X213250000Y-111760000D01*
X216010000Y-111760000D02*
X216010000Y-104030000D01*
X216010000Y-113030000D02*
X216010000Y-114410000D01*
X216010000Y-114410000D02*
X214630000Y-114410000D01*
%TO.C,J9*%
X192930000Y-144780000D02*
X192930000Y-137050000D01*
X195690000Y-137050000D02*
X192930000Y-137050000D01*
X195690000Y-144780000D02*
X192930000Y-144780000D01*
X195690000Y-144780000D02*
X195690000Y-137050000D01*
X195690000Y-146050000D02*
X195690000Y-147430000D01*
X195690000Y-147430000D02*
X194310000Y-147430000D01*
%TO.C,JP17*%
X134505000Y-85390000D02*
X134505000Y-84790000D01*
X135205000Y-84090000D02*
X136605000Y-84090000D01*
X136605000Y-86090000D02*
X135205000Y-86090000D01*
X137305000Y-84790000D02*
X137305000Y-85390000D01*
X134505000Y-84790000D02*
G75*
G02*
X135205000Y-84090000I700000J0D01*
G01*
X135205000Y-86090000D02*
G75*
G02*
X134505000Y-85390000I0J700000D01*
G01*
X136605000Y-84090000D02*
G75*
G02*
X137305000Y-84790000I1J-699999D01*
G01*
X137305000Y-85390000D02*
G75*
G02*
X136605000Y-86090000I-699999J-1D01*
G01*
%TO.C,U2*%
X198120000Y-68580000D02*
X210820000Y-68580000D01*
X198120000Y-83820000D02*
X198120000Y-68580000D01*
X210820000Y-68580000D02*
X210820000Y-83820000D01*
X210820000Y-83820000D02*
X198120000Y-83820000D01*
%TO.C,JP5*%
X180210000Y-105710000D02*
X180210000Y-105110000D01*
X180910000Y-104410000D02*
X182310000Y-104410000D01*
X182310000Y-106410000D02*
X180910000Y-106410000D01*
X183010000Y-105110000D02*
X183010000Y-105710000D01*
X180210000Y-105110000D02*
G75*
G02*
X180910000Y-104410000I700000J0D01*
G01*
X180910000Y-106410000D02*
G75*
G02*
X180210000Y-105710000I0J700000D01*
G01*
X182310000Y-104410000D02*
G75*
G02*
X183010000Y-105110000I1J-699999D01*
G01*
X183010000Y-105710000D02*
G75*
G02*
X182310000Y-106410000I-699999J-1D01*
G01*
%TO.C,J2*%
X192930000Y-62230000D02*
X192930000Y-54500000D01*
X195690000Y-54500000D02*
X192930000Y-54500000D01*
X195690000Y-62230000D02*
X192930000Y-62230000D01*
X195690000Y-62230000D02*
X195690000Y-54500000D01*
X195690000Y-63500000D02*
X195690000Y-64880000D01*
X195690000Y-64880000D02*
X194310000Y-64880000D01*
%TO.C,JP16*%
X134490000Y-77770000D02*
X134490000Y-77170000D01*
X135190000Y-76470000D02*
X136590000Y-76470000D01*
X136590000Y-78470000D02*
X135190000Y-78470000D01*
X137290000Y-77170000D02*
X137290000Y-77770000D01*
X134490000Y-77170000D02*
G75*
G02*
X135190000Y-76470000I700000J0D01*
G01*
X135190000Y-78470000D02*
G75*
G02*
X134490000Y-77770000I0J700000D01*
G01*
X136590000Y-76470000D02*
G75*
G02*
X137290000Y-77170000I1J-699999D01*
G01*
X137290000Y-77770000D02*
G75*
G02*
X136590000Y-78470000I-699999J-1D01*
G01*
%TO.C,J14*%
X213250000Y-95250000D02*
X213250000Y-87520000D01*
X216010000Y-87520000D02*
X213250000Y-87520000D01*
X216010000Y-95250000D02*
X213250000Y-95250000D01*
X216010000Y-95250000D02*
X216010000Y-87520000D01*
X216010000Y-96520000D02*
X216010000Y-97900000D01*
X216010000Y-97900000D02*
X214630000Y-97900000D01*
%TO.C,JP8*%
X180210000Y-98090000D02*
X180210000Y-97490000D01*
X180910000Y-96790000D02*
X182310000Y-96790000D01*
X182310000Y-98790000D02*
X180910000Y-98790000D01*
X183010000Y-97490000D02*
X183010000Y-98090000D01*
X180210000Y-97490000D02*
G75*
G02*
X180910000Y-96790000I700000J0D01*
G01*
X180910000Y-98790000D02*
G75*
G02*
X180210000Y-98090000I0J700000D01*
G01*
X182310000Y-96790000D02*
G75*
G02*
X183010000Y-97490000I1J-699999D01*
G01*
X183010000Y-98090000D02*
G75*
G02*
X182310000Y-98790000I-699999J-1D01*
G01*
%TO.C,SW1*%
X166640000Y-131660000D02*
X166640000Y-136160000D01*
X169140000Y-137410000D02*
X170640000Y-137410000D01*
X170640000Y-130410000D02*
X169140000Y-130410000D01*
X173140000Y-136160000D02*
X173140000Y-131660000D01*
%TO.C,J6*%
X192930000Y-95250000D02*
X192930000Y-87520000D01*
X195690000Y-87520000D02*
X192930000Y-87520000D01*
X195690000Y-95250000D02*
X192930000Y-95250000D01*
X195690000Y-95250000D02*
X195690000Y-87520000D01*
X195690000Y-96520000D02*
X195690000Y-97900000D01*
X195690000Y-97900000D02*
X194310000Y-97900000D01*
%TO.C,J11*%
X213250000Y-144780000D02*
X213250000Y-137050000D01*
X216010000Y-137050000D02*
X213250000Y-137050000D01*
X216010000Y-144780000D02*
X213250000Y-144780000D01*
X216010000Y-144780000D02*
X216010000Y-137050000D01*
X216010000Y-146050000D02*
X216010000Y-147430000D01*
X216010000Y-147430000D02*
X214630000Y-147430000D01*
%TO.C,JP1*%
X180210000Y-118410000D02*
X180210000Y-117810000D01*
X180910000Y-117110000D02*
X182310000Y-117110000D01*
X182310000Y-119110000D02*
X180910000Y-119110000D01*
X183010000Y-117810000D02*
X183010000Y-118410000D01*
X180210000Y-117810000D02*
G75*
G02*
X180910000Y-117110000I700000J0D01*
G01*
X180910000Y-119110000D02*
G75*
G02*
X180210000Y-118410000I0J700000D01*
G01*
X182310000Y-117110000D02*
G75*
G02*
X183010000Y-117810000I1J-699999D01*
G01*
X183010000Y-118410000D02*
G75*
G02*
X182310000Y-119110000I-699999J-1D01*
G01*
%TO.C,JP13*%
X180210000Y-80310000D02*
X180210000Y-79710000D01*
X180910000Y-79010000D02*
X182310000Y-79010000D01*
X182310000Y-81010000D02*
X180910000Y-81010000D01*
X183010000Y-79710000D02*
X183010000Y-80310000D01*
X180210000Y-79710000D02*
G75*
G02*
X180910000Y-79010000I700000J0D01*
G01*
X180910000Y-81010000D02*
G75*
G02*
X180210000Y-80310000I0J700000D01*
G01*
X182310000Y-79010000D02*
G75*
G02*
X183010000Y-79710000I1J-699999D01*
G01*
X183010000Y-80310000D02*
G75*
G02*
X182310000Y-81010000I-699999J-1D01*
G01*
%TO.C,JP11*%
X180225000Y-87930000D02*
X180225000Y-87330000D01*
X180925000Y-86630000D02*
X182325000Y-86630000D01*
X182325000Y-88630000D02*
X180925000Y-88630000D01*
X183025000Y-87330000D02*
X183025000Y-87930000D01*
X180225000Y-87330000D02*
G75*
G02*
X180925000Y-86630000I700000J0D01*
G01*
X180925000Y-88630000D02*
G75*
G02*
X180225000Y-87930000I0J700000D01*
G01*
X182325000Y-86630000D02*
G75*
G02*
X183025000Y-87330000I1J-699999D01*
G01*
X183025000Y-87930000D02*
G75*
G02*
X182325000Y-88630000I-699999J-1D01*
G01*
%TO.C,J7*%
X192930000Y-111760000D02*
X192930000Y-104030000D01*
X195690000Y-104030000D02*
X192930000Y-104030000D01*
X195690000Y-111760000D02*
X192930000Y-111760000D01*
X195690000Y-111760000D02*
X195690000Y-104030000D01*
X195690000Y-113030000D02*
X195690000Y-114410000D01*
X195690000Y-114410000D02*
X194310000Y-114410000D01*
%TO.C,J5*%
X173880000Y-127110000D02*
X173880000Y-76090000D01*
X176530000Y-124460000D02*
X176530000Y-127110000D01*
X176530000Y-127110000D02*
X173880000Y-127110000D01*
X179180000Y-76090000D02*
X173880000Y-76090000D01*
X179180000Y-124460000D02*
X176530000Y-124460000D01*
X179180000Y-124460000D02*
X179180000Y-76090000D01*
X179180000Y-125730000D02*
X179180000Y-127110000D01*
X179180000Y-127110000D02*
X177800000Y-127110000D01*
%TO.C,JP4*%
X180210000Y-110790000D02*
X180210000Y-110190000D01*
X180910000Y-109490000D02*
X182310000Y-109490000D01*
X182310000Y-111490000D02*
X180910000Y-111490000D01*
X183010000Y-110190000D02*
X183010000Y-110790000D01*
X180210000Y-110190000D02*
G75*
G02*
X180910000Y-109490000I700000J0D01*
G01*
X180910000Y-111490000D02*
G75*
G02*
X180210000Y-110790000I0J700000D01*
G01*
X182310000Y-109490000D02*
G75*
G02*
X183010000Y-110190000I1J-699999D01*
G01*
X183010000Y-110790000D02*
G75*
G02*
X182310000Y-111490000I-699999J-1D01*
G01*
%TO.C,JP6*%
X180195000Y-103170000D02*
X180195000Y-102570000D01*
X180895000Y-101870000D02*
X182295000Y-101870000D01*
X182295000Y-103870000D02*
X180895000Y-103870000D01*
X182995000Y-102570000D02*
X182995000Y-103170000D01*
X180195000Y-102570000D02*
G75*
G02*
X180895000Y-101870000I700000J0D01*
G01*
X180895000Y-103870000D02*
G75*
G02*
X180195000Y-103170000I0J700000D01*
G01*
X182295000Y-101870000D02*
G75*
G02*
X182995000Y-102570000I1J-699999D01*
G01*
X182995000Y-103170000D02*
G75*
G02*
X182295000Y-103870000I-699999J-1D01*
G01*
%TO.C,JP14*%
X180210000Y-77770000D02*
X180210000Y-77170000D01*
X180910000Y-76470000D02*
X182310000Y-76470000D01*
X182310000Y-78470000D02*
X180910000Y-78470000D01*
X183010000Y-77170000D02*
X183010000Y-77770000D01*
X180210000Y-77170000D02*
G75*
G02*
X180910000Y-76470000I700000J0D01*
G01*
X180910000Y-78470000D02*
G75*
G02*
X180210000Y-77770000I0J700000D01*
G01*
X182310000Y-76470000D02*
G75*
G02*
X183010000Y-77170000I1J-699999D01*
G01*
X183010000Y-77770000D02*
G75*
G02*
X182310000Y-78470000I-699999J-1D01*
G01*
%TO.C,U5*%
X198120000Y-118110000D02*
X210820000Y-118110000D01*
X198120000Y-133350000D02*
X198120000Y-118110000D01*
X210820000Y-118110000D02*
X210820000Y-133350000D01*
X210820000Y-133350000D02*
X198120000Y-133350000D01*
%TO.C,JP12*%
X180225000Y-85390000D02*
X180225000Y-84790000D01*
X180925000Y-84090000D02*
X182325000Y-84090000D01*
X182325000Y-86090000D02*
X180925000Y-86090000D01*
X183025000Y-84790000D02*
X183025000Y-85390000D01*
X180225000Y-84790000D02*
G75*
G02*
X180925000Y-84090000I700000J0D01*
G01*
X180925000Y-86090000D02*
G75*
G02*
X180225000Y-85390000I0J700000D01*
G01*
X182325000Y-84090000D02*
G75*
G02*
X183025000Y-84790000I1J-699999D01*
G01*
X183025000Y-85390000D02*
G75*
G02*
X182325000Y-86090000I-699999J-1D01*
G01*
%TO.C,JP10*%
X180225000Y-90470000D02*
X180225000Y-89870000D01*
X180925000Y-89170000D02*
X182325000Y-89170000D01*
X182325000Y-91170000D02*
X180925000Y-91170000D01*
X183025000Y-89870000D02*
X183025000Y-90470000D01*
X180225000Y-89870000D02*
G75*
G02*
X180925000Y-89170000I700000J0D01*
G01*
X180925000Y-91170000D02*
G75*
G02*
X180225000Y-90470000I0J700000D01*
G01*
X182325000Y-89170000D02*
G75*
G02*
X183025000Y-89870000I1J-699999D01*
G01*
X183025000Y-90470000D02*
G75*
G02*
X182325000Y-91170000I-699999J-1D01*
G01*
%TO.C,U3*%
X198120000Y-85090000D02*
X210820000Y-85090000D01*
X198120000Y-100330000D02*
X198120000Y-85090000D01*
X210820000Y-85090000D02*
X210820000Y-100330000D01*
X210820000Y-100330000D02*
X198120000Y-100330000D01*
%TO.C,J1*%
X138320000Y-127110000D02*
X138320000Y-76090000D01*
X140970000Y-124460000D02*
X140970000Y-127110000D01*
X140970000Y-127110000D02*
X138320000Y-127110000D01*
X143620000Y-76090000D02*
X138320000Y-76090000D01*
X143620000Y-124460000D02*
X140970000Y-124460000D01*
X143620000Y-124460000D02*
X143620000Y-76090000D01*
X143620000Y-125730000D02*
X143620000Y-127110000D01*
X143620000Y-127110000D02*
X142240000Y-127110000D01*
%TO.C,U6*%
X198120000Y-134620000D02*
X210820000Y-134620000D01*
X198120000Y-149860000D02*
X198120000Y-134620000D01*
X210820000Y-134620000D02*
X210820000Y-149860000D01*
X210820000Y-149860000D02*
X198120000Y-149860000D01*
%TO.C,U4*%
X198120000Y-101600000D02*
X210820000Y-101600000D01*
X198120000Y-116840000D02*
X198120000Y-101600000D01*
X210820000Y-101600000D02*
X210820000Y-116840000D01*
X210820000Y-116840000D02*
X198120000Y-116840000D01*
%TO.C,J4*%
X192930000Y-78740000D02*
X192930000Y-71010000D01*
X195690000Y-71010000D02*
X192930000Y-71010000D01*
X195690000Y-78740000D02*
X192930000Y-78740000D01*
X195690000Y-78740000D02*
X195690000Y-71010000D01*
X195690000Y-80010000D02*
X195690000Y-81390000D01*
X195690000Y-81390000D02*
X194310000Y-81390000D01*
%TO.C,J10*%
X213250000Y-62230000D02*
X213250000Y-54500000D01*
X216010000Y-54500000D02*
X213250000Y-54500000D01*
X216010000Y-62230000D02*
X213250000Y-62230000D01*
X216010000Y-62230000D02*
X216010000Y-54500000D01*
X216010000Y-63500000D02*
X216010000Y-64880000D01*
X216010000Y-64880000D02*
X214630000Y-64880000D01*
%TO.C,U1*%
X198120000Y-52070000D02*
X210820000Y-52070000D01*
X198120000Y-67310000D02*
X198120000Y-52070000D01*
X210820000Y-52070000D02*
X210820000Y-67310000D01*
X210820000Y-67310000D02*
X198120000Y-67310000D01*
%TD*%
M02*
